<svg xmlns="http://www.w3.org/2000/svg" width="11" height="9.302" viewBox="0 0 11 9.302">
  <g id="グループ_304" data-name="グループ 304" transform="translate(-1044 -6087)">
    <g id="パス_457" data-name="パス 457" transform="translate(1044 6089.146)" fill="none">
      <path d="M0,0H9.3V7.155H0Z" stroke="none"/>
      <path d="M 1.000003814697266 0.9999985694885254 L 1.000003814697266 6.155038356781006 L 8.301544189453125 6.155038356781006 L 8.301544189453125 0.9999985694885254 L 1.000003814697266 0.9999985694885254 M 3.814697265625e-06 -1.430511474609375e-06 L 9.301544189453125 -1.430511474609375e-06 L 9.301544189453125 7.155038356781006 L 3.814697265625e-06 7.155038356781006 L 3.814697265625e-06 -1.430511474609375e-06 Z" stroke="none" fill="#111"/>
    </g>
    <g id="パス_536" data-name="パス 536" transform="translate(1046 6087)" fill="#fff">
      <path d="M 8.5 6.5 L 0.5 6.5 L 0.5 0.5 L 8.5 0.5 L 8.5 6.5 Z" stroke="none"/>
      <path d="M 1 1 L 1 6 L 8 6 L 8 1 L 1 1 M 0 0 L 9 0 L 9 7 L 0 7 L 0 0 Z" stroke="none" fill="#111"/>
    </g>
  </g>
</svg>
