<svg xmlns="http://www.w3.org/2000/svg" width="77.68242mm" height="15.51189mm" viewBox="0 0 220.20215 43.9707">
  <defs>
    <style>
      .cls-1 {
        fill: #231815;
      }

      .cls-2 {
        fill: #144f99;
      }
    </style>
  </defs>
  <g id="レイヤー_2" data-name="レイヤー 2">
    <g id="文字">
      <g>
        <path class="cls-1" d="M62.06445,24.561c-1.272.69628-2.208,1.15185-4.96826,2.42431-.57617.26367-.648.312-.76807.6001-.07177.19189-.144.35986-.28808.35986-.1919,0-.33594-.43213-.40772-.67187l-.64843-2.42432c.79248-.28808.98437-.35986,2.80859-.98437v-5.064H55.7041v-2.6167h2.08838V12.12793l2.44824.09619c.57569.02393.792.11963.792.28809,0,.144-.09619.26367-.312.38379-.19238.144-.312.24023-.312.35986v2.92822H61.9209v2.6167H60.40869v4.104c.792-.28809,1.05615-.38379,2.44824-.91211v2.08837C62.44873,24.3208,62.28076,24.44092,62.06445,24.561ZM75.458,27.80127a8.51035,8.51035,0,0,1-2.88037-1.728v6.40869H69.93749V24.36914l1.03175.0957a9.24163,9.24163,0,0,1-1.77588-2.92822h-.69629a10.60649,10.60649,0,0,1-1.51172,2.78418l.96.16846c.57617.0957.83985.168.83985.35986,0,.12012-.168.23975-.28809.312-.26367.168-.28809.168-.312.28809-.40772,3.6001-.86377,4.39209-1.272,4.94433a7.03646,7.03646,0,0,1-3.36036,2.59229l-2.01611-2.04a4.4147,4.4147,0,0,0,2.208-1.08008A5.10289,5.10289,0,0,0,65.521,25.977a14.21379,14.21379,0,0,1-4.41651,3.04834l-2.3042-2.01611a14.89225,14.89225,0,0,0,4.41651-2.4961,7.14968,7.14968,0,0,0,2.32812-2.97656H62.47266V12.2959H75.19385v9.24072H72.12158c1.15186,1.87256,2.688,2.80859,5.23242,3.9126Zm-8.0166-13.46533H65.13672v1.58447h2.30469Zm0,3.40869H65.13672v1.77588h2.30469Zm5.04-3.40869H70.12939v1.58447h2.35206Zm0,3.40869H70.12939v1.77588h2.35206Z"/>
        <path class="cls-1" d="M95.76172,15.94434a14.19474,14.19474,0,0,1-.88818,2.40039h4.63232V30.9458c0,1.2959-.74414,1.87207-2.28027,1.87207H95.78564l-1.03222-2.37646v.48h-6.9126v.50439H85.36865V25.88135c-.26416.168-.35986.21582-.57617.33594L83.13623,24.9209v7.77685H80.47217v-14.353h4.75244a18.02895,18.02895,0,0,0-1.03223-2.40039H79.7041V13.832h8.78467V12.00781l2.83252.21631c.19189.02393.50391.04785.50391.26367,0,.14405-.144.24024-.43213.43213V13.832h8.80908v2.11231ZM83.13623,20.7207v3.88819a6.73746,6.73746,0,0,0,3.16846-3.88819Zm13.84961,0H92.2334v1.36817c0,.28808.11963.35986.52783.35986h1.29639c.35986,0,.57568-.144.64795-1.12793l1.94384.76807c-.11962,1.00781-.312,2.61621-1.99218,2.61621H91.897c-1.39209,0-1.84814-.55225-1.84814-1.584V20.7207h-3.624l1.87208,1.0083c.09619.04786.4082.21582.4082.40772a.28957.28957,0,0,1-.19238.26416c-.38379.144-.43165.144-.59961.456A7.7061,7.7061,0,0,1,85.65674,25.665h9.09668v4.65625c.64795.04834.81592.07226,1.29638.07226.71973,0,.936-.04785.936-.86425Zm-9.72119-4.77636a19.95891,19.95891,0,0,1,1.05615,2.40039h3.36035a17.01779,17.01779,0,0,0,1.12793-2.40039ZM92.2334,27.56152H87.84082v1.4878H92.2334Z"/>
        <path class="cls-1" d="M122.76172,26.19336v3.55225h-2.52v-.64795h-4.92041v1.728c0,1.39209-.6001,2.01612-3.96045,2.04l-1.2002-2.61621c.624.04785,1.29639.12012,1.70411.12012.38427,0,.74414-.12012.74414-.55225v-.71972h-7.3208V27.2251h7.3208V26.19336H103.896V24.3208h8.71289v-.91162h-7.3208V21.53662h7.3208v-.91211h-5.9043v-4.416h5.9043v-.84034H103.896v-2.064h8.71289V11.71973l2.83252.36035c.11963.02392.28759.07178.28759.21582s-.04785.168-.26367.33594a.254.254,0,0,0-.144.2163v.45606h8.68848v2.064h-8.68848v.84034h5.88037v4.416h-5.88037v.91211h7.44043V24.3208h1.34375v1.87256Zm-10.15283-8.353h-3.45606v1.15235h3.45606Zm6.1206,0h-3.4082v1.15235h3.4082Zm1.51221,5.56885h-4.92041v.91162h4.92041Zm0,2.78418h-4.92041V27.2251h4.92041Z"/>
        <path class="cls-1" d="M134.76074,24.99316a8.53533,8.53533,0,0,1-1.3916-1.48828v9.169h-2.44922v-8.353a16.29366,16.29366,0,0,1-2.18359,3.62451l-1.96875-1.43994a20.24522,20.24522,0,0,0,3.84082-8.28076h-2.95215V15.96826h3.26367V11.96l2.18457.168c.19239.02393.69629.04785.69629.28809a.39514.39514,0,0,1-.1914.28808c-.09668.07178-.24024.1919-.24024.26416v3h2.63965v2.25635h-2.63965v1.31982A10.07432,10.07432,0,0,0,136.249,23.145Zm12.81738,6.19239a19.783,19.783,0,0,1-4.05664-4.34424v5.83252h-2.42382V26.50537a29.39633,29.39633,0,0,1-4.94532,5.37647l-1.96777-1.72852a19.61948,19.61948,0,0,0,5.97656-7.2002h-3.45605V20.62451h4.39258V18.15234h-2.13672a12.19,12.19,0,0,1-.98438,1.75245l-2.06347-1.05616a13.073,13.073,0,0,0,2.30371-5.66455l2.041.48c.50391.12012.50391.24024.50391.312,0,.14405-.04883.1919-.24024.26416-.04882.02393-.26367.12012-.26367.168-.19238.6958-.28906,1.05616-.43261,1.48828h1.27246V12.00781l2.40039.168c.1914.02442.64746.04834.64746.312a.31757.31757,0,0,1-.19239.26416c-.38378.312-.43164.33594-.43164.45606v2.68847h4.51172v2.25586h-4.51172v2.47217h4.82422v2.32861h-4.39258a13.66343,13.66343,0,0,0,5.4004,6.33643Z"/>
        <path class="cls-1" d="M162.8418,30.48975c-2.08887.40771-6.96094,1.31982-6.98535,1.31982-.23926.04785-1.416.21631-1.68067.26416a1.82849,1.82849,0,0,0-1.15137.45606c-.31152.35986-.33593.4082-.50488.4082a.29867.29867,0,0,1-.31152-.26416l-.45606-2.95215c1.32032-.168,2.16016-.28809,4.20117-.55225V24.2251H152.208V21.63281h9.74511V24.2251h-3.07226v4.53613c1.56055-.19189,2.06445-.26367,4.08008-.55176Zm7.15234,2.04c-2.59277,0-4.873-3.88819-5.76074-5.92872a25.00184,25.00184,0,0,1-2.04-7.75244h-10.417V16.25635h10.17675c-.14453-1.92041-.21679-2.76026-.21679-4.12842l2.16015.26416c.67286.07178,1.08106.144,1.08106.48,0,.12012-.07227.19189-.26465.28809-.26367.144-.28711.23974-.28711.33593.07129,1.43995.07129,1.8003.0957,2.76026h7.6084v2.59228h-7.44043a22.761,22.761,0,0,0,2.73633,8.1128c.91211,1.53613,1.7041,2.18408,2.25586,2.18408.52832,0,1.00781-1.68018,1.15234-2.23242l1.94336,1.82421C172.58594,29.45752,171.67383,32.52979,169.99414,32.52979Zm-.625-16.32129a21.27737,21.27737,0,0,0-3.24023-2.42432l1.34472-1.80029a18.632,18.632,0,0,1,3.45606,2.16015Z"/>
        <path class="cls-1" d="M194.73828,20.81689a14.42868,14.42868,0,0,1-2.76074-1.27246V21.585H180.4082V19.6167a21.29716,21.29716,0,0,1-3,1.56006L175.584,19.06445a16.87539,16.87539,0,0,0,8.76075-7.32031l3.43261.59961c.19141.02441.35938.144.35938.3125a.34285.34285,0,0,1-.21484.312,17.8902,17.8902,0,0,0,4.05566,3.43213,21.84023,21.84023,0,0,0,4.65625,2.11231Zm-1.584,12.001a16.61975,16.61975,0,0,0-1.585-2.13623c-3.28809.4082-8.68848,1.00781-9.38477,1.08008-.50391.04785-3.04785.26416-3.624.35986a.304.304,0,0,0-.24024.168c-.14453.28809-.21582.36035-.28808.36035a.28092.28092,0,0,1-.21582-.21631l-.76758-3.144c1.51172,0,2.18359-.02393,3.38379-.07226.60058-.96,1.10449-1.79981,2.18457-3.86426H177.168V23.0249h17.6416V25.353h-5.06445a35.50447,35.50447,0,0,1,5.59277,5.66455Zm-7.12891-18.31348a23.37689,23.37689,0,0,1-4.96875,4.70411H191.377A21.81626,21.81626,0,0,1,186.02539,14.50439Zm1.72852,12.60108,1.72754-1.75244h-3.60059c-1.12793,1.99218-1.82422,3.04834-2.25586,3.69629,2.01562-.09571,4.00781-.21582,6-.45606A14.55733,14.55733,0,0,0,187.75391,27.10547Z"/>
        <path class="cls-1" d="M207.96094,26.72119a16.46959,16.46959,0,0,1-2.61621-2.3042v8.16065h-2.52051V25.85693a15.25884,15.25884,0,0,1-2.11133,1.63233l-1.80078-1.84815a18.16828,18.16828,0,0,0,6.36035-6.64843h-5.376V16.40039h2.87989V12.12793l2.78418.312c.14453.02393.26367.09619.26367.21631a.34593.34593,0,0,1-.168.23975c-.33594.33593-.38379.38427-.38379.48v3.02441h2.59277l1.08008,1.08008a18.24689,18.24689,0,0,1-2.64062,4.53613,12.992,12.992,0,0,0,3.0957,2.68848Zm-1.17578,5.42432v-2.5918h5.66406V21.53662h-3.625V18.94434h3.625V12.08008l2.95215.28808c.12011,0,.26465.09571.26465.21582a.38308.38308,0,0,1-.1211.24024c-.1914.19189-.33594.312-.33594.40771v5.71241h4.39258v2.59228H215.209v8.01709h4.99317v2.5918Z"/>
      </g>
      <g>
        <path class="cls-2" d="M31.41675,3.22363c.05444.01012-16.34082-.2429-16.41675,12.75v15.5c.25,4.41667-2.625,7-7.08333,8.66667,0,0-.11612.69984.58333.66667,3.37587-.16011,13.84326-1.81643,15.5-10.58334v-15.75S23.54167,4.8903,31.54167,4.1403Z"/>
        <polygon class="cls-2" points="9.729 38.474 0 33 0 10.971 19.5 0 24.667 2.974 20.75 5.14 19.5 4.59 4 13.31 4 30.661 13 35.724 9.729 38.474"/>
        <polygon class="cls-2" points="19.5 43.971 14.833 41.307 18.5 39.057 19.5 39.381 35 30.661 35 13.31 26.586 8.665 29.917 6.057 39 10.971 39 33 19.5 43.971"/>
      </g>
    </g>
  </g>
</svg>
