<svg xmlns="http://www.w3.org/2000/svg" width="402.48" height="104.256" viewBox="0 0 402.48 104.256">
  <path id="パス_1271" data-name="パス 1271" d="M41.04-102.528v78.336A24.677,24.677,0,0,1,34.416-6.624a24.561,24.561,0,0,1-7.848,5.472A25.862,25.862,0,0,1,15.984.864a20.837,20.837,0,0,1-11.736-3.1,39.011,39.011,0,0,1-7.416-6.12l11.52-9.216A14.7,14.7,0,0,0,12.024-14.9a9.433,9.433,0,0,0,4.392,1.08,11.006,11.006,0,0,0,3.024-.5,8.472,8.472,0,0,0,3.312-1.944,9.341,9.341,0,0,0,2.592-3.672,16.27,16.27,0,0,0,1.008-6.264v-76.32ZM54-78.336A26.2,26.2,0,0,1,56.16-89.28a23.126,23.126,0,0,1,5.76-7.92,24.351,24.351,0,0,1,7.848-4.608,25.938,25.938,0,0,1,8.856-1.584,25.938,25.938,0,0,1,8.856,1.584A26.1,26.1,0,0,1,95.472-97.2a24.112,24.112,0,0,1,5.616,7.92,26.2,26.2,0,0,1,2.16,10.944v54.144a25.957,25.957,0,0,1-2.16,11.088,22.875,22.875,0,0,1-5.616,7.632A24.693,24.693,0,0,1,87.48-.72,25.938,25.938,0,0,1,78.624.864,25.938,25.938,0,0,1,69.768-.72,23.106,23.106,0,0,1,61.92-5.472,21.984,21.984,0,0,1,56.16-13.1,25.957,25.957,0,0,1,54-24.192ZM68.688-24.192q0,5.328,2.952,7.848a10.412,10.412,0,0,0,6.984,2.52,10.412,10.412,0,0,0,6.984-2.52q2.952-2.52,2.952-7.848V-78.336q0-5.328-2.952-7.848a10.412,10.412,0,0,0-6.984-2.52,10.412,10.412,0,0,0-6.984,2.52q-2.952,2.52-2.952,7.848ZM116.208,0V-102.528h21.456a30.081,30.081,0,0,1,12.024,2.16,22.683,22.683,0,0,1,8.136,5.76,21.509,21.509,0,0,1,4.536,8.28,34.466,34.466,0,0,1,1.368,9.72v3.744a32.715,32.715,0,0,1-.648,7.056,16.973,16.973,0,0,1-1.944,5.04,20.2,20.2,0,0,1-7.488,6.912,15.929,15.929,0,0,1,7.632,7.2q2.448,4.752,2.448,12.96v5.76q0,13.536-6.552,20.736T136.224,0ZM130.9-47.52v32.832h6.336a15.481,15.481,0,0,0,6.984-1.3,8.941,8.941,0,0,0,3.816-3.6,13.547,13.547,0,0,0,1.584-5.472q.288-3.168.288-6.912a46.248,46.248,0,0,0-.432-6.768,12.335,12.335,0,0,0-1.728-4.9,8.289,8.289,0,0,0-3.888-2.952,18.516,18.516,0,0,0-6.48-.936Zm0-41.184V-60.48h6.624q7.344,0,9.864-3.672T149.9-74.88q0-6.912-2.808-10.368T136.944-88.7ZM204.768,0V-102.528h14.688V0Zm28.368,0V-102.528h14.112l22.176,61.776h.288v-61.776H284.4V0H270.576L248.112-61.632h-.288V0Zm64.512,0V-102.528h43.776V-88.7H312.336v31.1H337.68v13.824H312.336V0Zm52.416-78.336a26.2,26.2,0,0,1,2.16-10.944,23.126,23.126,0,0,1,5.76-7.92,24.352,24.352,0,0,1,7.848-4.608,25.938,25.938,0,0,1,8.856-1.584,25.938,25.938,0,0,1,8.856,1.584,26.1,26.1,0,0,1,7.992,4.608,24.112,24.112,0,0,1,5.616,7.92,26.2,26.2,0,0,1,2.16,10.944v54.144a25.957,25.957,0,0,1-2.16,11.088,22.874,22.874,0,0,1-5.616,7.632A24.693,24.693,0,0,1,383.544-.72,25.938,25.938,0,0,1,374.688.864,25.938,25.938,0,0,1,365.832-.72a23.106,23.106,0,0,1-7.848-4.752,21.984,21.984,0,0,1-5.76-7.632,25.957,25.957,0,0,1-2.16-11.088Zm14.688,54.144q0,5.328,2.952,7.848a10.412,10.412,0,0,0,6.984,2.52,10.412,10.412,0,0,0,6.984-2.52q2.952-2.52,2.952-7.848V-78.336q0-5.328-2.952-7.848a10.412,10.412,0,0,0-6.984-2.52,10.412,10.412,0,0,0-6.984,2.52q-2.952,2.52-2.952,7.848Z" transform="translate(3.168 103.392)" fill="#fff"/>
</svg>
