<svg xmlns="http://www.w3.org/2000/svg" width="272.304" height="102.528" viewBox="0 0 272.304 102.528">
  <path id="パス_1300" data-name="パス 1300" d="M6.912,0V-102.528H50.688V-88.7H21.6v30.1H46.944v13.824H21.6v30.1H50.688V0Zm52.7,0V-102.528H73.728L95.9-40.752h.288v-61.776H110.88V0H97.056L74.592-61.632H74.3V0Zm74.16,0V-88.7H116.784v-13.824h48.672V-88.7H148.464V0Zm52.848-88.7v31.968h8.352a14.779,14.779,0,0,0,6.192-1.08,8.416,8.416,0,0,0,3.6-3.1,14.075,14.075,0,0,0,1.584-4.968,47.77,47.77,0,0,0,.432-6.84,47.77,47.77,0,0,0-.432-6.84,13.688,13.688,0,0,0-1.728-5.112Q201.888-88.7,194.256-88.7ZM171.936,0V-102.528h23.616q25.92,0,25.92,30.1a37.929,37.929,0,0,1-2.808,15.408A21.774,21.774,0,0,1,208.8-46.8L224.64,0H209.088l-13.68-43.776h-8.784V0Zm72.432,0V-43.344l-20.16-59.184H239.76l11.808,40.752h.288l11.808-40.752h15.552l-20.16,59.184V0Z" transform="translate(-6.912 102.528)" fill="#fff"/>
</svg>
