<svg xmlns="http://www.w3.org/2000/svg" xmlns:xlink="http://www.w3.org/1999/xlink" width="346.78" height="382.659" viewBox="0 0 346.78 382.659">
  <defs>
    <linearGradient id="linear-gradient" x1="0.5" x2="0.5" y2="1" gradientUnits="objectBoundingBox">
      <stop offset="0" stop-color="#03a8e5"/>
      <stop offset="1" stop-color="#003a9a"/>
    </linearGradient>
    <filter id="パス_487" x="0" y="0" width="346.78" height="382.659" filterUnits="userSpaceOnUse">
      <feOffset dx="5" dy="5" input="SourceAlpha"/>
      <feGaussianBlur stdDeviation="15" result="blur"/>
      <feFlood flood-color="#002650" flood-opacity="0.392"/>
      <feComposite operator="in" in2="blur"/>
      <feComposite in="SourceGraphic"/>
    </filter>
  </defs>
  <g id="グループ_304" data-name="グループ 304" transform="translate(-376 -3955.924)">
    <g transform="matrix(1, 0, 0, 1, 376, 3955.92)" filter="url(#パス_487)">
      <path id="パス_487-2" data-name="パス 487" d="M255.78,218.631V72.877L127.89,0,0,72.877V218.631l127.89,72.877Z" transform="translate(296.28 332.08) rotate(180)" stroke="#fff" stroke-width="1" fill="url(#linear-gradient)"/>
    </g>
    <path id="パス_604" data-name="パス 604" d="M235.707,752.443a4.9,4.9,0,0,1-4.881,4.881H167.459a4.9,4.9,0,0,1-4.881-4.881V689.074a4.9,4.9,0,0,1,4.881-4.88h63.368a4.9,4.9,0,0,1,4.881,4.88v63.368Zm-4.881-73.206H167.459a9.846,9.846,0,0,0-9.838,9.838v63.368a9.847,9.847,0,0,0,9.838,9.839h63.368a9.846,9.846,0,0,0,9.838-9.839V689.074a9.845,9.845,0,0,0-9.838-9.838ZM248.1,752.443a17.3,17.3,0,0,1-17.275,17.275H167.459a17.3,17.3,0,0,1-17.275-17.275V689.074A17.3,17.3,0,0,1,167.459,671.8h63.368A17.3,17.3,0,0,1,248.1,689.074v63.368Zm22.311-76.305H254.748a27.321,27.321,0,0,0-10.979-10.981V649.489h-11.6v12.462c-.448-.022-.888-.067-1.342-.067h-2.672V649.489H216.549v12.395h-4.014V649.489h-11.6v12.395h-4.019V649.489h-11.6v12.395h-3.573V649.489h-11.6v12.395h-2.682c-.45,0-.891.046-1.336.067V649.489h-11.6v15.662a27.307,27.307,0,0,0-10.988,10.986H127.873v11.6h12.463c-.022.446-.068.886-.068,1.336v2.678H127.873v11.6h12.395v4.016H127.873v11.6h12.395v4.019H127.873v11.6h12.395v3.576H127.873v11.6h12.395v2.68c0,.453.046.893.068,1.339H127.873v11.6h15.665a27.306,27.306,0,0,0,10.988,10.986v15.663h11.6V779.566c.445.022.886.068,1.336.068h2.682v12.395h11.6V779.634h3.573v12.395h11.6V779.634h4.019v12.395h11.6V779.634h4.014v12.395h11.605V779.634h2.672c.453,0,.893-.046,1.342-.068v12.463h11.6V776.361a27.32,27.32,0,0,0,10.979-10.981h15.665v-11.6H257.951c.021-.445.067-.886.067-1.339v-2.68h12.395v-11.6H258.018v-3.576h12.395v-11.6H258.018V718.97h12.395v-11.6H258.018v-4.016h12.395v-11.6H258.018v-2.678c0-.45-.046-.89-.067-1.336h12.462v-11.6ZM219.26,695.969H179.026a4.678,4.678,0,0,0-4.672,4.672v40.234a4.679,4.679,0,0,0,4.672,4.672H219.26a4.678,4.678,0,0,0,4.672-4.672V700.642a4.678,4.678,0,0,0-4.672-4.672Z" transform="translate(345.127 3421.511)" fill="#fff" opacity="0.298"/>
  </g>
</svg>
