<svg xmlns="http://www.w3.org/2000/svg" width="133.98" height="201.988" viewBox="0 0 133.98 201.988">
  <path id="パス_632" data-name="パス 632" d="M518.808,931.394l-10.455-2.972,9.967-32.081,27.422-16.93-26.934,51.983Zm-20.661-62.763c2.2,4.378,6.248,12.062,13.666,25.849l-9.97,32.091-12.018-3.417,8.322-54.522ZM473.264,926.1l-13.007-34.556,9.271-20.32,10.9,52.211-7.168,2.665Zm-40.689-38.111,21.45,6.209,12.9,34.26-7.555,2.809-26.791-43.278Zm2.993-50.029.638.519c2.938,2.387,7.037,5.592,12.183,9.526,8.737,6.678,17.608,13.249,17.7,13.315a3.408,3.408,0,0,0,.407.255l-11.762,25.782-22.908-6.631a3.369,3.369,0,0,0-.729-.123l4.476-42.644Zm24.762-43.876,28.346,25.869,3.759,41.252L484.8,911.242,460.33,794.084Zm22.027-48.171,33.734,36.08-24.579,31.387-29.93-27.315a3.335,3.335,0,0,0-.852-.55l21.627-39.6Zm16.256,108.516-3.2-35.061,21.739-27.762v42.779a3.365,3.365,0,0,0,.246,1.253l-18.79,18.791Zm34.349-24.781L550.1,868.769,516.744,889.36c-5.8-10.807-13.665-25.65-14.583-27.891a3.329,3.329,0,0,0-.294-.726l31.095-31.095Zm24.7,41.26c.007-.026.01-.053.016-.08a3.414,3.414,0,0,0,.075-.551c0-.017,0-.033,0-.05a3.419,3.419,0,0,0-.032-.568c-.005-.039-.009-.078-.016-.117a3.413,3.413,0,0,0-.14-.541c-.013-.039-.028-.077-.043-.116s-.032-.093-.052-.138l-20.3-46.352a3.383,3.383,0,0,0-5.491-1.035l-7.758,7.758V781.8c0-.07-.015-.137-.019-.206-.007-.105-.014-.21-.03-.315s-.043-.214-.07-.32-.052-.2-.087-.3-.083-.2-.13-.3-.089-.192-.144-.284-.123-.183-.19-.273-.122-.17-.193-.25c-.018-.02-.031-.044-.05-.064L484.1,737.872a3.384,3.384,0,0,0-5.441.689L452.61,786.267a3.383,3.383,0,0,0-.342,2.313l13.359,63.968c-13.8-10.3-27.54-20.925-29.711-23.246a3.384,3.384,0,0,0-6.37,1.2v.006l-5.751,54.805a3.381,3.381,0,0,0,.488,2.134l30.789,49.736a3.38,3.38,0,0,0,4.056,1.39l26.084-9.7,34.4,9.782a3.382,3.382,0,0,0,3.93-1.7l33.833-65.3c.019-.036.033-.074.05-.111s.034-.074.05-.111a3.382,3.382,0,0,0,.18-.531Z" transform="translate(-423.776 -736.799)" fill="#fff" opacity="0.3"/>
</svg>
