<svg xmlns="http://www.w3.org/2000/svg" width="122.8" height="151.24" viewBox="0 0 122.8 151.24">
  <g id="グループ_197" data-name="グループ 197" transform="translate(-487 -5691.343)" opacity="0.3" style="isolation: isolate">
    <path id="パス_606" data-name="パス 606" d="M-520.3,998.485v-7.109h-10.779c-.04-.206-.044-.41-.105-.617l-8.539-28.685-76.876,29.3h-10.813v7.109h-7.844v15.856h122.8V998.485Z" transform="translate(1122.252 4828.242)" fill="#fff"/>
    <path id="パス_607" data-name="パス 607" d="M-497.773,791.612l-34.66,13.211-6.465,21.718,46.273-17.637-5.148-17.292Z" transform="translate(1061.537 4935.654)" fill="#fff"/>
    <path id="パス_608" data-name="パス 608" d="M-506.6,882.237l-57.171,21.791-4.974,16.706,66.1-25.2-3.96-13.3Z" transform="translate(1080.346 4878.549)" fill="#fff"/>
    <path id="パス_609" data-name="パス 609" d="M-485.784,698.964a6.262,6.262,0,0,0-12,0l-7.227,24.277,23.762-9.057-4.531-15.22Z" transform="translate(1040.186 4996.854)" fill="#fff"/>
  </g>
</svg>
