<svg xmlns="http://www.w3.org/2000/svg" xmlns:xlink="http://www.w3.org/1999/xlink" width="346.78" height="382.659" viewBox="0 0 346.78 382.659">
  <defs>
    <linearGradient id="linear-gradient" x1="0.5" x2="0.5" y2="1" gradientUnits="objectBoundingBox">
      <stop offset="0" stop-color="#03a8e5"/>
      <stop offset="1" stop-color="#003a9a"/>
    </linearGradient>
    <filter id="パス_487" x="0" y="0" width="346.78" height="382.659" filterUnits="userSpaceOnUse">
      <feOffset dx="5" dy="5" input="SourceAlpha"/>
      <feGaussianBlur stdDeviation="15" result="blur"/>
      <feFlood flood-color="#002650" flood-opacity="0.392"/>
      <feComposite operator="in" in2="blur"/>
      <feComposite in="SourceGraphic"/>
    </filter>
  </defs>
  <g id="グループ_304" data-name="グループ 304" transform="translate(-375.694 -1510.537)">
    <g transform="matrix(1, 0, 0, 1, 375.69, 1510.54)" filter="url(#パス_487)">
      <path id="パス_487-2" data-name="パス 487" d="M255.78,218.631V72.877L127.89,0,0,72.877V218.631l127.89,72.877Z" transform="translate(296.28 332.08) rotate(180)" stroke="#fff" stroke-width="1" fill="url(#linear-gradient)"/>
    </g>
    <g id="グループ_186" data-name="グループ 186" transform="translate(138.811 1539.084)" opacity="0.301">
      <path id="パス_599" data-name="パス 599" d="M590.075,493.109a12.71,12.71,0,0,1-5.414-2.23l-6.742,4.87a11.9,11.9,0,1,0,22.38-5.435,12.767,12.767,0,0,1-10.223,2.795Z" transform="translate(-168.951 -277.505)" fill="#fff"/>
      <path id="パス_600" data-name="パス 600" d="M432.23,118.328a12.08,12.08,0,0,0,4.323,4.388c-1.634,2.034-3.722,4.506-6.12,7.006-3.866,4.077-8.569,8.1-13.048,10.369a12.908,12.908,0,0,0-5.07-3.6c5.292-7.748,14.346-14.534,19.914-18.167ZM465.179,196.1a11.894,11.894,0,0,0-13.529,9.3c-5.08-1.239-11.836-2.841-16.667-3.866a11.863,11.863,0,0,0-13.711-10.36L412.85,160.4a12.956,12.956,0,0,0,6.581-17.061c5.046-2.6,9.765-6.86,13.762-10.975,2.877-3,5.324-5.95,7.1-8.2.172.031.34.075.516.106a12.121,12.121,0,1,0-10.035-13.894,11.981,11.981,0,0,0,.093,4.3c-5.938,3.795-16.557,11.422-22.526,20.934a12.972,12.972,0,0,0-12.816,8.105l-30.8-5.953a11.9,11.9,0,0,0-9.993-11.953,12.28,12.28,0,0,0-1.9-.14l-5.533-19.649a11.869,11.869,0,1,0-3.655,1.1l5.394,19.161a11.9,11.9,0,1,0,15.013,15.242l30.583,5.913a12.921,12.921,0,0,0,2.944,9.412l-5.688,6.826a11.691,11.691,0,0,0-4.3-1.587,11.925,11.925,0,1,0,7.2,4.081l5.641-6.767a12.874,12.874,0,0,0,8.731,2.028l8.469,30.949a11.877,11.877,0,0,0-4.486,16.947l-11.068,7.984a11.948,11.948,0,1,0,2.554,2.882l4.413-3.19,6.668-4.813a11.9,11.9,0,0,0,19.08-6.8c4.907,1.059,11.723,2.686,16.672,3.895A11.9,11.9,0,1,0,465.179,196.1Z" transform="translate(0 0)" fill="#fff"/>
    </g>
  </g>
</svg>
