<svg xmlns="http://www.w3.org/2000/svg" width="104.787" height="180.428" viewBox="0 0 104.787 180.428">
  <g id="グループ_195" data-name="グループ 195" transform="translate(109.977 -1001.94)" opacity="0.303">
    <path id="パス_601" data-name="パス 601" d="M-21.881,1115.478a15.665,15.665,0,0,1-20.9,7.282,15.656,15.656,0,0,1-7.278-20.9,15.631,15.631,0,0,1,20.9-7.278,15.66,15.66,0,0,1,7.282,20.9Zm14.97,19.276c-9.576-34.492-25.737-56.271-25.737-56.271-7.706-9.357-15.613-11.137-24.394-11.137s-16.684,1.78-24.39,11.137a183.141,183.141,0,0,0-26.982,58.926c-2.78,10.936-1.869,16.532,2.883,21.8l23.007,18.5c7.706,5.868,14.417,5.926,18.665,1.687,4.226-4.226.928-11.137-3.244-15.269l-13.021-15.613,3.717-.459c1.535-.049,3.3.629,6.073,1.682l3.565,1.539,8.362-17.295-5.421-4.025a9.829,9.829,0,0,1-3.9-4.5l-4.355-10.928c-1.571-3.195-1.571-6.037,1.642-7.639s5.162.272,6.756,3.476l5.283,8.416,16.483,8.656c3.851,1.776,8.719,4.725,8.719,14.622a64.347,64.347,0,0,1-1.258,6.756l-12.766,15.309c-4.176,4.132-7.469,11.044-3.244,15.269s10.959,4.181,18.66-1.687l9.8-7.782c12.159-11.307,20.6-15.354,15.091-35.17Zm-50.234-74.526a29.121,29.121,0,0,0,29.12-29.146,29.114,29.114,0,0,0-29.12-29.142,29.143,29.143,0,0,0-29.146,29.142,29.15,29.15,0,0,0,29.146,29.146Z" transform="translate(0 0)" fill="#fff"/>
  </g>
</svg>
