<svg xmlns="http://www.w3.org/2000/svg" xmlns:xlink="http://www.w3.org/1999/xlink" width="346.78" height="382.659" viewBox="0 0 346.78 382.659">
  <defs>
    <linearGradient id="linear-gradient" x1="0.5" x2="0.5" y2="1" gradientUnits="objectBoundingBox">
      <stop offset="0" stop-color="#03a8e5"/>
      <stop offset="1" stop-color="#003a9a"/>
    </linearGradient>
    <filter id="パス_487" x="0" y="0" width="346.78" height="382.659" filterUnits="userSpaceOnUse">
      <feOffset dx="5" dy="5" input="SourceAlpha"/>
      <feGaussianBlur stdDeviation="15" result="blur"/>
      <feFlood flood-color="#002650" flood-opacity="0.392"/>
      <feComposite operator="in" in2="blur"/>
      <feComposite in="SourceGraphic"/>
    </filter>
  </defs>
  <g id="グループ_304" data-name="グループ 304" transform="translate(-375.694 -5585.538)">
    <g transform="matrix(1, 0, 0, 1, 375.69, 5585.54)" filter="url(#パス_487)">
      <path id="パス_487-2" data-name="パス 487" d="M255.78,218.631V72.877L127.89,0,0,72.877V218.631l127.89,72.877Z" transform="translate(296.28 332.08) rotate(180)" stroke="#fff" stroke-width="1" fill="url(#linear-gradient)"/>
    </g>
    <g id="グループ_189" data-name="グループ 189" transform="translate(-4.15 -6.343)" opacity="0.3" style="isolation: isolate">
      <path id="パス_606" data-name="パス 606" d="M-520.3,998.485v-7.109h-10.779c-.04-.206-.044-.41-.105-.617l-8.539-28.685-76.876,29.3h-10.813v7.109h-7.844v15.856h122.8V998.485Z" transform="translate(1122.252 4828.242)" fill="#fff"/>
      <path id="パス_607" data-name="パス 607" d="M-497.773,791.612l-34.66,13.211-6.465,21.718,46.273-17.637-5.148-17.292Z" transform="translate(1061.537 4935.654)" fill="#fff"/>
      <path id="パス_608" data-name="パス 608" d="M-506.6,882.237l-57.171,21.791-4.974,16.706,66.1-25.2-3.96-13.3Z" transform="translate(1080.346 4878.549)" fill="#fff"/>
      <path id="パス_609" data-name="パス 609" d="M-485.784,698.964a6.262,6.262,0,0,0-12,0l-7.227,24.277,23.762-9.057-4.531-15.22Z" transform="translate(1040.186 4996.854)" fill="#fff"/>
    </g>
  </g>
</svg>
