<svg xmlns="http://www.w3.org/2000/svg" xmlns:xlink="http://www.w3.org/1999/xlink" width="346.78" height="382.659" viewBox="0 0 346.78 382.659">
  <defs>
    <linearGradient id="linear-gradient" x1="0.5" x2="0.5" y2="1" gradientUnits="objectBoundingBox">
      <stop offset="0" stop-color="#03a8e5"/>
      <stop offset="1" stop-color="#003a9a"/>
    </linearGradient>
    <filter id="パス_487" x="0" y="0" width="346.78" height="382.659" filterUnits="userSpaceOnUse">
      <feOffset dx="5" dy="5" input="SourceAlpha"/>
      <feGaussianBlur stdDeviation="15" result="blur"/>
      <feFlood flood-color="#002650" flood-opacity="0.392"/>
      <feComposite operator="in" in2="blur"/>
      <feComposite in="SourceGraphic"/>
    </filter>
  </defs>
  <g id="グループ_305" data-name="グループ 305" transform="translate(-375.694 -3140.537)">
    <g transform="matrix(1, 0, 0, 1, 375.69, 3140.54)" filter="url(#パス_487)">
      <path id="パス_487-2" data-name="パス 487" d="M255.78,218.631V72.877L127.89,0,0,72.877V218.631l127.89,72.877Z" transform="translate(296.28 332.08) rotate(180)" stroke="#fff" stroke-width="1" fill="url(#linear-gradient)"/>
    </g>
    <g id="グループ_188" data-name="グループ 188" transform="translate(13 8.606)" opacity="0.298" style="isolation: isolate">
      <path id="パス_602" data-name="パス 602" d="M416.952,995.518c-3.243,2.617-8.394,4.4-15.43,4.4h-75.7c-7.035,0-12.186-1.779-15.43-4.4a12.965,12.965,0,0,1-4.905-10.588c0-3.7,1.22-8.194,4.088-13.157l15.91-27.555c5.377-9.317,10.252-17.792,13.783-23.959,1.766-3.084,3.193-5.592,4.187-7.344.5-.877.883-1.562,1.152-2.05l.326-.595.127-.246.1-.217.111-.282.1-.346a3.647,3.647,0,0,0,.119-.963c0-.086-.019-.2-.027-.3h.012l0-.109c-.039-1.353-.077-8.49-.1-17.143-.027-7.333-.042-15.741-.046-22.995h36.686c-.008,7.79-.023,16.978-.05,24.641-.015,4.5-.035,8.466-.054,11.3-.011,1.419-.019,2.555-.031,3.324,0,.382-.011.678-.015.85l0,.129h0c-.008.129-.019.225-.019.294l0,.184h.011a4.022,4.022,0,0,0,.1.779l.169.518.2.421c.146.284.349.647.675,1.234,2.257,4.024,9.838,17.247,18.854,32.865l15.91,27.557c2.867,4.96,4.091,9.453,4.088,13.157a12.976,12.976,0,0,1-4.905,10.588Zm7.626-27.675-15.91-27.557c-5.377-9.309-10.248-17.779-13.772-23.933-1.762-3.078-3.186-5.579-4.168-7.312-.422-.746-.745-1.32-.994-1.762.019-1.021.031-2.643.046-4.83.05-8.116.088-23.123.1-34.9a9.23,9.23,0,0,0-1.19-18.385H338.66a9.23,9.23,0,0,0-1.19,18.385c.007,7.824.023,17.078.05,24.791.015,4.5.035,8.477.054,11.333.011,1.428.019,2.573.031,3.377,0,.095,0,.139,0,.225-.046.083-.077.14-.131.234-2.2,3.925-9.795,17.182-18.8,32.775l-15.909,27.555c-3.393,5.884-5.135,11.668-5.139,17.087a20.9,20.9,0,0,0,7.845,16.718c5.047,4.043,12.029,6.125,20.35,6.127h75.7c8.321,0,15.3-2.084,20.35-6.127a20.914,20.914,0,0,0,7.845-16.718c0-5.419-1.746-11.2-5.139-17.087Z" transform="translate(169.371 2389.558)" fill="#fff"/>
      <path id="パス_603" data-name="パス 603" d="M381.255,1149.384a5.894,5.894,0,1,1,5.9-5.893,5.894,5.894,0,0,1-5.9,5.893Zm-14.413-19a7.861,7.861,0,1,1,7.865-7.861,7.86,7.86,0,0,1-7.865,7.861Zm56.859-22.143a1.959,1.959,0,0,0-1.681-.946H410.18a13.756,13.756,0,1,1-17.234,0H352.28a1.958,1.958,0,0,0-1.681.946l-8.156,13.462c-3.643,6.051-6.1,11.7-6.134,16.791a10.742,10.742,0,0,0,4.99,9.444c3.385,2.19,8.225,3.236,14.942,3.245H418.06c6.729-.009,11.569-1.053,14.958-3.237a10.724,10.724,0,0,0,4.99-9.432c-.031-5.091-2.506-10.751-6.149-16.808l-8.156-13.464Z" transform="translate(145.894 2232.882)" fill="#fff"/>
    </g>
  </g>
</svg>
