<svg xmlns="http://www.w3.org/2000/svg" width="545.76" height="103.392" viewBox="0 0 545.76 103.392">
  <path id="パス_1220" data-name="パス 1220" d="M7.344,0V-102.528H22.032V0ZM45.936,0V-88.7H28.944v-13.824H77.616V-88.7H60.624V0ZM84.1,0V-102.528h43.776V-88.7H98.784v30.1h25.344v13.824H98.784v30.1h29.088V0Zm53.28,0V-102.528h14.112L170.352-48.24h.288l18.72-54.288h14.256V0H188.928V-62.352h-.288L174.1-18.288h-7.344l-14.4-44.064h-.288V0ZM244.224,0V-102.528h14.688v87.84H288V0Zm53.712,0V-102.528h14.688V0ZM326.3,0V-102.528h14.112l22.176,61.776h.288v-61.776h14.688V0H363.744L341.28-61.632h-.288V0Zm64.512,0V-102.528h43.776V-88.7H405.5v30.1h25.344v13.824H405.5v30.1h29.088V0Zm100.8-102.528V-23.04a23.563,23.563,0,0,1-1.8,9.288,23.658,23.658,0,0,1-5.112,7.56,24.435,24.435,0,0,1-7.632,5.184A22.927,22.927,0,0,1,467.856.864a22.421,22.421,0,0,1-9.144-1.872,24.685,24.685,0,0,1-7.56-5.184,24.685,24.685,0,0,1-5.184-7.56A22.776,22.776,0,0,1,444.1-23.04v-79.488h14.688V-24.48q0,5.472,2.592,8.064a8.792,8.792,0,0,0,6.48,2.592,8.792,8.792,0,0,0,6.48-2.592q2.592-2.592,2.592-8.064v-78.048ZM505.44,0V-102.528h22.032a32.752,32.752,0,0,1,10.656,1.584,20.444,20.444,0,0,1,8.352,5.616,21.962,21.962,0,0,1,5.184,9.432A58.985,58.985,0,0,1,553.1-71.28a72.5,72.5,0,0,1-.792,11.664,24.387,24.387,0,0,1-3.384,8.928,21.44,21.44,0,0,1-8.064,7.848q-5.04,2.808-13.248,2.808h-7.488V0Zm14.688-88.7v34.848h7.056a15.01,15.01,0,0,0,6.912-1.3,8.156,8.156,0,0,0,3.6-3.6,13.159,13.159,0,0,0,1.368-5.328q.216-3.168.216-7.056,0-3.6-.144-6.84a14.8,14.8,0,0,0-1.3-5.688,8.177,8.177,0,0,0-3.456-3.744,13.719,13.719,0,0,0-6.624-1.3Z" transform="translate(-7.344 102.528)" fill="#fff"/>
</svg>
