<svg xmlns="http://www.w3.org/2000/svg" xmlns:xlink="http://www.w3.org/1999/xlink" width="97.325" height="110.92" viewBox="0 0 97.325 110.92">
  <defs>
    <linearGradient id="linear-gradient" x1="0.5" x2="0.5" y2="1" gradientUnits="objectBoundingBox">
      <stop offset="0" stop-color="#03a8e5"/>
      <stop offset="1" stop-color="#012869"/>
    </linearGradient>
  </defs>
  <g id="_02" data-name="02" transform="translate(-919.219 -3288.703)">
    <g id="六角形" transform="translate(919.219 3288.703)">
      <path id="パス_299" data-name="パス 299" d="M97.325,83.19V27.73L48.663,0,0,27.73V83.19l48.663,27.73Z" transform="translate(97.325 110.92) rotate(180)" fill="url(#linear-gradient)"/>
      <path id="パス_300" data-name="パス 300" d="M87.877,76.1V25.368L43.939,0,0,25.368V76.1l43.939,25.368Z" transform="translate(92.601 106.196) rotate(180)" fill="#fff"/>
    </g>
    <path id="パス_1013" data-name="パス 1013" d="M1.462-24.3A6.687,6.687,0,0,1,2-27.047a6.439,6.439,0,0,1,1.44-2.064,6.2,6.2,0,0,1,2.086-1.311A6.873,6.873,0,0,1,8-30.874a6.873,6.873,0,0,1,2.472.452,6.2,6.2,0,0,1,2.085,1.311A6.439,6.439,0,0,1,14-27.047a6.687,6.687,0,0,1,.538,2.752V-6.321A6.687,6.687,0,0,1,14-3.569,6.439,6.439,0,0,1,12.556-1.5,6.2,6.2,0,0,1,10.47-.193,6.873,6.873,0,0,1,8,.258,6.873,6.873,0,0,1,5.525-.193,6.2,6.2,0,0,1,3.44-1.5,6.439,6.439,0,0,1,2-3.569a6.687,6.687,0,0,1-.537-2.752ZM5.848-6.321a2.169,2.169,0,0,0,.6,1.569A2.057,2.057,0,0,0,8-4.128a2.057,2.057,0,0,0,1.548-.623,2.169,2.169,0,0,0,.6-1.569V-24.3a2.169,2.169,0,0,0-.6-1.569A2.057,2.057,0,0,0,8-26.488a2.057,2.057,0,0,0-1.548.624,2.169,2.169,0,0,0-.6,1.569ZM17.458,0V-4.128L25.37-19.049a5.448,5.448,0,0,0,.688-1.957q.086-.839.086-2.085,0-.559-.021-1.182a2.87,2.87,0,0,0-.236-1.1,2.036,2.036,0,0,0-.645-.8,2.054,2.054,0,0,0-1.247-.322,2.167,2.167,0,0,0-1.569.559,2.165,2.165,0,0,0-.58,1.634V-21.8H17.458v-2.408a6.48,6.48,0,0,1,.516-2.58A6.657,6.657,0,0,1,19.393-28.9a6.439,6.439,0,0,1,2.064-1.441,6.256,6.256,0,0,1,2.58-.538,6.43,6.43,0,0,1,2.945.624,5.876,5.876,0,0,1,2.043,1.7A7.4,7.4,0,0,1,30.165-26.1a11.349,11.349,0,0,1,.365,2.924q0,1.118-.043,1.87a11.318,11.318,0,0,1-.172,1.44,6.348,6.348,0,0,1-.43,1.376q-.3.688-.817,1.677L22.618-4.386H30.53V0Z" transform="translate(950.753 3360.616)" fill="#111"/>
  </g>
</svg>
