<svg xmlns="http://www.w3.org/2000/svg" width="125.01" height="140.942" viewBox="0 0 125.01 140.942">
  <g id="堺商事ロゴ" transform="translate(-834.474 -3090.938)">
    <path id="パス_589" data-name="パス 589" d="M83.258,3.224c.173.032-52.378-.779-52.622,40.868V93.775c.8,14.158-8.414,22.437-22.7,27.781,0,0-.372,2.244,1.869,2.135,10.818-.513,44.375-5.821,49.683-33.922V39.284S58.016,8.567,83.659,6.163Z" transform="translate(851.919 3098.049)" fill="#003f89"/>
    <path id="パス_590" data-name="パス 590" d="M31.184,123.321,0,105.775V35.165L62.5,0,79.065,9.532,66.51,16.478,62.5,14.712,12.821,42.663V98.281l28.848,16.225Z" transform="translate(834.474 3090.938)" fill="#003f89"/>
    <path id="パス_591" data-name="パス 591" d="M29.792,127.584l-14.959-8.539,11.754-7.212,3.205,1.039,49.683-27.95V29.3L52.5,14.416l10.68-8.36L92.3,21.808v70.61Z" transform="translate(867.187 3104.296)" fill="#003f89"/>
  </g>
</svg>
