<svg xmlns="http://www.w3.org/2000/svg" width="128.85" height="123.884" viewBox="0 0 128.85 123.884">
  <g id="ビーカー" transform="translate(200.055 -202.25)">
    <path id="パス_595" data-name="パス 595" d="M115.878,365.242V311.214H101.342v54.028a7.268,7.268,0,0,0,14.536,0Z" transform="translate(-204.817 -74.047)" fill="#1a1311"/>
    <path id="パス_596" data-name="パス 596" d="M89.244,202.25h-36.5a6.735,6.735,0,0,0-.87,13.415h.62v58.309c.059.11.119.206.178.313L59.431,286V215.665H82.56v78.026A11.577,11.577,0,0,1,71,305.254a11.336,11.336,0,0,1-2.745-.366,25.4,25.4,0,0,1,.473,4.575v.106a21.6,21.6,0,0,1-.128,2.381,18.294,18.294,0,0,0,2.4.245,18.508,18.508,0,0,0,18.5-18.5V215.665h.613a6.735,6.735,0,0,0-.867-13.415Z" transform="translate(-167.202)" fill="#1a1311"/>
    <path id="パス_597" data-name="パス 597" d="M-112.994,334.484c-2.366,1.909-6.124,3.207-11.256,3.207h-55.232c-5.132,0-8.894-1.3-11.259-3.207a9.467,9.467,0,0,1-3.577-7.726,19.573,19.573,0,0,1,2.982-9.6l11.607-20.109c3.924-6.8,7.482-12.98,10.057-17.48,1.286-2.246,2.332-4.078,3.054-5.357.36-.642.644-1.139.842-1.5l.238-.433.091-.181.078-.157.081-.21.075-.25a2.85,2.85,0,0,0,.088-.7c0-.062-.019-.144-.022-.213h.006l0-.078c-.025-.988-.053-6.2-.072-12.511-.022-5.351-.031-11.485-.035-16.776h26.765c0,5.686-.016,12.386-.038,17.978-.009,3.282-.022,6.177-.037,8.246-.009,1.036-.012,1.865-.022,2.425,0,.278-.006.5-.009.622l0,.094h0c-.01.094-.016.163-.016.213l0,.132h.01a3.171,3.171,0,0,0,.072.572l.125.379.144.306c.1.207.253.47.491.9,1.646,2.935,7.179,12.579,13.757,23.976L-112.4,317.16a19.588,19.588,0,0,1,2.985,9.6,9.476,9.476,0,0,1-3.58,7.726Zm-6.043-40.3c-3.924-6.793-7.476-12.971-10.049-17.464-1.286-2.247-2.324-4.068-3.044-5.333-.3-.544-.542-.964-.723-1.289.013-.745.022-1.928.034-3.524.037-5.917.062-16.867.069-25.46a6.73,6.73,0,0,0,5.886-6.662,6.759,6.759,0,0,0-6.753-6.753h-36.5a6.758,6.758,0,0,0-6.753,6.753,6.729,6.729,0,0,0,5.883,6.662c.006,5.708.016,12.461.037,18.091.01,3.283.025,6.183.041,8.267.006,1.042.012,1.875.019,2.463,0,.069,0,.1,0,.163-.034.063-.053.1-.094.175-1.6,2.863-7.147,12.536-13.716,23.911l-11.61,20.109a25.192,25.192,0,0,0-3.749,12.464,15.243,15.243,0,0,0,5.723,12.2c3.683,2.947,8.778,4.468,14.849,4.472h55.232c6.071,0,11.162-1.525,14.845-4.472a15.246,15.246,0,0,0,5.724-12.2,25.19,25.19,0,0,0-3.746-12.464l-11.61-20.109Z" transform="translate(0 -17.294)" fill="#1a1311"/>
    <path id="パス_598" data-name="パス 598" d="M-132.645,489.422a4.305,4.305,0,0,1-4.3-4.306,4.3,4.3,0,0,1,4.3-4.3,4.3,4.3,0,0,1,4.3,4.3,4.3,4.3,0,0,1-4.3,4.306Zm-10.515-13.863a5.734,5.734,0,0,1-5.733-5.736,5.736,5.736,0,0,1,5.733-5.736,5.74,5.74,0,0,1,5.739,5.736,5.738,5.738,0,0,1-5.739,5.736Zm41.485-16.153a1.429,1.429,0,0,0-1.227-.692h-8.64a9.977,9.977,0,0,1,3.749,7.764,10.032,10.032,0,0,1-10.036,10.035,10.034,10.034,0,0,1-10.036-10.035,9.975,9.975,0,0,1,3.749-7.764h-29.673a1.429,1.429,0,0,0-1.226.692l-5.949,9.82c-2.66,4.415-4.456,8.54-4.475,12.254a7.84,7.84,0,0,0,3.639,6.888c2.47,1.6,6,2.359,10.9,2.369h45.1c4.91-.01,8.44-.77,10.915-2.363a7.839,7.839,0,0,0,3.643-6.885c-.025-3.715-1.831-7.842-4.487-12.258l-5.952-9.826Z" transform="translate(-23.524 -174.282)" fill="#1a1311"/>
  </g>
</svg>
