<svg xmlns="http://www.w3.org/2000/svg" width="339.01" height="382.215" viewBox="0 0 339.01 382.215">
  <g id="ロゴ" transform="translate(-834.474 -3090.938)" opacity="0.15">
    <path id="パス_589" data-name="パス 589" d="M212.245,3.224c.469.087-142.043-2.112-142.7,110.828V248.785c2.173,38.394-22.818,60.847-61.568,75.337,0,0-1.008,6.085,5.068,5.789,29.337-1.391,120.338-15.785,134.733-91.992V101.014s-3.981-83.3,65.558-89.819Z" transform="translate(895.324 3115.741)" fill="#003f89"/>
    <path id="パス_590" data-name="パス 590" d="M84.568,334.432,0,286.85V95.364L169.5,0l44.914,25.851L180.367,44.687,169.5,39.9,34.769,115.7V266.527l78.232,44Z" transform="translate(834.474 3090.939)" fill="#003f89"/>
    <path id="パス_591" data-name="パス 591" d="M55.4,335.622,14.833,312.465l31.875-19.558,8.692,2.816,134.733-75.8V69.1L116.986,28.727,145.95,6.057,224.9,48.771V240.257Z" transform="translate(948.58 3137.532)" fill="#003f89"/>
  </g>
</svg>
