<svg xmlns="http://www.w3.org/2000/svg" xmlns:xlink="http://www.w3.org/1999/xlink" width="602.162" height="162.213" viewBox="0 0 602.162 162.213">
  <defs>
    <linearGradient id="linear-gradient" y1="0.5" x2="1" y2="0.5" gradientUnits="objectBoundingBox">
      <stop offset="0" stop-color="#03a8e5"/>
      <stop offset="1" stop-color="#012869"/>
    </linearGradient>
    <filter id="パス_301" x="0" y="0" width="602.162" height="162.213" filterUnits="userSpaceOnUse">
      <feOffset dx="10" dy="10" input="SourceAlpha"/>
      <feGaussianBlur stdDeviation="15" result="blur"/>
      <feFlood flood-opacity="0.161"/>
      <feComposite operator="in" in2="blur"/>
      <feComposite in="SourceGraphic"/>
    </filter>
  </defs>
  <g id="拠点詳細ボックス" transform="translate(-668.838 -4938.73)">
    <g id="ボックス" transform="translate(172.067 2597.73)">
      <g transform="matrix(1, 0, 0, 1, 496.77, 2341)" filter="url(#パス_301)">
        <path id="パス_301-2" data-name="パス 301" d="M0,0H512.162V72.213H0Z" transform="translate(35 35)" fill="url(#linear-gradient)"/>
      </g>
      <path id="パス_302" data-name="パス 302" d="M0,0H508.162V68.213H0Z" transform="translate(533.77 2378)" fill="#edf9ff"/>
    </g>
    <g id="文" transform="translate(-483 200)">
      <text id="営業拠点_本社_支店_営業所_駐在員事務所_現地法人" data-name="営業拠点　本社・支店・営業所・駐在員事務所　  　現地法人" transform="translate(1232 4805)" fill="#111" font-size="14" font-family="HiraginoSans-W4, Hiragino Sans"><tspan x="0" y="0">営業拠点</tspan><tspan y="0" font-family="NotoSans-Medium, Noto Sans" font-weight="500"></tspan><tspan x="0" y="20">　本社・支店・営業所・駐在員事務所　</tspan><tspan y="20" xml:space="preserve" font-family="NotoSans-Medium, Noto Sans" font-weight="500">  </tspan><tspan y="20">　現地法人</tspan></text>
      <circle id="楕円形_21" data-name="楕円形 21" cx="6" cy="6" r="6" transform="translate(1232 4814)" fill="#00b2e8"/>
      <circle id="楕円形_22" data-name="楕円形 22" cx="6" cy="6" r="6" transform="translate(1491 4814)" fill="#003ee8"/>
      <circle id="楕円形_23" data-name="楕円形 23" cx="6" cy="6" r="6" transform="translate(1584 4814)" fill="#40b900"/>
      <text id="生産拠点_合弁会社" data-name="生産拠点　合弁会社" transform="translate(1584 4805)" fill="#111" font-size="14" font-family="HiraginoSans-W4, Hiragino Sans"><tspan x="0" y="0">生産拠点</tspan><tspan y="0" font-family="NotoSans-Medium, Noto Sans" font-weight="500"></tspan><tspan x="0" y="20">　合弁会社</tspan></text>
    </g>
  </g>
</svg>
