<svg xmlns="http://www.w3.org/2000/svg" xmlns:xlink="http://www.w3.org/1999/xlink" width="97.325" height="110.92" viewBox="0 0 97.325 110.92">
  <defs>
    <linearGradient id="linear-gradient" x1="0.5" x2="0.5" y2="1" gradientUnits="objectBoundingBox">
      <stop offset="0" stop-color="#03a8e5"/>
      <stop offset="1" stop-color="#012869"/>
    </linearGradient>
  </defs>
  <g id="_03" data-name="03" transform="translate(-919.219 -3288.703)">
    <g id="六角形" transform="translate(919.219 3288.703)">
      <path id="パス_299" data-name="パス 299" d="M97.325,83.19V27.73L48.663,0,0,27.73V83.19l48.663,27.73Z" transform="translate(97.325 110.92) rotate(180)" fill="url(#linear-gradient)"/>
      <path id="パス_300" data-name="パス 300" d="M87.877,76.1V25.368L43.939,0,0,25.368V76.1l43.939,25.368Z" transform="translate(92.601 106.196) rotate(180)" fill="#fff"/>
    </g>
    <path id="パス_1028" data-name="パス 1028" d="M1.462-24.3A6.687,6.687,0,0,1,2-27.047a6.439,6.439,0,0,1,1.44-2.064,6.2,6.2,0,0,1,2.086-1.311A6.873,6.873,0,0,1,8-30.874a6.873,6.873,0,0,1,2.472.452,6.2,6.2,0,0,1,2.085,1.311A6.439,6.439,0,0,1,14-27.047a6.687,6.687,0,0,1,.538,2.752V-6.321A6.687,6.687,0,0,1,14-3.569,6.439,6.439,0,0,1,12.556-1.5,6.2,6.2,0,0,1,10.47-.193,6.873,6.873,0,0,1,8,.258,6.873,6.873,0,0,1,5.525-.193,6.2,6.2,0,0,1,3.44-1.5,6.439,6.439,0,0,1,2-3.569a6.687,6.687,0,0,1-.537-2.752ZM5.848-6.321a2.169,2.169,0,0,0,.6,1.569A2.057,2.057,0,0,0,8-4.128a2.057,2.057,0,0,0,1.548-.623,2.169,2.169,0,0,0,.6-1.569V-24.3a2.169,2.169,0,0,0-.6-1.569A2.057,2.057,0,0,0,8-26.488a2.057,2.057,0,0,0-1.548.624,2.169,2.169,0,0,0-.6,1.569ZM22.661-17.716a5.543,5.543,0,0,0,2.731-.473q.753-.473.753-2.193v-3.956a2.138,2.138,0,0,0-.581-1.548,2.079,2.079,0,0,0-1.569-.6,1.852,1.852,0,0,0-1.655.731,2.539,2.539,0,0,0-.494,1.419v2.494H17.458v-2.537a6.373,6.373,0,0,1,.516-2.537,6.169,6.169,0,0,1,1.419-2.064A7.051,7.051,0,0,1,21.5-30.358a6.48,6.48,0,0,1,2.58-.516,5.73,5.73,0,0,1,2.989.71,6.881,6.881,0,0,1,1.785,1.441,9.4,9.4,0,0,1,.752,1.032,5.022,5.022,0,0,1,.538,1.247,17.146,17.146,0,0,1,.387,4.214q0,1.591-.065,2.58a5.4,5.4,0,0,1-.323,1.634,3.268,3.268,0,0,1-.838,1.161,9.945,9.945,0,0,1-1.484,1.032,8.33,8.33,0,0,1,1.57,1.2,3.54,3.54,0,0,1,.8,1.29,6.664,6.664,0,0,1,.3,1.827q.043,1.054.043,2.688,0,1.5-.065,2.494a12.833,12.833,0,0,1-.194,1.634,5.1,5.1,0,0,1-.344,1.161,7.077,7.077,0,0,1-.559.989,6.948,6.948,0,0,1-2.085,2,6.2,6.2,0,0,1-3.333.8,7.73,7.73,0,0,1-2.193-.344A5.979,5.979,0,0,1,19.651-1.2a6.07,6.07,0,0,1-1.569-2.021,6.777,6.777,0,0,1-.624-3.053V-8.772h4.386v2.279a2.492,2.492,0,0,0,.58,1.7,1.975,1.975,0,0,0,1.569.666,1.975,1.975,0,0,0,1.569-.666,2.621,2.621,0,0,0,.581-1.785v-4.386a3.018,3.018,0,0,0-.688-2.365,1.913,1.913,0,0,0-1.054-.43,14.156,14.156,0,0,0-1.742-.086Z" transform="translate(950.753 3360.616)" fill="#111"/>
  </g>
</svg>
