<svg xmlns="http://www.w3.org/2000/svg" width="182.681" height="176.548" viewBox="0 0 182.681 176.548">
  <g id="工場" transform="translate(437.144 204.199)">
    <path id="パス_592" data-name="パス 592" d="M-262.63-41.373h-10.618V-51.991h10.618v10.618Zm0,15.242h-10.618V-36.749h10.618v10.618Zm-15.413-15.242h-10.618V-51.991h10.618v10.618Zm0,15.242h-10.618V-36.749h10.618v10.618Zm-32.025-15.242h-10.618V-51.991h10.618v10.618Zm0,15.242h-10.618V-36.749h10.618v10.618Zm-15.413-15.242H-336.1V-51.991h10.618v10.618Zm0,15.242H-336.1V-36.749h10.618v10.618Zm-43.5-15.242H-379.6V-51.991h10.618v10.618Zm0,15.242H-379.6V-36.749h10.618v10.618ZM-384.4-41.373h-10.618V-51.991H-384.4v10.618Zm0,15.242h-10.618V-36.749H-384.4v10.618Zm129.933-69.7-47.5,22.593V-95.834L-359.5-68.459V-95.834l-52.978,25.2v-58.084h-24.662V6.465h182.681v-102.3Z" transform="translate(0 -34.116)" fill="#1a1311"/>
    <path id="パス_593" data-name="パス 593" d="M-402.144-162.054c0,3.026,6.952,5.48,15.529,5.48s15.529-2.454,15.529-5.48-6.952-5.48-15.529-5.48-15.529,2.454-15.529,5.48Z" transform="translate(-15.819 -16.571)" fill="#1a1311"/>
    <path id="パス_594" data-name="パス 594" d="M-327.144-193.7c0,5.8,11.451,10.5,25.577,10.5s25.574-4.7,25.574-10.5-11.451-10.5-25.574-10.5-25.577,4.7-25.577,10.5Z" transform="translate(-49.716)" fill="#1a1311"/>
  </g>
</svg>
