<svg xmlns="http://www.w3.org/2000/svg" viewBox="0 0 43.92 85.44"><defs><style>.cls-1{fill:#0052aa;}</style></defs><g id="レイヤー_2" data-name="レイヤー 2"><g id="レイヤー_1-2" data-name="レイヤー 1"><path class="cls-1" d="M12.24,11.52V38.16h7a12.34,12.34,0,0,0,5.16-.9,7,7,0,0,0,3-2.58,11.88,11.88,0,0,0,1.32-4.14,38.79,38.79,0,0,0,.36-5.7,38.79,38.79,0,0,0-.36-5.7,11.33,11.33,0,0,0-1.44-4.26Q25,11.52,18.6,11.52ZM0,85.44V0H19.68q21.6,0,21.6,25.08a31.7,31.7,0,0,1-2.34,12.84,18.11,18.11,0,0,1-8.22,8.52l13.2,39H31L19.56,49H12.24V85.44Z"/></g></g></svg>