<svg xmlns="http://www.w3.org/2000/svg" xmlns:xlink="http://www.w3.org/1999/xlink" width="97.325" height="110.92" viewBox="0 0 97.325 110.92">
  <defs>
    <linearGradient id="linear-gradient" x1="0.5" x2="0.5" y2="1" gradientUnits="objectBoundingBox">
      <stop offset="0" stop-color="#03a8e5"/>
      <stop offset="1" stop-color="#012869"/>
    </linearGradient>
  </defs>
  <g id="_01" data-name="01" transform="translate(-919.219 -3288.703)">
    <g id="六角形" transform="translate(919.219 3288.703)">
      <path id="パス_299" data-name="パス 299" d="M97.325,83.19V27.73L48.663,0,0,27.73V83.19l48.663,27.73Z" transform="translate(97.325 110.92) rotate(180)" fill="url(#linear-gradient)"/>
      <path id="パス_300" data-name="パス 300" d="M87.877,76.1V25.368L43.939,0,0,25.368V76.1l43.939,25.368Z" transform="translate(92.601 106.196) rotate(180)" fill="#fff"/>
    </g>
    <path id="パス_1004" data-name="パス 1004" d="M1.462-24.3A6.687,6.687,0,0,1,2-27.047a6.439,6.439,0,0,1,1.44-2.064,6.2,6.2,0,0,1,2.086-1.311A6.873,6.873,0,0,1,8-30.874a6.873,6.873,0,0,1,2.472.452,6.2,6.2,0,0,1,2.085,1.311A6.439,6.439,0,0,1,14-27.047a6.687,6.687,0,0,1,.538,2.752V-6.321A6.687,6.687,0,0,1,14-3.569,6.439,6.439,0,0,1,12.556-1.5,6.2,6.2,0,0,1,10.47-.193,6.873,6.873,0,0,1,8,.258,6.873,6.873,0,0,1,5.525-.193,6.2,6.2,0,0,1,3.44-1.5,6.439,6.439,0,0,1,2-3.569a6.687,6.687,0,0,1-.537-2.752ZM5.848-6.321a2.169,2.169,0,0,0,.6,1.569A2.057,2.057,0,0,0,8-4.128a2.057,2.057,0,0,0,1.548-.623,2.169,2.169,0,0,0,.6-1.569V-24.3a2.169,2.169,0,0,0-.6-1.569A2.057,2.057,0,0,0,8-26.488a2.057,2.057,0,0,0-1.548.624,2.169,2.169,0,0,0-.6,1.569ZM22.661,0V-25.972l-4.386,3.225v-4.644l4.386-3.225h4.386V0Z" transform="translate(950.753 3360.616)" fill="#111"/>
  </g>
</svg>
