<svg xmlns="http://www.w3.org/2000/svg" xmlns:xlink="http://www.w3.org/1999/xlink" width="128.452" height="123.652" viewBox="0 0 128.452 123.652">
  <defs>
    <linearGradient id="linear-gradient" x1="0.5" x2="0.5" y2="1" gradientUnits="objectBoundingBox">
      <stop offset="0" stop-color="#03a8e5"/>
      <stop offset="1" stop-color="#012869"/>
    </linearGradient>
    <clipPath id="clip-path">
      <path id="パス_338" data-name="パス 338" d="M85.72,74.125V24.708L42.86,0,0,24.708V74.125L42.86,98.833Z" transform="translate(42.86 123.652) rotate(-120)" opacity="0.139" fill="url(#linear-gradient)"/>
    </clipPath>
  </defs>
  <g id="母子絵" opacity="0.773" clip-path="url(#clip-path)">
    <g id="グループ_61" data-name="グループ 61" transform="translate(35.49 19.835)">
      <path id="path" d="M256.055,247.659a.807.807,0,0,1-.626.2,2.649,2.649,0,0,1-1.54-.982,4.221,4.221,0,0,1-1.232-3.181,1.2,1.2,0,0,1,.664-.965,1.59,1.59,0,0,1,1.151.108,2.39,2.39,0,0,1,.235.119m.723,4.9c.072.093.155.2.252.312,1.27,1.523,4.544,4.733,9.366,4.389a6.3,6.3,0,0,0,3.27-1.2,6.629,6.629,0,0,0,2.591-6.767c-.25-1.1.329-4.829-.325-7.309a11.676,11.676,0,0,0-1.338-3.215c-.085-.136-.172-.269-.261-.4h0a7.4,7.4,0,0,0-5.089-3.121,12.877,12.877,0,0,0-3.806,0,7.586,7.586,0,0,0-5.024,2.7v0a9.643,9.643,0,0,0-1.985,4.979,13.066,13.066,0,0,0,.244,4.493m8.9-8.435a2.15,2.15,0,0,0,.426.479,2.452,2.452,0,0,0,1.756.575m-.507-1.372a2.012,2.012,0,0,0,.369.43,2.447,2.447,0,0,0,1.813.623m-20.65,27.247a3.107,3.107,0,0,0-.874.369,2.333,2.333,0,0,0-1.2,1.58c-.061.791.853,1.7.67,2.252s1.217,1.52,1.217,1.885a1.057,1.057,0,0,0,.078.341,2.862,2.862,0,0,0,.257.526,1.241,1.241,0,0,0,.518.534c.365.121.477,1.431,1.251,1.559s2.318-.515,4.249-.772a16.382,16.382,0,0,1,4.788,1.009m13.682-4.867a16.046,16.046,0,0,1-2.118.316A32.246,32.246,0,0,1,256.6,265.5a8.127,8.127,0,0,1-4.089-3.066,8.744,8.744,0,0,0-3.531-2.417,7.829,7.829,0,0,0-1.851-.248c-.384-.013-.77,0-1.17.017-1.022.045-1.438.138-1.764.6-.248.35-.625.568-.713.954a.854.854,0,0,0,.015.439c.131.488.717.749,1.056.861m7.935-13.54c-.225.354-.416.653-.549.85-.642.963-1.086,1.747-.71,1.991a1.742,1.742,0,0,0,1.414-.254,3.87,3.87,0,0,0,1.37-1.228c.66-.965,1.281-1.826,1.667-2.294m-3.193.933c.426-.664.959-1.52,1.4-2.227m16.246,11.839c.74-1.219.271-3.251-.115-4.572a7.556,7.556,0,0,0-1.7-2.78m-15.828-2.26v0a9.57,9.57,0,0,0-2.723,3.132,47.9,47.9,0,0,0-2.636,7.534m-1.807,8.932a1.653,1.653,0,0,0-.507,1.273c.066.433-.9,2.333-1.211,4.585a6.53,6.53,0,0,0,4.01,7.424,53.012,53.012,0,0,0,7.42,1.162c1.629.184,3.105.322,3.914.359a2.866,2.866,0,0,0,2.282-.787c.64-.64.827-2.676,1.495-3.344a46.609,46.609,0,0,1,3.692-2.914,11.343,11.343,0,0,1,1.381-.9,2.418,2.418,0,0,1,1-.225,1.625,1.625,0,0,1,1.046.343c.411.343.046.9-.183,1.186-.034.045-.064.081-.091.112-.095.113-.755.53-1.4,1,.034.384.078,1.175-.1,1.321-.237.2-1.062.473-1.181.08-.093-.316.581-.889,1.277-1.4m-4.2,10.263a2.483,2.483,0,0,0-.235.235c-1.145,1.3-2.161,8.9-2.646,10.493s-1.389,2.621-.956,4.349,3.44,3.056,3.747,3.963a4.023,4.023,0,0,0,1.8,2.244,3.033,3.033,0,0,0,2.173-.447c.522-.248,1.4-1.111,1-2.956s-2.7-3.338-2.488-4.156,2.859-5.819,4.9-10.391a12.66,12.66,0,0,0,1.117-4.279m-.18-2.835c-.047-.237-.1-.473-.167-.7m-5.628-7.3c-.426-.35-.852-.687-1.259-1-.626-.492-1.213-.933-1.705-1.3m.284,14.312-.458-.132m-19.537-4.7c.3,2.042.609,4.646-.388,5.278-1.387.88-3.65,4.315-4.317,8s-.7,7.447-.818,7.8a4.447,4.447,0,0,0,2.184,5.1,14.752,14.752,0,0,0,2.454,1.289c1.209.494,1.834.57,2.572,1.525,1.12,1.451,4.684-.161,4.742-1.962a5.463,5.463,0,0,0-1.66-4.228,37.6,37.6,0,0,1-3.257-2.244,8.614,8.614,0,0,1-.106-3.234,103.627,103.627,0,0,1,9.434-12.921m15.834-28.627a6.2,6.2,0,0,0-.282-.7,8.486,8.486,0,0,0-1.247-1.853l0-.006,0,0a15.385,15.385,0,0,0-2.524-2.275l-.015-.011a7.9,7.9,0,0,0-5.026-1.2,46.969,46.969,0,0,1-7.467.431c-.948-.011-1.152-1.2-1.206-2.11m6.058,10.874a23.279,23.279,0,0,0,3.908,2.328,21.807,21.807,0,0,0,5.376,1.688,10.264,10.264,0,0,0,2.082.11h0a7.381,7.381,0,0,0,1.209-.165,9.239,9.239,0,0,0,2.948-1.249h0a7.089,7.089,0,0,0,2.311-2.159,14.228,14.228,0,0,0,1.734-1.419,1.141,1.141,0,0,0,.074-.469,3.524,3.524,0,0,0-1.334-2.812,3.58,3.58,0,0,0-2.984-.636l-.138.108-.715.556a2.747,2.747,0,0,0-1.223.244c-.259.136-.914.428-1.537.729a5.472,5.472,0,0,0-1.349.789m8.751-4.578c-.346-.853-1.056-.923-1.436-.182s-1.586,1.694-1.908,1.622-.755.03-.867.307c-.064.161.117.369.284.513M279.6,256.7a3.453,3.453,0,0,0-.216-.829.746.746,0,0,0-.191-.29c-.189-.148-.893-.047-1.38.044v0c-.274.051-.477.1-.477.1m1.007,5.5c.793-.337,1.421-1.24,1.743-1.4.354-.174,1.7-.157,1.527-1.079a.862.862,0,0,0-.795-.657,2.641,2.641,0,0,0-.842.011m.842-.011c.119-.093.322-.352.163-.971-.146-.573-.906-.515-1.381-.418-.112.023-.307.068-.479.108l-.341.081M278.2,214.31a2.5,2.5,0,0,0,.532.083c1.652.078,2.629-1.711,3.071-2.475.492-.842.9-5.009-.776-5.217a3.153,3.153,0,0,0-.931.017,2.9,2.9,0,0,0-1.654.872,5.48,5.48,0,0,1-3.287,1.355,18.409,18.409,0,0,1-5.588-.409c-4.447-.893-9.7-4.53-10.361-6.1a37.366,37.366,0,0,0-.615,4.841c.025,1.414.163,3.577.306,5.21a43.673,43.673,0,0,0,.818,5.622,17.275,17.275,0,0,0,4.424,5.812v0a5.641,5.641,0,0,0,3.026,1.336c3.157.21,5.745-2.547,6.752-3.779m1.238-12.534a1.934,1.934,0,0,0,1.491.653c1.347,0,1.8-2.008,1.8-2.008m1.654-.872c-.454-1.544-1.105-1.817-1.105-1.817m-.259,9.492a44.1,44.1,0,0,0-3.092,7.912,10.933,10.933,0,0,0,.079,5.853,11.879,11.879,0,0,1,.59,4.021,2.724,2.724,0,0,1-.153.9,4.89,4.89,0,0,1-1.73,1.817c-.3.1.63.439,1.834-.1a8.146,8.146,0,0,1,5.278-.524c2.1.623,5.66,1.593,7.278.14.117-.106.233-.218.341-.329,1.966-2.063,2.193-5.255-.163-9.774-2.534-4.858-4.108-8.845-4.243-15.225S282.51,197.559,277.9,194.5s-11.653-2.564-15.52.172c-4.2,2.981-7.333,10.984-6.048,21.157s-1.145,12.859-1.243,15.177a21.448,21.448,0,0,0-.025,2.242v0M270.944,281.5a2.035,2.035,0,0,0,.237-1.573,10.542,10.542,0,0,0-1.009-2.152v0c-.195-.352-.379-.677-.513-.908m1.836,6.052s.053-.155.112-.414v0a6.645,6.645,0,0,0,.163-1.866,2.664,2.664,0,0,0-.292-.944,10.22,10.22,0,0,0-1.306-1.915v0m.064,8.565a2.594,2.594,0,0,0,.274-.344c.127-.176.286-.4.458-.657.346-.507.753-1.111,1.075-1.58.231-.339.42-.609.513-.723a.879.879,0,0,0,.153-.272,3.2,3.2,0,0,0-.034-1.537,3.845,3.845,0,0,0-1.2-1.535m-18.4-41.453a18.644,18.644,0,0,0-1.843,2.322c-1.185,1.838-5.157,11.559-8.188,20.692-2.3,6.919-4.057,13.5-3.652,16.061.246,2.492,2.106,4.646,4.349,6.326a24.211,24.211,0,0,0,7.528,3.749c1,.257,2.155.479,3.314.659.07.013.14.023.212.032.8.123,1.607.225,2.35.308h0c1.438.157,2.663.238,3.295.235a19.924,19.924,0,0,0,2.837-.28l.507-.076.185-.026,0,0a29.593,29.593,0,0,1,3.747-.483,22.044,22.044,0,0,0,4.67-.46,1.133,1.133,0,0,0,.206-.091,1.782,1.782,0,0,0,.577-1.313c.093-.64.112-1.41.17-2.108.089-1.039-.382-1.2-.634-1.02m-1.741,2.576a2.467,2.467,0,0,0,.959-.18,2.748,2.748,0,0,0,.282-.7v0a8.526,8.526,0,0,0,.346-1.425m.617,2.856c2.468-.142,4.771-.4,6.782-.685h0l.218-.032c.9-.131,1.694-.254,2.373-.367,2.668-.437,3.681-.712,3.681-.712-.619-5.022.776-13.393,3.923-24.274l0,0m-26.263-29.262c1.819-1.94.674-5.513.246-6.631v0m4.843,9.754h0a11.43,11.43,0,0,0,7.326-1.493m3.081,23.693c1.188-2.237,3.115-5.988,4.318-9a10.488,10.488,0,0,0,1.065-4.152M243.981,391.1c.055-2.551.07-5.354.348-8.141.558-5.577-.842-27.016-.244-35.661.216-3.141.047-9.846-.255-17.107v0c-.047-1.122-.1-2.258-.15-3.393v0c-.255-5.617-.568-11.286-.823-15.679M283.47,304.6s4.811,4.958,9.564,7.059M258.14,404.718c-.307.547-.564.975-.719,1.319a10.292,10.292,0,0,1-2.651,3.21c-.386.356-.819.74-1.3,1.168-.638.564-1.363,1.2-2.19,1.944-.18.161-.373.333-.572.515v0c-2.263,2.074-5.554,5.376-5.554,7.2a2.591,2.591,0,0,0,.221,1.056c.642,1.463,2.685,2.492,6.025,2.229,6.239-.494,10.785-4.888,12.541-6.873.52-.59.795-.967.795-.967l.227.992s4.741-4.756,4.761-6.444a8.229,8.229,0,0,0-.093-1.232m-18.924,4.038v0a2.288,2.288,0,0,0,.774,2.714c2.048,1.287,5.48.505,7.076-.392.269-.149.564-.337.88-.556s.624-.45.958-.712a29.586,29.586,0,0,0,6.022-6.417m-21.042,13.618a7.986,7.986,0,0,0,6.145,1.639c7.193-.978,12.91-8.03,17.132-14.114m-9.214,5.986c-.778-1.09-3.541-4.67-5.95-4.2m6.907,3.492c-.339-.785-2.174-4.64-5.624-4.682m21.952,2a4.19,4.19,0,0,0-.833,1.682c-1.105,4.286-2.252,7.929-2.252,9.451a11.53,11.53,0,0,0,2.574,7.22,4.684,4.684,0,0,0,2.952,1.557,5.39,5.39,0,0,0,4.082-1.287,7.4,7.4,0,0,0,2.557-4.449c.253-2.14-1.2-11.623-2.292-14.027m-6.726-1.646c-.013.515-.036,1.012-.062,1.5h0c-.161,2.755-.509,5.066-.734,6.911v0q-.091.721-.148,1.345c-.142,1.575-.087,2.687.46,3.316,1.83,2.112,5.912,2.021,7.31-.155a6.213,6.213,0,0,0,.466-3.471c-.021-.4-.051-.819-.087-1.262-.15-1.8-.4-3.963-.475-6.4,0-.045,0-.089,0-.134-.013-.458-.023-.922-.027-1.387M276.211,429.6a14.542,14.542,0,0,0,4.2.691,11.688,11.688,0,0,0,2.833-.42m.831-10.675a11.521,11.521,0,0,0-4.237-.829,7.96,7.96,0,0,0-4,1.139m8.149-1.573a10.782,10.782,0,0,0-4.15-.814,7.807,7.807,0,0,0-3.851,1.039v0m-11.122-16.943c-.072-.452-.138-.918-.2-1.4-1.181-8.945-.819-22.19-.819-27.289,0-7.749-2.384-28.049-2.684-31.925s-1.495-26.057-3.874-27.434c-1.029-.831-2.364-1.946-2.364-1.946m46.741,90.5c-5.3-19.465-5.69-63.392-5.69-71.938,0-4.758-1.467-12.032-2.939-18.133-1.478-6.137-2.962-11.084-2.962-11.084a47.311,47.311,0,0,1-1.624-7.9m15.262,114.749-1.264-5.8s-.28.04-.783.108c-1.609.223-5.516.742-9.924,1.164-1.73.167-3.535.318-5.308.43-2.318.146-4.583.229-6.553.191a55.647,55.647,0,0,1-6.578-.53,62.031,62.031,0,0,1-8.434-1.764c-.5-.142-.77-.231-.77-.231a18.131,18.131,0,0,0,1.376,5.047,6.625,6.625,0,0,0,.944,1.478,2.951,2.951,0,0,0,1.61,1.022c.21.042.418.083.625.121.327.064.655.125.98.18,2.449.435,4.843.73,7.153.914,1.071.089,2.127.149,3.158.191l.028,0,.3.011h.008q1.638.06,3.2.055A76.7,76.7,0,0,0,303.711,407.418Zm-39.048-7.6c-1.342.006-2.88-.062-4.411-.193a40.406,40.406,0,0,1-4.716-.664,15.462,15.462,0,0,1-1.857-.5,3.751,3.751,0,0,1-.392-.157c-2.727-1.211-7.647-5.666-9.307-7.206-.356-.331-.562-.528-.562-.528l.174,6.158a18.228,18.228,0,0,0,9.926,6.9c1.31.291,2.9.693,4.621,1.092a59.635,59.635,0,0,0,7.331,1.315m3.887-17.081a57.924,57.924,0,0,0,3.942,14.029m-21.2-17.49c0,2.655.946,9.1,1.188,12.812M267.948,267a4.174,4.174,0,0,0,.036-.426m11.046-1.654a12.49,12.49,0,0,0-4.8.35h0M256.6,265.5s-.766,4.784-.216,6.058a.739.739,0,0,0,.117.2c.67.746,4.744,1.838,6.951,2.405.322.083.606.155.831.212a6.256,6.256,0,0,0,1.444.339,26.635,26.635,0,0,0,3.079.216,56.626,56.626,0,0,0,11.332-.9c2.572-.538,6.754-7.146,10.015-14.206l0,0c2.9-6.26,5.064-12.876,4.744-15.921a13.448,13.448,0,0,0-2.691-6.527,20.9,20.9,0,0,0-3.052-3.287M282.548,284.8a13.07,13.07,0,0,0,1.6-5.189m-29.117,3.531A12.832,12.832,0,0,0,255.25,285a7.482,7.482,0,0,0,.587,1.815,3.83,3.83,0,0,0,1.308,1.571h0M243.6,274.559a3.781,3.781,0,0,0-1.877,1.537M291.74,402.89c1.4-3.893,3-10.005,3-10.005M279.125,256.81c-.078-.189-.235-.481-.235-.481m1.5,1.308a1.13,1.13,0,0,0,.053.426m-33.377,30.992a6.793,6.793,0,0,0-3.717-.142m8.166,6.917a48.623,48.623,0,0,0,8.539.21m20.118-10.87c.662-1.809,1.3-3.929,1.3-3.929M264.962,416.51l-1.022-.025m18.5-62.845c-1.308-13.514-9.282-54.829-9.282-54.829m13.277,104.509a64.119,64.119,0,0,0,1.892-6.3m-10.215-88.524c0-1.406-2.216-12.074-2.216-12.074M243.68,326.786v0c1.592,6.907,4.186,16.43,6.9,19.144m22.013-51.046s11.46-1.332,15.858-2.218c-.167-2.144-2.22-8.578-2.22-8.578m-31.2,111.67.511,3.2M289.3,237a8.369,8.369,0,0,0-4.691,2.029m-19.452,36.429c.182-.206.392-.5.568-.746m12.823-61.33a.467.467,0,1,0,.466-.465A.467.467,0,0,0,278.548,213.379Z" transform="translate(-238.056 -192.413)" fill="none" stroke="#fff" stroke-linecap="round" stroke-linejoin="round" stroke-width="0.505"/>
      <g id="face01" transform="translate(22.04 49.337)">
        <path id="パス_384" data-name="パス 384" d="M1.129,0c.624,0,1.129.344,1.129.768S1.928.626,1.3.626,0,1.193,0,.768.506,0,1.129,0Z" transform="matrix(0.989, -0.148, 0.148, 0.989, 0, 1.286)" fill="#fff"/>
        <path id="パス_385" data-name="パス 385" d="M1.021,0c.564,0,1.021.323,1.021.721S1.556.675.992.675,0,1.12,0,.721.457,0,1.021,0Z" transform="translate(6.851 0.089) rotate(-2.501)" fill="#fff"/>
        <path id="パス_331" data-name="パス 331" d="M252.5,220.852a.778.778,0,0,0,.39.017.453.453,0,0,0,.244-.153" transform="translate(-247.206 -216.491)" fill="none" stroke="#fff" stroke-linecap="round" stroke-linejoin="round" stroke-width="0.505"/>
        <path id="パス_332" data-name="パス 332" d="M252.25,222.227a1.73,1.73,0,0,0,.906.155,1.318,1.318,0,0,0,.939-.5" transform="translate(-247.429 -215.451)" fill="none" stroke="#fff" stroke-linecap="round" stroke-linejoin="round" stroke-width="0.505"/>
      </g>
      <g id="face02" transform="translate(22.267 15.552)">
        <ellipse id="楕円形_18" data-name="楕円形 18" cx="1.18" cy="0.811" rx="1.18" ry="0.811" transform="translate(0.986 3.077)" fill="#fff"/>
        <ellipse id="楕円形_19" data-name="楕円形 19" cx="1.18" cy="0.811" rx="1.18" ry="0.811" transform="translate(9.217 3.077)" fill="#fff"/>
        <path id="パス_333" data-name="パス 333" d="M252.329,205.23a1.247,1.247,0,0,0,1.181.738" transform="translate(-247.587 -196.526)" fill="none" stroke="#fff" stroke-linecap="round" stroke-linejoin="round" stroke-width="0.505"/>
        <path id="パス_334" data-name="パス 334" d="M252.353,207.1a2.79,2.79,0,0,0,1.353.369,2.747,2.747,0,0,0,1.6-.513" transform="translate(-247.565 -194.985)" fill="none" stroke="#fff" stroke-linecap="round" stroke-linejoin="round" stroke-width="0.505"/>
        <path id="パス_335" data-name="パス 335" d="M249.823,201.067a1.931,1.931,0,0,1,.872-.4A2.381,2.381,0,0,1,252,200.8" transform="translate(-249.823 -200.631)" fill="none" stroke="#fff" stroke-linecap="round" stroke-linejoin="round" stroke-width="0.252"/>
        <path id="パス_336" data-name="パス 336" d="M251.511,202.636a1.639,1.639,0,0,1-1.55-.554" transform="translate(-249.7 -199.335)" fill="none" stroke="#fff" stroke-linecap="round" stroke-linejoin="round" stroke-width="0.189"/>
        <path id="パス_337" data-name="パス 337" d="M255.783,202.729s-1.226.112-1.593-.566" transform="translate(-245.926 -199.263)" fill="none" stroke="#fff" stroke-linecap="round" stroke-linejoin="round" stroke-width="0.189"/>
      </g>
    </g>
  </g>
</svg>
