<svg xmlns="http://www.w3.org/2000/svg" width="50.229" height="64.399" viewBox="0 0 50.229 64.399">
  <g id="看板絵" transform="translate(0.291 0.332)" opacity="0.619">
    <path id="パス_316" data-name="パス 316" d="M372.863,181.618h32.252l-8.509-55.225" transform="translate(-355.467 -126.392)" fill="none" stroke="#fff" stroke-linecap="round" stroke-linejoin="round" stroke-width="0.582"/>
    <line id="線_3" data-name="線 3" x1="7.779" y1="51.63" transform="translate(40.353 3.595)" fill="none" stroke="#fff" stroke-linecap="round" stroke-linejoin="round" stroke-width="0.582"/>
    <path id="パス_317" data-name="パス 317" d="M388.576,181.618H356.325l8.509-55.225h32.251Z" transform="translate(-356.325 -126.392)" fill="none" stroke="#fff" stroke-linecap="round" stroke-linejoin="round" stroke-width="0.582"/>
    <path id="パス_318" data-name="パス 318" d="M387.179,181.618H356.325l8.509-55.225h30.854Z" transform="translate(-356.325 -126.392)" fill="none" stroke="#fff" stroke-linecap="round" stroke-linejoin="round" stroke-width="0.582"/>
    <g id="グループ_56" data-name="グループ 56" transform="translate(31.131 55.363)">
      <path id="パス_319" data-name="パス 319" d="M386.859,185.121h3.561l-.939-6.1H385.92Z" transform="translate(-385.92 -179.024)" fill="none" stroke="#fff" stroke-linecap="round" stroke-linejoin="round" stroke-width="0.582"/>
      <path id="パス_320" data-name="パス 320" d="M389.254,185.121H390.3l-.939-6.1h-1.042Z" transform="translate(-385.796 -179.024)" fill="none" stroke="#fff" stroke-linecap="round" stroke-linejoin="round" stroke-width="0.582"/>
    </g>
    <g id="グループ_57" data-name="グループ 57" transform="translate(44.833 55.363)">
      <path id="パス_321" data-name="パス 321" d="M399.885,185.121h3.561l-.939-6.1h-3.561Z" transform="translate(-398.946 -179.024)" fill="none" stroke="#fff" stroke-linecap="round" stroke-linejoin="round" stroke-width="0.582"/>
      <path id="パス_322" data-name="パス 322" d="M402.274,185.121h1.048l-.939-6.1h-1.048Z" transform="translate(-398.822 -179.024)" fill="none" stroke="#fff" stroke-linecap="round" stroke-linejoin="round" stroke-width="0.582"/>
    </g>
    <g id="グループ_58" data-name="グループ 58" transform="translate(24.559 55.248)">
      <path id="パス_323" data-name="パス 323" d="M384.653,187.443h-4.981l1.314-8.528h4.98Z" transform="translate(-379.672 -178.915)" fill="none" stroke="#fff" stroke-linecap="round" stroke-linejoin="round" stroke-width="0.582"/>
      <path id="パス_324" data-name="パス 324" d="M383.354,187.443h-3.681l1.314-8.528h3.681Z" transform="translate(-379.672 -178.915)" fill="none" stroke="#fff" stroke-linecap="round" stroke-linejoin="round" stroke-width="0.582"/>
    </g>
    <path id="パス_325" data-name="パス 325" d="M362.535,187.115h-4.788l1.263-8.2H363.8Z" transform="translate(-356.251 -123.667)" fill="none" stroke="#fff" stroke-linecap="round" stroke-linejoin="round" stroke-width="0.582"/>
    <path id="パス_326" data-name="パス 326" d="M361.293,187.114h-3.546l1.263-8.2h3.546Z" transform="translate(-356.251 -123.667)" fill="none" stroke="#fff" stroke-linecap="round" stroke-linejoin="round" stroke-width="0.582"/>
    <g id="グループ_59" data-name="グループ 59" transform="translate(8.586 15.749)">
      <path id="パス_327" data-name="パス 327" d="M369.3,148.319l-.108.594a2.4,2.4,0,0,1-.329.844,3.028,3.028,0,0,1-1.432,1.2,2.44,2.44,0,0,1-.929.182,3.155,3.155,0,0,1-.812-.107,1.57,1.57,0,0,1-1.121-1.074,2.2,2.2,0,0,1-.021-1.087l.964-5.294a2.561,2.561,0,0,1,.329-.878,2.654,2.654,0,0,1,.606-.7,2.843,2.843,0,0,1,1.808-.635,1.864,1.864,0,0,1,1.534.635,1.8,1.8,0,0,1,.352.735,2.29,2.29,0,0,1,.007.925l-.1.541h-1.437l.083-.459a.96.96,0,0,0-.112-.7.651.651,0,0,0-.594-.3.893.893,0,0,0-.77.318,1.923,1.923,0,0,0-.323.8l-.9,4.917a1.128,1.128,0,0,0,.063.7q.139.284.632.284a1.184,1.184,0,0,0,.312-.047,1.131,1.131,0,0,0,.331-.156,1.058,1.058,0,0,0,.265-.3,1.314,1.314,0,0,0,.17-.472l.086-.472Z" transform="translate(-364.488 -141.364)" fill="#fff"/>
      <path id="パス_328" data-name="パス 328" d="M369.081,151.056l3.99-9.615h1.2l.491,9.615h-1.438l-.046-2.066h-1.96l-.8,2.066Zm4.163-3.362-.071-3.485h-.028l-1.339,3.485Z" transform="translate(-364.249 -141.36)" fill="#fff"/>
      <path id="パス_329" data-name="パス 329" d="M375.151,151.056l1.749-9.615h4.284l-.236,1.3H378.1l-.53,2.918h2.481l-.237,1.3h-2.481l-.747,4.105Z" transform="translate(-363.934 -141.36)" fill="#fff"/>
      <path id="パス_330" data-name="パス 330" d="M380.109,151.056l1.75-9.615h4.284l-.236,1.3h-2.848l-.513,2.823h2.481l-.237,1.3h-2.48l-.514,2.823h2.847l-.25,1.377Z" transform="translate(-363.677 -141.36)" fill="#fff"/>
    </g>
  </g>
</svg>
