<svg xmlns="http://www.w3.org/2000/svg" xmlns:xlink="http://www.w3.org/1999/xlink" width="94.094" height="61.613" viewBox="0 0 94.094 61.613">
  <defs>
    <clipPath id="clip-path">
      <rect id="長方形_38" data-name="長方形 38" width="94.094" height="61.613" fill="none"/>
    </clipPath>
  </defs>
  <g id="ケーキ絵" opacity="0.64">
    <path id="パス_346" data-name="パス 346" d="M104.5,287.011a.281.281,0,0,0,0-.561.281.281,0,0,0,0,.561Z" transform="translate(-35.842 -249.814)" fill="#fbffff"/>
    <path id="パス_347" data-name="パス 347" d="M60.136,280.267a.281.281,0,0,0,0-.561.281.281,0,0,0,0,.561Z" transform="translate(-29.207 -248.805)" fill="#fbffff"/>
    <path id="パス_348" data-name="パス 348" d="M74.367,279.11a.28.28,0,0,0,0-.56.28.28,0,0,0,0,.56Z" transform="translate(-31.335 -248.632)" fill="#fbffff"/>
    <path id="パス_349" data-name="パス 349" d="M67.123,280.946a.281.281,0,0,0,0-.561.281.281,0,0,0,0,.561Z" transform="translate(-30.252 -248.907)" fill="#fbffff"/>
    <path id="パス_350" data-name="パス 350" d="M66.834,278.145a.281.281,0,0,0,0-.561.281.281,0,0,0,0,.561Z" transform="translate(-30.208 -248.488)" fill="#fbffff"/>
    <path id="パス_351" data-name="パス 351" d="M103.535,275.537a.281.281,0,0,0,0-.561.281.281,0,0,0,0,.561Z" transform="translate(-35.697 -248.098)" fill="#fbffff"/>
    <path id="パス_352" data-name="パス 352" d="M97.242,275.435a.281.281,0,0,0,0-.561.281.281,0,0,0,0,.561Z" transform="translate(-34.756 -248.083)" fill="#fbffff"/>
    <path id="パス_353" data-name="パス 353" d="M106.044,271.12a.281.281,0,0,0,0-.561.281.281,0,0,0,0,.561Z" transform="translate(-36.073 -247.437)" fill="#fbffff"/>
    <path id="パス_354" data-name="パス 354" d="M106.906,274.054a.281.281,0,0,0,0-.561.281.281,0,0,0,0,.561Z" transform="translate(-36.202 -247.876)" fill="#fbffff"/>
    <path id="パス_355" data-name="パス 355" d="M100.176,272.5a.281.281,0,0,0,0-.561.281.281,0,0,0,0,.561Z" transform="translate(-35.195 -247.644)" fill="#fbffff"/>
    <path id="パス_356" data-name="パス 356" d="M87.5,278.241a.281.281,0,0,0,0-.561.281.281,0,0,0,0,.561Z" transform="translate(-33.3 -248.502)" fill="#fbffff"/>
    <path id="パス_357" data-name="パス 357" d="M52.888,282.166a.281.281,0,0,0,0-.561.281.281,0,0,0,0,.561Z" transform="translate(-28.123 -249.089)" fill="#fbffff"/>
    <path id="パス_358" data-name="パス 358" d="M82.866,276.406a.281.281,0,0,0,0-.561.281.281,0,0,0,0,.561Z" transform="translate(-32.606 -248.228)" fill="#fbffff"/>
    <path id="パス_359" data-name="パス 359" d="M91.945,275.44a.28.28,0,0,0,0-.56.28.28,0,0,0,0,.56Z" transform="translate(-33.964 -248.084)" fill="#fbffff"/>
    <path id="パス_360" data-name="パス 360" d="M102.183,290.005a.28.28,0,0,0,0-.56.28.28,0,0,0,0,.56Z" transform="translate(-35.495 -250.262)" fill="#fbffff"/>
    <path id="パス_361" data-name="パス 361" d="M94.456,292.323a.281.281,0,0,0,0-.561.281.281,0,0,0,0,.561Z" transform="translate(-34.34 -250.608)" fill="#fbffff"/>
    <path id="パス_362" data-name="パス 362" d="M103.535,292.42a.281.281,0,0,0,0-.561.281.281,0,0,0,0,.561Z" transform="translate(-35.697 -250.623)" fill="#fbffff"/>
    <path id="パス_363" data-name="パス 363" d="M62.035,297.729a.281.281,0,0,0,0-.561.281.281,0,0,0,0,.561Z" transform="translate(-29.491 -251.417)" fill="#fbffff"/>
    <path id="パス_364" data-name="パス 364" d="M54.786,301.322a.281.281,0,0,0,0-.561.281.281,0,0,0,0,.561Z" transform="translate(-28.407 -251.954)" fill="#fbffff"/>
    <path id="パス_365" data-name="パス 365" d="M79.679,296.669a.28.28,0,0,0,0-.56.28.28,0,0,0,0,.56Z" transform="translate(-32.13 -251.259)" fill="#fbffff"/>
    <path id="パス_366" data-name="パス 366" d="M88.371,293.482a.281.281,0,0,0,0-.561.281.281,0,0,0,0,.561Z" transform="translate(-33.43 -250.782)" fill="#fbffff"/>
    <path id="パス_367" data-name="パス 367" d="M70.837,296.693a.281.281,0,0,0,0-.561.281.281,0,0,0,0,.561Z" transform="translate(-30.807 -251.262)" fill="#fbffff"/>
    <g id="グループ_72" data-name="グループ 72" transform="translate(0 0)">
      <g id="グループ_71" data-name="グループ 71" clip-path="url(#clip-path)">
        <path id="パス_368" data-name="パス 368" d="M87.2,253.2c-.14.046-.194.27-.121.5s.246.388.385.345.2-.27.123-.5-.246-.388-.388-.345Zm-3.69,7.032c-.147.013-.248.222-.229.465s.157.433.3.42.247-.222.229-.465-.157-.431-.3-.42Zm2.128-.424c-.146-.009-.276.185-.288.429s.1.45.243.457.276-.185.288-.429-.094-.451-.243-.457Zm2.637.725c-.146.011-.247.22-.229.463s.156.433.3.42.25-.22.23-.463-.157-.433-.3-.42Zm-1.4-2.581c-.149.009-.253.216-.241.459s.146.437.293.429.254-.215.239-.461-.144-.435-.291-.427Zm1.22-.81c-.14.043-.2.27-.122.5s.246.388.388.345.194-.27.121-.5-.246-.389-.386-.344Zm-3.346-.59c-.14.043-.194.27-.122.5s.247.388.388.343.194-.268.121-.5-.246-.388-.386-.344Zm2.334-1c.073.233.017.459-.123.5s-.312-.11-.385-.344-.02-.459.121-.5.314.11.388.344Z" transform="translate(-32.708 -244.841)" fill="none" stroke="#fbffff" stroke-linecap="round" stroke-linejoin="round" stroke-width="0.44"/>
        <path id="パス_369" data-name="パス 369" d="M89.435,276.629l-.367-.616m-25.5,5.379-.5.756m-6.486.593.209.346m30.658-5.381c-.073-.076-.146-.149-.222-.222m-14.662,3.341.37.075m-11.739.241v.489m-1.958,0v.14m18.593-3.005-.084.7m1.2-.418a1.136,1.136,0,0,0-.351.629m-2.878-.694c.073.162.148.323.221.485M93.39,275.13c-.043.14-.088.282-.132.423m-1.676-.489v.7m1.487,1.282a3.285,3.285,0,0,0-3.255.509m-12,3.206a5.547,5.547,0,0,0-4.138.7m-10.892,1.54a6.124,6.124,0,0,0-6.038,1.032M81.471,260.1v0l.049.071a4.205,4.205,0,0,0,1.172,1.016c.136.088.312.194.517.3a5.713,5.713,0,0,0,2.919.673c1.282-.048,2.564-.17,3.837-.293,1.333-.129,2.852-.364,3.578-1.488a4.469,4.469,0,0,0,.434-1c.208-.607.418-1.23.566-1.862a6.069,6.069,0,0,0,.125-2.568,18.206,18.206,0,0,0-.655-2.012,3.377,3.377,0,0,1-.119-2.079,1.588,1.588,0,0,1,1.588-1.14,3.954,3.954,0,0,0-2.705-.264,17.987,17.987,0,0,0-2.1.881c-2.425.971-5.394.549-7.469,2.139a6.594,6.594,0,0,0-1.14,1.159c-.045.056-.09.112-.134.17a5.187,5.187,0,0,0-.884,1.54c-.03.093-.054.185-.076.278v0m-27.783,8.227a1.361,1.361,0,0,1,.215.767c-.015.211-.1.409-.129.62a1.451,1.451,0,0,0,.8,1.366A3.981,3.981,0,0,0,55.7,267q1.5.126,3.01.136a13.412,13.412,0,0,0,2.913-.23,13.86,13.86,0,0,0,2.288-.754c.285-.116.566-.235.849-.357a5.517,5.517,0,0,0,3.205-3.773c.024-.094.043-.19.06-.286a5.706,5.706,0,0,0-.321-3.258c-.08-.185-.168-.368-.265-.544a8.034,8.034,0,0,0-.661-1.017,9.554,9.554,0,0,0-1.293-1.394,9.863,9.863,0,0,0-3.022-1.855,17.824,17.824,0,0,0-3.4-.847,19.258,19.258,0,0,0-2.374-.3,10.912,10.912,0,0,0-4.46.722,2.644,2.644,0,0,1,2.442,2.962c-.226,1.31-1.412,2.226-1.987,3.426a3.976,3.976,0,0,0,.168,3.694c.106.179.229.357.333.541m17.1-15.066a8.5,8.5,0,0,0-2.385,2.067,6.823,6.823,0,0,0-1.049,3.735v.011c-.026.777.151,1.734.8,2.064v0m12.967-2.087v0a6.034,6.034,0,0,0,.257-1.131,3.866,3.866,0,0,0-.035-1.22,6.494,6.494,0,0,0-1.4-2.591q-1.2-1.558-2.47-3.055c-1.092-1.286-2.361-2.613-4.026-2.889.8.308.833,1.463.457,2.23-.041.084-.084.163-.131.243m23.458,39.064c.441-2.525.69-5.085.892-7.644.06-.745.116-1.493.17-2.238.066-.9.134-1.79.2-2.687.039-.515.076-1.034.065-1.549a6.128,6.128,0,0,0-.079-.89,9.467,9.467,0,0,1-.2-1.17,5.62,5.62,0,0,1,.127-1.176,20.786,20.786,0,0,0,.287-3.964.731.731,0,0,0-.881-.694c-6.1,1.256-12.387,1.595-18.436,3.109-2.122.53-4.21,1.2-6.351,1.64a58.863,58.863,0,0,1-6.258.814q-11.226,1.056-22.454,2.116m6.618-1.689a44.189,44.189,0,0,0-6.637,1.032s.006.242.019.657c.059,1.889.225,7.393.317,10.42q.051,1.709.1,3.419c.043,1.384.084,2.769.014,4.149-.011.2-.022.4-.037.594-.094,1.339-.264,2.672-.29,4.014a10.956,10.956,0,0,0,.03,1.577,1.317,1.317,0,0,0,1.571,1.327,43.065,43.065,0,0,0,4.836-.521c4.882-.837,9.72-1.9,14.556-2.973l12.708-2.8c6.42-1.418,12.859-2.842,19.109-4.869q.478-.156.961-.317a.746.746,0,0,0,.5-.583q.614-3.639,1-7.312.333-3.1.5-6.226.223-4.071.164-8.153c-.007-.58-.03-1.094-.049-1.655m-42.64,7.669c4.46-.444,8.869-1.276,13.273-2.107,8.91-1.68,18.544-3.215,27.583-4.869m1.338-.246a.553.553,0,0,0,.446-.448.566.566,0,0,0-.009-.247.529.529,0,0,0-.221-.313,37.889,37.889,0,0,0-5.03-2.9m-9.268,20.9a.428.428,0,0,0,.4.7c.358-.062.718-.112,1.079-.142.537-.045,1.079-.05,1.616-.1.42-.043.834-.118,1.249-.194l2.238-.4a16.921,16.921,0,0,0,2.4-.551,1.573,1.573,0,0,0,1.093-.853,1.429,1.429,0,0,0,.017-.66,5.058,5.058,0,0,0-.659-1.85,1.269,1.269,0,0,0-.455-.5,1.379,1.379,0,0,0-.634-.122,14.846,14.846,0,0,0-2.233.1,4.566,4.566,0,0,0-.8.152,4.114,4.114,0,0,0-.754.343,17.773,17.773,0,0,0-4.242,3.735c-.1.112-.2.225-.306.341Zm-15.034,3.447a.44.44,0,0,0,.294.762l.265,0a35.376,35.376,0,0,0,4.765-.4q1.768-.23,3.535-.461a2.435,2.435,0,0,0,1.325-.447,1.628,1.628,0,0,0,.479-1.316,4.826,4.826,0,0,0-.36-1.4,1.925,1.925,0,0,0-.56-.923,1.876,1.876,0,0,0-1.017-.267,7.8,7.8,0,0,0-4.546.753,8.774,8.774,0,0,0-1.338,1.078q-1.415,1.306-2.835,2.613l-.008.007ZM53,284.652a.347.347,0,0,0-.024.437l0,0a1.5,1.5,0,0,0,1.118.507,4.514,4.514,0,0,0,1.248-.174c1.071-.248,2.143-.476,3.225-.67,2.245-.4,4.518-.664,6.736-1.187a.822.822,0,0,0,.621-.534.2.2,0,0,0,.01-.059.472.472,0,0,0-.09-.252,5.261,5.261,0,0,0-2.84-2.579,6.14,6.14,0,0,0-1.977-.138,7.146,7.146,0,0,0-2.01.291,7.293,7.293,0,0,0-1.344.672,25.82,25.82,0,0,0-2.465,1.612A14.657,14.657,0,0,0,53,284.652Zm38.047-30.268a2.686,2.686,0,0,1-1.562.954c-.09.024-.181.045-.271.067h0a12.509,12.509,0,0,0-1.542.378,3.243,3.243,0,0,0-1.805,1.562,2.458,2.458,0,0,0,.073,2.341m3.673.716a1.8,1.8,0,0,0,1.359-.282,4.167,4.167,0,0,0,1.015-1,3.686,3.686,0,0,0,.637-1.079,2.151,2.151,0,0,0-.006-1.381h0a1.817,1.817,0,0,0-.084-.211m-3.718-3.083a8,8,0,0,0,2.454-1.182m-5.973,2.1a3.032,3.032,0,0,0-.991.209,3.374,3.374,0,0,0-1.728,1.112,3.993,3.993,0,0,0-.429,2.551m-23.219,4.4a6.525,6.525,0,0,0,.666,1.086,2.5,2.5,0,0,0,.64.638,3.168,3.168,0,0,0,1.807.308m2.54-1.945a3.7,3.7,0,0,0-1.728-4.292m-3.464-2.233a8.5,8.5,0,0,0-3.227-.729m.685,3.784a20.529,20.529,0,0,0-.19,3.022,4.652,4.652,0,0,0,.989,3.278M44.209,289.488q13.569-3.2,27.36-5.342c2.673-.416,5.351-.8,8.005-1.318a123.976,123.976,0,0,0,18.046-5.233M44.13,281.325a42.968,42.968,0,0,0,8.244-1.245c5.739-1.238,11.5-2.4,17.321-3.166,2.078-.272,4.168-.494,6.215-.947,1.577-.347,3.119-.829,4.679-1.245,2.357-.624,4.75-1.1,7.141-1.568q5.164-1.018,10.325-2.033m-30.027-9.384c1.157,1.726,3.715,1.941,6.815,2.035,3.864.121,6.148-1.066,6.627-3.666v0a7.336,7.336,0,0,0-.02-2.482,14.306,14.306,0,0,0-.479-1.986v0c-.1-.343-.221-.689-.353-1.044v0c-.146-.407-.31-.821-.489-1.234-1.6-3.74-4.252-7.486-6.349-7.271a3.373,3.373,0,0,0-.51.093,5.172,5.172,0,0,0-2.986,2.624,19.8,19.8,0,0,0-1.89,4.759c-.27.961-.515,2-.743,3.118v0c-.006.037-.015.073-.021.11-.082.407-.145.788-.188,1.149m-14.254,5.928-9.395,6.385M66.852,254.6l-1.362.924m16.575-1.879c-.4-.066-.8-.131-1.189-.19M32.2,293.841s8.754,9.562,41.831,9.232M43.991,276.76c-3.476,2.124-5.5,4.681-5.5,7.432a7.308,7.308,0,0,0,2.547,5.188m58.092-11.759c2.679,1.937,4.209,4.181,4.209,6.571m-3.6-14.239c10.925,3.562,17.945,9.106,17.945,15.332,0,10.752-20.938,19.467-46.766,19.467s-46.767-8.715-46.767-19.467c0-6.916,8.663-12.99,21.719-16.443h0" transform="translate(-23.864 -243.42)" fill="none" stroke="#fbffff" stroke-linecap="round" stroke-linejoin="round" stroke-width="0.66"/>
      </g>
    </g>
  </g>
</svg>
