<svg xmlns="http://www.w3.org/2000/svg" width="1208.2" height="253.4" viewBox="0 0 1208.2 253.4">
  <path id="パス_973" data-name="パス 973" d="M130.2-71.05v15.4a55.489,55.489,0,0,1-4.375,21.875A60.512,60.512,0,0,1,113.75-15.4,58.214,58.214,0,0,1,95.725-2.625,52.768,52.768,0,0,1,73.5,2.1,79.923,79.923,0,0,1,52.85-.7a48.854,48.854,0,0,1-18.9-9.8A54.192,54.192,0,0,1,20.125-28.525Q14.7-39.55,14.7-56.7V-193.9a60.694,60.694,0,0,1,4.2-22.75,53.543,53.543,0,0,1,11.9-18.2,55.321,55.321,0,0,1,18.375-12.075A61.739,61.739,0,0,1,72.8-251.3q25.2,0,40.95,16.45a58.443,58.443,0,0,1,12.075,19.075A64.42,64.42,0,0,1,130.2-191.8v14H94.5v-11.9a28.9,28.9,0,0,0-5.95-18.2,19.274,19.274,0,0,0-16.1-7.7q-13.3,0-17.675,8.225T50.4-186.55v127.4q0,10.85,4.725,18.2T72.1-33.6a25.924,25.924,0,0,0,7.525-1.225A22.45,22.45,0,0,0,87.15-38.85a21.356,21.356,0,0,0,5.25-7.7A31.2,31.2,0,0,0,94.5-58.8V-71.05ZM159.25,0V-249.2h35.7v106.75h44.1V-249.2h35.7V0h-35.7V-110.95h-44.1V0Zm149.1,0V-249.2h106.4v33.6h-70.7v73.15h61.6v33.6h-61.6V-35.7h70.7V0Zm129.5,0V-249.2h34.3L518-117.25h.7L564.2-249.2h34.65V0h-35.7V-151.55h-.7L527.1-44.45H509.25l-35-107.1h-.7V0ZM633.5,0V-249.2h35.7V0ZM819.35-177.45h-35.7v-8.05q0-12.25-5.775-21.175T758.45-215.6q-7.35,0-11.9,2.8a23.468,23.468,0,0,0-7.35,7,29.6,29.6,0,0,0-3.85,10.325A67.408,67.408,0,0,0,734.3-183.4a118.327,118.327,0,0,0,.525,12.25,23.254,23.254,0,0,0,2.625,8.75,19.461,19.461,0,0,0,6.125,6.65,56.265,56.265,0,0,0,11.025,5.6l27.3,10.85q11.9,4.55,19.25,10.675A46.148,46.148,0,0,1,812.7-114.45a66.26,66.26,0,0,1,5.25,19.075,188.772,188.772,0,0,1,1.4,24.325,128.262,128.262,0,0,1-3.15,29.225A61.564,61.564,0,0,1,806.05-18.9,50.382,50.382,0,0,1,786.8-3.5q-11.9,5.6-29.05,5.6A63.55,63.55,0,0,1,733.6-2.45a57.44,57.44,0,0,1-19.25-12.6,61.318,61.318,0,0,1-12.775-18.725A56.857,56.857,0,0,1,696.85-57.05v-13.3h35.7v11.2a29.161,29.161,0,0,0,5.775,17.675Q744.1-33.6,757.75-33.6q9.1,0,14.175-2.625A18.844,18.844,0,0,0,779.8-43.75a27.637,27.637,0,0,0,3.325-11.725q.525-6.825.525-15.225a150.861,150.861,0,0,0-.7-16.1,27.706,27.706,0,0,0-2.8-10.15,19.677,19.677,0,0,0-6.475-6.3A82.977,82.977,0,0,0,763-108.5L737.45-119q-23.1-9.45-30.975-25.025T698.6-183.05a90.532,90.532,0,0,1,3.85-26.6A60.5,60.5,0,0,1,714-231.35a52.935,52.935,0,0,1,18.725-14.525Q744.1-251.3,759.85-251.3a59.228,59.228,0,0,1,24.325,4.9,62.661,62.661,0,0,1,19.075,12.95q16.1,16.8,16.1,38.5ZM869.4,0V-215.6H828.1v-33.6H946.4v33.6H905.1V0ZM997.85-215.6v77.7h20.3q9.45,0,15.05-2.625a20.455,20.455,0,0,0,8.75-7.525,34.208,34.208,0,0,0,3.85-12.075,116.1,116.1,0,0,0,1.05-16.625,116.1,116.1,0,0,0-1.05-16.625,33.269,33.269,0,0,0-4.2-12.425q-6.65-9.8-25.2-9.8ZM962.15,0V-249.2h57.4q63,0,63,73.15,0,22.05-6.825,37.45t-23.975,24.85L1090.25,0h-37.8L1019.2-106.4H997.85V0ZM1138.2,0V-105.35l-49-143.85H1127l28.7,99.05h.7l28.7-99.05h37.8l-49,143.85V0Z" transform="translate(-14.7 251.3)" fill="#03a8e5" opacity="0.108" style="mix-blend-mode: multiply;isolation: isolate"/>
</svg>
