<svg xmlns="http://www.w3.org/2000/svg" width="67.598" height="64.729" viewBox="0 0 67.598 64.729">
  <g id="ペンキ絵" opacity="0.318">
    <g id="グループ_74" data-name="グループ 74" transform="translate(0 0)">
      <path id="パス_370" data-name="パス 370" d="M139.352,680.726c-.249,6.008-.475,11.452-.7,16.9-.115,2.754-.225,5.508-.358,8.262a1.676,1.676,0,0,1-.274.774,7.723,7.723,0,0,1-2.161,2.14,18.286,18.286,0,0,1-5.3,2.438,38.474,38.474,0,0,1-8.642,1.473,48.46,48.46,0,0,1-8.13-.149,36.782,36.782,0,0,1-12.17-3.111,16.776,16.776,0,0,1-3.464-2.177,1.777,1.777,0,0,1-.683-1.459c-.132-5.534-.3-11.067-.441-16.6-.117-4.449-.215-8.9-.332-13.346-.143-5.447-.3-10.893-.441-16.34-.021-.824-.011-1.649.013-2.472a4.616,4.616,0,0,1,1.206-2.887,9.653,9.653,0,0,1,2.282-1.923,22.594,22.594,0,0,1,6.292-2.6,50.13,50.13,0,0,1,15.557-1.481,43.916,43.916,0,0,1,10.069,1.607,21.958,21.958,0,0,1,4.8,1.973,10.3,10.3,0,0,1,2.52,1.937,4.9,4.9,0,0,1,1.368,3.732c-.214,4.162-.362,8.327-.541,12.491C139.664,673.7,139.494,677.5,139.352,680.726ZM101.43,669.047A33.2,33.2,0,0,0,116.4,682.516c.016-.312.033-.523.036-.734.023-1.476.04-2.952.065-4.427.012-.7.217-.935.9-1.029a2.443,2.443,0,0,1,.518.01c.541.043,1.08.106,1.622.138a47.82,47.82,0,0,0,11.025-.651,23.933,23.933,0,0,0,5.937-1.657,15.821,15.821,0,0,0,1.665-1,.6.6,0,0,0,.269-.554c.012-.542.055-1.083.078-1.625q.178-4.261.349-8.522a2.562,2.562,0,0,0-.055-.4,15.58,15.58,0,0,1-4.131,2.461,38.722,38.722,0,0,1-11.052,2.562,57.079,57.079,0,0,1-9.365.167,46.743,46.743,0,0,1-9.369-1.471,20.111,20.111,0,0,1-7.018-3.159.989.989,0,0,0-.24-.076c0,.44-.009.842,0,1.244q.246,9.308.5,18.616.277,10.577.533,21.156a1.271,1.271,0,0,0,.535,1.093,19.539,19.539,0,0,0,5.255,2.821,37.5,37.5,0,0,0,10.091,2.128,42.4,42.4,0,0,0,12.942-.84,22.8,22.8,0,0,0,6.775-2.6,9.765,9.765,0,0,0,2.542-2.113,1.282,1.282,0,0,0,.31-.683c.113-2.232.2-4.466.285-6.7a2.428,2.428,0,0,0-.061-.4,16.909,16.909,0,0,1-4.809,2.114,30.6,30.6,0,0,1-10.7.979,20.461,20.461,0,0,1-4.907-.954c-.522-.174-.614-.294-.634-.838-.007-.2,0-.391,0-.586q.065-6.446.131-12.893c0-.259,0-.518,0-.807a33.918,33.918,0,0,1-15.642-13.96c-1.492.077-2.39-.484-2.677-1.621a2.164,2.164,0,0,1,3.833-1.809C102.633,666.841,102.474,667.936,101.43,669.047Zm36.543,14.287a25.7,25.7,0,0,1-10.113,2.238,28.628,28.628,0,0,1-10.228-1.795c-.042,4.578-.082,9.039-.123,13.483a1.129,1.129,0,0,0,.2.124c.227.071.456.139.687.2a24.476,24.476,0,0,0,5.866.674,28.1,28.1,0,0,0,8.9-1.329,12.814,12.814,0,0,0,3.876-1.945,1.175,1.175,0,0,0,.491-.987c.084-2.427.209-4.853.314-7.28C137.9,685.631,137.93,684.55,137.973,683.334Zm.372-8.613c-6.662,2.919-13.555,3.309-20.626,2.869v5.474a26.018,26.018,0,0,0,20.3-.5Zm-19.628-10.094a53.783,53.783,0,0,0,5.56-.377,36.357,36.357,0,0,0,8.36-1.867,14.56,14.56,0,0,0,4.574-2.427,7.492,7.492,0,0,0,1.395-1.527,2.649,2.649,0,0,0-.048-3.226,8.8,8.8,0,0,0-1.529-1.579,11.922,11.922,0,0,0-3.177-1.757,38.535,38.535,0,0,0-12.713-2.464,51.631,51.631,0,0,0-9.224.374,37.536,37.536,0,0,0-7.905,1.83,14.6,14.6,0,0,0-4.625,2.468,7.477,7.477,0,0,0-1.378,1.541,2.669,2.669,0,0,0,0,3.067,4.074,4.074,0,0,0,.767.961,16.345,16.345,0,0,0,1.922,1.438,18.084,18.084,0,0,0,4.425,1.86A46.836,46.836,0,0,0,118.718,664.627Zm-19.95,40.656a1.043,1.043,0,0,0,.5,1.268c.543.358,1.062.755,1.62,1.088a21.114,21.114,0,0,0,4.4,1.923,44.031,44.031,0,0,0,13.406,1.98,41.928,41.928,0,0,0,9.88-1.072,20.833,20.833,0,0,0,5.816-2.216,8.461,8.461,0,0,0,2.34-1.947,1.6,1.6,0,0,0,.293-1.31c-.075.013-.1.01-.114.022a16.711,16.711,0,0,1-6.347,3.6,36.58,36.58,0,0,1-9.7,1.761,43.955,43.955,0,0,1-13.24-1.2,24.033,24.033,0,0,1-8.637-3.811A1.1,1.1,0,0,0,98.768,705.283Zm-1.171-44.9a1.344,1.344,0,0,0,.647,1.636c.678.427,1.331.9,2.035,1.279a23.556,23.556,0,0,0,5.427,1.979,48.448,48.448,0,0,0,10.176,1.359,52.469,52.469,0,0,0,13.708-1.229,25.274,25.274,0,0,0,6.761-2.468,10.29,10.29,0,0,0,2.291-1.7.882.882,0,0,0,.256-.976c-.066.018-.117.017-.143.041a15.1,15.1,0,0,1-5.293,3.117,43.861,43.861,0,0,1-13.71,2.478,51.133,51.133,0,0,1-6.7-.212,40.255,40.255,0,0,1-8.861-1.715,15.811,15.811,0,0,1-6.441-3.547C97.727,660.4,97.675,660.4,97.6,660.385Zm2.645,8.276a1.466,1.466,0,0,0,1.434-1.521,1.478,1.478,0,1,0-1.434,1.521Z" transform="translate(-96.245 -648.084)" fill="#fff"/>
      <path id="パス_371" data-name="パス 371" d="M136.06,665.743a51.514,51.514,0,0,1,11.507,1.088,20.56,20.56,0,0,1,4.506,1.46,15.339,15.339,0,0,1,2.008,1.191,4.361,4.361,0,0,1,.958.963,2.51,2.51,0,0,1,.046,3.14,6.149,6.149,0,0,1-2,1.737,18.281,18.281,0,0,1-4.381,1.794,44.244,44.244,0,0,1-8.446,1.461,51.838,51.838,0,0,1-5.98.214,46.471,46.471,0,0,1-11.446-1.54,15.118,15.118,0,0,1-3.613-1.446,9.316,9.316,0,0,1-1.725-1.261,2.672,2.672,0,0,1-.065-4.086,7.881,7.881,0,0,1,2.15-1.558,23.977,23.977,0,0,1,6.144-2.068A51.144,51.144,0,0,1,136.06,665.743Zm-.517,12.315a48.859,48.859,0,0,0,11.355-1.195,22.106,22.106,0,0,0,5.67-2.044c.659-.36.85-.655.4-1.483a3.853,3.853,0,0,0-1.047-1.131,10,10,0,0,0-3.027-1.473,36.8,36.8,0,0,0-10.3-1.659,48.216,48.216,0,0,0-10.242.634,24.529,24.529,0,0,0-5.863,1.664,6.636,6.636,0,0,0-2.08,1.31,3.456,3.456,0,0,0-.734,1.05,1.493,1.493,0,0,0,.807,1.924,36.679,36.679,0,0,0,3.636,1.2A45.048,45.048,0,0,0,135.542,678.058Zm18.364-4.281c1.2-1,1.3-2.153.331-3.206a4.045,4.045,0,0,0-.888-.756,17.146,17.146,0,0,0-2.181-1.147,33.514,33.514,0,0,0-10.154-2.076,55.675,55.675,0,0,0-9.621.095,42.952,42.952,0,0,0-7.548,1.325,18.007,18.007,0,0,0-4.449,1.795,5.61,5.61,0,0,0-1.725,1.464,2.208,2.208,0,0,0,1.229,3.386,2.8,2.8,0,0,1,1.357-2.77,11.536,11.536,0,0,1,1.723-1.036,18.764,18.764,0,0,1,4.18-1.411,44.841,44.841,0,0,1,10-1.094,43.882,43.882,0,0,1,11.289,1.226,15.348,15.348,0,0,1,4.566,1.837A3.913,3.913,0,0,1,153.906,673.777Z" transform="translate(-113.88 -663.449)" fill="#fff"/>
      <path id="パス_372" data-name="パス 372" d="M122.563,789.557a.827.827,0,1,1-.717-.919A.84.84,0,0,1,122.563,789.557Z" transform="translate(-117.711 -770.372)" fill="#fff"/>
    </g>
    <g id="グループ_75" data-name="グループ 75" transform="translate(51.036 64.019) rotate(-90)">
      <path id="パス_373" data-name="パス 373" d="M59.58,12.43c.063.105.1.169.137.226a1.123,1.123,0,0,1-.017,1.429.931.931,0,0,0-.165.6c0,.428,0,.857-.023,1.285-.025.491-.146.6-.634.591-1.643-.044-3.285-.1-4.927-.146s-3.314-.085-4.971-.134c-2.342-.069-4.684-.147-7.027-.215-1.557-.046-3.115-.13-4.671-.106a5.787,5.787,0,0,1-2.355-.52,10.4,10.4,0,0,1-3.43-2.446,3.568,3.568,0,0,0-.855-.631,13.962,13.962,0,0,0-5.519-1.572,17.335,17.335,0,0,0-3.588.134,61.784,61.784,0,0,1-6.275.5c-1.271.027-2.541.122-3.812.142a22.272,22.272,0,0,1-4.613-.246,15.8,15.8,0,0,1-2.091-.612,13.846,13.846,0,0,1-2.414-1.1A6,6,0,0,1,.341,7.7a3.116,3.116,0,0,1-.2-.376A.921.921,0,0,1,.246,6.212a5.666,5.666,0,0,1,.936-.867A13.092,13.092,0,0,1,6.568,3.259a24.9,24.9,0,0,1,5.387-.1c2.982.2,5.93.681,8.884,1.106a25.56,25.56,0,0,0,5.419.375,6.118,6.118,0,0,0,1.88-.385c.755-.3,1.5-.629,2.254-.938a7.527,7.527,0,0,0,1.6-1.061A11.926,11.926,0,0,1,35.641.407,8.015,8.015,0,0,1,37.969.129c1.157-.011,2.314.021,3.471.013Q50.121.078,58.8,0c.071,0,.143,0,.214,0a.606.606,0,0,1,.631.617c.023.442.025.885.03,1.328,0,.329.009.658-.005.986a1.542,1.542,0,0,0,.314,1.074A1.134,1.134,0,0,1,60,5.407c-.039.06-.084.116-.123.175-.258.389-.262.421.027.781a1.131,1.131,0,0,1,.023,1.623,1.066,1.066,0,0,0-.253.623c-.038.426-.089.852-.142,1.277a.714.714,0,0,0,.176.544,2.679,2.679,0,0,1,.349.719.937.937,0,0,1-.186.886ZM36.261,1.106a6.564,6.564,0,0,0-1.857.7c-.839.517-1.669,1.047-2.5,1.574a5.507,5.507,0,0,1-.717.466c-1.075.462-2.141.956-3.247,1.328a9.291,9.291,0,0,1-3.992.275c-2.213-.24-4.416-.573-6.623-.869-2.052-.275-4.107-.524-6.176-.644a21.835,21.835,0,0,0-4.656.176A12.381,12.381,0,0,0,1.63,6.03a3.266,3.266,0,0,0-.471.37c-.362.344-.381.483-.107.885A5.18,5.18,0,0,0,2.775,8.921a15.157,15.157,0,0,0,2.179.993,10.512,10.512,0,0,0,2.259.646,26.894,26.894,0,0,0,4.234.174c1.471-.029,2.941-.108,4.412-.155,1.743-.055,3.479-.213,5.207-.435a19.263,19.263,0,0,1,4.783-.115,14.689,14.689,0,0,1,4.279,1.165,5.925,5.925,0,0,1,1.177.691A15.743,15.743,0,0,1,32.683,13.1a6.821,6.821,0,0,0,3.211,1.8,2.958,2.958,0,0,0,.367.041ZM58.829,5.893h-.545L47.179,5.9a1.465,1.465,0,0,1-.425-.022.354.354,0,0,1-.193-.228c-.011-.045.109-.165.185-.182a2.158,2.158,0,0,1,.469-.025l11.234-.012c.114,0,.229,0,.343,0a.436.436,0,0,0,.2-.046.745.745,0,0,0,.184-1.106,1.593,1.593,0,0,1-.34-1.034c.009-.643,0-1.286,0-1.929,0-.15-.018-.3-.029-.484l-13,.107c.026,4.825.052,9.6.079,14.417l12.8.371v-.909c-.178,0-.333,0-.488,0l-5.1.105a1.16,1.16,0,0,1-.382-.013.373.373,0,0,1-.2-.224c-.012-.04.109-.149.188-.18a.9.9,0,0,1,.3-.022l5.229-.126c.152,0,.3-.018.4-.024a3.7,3.7,0,0,1,.3-.579.536.536,0,0,0,.012-.765.87.87,0,0,1-.011-1.078c.067-.109.16-.2.223-.314a2.777,2.777,0,0,0,.137-.357c-.2,0-.343,0-.481,0l-7.114.188a1.546,1.546,0,0,1-.383-.013.247.247,0,0,1-.158-.166.241.241,0,0,1,.114-.2,1.105,1.105,0,0,1,.374-.062q3.407-.095,6.814-.184c.122,0,.244-.018.4-.03-.335-.664-.061-1.317-.083-1.984a2.736,2.736,0,0,0-.3-.03q-.793,0-1.586.019l-8.4.154a.76.76,0,0,1-.3-.016c-.076-.032-.173-.131-.172-.2s.1-.168.173-.2a.8.8,0,0,1,.3-.022L58.53,8.316c.11,0,.221-.021.267-.025.172-.3.3-.547.459-.782.212-.323.232-.351-.008-.632A1.317,1.317,0,0,1,58.829,5.893ZM44.981,15.332V.984c-.849-.09-7.449.005-7.836.107V15.1Z" transform="translate(0 0)" fill="#fff"/>
      <path id="パス_374" data-name="パス 374" d="M1.66,0a1.855,1.855,0,0,1,1.3.465,1.162,1.162,0,0,1-.108,1.9A2.032,2.032,0,0,1,.3,2.083,1.143,1.143,0,0,1,.338.5,1.768,1.768,0,0,1,1.66,0Zm.016,2.242a1.54,1.54,0,0,0,1-.31A.7.7,0,0,0,2.761.909,1.553,1.553,0,0,0,.709.764a.666.666,0,0,0-.1.953A1.363,1.363,0,0,0,1.677,2.243Z" transform="translate(5.057 5.993)" fill="#fff"/>
      <path id="パス_375" data-name="パス 375" d="M6.416.541.575.655A1.028,1.028,0,0,1,.236.647C.145.616.078.516,0,.446A1.06,1.06,0,0,1,.219.234.614.614,0,0,1,.472.215C1.285.195,2.1.171,2.912.155Q6.936.077,10.96,0a1.28,1.28,0,0,1,.382.019.286.286,0,0,1,.178.195.289.289,0,0,1-.164.2.929.929,0,0,1-.336.039C9.251.493,7.482.523,6.416.541Z" transform="translate(46.479 1.574)" fill="#fff"/>
      <path id="パス_376" data-name="パス 376" d="M5.713.591Q3.122.651.532.709A1.457,1.457,0,0,1,.15.69.243.243,0,0,1,0,.519.254.254,0,0,1,.118.32.679.679,0,0,1,.408.271Q3.9.182,7.387.1L10.855.01a.846.846,0,0,1,.3.008c.091.033.213.11.232.189.036.154-.091.22-.234.235-.057.006-.114.005-.171.007L5.713.588Z" transform="translate(46.587 9.169)" fill="#fff"/>
      <path id="パス_377" data-name="パス 377" d="M4.585.549C3.471.572,2,.6.532.632A1.324,1.324,0,0,1,.152.605C.086.587-.007.482,0,.43A.317.317,0,0,1,.162.219.91.91,0,0,1,.5.179L7.816.044C8.386.034,8.957.013,9.527.005c.177,0,.4-.05.45.205.034.161-.12.242-.459.248C7.992.488,6.466.515,4.585.549Z" transform="translate(47.474 13.076)" fill="#fff"/>
      <path id="パス_378" data-name="パス 378" d="M2.476.5C1.807.5,1.137.5.468.5.129.494-.03.413,0,.253.059,0,.275.04.455.038Q2.464.019,4.474.005a.6.6,0,0,1,.253.015c.077.038.178.127.179.194a.291.291,0,0,1-.167.206A.972.972,0,0,1,4.4.445q-.962,0-1.924,0Z" transform="translate(47.361 2.912)" fill="#fff"/>
      <path id="パス_379" data-name="パス 379" d="M1.871,0H3.024c.1,0,.2-.005.3,0,.16.008.347.021.336.233S3.466.453,3.3.455L.356.482H.313C.164.481,0,.467,0,.277-.005.059.169.046.333.043S.646.04.8.04H1.871Z" transform="translate(53.178 2.877)" fill="#fff"/>
      <path id="パス_380" data-name="パス 380" d="M.081,6.146q0-2.807,0-5.614A1.409,1.409,0,0,1,.115.151C.134.086.236-.008.285,0A.313.313,0,0,1,.5.161,1.122,1.122,0,0,1,.532.54C.517,2.269.5,4,.484,5.725.47,7.711.462,9.7.451,11.682a.883.883,0,0,1-.025.338.394.394,0,0,1-.235.19c-.039.011-.15-.116-.171-.2A1.527,1.527,0,0,1,0,11.632Q0,8.889,0,6.146Z" transform="translate(39.932 2.179)" fill="#fff"/>
      <path id="パス_381" data-name="パス 381" d="M0,6.114Q0,3.353,0,.592A2.122,2.122,0,0,1,.023.166C.037.1.127,0,.177,0A.294.294,0,0,1,.4.134,1.293,1.293,0,0,1,.449.553Q.457,3.892.46,7.231q0,2.269.01,4.537a1,1,0,0,1-.031.336.25.25,0,0,1-.188.136A.247.247,0,0,1,.064,12.1a1.325,1.325,0,0,1-.032-.38q0-2.8,0-5.607Z" transform="translate(42.848 2.129)" fill="#fff"/>
      <path id="パス_382" data-name="パス 382" d="M1.033,2.126A1.067,1.067,0,0,1,0,1.04,1.051,1.051,0,0,1,1.03,0,1.071,1.071,0,0,1,2.083,1.11,1.04,1.04,0,0,1,1.033,2.126Zm.289-1.011C1.212,1,1.155.891,1.071.861.94.813.861.912.85,1.041s.049.234.185.227C1.114,1.264,1.188,1.19,1.322,1.115Z" transform="translate(37.306 4.059)" fill="#fff"/>
      <path id="パス_383" data-name="パス 383" d="M2.026,1.032a1.018,1.018,0,0,1-1.017,1A1.017,1.017,0,1,1,1.039,0,1.02,1.02,0,0,1,2.026,1.032ZM.97,1.327c.128-.191.208-.258.2-.314S1.075.9,1.022.843c-.059.066-.15.124-.167.2S.911,1.19.97,1.327Z" transform="translate(37.272 10.412)" fill="#fff"/>
    </g>
  </g>
</svg>
