<svg xmlns="http://www.w3.org/2000/svg" xmlns:xlink="http://www.w3.org/1999/xlink" width="162.288" height="460.044" viewBox="0 0 162.288 460.044">
  <defs>
    <filter id="パス_993" x="0" y="0" width="162.288" height="460.044" filterUnits="userSpaceOnUse">
      <feOffset input="SourceAlpha"/>
      <feGaussianBlur stdDeviation="7.5" result="blur"/>
      <feFlood flood-opacity="0.161"/>
      <feComposite operator="in" in2="blur"/>
      <feComposite in="SourceGraphic"/>
    </filter>
  </defs>
  <g transform="matrix(1, 0, 0, 1, 0, 0)" filter="url(#パス_993)" style="mix-blend-mode: multiply;isolation: isolate">
    <path id="パス_993-2" data-name="パス 993" d="M61.236-82.134H44.712V-85.86a17.643,17.643,0,0,0-2.673-9.8q-2.673-4.131-8.991-4.131a10.4,10.4,0,0,0-5.508,1.3,10.862,10.862,0,0,0-3.4,3.24,13.7,13.7,0,0,0-1.782,4.779,31.2,31.2,0,0,0-.486,5.589,54.773,54.773,0,0,0,.243,5.67,10.764,10.764,0,0,0,1.215,4.05,9.008,9.008,0,0,0,2.835,3.078,26.044,26.044,0,0,0,5.1,2.592L43.9-64.476a31.329,31.329,0,0,1,8.91,4.941,21.36,21.36,0,0,1,5.346,6.561,30.668,30.668,0,0,1,2.43,8.829,87.371,87.371,0,0,1,.648,11.259,59.368,59.368,0,0,1-1.458,13.527,28.5,28.5,0,0,1-4.7,10.611A23.32,23.32,0,0,1,46.17-1.62,31.429,31.429,0,0,1,32.724.972,29.414,29.414,0,0,1,21.546-1.134a26.587,26.587,0,0,1-8.91-5.832,28.382,28.382,0,0,1-5.913-8.667A26.317,26.317,0,0,1,4.536-26.406v-6.156H21.06v5.184A13.5,13.5,0,0,0,23.733-19.2q2.673,3.645,8.991,3.645a14.5,14.5,0,0,0,6.561-1.215A8.722,8.722,0,0,0,42.93-20.25a12.792,12.792,0,0,0,1.539-5.427q.243-3.159.243-7.047a69.828,69.828,0,0,0-.324-7.452,12.825,12.825,0,0,0-1.3-4.7,9.108,9.108,0,0,0-3-2.916,38.406,38.406,0,0,0-4.941-2.43L23.328-55.08Q12.636-59.454,8.991-66.663T5.346-84.726A41.9,41.9,0,0,1,7.128-97.038a28,28,0,0,1,5.346-10.044,24.5,24.5,0,0,1,8.667-6.723A28.928,28.928,0,0,1,33.7-116.316a27.414,27.414,0,0,1,11.259,2.268,29,29,0,0,1,8.829,5.994,25.029,25.029,0,0,1,7.452,17.82Zm64.8,49.248v7.128a25.683,25.683,0,0,1-2.025,10.125,28.009,28.009,0,0,1-5.589,8.505,26.945,26.945,0,0,1-8.343,5.913A24.424,24.424,0,0,1,99.792.972a36.993,36.993,0,0,1-9.558-1.3A22.612,22.612,0,0,1,81.486-4.86a25.083,25.083,0,0,1-6.4-8.343q-2.511-5.1-2.511-13.041v-63.5a28.093,28.093,0,0,1,1.944-10.53,24.783,24.783,0,0,1,5.508-8.424,25.606,25.606,0,0,1,8.505-5.589,28.576,28.576,0,0,1,10.935-2.025q11.664,0,18.954,7.614a27.05,27.05,0,0,1,5.589,8.829,29.817,29.817,0,0,1,2.025,11.1v6.48H109.512V-87.8a13.375,13.375,0,0,0-2.754-8.424,8.921,8.921,0,0,0-7.452-3.564q-6.156,0-8.181,3.807A20.4,20.4,0,0,0,89.1-86.346v58.968a15.272,15.272,0,0,0,2.187,8.424q2.187,3.4,7.857,3.4a12,12,0,0,0,3.483-.567,10.391,10.391,0,0,0,3.483-1.863,9.885,9.885,0,0,0,2.43-3.564,14.44,14.44,0,0,0,.972-5.67v-5.67ZM139.968,0V-115.344h16.524V0ZM172.53,0V-115.344h49.248v15.552H189.054v33.858h28.512v15.552H189.054v33.858h32.724V0Zm59.292,0V-115.344H247.7l24.948,69.5h.324v-69.5h16.524V0H273.942L248.67-69.336h-.324V0ZM356.886-32.886v7.128a25.683,25.683,0,0,1-2.025,10.125,28.009,28.009,0,0,1-5.589,8.505,26.945,26.945,0,0,1-8.343,5.913A24.424,24.424,0,0,1,330.642.972a36.993,36.993,0,0,1-9.558-1.3,22.612,22.612,0,0,1-8.748-4.536,25.083,25.083,0,0,1-6.4-8.343q-2.511-5.1-2.511-13.041v-63.5a28.093,28.093,0,0,1,1.944-10.53,24.782,24.782,0,0,1,5.508-8.424,25.606,25.606,0,0,1,8.5-5.589,28.576,28.576,0,0,1,10.935-2.025q11.664,0,18.954,7.614a27.051,27.051,0,0,1,5.589,8.829,29.817,29.817,0,0,1,2.025,11.1v6.48H340.362V-87.8a13.375,13.375,0,0,0-2.754-8.424,8.921,8.921,0,0,0-7.452-3.564q-6.156,0-8.181,3.807a20.4,20.4,0,0,0-2.025,9.639v58.968a15.272,15.272,0,0,0,2.187,8.424q2.187,3.4,7.857,3.4a12,12,0,0,0,3.483-.567,10.392,10.392,0,0,0,3.483-1.863,9.885,9.885,0,0,0,2.43-3.564,14.44,14.44,0,0,0,.972-5.67v-5.67ZM370.332,0V-115.344H419.58v15.552H386.856v33.858h28.512v15.552H386.856v33.858H419.58V0Z" transform="translate(23.47 17.96) rotate(90)" fill="#0052aa" opacity="0.108"/>
  </g>
</svg>
