<svg xmlns="http://www.w3.org/2000/svg" xmlns:xlink="http://www.w3.org/1999/xlink" width="93.888" height="55.923" viewBox="0 0 93.888 55.923">
  <defs>
    <clipPath id="clip-path">
      <rect id="長方形_36" data-name="長方形 36" width="93.888" height="55.923" fill="none"/>
    </clipPath>
  </defs>
  <g id="自動車絵" opacity="0.688">
    <g id="グループ_66" data-name="グループ 66" transform="translate(0 0)">
      <g id="グループ_65" data-name="グループ 65" clip-path="url(#clip-path)">
        <path id="パス_342" data-name="パス 342" d="M181.981,132.412l-15.561,2.963-2.13,2.818m9.587-9.6c.524-.016,1.1-.036,1.745-.047a49.424,49.424,0,0,1,7.7.38l-.005-.2a23.885,23.885,0,0,0-3.229-.462c-.351-.006-2.224.024-4.059.056-1.588.028-3.148.058-3.672.069a19.386,19.386,0,0,0-2.675.332l0,.187s.509-.09,1.753-.179c.014,0,.028,0,.042,0m-5.468.885h0l.065-.025,7.8-.99,2.149-.271-1.442.04-3.107.361h-.014l-.028,0-5.481.638-.72.243,0,0m-8.01-.627c.285-.008.582-.015.895-.02a49.863,49.863,0,0,1,6.951.226l-.005-.2a14.679,14.679,0,0,0-2.481-.31c-.3,0-1.725.017-3.283.045h0c-.3,0-.612.009-.917.014-.026,0-.051,0-.077,0-1.51.026-2.952.054-3.454.067a19.111,19.111,0,0,0-2.675.329l0,.187a29.472,29.472,0,0,1,3.1-.264m3.029-.32-.361.009-2.668.31-.009,0-5.954.692-1.581.535h0m11.57-1.566.084-.011-1,.026m.917-.014-2.075.262-7.787.987-.748.265m46.361,26.507L182.5,156.6M149.648,151.3c1.785,0,11.95-.031,16.125-.088.982-.013,1.635-.028,1.766-.045a5.8,5.8,0,0,0,.951-.173m-45.048-.086a1.566,1.566,0,0,0,.7.161c.651.06,1.618.071,2.37.1,1.168.043,10.008.045,10.008.045m11.042-.384a.4.4,0,0,0-.162-.32.389.389,0,0,0-.234-.077h-9.147a.3.3,0,0,0-.195.071.3.3,0,0,0-.114.236v4.951a.362.362,0,0,0,.363.361h8.908a.581.581,0,0,0,.582-.582v-4.642Zm-23.36-.379c-.021.183-.042.393-.06.619a13.917,13.917,0,0,0,.112,3.838m41.51,0a10.885,10.885,0,0,0,.009-3.694c-.047-.232-.1-.469-.178-.713m23.933-20.61v.531m3.313.086c.044-.134.044-1.538.044-2.213a17.9,17.9,0,0,0-.269-2.155M164.08,157.452H138.444m70.531-2.226c.647.008,1.88-.043,1.965-.546.092-.554-.054-4.155-.114-5.49M181.382,163.1a1.593,1.593,0,0,0,1.1-.309c.228-.305.133-3.635.022-6.194-.043-.993-.088-1.873-.117-2.411M138.5,156.047a8.512,8.512,0,0,0-.054,1.4,7.043,7.043,0,0,0,.21,1.487,1.1,1.1,0,0,0,1.068.818h24.359M137.248,154.9a17.6,17.6,0,0,0-.354,3.637c0,3.629.95,6.571,2.124,6.571,1.038,0,1.9-2.306,2.087-5.354m-6.562-4.855c-.026.5-.041,1.029-.05,1.549-.021,1.362.011,2.681.042,3.4.054,1.251.217,5.871,1.686,8.373a6.9,6.9,0,0,0,2.213,2.528h0M126.213,154.9c-.017.489-.033,1.01-.045,1.549-.033,1.51-.043,3.144.019,4.489a17.624,17.624,0,0,0,1.69,7.588,4.345,4.345,0,0,0,3.556,2.221,47.951,47.951,0,0,0,7,0h0a7.168,7.168,0,0,0,1.045-.19c1.48-.41,3.407-4.211,3.642-8.1.045-.722.078-1.655.088-2.7m35.507,0c-.1,0-.181.164-.181.368s.081.367.181.367.179-.164.179-.367-.08-.368-.179-.368Zm.036-3.625c-.1,0-.181.165-.181.368s.082.369.181.369.181-.165.181-.369-.08-.368-.181-.368Zm-2.542,3.825c-.133,0-.24.217-.24.485s.107.486.24.486.237-.217.237-.486-.106-.485-.237-.485Zm.048-3.825c-.133,0-.24.219-.24.486s.107.486.24.486.237-.219.237-.486-.106-.486-.237-.486Zm1.113-2.275c-.133,0-.24.217-.24.486s.107.485.24.485.239-.217.239-.485-.108-.486-.239-.486Zm.29,8.231c-.131,0-.238.217-.238.484s.107.486.238.486.239-.217.239-.486-.106-.484-.239-.484Zm-.123-5.855c-.412,0-.745.93-.745,2.074s.333,2.077.745,2.077.744-.93.744-2.077-.333-2.074-.744-2.074Zm-.305-4.469c-1.2,0-2.172,3.008-2.172,6.719s.973,6.718,2.172,6.718,2.17-3.008,2.17-6.718-.971-6.719-2.17-6.719Zm.61-5.9a2.4,2.4,0,0,0-1.747.293c-1.278.778-3.113,5.28-3.334,7.281a51.156,51.156,0,0,0-.112,6.39c.056,1.278.223,6,1.723,8.556a7.068,7.068,0,0,0,2.263,2.585m-12.5-16.069c-.026.792-.049,1.667-.06,2.55-.009.778-.011,1.563,0,2.3.005.411.019.808.035,1.184a17.955,17.955,0,0,0,1.729,7.756,4.439,4.439,0,0,0,3.633,2.269,48.974,48.974,0,0,0,7.156.005,7.451,7.451,0,0,0,1.072-.194c1.433-.4,3.281-3.917,3.67-7.672.023-.2.04-.406.053-.61a56.837,56.837,0,0,0-.123-8.171,20.567,20.567,0,0,0-1.157-5.553,5.974,5.974,0,0,0-2.308-2.907,6.208,6.208,0,0,0-2.129-.825,13.787,13.787,0,0,0-1.9-.215,13.276,13.276,0,0,0-1.635-.045m34.562,11.985c-.08,0-.144.133-.144.294s.064.3.144.3.145-.133.145-.3-.064-.294-.145-.294Zm.031-2.9c-.081,0-.146.133-.146.293s.066.3.146.3.144-.133.144-.3-.065-.293-.144-.293Zm-2.033,3.058c-.107,0-.191.174-.191.388s.084.389.191.389.19-.173.19-.389-.086-.388-.19-.388Zm.037-3.058c-.105,0-.191.174-.191.389s.086.387.191.387.191-.174.191-.387-.084-.389-.191-.389Zm.89-1.818c-.105,0-.191.174-.191.387s.086.389.191.389.19-.174.19-.389-.084-.387-.19-.387Zm.231,6.579c-.1,0-.19.174-.19.39s.086.387.19.387.191-.174.191-.387-.084-.39-.191-.39Zm-.1-4.68c-.329,0-.6.742-.6,1.659s.268,1.659.6,1.659.594-.742.594-1.659-.267-1.659-.594-1.659Zm-.245-3.574c-.958,0-1.736,2.406-1.736,5.371s.778,5.372,1.736,5.372,1.736-2.406,1.736-5.372-.778-5.371-1.736-5.371Zm.488-4.717a1.911,1.911,0,0,0-1.4.234c-1.021.623-2.488,4.22-2.666,5.82a40.648,40.648,0,0,0-.088,5.11c.045,1.021.178,4.8,1.377,6.841a5.625,5.625,0,0,0,1.811,2.067m-9.993-12.8c-.04,1.173-.07,2.567-.047,3.808.005.338.016.664.03.973a14.363,14.363,0,0,0,1.38,6.2,3.556,3.556,0,0,0,2.905,1.817,39.319,39.319,0,0,0,5.724,0,5.712,5.712,0,0,0,.855-.157c1.208-.335,2.783-3.442,2.977-6.618.056-.92.1-2.258.06-3.728a22.734,22.734,0,0,0-1.081-7.245,4.778,4.778,0,0,0-1.846-2.323,5.9,5.9,0,0,0-2.78-.8c-.019,0-.036,0-.054,0m10.42-9.791c-.086,0-.155.131-.155.29s.069.29.155.29.154-.131.154-.29-.07-.29-.154-.29Zm-16.918,5.006c-.116,0-.212.182-.212.4s.1.406.212.406.213-.182.213-.406-.1-.4-.213-.4Zm15.1-5.926.151,2.482a.2.2,0,0,0,.215.185l1.691-.166a.35.35,0,0,0,.316-.372l-.131-2.016a.337.337,0,0,0-.335-.315h-1.719a.19.19,0,0,0-.189.2ZM188.2,130.8v.011l-.014.5-.019.572-.373.019.747,1.68h.894a.764.764,0,0,0,.168-.318c.036-.131-.02-1.214-.065-1.975-.009-.165-.019-.311-.028-.433,0-.013,0-.024,0-.037m-.663.12a2.031,2.031,0,0,0,.664-.083c.042-.011.079-.024.112-.035l.017.15a.561.561,0,0,0,.563.5l2.6-.025a.812.812,0,0,0,.55-.219c.013-.011.026-.025.039-.037a.838.838,0,0,0,.229-.6,22.2,22.2,0,0,0,.033-2.325,21.934,21.934,0,0,0-.219-2.384.637.637,0,0,0-.658-.613l-2.664.088a.633.633,0,0,0-.611.64l.048,3.579-1.043.028a.346.346,0,0,0-.337.344v.859l.033.011a2.11,2.11,0,0,0,.645.125Zm-42.348-.982a18.545,18.545,0,0,0-.432-2.678.5.5,0,0,0-.524-.39l-1.629.106a.875.875,0,0,0-.817.865c0,.645.019,1.337.084,2.071.053.608.128,1.182.217,1.717m1.663-4.1s.312,1.6.344,2.13.032.752.032.752l.816-.025h0m66.328-3.967-.662-.017.77,3.017.117.463.874.014m-9.582,5.908.031.505a.386.386,0,0,0,.4.361l.717-.026a.394.394,0,0,0,.379-.407l-.014-.477-1.514.045Zm-9.161.521v.52a.41.41,0,0,0,.416.41l.941-.015a.373.373,0,0,0,.367-.384l-.016-.585-1.707.054Zm19.24,12.412a1.974,1.974,0,0,0,.624-.391,6.828,6.828,0,0,0,.8-1.891,1.3,1.3,0,0,0-.176-.858m-.082-.419a2.52,2.52,0,0,0-.75.316c-.219.183-.474.984-.838,1.53s-.874.984-.874,1.168a1.36,1.36,0,0,0,.054.355m-30.59-18.207c-6.855-.249-14.015-.4-21.812-.249-4.575.09-8.953.324-13.116.664m-14.108,14.2s.136,1.205,1.066,1.308,10.631.06,10.631.06l10.2-.026c.343,0,.756-.584.756-.792s-.034-.55-.034-.55Zm-.139-1.582.034.86,22.778-.035v-.859l-22.812.034Zm-.137-1.652.034.827,22.846-.036.069-.825-22.949.033Zm-.1-1.616.07.858,22.915-.136.034-.827-23.019.1ZM132.8,138.6l.033.765,23.225-.139.069-.748L132.8,138.6Zm35.621,4h-3.958m3.958-2.954a.484.484,0,0,0-.483-.485h-3.118a.357.357,0,0,0-.357.36v4.808a.491.491,0,0,0,.49.49h2.409a1.059,1.059,0,0,0,1.059-1.059v-4.114Zm-42.808,3.075-1.347.02-.486.008m1.834-2.818a.346.346,0,0,0-.346-.345h-1.117a.12.12,0,0,0-.025,0,.37.37,0,0,0-.348.37v3.994a.634.634,0,0,0,.634.634h.891a.31.31,0,0,0,.31-.31v-4.344Zm3.216-.364a2.581,2.581,0,1,0,2.241,2.556,2.415,2.415,0,0,0-2.241-2.556Zm32.121-.554a2.923,2.923,0,1,0,2.551,2.9,2.743,2.743,0,0,0-2.551-2.9Zm-4.205-.944s-12.242.114-13.83.114-10.986.116-10.986.116v.011c.007.249.117,4.523.222,6.178a3.984,3.984,0,0,0,.21,1.044c.033.092.069.184.108.271a1.56,1.56,0,0,0,.412.6,3.079,3.079,0,0,0,1.757.4c.965.056,19.391,0,20.3,0a1.918,1.918,0,0,0,1.809-1.521m-30.473,1.781,3.788-.058a1.057,1.057,0,0,1,.724.275l.715.65a1.38,1.38,0,0,0,.889.359c2.152.064,10.459.3,12.23.3,1.8,0,10.908-.346,13.051-.428a1.306,1.306,0,0,0,.8-.311l.329-.28a2.11,2.11,0,0,1,1.386-.5l6.667.056m-38.264-12.477h0l-1.337.669-.623,1.519-.109.137-.518.666.073.72m42.084-1.478s-3.253,0-3.839-.045l-.675,0-37.125.135-1.477.005m-.911,1.4,1.943-.014,5.863-.049m.432,7.221h-7.842m32.226-7.462v7.462h10.784a1.5,1.5,0,0,0,1.5-1.5v-5.62a.342.342,0,0,0-.341-.342H156.74Zm38.363-14.94c.335,1.512,1.343,7.96,1.343,7.96l7.254-.135a1.062,1.062,0,0,0-.019-.114c-.187-.945-1.683-7.207-2.029-8.248-.294-.879-.947-2.668-1.2-3.369a.494.494,0,0,0-.428-.321c-1.119-.077-4.711-.225-5.7-.264a.2.2,0,0,0-.2.24c.043.187.111.468.189.8.237,1.008.585,2.511.8,3.445Zm-1.749,8.093,1.882-.031s-.705-6.314-1.006-7.725c-.247-1.156-.947-3.75-1.19-4.654a.444.444,0,0,0-.413-.326c-.917-.025-3.472-.092-3.94-.092-.571,0-1.174.3-1.242.806s-.941,11.25-.941,11.25l.606.873,1.078-.019m1.6-.026-.243,0m15.388-.94a.763.763,0,0,0,.726.547l5.6.035a1.1,1.1,0,0,0,.909-.462,1.157,1.157,0,0,0,.17-.937c-.009-.037-.017-.064-.02-.073-.395-1.582-.9-3.445-1.549-5.247-.453-1.257-.93-2.431-1.417-3.523a1.355,1.355,0,0,0-1.178-.911l-5.678-.426a.544.544,0,0,0-.563.7l1.174,4.029,1.829,6.27Zm.354-12.787h0c-2.789-.277-9.08-.885-11.679-1.01a69.31,69.31,0,0,0-7.479.162m23.231,2.157-8.822-.611M166.011,129.6c6.424-.009,17.778.011,17.778.011s.715-3.5.786-4.218.429-6.08.429-6.366.144-1.143-.641-1.143a121.251,121.251,0,0,0-15.735-.287c-10.515.359-14.733,1.36-14.733,1.36-1.145.428-7.082,11.371-7.082,11.371l.915-.048m18.282-.679c-.268,0-.526,0-.775,0h-.168c-1.195,0-2.151.005-2.732.011-2.073.02-9.991.424-13.649.617l-.956.051M203.042,145.4l0,0c.053-.18.109-.363.17-.55a24.753,24.753,0,0,1,1.218-3.053,2.653,2.653,0,0,1,1.957-1.221.169.169,0,0,0,.142-.174c-.026-.619-.125-2.918-.178-3.932a14.658,14.658,0,0,0-1.178-3.964A3.629,3.629,0,0,0,204,130.957l-.026-.144c-.134-.765-.778-4.353-1.274-6.173-.035-.127-.072-.265-.116-.41-.636-2.16-2.052-5.971-2.052-5.971l-6.443-.37-.866-.064m3.24,32.641c.384-1.182,1.12-3.825,1.22-4.519.123-.868.062-5.947.062-7.123a22.576,22.576,0,0,0-.435-4.46,17.664,17.664,0,0,0-1.176-3.036c.061-1.052-1.8-10.281-2.045-11.458l-.028-.123a6.02,6.02,0,0,0-.838-1.921s-2.849-.185-4.089-.185-1.818.32-1.919.868c-.139.746-.434,3.653-.619,5.7s-.992,7.989-.992,7.989,1.053,3.779,1.115,4.647.062,9.29,0,10.466a24.07,24.07,0,0,1-1.322,4.4m-1.291,2.556,10.989-1.338,2.559-.312a.811.811,0,0,0,.548-.313l.067-.088.047-.062.031-.039a.181.181,0,0,0-.165-.292l-13.923,1.695a.522.522,0,0,0-.451.434.189.189,0,0,0,0,.058.271.271,0,0,0,.3.257Zm16.682-4.374a2.644,2.644,0,0,1-.256.08c-.15.037-1.811.236-4.069.494-1.693.195-3.721.424-5.695.645s-3.892.434-5.372.6c-.478.054-.9.1-1.246.143a1.092,1.092,0,0,1-1.215-1.19c.051-.523.116-1.129.192-1.682a15.026,15.026,0,0,0-.558-6.007,5.231,5.231,0,0,0-3.406-3.594,10.272,10.272,0,0,0-5.638.5m33.6-.679a4.821,4.821,0,0,1,1.884.4,4.449,4.449,0,0,1,1.09,1.686c.081.242.2.742.3,1.152a.705.705,0,0,0,.789.537l4.514-.658m-17.441,9.905c.06-.025.122-.051.18-.079a4.062,4.062,0,0,0,1.82-1.419c.142-.208.321-.494.52-.825a36.427,36.427,0,0,0,2.024-3.908c.065-.167.145-.363.232-.582l0,0c.07-.173.145-.355.225-.547.552-1.3,1.362-2.952,2.2-3.3a4.353,4.353,0,0,1,2.958-.238c.887.238,1.656,1.776,1.656,2.722,0,.886.1,4.111-.566,5.535l1.306-.379c1.251-.367,2.112-.621,2.112-.621a2.765,2.765,0,0,0,1.265.542c.662.06,1.5-.963,1.805-1.505a2.905,2.905,0,0,0,.239-2.1c-.234-.471-.873-.309-.9-.3a10.515,10.515,0,0,0,.6-1.925,2.956,2.956,0,0,0-.239-.964c.119-.3.3-4.33.3-5.6a7.536,7.536,0,0,0-.123-1.47,10.242,10.242,0,0,0-.659-2.019,5.3,5.3,0,0,0-1.265-1.984,6.762,6.762,0,0,1-.278-1.325c-.008-.058-.014-.117-.023-.179a27.561,27.561,0,0,0-1.078-3.3c-.961-2.617-2.247-5.855-2.471-6.269a13.285,13.285,0,0,0-.759-1.3,1.832,1.832,0,0,0-.8-.746c-.242-.073-1.6-.3-3.267-.563h0c-2.482-.391-5.665-.857-6.959-1-2.166-.242-11.068-1.023-18.529-1.023a144.408,144.408,0,0,0-16.125.841c-4.211.424-8.235,1.147-9.535,1.9s-3.228,3.607-4.317,5.536c-.8,1.4-2.412,4.478-3.313,6.141-.089.167-.172.316-.245.451h0c-.2.371-.341.612-.384.662a21.747,21.747,0,0,1-2.471.578c-3.87.806-11.284,2.238-14.819,3h0a15.743,15.743,0,0,0-1.953.486,8.291,8.291,0,0,0-1.594,1.845,1.73,1.73,0,0,0-.839.672,2.558,2.558,0,0,0-.072.724c-.008.326-.006.741,0,1.213m59.68,14.418h-.008l-1.407.182-.9.116a43.39,43.39,0,0,0,.616-6.906,10.971,10.971,0,0,0-.973-4.145,3.092,3.092,0,0,0-2.813-1.637,8.392,8.392,0,0,0-4.606,1.023,5.479,5.479,0,0,0-1.522,2.138,30.675,30.675,0,0,0-1.394,3.541c-.2.614-.819,2.253-1.33,2.253-.181,0-.524.005-.89.014m-43.3-.133c-.008-.213-.011-.577.014-1.1a5.008,5.008,0,0,0-.5-2.641,3.713,3.713,0,0,1-.264-1.177c-.037-.281-.073-.6-.107-.945m13.415,5.905c-5.258-.005-9.879-.019-12.554-.041-.4,0-.758-.008-1.066-.011l-.455-.006a.906.906,0,0,0-.92.907v2.368a1.186,1.186,0,0,0,1.188,1.187H137.71m9.692-4.4c7.212,0,14.224,0,18.194-.008l2.615,0a.711.711,0,0,1,.714.713v1.9a1.8,1.8,0,0,1-1.8,1.8H147.562" transform="translate(-122.649 -115.36)" fill="none" stroke="#fbffff" stroke-linecap="round" stroke-linejoin="round" stroke-width="0.418"/>
      </g>
    </g>
  </g>
</svg>
