<svg xmlns="http://www.w3.org/2000/svg" xmlns:xlink="http://www.w3.org/1999/xlink" width="941.7" height="298.4" viewBox="0 0 941.7 298.4">
  <defs>
    <filter id="パス_976" x="0" y="0" width="941.7" height="298.4" filterUnits="userSpaceOnUse">
      <feOffset input="SourceAlpha"/>
      <feGaussianBlur stdDeviation="7.5" result="blur"/>
      <feFlood flood-opacity="0.161"/>
      <feComposite operator="in" in2="blur"/>
      <feComposite in="SourceGraphic"/>
    </filter>
  </defs>
  <g transform="matrix(1, 0, 0, 1, 0, 0)" filter="url(#パス_976)" style="mix-blend-mode: multiply;isolation: isolate">
    <path id="パス_976-2" data-name="パス 976" d="M132.3-177.45H96.6v-8.05q0-12.25-5.775-21.175T71.4-215.6q-7.35,0-11.9,2.8a23.468,23.468,0,0,0-7.35,7,29.6,29.6,0,0,0-3.85,10.325A67.409,67.409,0,0,0,47.25-183.4a118.337,118.337,0,0,0,.525,12.25A23.255,23.255,0,0,0,50.4-162.4a19.462,19.462,0,0,0,6.125,6.65,56.268,56.268,0,0,0,11.025,5.6l27.3,10.85q11.9,4.55,19.25,10.675a46.148,46.148,0,0,1,11.55,14.175,66.258,66.258,0,0,1,5.25,19.075,188.763,188.763,0,0,1,1.4,24.325,128.264,128.264,0,0,1-3.15,29.225A61.565,61.565,0,0,1,119-18.9,50.382,50.382,0,0,1,99.75-3.5Q87.85,2.1,70.7,2.1A63.55,63.55,0,0,1,46.55-2.45,57.441,57.441,0,0,1,27.3-15.05,61.318,61.318,0,0,1,14.525-33.775,56.858,56.858,0,0,1,9.8-57.05v-13.3H45.5v11.2a29.161,29.161,0,0,0,5.775,17.675Q57.05-33.6,70.7-33.6q9.1,0,14.175-2.625A18.844,18.844,0,0,0,92.75-43.75a27.636,27.636,0,0,0,3.325-11.725Q96.6-62.3,96.6-70.7a150.863,150.863,0,0,0-.7-16.1,27.707,27.707,0,0,0-2.8-10.15,19.677,19.677,0,0,0-6.475-6.3A82.974,82.974,0,0,0,75.95-108.5L50.4-119q-23.1-9.45-30.975-25.025T11.55-183.05a90.534,90.534,0,0,1,3.85-26.6,60.5,60.5,0,0,1,11.55-21.7,52.935,52.935,0,0,1,18.725-14.525Q57.05-251.3,72.8-251.3a59.228,59.228,0,0,1,24.325,4.9A62.66,62.66,0,0,1,116.2-233.45q16.1,16.8,16.1,38.5Zm140,106.4v15.4a55.489,55.489,0,0,1-4.375,21.875A60.512,60.512,0,0,1,255.85-15.4,58.214,58.214,0,0,1,237.825-2.625,52.768,52.768,0,0,1,215.6,2.1,79.923,79.923,0,0,1,194.95-.7a48.854,48.854,0,0,1-18.9-9.8,54.192,54.192,0,0,1-13.825-18.025Q156.8-39.55,156.8-56.7V-193.9a60.694,60.694,0,0,1,4.2-22.75,53.543,53.543,0,0,1,11.9-18.2,55.321,55.321,0,0,1,18.375-12.075A61.739,61.739,0,0,1,214.9-251.3q25.2,0,40.95,16.45a58.443,58.443,0,0,1,12.075,19.075A64.421,64.421,0,0,1,272.3-191.8v14H236.6v-11.9a28.9,28.9,0,0,0-5.95-18.2,19.274,19.274,0,0,0-16.1-7.7q-13.3,0-17.675,8.225T192.5-186.55v127.4q0,10.85,4.725,18.2T214.2-33.6a25.924,25.924,0,0,0,7.525-1.225,22.45,22.45,0,0,0,7.525-4.025,21.357,21.357,0,0,0,5.25-7.7,31.2,31.2,0,0,0,2.1-12.25V-71.05ZM302.4,0V-249.2h35.7V0Zm70.35,0V-249.2h106.4v33.6h-70.7v73.15h61.6v33.6h-61.6V-35.7h70.7V0Zm128.1,0V-249.2h34.3l53.9,150.15h.7V-249.2h35.7V0h-33.6l-54.6-149.8h-.7V0Zm270.2-71.05v15.4a55.488,55.488,0,0,1-4.375,21.875A60.512,60.512,0,0,1,754.6-15.4,58.214,58.214,0,0,1,736.575-2.625,52.768,52.768,0,0,1,714.35,2.1,79.923,79.923,0,0,1,693.7-.7a48.853,48.853,0,0,1-18.9-9.8,54.191,54.191,0,0,1-13.825-18.025Q655.55-39.55,655.55-56.7V-193.9a60.694,60.694,0,0,1,4.2-22.75,53.542,53.542,0,0,1,11.9-18.2,55.321,55.321,0,0,1,18.375-12.075A61.738,61.738,0,0,1,713.65-251.3q25.2,0,40.95,16.45a58.443,58.443,0,0,1,12.075,19.075A64.42,64.42,0,0,1,771.05-191.8v14h-35.7v-11.9a28.9,28.9,0,0,0-5.95-18.2,19.274,19.274,0,0,0-16.1-7.7q-13.3,0-17.675,8.225T691.25-186.55v127.4q0,10.85,4.725,18.2T712.95-33.6a25.925,25.925,0,0,0,7.525-1.225A22.45,22.45,0,0,0,728-38.85a21.357,21.357,0,0,0,5.25-7.7,31.2,31.2,0,0,0,2.1-12.25V-71.05ZM800.1,0V-249.2H906.5v33.6H835.8v73.15h61.6v33.6H835.8V-35.7h70.7V0Z" transform="translate(12.7 273.8)" fill="#0052aa" opacity="0.108"/>
  </g>
</svg>
