<svg xmlns="http://www.w3.org/2000/svg" width="117.288" height="559.224" viewBox="0 0 117.288 559.224">
  <path id="パス_990" data-name="パス 990" d="M60.264-32.886v7.128a25.683,25.683,0,0,1-2.025,10.125A28.009,28.009,0,0,1,52.65-7.128a26.945,26.945,0,0,1-8.343,5.913A24.424,24.424,0,0,1,34.02.972a36.993,36.993,0,0,1-9.558-1.3A22.612,22.612,0,0,1,15.714-4.86a25.083,25.083,0,0,1-6.4-8.343Q6.8-18.306,6.8-26.244v-63.5a28.093,28.093,0,0,1,1.944-10.53,24.783,24.783,0,0,1,5.508-8.424,25.606,25.606,0,0,1,8.505-5.589A28.576,28.576,0,0,1,33.7-116.316q11.664,0,18.954,7.614a27.051,27.051,0,0,1,5.589,8.829,29.817,29.817,0,0,1,2.025,11.1v6.48H43.74V-87.8a13.375,13.375,0,0,0-2.754-8.424,8.921,8.921,0,0,0-7.452-3.564q-6.156,0-8.181,3.807a20.4,20.4,0,0,0-2.025,9.639v58.968a15.272,15.272,0,0,0,2.187,8.424q2.187,3.4,7.857,3.4a12,12,0,0,0,3.483-.567,10.391,10.391,0,0,0,3.483-1.863,9.885,9.885,0,0,0,2.43-3.564,14.44,14.44,0,0,0,.972-5.67v-5.67ZM73.71,0V-115.344H90.234v49.41h20.412v-49.41H127.17V0H110.646V-51.354H90.234V0Zm69.012,0V-115.344H191.97v15.552H159.246v33.858h28.512v15.552H159.246v33.858H191.97V0Zm59.94,0V-115.344h15.876L239.76-54.27h.324l21.06-61.074h16.038V0H260.658V-70.146h-.324L243.972-20.574H235.71l-16.2-49.572h-.324V0ZM293.22,0V-115.344h16.524V0Zm86.022-82.134H362.718V-85.86a17.643,17.643,0,0,0-2.673-9.8q-2.673-4.131-8.991-4.131a10.4,10.4,0,0,0-5.508,1.3,10.862,10.862,0,0,0-3.4,3.24,13.7,13.7,0,0,0-1.782,4.779,31.2,31.2,0,0,0-.486,5.589,54.768,54.768,0,0,0,.243,5.67,10.763,10.763,0,0,0,1.215,4.05,9.008,9.008,0,0,0,2.835,3.078,26.044,26.044,0,0,0,5.1,2.592l12.636,5.022a31.33,31.33,0,0,1,8.91,4.941,21.36,21.36,0,0,1,5.346,6.561,30.668,30.668,0,0,1,2.43,8.829,87.375,87.375,0,0,1,.648,11.259,59.367,59.367,0,0,1-1.458,13.527,28.5,28.5,0,0,1-4.7,10.611,23.32,23.32,0,0,1-8.91,7.128A31.429,31.429,0,0,1,350.73.972a29.415,29.415,0,0,1-11.178-2.106,26.587,26.587,0,0,1-8.91-5.832,28.382,28.382,0,0,1-5.913-8.667,26.317,26.317,0,0,1-2.187-10.773v-6.156h16.524v5.184a13.5,13.5,0,0,0,2.673,8.181q2.673,3.645,8.991,3.645a14.5,14.5,0,0,0,6.561-1.215,8.722,8.722,0,0,0,3.645-3.483,12.791,12.791,0,0,0,1.539-5.427q.243-3.159.243-7.047a69.827,69.827,0,0,0-.324-7.452,12.825,12.825,0,0,0-1.3-4.7,9.108,9.108,0,0,0-3-2.916,38.406,38.406,0,0,0-4.941-2.43l-11.826-4.86Q330.642-59.454,327-66.663t-3.645-18.063a41.9,41.9,0,0,1,1.782-12.312,28,28,0,0,1,5.346-10.044,24.5,24.5,0,0,1,8.667-6.723,28.928,28.928,0,0,1,12.555-2.511,27.414,27.414,0,0,1,11.259,2.268,29,29,0,0,1,8.829,5.994,25.029,25.029,0,0,1,7.452,17.82ZM402.408,0V-99.792H383.292v-15.552h54.756v15.552H418.932V0Zm59.454-99.792v35.964h9.4a16.626,16.626,0,0,0,6.966-1.215,9.468,9.468,0,0,0,4.05-3.483,15.835,15.835,0,0,0,1.782-5.589,53.739,53.739,0,0,0,.486-7.695,53.74,53.74,0,0,0-.486-7.7,15.4,15.4,0,0,0-1.944-5.751q-3.078-4.536-11.664-4.536ZM445.338,0V-115.344h26.568q29.16,0,29.16,33.858,0,10.206-3.159,17.334t-11.1,11.5L504.63,0h-17.5l-15.39-49.248h-9.882V0Zm81.486,0V-48.762l-22.68-66.582h17.5L534.924-69.5h.324l13.284-45.846h17.5l-22.68,66.582V0Z" transform="translate(0.972 -6.804) rotate(90)" fill="#03a8e5" opacity="0.108" style="mix-blend-mode: multiply;isolation: isolate"/>
</svg>
