<svg xmlns="http://www.w3.org/2000/svg" xmlns:xlink="http://www.w3.org/1999/xlink" width="70.227" height="72.783" viewBox="0 0 70.227 72.783">
  <defs>
    <clipPath id="clip-path">
      <rect id="長方形_37" data-name="長方形 37" width="70.227" height="72.783" fill="none"/>
    </clipPath>
  </defs>
  <g id="PC絵" opacity="0.665">
    <g id="グループ_69" data-name="グループ 69" transform="translate(0 0)">
      <g id="グループ_68" data-name="グループ 68" clip-path="url(#clip-path)">
        <path id="パス_343" data-name="パス 343" d="M92.439,181.631l-7.944,6.784m11.144-13.05-6.169,5.078m-1.536,1.264-1.247,1.047m-.782.609-8.134,6.709m13.569,35.877-2.486-11.3a.318.318,0,0,0-.313-.264H59.684a.318.318,0,0,0-.313.264l-2.487,11.3a.318.318,0,0,0,.313.37H91.026a.317.317,0,0,0,.313-.37Zm-44.383-32.4h54.2m.822,18.772L98.945,198.63a.952.952,0,0,0-.93-.746H50.1a.951.951,0,0,0-.93.746l-3.036,13.695a.952.952,0,0,0,.93,1.158h53.987a.952.952,0,0,0,.93-1.158ZM42.919,227.7h62.966m-6.271-31.737H48.5a1.766,1.766,0,0,0-1.72,1.355l-7.548,27.935a2.6,2.6,0,0,0,2.529,3.209h64.588a2.6,2.6,0,0,0,2.529-3.209l-7.548-27.935a1.766,1.766,0,0,0-1.72-1.355Zm.584.1a2.452,2.452,0,0,0,.864-1.676l.1-.828,1.036-34.783a2.458,2.458,0,0,0-2.451-2.662H48.354A2.458,2.458,0,0,0,45.9,158.77l1.053,34.783.1.828a2.451,2.451,0,0,0,.863,1.676m.777-2.5-1.07-33.737a.729.729,0,0,1,.73-.768h51.39a.729.729,0,0,1,.73.768l-1.053,33.737" transform="translate(-38.944 -155.891)" fill="none" stroke="#fbffff" stroke-linecap="round" stroke-linejoin="round" stroke-width="0.51"/>
      </g>
    </g>
    <path id="パス_344" data-name="パス 344" d="M97.864,156.786H53.771m-3.114,0H49.629a2.018,2.018,0,0,0-2,2.25l.1.867" transform="translate(-40.208 -155.993)" fill="none" stroke="#fbffff" stroke-linecap="round" stroke-linejoin="round" stroke-width="0.17"/>
    <path id="パス_345" data-name="パス 345" d="M54.23,206.6l.1-.558a.227.227,0,0,0-.226-.267h-2.6a.229.229,0,0,0-.225.182l-.116.557a.228.228,0,0,0,.225.272H54a.229.229,0,0,0,.226-.186Zm37.256-.071-.077-.557a.229.229,0,0,0-.228-.2h-2.6a.227.227,0,0,0-.228.252l.061.557a.228.228,0,0,0,.228.2h2.617a.228.228,0,0,0,.228-.257Zm-3.385.007-.06-.558a.229.229,0,0,0-.229-.2h-2.6a.228.228,0,0,0-.229.245l.045.558a.229.229,0,0,0,.23.208h2.617a.229.229,0,0,0,.23-.25Zm-3.386.006-.044-.558a.229.229,0,0,0-.229-.209h-2.6a.228.228,0,0,0-.23.239l.029.557a.228.228,0,0,0,.23.215h2.619a.228.228,0,0,0,.23-.244Zm-3.386.007L81.3,206a.229.229,0,0,0-.23-.216h-2.6a.229.229,0,0,0-.23.232l.013.558a.228.228,0,0,0,.23.221H81.1a.228.228,0,0,0,.23-.237Zm-3.386.006L77.932,206a.229.229,0,0,0-.23-.223H75.1a.228.228,0,0,0-.23.225l0,.558a.228.228,0,0,0,.23.228h2.619a.229.229,0,0,0,.23-.231Zm-3.386.007,0-.558a.228.228,0,0,0-.23-.229h-2.6a.228.228,0,0,0-.23.219l-.02.558a.227.227,0,0,0,.23.234h2.619a.229.229,0,0,0,.23-.225Zm-3.387.006.02-.557a.228.228,0,0,0-.23-.236h-2.6a.229.229,0,0,0-.23.213l-.035.558a.227.227,0,0,0,.229.241H70.94a.228.228,0,0,0,.23-.219Zm-3.387.007.037-.558a.228.228,0,0,0-.229-.242h-2.6a.229.229,0,0,0-.229.207l-.051.557a.227.227,0,0,0,.229.247h2.619a.228.228,0,0,0,.229-.212Zm-3.387.006.053-.557a.228.228,0,0,0-.229-.248h-2.6a.23.23,0,0,0-.229.2l-.067.558a.228.228,0,0,0,.229.253h2.617a.229.229,0,0,0,.229-.206Zm-3.388.007.069-.558a.228.228,0,0,0-.228-.254h-2.6a.229.229,0,0,0-.227.194l-.083.558a.227.227,0,0,0,.228.259h2.615a.228.228,0,0,0,.228-.2Zm-3.388.006.085-.557a.228.228,0,0,0-.227-.261h-2.6a.229.229,0,0,0-.227.188l-.1.557a.227.227,0,0,0,.226.266h2.614a.229.229,0,0,0,.227-.193Zm37.252-.07-.092-.558a.231.231,0,0,0-.228-.19h-2.6a.228.228,0,0,0-.227.258l.077.558a.228.228,0,0,0,.227.2h2.615a.228.228,0,0,0,.227-.263Zm4.971-.009-.116-.557a.229.229,0,0,0-.225-.182H95.347a.227.227,0,0,0-.226.264l.093.557a.229.229,0,0,0,.227.19h4.176a.227.227,0,0,0,.225-.272ZM55.49,209.007l.294-1.763a.235.235,0,0,0-.235-.272H51.268a.237.237,0,0,0-.233.187l-.365,1.763a.235.235,0,0,0,.233.281h4.353a.237.237,0,0,0,.235-.2ZM58.879,209l.244-1.763a.235.235,0,0,0-.236-.265H56.38a.237.237,0,0,0-.235.2l-.289,1.763a.236.236,0,0,0,.235.272h2.553a.237.237,0,0,0,.236-.2Zm41.437-.078-.365-1.763a.238.238,0,0,0-.234-.187h-2.5a.236.236,0,0,0-.234.276l.321,1.763a.237.237,0,0,0,.234.193h2.55a.236.236,0,0,0,.233-.281Zm-3.451.006-.315-1.763a.236.236,0,0,0-.234-.193H93.809a.235.235,0,0,0-.235.269L93.843,209a.238.238,0,0,0,.236.2h2.552a.236.236,0,0,0,.234-.276Zm-3.451.007-.264-1.763a.237.237,0,0,0-.236-.2H90.406a.236.236,0,0,0-.236.263L90.389,209a.237.237,0,0,0,.236.207h2.554a.237.237,0,0,0,.236-.269Zm-3.452.006-.213-1.763a.237.237,0,0,0-.236-.206H87a.236.236,0,0,0-.237.256l.168,1.763a.237.237,0,0,0,.236.213h2.556a.237.237,0,0,0,.236-.263Zm-3.452.007-.162-1.763a.236.236,0,0,0-.236-.213H83.6a.235.235,0,0,0-.237.249l.117,1.763a.236.236,0,0,0,.237.219h2.556a.237.237,0,0,0,.237-.256Zm-3.453.007-.111-1.763a.236.236,0,0,0-.237-.219H80.2a.236.236,0,0,0-.237.243l.066,1.762a.237.237,0,0,0,.238.226H82.82a.236.236,0,0,0,.237-.249Zm-3.453.007-.06-1.763a.236.236,0,0,0-.238-.226H76.793a.235.235,0,0,0-.237.236l.015,1.763a.237.237,0,0,0,.238.233h2.557a.237.237,0,0,0,.238-.242Zm-3.454.006-.009-1.762a.236.236,0,0,0-.238-.233H73.39a.237.237,0,0,0-.238.23l-.035,1.763a.236.236,0,0,0,.238.239h2.557a.236.236,0,0,0,.238-.236Zm-3.454.007.042-1.763a.236.236,0,0,0-.237-.239H69.988a.236.236,0,0,0-.237.223l-.086,1.763a.236.236,0,0,0,.237.246H72.46a.236.236,0,0,0,.237-.23Zm-3.454.007.092-1.763a.236.236,0,0,0-.237-.246H66.586a.237.237,0,0,0-.237.216l-.137,1.763a.236.236,0,0,0,.237.253h2.556a.237.237,0,0,0,.238-.223Zm-3.454.007.143-1.763a.236.236,0,0,0-.237-.253H63.183a.236.236,0,0,0-.236.209l-.188,1.763A.237.237,0,0,0,63,209.2h2.556a.237.237,0,0,0,.237-.216Zm-3.455.006.194-1.762a.235.235,0,0,0-.236-.259h-2.51a.236.236,0,0,0-.236.2l-.238,1.763a.235.235,0,0,0,.235.265H62.1a.237.237,0,0,0,.236-.21Zm-9.114,2.578.344-1.89a.218.218,0,0,0-.218-.257h-2.6a.221.221,0,0,0-.217.175l-.391,1.89a.218.218,0,0,0,.217.261H53a.22.22,0,0,0,.218-.179Zm3.525-.006.29-1.89a.219.219,0,0,0-.219-.251h-2.6a.221.221,0,0,0-.219.18l-.338,1.89a.219.219,0,0,0,.219.256h2.65a.22.22,0,0,0,.219-.185Zm3.525-.006.235-1.89a.219.219,0,0,0-.219-.245h-2.6a.22.22,0,0,0-.219.186l-.283,1.89a.219.219,0,0,0,.219.25h2.652a.22.22,0,0,0,.22-.191Zm3.524-.006.181-1.89a.22.22,0,0,0-.221-.239h-2.6a.221.221,0,0,0-.22.192l-.229,1.89a.22.22,0,0,0,.22.244h2.653a.22.22,0,0,0,.22-.2Zm3.524-.006.126-1.891a.219.219,0,0,0-.22-.232H64.617a.221.221,0,0,0-.221.2l-.173,1.891a.219.219,0,0,0,.22.237H67.1a.22.22,0,0,0,.221-.2Zm3.523-.006.072-1.891a.22.22,0,0,0-.221-.226H68.085a.221.221,0,0,0-.221.2l-.12,1.89a.219.219,0,0,0,.221.231H70.62a.22.22,0,0,0,.221-.209Zm3.523-.007.018-1.89a.22.22,0,0,0-.221-.22H71.553a.22.22,0,0,0-.221.211l-.065,1.89a.219.219,0,0,0,.221.225h2.656a.219.219,0,0,0,.221-.216Zm3.523-.006-.037-1.89a.221.221,0,0,0-.222-.214H75.022a.221.221,0,0,0-.222.217l-.01,1.891a.219.219,0,0,0,.221.219h2.655a.22.22,0,0,0,.222-.222Zm3.523-.006-.092-1.89a.219.219,0,0,0-.22-.208H78.49a.219.219,0,0,0-.221.223l.043,1.89a.22.22,0,0,0,.221.213H81.19a.22.22,0,0,0,.221-.228Zm3.523-.007-.146-1.89a.219.219,0,0,0-.22-.2H81.959a.22.22,0,0,0-.221.23l.1,1.89a.22.22,0,0,0,.221.207h2.655a.22.22,0,0,0,.221-.235Zm3.522-.006-.2-1.89a.22.22,0,0,0-.22-.2H85.429a.22.22,0,0,0-.221.236l.152,1.89a.221.221,0,0,0,.221.2h2.653a.219.219,0,0,0,.22-.241Zm3.522-.006-.255-1.89a.219.219,0,0,0-.219-.19H88.9a.219.219,0,0,0-.22.242l.207,1.89a.219.219,0,0,0,.219.195h2.653a.22.22,0,0,0,.22-.247ZM95.5,211.5l-.309-1.89a.221.221,0,0,0-.219-.184h-2.6a.219.219,0,0,0-.219.247l.261,1.89a.22.22,0,0,0,.219.189h2.651a.219.219,0,0,0,.219-.253Zm-43.828,8.595.407-2.236a.211.211,0,0,0-.21-.247H49.043a.213.213,0,0,0-.209.168l-.463,2.236a.211.211,0,0,0,.209.253h2.879a.214.214,0,0,0,.211-.173Zm3.737-.005.344-2.237a.212.212,0,0,0-.211-.242H52.713a.214.214,0,0,0-.211.173l-.4,2.237a.212.212,0,0,0,.211.247H55.2a.212.212,0,0,0,.211-.179Zm4.75-.008.262-2.236a.212.212,0,0,0-.212-.235H56.384a.212.212,0,0,0-.211.179l-.336,2.236a.211.211,0,0,0,.211.242h3.9a.213.213,0,0,0,.213-.186Zm4.882-.008.179-2.236a.212.212,0,0,0-.213-.227H61.049a.213.213,0,0,0-.213.187l-.255,2.236a.212.212,0,0,0,.213.234h4.03a.213.213,0,0,0,.213-.194Zm13.132-.02-.046-2.236a.212.212,0,0,0-.213-.207H65.846a.213.213,0,0,0-.213.195l-.171,2.236a.211.211,0,0,0,.213.226H77.956a.212.212,0,0,0,.213-.214Zm4.752-.008-.127-2.236a.213.213,0,0,0-.213-.2h-3.83a.212.212,0,0,0-.213.215l.053,2.236a.213.213,0,0,0,.214.206h3.9a.211.211,0,0,0,.213-.222Zm4.751-.008-.208-2.236a.213.213,0,0,0-.213-.191H83.424a.213.213,0,0,0-.213.223l.134,2.236a.211.211,0,0,0,.213.2h3.9a.212.212,0,0,0,.213-.23Zm3.733-.006-.271-2.236a.212.212,0,0,0-.212-.185H88.1a.211.211,0,0,0-.213.23l.214,2.236a.213.213,0,0,0,.213.191h2.885a.211.211,0,0,0,.212-.236Zm3.734-.006-.335-2.236a.213.213,0,0,0-.212-.179H91.767a.211.211,0,0,0-.212.236l.278,2.236a.213.213,0,0,0,.212.185h2.884a.211.211,0,0,0,.211-.242Zm3.733-.005-.4-2.237a.212.212,0,0,0-.21-.173H95.44a.211.211,0,0,0-.211.242l.342,2.237a.213.213,0,0,0,.212.179h2.881a.211.211,0,0,0,.21-.247Zm3.733-.006-.463-2.236a.212.212,0,0,0-.209-.168H99.112a.212.212,0,0,0-.21.247l.407,2.236a.212.212,0,0,0,.21.173h2.88a.211.211,0,0,0,.209-.253Zm-48.9-5.706.35-2.012a.209.209,0,0,0-.208-.244H50.194a.211.211,0,0,0-.208.167l-.417,2.013a.209.209,0,0,0,.207.251h3.719a.213.213,0,0,0,.209-.174Zm3.6-.005.293-2.013a.21.21,0,0,0-.21-.238H54.7a.211.211,0,0,0-.208.174l-.344,2.012a.21.21,0,0,0,.208.244H57.1a.212.212,0,0,0,.21-.179Zm3.6-.006.235-2.012a.21.21,0,0,0-.211-.233H58.246a.211.211,0,0,0-.21.179l-.286,2.013a.21.21,0,0,0,.21.238H60.7a.211.211,0,0,0,.21-.185Zm3.6-.006.177-2.012a.209.209,0,0,0-.21-.227H61.788a.212.212,0,0,0-.211.185l-.227,2.013a.21.21,0,0,0,.21.232H64.3a.21.21,0,0,0,.21-.191Zm3.6-.006.119-2.012a.21.21,0,0,0-.211-.221H65.331a.211.211,0,0,0-.211.191l-.17,2.013a.211.211,0,0,0,.212.226h2.744a.211.211,0,0,0,.211-.2Zm3.6-.006.061-2.012a.211.211,0,0,0-.212-.215H68.875a.21.21,0,0,0-.211.2l-.112,2.013a.21.21,0,0,0,.211.22h2.744a.211.211,0,0,0,.212-.2Zm3.6-.006,0-2.012a.21.21,0,0,0-.212-.209H72.419a.211.211,0,0,0-.212.2l-.054,2.013a.21.21,0,0,0,.212.214h2.744a.21.21,0,0,0,.212-.209Zm3.6-.005-.055-2.013a.211.211,0,0,0-.212-.2H75.963a.211.211,0,0,0-.212.209l0,2.013a.211.211,0,0,0,.212.208h2.744a.211.211,0,0,0,.212-.214Zm3.6-.006-.113-2.013a.21.21,0,0,0-.211-.2H79.507a.21.21,0,0,0-.211.215l.061,2.013a.211.211,0,0,0,.212.2h2.744a.21.21,0,0,0,.211-.22Zm3.6-.006-.171-2.013a.211.211,0,0,0-.211-.191H83.051a.211.211,0,0,0-.212.221l.12,2.013a.211.211,0,0,0,.212.2h2.744a.21.21,0,0,0,.211-.226Zm3.6-.006-.228-2.013a.211.211,0,0,0-.21-.185H86.595a.21.21,0,0,0-.21.227l.178,2.012a.211.211,0,0,0,.211.191h2.742a.209.209,0,0,0,.21-.232Zm3.6-.006-.287-2.013a.21.21,0,0,0-.209-.179H90.14a.21.21,0,0,0-.211.233l.236,2.012a.212.212,0,0,0,.211.185h2.741a.21.21,0,0,0,.209-.238Zm3.6-.006-.344-2.013a.211.211,0,0,0-.208-.173H93.685a.211.211,0,0,0-.21.239l.294,2.012a.21.21,0,0,0,.209.179h2.739a.21.21,0,0,0,.208-.244Zm-41.874,2.9.331-2.074a.234.234,0,0,0-.233-.27h-5.5a.235.235,0,0,0-.231.187l-.43,2.073a.235.235,0,0,0,.232.281h5.6a.237.237,0,0,0,.234-.2Zm3.685-.007.271-2.074a.234.234,0,0,0-.234-.263h-2.71a.236.236,0,0,0-.234.2l-.324,2.073a.235.235,0,0,0,.234.27H58.5a.236.236,0,0,0,.235-.2Zm3.685-.006.212-2.074a.235.235,0,0,0-.236-.257h-2.71a.235.235,0,0,0-.235.2l-.264,2.074a.235.235,0,0,0,.235.263h2.763a.235.235,0,0,0,.236-.21Zm3.684-.007.152-2.074a.234.234,0,0,0-.236-.25H63.311a.236.236,0,0,0-.236.211l-.2,2.074a.235.235,0,0,0,.236.256h2.765a.235.235,0,0,0,.236-.217Zm3.685-.007.092-2.074a.234.234,0,0,0-.236-.243H66.934a.235.235,0,0,0-.236.217l-.145,2.075a.235.235,0,0,0,.236.249h2.765a.236.236,0,0,0,.237-.224Zm3.683-.006.033-2.075a.236.236,0,0,0-.237-.236H70.557a.235.235,0,0,0-.236.224l-.086,2.074a.235.235,0,0,0,.236.243h2.766a.236.236,0,0,0,.236-.23Zm3.683-.007-.027-2.074a.235.235,0,0,0-.236-.23H74.18a.235.235,0,0,0-.236.23l-.026,2.074a.235.235,0,0,0,.236.236h2.766a.235.235,0,0,0,.236-.236Zm3.683-.007-.087-2.074a.235.235,0,0,0-.236-.224H77.8a.235.235,0,0,0-.236.236l.034,2.075a.236.236,0,0,0,.236.23H80.6a.236.236,0,0,0,.237-.243Zm3.682-.007-.146-2.074a.235.235,0,0,0-.236-.217H81.428a.236.236,0,0,0-.236.244l.094,2.073a.234.234,0,0,0,.236.224h2.766a.236.236,0,0,0,.236-.25Zm3.682-.006L88,215a.235.235,0,0,0-.236-.211H85.052a.235.235,0,0,0-.236.25l.154,2.074a.234.234,0,0,0,.236.217H87.97a.235.235,0,0,0,.236-.256Zm3.682-.007L91.622,215a.236.236,0,0,0-.235-.2H88.676a.234.234,0,0,0-.235.257l.213,2.074a.235.235,0,0,0,.236.21h2.763a.235.235,0,0,0,.235-.263Zm3.682-.007-.326-2.073a.236.236,0,0,0-.234-.2H92.3a.234.234,0,0,0-.235.263l.273,2.075a.236.236,0,0,0,.235.2h2.761a.234.234,0,0,0,.234-.27Zm6.423-.011-.429-2.073a.236.236,0,0,0-.232-.187H95.925a.234.234,0,0,0-.234.27l.333,2.074a.237.237,0,0,0,.234.2h5.5a.235.235,0,0,0,.232-.281Zm-.567-2.792-.971-4.689a.186.186,0,0,0-.185-.149H95.8a.187.187,0,0,0-.186.216l.327,1.956a.188.188,0,0,0,.186.156l.642,0a.187.187,0,0,1,.186.154l.424,2.428a.187.187,0,0,0,.185.154h3.681a.186.186,0,0,0,.184-.223Z" transform="translate(-40.321 -163.32)" fill="none" stroke="#fbffff" stroke-linecap="round" stroke-linejoin="round" stroke-width="0.289"/>
  </g>
</svg>
