<svg xmlns="http://www.w3.org/2000/svg" width="1154.814" height="142.628" viewBox="0 0 1154.814 142.628">
  <path id="パス_923" data-name="パス 923" d="M74.466-99.879H54.372v-4.531a21.455,21.455,0,0,0-3.25-11.919q-3.25-5.023-10.933-5.023a12.642,12.642,0,0,0-6.7,1.576,13.209,13.209,0,0,0-4.137,3.94,16.663,16.663,0,0,0-2.167,5.812,37.942,37.942,0,0,0-.591,6.8,66.607,66.607,0,0,0,.3,6.895,13.089,13.089,0,0,0,1.477,4.925,10.954,10.954,0,0,0,3.448,3.743,31.671,31.671,0,0,0,6.205,3.152l15.366,6.107A38.1,38.1,0,0,1,64.222-72.4a25.975,25.975,0,0,1,6.5,7.979,37.294,37.294,0,0,1,2.955,10.736,106.247,106.247,0,0,1,.788,13.692,72.194,72.194,0,0,1-1.773,16.449,34.652,34.652,0,0,1-5.713,12.9A28.358,28.358,0,0,1,56.145-1.97q-6.7,3.152-16.351,3.152A35.769,35.769,0,0,1,26.2-1.379,32.331,32.331,0,0,1,15.366-8.471,34.514,34.514,0,0,1,8.175-19.01a32,32,0,0,1-2.659-13.1V-39.6H25.61v6.3a16.413,16.413,0,0,0,3.251,9.948q3.25,4.432,10.934,4.432a17.631,17.631,0,0,0,7.979-1.477A10.607,10.607,0,0,0,52.2-24.625a15.555,15.555,0,0,0,1.872-6.6q.3-3.841.3-8.57a84.914,84.914,0,0,0-.394-9.062A15.6,15.6,0,0,0,52.4-54.569a11.076,11.076,0,0,0-3.645-3.546,46.7,46.7,0,0,0-6.009-2.955L28.368-66.98q-13-5.319-17.434-14.085T6.5-103.031A50.958,50.958,0,0,1,8.668-118a34.055,34.055,0,0,1,6.5-12.214,29.8,29.8,0,0,1,10.54-8.176,35.178,35.178,0,0,1,15.268-3.053,33.337,33.337,0,0,1,13.691,2.758A35.269,35.269,0,0,1,65.4-131.4q9.062,9.456,9.062,21.67ZM89.438,0V-140.264h30.141a44.807,44.807,0,0,1,14.578,2.167,27.968,27.968,0,0,1,11.426,7.683,30.045,30.045,0,0,1,7.092,12.9q1.97,7.387,1.97,20a99.184,99.184,0,0,1-1.084,15.957,33.362,33.362,0,0,1-4.629,12.214A29.33,29.33,0,0,1,137.9-58.608Q131-54.766,119.776-54.766H109.532V0Zm20.094-121.352v47.674h9.653q6.107,0,9.456-1.773a11.157,11.157,0,0,0,4.925-4.925,18,18,0,0,0,1.871-7.289q.3-4.334.3-9.653,0-4.925-.2-9.357a20.244,20.244,0,0,0-1.773-7.782,11.187,11.187,0,0,0-4.728-5.122q-3.152-1.773-9.062-1.773ZM169.617,0V-140.264h59.888v18.912H189.711v41.173h34.672v18.912H189.711v41.173h39.794V0ZM306.335-39.991v8.668a31.232,31.232,0,0,1-2.462,12.312,34.06,34.06,0,0,1-6.8,10.342A32.766,32.766,0,0,1,286.93-1.477a29.7,29.7,0,0,1-12.509,2.66A44.985,44.985,0,0,1,262.8-.394,27.5,27.5,0,0,1,252.16-5.91a30.5,30.5,0,0,1-7.782-10.146q-3.053-6.206-3.053-15.858v-77.224a34.162,34.162,0,0,1,2.364-12.805,30.137,30.137,0,0,1,6.7-10.244,31.138,31.138,0,0,1,10.342-6.8,34.75,34.75,0,0,1,13.3-2.462q14.184,0,23.049,9.259a32.9,32.9,0,0,1,6.8,10.736,36.26,36.26,0,0,1,2.462,13.495v7.88H286.241v-6.7a16.265,16.265,0,0,0-3.349-10.244,10.849,10.849,0,0,0-9.062-4.334q-7.486,0-9.948,4.63A24.811,24.811,0,0,0,261.419-105v71.708a18.572,18.572,0,0,0,2.659,10.244q2.66,4.137,9.555,4.137a14.592,14.592,0,0,0,4.236-.689,12.636,12.636,0,0,0,4.236-2.266,12.021,12.021,0,0,0,2.955-4.334,17.56,17.56,0,0,0,1.182-6.9v-6.895ZM323.277,0V-140.264h20.094V0Zm80.179-49.053-9.85-50.826h-.394l-9.85,50.826ZM353.812,0l31.323-140.264H401.88L433.2,0H413.109L407.2-30.141H379.816L373.906,0Zm89.241,0V-140.264h20.094v120.17h39.794V0Zm173.36-39.991v8.668a31.232,31.232,0,0,1-2.463,12.312,34.06,34.06,0,0,1-6.8,10.342,32.766,32.766,0,0,1-10.146,7.191,29.7,29.7,0,0,1-12.51,2.66A44.985,44.985,0,0,1,572.876-.394,27.5,27.5,0,0,1,562.238-5.91a30.5,30.5,0,0,1-7.781-10.146Q551.4-22.261,551.4-31.914v-77.224a34.162,34.162,0,0,1,2.364-12.805,30.137,30.137,0,0,1,6.7-10.244,31.138,31.138,0,0,1,10.343-6.8,34.75,34.75,0,0,1,13.3-2.462q14.184,0,23.049,9.259a32.894,32.894,0,0,1,6.8,10.736,36.26,36.26,0,0,1,2.463,13.495v7.88H596.319v-6.7a16.265,16.265,0,0,0-3.349-10.244,10.849,10.849,0,0,0-9.062-4.334q-7.486,0-9.948,4.63A24.811,24.811,0,0,0,571.5-105v71.708a18.572,18.572,0,0,0,2.66,10.244q2.66,4.137,9.555,4.137a14.592,14.592,0,0,0,4.235-.689,12.636,12.636,0,0,0,4.235-2.266,12.021,12.021,0,0,0,2.955-4.334,17.559,17.559,0,0,0,1.182-6.9v-6.895Zm15.169-67.177a35.837,35.837,0,0,1,2.955-14.972,31.638,31.638,0,0,1,7.88-10.835,33.314,33.314,0,0,1,10.737-6.3,35.484,35.484,0,0,1,12.115-2.167,35.484,35.484,0,0,1,12.115,2.167,35.711,35.711,0,0,1,10.934,6.3A32.988,32.988,0,0,1,696-122.14a35.837,35.837,0,0,1,2.955,14.972V-33.1A35.511,35.511,0,0,1,696-17.927a31.3,31.3,0,0,1-7.683,10.441,33.781,33.781,0,0,1-10.934,6.5,35.484,35.484,0,0,1-12.115,2.167A35.484,35.484,0,0,1,653.154-.985a31.61,31.61,0,0,1-10.737-6.5,30.076,30.076,0,0,1-7.88-10.441A35.511,35.511,0,0,1,631.582-33.1ZM651.676-33.1q0,7.289,4.039,10.737a14.244,14.244,0,0,0,9.555,3.447,14.244,14.244,0,0,0,9.555-3.447q4.038-3.448,4.039-10.737v-74.072q0-7.289-4.039-10.736a14.244,14.244,0,0,0-9.555-3.447,14.244,14.244,0,0,0-9.555,3.447q-4.038,3.448-4.039,10.736ZM715.9,0V-140.264H735.2l30.338,84.513h.394v-84.513H786.03V0H767.118L736.386-84.316h-.394V0ZM817.353,0V-121.352H794.107v-18.912h66.586v18.912H837.447V0Zm52.2,0V-140.264h59.888v18.912H889.652v41.173h34.672v18.912H889.652v41.173h39.794V0Zm72.1,0V-140.264h19.306L991.3-55.751h.394v-84.513h20.094V0H992.88L962.148-84.316h-.394V0Zm101.455,0V-121.352h-23.246v-18.912h66.586v18.912h-23.246V0ZM1160.33-99.879h-20.094v-4.531a21.455,21.455,0,0,0-3.25-11.919q-3.25-5.023-10.933-5.023a12.642,12.642,0,0,0-6.7,1.576,13.208,13.208,0,0,0-4.137,3.94,16.662,16.662,0,0,0-2.167,5.812,37.938,37.938,0,0,0-.591,6.8,66.6,66.6,0,0,0,.3,6.895,13.09,13.09,0,0,0,1.478,4.925,10.953,10.953,0,0,0,3.448,3.743,31.674,31.674,0,0,0,6.205,3.152l15.366,6.107a38.1,38.1,0,0,1,10.835,6.008,25.976,25.976,0,0,1,6.5,7.979,37.291,37.291,0,0,1,2.955,10.736,106.259,106.259,0,0,1,.788,13.692,72.194,72.194,0,0,1-1.773,16.449,34.652,34.652,0,0,1-5.713,12.9,28.357,28.357,0,0,1-10.835,8.668q-6.7,3.152-16.351,3.152a35.769,35.769,0,0,1-13.593-2.561,32.33,32.33,0,0,1-10.835-7.092,34.513,34.513,0,0,1-7.19-10.539,32,32,0,0,1-2.66-13.1V-39.6h20.094v6.3a16.413,16.413,0,0,0,3.25,9.948q3.25,4.432,10.933,4.432a17.631,17.631,0,0,0,7.979-1.477,10.606,10.606,0,0,0,4.432-4.236,15.556,15.556,0,0,0,1.872-6.6q.3-3.841.3-8.57a84.942,84.942,0,0,0-.394-9.062,15.6,15.6,0,0,0-1.576-5.713,11.075,11.075,0,0,0-3.645-3.546,46.711,46.711,0,0,0-6.008-2.955l-14.381-5.91q-13-5.319-17.435-14.085t-4.432-21.965A50.956,50.956,0,0,1,1094.532-118a34.056,34.056,0,0,1,6.5-12.214,29.8,29.8,0,0,1,10.54-8.176,35.178,35.178,0,0,1,15.267-3.053,33.337,33.337,0,0,1,13.692,2.758,35.268,35.268,0,0,1,10.737,7.289q9.062,9.456,9.062,21.67Z" transform="translate(-5.516 141.446)" fill="#fff" opacity="0.175"/>
</svg>
