<svg xmlns="http://www.w3.org/2000/svg" width="128.238" height="131.404" viewBox="0 0 128.238 131.404">
  <g id="アイコン" transform="translate(-84.643 -84.101)" opacity="0.112" style="isolation: isolate">
    <rect id="長方形_40" data-name="長方形 40" width="20.255" height="36.426" transform="translate(84.755 179.079)" fill="#0052aa"/>
    <rect id="長方形_41" data-name="長方形 41" width="20.254" height="42.254" transform="translate(111.564 173.251)" fill="#0052aa"/>
    <rect id="長方形_42" data-name="長方形 42" width="20.255" height="56.824" transform="translate(138.373 158.681)" fill="#0052aa"/>
    <rect id="長方形_43" data-name="長方形 43" width="20.254" height="71.394" transform="translate(165.182 144.111)" fill="#0052aa"/>
    <rect id="長方形_44" data-name="長方形 44" width="20.254" height="88.878" transform="translate(191.99 126.626)" fill="#0052aa"/>
    <path id="パス_477" data-name="パス 477" d="M181.446,97.363c-1.631,1.722-3.563,3.594-5.692,5.63-2.091,2.076-4.489,4.2-7,6.486s-5.272,4.577-8.1,7c-2.9,2.312-5.845,4.823-8.988,7.148-3.093,2.413-6.315,4.744-9.575,7.042s-6.589,4.483-9.89,6.617c-3.337,2.052-6.621,4.122-9.906,5.89-3.241,1.9-6.482,3.452-9.554,5-3.091,1.468-6.07,2.751-8.841,3.89-2.791.966-5.39,2.1-7.675,2.689-2.313.617-4.275,1.332-6.053,1.638l-5.535,1.042.225,2.479,5.629.006c1.782.029,4.043-.3,6.628-.5,2.63-.184,5.378-.814,8.527-1.285,3.077-.63,6.415-1.375,9.908-2.291,3.456-.993,7.157-1.983,10.856-3.3,3.765-1.2,7.538-2.677,11.41-4.156,3.824-1.554,7.719-3.158,11.536-4.909s7.637-3.531,11.319-5.424c3.739-1.81,7.277-3.825,10.782-5.679,3.429-1.966,6.784-3.83,9.888-5.733s6.066-3.681,8.718-5.468c2.681-1.741,5.135-3.36,7.263-4.889,2.141-1.509,4.029-2.792,5.532-3.961l2.82-2.125,7.2,6.928-.634-33.03-33.034.622,7.427,7.149-.969,1.065C184.564,94.2,183.1,95.659,181.446,97.363Z" transform="translate(0)" fill="#0052aa"/>
  </g>
</svg>
