<svg xmlns="http://www.w3.org/2000/svg" width="116.883" height="151.148" viewBox="0 0 116.883 151.148">
  <path id="アイコン" d="M194.329,247.214H114.15a14.938,14.938,0,0,1-1.475-1.424,8.211,8.211,0,0,1-1.912-3.145,16.2,16.2,0,0,1-.464-4.143,22.544,22.544,0,0,1,.357-3.7,22.861,22.861,0,0,1,.953-3.68L89.787,176.588l36.528-10.777.869,2.288c6.971-3.4,17.77-9.512,17.879-9.573l2.725-6.254v-2.11h0a1.319,1.319,0,0,1-.327.035,4.366,4.366,0,0,1-2.957-1.589,7.345,7.345,0,0,1-1.3-2.58c-.184-.48-.393-1.024-.655-1.671-.307-.761-.615-1.578-.94-2.444a45.163,45.163,0,0,0-2.269-5.374,4.931,4.931,0,0,1-.553-2.982,6.791,6.791,0,0,0-.2-2.4c-.331-1.144-.608-1.283-1.028-1.494a3.785,3.785,0,0,1-1.577-1.455,7.346,7.346,0,0,1-.889-2.725,36.524,36.524,0,0,1-.441-3.855c-.178-2.581-.166-4.911-.166-4.934a6.3,6.3,0,0,1-1.037-2.083,7.657,7.657,0,0,1-.317-2.418,9.187,9.187,0,0,1,.687-3.171,34.382,34.382,0,0,1,4.19-7.452c1.367-1.83,3.466-4.168,5.7-4.916a12.231,12.231,0,0,1,3.876-.59,23.734,23.734,0,0,1,6.159.985l.171.045a13.813,13.813,0,0,0,2.268.3,21.05,21.05,0,0,1,3.7.541,8.543,8.543,0,0,1,3.695,1.944,19.223,19.223,0,0,1,3.833,4.987,17.62,17.62,0,0,1,1.914,5.4,30.31,30.31,0,0,1,.331,6.435h.031a2.607,2.607,0,0,1,1.846.884,4.286,4.286,0,0,1,.944,1.87,10.84,10.84,0,0,1,.2,3.509,16.75,16.75,0,0,1-.72,3.848,7.864,7.864,0,0,1-1.07,2.178,3.1,3.1,0,0,1-1.395,1.189c0,.044.121,5.183.274,8.108s.4,4.428.4,4.443l1.115,3.135v0a.984.984,0,0,1,.7-.437.74.74,0,0,1,.52.252c.651.652,3.176,7.183,3.2,7.249.034.024,3.6,2.517,7.923,5.36a112.862,112.862,0,0,0,12.688,7.583,12.1,12.1,0,0,1,3.973,2.7,10.206,10.206,0,0,1,1.67,2.715,11.532,11.532,0,0,0,2.4,3.624c.834.834,1.485,2.8,1.884,5.671a60.869,60.869,0,0,1,.382,10.153,92.67,92.67,0,0,1-1.245,12.125,64.508,64.508,0,0,1-3,11.589c-2.481,6.642-4.549,12.837-5.981,17.917-.672,2.383-1.191,4.473-1.542,6.211a21.832,21.832,0,0,0-.523,3.975v4.659Zm-68.292-80.748-35.554,10.4,21.972,54.11c.011,0,1.36-.18,3.16-.6a27.02,27.02,0,0,0,6.016-2.085,44.568,44.568,0,0,0,4.937-3.029c1.279-.87,2.6-1.77,4.378-2.759a28.142,28.142,0,0,1,2.665-1.288,11.362,11.362,0,0,0,2.611-1.415,14.871,14.871,0,0,0,2.911-3.228c3.211-4.465,5.376-6.929,5.4-6.953l-18.494-43.151Zm23.028-7.425h0a.831.831,0,0,1,.305.05c.7.281,2.661,6.789,2.681,6.855A15.137,15.137,0,0,0,149.3,168.2c-.21.349-.107.894.048,1.719a18.084,18.084,0,0,1,.377,3.577,12.779,12.779,0,0,1-.6,3.173c-.32,1.117-.767,2.445-1.327,3.949-.924,2.479-1.848,4.6-1.926,4.78.111-.215.72-1.38,1.914-3.25a92.927,92.927,0,0,1,6.365-8.693c1.352-1.655,3.3-3.75,5.8-6.227,2-1.981,4.348-4.21,6.984-6.625,4.5-4.123,8.3-7.378,8.34-7.41-.025-.058-2.719-6.391-3.033-7.06-.077-.161-.18-.242-.306-.242-.306,0-.656.488-.659.493-.1.067-2.516,1.669-7.623,4.753-5.388,3.259-13.381,7.58-14.02,7.58-.655,0-2.246-4.523-2.262-4.569l-2.21,4.9-5.129,12.9,3.447-4.911a19.648,19.648,0,0,1,1.835-5.224,6.47,6.47,0,0,1,1.952-2.075A3.627,3.627,0,0,1,149.065,159.041Z" transform="translate(-89.787 -96.066)" fill="#0052aa" opacity="0.112"/>
</svg>
