<svg xmlns="http://www.w3.org/2000/svg" width="180.965" height="149.739" viewBox="0 0 180.965 149.739">
  <g id="アイコン" transform="translate(-83.659 -105.111)" opacity="0.112" style="isolation: isolate">
    <path id="パス_459" data-name="パス 459" d="M442.224,355l10.265,1.863-.2-3.251-10.2-2.053Z" transform="translate(-218.331 -150.114)" fill="#0052aa"/>
    <path id="パス_460" data-name="パス 460" d="M442.684,367.226l10.359,1.665-.2-3.259-10.29-1.861Z" transform="translate(-218.61 -157.554)" fill="#0052aa"/>
    <path id="パス_462" data-name="パス 462" d="M441.774,342.769l10.166,2.05-.192-3.243-10.1-2.254Z" transform="translate(-218.057 -142.662)" fill="#0052aa"/>
    <path id="パス_463" data-name="パス 463" d="M256.524,190.816l-24.439-8.135-.2,2.3,24.56,7.907Z" transform="translate(-90.287 -47.249)" fill="#0052aa"/>
    <path id="パス_464" data-name="パス 464" d="M445.423,202.725l-.1-1.682-8.968-4.686.069,1.8Z" transform="translate(-214.832 -55.579)" fill="#0052aa"/>
    <path id="パス_465" data-name="パス 465" d="M257.153,181.749,232.9,173.4l-.2,2.3,24.373,8.113Z" transform="translate(-90.784 -41.596)" fill="#0052aa"/>
    <path id="パス_466" data-name="パス 466" d="M257.778,172.745l-24.048-8.732-.206,2.336,24.183,8.32Z" transform="translate(-91.285 -35.878)" fill="#0052aa"/>
    <path id="パス_467" data-name="パス 467" d="M160.689,271.26l-.921,1.292s-6.522,47.685-7.745,62.152l-5.5,1.225L140.612,340l-7.907-.962-2.2,17.013h24.876Z" transform="translate(-28.532 -101.204)" fill="#0052aa"/>
    <path id="パス_468" data-name="パス 468" d="M427.978,263.738l5.574,1.333.445,2.4a18.979,18.979,0,0,1,4.862-2.136l-8.114-.951-.049-1.319,10.312,1.657c.569-.138,1.064-.261,1.484-.357l-4-66.827s-1.429-6.932-10.394-6.932l-2.649,2.246-2.649-.206,2.833,71.024Zm13.03-.322-10.359-1.665-.129-3.455,10.29,1.861Zm-.275-4.59-10.265-1.863-.126-3.441,10.2,2.053Zm-.275-4.59-10.166-2.05-.126-3.447,10.1,2.254Zm-.275-4.59L430.116,247.4l-.126-3.435,10,2.446Zm-.275-4.59-9.969-2.446-.126-3.424,9.9,2.646Zm-.275-4.59-9.873-2.639-.126-3.424,9.806,2.853Zm-.275-4.584-9.773-2.845-.126-3.416,9.707,3.059Zm-.272-4.59-9.68-3.045-.126-3.4,9.614,3.263Zm-.278-4.584-9.578-3.249-.129-3.4,9.518,3.479Zm-.272-4.582-9.485-3.463-.126-3.381,9.421,3.691Zm-.278-4.582-9.386-3.677-.124-3.375,9.323,3.91Zm-.272-4.584-9.293-3.889-.124-3.361,9.226,4.131Zm-.275-4.584-9.194-4.107-.126-3.342,9.135,4.35Zm-.272-4.582-9.1-4.329-.124-3.326,9.036,4.584Zm-.377-6.253.1,1.682-9-4.568-.069-1.8Z" transform="translate(-206.575 -52.08)" fill="#0052aa"/>
    <path id="パス_469" data-name="パス 469" d="M104.915,333.789l.64.082-1.223-1.627,4.279-40.154-5.093-3.463-4.892.817L97.2,291.477,92.1,329.8l-2.036,2.644-6.409,34.19h17Z" transform="translate(0 -111.783)" fill="#0052aa"/>
    <path id="パス_470" data-name="パス 470" d="M480.4,385.315c-.121-.129-.333-.341-.654-.624-1.619-1.443-5.785-4.383-12.975-4.383h-.184l-.033-.646a19.621,19.621,0,0,0-4.843.467l.077.4h.005c-.008,0-1.938.385-4.136,1.044-2.19.632-4.664,1.61-5.518,2.495l7.074,38.011h24.793Z" transform="translate(-224.448 -167.233)" fill="#0052aa"/>
    <path id="パス_471" data-name="パス 471" d="M375.192,374.419l-11.161-.192-9.883,3.3-3.238,41.248h31.021Z" transform="translate(-162.787 -163.923)" fill="#0052aa"/>
    <path id="パス_472" data-name="パス 472" d="M318.6,212.64l3.012-1-.569.061-1.833-99.459-2.242-1.221v-2.654l-7.132-3.255-4.282,5.909-.2,1.627-2.649,3.669-2.853,125.747h-4.277s.976-23.417.547-40.231l-1.561,53.017H315.28Z" transform="translate(-128.46 0)" fill="#0052aa"/>
    <path id="パス_473" data-name="パス 473" d="M429.061,381.817l-4.617-1.107-7.173-.184,6.4,42.084h12.986Z" transform="translate(-203.209 -167.76)" fill="#0052aa"/>
    <path id="パス_474" data-name="パス 474" d="M374.586,236.306l12.483.214.341,2.246,2.743.069-3.441-80.341-2.65-2.242-.206-3.056-5.3-3.265-6.113,4.488v2.646l-3.872,1.841,1.41,78.934Z" transform="translate(-173.546 -27.3)" fill="#0052aa"/>
    <path id="パス_475" data-name="パス 475" d="M236.063,212.265c-.077-.481-.157-.926-.247-1.319l1.429-50.139-1.836-3.263-1.017-.612-.616-3.455L208.3,143.692a35.523,35.523,0,0,0-2.243,12.024l-2.905,30.4.085.005-5.774,92.231h36.655Zm-24.3-60.629,24.049,8.732-.072,1.924-24.183-8.32Zm-.324,3.669,24.249,8.35-.08,2.067-24.373-8.114Zm-.322,3.628,24.439,8.135-.08,2.075-24.56-7.908Zm-.316,3.628,24.62,7.929-.077,2.081L210.6,164.863Zm-.321,3.628,24.812,7.723-.08,2.089-24.936-7.5Zm-.319,3.628,25,7.525-.08,2.089-25.126-7.3Zm-.322,3.622,25.189,7.322-.08,2.1-25.316-7.1Zm-.319,3.634,25.376,7.112-.08,2.1-25.5-6.9ZM209.2,180.7l25.565,6.912-.079,2.1L209,183.014Zm-.319,3.622,25.755,6.717-.082,2.1-25.876-6.5Zm-.322,3.634,25.943,6.519-.08,2.1-26.066-6.31Zm-.319,3.622,26.129,6.321-.08,2.108L208.04,193.9Zm-.322,3.628,26.319,6.121-.082,2.116-26.44-5.917Zm23.614,76.472-30.164-2.246.151-1.7,30.073,2.356Zm.113-2.886-30.01-2.347.206-2.331,29.886,2.534Zm.132-3.441-29.82-2.534.2-2.33,29.7,2.715Zm.132-3.45-29.636-2.707.209-2.336,29.509,2.9Zm.132-3.443L202.6,255.565l.2-2.336,29.326,3.084Zm.132-3.441-29.259-3.078.206-2.336,29.136,3.271Zm.135-3.441-29.073-3.265.206-2.33,28.949,3.457Zm.129-3.444-28.88-3.449.2-2.33L232.523,246Zm.135-3.435-28.7-3.636.209-2.336,28.572,3.828Zm.132-3.444-28.509-3.82.2-2.336,28.385,4.021Zm.132-3.441L204.517,233.8l.206-2.336,28.2,4.205Zm.132-3.441-28.133-4.194.206-2.328,28.009,4.39Zm.135-3.435-27.948-4.386.206-2.328,27.822,4.582Zm.132-3.435-27.759-4.578.206-2.328,27.632,4.774Zm.132-3.444L205.8,219.293l.2-2.328,27.445,4.967Zm.129-3.435-27.379-4.955.2-2.328,27.259,5.159Zm.132-3.435-27.193-5.147.2-2.32,27.072,5.343Zm.134-3.444-27.006-5.332.2-2.32,26.885,5.536Zm.132-3.427-26.819-5.532.2-2.32,26.7,5.728Zm-26.5-9.152.206-2.328,26.508,5.928-.082,2.116Z" transform="translate(-69.323 -23.5)" fill="#0052aa"/>
    <path id="パス_476" data-name="パス 476" d="M507.451,337.122l-2.853,1.223-1.223-.407-6.929,3.051-1.119,1.121-1.124.921.41,1.429-1.426,1.223.75,7.509c8.578.715,12.533,5.45,12.59,5.533l.127.145,3.661,37.3h3.76Z" transform="translate(-249.451 -141.322)" fill="#0052aa"/>
  </g>
</svg>
