<svg xmlns="http://www.w3.org/2000/svg" width="844.128" height="104.256" viewBox="0 0 844.128 104.256">
  <path id="パス_912" data-name="パス 912" d="M54.432-73.008H39.744V-76.32a15.683,15.683,0,0,0-2.376-8.712Q34.992-88.7,29.376-88.7a9.241,9.241,0,0,0-4.9,1.152,9.656,9.656,0,0,0-3.024,2.88,12.18,12.18,0,0,0-1.584,4.248,27.734,27.734,0,0,0-.432,4.968,48.688,48.688,0,0,0,.216,5.04,9.568,9.568,0,0,0,1.08,3.6,8.007,8.007,0,0,0,2.52,2.736,23.15,23.15,0,0,0,4.536,2.3l11.232,4.464a27.848,27.848,0,0,1,7.92,4.392A18.987,18.987,0,0,1,51.7-47.088a27.261,27.261,0,0,1,2.16,7.848,77.663,77.663,0,0,1,.576,10.008,52.771,52.771,0,0,1-1.3,12.024A25.33,25.33,0,0,1,48.96-7.776,20.729,20.729,0,0,1,41.04-1.44,27.937,27.937,0,0,1,29.088.864a26.146,26.146,0,0,1-9.936-1.872,23.633,23.633,0,0,1-7.92-5.184,25.228,25.228,0,0,1-5.256-7.7,23.393,23.393,0,0,1-1.944-9.576v-5.472H18.72v4.608A12,12,0,0,0,21.1-17.064q2.376,3.24,7.992,3.24A12.888,12.888,0,0,0,34.92-14.9,7.753,7.753,0,0,0,38.16-18a11.37,11.37,0,0,0,1.368-4.824q.216-2.808.216-6.264a62.069,62.069,0,0,0-.288-6.624A11.4,11.4,0,0,0,38.3-39.888,8.1,8.1,0,0,0,35.64-42.48a34.138,34.138,0,0,0-4.392-2.16L20.736-48.96q-9.5-3.888-12.744-10.3T4.752-75.312A37.248,37.248,0,0,1,6.336-86.256a24.893,24.893,0,0,1,4.752-8.928,21.779,21.779,0,0,1,7.7-5.976,25.714,25.714,0,0,1,11.16-2.232,24.368,24.368,0,0,1,10.008,2.016,25.78,25.78,0,0,1,7.848,5.328,22.248,22.248,0,0,1,6.624,15.84ZM65.376,0V-102.528H87.408a32.752,32.752,0,0,1,10.656,1.584,20.444,20.444,0,0,1,8.352,5.616A21.962,21.962,0,0,1,111.6-85.9a58.986,58.986,0,0,1,1.44,14.616,72.5,72.5,0,0,1-.792,11.664,24.386,24.386,0,0,1-3.384,8.928A21.439,21.439,0,0,1,100.8-42.84q-5.04,2.808-13.248,2.808H80.064V0ZM80.064-88.7v34.848H87.12a15.01,15.01,0,0,0,6.912-1.3,8.156,8.156,0,0,0,3.6-3.6A13.16,13.16,0,0,0,99-64.08q.216-3.168.216-7.056,0-3.6-.144-6.84a14.8,14.8,0,0,0-1.3-5.688,8.177,8.177,0,0,0-3.456-3.744A13.719,13.719,0,0,0,87.7-88.7ZM123.984,0V-102.528H167.76V-88.7H138.672v30.1h25.344v13.824H138.672v30.1H167.76V0ZM223.92-29.232V-22.9a22.829,22.829,0,0,1-1.8,9,24.9,24.9,0,0,1-4.968,7.56,23.951,23.951,0,0,1-7.416,5.256A21.71,21.71,0,0,1,200.592.864a32.882,32.882,0,0,1-8.5-1.152A20.1,20.1,0,0,1,184.32-4.32a22.3,22.3,0,0,1-5.688-7.416A26.256,26.256,0,0,1,176.4-23.328V-79.776a24.971,24.971,0,0,1,1.728-9.36,22.029,22.029,0,0,1,4.9-7.488,22.761,22.761,0,0,1,7.56-4.968,25.4,25.4,0,0,1,9.72-1.8q10.368,0,16.848,6.768a24.045,24.045,0,0,1,4.968,7.848,26.5,26.5,0,0,1,1.8,9.864v5.76H209.232v-4.9a11.889,11.889,0,0,0-2.448-7.488A7.93,7.93,0,0,0,200.16-88.7q-5.472,0-7.272,3.384a18.136,18.136,0,0,0-1.8,8.568v52.416a13.575,13.575,0,0,0,1.944,7.488q1.944,3.024,6.984,3.024a10.666,10.666,0,0,0,3.1-.5,9.237,9.237,0,0,0,3.1-1.656,8.787,8.787,0,0,0,2.16-3.168,12.835,12.835,0,0,0,.864-5.04v-5.04ZM236.3,0V-102.528h14.688V0Zm58.608-35.856-7.2-37.152h-.288l-7.2,37.152ZM258.624,0l22.9-102.528h12.24L316.656,0H301.968l-4.32-22.032H277.632L273.312,0Zm65.232,0V-102.528h14.688v87.84h29.088V0Zm126.72-29.232V-22.9a22.83,22.83,0,0,1-1.8,9,24.9,24.9,0,0,1-4.968,7.56,23.951,23.951,0,0,1-7.416,5.256A21.71,21.71,0,0,1,427.248.864a32.883,32.883,0,0,1-8.5-1.152,20.1,20.1,0,0,1-7.776-4.032,22.3,22.3,0,0,1-5.688-7.416,26.255,26.255,0,0,1-2.232-11.592V-79.776a24.971,24.971,0,0,1,1.728-9.36,22.029,22.029,0,0,1,4.9-7.488,22.76,22.76,0,0,1,7.56-4.968,25.4,25.4,0,0,1,9.72-1.8q10.368,0,16.848,6.768a24.044,24.044,0,0,1,4.968,7.848,26.5,26.5,0,0,1,1.8,9.864v5.76H435.888v-4.9a11.889,11.889,0,0,0-2.448-7.488,7.93,7.93,0,0,0-6.624-3.168q-5.472,0-7.272,3.384a18.135,18.135,0,0,0-1.8,8.568v52.416a13.575,13.575,0,0,0,1.944,7.488q1.944,3.024,6.984,3.024a10.666,10.666,0,0,0,3.1-.5,9.236,9.236,0,0,0,3.1-1.656,8.786,8.786,0,0,0,2.16-3.168,12.835,12.835,0,0,0,.864-5.04v-5.04Zm11.088-49.1a26.2,26.2,0,0,1,2.16-10.944,23.126,23.126,0,0,1,5.76-7.92,24.352,24.352,0,0,1,7.848-4.608,25.938,25.938,0,0,1,8.856-1.584,25.938,25.938,0,0,1,8.856,1.584,26.1,26.1,0,0,1,7.992,4.608,24.112,24.112,0,0,1,5.616,7.92,26.2,26.2,0,0,1,2.16,10.944v54.144a25.957,25.957,0,0,1-2.16,11.088,22.874,22.874,0,0,1-5.616,7.632A24.693,24.693,0,0,1,495.144-.72,25.938,25.938,0,0,1,486.288.864,25.938,25.938,0,0,1,477.432-.72a23.106,23.106,0,0,1-7.848-4.752,21.984,21.984,0,0,1-5.76-7.632,25.957,25.957,0,0,1-2.16-11.088Zm14.688,54.144q0,5.328,2.952,7.848a10.412,10.412,0,0,0,6.984,2.52,10.412,10.412,0,0,0,6.984-2.52q2.952-2.52,2.952-7.848V-78.336q0-5.328-2.952-7.848a10.412,10.412,0,0,0-6.984-2.52,10.412,10.412,0,0,0-6.984,2.52q-2.952,2.52-2.952,7.848ZM523.3,0V-102.528h14.112l22.176,61.776h.288v-61.776H574.56V0H560.736L538.272-61.632h-.288V0Zm74.16,0V-88.7H580.464v-13.824h48.672V-88.7H612.144V0Zm38.16,0V-102.528h43.776V-88.7H650.3v30.1h25.344v13.824H650.3v30.1h29.088V0Zm52.7,0V-102.528h14.112l22.176,61.776h.288v-61.776h14.688V0H725.76L703.3-61.632h-.288V0Zm74.16,0V-88.7H745.488v-13.824H794.16V-88.7H777.168V0Zm85.68-73.008H833.472V-76.32a15.682,15.682,0,0,0-2.376-8.712Q828.72-88.7,823.1-88.7a9.241,9.241,0,0,0-4.9,1.152,9.656,9.656,0,0,0-3.024,2.88,12.18,12.18,0,0,0-1.584,4.248,27.732,27.732,0,0,0-.432,4.968,48.692,48.692,0,0,0,.216,5.04,9.568,9.568,0,0,0,1.08,3.6,8.007,8.007,0,0,0,2.52,2.736,23.151,23.151,0,0,0,4.536,2.3l11.232,4.464a27.849,27.849,0,0,1,7.92,4.392,18.986,18.986,0,0,1,4.752,5.832,27.259,27.259,0,0,1,2.16,7.848,77.668,77.668,0,0,1,.576,10.008,52.771,52.771,0,0,1-1.3,12.024,25.329,25.329,0,0,1-4.176,9.432,20.729,20.729,0,0,1-7.92,6.336,27.937,27.937,0,0,1-11.952,2.3,26.146,26.146,0,0,1-9.936-1.872,23.633,23.633,0,0,1-7.92-5.184,25.227,25.227,0,0,1-5.256-7.7,23.393,23.393,0,0,1-1.944-9.576v-5.472h14.688v4.608a12,12,0,0,0,2.376,7.272q2.376,3.24,7.992,3.24a12.887,12.887,0,0,0,5.832-1.08,7.753,7.753,0,0,0,3.24-3.1,11.37,11.37,0,0,0,1.368-4.824q.216-2.808.216-6.264a62.064,62.064,0,0,0-.288-6.624,11.4,11.4,0,0,0-1.152-4.176,8.1,8.1,0,0,0-2.664-2.592,34.137,34.137,0,0,0-4.392-2.16l-10.512-4.32q-9.5-3.888-12.744-10.3t-3.24-16.056a37.249,37.249,0,0,1,1.584-10.944,24.893,24.893,0,0,1,4.752-8.928,21.779,21.779,0,0,1,7.7-5.976,25.714,25.714,0,0,1,11.16-2.232,24.368,24.368,0,0,1,10.008,2.016,25.78,25.78,0,0,1,7.848,5.328,22.248,22.248,0,0,1,6.624,15.84Z" transform="translate(-4.032 103.392)" fill="#fff"/>
</svg>
