<svg xmlns="http://www.w3.org/2000/svg" width="34.75" height="36.2" viewBox="0 0 34.75 36.2">
  <path id="パス_916" data-name="パス 916" d="M1.7-28.25a7.775,7.775,0,0,1,.625-3.2A7.488,7.488,0,0,1,4-33.85a7.206,7.206,0,0,1,2.425-1.525A7.992,7.992,0,0,1,9.3-35.9a7.992,7.992,0,0,1,2.875.525A7.206,7.206,0,0,1,14.6-33.85a7.488,7.488,0,0,1,1.675,2.4,7.775,7.775,0,0,1,.625,3.2v20.9a7.775,7.775,0,0,1-.625,3.2A7.488,7.488,0,0,1,14.6-1.75,7.206,7.206,0,0,1,12.175-.225,7.992,7.992,0,0,1,9.3.3,7.992,7.992,0,0,1,6.425-.225,7.206,7.206,0,0,1,4-1.75a7.488,7.488,0,0,1-1.675-2.4A7.775,7.775,0,0,1,1.7-7.35ZM6.8-7.35a2.522,2.522,0,0,0,.7,1.825A2.392,2.392,0,0,0,9.3-4.8a2.392,2.392,0,0,0,1.8-.725,2.522,2.522,0,0,0,.7-1.825v-20.9a2.522,2.522,0,0,0-.7-1.825A2.392,2.392,0,0,0,9.3-30.8a2.392,2.392,0,0,0-1.8.725,2.522,2.522,0,0,0-.7,1.825ZM31.35,0V-30.2l-5.1,3.75v-5.4l5.1-3.75h5.1V0Z" transform="translate(-1.7 35.9)" fill="#fff"/>
</svg>
