<svg xmlns="http://www.w3.org/2000/svg" width="38.8" height="36.2" viewBox="0 0 38.8 36.2">
  <path id="パス_919" data-name="パス 919" d="M1.7-28.25a7.775,7.775,0,0,1,.625-3.2A7.488,7.488,0,0,1,4-33.85a7.206,7.206,0,0,1,2.425-1.525A7.992,7.992,0,0,1,9.3-35.9a7.992,7.992,0,0,1,2.875.525A7.206,7.206,0,0,1,14.6-33.85a7.488,7.488,0,0,1,1.675,2.4,7.775,7.775,0,0,1,.625,3.2v20.9a7.775,7.775,0,0,1-.625,3.2A7.488,7.488,0,0,1,14.6-1.75,7.206,7.206,0,0,1,12.175-.225,7.992,7.992,0,0,1,9.3.3,7.992,7.992,0,0,1,6.425-.225,7.206,7.206,0,0,1,4-1.75a7.488,7.488,0,0,1-1.675-2.4A7.775,7.775,0,0,1,1.7-7.35ZM6.8-7.35a2.522,2.522,0,0,0,.7,1.825A2.392,2.392,0,0,0,9.3-4.8a2.392,2.392,0,0,0,1.8-.725,2.522,2.522,0,0,0,.7-1.825v-20.9a2.522,2.522,0,0,0-.7-1.825A2.392,2.392,0,0,0,9.3-30.8a2.392,2.392,0,0,0-1.8.725,2.522,2.522,0,0,0-.7,1.825ZM25.3,0V-4.8l9.2-17.35a6.335,6.335,0,0,0,.8-2.275q.1-.975.1-2.425,0-.65-.025-1.375A3.337,3.337,0,0,0,35.1-29.5a2.367,2.367,0,0,0-.75-.925A2.388,2.388,0,0,0,32.9-30.8a2.52,2.52,0,0,0-1.825.65,2.518,2.518,0,0,0-.675,1.9v2.9H25.3v-2.8a7.535,7.535,0,0,1,.6-3,7.741,7.741,0,0,1,1.65-2.45,7.488,7.488,0,0,1,2.4-1.675,7.275,7.275,0,0,1,3-.625,7.476,7.476,0,0,1,3.425.725A6.832,6.832,0,0,1,38.75-33.2a8.61,8.61,0,0,1,1.325,2.85,13.2,13.2,0,0,1,.425,3.4q0,1.3-.05,2.175a13.16,13.16,0,0,1-.2,1.675,7.382,7.382,0,0,1-.5,1.6q-.35.8-.95,1.95L31.3-5.1h9.2V0Z" transform="translate(-1.7 35.9)" fill="#fff"/>
</svg>
