<svg xmlns="http://www.w3.org/2000/svg" width="38.8" height="36.2" viewBox="0 0 38.8 36.2">
  <path id="パス_920" data-name="パス 920" d="M1.7-28.25a7.775,7.775,0,0,1,.625-3.2A7.488,7.488,0,0,1,4-33.85a7.206,7.206,0,0,1,2.425-1.525A7.992,7.992,0,0,1,9.3-35.9a7.992,7.992,0,0,1,2.875.525A7.206,7.206,0,0,1,14.6-33.85a7.488,7.488,0,0,1,1.675,2.4,7.775,7.775,0,0,1,.625,3.2v20.9a7.775,7.775,0,0,1-.625,3.2A7.488,7.488,0,0,1,14.6-1.75,7.206,7.206,0,0,1,12.175-.225,7.992,7.992,0,0,1,9.3.3,7.992,7.992,0,0,1,6.425-.225,7.206,7.206,0,0,1,4-1.75a7.488,7.488,0,0,1-1.675-2.4A7.775,7.775,0,0,1,1.7-7.35ZM6.8-7.35a2.522,2.522,0,0,0,.7,1.825A2.392,2.392,0,0,0,9.3-4.8a2.392,2.392,0,0,0,1.8-.725,2.522,2.522,0,0,0,.7-1.825v-20.9a2.522,2.522,0,0,0-.7-1.825A2.392,2.392,0,0,0,9.3-30.8a2.392,2.392,0,0,0-1.8.725,2.522,2.522,0,0,0-.7,1.825ZM31.35-20.6a6.445,6.445,0,0,0,3.175-.55q.875-.55.875-2.55v-4.6a2.486,2.486,0,0,0-.675-1.8,2.417,2.417,0,0,0-1.825-.7,2.153,2.153,0,0,0-1.925.85A2.952,2.952,0,0,0,30.4-28.3v2.9H25.3v-2.95a7.411,7.411,0,0,1,.6-2.95,7.173,7.173,0,0,1,1.65-2.4A8.2,8.2,0,0,1,30-35.3a7.535,7.535,0,0,1,3-.6,6.663,6.663,0,0,1,3.475.825A8,8,0,0,1,38.55-33.4a10.925,10.925,0,0,1,.875,1.2,5.84,5.84,0,0,1,.625,1.45,19.937,19.937,0,0,1,.45,4.9q0,1.85-.075,3a6.276,6.276,0,0,1-.375,1.9,3.8,3.8,0,0,1-.975,1.35,11.564,11.564,0,0,1-1.725,1.2A9.686,9.686,0,0,1,39.175-17a4.117,4.117,0,0,1,.925,1.5,7.748,7.748,0,0,1,.35,2.125q.05,1.225.05,3.125,0,1.75-.075,2.9a14.922,14.922,0,0,1-.225,1.9,5.926,5.926,0,0,1-.4,1.35,8.23,8.23,0,0,1-.65,1.15A8.079,8.079,0,0,1,36.725-.625,7.209,7.209,0,0,1,32.85.3,8.989,8.989,0,0,1,30.3-.1a6.952,6.952,0,0,1-2.45-1.3,7.058,7.058,0,0,1-1.825-2.35A7.881,7.881,0,0,1,25.3-7.3v-2.9h5.1v2.65a2.9,2.9,0,0,0,.675,1.975A2.3,2.3,0,0,0,32.9-4.8a2.3,2.3,0,0,0,1.825-.775A3.048,3.048,0,0,0,35.4-7.65v-5.1q0-2.1-.8-2.75a2.225,2.225,0,0,0-1.225-.5,16.46,16.46,0,0,0-2.025-.1Z" transform="translate(-1.7 35.9)" fill="#fff"/>
</svg>
