<svg xmlns="http://www.w3.org/2000/svg" xmlns:xlink="http://www.w3.org/1999/xlink" width="802.168" height="608.511" viewBox="0 0 802.168 608.511">
  <defs>
    <linearGradient id="linear-gradient" y1="0.5" x2="1" y2="0.5" gradientUnits="objectBoundingBox">
      <stop offset="0" stop-color="#03a8e5"/>
      <stop offset="1" stop-color="#012869"/>
    </linearGradient>
    <filter id="パス_301" x="0" y="0" width="802.168" height="608.511" filterUnits="userSpaceOnUse">
      <feOffset dx="10" dy="10" input="SourceAlpha"/>
      <feGaussianBlur stdDeviation="15" result="blur"/>
      <feFlood flood-opacity="0.161"/>
      <feComposite operator="in" in2="blur"/>
      <feComposite in="SourceGraphic"/>
    </filter>
    <linearGradient id="linear-gradient-2" x1="-0.03" xlink:href="#linear-gradient"/>
    <filter id="長方形_215" x="21.347" y="60.934" width="516" height="115" filterUnits="userSpaceOnUse">
      <feOffset input="SourceAlpha"/>
      <feGaussianBlur stdDeviation="5" result="blur-2"/>
      <feFlood flood-color="#013778" flood-opacity="0.322"/>
      <feComposite operator="in" in2="blur-2"/>
      <feComposite in="SourceGraphic"/>
    </filter>
    <clipPath id="clip-path">
      <rect id="長方形_228" data-name="長方形 228" width="150" height="487" transform="translate(0 -0.055)" fill="#72cef1"/>
    </clipPath>
  </defs>
  <g id="年代別内訳" transform="translate(-845.653 -3754.066)">
    <g id="グループ_242" data-name="グループ 242" transform="translate(352.3 1416)">
      <g transform="matrix(1, 0, 0, 1, 493.35, 2338.07)" filter="url(#パス_301)">
        <path id="パス_301-2" data-name="パス 301" d="M0,0H712.168V518.511H0Z" transform="translate(35 35)" fill="url(#linear-gradient)"/>
      </g>
      <path id="パス_302" data-name="パス 302" d="M0,0H704.168V510.511H0Z" transform="translate(532.353 2377.066)" fill="#edf9ff"/>
    </g>
    <path id="パス_1167" data-name="パス 1167" d="M8.028-11.232a12.269,12.269,0,0,1-1.782-.09v1.944a14.52,14.52,0,0,1,1.926-.09H10.4v7.434A5.215,5.215,0,0,1,8.46-4.32a23.322,23.322,0,0,0,.324-2.394c.054-.522.09-.72.144-1.026L6.912-8.01A2.92,2.92,0,0,1,6.93-7.6,16.018,16.018,0,0,1,6.462-4.05,11.1,11.1,0,0,1,4.7-.072a6.447,6.447,0,0,1,1.53,1.44A13.859,13.859,0,0,0,7.9-2.142,6.264,6.264,0,0,0,9.7-.306a10.563,10.563,0,0,0,5.814,1.35c.108,0,.612,0,1.476-.018a10.734,10.734,0,0,1,.522-2.088c-1.17.072-1.71.09-2.34.09a11.672,11.672,0,0,1-2.826-.288V-4.914H14.58a13.775,13.775,0,0,1,1.818.09V-6.75a12.73,12.73,0,0,1-1.782.09H12.348V-9.468H15.12a15.781,15.781,0,0,1,1.908.09v-1.944a12.508,12.508,0,0,1-1.818.09h-1.4a21.869,21.869,0,0,0,1.764-3.24l-1.98-.612a14.81,14.81,0,0,1-1.836,3.852H9.378l1.4-.666a14.931,14.931,0,0,0-2.016-3.2l-1.674.828a10.856,10.856,0,0,1,1.8,3.042ZM4.41-15.246A10.363,10.363,0,0,1,.594-11.79,7.755,7.755,0,0,1,1.62-10.116,18.208,18.208,0,0,0,5.688-13.7a3.246,3.246,0,0,1,.324-.36ZM2.574-.594a17.039,17.039,0,0,1-.108,2.088H4.554A20.816,20.816,0,0,1,4.482-.612V-7.74a14.69,14.69,0,0,0,.99-1.368,8.633,8.633,0,0,1,.594-.864L4.428-11.106a11.885,11.885,0,0,1-4,4.644,8.277,8.277,0,0,1,.81,1.98A8.853,8.853,0,0,0,2.61-5.832c-.036,1.188-.036,1.3-.036,2.07ZM29.52-7.92v.864H25.956a12.782,12.782,0,0,1-1.836-.09v1.62a12.935,12.935,0,0,1,1.836-.09H29.52v.9H24.75a16.708,16.708,0,0,1-2.16-.108v1.8a19.786,19.786,0,0,1,2.178-.108h3.348A12.94,12.94,0,0,1,22.23-.576a7.367,7.367,0,0,1,1.1,1.728A17.415,17.415,0,0,0,27-.36a10.011,10.011,0,0,0,2.592-1.98,12.119,12.119,0,0,0-.054,1.224v.864a13.435,13.435,0,0,1-.108,1.836h2.124a10.241,10.241,0,0,1-.126-1.818v-.882a12.321,12.321,0,0,0-.054-1.278A14.045,14.045,0,0,0,38.052,1.17,7.128,7.128,0,0,1,39.078-.666a15.449,15.449,0,0,1-3.744-1.026,9.344,9.344,0,0,1-2.448-1.44H36.5a19.445,19.445,0,0,1,2.16.108v-1.8a15.9,15.9,0,0,1-2.178.108H31.464v-.9h3.762a13.213,13.213,0,0,1,1.854.09v-1.62a13.058,13.058,0,0,1-1.854.09H31.464V-7.92h4.7a13.213,13.213,0,0,1,1.854.09V-9.54a16.553,16.553,0,0,1-1.854.072H34.074c.252-.45.324-.612.666-1.332h1.8c.882,0,1.584.036,2.142.09v-1.8a14.6,14.6,0,0,1-2.034.108h-.5c.4-.558.684-1.008,1.116-1.728l-1.854-.684a9.6,9.6,0,0,1-1.3,2.412H32.976V-13.68a9.451,9.451,0,0,1,.09-1.4H31.1a12.82,12.82,0,0,1,.054,1.332v1.35H29.88v-1.35a12.122,12.122,0,0,1,.054-1.332H27.972a10.011,10.011,0,0,1,.09,1.4V-12.4H27.036A12.726,12.726,0,0,0,25.65-14.76l-1.8.684A7.609,7.609,0,0,1,25.074-12.4H24.5a15.253,15.253,0,0,1-2.052-.108v1.8c.576-.054,1.26-.09,2.142-.09h1.944c.2.342.4.756.666,1.332H25.02a16.349,16.349,0,0,1-1.854-.072v1.71a13.37,13.37,0,0,1,1.854-.09Zm-.414-1.548a11.489,11.489,0,0,0-.54-1.332h4.1a10.5,10.5,0,0,1-.594,1.332ZM48.762-1.62A13.553,13.553,0,0,1,43.65-.126a5.806,5.806,0,0,1,1.1,1.782A21.377,21.377,0,0,0,47.5.936a15.663,15.663,0,0,0,3.276-1.6L49.644-1.62h4.9l-.972.882A13.542,13.542,0,0,0,59.58,1.674,6.034,6.034,0,0,1,60.7-.09a14.277,14.277,0,0,1-5.184-1.53h1.44c.9,0,1.458.018,2.016.072a3.158,3.158,0,0,1-.054-.72c0-.072-.018-.468-.018-1.17V-7.992a16.181,16.181,0,0,1,.072-1.926c-.63.054-1.134.072-2.016.072H47.376c-.846,0-1.458-.018-2-.072a17.812,17.812,0,0,1,.072,1.926v4.554c0,.9-.036,1.44-.072,1.89.576-.054,1.1-.072,2-.072ZM47.376-8.352h9.576v.828H47.376Zm0,2.178h9.576v.828H47.376Zm0,2.178h9.576v.882H47.376ZM58.23-13.32a10.944,10.944,0,0,1,.072-1.386,15.644,15.644,0,0,1-2.034.09H48.1a15.949,15.949,0,0,1-2.052-.09,8.963,8.963,0,0,1,.09,1.386v1.386c0,.486-.036.9-.072,1.35.54-.036,1.17-.054,1.98-.054h8.3c.792,0,1.4.018,1.944.054-.036-.414-.054-.81-.054-1.35Zm-2,.234v.99H48.114v-.99Zm26.01.972a9.748,9.748,0,0,1-1.692.09H77.418c.2-.7.36-1.314.468-1.782.144-.612.18-.774.252-.99l-1.98-.4a13.047,13.047,0,0,1-.432,2.448A13.214,13.214,0,0,1,73.3-7.56a6.317,6.317,0,0,1,1.3,1.3c.378-.5.5-.684.828-1.188a12.286,12.286,0,0,0,1.512,4.23,11.174,11.174,0,0,1-2.556,2.25A11,11,0,0,1,72.954-.2a5.566,5.566,0,0,1,.972,1.8A13.963,13.963,0,0,0,78.012-1.62a12.326,12.326,0,0,0,3.51,3.1A8.254,8.254,0,0,1,82.566-.432a9.569,9.569,0,0,1-3.42-2.808A14.712,14.712,0,0,0,80.982-10.3a9.2,9.2,0,0,1,1.26.072Zm-3.1,1.818A13.035,13.035,0,0,1,78.03-5a14.157,14.157,0,0,1-1.44-4.734c.09-.234.09-.234.234-.558Zm-5.652,9.09a9.315,9.315,0,0,0-1.458-.81,6.684,6.684,0,0,0,1.08-2.3,7.111,7.111,0,0,1,1.458.09V-6.048a6.365,6.365,0,0,1-1.332.09H70.4c.144-.342.216-.468.378-.918L68.9-7.236a13.026,13.026,0,0,1-.468,1.278h-1.35a7.481,7.481,0,0,1-1.422-.09V-4.23a7.714,7.714,0,0,1,1.422-.09h.522a15.053,15.053,0,0,1-1.17,1.782c1.278.468,1.764.666,2.664,1.062A9.843,9.843,0,0,1,65.538-.144a7.862,7.862,0,0,1,.936,1.656,9.441,9.441,0,0,0,4.3-2.142A9.591,9.591,0,0,1,72.45.468ZM71.244-4.32a4.643,4.643,0,0,1-.81,1.6c-.54-.234-.774-.324-1.53-.594.324-.486.378-.576.63-1.008Zm-.072-7.452v-2.16a7.072,7.072,0,0,1,.072-1.188H69.282a5.753,5.753,0,0,1,.09,1.224v2.124H67.23a8.566,8.566,0,0,1-1.512-.09v1.728a8.466,8.466,0,0,1,1.494-.09h.972a7.194,7.194,0,0,1-2.88,2.25,6.122,6.122,0,0,1,1.17,1.494,10.224,10.224,0,0,0,2.934-2.826c-.036.324-.054.612-.054.774v.684a3.314,3.314,0,0,1-.054.594h1.926a2.7,2.7,0,0,1-.072-.666v-.648c0-.144-.018-.36-.054-.738A6.522,6.522,0,0,0,72.7-7.6a5.789,5.789,0,0,1,1.044-1.476,4.871,4.871,0,0,1-1.584-1.152h1.206a8.666,8.666,0,0,1,1.152.054v-1.656a8.3,8.3,0,0,1-1.152.054Zm-5-2.592a9.335,9.335,0,0,1,1.206,2.394l1.584-.594A8.978,8.978,0,0,0,67.7-14.94Zm6.624-.612a8.9,8.9,0,0,1-1.278,2.412l1.53.684a15.5,15.5,0,0,0,1.368-2.43Zm17.856,4.788a.854.854,0,0,0-.27-.639.878.878,0,0,0-.63-.261.878.878,0,0,0-.63.261.854.854,0,0,0-.27.639v1.872a.854.854,0,0,0,.27.639.878.878,0,0,0,.63.261.878.878,0,0,0,.63-.261.854.854,0,0,0,.27-.639Zm-3.636.72q0-.522.036-.891A2.936,2.936,0,0,1,87.174-11a3.034,3.034,0,0,1,.207-.486,3.4,3.4,0,0,1,.3-.45,2.481,2.481,0,0,1,.9-.729,2.653,2.653,0,0,1,1.17-.261,2.653,2.653,0,0,1,1.17.261,2.481,2.481,0,0,1,.9.729,4.284,4.284,0,0,1,.306.45A2.584,2.584,0,0,1,92.34-11a2.643,2.643,0,0,1,.117.639q.027.369.027.891,0,.576-.018.972a2.975,2.975,0,0,1-.108.7,1.638,1.638,0,0,1-.279.549,3.434,3.434,0,0,1-.513.513,2.733,2.733,0,0,1,.513.5,1.7,1.7,0,0,1,.279.594,3.9,3.9,0,0,1,.108.837q.018.495.018,1.215,0,.594-.027.981a5.961,5.961,0,0,1-.081.675,1.855,1.855,0,0,1-.153.486,3.878,3.878,0,0,1-.243.414,2.6,2.6,0,0,1-.864.8,2.626,2.626,0,0,1-1.368.333A2.626,2.626,0,0,1,88.38-.225a2.6,2.6,0,0,1-.864-.8,3.878,3.878,0,0,1-.243-.414,1.855,1.855,0,0,1-.153-.486,5.961,5.961,0,0,1-.081-.675q-.027-.387-.027-.981,0-.72.018-1.215a3.9,3.9,0,0,1,.108-.837,1.7,1.7,0,0,1,.279-.594,2.733,2.733,0,0,1,.513-.5,3.434,3.434,0,0,1-.513-.513,1.638,1.638,0,0,1-.279-.549,2.975,2.975,0,0,1-.108-.7Q87.012-8.892,87.012-9.468Zm3.636,4.32a.854.854,0,0,0-.27-.639.878.878,0,0,0-.63-.261.878.878,0,0,0-.63.261.854.854,0,0,0-.27.639v2.52a.854.854,0,0,0,.27.639.878.878,0,0,0,.63.261.878.878,0,0,0,.63-.261.854.854,0,0,0,.27-.639ZM97.974,0l2.088-5.382-.036-.036a.72.72,0,0,1-.279.117,2.208,2.208,0,0,1-.5.045,1.8,1.8,0,0,1-.9-.234,1.827,1.827,0,0,1-.648-.594,1.573,1.573,0,0,1-.2-.387A2.488,2.488,0,0,1,97.4-7a6.585,6.585,0,0,1-.072-.819q-.018-.495-.018-1.251,0-.63.018-1.035A5.04,5.04,0,0,1,97.4-10.8a1.9,1.9,0,0,1,.117-.468,3.326,3.326,0,0,1,.207-.414,2.483,2.483,0,0,1,.963-.918,2.825,2.825,0,0,1,1.359-.324,2.713,2.713,0,0,1,1.35.333,2.616,2.616,0,0,1,.954.909,4.618,4.618,0,0,1,.216.414,2.156,2.156,0,0,1,.144.468q.036.288.054.693t.018,1.035q0,.594-.018.981t-.054.657q-.054.288-.117.513t-.153.477L100.026,0Zm1.17-7.794a.868.868,0,0,0,.27.666.894.894,0,0,0,.63.252.894.894,0,0,0,.63-.252.868.868,0,0,0,.27-.666V-10.17a.868.868,0,0,0-.27-.666.894.894,0,0,0-.63-.252.894.894,0,0,0-.63.252.868.868,0,0,0-.27.666Zm12.8-1.692a13.179,13.179,0,0,1,2.2,1.89c-.972.648-1.566,1.026-2.142,1.35a26.193,26.193,0,0,1-4.32,1.836,4.96,4.96,0,0,1,1.152,1.8,29.869,29.869,0,0,0,3.42-1.62V-.324a13.54,13.54,0,0,1-.108,1.782h2.088V.486H121.1v.972h2.052a12.081,12.081,0,0,1-.108-1.782V-4.95a10.879,10.879,0,0,1,.09-1.656,11.08,11.08,0,0,1-1.512.072h-5.832a23.983,23.983,0,0,0,5.418-5.2c.414-.54.432-.558.648-.828L120.8-13.7a9.889,9.889,0,0,1-1.584.09h-3.69c.306-.414.468-.63.936-1.314l-2.124-.522a13.76,13.76,0,0,1-6.39,5.814,4.5,4.5,0,0,1,1.224,1.512,18.665,18.665,0,0,0,4.86-3.744h4.734a18.7,18.7,0,0,1-3.078,3.114,15.66,15.66,0,0,0-2.25-1.8ZM114.21-4.77h6.912v3.546H114.21ZM146.07,1.6a13.834,13.834,0,0,1-2.286-3.582,12.176,12.176,0,0,1-.954-4.932,11.811,11.811,0,0,1,.936-4.77,14.027,14.027,0,0,1,2.286-3.582h-2.52a14.53,14.53,0,0,0-1.98,3.546,12.738,12.738,0,0,0-.918,4.806,13.246,13.246,0,0,0,.954,4.968A14.417,14.417,0,0,0,143.55,1.6Zm12.006-6.03v1.17h-5.04a14.909,14.909,0,0,1-1.98-.09v2a16.783,16.783,0,0,1,2.142-.108h4.878v1.17a9.64,9.64,0,0,1-.108,1.818h2.214a8.292,8.292,0,0,1-.126-1.818v-1.17h5.058a16.9,16.9,0,0,1,2.16.108v-2a14.131,14.131,0,0,1-1.962.09h-5.256v-1.17h3.78c.738,0,1.278.018,1.908.054a16.348,16.348,0,0,1-.072-1.854V-9.972a16.616,16.616,0,0,1,.072-1.908,16.219,16.219,0,0,1-1.908.072,28.212,28.212,0,0,0,1.71-2.538l-2.106-.666a13.376,13.376,0,0,1-1.764,3.2h-6.822l1.368-.576a13.8,13.8,0,0,0-1.782-2.538l-1.782.756a9.947,9.947,0,0,1,1.6,2.358,12.654,12.654,0,0,1-1.656-.072,17.44,17.44,0,0,1,.072,1.908v3.8a17.379,17.379,0,0,1-.072,1.8c.612-.036,1.1-.054,1.908-.054Zm1.98-4.536v-1.224h3.69v1.224Zm-1.98,0H154.6v-1.224h3.474Zm1.98,2.9V-7.452h3.69v1.386Zm-1.98,0H154.6V-7.452h3.474Zm2.484-6.5a13.49,13.49,0,0,0-1.458-2.664l-1.854.522a11.257,11.257,0,0,1,1.4,2.79Zm15.7,9.522a6.922,6.922,0,0,1,1.062,1.476,12.877,12.877,0,0,0,1.89-1.962v1.692a8.918,8.918,0,0,1,1.278-.072h1.26v1.44a14.363,14.363,0,0,1-.126,1.962h2.142a13.827,13.827,0,0,1-.126-1.962v-1.44h1.35a8.973,8.973,0,0,1,1.314.072v-1.71a17.687,17.687,0,0,0,2.016,2.088,8.935,8.935,0,0,1,1.242-1.854,14.3,14.3,0,0,1-3.06-3.006,15.693,15.693,0,0,1-2.106-3.618h2.646a17.939,17.939,0,0,1,2.016.108v-2.034a17.137,17.137,0,0,1-2.07.108h-3.33v-1.62a12.812,12.812,0,0,1,.108-1.71H181.62a10.248,10.248,0,0,1,.126,1.692v1.638h-2.628c-.7,0-1.4-.036-1.962-.09v2.016a16.712,16.712,0,0,1,1.908-.108h1.926a15.4,15.4,0,0,1-4.734,6.516v-7.056a39.069,39.069,0,0,0,1.692-4.212l-2-.54a15.072,15.072,0,0,1-3.78,7.362,10.591,10.591,0,0,1,.792,2.178,10.024,10.024,0,0,0,1.4-1.926c-.036.792-.036,1.08-.036,2.034V-.612a17.566,17.566,0,0,1-.108,2.106h2.124a16.223,16.223,0,0,1-.09-2.088Zm7.38-.63v-2.25c0-.72,0-1.152-.036-2.16a19.559,19.559,0,0,0,2.556,4.356,11.864,11.864,0,0,1-1.206.054Zm-1.89,0h-1.188a10.78,10.78,0,0,1-1.188-.054,15.929,15.929,0,0,0,2.412-4.3c-.036.846-.036,1.224-.036,2.16ZM196.452,1.6a15.037,15.037,0,0,0,1.962-3.546,13.518,13.518,0,0,0,.936-4.968,12.738,12.738,0,0,0-.918-4.806,14.367,14.367,0,0,0-1.962-3.546h-2.538a14.706,14.706,0,0,1,2.3,3.582,11.685,11.685,0,0,1,.918,4.77A12.116,12.116,0,0,1,196.2-1.98,13.834,13.834,0,0,1,193.914,1.6Z" transform="translate(930.38 3941.136)" fill="#0052aa"/>
    <g transform="matrix(1, 0, 0, 1, 845.65, 3754.07)" filter="url(#長方形_215)">
      <rect id="長方形_215-2" data-name="長方形 215" width="486" height="85" transform="translate(36.35 75.93)" fill="url(#linear-gradient-2)"/>
    </g>
    <path id="パス_1166" data-name="パス 1166" d="M11.15-15.6a17.04,17.04,0,0,1-2.475-.125v2.7a20.166,20.166,0,0,1,2.675-.125h3.1V-2.825A7.243,7.243,0,0,1,11.75-6a32.392,32.392,0,0,0,.45-3.325c.075-.725.125-1,.2-1.425l-2.8-.375a4.056,4.056,0,0,1,.025.575,22.247,22.247,0,0,1-.65,4.925A15.42,15.42,0,0,1,6.525-.1a8.954,8.954,0,0,1,2.125,2,19.248,19.248,0,0,0,2.325-4.875,8.7,8.7,0,0,0,2.5,2.55c1.9,1.25,4.6,1.875,8.075,1.875.15,0,.85,0,2.05-.025a14.908,14.908,0,0,1,.725-2.9c-1.625.1-2.375.125-3.25.125a16.212,16.212,0,0,1-3.925-.4V-6.825h3.1a19.132,19.132,0,0,1,2.525.125V-9.375A17.68,17.68,0,0,1,20.3-9.25H17.15v-3.9H21a21.918,21.918,0,0,1,2.65.125v-2.7a17.373,17.373,0,0,1-2.525.125h-1.95a30.374,30.374,0,0,0,2.45-4.5l-2.75-.85a20.569,20.569,0,0,1-2.55,5.35h-3.3l1.95-.925a20.738,20.738,0,0,0-2.8-4.45L9.85-19.825a15.078,15.078,0,0,1,2.5,4.225ZM6.125-21.175a14.393,14.393,0,0,1-5.3,4.8A10.77,10.77,0,0,1,2.25-14.05,25.29,25.29,0,0,0,7.9-19.025a4.508,4.508,0,0,1,.45-.5ZM3.575-.825a23.665,23.665,0,0,1-.15,2.9h2.9a28.911,28.911,0,0,1-.1-2.925v-9.9A20.4,20.4,0,0,0,7.6-12.65a11.991,11.991,0,0,1,.825-1.2L6.15-15.425A16.508,16.508,0,0,1,.6-8.975a11.5,11.5,0,0,1,1.125,2.75A12.3,12.3,0,0,0,3.625-8.1c-.05,1.65-.05,1.8-.05,2.875ZM41-11v1.2H36.05a17.752,17.752,0,0,1-2.55-.125v2.25A17.966,17.966,0,0,1,36.05-7.8H41v1.25H34.375a23.206,23.206,0,0,1-3-.15v2.5A27.481,27.481,0,0,1,34.4-4.35h4.65A17.972,17.972,0,0,1,30.875-.8,10.233,10.233,0,0,1,32.4,1.6,24.187,24.187,0,0,0,37.5-.5a13.9,13.9,0,0,0,3.6-2.75,16.833,16.833,0,0,0-.075,1.7v1.2a18.659,18.659,0,0,1-.15,2.55h2.95A14.224,14.224,0,0,1,43.65-.325V-1.55a17.112,17.112,0,0,0-.075-1.775c2.25,2.275,5.075,3.8,9.275,4.95a9.9,9.9,0,0,1,1.425-2.55,21.457,21.457,0,0,1-5.2-1.425,12.978,12.978,0,0,1-3.4-2H50.7a27.007,27.007,0,0,1,3,.15V-6.7a22.081,22.081,0,0,1-3.025.15H43.7V-7.8h5.225a18.352,18.352,0,0,1,2.575.125v-2.25a18.136,18.136,0,0,1-2.575.125H43.7V-11h6.525a18.352,18.352,0,0,1,2.575.125V-13.25a22.99,22.99,0,0,1-2.575.1h-2.9c.35-.625.45-.85.925-1.85h2.5c1.225,0,2.2.05,2.975.125v-2.5a20.272,20.272,0,0,1-2.825.15h-.7c.55-.775.95-1.4,1.55-2.4l-2.575-.95a13.34,13.34,0,0,1-1.8,3.35H45.8V-19a13.126,13.126,0,0,1,.125-1.95H43.2a17.806,17.806,0,0,1,.075,1.85v1.875H41.5V-19.1a16.837,16.837,0,0,1,.075-1.85H38.85A13.9,13.9,0,0,1,38.975-19v1.775H37.55A17.675,17.675,0,0,0,35.625-20.5l-2.5.95a10.567,10.567,0,0,1,1.7,2.325h-.8a21.185,21.185,0,0,1-2.85-.15v2.5c.8-.075,1.75-.125,2.975-.125h2.7c.275.475.55,1.05.925,1.85H34.75a22.707,22.707,0,0,1-2.575-.1v2.375A18.57,18.57,0,0,1,34.75-11Zm-.575-2.15a15.957,15.957,0,0,0-.75-1.85h5.7a14.58,14.58,0,0,1-.825,1.85Zm27.3,10.9c-1.8,1.025-3.525,1.525-7.1,2.075A8.064,8.064,0,0,1,62.15,2.3a29.69,29.69,0,0,0,3.825-1,21.754,21.754,0,0,0,4.55-2.225L68.95-2.25h6.8L74.4-1.025a18.808,18.808,0,0,0,8.35,3.35A8.38,8.38,0,0,1,84.3-.125,19.829,19.829,0,0,1,77.1-2.25h2c1.25,0,2.025.025,2.8.1a4.386,4.386,0,0,1-.075-1c0-.1-.025-.65-.025-1.625V-11.1a22.473,22.473,0,0,1,.1-2.675c-.875.075-1.575.1-2.8.1H65.8c-1.175,0-2.025-.025-2.775-.1a24.739,24.739,0,0,1,.1,2.675v6.325c0,1.25-.05,2-.1,2.625.8-.075,1.525-.1,2.775-.1ZM65.8-11.6H79.1v1.15H65.8Zm0,3.025H79.1v1.15H65.8Zm0,3.025H79.1v1.225H65.8ZM80.875-18.5a15.2,15.2,0,0,1,.1-1.925,21.727,21.727,0,0,1-2.825.125H66.8a22.152,22.152,0,0,1-2.85-.125,12.449,12.449,0,0,1,.125,1.925v1.925c0,.675-.05,1.25-.1,1.875.75-.05,1.625-.075,2.75-.075H78.25c1.1,0,1.95.025,2.7.075-.05-.575-.075-1.125-.075-1.875Zm-2.775.325V-16.8H66.825v-1.375Zm36.175,20.4A19.214,19.214,0,0,1,111.1-2.75a16.912,16.912,0,0,1-1.325-6.85,16.4,16.4,0,0,1,1.3-6.625A19.482,19.482,0,0,1,114.25-21.2h-3.5A20.181,20.181,0,0,0,108-16.275,17.692,17.692,0,0,0,106.725-9.6a18.4,18.4,0,0,0,1.325,6.9,20.023,20.023,0,0,0,2.725,4.925ZM130.95-6.15v1.625h-7a20.707,20.707,0,0,1-2.75-.125v2.775a23.31,23.31,0,0,1,2.975-.15h6.775V-.4a13.389,13.389,0,0,1-.15,2.525h3.075A11.517,11.517,0,0,1,133.7-.4V-2.025h7.025a23.475,23.475,0,0,1,3,.15V-4.65A19.627,19.627,0,0,1,141-4.525h-7.3V-6.15h5.25c1.025,0,1.775.025,2.65.075a22.7,22.7,0,0,1-.1-2.575v-5.2a23.076,23.076,0,0,1,.1-2.65,22.526,22.526,0,0,1-2.65.1,39.182,39.182,0,0,0,2.375-3.525L138.4-20.85a18.577,18.577,0,0,1-2.45,4.45h-9.475l1.9-.8a19.172,19.172,0,0,0-2.475-3.525l-2.475,1.05A13.816,13.816,0,0,1,125.65-16.4a17.574,17.574,0,0,1-2.3-.1,24.221,24.221,0,0,1,.1,2.65v5.275a24.137,24.137,0,0,1-.1,2.5c.85-.05,1.525-.075,2.65-.075Zm2.75-6.3v-1.7h5.125v1.7Zm-2.75,0h-4.825v-1.7h4.825Zm2.75,4.025V-10.35h5.125v1.925Zm-2.75,0h-4.825V-10.35h4.825Zm3.45-9.025a18.736,18.736,0,0,0-2.025-3.7l-2.575.725a15.633,15.633,0,0,1,1.95,3.875ZM156.2-4.225a9.613,9.613,0,0,1,1.475,2.05A17.885,17.885,0,0,0,160.3-4.9v2.35a12.386,12.386,0,0,1,1.775-.1h1.75v2a19.948,19.948,0,0,1-.175,2.725h2.975A19.2,19.2,0,0,1,166.45-.65v-2h1.875a12.462,12.462,0,0,1,1.825.1V-4.925a24.564,24.564,0,0,0,2.8,2.9A12.41,12.41,0,0,1,174.675-4.6a19.859,19.859,0,0,1-4.25-4.175A21.8,21.8,0,0,1,167.5-13.8h3.675a24.915,24.915,0,0,1,2.8.15v-2.825a23.8,23.8,0,0,1-2.875.15h-4.625v-2.25a17.8,17.8,0,0,1,.15-2.375H163.65a14.232,14.232,0,0,1,.175,2.35v2.275h-3.65c-.975,0-1.95-.05-2.725-.125v2.8a23.211,23.211,0,0,1,2.65-.15h2.675A21.385,21.385,0,0,1,156.2-4.75v-9.8a54.26,54.26,0,0,0,2.35-5.85l-2.775-.75a20.933,20.933,0,0,1-5.25,10.225,14.709,14.709,0,0,1,1.1,3.025,13.922,13.922,0,0,0,1.95-2.675c-.05,1.1-.05,1.5-.05,2.825v6.9a24.4,24.4,0,0,1-.15,2.925h2.95a22.535,22.535,0,0,1-.125-2.9ZM166.45-5.1V-8.225c0-1,0-1.6-.05-3a27.165,27.165,0,0,0,3.55,6.05,16.477,16.477,0,0,1-1.675.075Zm-2.625,0h-1.65a14.972,14.972,0,0,1-1.65-.075,22.122,22.122,0,0,0,3.35-5.975c-.05,1.175-.05,1.7-.05,3ZM184.25,2.225A20.885,20.885,0,0,0,186.975-2.7a18.776,18.776,0,0,0,1.3-6.9A17.692,17.692,0,0,0,187-16.275a19.954,19.954,0,0,0-2.725-4.925H180.75a20.426,20.426,0,0,1,3.2,4.975A16.23,16.23,0,0,1,185.225-9.6,16.828,16.828,0,0,1,183.9-2.75a19.214,19.214,0,0,1-3.175,4.975Zm40.2-18.25a5.464,5.464,0,0,1,2.525.75,6.194,6.194,0,0,1,3.075,5.55,7,7,0,0,1-3.475,6.25A13.286,13.286,0,0,1,221.6-2.1,7.975,7.975,0,0,1,223.125.825a16.344,16.344,0,0,0,3.925-1.05,9.631,9.631,0,0,0,6.075-9.325c0-5.625-3.9-9.275-9.9-9.275a11.222,11.222,0,0,0-8.6,3.5,10.739,10.739,0,0,0-2.75,7.275c0,4.025,2.05,6.925,4.9,6.925,2.05,0,3.65-1.475,5.075-4.7A36.167,36.167,0,0,0,224.45-16.025ZM221.4-16a32.948,32.948,0,0,1-2.075,8.45c-.9,2.15-1.75,3.2-2.575,3.2-1.1,0-1.975-1.625-1.975-3.675a8.37,8.37,0,0,1,3.4-6.75A6.364,6.364,0,0,1,221.4-16Zm23.875,9.8H244a20.952,20.952,0,0,1-2.725-.15V-3.5A21.5,21.5,0,0,1,244-3.65h8.4V-.575a18.22,18.22,0,0,1-.15,2.725h3.05a15.054,15.054,0,0,1-.15-2.675V-3.65h5.8a21.223,21.223,0,0,1,2.725.15V-6.35a20.421,20.421,0,0,1-2.725.15h-5.8v-4.05h4.1a23.527,23.527,0,0,1,2.5.1V-12.8a18.352,18.352,0,0,1-2.575.125H255.15v-3.25h5.1a18.4,18.4,0,0,1,2.55.125v-2.725a17.752,17.752,0,0,1-2.55.125h-11.7c.45-.975.7-1.5.725-1.575.175-.375.225-.45.375-.75l-2.975-.6a7.221,7.221,0,0,1-.6,1.825,15.519,15.519,0,0,1-4.875,6.275A10.943,10.943,0,0,1,243.05-11a23.053,23.053,0,0,0,4.125-4.925H252.4v3.25h-5.45c-.675,0-1.225-.025-1.75-.075a13.725,13.725,0,0,1,.075,1.45Zm2.625,0v-4.05h4.5V-6.2Zm43.375-5.925c.825-.075,1.45-.1,1.85-.1.15,0,.325,0,.725.025l-.075-2.825a19.5,19.5,0,0,1-2.725.35l-5.35.425a39.813,39.813,0,0,1-.25-4.525,9.563,9.563,0,0,1,.125-1.875l-3.025.05c.05.425.125,1.35.125,1.85.05,2.5.05,2.75.225,4.75l-2.275.175c-.625.05-1.425.1-1.9.1-.175,0-.375,0-.775-.025l.075,2.8a18.529,18.529,0,0,1,2.5-.3l2.65-.225c.65,4.575,2,8.125,4.2,10.875C288.7,1.075,290,1.95,291.2,1.95c1.775,0,2.65-1.6,3.225-5.875A10.333,10.333,0,0,1,292.05-5.55c-.25,2.975-.575,4.2-1.075,4.2-.45,0-1.6-1.25-2.45-2.65a19.782,19.782,0,0,1-2.55-7.7ZM274.25-1a19.941,19.941,0,0,1-.175,3.075h3.075a21.449,21.449,0,0,1-.175-3.025V-14.8a40.789,40.789,0,0,0,2.325-5.325l-2.85-.975a14.9,14.9,0,0,1-.975,3.275A21.714,21.714,0,0,1,270.45-10.4a10.032,10.032,0,0,1,1.325,2.875,17.38,17.38,0,0,0,2.55-3.125c-.05.95-.075,1.6-.075,2.875Zm12.4-18.025a23.948,23.948,0,0,1,1.875,1.925,14.431,14.431,0,0,1,1.825,2.2l2.075-1.9a34.935,34.935,0,0,0-3.825-3.875Zm23.625,11.95a30.451,30.451,0,0,1-.375,5.4c-.1.5-.375.675-1.075.675a17.062,17.062,0,0,1-2.625-.25,7.794,7.794,0,0,1,.625,2.75c1.1.1,1.675.125,2.225.125,2.15,0,2.825-.375,3.25-1.725a34.628,34.628,0,0,0,.625-7.75c.025-1,.025-1.25.075-1.75a15.778,15.778,0,0,1-2.375.125h-3.45c.05-.95.075-1.075.1-2.425H309.9c1.425,0,2.325.025,3.15.1a18.769,18.769,0,0,1-.1-2.6v-3.25a26.362,26.362,0,0,1,.1-2.65,22.06,22.06,0,0,1-3.075.125h-5.05A25.055,25.055,0,0,1,301.8-20.3c.075.95.1,1.475.1,2.75v3.025c0,1.275-.025,1.85-.1,2.725a25.062,25.062,0,0,1,2.775-.1,29.329,29.329,0,0,1-.425,4.825C303.6-3.95,302.725-2.25,300.7-.5a7.7,7.7,0,0,1,1.875,2.45,12.689,12.689,0,0,0,2.9-3.925,16.872,16.872,0,0,0,1.425-5.1Zm-5.725-10.75h5.8v3.575h-5.8Zm10.4-1.7a23.022,23.022,0,0,1,.15,3.05v9.5a19.177,19.177,0,0,1-.125,2.925h2.875a20.835,20.835,0,0,1-.125-2.975v-9.45a19.363,19.363,0,0,1,.15-3.05Zm5.4-1.275a29.737,29.737,0,0,1,.175,3.4V-1.775c0,.6-.25.75-1.2.75a31.11,31.11,0,0,1-3.4-.25,11.068,11.068,0,0,1,.85,2.8c1.175.05,1.525.075,2.075.075,3.65,0,4.35-.5,4.35-3.025V-17.4a26.145,26.145,0,0,1,.175-3.4ZM350.125-1.725c0,.725-.125.8-1.35.8a23.379,23.379,0,0,1-3.25-.275,9.312,9.312,0,0,1,.775,2.85c1,.05,1.75.075,2.425.075,2.35,0,3.25-.2,3.8-.9.3-.375.375-.75.375-1.8V-15.3a21.452,21.452,0,0,1,.1-2.425,21.682,21.682,0,0,1-2.85.125h-6.375c.025-.4.025-.4.05-.925.05-1.025.05-1.025.075-1.375a5.9,5.9,0,0,1,.15-1.25h-3.125a12.961,12.961,0,0,1,.15,2.2c0,.425,0,.775-.025,1.35h-6.125a23.75,23.75,0,0,1-2.9-.125,22.024,22.024,0,0,1,.1,2.425V-1.05a20.982,20.982,0,0,1-.175,3.025h3.075A20.617,20.617,0,0,1,334.9-1V-5.85a9.363,9.363,0,0,1,1.6,2.1,14.336,14.336,0,0,0,4.75-4.425,11.125,11.125,0,0,0,1.2-2.375,18.59,18.59,0,0,0,6.025,6.35,9.538,9.538,0,0,1,1.65-2.35Zm0-13.375v8.275A16.878,16.878,0,0,1,346.2-9.75a14.68,14.68,0,0,1-2.825-4.15c.075-.45.1-.575.175-1.2Zm-15.225,0h5.925a12.746,12.746,0,0,1-1.775,5.2,11.363,11.363,0,0,1-4.15,3.75Zm41.9,4.8a21.861,21.861,0,0,0,1.4,6.15,17.477,17.477,0,0,0,3.95,6.2,11.844,11.844,0,0,1,1.9-2.6,12.84,12.84,0,0,1-3.525-4.85,17.184,17.184,0,0,1-1.275-4.9h1.625c.875,0,1.775.025,2.175.075a19.288,19.288,0,0,1-.075-2.625v-4.525a21.066,21.066,0,0,1,.1-2.725,17.35,17.35,0,0,1-2.7.125H374.55a19.675,19.675,0,0,1-2.85-.125c.075.95.1,1.85.1,4.15,0,8.75-.575,12.825-2.175,15.525V-4.25a16.009,16.009,0,0,1,.075-1.825A10.346,10.346,0,0,1,368.2-6h-4.475a9.591,9.591,0,0,1-1.675-.1,16.028,16.028,0,0,1,.1,1.975V-.4c0,.75-.05,1.7-.125,2.425h2.6V.775h2.625v.7h2.425c-.025-.35-.05-.65-.05-1.075a10.99,10.99,0,0,1,1.9,1.725A17.553,17.553,0,0,0,373.45-2.7a32.281,32.281,0,0,0,.925-7.6ZM364.55-3.825h2.7v2.35h-2.7Zm9.9-9.025c.05-1.575.05-2.15.05-3.325V-17.4h5.775v4.55Zm-12.275-5.025a16.094,16.094,0,0,1,2.025-.1h3.65a16.351,16.351,0,0,1,2.025.1V-20.35a11.315,11.315,0,0,1-2.025.125H364.2a10.98,10.98,0,0,1-2.025-.125ZM361.2-14.25a16.094,16.094,0,0,1,2.025-.1h5.55a11.3,11.3,0,0,1,1.9.1v-2.575a13.8,13.8,0,0,1-2,.1h-5.45a11.146,11.146,0,0,1-2.025-.125Zm.975,3.525a13.4,13.4,0,0,1,1.6-.075h4.4a13.661,13.661,0,0,1,1.55.075V-13.05a8.515,8.515,0,0,1-1.55.075h-4.4a9.291,9.291,0,0,1-1.6-.075Zm0,3.5A13.23,13.23,0,0,1,363.75-7.3h4.4a13.229,13.229,0,0,1,1.575.075V-9.55a11.426,11.426,0,0,1-1.55.075h-4.4a12.565,12.565,0,0,1-1.6-.075Z" transform="translate(924.38 3882.136)" fill="#fff"/>
    <path id="パス_1168" data-name="パス 1168" d="M1.632,0V-4.608l8.832-16.656a6.081,6.081,0,0,0,.768-2.184q.1-.936.1-2.328,0-.624-.024-1.32a3.2,3.2,0,0,0-.264-1.224,2.273,2.273,0,0,0-.72-.888,2.292,2.292,0,0,0-1.392-.36,2.42,2.42,0,0,0-1.752.624,2.417,2.417,0,0,0-.648,1.824v2.784h-4.9v-2.688a7.233,7.233,0,0,1,.576-2.88,7.431,7.431,0,0,1,1.584-2.352,7.188,7.188,0,0,1,2.3-1.608,6.984,6.984,0,0,1,2.88-.6,7.177,7.177,0,0,1,3.288.7,6.559,6.559,0,0,1,2.28,1.9,8.266,8.266,0,0,1,1.272,2.736,12.669,12.669,0,0,1,.408,3.264q0,1.248-.048,2.088a12.634,12.634,0,0,1-.192,1.608,7.086,7.086,0,0,1-.48,1.536q-.336.768-.912,1.872L7.392-4.9h8.832V0ZM24.288-27.12a7.464,7.464,0,0,1,.6-3.072A7.188,7.188,0,0,1,26.5-32.5a6.918,6.918,0,0,1,2.328-1.464,7.672,7.672,0,0,1,2.76-.5,7.672,7.672,0,0,1,2.76.5A6.918,6.918,0,0,1,36.672-32.5a7.188,7.188,0,0,1,1.608,2.3,7.465,7.465,0,0,1,.6,3.072V-7.056a7.464,7.464,0,0,1-.6,3.072,7.188,7.188,0,0,1-1.608,2.3A6.918,6.918,0,0,1,34.344-.216a7.672,7.672,0,0,1-2.76.5,7.672,7.672,0,0,1-2.76-.5A6.918,6.918,0,0,1,26.5-1.68a7.188,7.188,0,0,1-1.608-2.3,7.464,7.464,0,0,1-.6-3.072Zm4.9,20.064A2.421,2.421,0,0,0,29.856-5.3a2.3,2.3,0,0,0,1.728.7,2.3,2.3,0,0,0,1.728-.7,2.421,2.421,0,0,0,.672-1.752V-27.12a2.421,2.421,0,0,0-.672-1.752,2.3,2.3,0,0,0-1.728-.7,2.3,2.3,0,0,0-1.728.7,2.421,2.421,0,0,0-.672,1.752ZM86.16-23.28c1.584-.144,2.784-.192,3.552-.192.288,0,.624,0,1.392.048l-.144-5.424a37.448,37.448,0,0,1-5.232.672l-10.272.816a76.445,76.445,0,0,1-.48-8.688,18.362,18.362,0,0,1,.24-3.6l-5.808.1c.1.816.24,2.592.24,3.552.1,4.8.1,5.28.432,9.12l-4.368.336c-1.2.1-2.736.192-3.648.192-.336,0-.72,0-1.488-.048l.144,5.376a35.577,35.577,0,0,1,4.8-.576l5.088-.432c1.248,8.784,3.84,15.6,8.064,20.88,2.544,3.216,5.04,4.9,7.344,4.9,3.408,0,5.088-3.072,6.192-11.28a19.839,19.839,0,0,1-4.56-3.12c-.48,5.712-1.1,8.064-2.064,8.064-.864,0-3.072-2.4-4.7-5.088-2.448-3.984-3.936-8.5-4.9-14.784ZM53.472-1.92a38.287,38.287,0,0,1-.336,5.9h5.9A41.181,41.181,0,0,1,58.7-1.824V-28.416A78.316,78.316,0,0,0,63.168-38.64L57.7-40.512a28.616,28.616,0,0,1-1.872,6.288,41.69,41.69,0,0,1-9.648,14.256,19.261,19.261,0,0,1,2.544,5.52,33.37,33.37,0,0,0,4.9-6c-.1,1.824-.144,3.072-.144,5.52ZM77.28-36.528a45.988,45.988,0,0,1,3.6,3.7,27.707,27.707,0,0,1,3.5,4.224l3.984-3.648a67.077,67.077,0,0,0-7.344-7.44Zm41.328,4.512v7.008h7.008v-7.008Zm0,20.544v7.008h7.008v-7.008ZM154.142,0V-9.12l17.48-32.965a12.036,12.036,0,0,0,1.52-4.323q.19-1.853.19-4.607,0-1.235-.048-2.612a6.34,6.34,0,0,0-.522-2.423,4.5,4.5,0,0,0-1.425-1.757,4.537,4.537,0,0,0-2.755-.713,4.789,4.789,0,0,0-3.467,1.235,4.784,4.784,0,0,0-1.283,3.61v5.51h-9.69v-5.32a14.316,14.316,0,0,1,1.14-5.7,14.708,14.708,0,0,1,3.135-4.655,14.226,14.226,0,0,1,4.56-3.182,13.822,13.822,0,0,1,5.7-1.187,14.205,14.205,0,0,1,6.508,1.378A12.982,12.982,0,0,1,179.7-63.08a16.36,16.36,0,0,1,2.518,5.415,25.074,25.074,0,0,1,.807,6.46q0,2.47-.1,4.132a25.005,25.005,0,0,1-.38,3.182,14.024,14.024,0,0,1-.95,3.04q-.665,1.52-1.8,3.705L165.542-9.69h17.48V0Zm56.335-39.14q4.37,0,6.032-1.045t1.663-4.845v-8.74a4.723,4.723,0,0,0-1.283-3.42,4.592,4.592,0,0,0-3.467-1.33,4.091,4.091,0,0,0-3.658,1.615,5.61,5.61,0,0,0-1.092,3.135v5.51h-9.69v-5.6a14.081,14.081,0,0,1,1.14-5.6,13.628,13.628,0,0,1,3.135-4.56,15.579,15.579,0,0,1,4.655-3.04,14.316,14.316,0,0,1,5.7-1.14,12.659,12.659,0,0,1,6.6,1.567,15.2,15.2,0,0,1,3.943,3.183,20.758,20.758,0,0,1,1.663,2.28,11.1,11.1,0,0,1,1.188,2.755,37.881,37.881,0,0,1,.855,9.31q0,3.515-.143,5.7a11.924,11.924,0,0,1-.712,3.61,7.22,7.22,0,0,1-1.853,2.565,21.971,21.971,0,0,1-3.277,2.28,18.4,18.4,0,0,1,3.467,2.66,7.822,7.822,0,0,1,1.758,2.85,14.722,14.722,0,0,1,.665,4.038q.1,2.327.1,5.938,0,3.325-.143,5.51a28.352,28.352,0,0,1-.428,3.61,11.26,11.26,0,0,1-.76,2.565A15.636,15.636,0,0,1,225.3-5.605a15.349,15.349,0,0,1-4.607,4.418A13.7,13.7,0,0,1,213.327.57a17.078,17.078,0,0,1-4.845-.76,13.209,13.209,0,0,1-4.655-2.47,13.411,13.411,0,0,1-3.467-4.465,14.973,14.973,0,0,1-1.378-6.745v-5.51h9.69v5.035a5.507,5.507,0,0,0,1.283,3.752,4.363,4.363,0,0,0,3.467,1.473,4.363,4.363,0,0,0,3.467-1.473,5.792,5.792,0,0,0,1.283-3.942v-9.69q0-3.99-1.52-5.225a4.227,4.227,0,0,0-2.327-.95,31.275,31.275,0,0,0-3.847-.19ZM253.792-25.3a35.146,35.146,0,0,1,5.856,5.04c-2.592,1.728-4.176,2.736-5.712,3.6a69.848,69.848,0,0,1-11.52,4.9,13.226,13.226,0,0,1,3.072,4.8,79.652,79.652,0,0,0,9.12-4.32V-.864a36.106,36.106,0,0,1-.288,4.752h5.568V1.3h18.336V3.888H283.7a32.218,32.218,0,0,1-.288-4.752V-13.2a29.011,29.011,0,0,1,.24-4.416,29.547,29.547,0,0,1-4.032.192H264.064A63.955,63.955,0,0,0,278.512-31.3c1.1-1.44,1.152-1.488,1.728-2.208l-2.832-3.024a26.37,26.37,0,0,1-4.224.24h-9.84c.816-1.1,1.248-1.68,2.5-3.5l-5.664-1.392c-2.832,5.9-9.168,11.664-17.04,15.5a11.99,11.99,0,0,1,3.264,4.032,49.774,49.774,0,0,0,12.96-9.984h12.624a49.874,49.874,0,0,1-8.208,8.3,41.759,41.759,0,0,0-6-4.8ZM259.84-12.72h18.432v9.456H259.84Z" transform="translate(931 4054)" fill="#0052aa"/>
    <path id="パス_1170" data-name="パス 1170" d="M10.176,0V-5.088H.432V-9.7l7.056-24.48h5.184L5.328-9.7h4.848V-19.44h4.9V-9.7h2.352v4.608H15.072V0ZM24.288-27.12a7.464,7.464,0,0,1,.6-3.072A7.188,7.188,0,0,1,26.5-32.5a6.918,6.918,0,0,1,2.328-1.464,7.672,7.672,0,0,1,2.76-.5,7.672,7.672,0,0,1,2.76.5A6.918,6.918,0,0,1,36.672-32.5a7.188,7.188,0,0,1,1.608,2.3,7.465,7.465,0,0,1,.6,3.072V-7.056a7.464,7.464,0,0,1-.6,3.072,7.188,7.188,0,0,1-1.608,2.3A6.918,6.918,0,0,1,34.344-.216a7.672,7.672,0,0,1-2.76.5,7.672,7.672,0,0,1-2.76-.5A6.918,6.918,0,0,1,26.5-1.68a7.188,7.188,0,0,1-1.608-2.3,7.464,7.464,0,0,1-.6-3.072Zm4.9,20.064A2.421,2.421,0,0,0,29.856-5.3a2.3,2.3,0,0,0,1.728.7,2.3,2.3,0,0,0,1.728-.7,2.421,2.421,0,0,0,.672-1.752V-27.12a2.421,2.421,0,0,0-.672-1.752,2.3,2.3,0,0,0-1.728-.7,2.3,2.3,0,0,0-1.728.7,2.421,2.421,0,0,0-.672,1.752ZM86.16-23.28c1.584-.144,2.784-.192,3.552-.192.288,0,.624,0,1.392.048l-.144-5.424a37.448,37.448,0,0,1-5.232.672l-10.272.816a76.445,76.445,0,0,1-.48-8.688,18.362,18.362,0,0,1,.24-3.6l-5.808.1c.1.816.24,2.592.24,3.552.1,4.8.1,5.28.432,9.12l-4.368.336c-1.2.1-2.736.192-3.648.192-.336,0-.72,0-1.488-.048l.144,5.376a35.577,35.577,0,0,1,4.8-.576l5.088-.432c1.248,8.784,3.84,15.6,8.064,20.88,2.544,3.216,5.04,4.9,7.344,4.9,3.408,0,5.088-3.072,6.192-11.28a19.839,19.839,0,0,1-4.56-3.12c-.48,5.712-1.1,8.064-2.064,8.064-.864,0-3.072-2.4-4.7-5.088-2.448-3.984-3.936-8.5-4.9-14.784ZM53.472-1.92a38.287,38.287,0,0,1-.336,5.9h5.9A41.181,41.181,0,0,1,58.7-1.824V-28.416A78.316,78.316,0,0,0,63.168-38.64L57.7-40.512a28.616,28.616,0,0,1-1.872,6.288,41.69,41.69,0,0,1-9.648,14.256,19.261,19.261,0,0,1,2.544,5.52,33.37,33.37,0,0,0,4.9-6c-.1,1.824-.144,3.072-.144,5.52ZM77.28-36.528a45.988,45.988,0,0,1,3.6,3.7,27.707,27.707,0,0,1,3.5,4.224l3.984-3.648a67.077,67.077,0,0,0-7.344-7.44Zm41.328,4.512v7.008h7.008v-7.008Zm0,20.544v7.008h7.008v-7.008Zm46.874-27.256q4.324,0,5.969-1.034t1.645-4.794V-53.2a4.673,4.673,0,0,0-1.269-3.384A4.544,4.544,0,0,0,168.4-57.9a4.048,4.048,0,0,0-3.619,1.6,5.551,5.551,0,0,0-1.081,3.1v5.452h-9.588V-53.3a13.932,13.932,0,0,1,1.128-5.546,13.485,13.485,0,0,1,3.1-4.512,15.415,15.415,0,0,1,4.606-3.008,14.165,14.165,0,0,1,5.64-1.128,12.526,12.526,0,0,1,6.533,1.551,15.043,15.043,0,0,1,3.9,3.149,20.539,20.539,0,0,1,1.645,2.256,10.98,10.98,0,0,1,1.175,2.726,37.482,37.482,0,0,1,.846,9.212q0,3.478-.141,5.64a11.8,11.8,0,0,1-.705,3.572,7.144,7.144,0,0,1-1.833,2.538,21.74,21.74,0,0,1-3.243,2.256,18.209,18.209,0,0,1,3.431,2.632,7.74,7.74,0,0,1,1.739,2.82,14.567,14.567,0,0,1,.658,3.995q.094,2.3.094,5.875,0,3.29-.141,5.452a28.052,28.052,0,0,1-.423,3.572,11.142,11.142,0,0,1-.752,2.538,15.47,15.47,0,0,1-1.222,2.162,15.188,15.188,0,0,1-4.559,4.371A13.553,13.553,0,0,1,168.3.564a16.9,16.9,0,0,1-4.794-.752A13.07,13.07,0,0,1,158.9-2.632a13.269,13.269,0,0,1-3.431-4.418,14.816,14.816,0,0,1-1.363-6.674v-5.452H163.7v4.982a5.449,5.449,0,0,0,1.269,3.713A4.318,4.318,0,0,0,168.4-9.024a4.318,4.318,0,0,0,3.431-1.457,5.731,5.731,0,0,0,1.269-3.9V-23.97q0-3.948-1.5-5.17a4.183,4.183,0,0,0-2.3-.94,30.946,30.946,0,0,0-3.807-.188Zm61.57-28.2V-57.9H208.064v18.048a10.74,10.74,0,0,1,3.384-2.209,11.5,11.5,0,0,1,4.606-.893A10.933,10.933,0,0,1,224-40q3.055,2.961,3.055,8.883v17.3A14.618,14.618,0,0,1,225.877-7.8a14.077,14.077,0,0,1-3.149,4.512,13.548,13.548,0,0,1-4.559,2.867,15.024,15.024,0,0,1-5.4.987,15.024,15.024,0,0,1-5.405-.987A13.548,13.548,0,0,1,202.8-3.29,14.077,14.077,0,0,1,199.651-7.8a14.618,14.618,0,0,1-1.175-6.016v-2.82h9.588v2.444a5.146,5.146,0,0,0,1.363,3.807,4.77,4.77,0,0,0,3.525,1.363,4.24,4.24,0,0,0,3.337-1.316,5.313,5.313,0,0,0,1.175-3.666V-29.7a4.884,4.884,0,0,0-1.269-3.384,4.168,4.168,0,0,0-3.243-1.41,4.59,4.59,0,0,0-2.068.423,5.367,5.367,0,0,0-1.41.987,3.9,3.9,0,0,0-.846,1.222q-.47.846-.564,1.034H199.6v-36.1Zm25.8,41.632a35.144,35.144,0,0,1,5.856,5.04c-2.592,1.728-4.176,2.736-5.712,3.6a69.848,69.848,0,0,1-11.52,4.9,13.226,13.226,0,0,1,3.072,4.8,79.652,79.652,0,0,0,9.12-4.32V-.864a36.106,36.106,0,0,1-.288,4.752h5.568V1.3H277.28V3.888h5.472a32.218,32.218,0,0,1-.288-4.752V-13.2a29.015,29.015,0,0,1,.24-4.416,29.546,29.546,0,0,1-4.032.192H263.12A63.955,63.955,0,0,0,277.568-31.3c1.1-1.44,1.152-1.488,1.728-2.208l-2.832-3.024a26.37,26.37,0,0,1-4.224.24H262.4c.816-1.1,1.248-1.68,2.5-3.5l-5.664-1.392c-2.832,5.9-9.168,11.664-17.04,15.5a11.99,11.99,0,0,1,3.264,4.032,49.774,49.774,0,0,0,12.96-9.984H271.04a49.873,49.873,0,0,1-8.208,8.3,41.759,41.759,0,0,0-6-4.8ZM258.9-12.72h18.432v9.456H258.9Z" transform="translate(931 4154)" fill="#0052aa"/>
    <path id="パス_1172" data-name="パス 1172" d="M10.234-24.208,6.29-14.042l.068.068a1.359,1.359,0,0,1,.527-.221,4.171,4.171,0,0,1,.935-.085,3.4,3.4,0,0,1,1.7.442,3.45,3.45,0,0,1,1.224,1.122,3.842,3.842,0,0,1,.374.748,5.728,5.728,0,0,1,.238.986q.068.612.1,1.547t.034,2.363q0,1.19-.034,1.955t-.1,1.275a4.778,4.778,0,0,1-.255.918,6.282,6.282,0,0,1-.391.782A4.69,4.69,0,0,1,8.891-.408,5.336,5.336,0,0,1,6.324.2a5.124,5.124,0,0,1-2.55-.629,4.941,4.941,0,0,1-1.8-1.717,4.485,4.485,0,0,1-.425-.782,3.635,3.635,0,0,1-.221-.918A8.616,8.616,0,0,1,1.19-5.117q-.034-.765-.034-1.955,0-1.122.034-1.853t.1-1.275a5.419,5.419,0,0,1,.2-.935q.136-.425.306-.9L6.358-24.208ZM8.024-9.486a1.64,1.64,0,0,0-.51-1.258,1.689,1.689,0,0,0-1.19-.476,1.689,1.689,0,0,0-1.19.476,1.64,1.64,0,0,0-.51,1.258V-5a1.64,1.64,0,0,0,.51,1.258,1.689,1.689,0,0,0,1.19.476,1.689,1.689,0,0,0,1.19-.476A1.64,1.64,0,0,0,8.024-5ZM17.2-19.21a5.287,5.287,0,0,1,.425-2.176,5.092,5.092,0,0,1,1.139-1.632,4.9,4.9,0,0,1,1.649-1.037,5.434,5.434,0,0,1,1.955-.357,5.434,5.434,0,0,1,1.955.357,4.9,4.9,0,0,1,1.649,1.037,5.092,5.092,0,0,1,1.139,1.632,5.287,5.287,0,0,1,.425,2.176V-5a5.287,5.287,0,0,1-.425,2.176A5.092,5.092,0,0,1,25.976-1.19,4.9,4.9,0,0,1,24.327-.153,5.434,5.434,0,0,1,22.372.2a5.434,5.434,0,0,1-1.955-.357A4.9,4.9,0,0,1,18.768-1.19a5.092,5.092,0,0,1-1.139-1.632A5.287,5.287,0,0,1,17.2-5ZM20.672-5a1.715,1.715,0,0,0,.476,1.241,1.627,1.627,0,0,0,1.224.493A1.627,1.627,0,0,0,23.6-3.757,1.715,1.715,0,0,0,24.072-5V-19.21a1.715,1.715,0,0,0-.476-1.241,1.627,1.627,0,0,0-1.224-.493,1.627,1.627,0,0,0-1.224.493,1.715,1.715,0,0,0-.476,1.241ZM61.03-16.49c1.122-.1,1.972-.136,2.516-.136.2,0,.442,0,.986.034l-.1-3.842a26.526,26.526,0,0,1-3.706.476l-7.276.578a54.149,54.149,0,0,1-.34-6.154,13.007,13.007,0,0,1,.17-2.55l-4.114.068c.068.578.17,1.836.17,2.516.068,3.4.068,3.74.306,6.46l-3.094.238c-.85.068-1.938.136-2.584.136-.238,0-.51,0-1.054-.034l.1,3.808a25.2,25.2,0,0,1,3.4-.408l3.6-.306c.884,6.222,2.72,11.05,5.712,14.79,1.8,2.278,3.57,3.468,5.2,3.468,2.414,0,3.6-2.176,4.386-7.99a14.053,14.053,0,0,1-3.23-2.21c-.34,4.046-.782,5.712-1.462,5.712-.612,0-2.176-1.7-3.332-3.6a26.9,26.9,0,0,1-3.468-10.472ZM37.876-1.36a27.12,27.12,0,0,1-.238,4.182H41.82a29.17,29.17,0,0,1-.238-4.114V-20.128a55.474,55.474,0,0,0,3.162-7.242L40.868-28.7a20.27,20.27,0,0,1-1.326,4.454,29.531,29.531,0,0,1-6.834,10.1,13.643,13.643,0,0,1,1.8,3.91,23.637,23.637,0,0,0,3.468-4.25c-.068,1.292-.1,2.176-.1,3.91ZM54.74-25.874a32.574,32.574,0,0,1,2.55,2.618,19.625,19.625,0,0,1,2.482,2.992l2.822-2.584a47.514,47.514,0,0,0-5.2-5.27Zm40.29-1.938a13.884,13.884,0,0,1,.136,2.244q0,10.1-3.672,16.014C89.012-5.542,85.34-2.788,79.356-.476A15.588,15.588,0,0,1,81.532,2.89c5.1-2.142,8.636-4.658,11.39-8.126a26.5,26.5,0,0,0,7.31,7.854,14.957,14.957,0,0,1,2.38-3.876A19.628,19.628,0,0,1,95.2-8.568a24.334,24.334,0,0,0,2.142-4.964,45.641,45.641,0,0,0,1.632-9.486c.306-4.352.306-4.352.34-4.726ZM74.46-5.848a22.226,22.226,0,0,1-3.4,1.088L72.148-.612c.85-.408,1.088-.51,2.38-1.088A91,91,0,0,0,87.89-8.466l-.816-3.57a71.056,71.056,0,0,1-8.738,4.624l-.17-16.218v-.748a30.027,30.027,0,0,1,.17-3.332H74.018a31.105,31.105,0,0,1,.272,4.046Zm6.664-17.816a39.285,39.285,0,0,1,6.494,8.67l3.5-2.414a50.88,50.88,0,0,0-6.732-8.33Zm43.894,8.908h7.99a35.5,35.5,0,0,1,3.944.2V-18.6a34.631,34.631,0,0,1-3.944.2h-7.99v-5.814a27.435,27.435,0,0,1,.238-3.91H120.8a29.106,29.106,0,0,1,.238,3.91V-2.244h-7.752a44.865,44.865,0,0,1-4.692-.2v4.08a42.5,42.5,0,0,1,4.692-.238h21.59a37.1,37.1,0,0,1,4.522.238v-4.08a43.665,43.665,0,0,1-4.59.2h-9.792Zm33.8-7.922v4.964h4.964v-4.964Zm0,14.552v4.964h4.964V-8.126ZM196.112,0V-7.208h-13.8v-6.528l10-34.68h7.344l-10.4,34.68h6.868v-13.8h6.936v13.8h3.332v6.528h-3.332V0Zm27.03-17.918a24.9,24.9,0,0,1,4.148,3.57c-1.836,1.224-2.958,1.938-4.046,2.55a49.475,49.475,0,0,1-8.16,3.468,9.369,9.369,0,0,1,2.176,3.4,56.419,56.419,0,0,0,6.46-3.06V-.612a25.575,25.575,0,0,1-.2,3.366h3.944V.918h12.988V2.754h3.876a22.819,22.819,0,0,1-.2-3.366V-9.35a20.551,20.551,0,0,1,.17-3.128,20.929,20.929,0,0,1-2.856.136H230.418a45.3,45.3,0,0,0,10.234-9.826c.782-1.02.816-1.054,1.224-1.564l-2.006-2.142a18.679,18.679,0,0,1-2.992.17h-6.97c.578-.782.884-1.19,1.768-2.482l-4.012-.986c-2.006,4.182-6.494,8.262-12.07,10.982a8.493,8.493,0,0,1,2.312,2.856,35.257,35.257,0,0,0,9.18-7.072h8.942a35.327,35.327,0,0,1-5.814,5.882,29.579,29.579,0,0,0-4.25-3.4Zm4.284,8.908h13.056v6.7H227.426Z" transform="translate(931 4246.464)" fill="#0052aa"/>
    <g id="グループ_281" data-name="グループ 281" transform="translate(-1006 -2814.944)" opacity="0.52" style="isolation: isolate">
      <g id="グループ_280" data-name="グループ 280" transform="translate(2410 6627)">
        <g id="グループ_279" data-name="グループ 279" clip-path="url(#clip-path)">
          <path id="パス_837" data-name="パス 837" d="M2557.961,6782.553c-1.667-18.161-11.676-64.936-12.788-66.678s-3.615-1.244-3.615-1.244-6.951-2.488-17.238-6.468-21.718-7.78-21.718-7.78h-.531c-.047-.283-.095-.558-.131-.867a98.049,98.049,0,0,1,.376-10.908,19.543,19.543,0,0,0,1.67-2.2,56.416,56.416,0,0,0,4.27-9.662,3.718,3.718,0,0,0,3.146-1.795c.9-1.8.226-1.648.226-3s2.544-4.345,2.245-8.687c-.124-1.807-2.92-2.471-2.92-2.471s.9-5.842.9-7.189-.673-7.416-.9-8.764-2.473-7.862-4.494-9.886-8.314-5.618-10.561-6.067-8.314-2.246-13.031-1.8-11.833,6.366-11.833,6.366-4.569,1.049-6.141,2.4-3.745,11.46-3.3,15.278a39.864,39.864,0,0,0,1.946,7.864,4.223,4.223,0,0,0-3.146,2.172c-1.123,2.023,1.124,5.467,2.023,7.265s-.226,2.021.45,4.044a4.1,4.1,0,0,0,2.919,2.473,73.36,73.36,0,0,0,4.494,11.083,18.2,18.2,0,0,0,3.058,3.8,84.734,84.734,0,0,1,.292,9.684c-.036.31-.084.584-.129.867h-.992s-13.35,4.3-19.465,7.034-23.91,11.443-23.91,11.443a5.357,5.357,0,0,0-3.335.25c-1.391.746-1.391,6.968-1.669,10.2s-5,43.29-7.506,60.955-5.84,65.433-5.84,65.433l6.117,1.245s-4.727,10.2-3.892,14.678,3.892,9.953,7.229,9.953a3.118,3.118,0,0,0,1.667-.519v5.511h-5.4a3.564,3.564,0,0,0-3.554,3.553v80.613a3.567,3.567,0,0,0,3.556,3.556h17.952a3.567,3.567,0,0,0,3.556-3.556v-81.382a3.639,3.639,0,0,0-.088-.771c.928.328,5.144,1.794,10.33,3.165.335,8.283.7,16,1,19.562.824,9.605,4.12,30.474,4.12,39.24s3.3,111.87,3.3,111.87l9.068.419-.825,7.515s-4.12,7.513-4.533,12.521-2.884,25.046-2.061,27.134,7.419,5.844,14.424,1.67,14.012-21.706,14.012-24.629-.412-11.687-.412-15.445v-8.766l3.409-.6a61.292,61.292,0,0,0,4.422,6.443,63.4,63.4,0,0,0,16.071,13.775s5.77-.417,6.182-2.923-.412-8.765-1.648-14.191-5.769-15.027-7.417-17.117-2.062-10.433-2.062-10.433l6.182.834s7.417-42.159,10.3-51.344,14.012-45.081,14.012-48.84c0-2.345-.161-27.629-.283-46.3,5.154-.623,9.075-1.147,9.075-1.147l-.781-8.145a4.7,4.7,0,0,0,2.154-1.569c1.1-1.493,7.143-9.712,7.966-12.7s1.649-12.451,1.649-12.451h4.6s-.555-56.228-2.224-74.392m-71.264-74.2,14.481-7.041.918-.447s-.145,1.043-.4,2.78c-.066.453-.14.955-.22,1.5-.937,6.351-2.8,18.447-4.6,27.029a88.677,88.677,0,0,1-2.768,9.984l-4.121-16.727,4.943-10.034-8.251-4.837.012-.257-.224.132-.226-.132.013.257-8.251,4.837,4.945,10.034-2.988,12.122a115.49,115.49,0,0,1-4.354-10.924c-1.466-4.924-2.868-15.558-3.577-21.509v0c-.058-.472-.109-.916-.158-1.322-.208-1.8-.328-2.933-.328-2.933Zm-48.837,141.429c-.768,8.717-1.063,35.606-1.106,39.747a3.566,3.566,0,0,0-3.264-2.153h-8V6876.21a2.4,2.4,0,0,0,2.92-.864c1.946-2.239,1.946-6.22,1.946-8.707s-1.946-7.216-1.946-7.216l5.281-.248s0-12.44.557-19.157,4.448-57.97,4.448-57.97l1.39,46.027s-1.39,11.444-2.226,20.9m58.937,92.2c0,3.207-2.682,17.479-5.376,29.736.21-10.12.511-20.546.511-28.345,0-15.849-2.917-70.343-2.917-70.343s6.255,50.047,8.339,56.719-.557,7.228-.557,12.232m47.309-63.617-1.989-20.479s1.389,8.21,2.5,10.2a5.553,5.553,0,0,0,3.335,2.486s-2.28,4.19-3.847,7.791" transform="translate(-2409.377 -6626.983)" fill="#72cef1"/>
        </g>
      </g>
    </g>
    <path id="パス_1169" data-name="パス 1169" d="M5.425-14.42a4.512,4.512,0,0,0,2.222-.385q.613-.385.613-1.785v-3.22a1.74,1.74,0,0,0-.473-1.26,1.692,1.692,0,0,0-1.277-.49,1.507,1.507,0,0,0-1.348.595,2.067,2.067,0,0,0-.4,1.155v2.03H1.19v-2.065a5.188,5.188,0,0,1,.42-2.065,5.021,5.021,0,0,1,1.155-1.68A5.74,5.74,0,0,1,4.48-24.71a5.274,5.274,0,0,1,2.1-.42,4.664,4.664,0,0,1,2.432.577,5.6,5.6,0,0,1,1.453,1.173,7.647,7.647,0,0,1,.613.84,4.088,4.088,0,0,1,.437,1.015,13.956,13.956,0,0,1,.315,3.43q0,1.3-.053,2.1a4.393,4.393,0,0,1-.262,1.33,2.66,2.66,0,0,1-.682.945,8.094,8.094,0,0,1-1.208.84,6.78,6.78,0,0,1,1.278.98,2.882,2.882,0,0,1,.648,1.05A5.424,5.424,0,0,1,11.8-9.363q.035.858.035,2.188,0,1.225-.053,2.03a10.445,10.445,0,0,1-.157,1.33,4.149,4.149,0,0,1-.28.945,5.761,5.761,0,0,1-.455.805,5.655,5.655,0,0,1-1.7,1.628A5.046,5.046,0,0,1,6.475.21,6.292,6.292,0,0,1,4.69-.07,4.867,4.867,0,0,1,2.975-.98,4.941,4.941,0,0,1,1.7-2.625,5.516,5.516,0,0,1,1.19-5.11V-7.14H4.76v1.855A2.029,2.029,0,0,0,5.233-3.9,1.608,1.608,0,0,0,6.51-3.36,1.608,1.608,0,0,0,7.787-3.9,2.134,2.134,0,0,0,8.26-5.355v-3.57A2.456,2.456,0,0,0,7.7-10.85a1.557,1.557,0,0,0-.857-.35,11.523,11.523,0,0,0-1.418-.07ZM17.71-19.775a5.443,5.443,0,0,1,.438-2.24,5.241,5.241,0,0,1,1.172-1.68,5.044,5.044,0,0,1,1.7-1.067,5.594,5.594,0,0,1,2.013-.368,5.594,5.594,0,0,1,2.012.368,5.044,5.044,0,0,1,1.7,1.067,5.241,5.241,0,0,1,1.172,1.68,5.443,5.443,0,0,1,.438,2.24v14.63a5.443,5.443,0,0,1-.437,2.24,5.241,5.241,0,0,1-1.172,1.68,5.044,5.044,0,0,1-1.7,1.068A5.594,5.594,0,0,1,23.03.21a5.594,5.594,0,0,1-2.013-.368,5.044,5.044,0,0,1-1.7-1.068A5.241,5.241,0,0,1,18.148-2.9a5.443,5.443,0,0,1-.437-2.24Zm3.57,14.63a1.765,1.765,0,0,0,.49,1.277,1.674,1.674,0,0,0,1.26.507,1.674,1.674,0,0,0,1.26-.507,1.765,1.765,0,0,0,.49-1.277v-14.63a1.765,1.765,0,0,0-.49-1.278,1.674,1.674,0,0,0-1.26-.507,1.674,1.674,0,0,0-1.26.507,1.765,1.765,0,0,0-.49,1.278Zm41.545-11.83c1.155-.1,2.03-.14,2.59-.14.21,0,.455,0,1.015.035l-.105-3.955a27.306,27.306,0,0,1-3.815.49l-7.49.6a55.741,55.741,0,0,1-.35-6.335,13.389,13.389,0,0,1,.175-2.625l-4.235.07c.07.6.175,1.89.175,2.59.07,3.5.07,3.85.315,6.65l-3.185.245c-.875.07-1.995.14-2.66.14-.245,0-.525,0-1.085-.035l.105,3.92a25.941,25.941,0,0,1,3.5-.42l3.71-.315C52.4-9.66,54.285-4.69,57.365-.84,59.22,1.5,61.04,2.73,62.72,2.73c2.485,0,3.71-2.24,4.515-8.225A14.466,14.466,0,0,1,63.91-7.77c-.35,4.165-.805,5.88-1.505,5.88-.63,0-2.24-1.75-3.43-3.71A27.694,27.694,0,0,1,55.4-16.38ZM38.99-1.4a27.917,27.917,0,0,1-.245,4.3H43.05a30.028,30.028,0,0,1-.245-4.235V-20.72a57.105,57.105,0,0,0,3.255-7.455L42.07-29.54a20.866,20.866,0,0,1-1.365,4.585A30.4,30.4,0,0,1,33.67-14.56a14.044,14.044,0,0,1,1.855,4.025A24.332,24.332,0,0,0,39.1-14.91c-.07,1.33-.1,2.24-.1,4.025ZM56.35-26.635a33.531,33.531,0,0,1,2.625,2.695,20.2,20.2,0,0,1,2.555,3.08l2.9-2.66a48.911,48.911,0,0,0-5.355-5.425Zm30.135,3.29v5.11H91.6v-5.11Zm0,14.98v5.11H91.6v-5.11ZM120.735,0V-41.676L113.7-36.5v-7.452l7.038-5.175h7.038V0Zm45.2-49.128V-42.5H151.992v13.248a7.884,7.884,0,0,1,2.484-1.621,8.443,8.443,0,0,1,3.381-.656,8.025,8.025,0,0,1,5.831,2.173q2.243,2.174,2.243,6.521v12.7a10.73,10.73,0,0,1-.863,4.416,10.333,10.333,0,0,1-2.312,3.312,9.945,9.945,0,0,1-3.346,2.1,11.028,11.028,0,0,1-3.967.725,11.029,11.029,0,0,1-3.967-.725,9.945,9.945,0,0,1-3.346-2.1,10.333,10.333,0,0,1-2.312-3.312,10.73,10.73,0,0,1-.863-4.416v-2.07h7.038v1.794a3.778,3.778,0,0,0,1,2.794,3.5,3.5,0,0,0,2.587,1,3.113,3.113,0,0,0,2.449-.966,3.9,3.9,0,0,0,.863-2.691V-21.8a3.585,3.585,0,0,0-.932-2.484,3.06,3.06,0,0,0-2.38-1.035,3.369,3.369,0,0,0-1.518.311,3.94,3.94,0,0,0-1.035.725,2.865,2.865,0,0,0-.621.9q-.345.621-.414.759h-6.21v-26.5ZM184.8-18.445a25.626,25.626,0,0,1,4.27,3.675c-1.89,1.26-3.045,1.995-4.165,2.625a50.93,50.93,0,0,1-8.4,3.57,9.644,9.644,0,0,1,2.24,3.5,58.079,58.079,0,0,0,6.65-3.15v7.6a26.328,26.328,0,0,1-.21,3.465h4.06V.945h13.37v1.89h3.99A23.491,23.491,0,0,1,206.4-.63v-9a21.156,21.156,0,0,1,.175-3.22,21.545,21.545,0,0,1-2.94.14h-11.34A46.634,46.634,0,0,0,202.826-22.82c.805-1.05.84-1.085,1.26-1.61l-2.065-2.2a19.229,19.229,0,0,1-3.08.175h-7.175c.6-.805.91-1.225,1.82-2.555l-4.13-1.015c-2.065,4.3-6.685,8.5-12.425,11.3a8.743,8.743,0,0,1,2.38,2.94,36.294,36.294,0,0,0,9.45-7.28h9.205a36.365,36.365,0,0,1-5.985,6.055,30.449,30.449,0,0,0-4.375-3.5Zm4.41,9.17h13.44V-2.38h-13.44Z" transform="translate(1250.739 4042)" fill="#0052aa"/>
    <path id="パス_1171" data-name="パス 1171" d="M11.492-24.208v3.264H4.624v6.528a3.885,3.885,0,0,1,1.224-.8,4.16,4.16,0,0,1,1.666-.323,3.954,3.954,0,0,1,2.873,1.071,4.282,4.282,0,0,1,1.1,3.213V-5a5.287,5.287,0,0,1-.425,2.176A5.092,5.092,0,0,1,9.928-1.19,4.9,4.9,0,0,1,8.279-.153,5.434,5.434,0,0,1,6.324.2,5.434,5.434,0,0,1,4.369-.153,4.9,4.9,0,0,1,2.72-1.19,5.092,5.092,0,0,1,1.581-2.822,5.287,5.287,0,0,1,1.156-5v-1.02H4.624v.884a1.861,1.861,0,0,0,.493,1.377,1.725,1.725,0,0,0,1.275.493A1.534,1.534,0,0,0,7.6-3.74a1.922,1.922,0,0,0,.425-1.326v-5.678a1.767,1.767,0,0,0-.459-1.224,1.508,1.508,0,0,0-1.173-.51,1.66,1.66,0,0,0-.748.153,1.941,1.941,0,0,0-.51.357,1.412,1.412,0,0,0-.306.442q-.17.306-.2.374H1.564V-24.208Zm5.712,5a5.287,5.287,0,0,1,.425-2.176,5.092,5.092,0,0,1,1.139-1.632,4.9,4.9,0,0,1,1.649-1.037,5.434,5.434,0,0,1,1.955-.357,5.434,5.434,0,0,1,1.955.357,4.9,4.9,0,0,1,1.649,1.037,5.092,5.092,0,0,1,1.139,1.632,5.287,5.287,0,0,1,.425,2.176V-5a5.287,5.287,0,0,1-.425,2.176A5.092,5.092,0,0,1,25.976-1.19,4.9,4.9,0,0,1,24.327-.153,5.434,5.434,0,0,1,22.372.2a5.434,5.434,0,0,1-1.955-.357A4.9,4.9,0,0,1,18.768-1.19a5.092,5.092,0,0,1-1.139-1.632A5.287,5.287,0,0,1,17.2-5ZM20.672-5a1.715,1.715,0,0,0,.476,1.241,1.627,1.627,0,0,0,1.224.493A1.627,1.627,0,0,0,23.6-3.757,1.715,1.715,0,0,0,24.072-5V-19.21a1.715,1.715,0,0,0-.476-1.241,1.627,1.627,0,0,0-1.224-.493,1.627,1.627,0,0,0-1.224.493,1.715,1.715,0,0,0-.476,1.241ZM61.03-16.49c1.122-.1,1.972-.136,2.516-.136.2,0,.442,0,.986.034l-.1-3.842a26.526,26.526,0,0,1-3.706.476l-7.276.578a54.149,54.149,0,0,1-.34-6.154,13.007,13.007,0,0,1,.17-2.55l-4.114.068c.068.578.17,1.836.17,2.516.068,3.4.068,3.74.306,6.46l-3.094.238c-.85.068-1.938.136-2.584.136-.238,0-.51,0-1.054-.034l.1,3.808a25.2,25.2,0,0,1,3.4-.408l3.6-.306c.884,6.222,2.72,11.05,5.712,14.79,1.8,2.278,3.57,3.468,5.2,3.468,2.414,0,3.6-2.176,4.386-7.99a14.053,14.053,0,0,1-3.23-2.21c-.34,4.046-.782,5.712-1.462,5.712-.612,0-2.176-1.7-3.332-3.6a26.9,26.9,0,0,1-3.468-10.472ZM37.876-1.36a27.12,27.12,0,0,1-.238,4.182H41.82a29.17,29.17,0,0,1-.238-4.114V-20.128a55.474,55.474,0,0,0,3.162-7.242L40.868-28.7a20.27,20.27,0,0,1-1.326,4.454,29.531,29.531,0,0,1-6.834,10.1,13.643,13.643,0,0,1,1.8,3.91,23.637,23.637,0,0,0,3.468-4.25c-.068,1.292-.1,2.176-.1,3.91ZM54.74-25.874a32.574,32.574,0,0,1,2.55,2.618,19.625,19.625,0,0,1,2.482,2.992l2.822-2.584a47.514,47.514,0,0,0-5.2-5.27Zm29.274,3.2v4.964h4.964v-4.964Zm0,14.552v4.964h4.964V-8.126ZM117.436,0V-41.072l-6.936,5.1v-7.344l6.936-5.1h6.936V0ZM141.3,0V-6.528l12.512-23.6a8.616,8.616,0,0,0,1.088-3.094q.136-1.326.136-3.3,0-.884-.034-1.87a4.538,4.538,0,0,0-.374-1.734,3.219,3.219,0,0,0-1.02-1.258,3.247,3.247,0,0,0-1.972-.51,3.428,3.428,0,0,0-2.482.884,3.424,3.424,0,0,0-.918,2.584v3.944H141.3v-3.808a10.247,10.247,0,0,1,.816-4.08,10.528,10.528,0,0,1,2.244-3.332,10.183,10.183,0,0,1,3.264-2.278,9.894,9.894,0,0,1,4.08-.85,10.168,10.168,0,0,1,4.658.986,9.292,9.292,0,0,1,3.23,2.686,11.71,11.71,0,0,1,1.8,3.876,17.948,17.948,0,0,1,.578,4.624q0,1.768-.068,2.958a17.9,17.9,0,0,1-.272,2.278,10.039,10.039,0,0,1-.68,2.176q-.476,1.088-1.292,2.652l-10.2,19.652h12.512V0Zm39.134-17.918a24.9,24.9,0,0,1,4.148,3.57c-1.836,1.224-2.958,1.938-4.046,2.55a49.475,49.475,0,0,1-8.16,3.468,9.369,9.369,0,0,1,2.176,3.4,56.419,56.419,0,0,0,6.46-3.06V-.612a25.575,25.575,0,0,1-.2,3.366h3.944V.918h12.988V2.754h3.876a22.819,22.819,0,0,1-.2-3.366V-9.35a20.551,20.551,0,0,1,.17-3.128,20.929,20.929,0,0,1-2.856.136H187.714a45.3,45.3,0,0,0,10.234-9.826c.782-1.02.816-1.054,1.224-1.564l-2.006-2.142a18.679,18.679,0,0,1-2.992.17H187.2c.578-.782.884-1.19,1.768-2.482l-4.012-.986c-2.006,4.182-6.494,8.262-12.07,10.982a8.493,8.493,0,0,1,2.312,2.856,35.257,35.257,0,0,0,9.18-7.072h8.942a35.327,35.327,0,0,1-5.814,5.882,29.579,29.579,0,0,0-4.25-3.4Zm4.284,8.908h13.056v6.7H184.722Z" transform="translate(1251.108 4147)" fill="#0052aa"/>
  </g>
</svg>
