<svg xmlns="http://www.w3.org/2000/svg" xmlns:xlink="http://www.w3.org/1999/xlink" width="630.751" height="512.065" viewBox="0 0 630.751 512.065">
  <defs>
    <linearGradient id="linear-gradient" y1="0.5" x2="1" y2="0.5" gradientUnits="objectBoundingBox">
      <stop offset="0" stop-color="#03a8e5"/>
      <stop offset="1" stop-color="#012869"/>
    </linearGradient>
    <filter id="パス_301" x="0" y="0" width="630.751" height="512.065" filterUnits="userSpaceOnUse">
      <feOffset dx="10" dy="10" input="SourceAlpha"/>
      <feGaussianBlur stdDeviation="15" result="blur"/>
      <feFlood flood-opacity="0.161"/>
      <feComposite operator="in" in2="blur"/>
      <feComposite in="SourceGraphic"/>
    </filter>
    <linearGradient id="linear-gradient-2" x1="-0.03" xlink:href="#linear-gradient"/>
    <filter id="長方形_203" x="22.93" y="44" width="355" height="184" filterUnits="userSpaceOnUse">
      <feOffset input="SourceAlpha"/>
      <feGaussianBlur stdDeviation="5" result="blur-2"/>
      <feFlood flood-color="#013778" flood-opacity="0.322"/>
      <feComposite operator="in" in2="blur-2"/>
      <feComposite in="SourceGraphic"/>
    </filter>
  </defs>
  <g id="一人当たり売上高" transform="translate(-1016.07 -784)">
    <g id="グループ_218" data-name="グループ 218" transform="translate(521.3 -1555)">
      <g transform="matrix(1, 0, 0, 1, 494.77, 2339)" filter="url(#パス_301)">
        <path id="パス_301-2" data-name="パス 301" d="M0,0H540.751V422.065H0Z" transform="translate(35 35)" fill="url(#linear-gradient)"/>
      </g>
      <path id="パス_302" data-name="パス 302" d="M0,0H532.751V414.065H0Z" transform="translate(533.77 2378)" fill="#edf9ff"/>
    </g>
    <path id="パス_1118" data-name="パス 1118" d="M14.2,0,37.4-59.8l-.4-.4a8,8,0,0,1-3.1,1.3,24.533,24.533,0,0,1-5.5.5,19.981,19.981,0,0,1-10-2.6,20.3,20.3,0,0,1-7.2-6.6A17.474,17.474,0,0,1,9-71.9a27.648,27.648,0,0,1-1.2-5.9A73.177,73.177,0,0,1,7-86.9q-.2-5.5-.2-13.9,0-7,.2-11.5a56,56,0,0,1,.8-7.7,21.16,21.16,0,0,1,1.3-5.2,36.954,36.954,0,0,1,2.3-4.6A27.587,27.587,0,0,1,22.1-140a31.391,31.391,0,0,1,15.1-3.6,30.143,30.143,0,0,1,15,3.7,29.064,29.064,0,0,1,10.6,10.1,51.321,51.321,0,0,1,2.4,4.6,23.958,23.958,0,0,1,1.6,5.2q.4,3.2.6,7.7t.2,11.5q0,6.6-.2,10.9t-.6,7.3q-.6,3.2-1.3,5.7t-1.7,5.3L37,0Zm13-86.6a9.646,9.646,0,0,0,3,7.4,9.936,9.936,0,0,0,7,2.8,9.936,9.936,0,0,0,7-2.8,9.646,9.646,0,0,0,3-7.4V-113a9.646,9.646,0,0,0-3-7.4,9.936,9.936,0,0,0-7-2.8,9.936,9.936,0,0,0-7,2.8,9.646,9.646,0,0,0-3,7.4ZM82.8,0V-20.4h20.4V0Zm59.8,0V-120.8l-20.4,15v-21.6l20.4-15H163V0Zm68.079-28.638v-.407a11.6,11.6,0,0,1,.148-2.183H206.5a11.42,11.42,0,0,1,.185,2.183v.407H201.8a29.846,29.846,0,0,1-3.959-.185v3.145a27.238,27.238,0,0,1,3.515-.148,19.359,19.359,0,0,1,1.221,2.738h-2.7a26.677,26.677,0,0,1-3.626-.148v3.367a29.641,29.641,0,0,1,3.626-.148h17.649a36.323,36.323,0,0,1,4.07.148v-3.367a35.9,35.9,0,0,1-4.07.148h-2.479c.407-.74.925-1.887,1.295-2.738,1.665,0,2.738.037,4.07.148v-3.145a29.108,29.108,0,0,1-4,.185Zm-4.107,5.55c-.3-.814-.74-1.85-1.11-2.738h6.66a16.111,16.111,0,0,1-1.184,2.738ZM208.607-7.77l-2,1.739a24.913,24.913,0,0,1,3.811,4l2.7-2.294A33.485,33.485,0,0,0,209.2-7.77h6.364c1.813,0,2.4.037,3.441.111a20.692,20.692,0,0,1-.148-3.33v-4.736a22.362,22.362,0,0,1,.148-3c-1,.074-1.628.111-3.33.111H201.54a32.794,32.794,0,0,1-3.33-.111,20.027,20.027,0,0,1,.148,3v4.736a27.6,27.6,0,0,1-.148,3.367,28.665,28.665,0,0,1,3.4-.148Zm-6.475-8.251h12.876V-14.5H202.132Zm0,4.033h12.876V-10.4H202.132ZM190.847-1.332a37.009,37.009,0,0,1-.222,4.4h4.255a40.378,40.378,0,0,1-.185-4.514V-21.978c1.406-3.626,1.924-5.069,2.442-6.734.37-1.258.481-1.517.7-2.109l-4.181-.814a23.6,23.6,0,0,1-1.147,4.588,30.832,30.832,0,0,1-5.7,10.323,25.876,25.876,0,0,1,1.628,4.625,35.109,35.109,0,0,0,2.479-3.589c-.037,1.036-.074,2.96-.074,4.662Zm11.285-5.439a12.986,12.986,0,0,1,.222,2.59v4.07c0,2.146,1.147,2.7,5.7,2.7,4,0,6.068-.3,6.845-.925.814-.629,1.147-1.813,1.332-4.44a11.784,11.784,0,0,1-3.33-.814c0,1.591-.111,2.257-.37,2.553-.3.3-1.332.444-3.219.444-2.812,0-3.256-.111-3.256-.851V-4.366a10.718,10.718,0,0,1,.148-2.4Zm-3.774.074A17.11,17.11,0,0,1,194.991.185l3.256,2.072a24.705,24.705,0,0,0,3.367-8.066Zm16.465,1.628a29,29,0,0,1,4.107,7.252L222.075.037a35.7,35.7,0,0,0-4.366-6.882Zm15.688-6.4h22.015v9.028c0,.888-.222,1-1.665,1-1.332,0-3.182-.148-5.624-.407a14.237,14.237,0,0,1,1.147,4c1.443.074,3.478.148,4.921.148a9.1,9.1,0,0,0,3.885-.518c1.073-.555,1.517-1.591,1.517-3.478V-25.419a36.407,36.407,0,0,1,.148-4.033,33.919,33.919,0,0,1-4.033.148h-22.5a39.75,39.75,0,0,1-4.107-.148,31.875,31.875,0,0,1,.148,3.552V-1.7a35.147,35.147,0,0,1-.222,4.44H230.7a27.2,27.2,0,0,1-.185-4.292Zm8.769-3.885h-8.769V-25.382h8.769Zm4,0V-25.382h9.25v10.027Z" transform="translate(1133 1174)" fill="#0052aa"/>
    <g id="グループ_265" data-name="グループ 265" transform="translate(649.609 -2180.655)">
      <path id="パス_819" data-name="パス 819" d="M841.977,3173.917c-.079-.414-.157-.819-.262-1.2-1.906-7.008-4.384-13.849-6.767-20.7-.121-.347-.378-1.3-.731-2.31.463-.52.205-1.748.285-2.378a16.689,16.689,0,0,0,.21-2.608c.8,3.464,3.023,7.186,3.8,10.477,1.233,5.244,4.377,12.814,3.464,18.719ZM830.4,3309.142c-2.279,5.979-1.985,12.247-4.084,18.167a146.312,146.312,0,0,0-4.231,15.812c-.132.157-.247.315-.367.472a33.782,33.782,0,0,0-2.383,3.822,36.453,36.453,0,0,1-1.092-4.971c-.53-4.667,1.643-10.456,2.573-15.007a72.76,72.76,0,0,0,1.957-15.124c-.078-9.733-.357-18.552,2.641-28.158.257-.824.529-1.648.792-2.482,1.27,2.708,2.624,5.38,3.9,7.947,1.181,2.357,4.2,6.394,4.173,9.092-.026,2.9-2.751,7.5-3.879,10.431Zm-13.838-173.586a2.5,2.5,0,0,0-.892-.351,1.633,1.633,0,0,1,.09-.248,14.631,14.631,0,0,1,1.107-2.6c.588,1.648,2.567,2.708,3.864,3.653a68.011,68.011,0,0,0,6.173,3.859,15.152,15.152,0,0,0,3,1.417c-.346.394-.619.971-.882,1.228-.551.53-1.212.8-1.523,1.59-.414,1.062,1.45,3.014,1.99,4a5.324,5.324,0,0,0,.982,1.512,1.53,1.53,0,0,0,.776.336c.158,1.4.473,2.844.552,3.438.189,1.454.419,2.9.62,4.357.068.446.1.9.167,1.339-.923-1.575-1.889-3.124-2.929-4.619a92.97,92.97,0,0,1-5.648-8.383c-1.68-3.035-4.457-8.615-7.444-10.521Zm-12.3,76.483c-.42-1.029-.835-2.058-1.24-3.113-1.5-3.948-6.147-10.683-4.729-14.661.881-2.462,2.855-4.457,4.4-6.719.462,2.938,1.218,5.857,1.176,8.828a49.535,49.535,0,0,0,.168,8.594,31.309,31.309,0,0,1,.226,7.07Zm101.209-46.725c-.021-.03-.01-.068-.031-.1a1.713,1.713,0,0,0-1.491-.667l-.4-.1a11.851,11.851,0,0,0-6-1.028c-1.175.079-2.247-.11-3.438-.12-.725-.011-1.7-.048-2.662.031.514-.315,1.171-.562,1.533-.823.8-.594,1.6-1.308,1.486-2.39-.131-1.148-.956-1.522-1.948-.98-1.128.618-1.806,1.533-3.129,1.748-1.349.225-2.819-.032-4.147.415a5.617,5.617,0,0,0-2.929,2.146c-2.3-.745-4.378.982-6.871,2.478-1.418.845-16.53,11.28-16.473,11.334-1.029-.925-.95-4.62-2.982-3.586-.383-4-2.015-8.818-3.449-12.541a42.1,42.1,0,0,0-4.094-7.643,12.83,12.83,0,0,0-1.286-1.512l-.01-.014c-1.164-2.335-2.53-3.027-4.768-4.112-2.846-1.375-5.323-3.443-7.91-5.144a8.572,8.572,0,0,0,.115,1.028,2.118,2.118,0,0,0-.725-.951,14.774,14.774,0,0,0-1.6-.97,12.658,12.658,0,0,0-1.328-.846,8.831,8.831,0,0,0,.814-3.312c.057-.771.336-1.433.425-2.188.089-.725.126-1.465.168-2.2.184-.1.373-.206.546-.3,2.367-1.343,2.929-3.732,3.775-6.136.577-1.653,1.716-3.024,2.2-4.7a11.457,11.457,0,0,0,.393-3.922c-.052-.992-.562-1.926-.446-2.913.157-1.27.866-2.289.908-3.617.006-.294,0-.619-.01-.945.783-1.312,1.863-2.278,1.229-4.1-.74-2.062-1.239-4.3-2.694-5.99-2.062-2.383-3.768-3.69-6.97-4.273a15.322,15.322,0,0,0-7.4.278,7.972,7.972,0,0,1-2.032.677c-.594.047-1.213-.068-1.811-.031a11.713,11.713,0,0,0-4.252,1.307,10.329,10.329,0,0,0-3.7,3.329c-1.759,2.163-2.053,4.755-1.848,7.427a51.943,51.943,0,0,0,1.013,7.612,11.317,11.317,0,0,0,.924,3.328c.677,1.118,1.9,1.884,2.619,3.013a18.27,18.27,0,0,1,1.79,4.283,3.1,3.1,0,0,0,.609,1.2,8.824,8.824,0,0,1-.236,1.091c-1.15.394-1.643,2.336-1.858,3.366a14.979,14.979,0,0,1-.546,2.037c-2.162.676-4.158,3.968-6.3,4.986-3.532,1.69-6.939,2.84-9.742,5.759-.42.441-.8.9-1.166,1.365a4.7,4.7,0,0,0-4.5,2.188c-1.612,2.619-1.643,8.525-2.557,11.7-3.622,12.677-8.393,26.5-7.837,39.433.457,10.357,5.69,22.352,9.333,32.153,1.774,4.8,4.232,5.48,8.467,4.32.746,2.21,1.528,4.546,2.452,6.667a2.456,2.456,0,0,0,.64,1.665c-.934,5.811-.089,11.79-1.149,17.874-3.055,17.38-3.428,35.717-3.428,53.255v15.039c0,6.924-4.226,21.554-1.091,28.567-.047,2.105-.037,4.174-.011,6.158.011,1.307-.146,3.518.819,4.588,1.04,1.15,3.906.971,5.324.971.892,0,2.955.395,3.711-.167.6-.452.645-1.56,1.6-1.765.923-.2,1.4.614,1.915,1.244,1.365,1.669,2.661,2.053,4.724,2.457a23.482,23.482,0,0,0,3.286.179,29.57,29.57,0,0,0,4.253.2c2.577-.267,16.383.567,14.456-5.086a2.412,2.412,0,0,0-.252-.562,61.421,61.421,0,0,0,9.318-.01c3.548-.206,8.546-2.888,3.349-5.382-3.034-1.464-6.914-.924-9.664-3.123a17.291,17.291,0,0,1-3.7-4c4.137-3.717,5.585-11.769,7.523-16.395,3.764-9.024,8.661-17.99,11.275-27.438,1.05-3.812,2.315-8.278,2.462-12.209.189-4.909-2.225-9.208-3.071-13.953-1.013-5.706-1.06-11.538-2.415-17.2-.089-.373-.178-.746-.278-1.118-1.176-4.824-2.446-9.674-3.8-14.478a64,64,0,0,1-1.323-8.063c2.054-.089,4.415-.3,4.93-1.648.473-1.25-.283-3.795-.473-5.061a55,55,0,0,0-1.884-7.364c-2.567-8.867-1.916-18.483-1.387-27.6.137-2.5.247-5.028.363-7.542a10.823,10.823,0,0,0,2.309,2.536c2.267,1.695,3.622.078,5.911-1.476,3.035-2.042,5.765-4.509,8.84-6.508,4.976-3.261,11.118-5.47,14.956-10.011,2.319-2.729,7.307-3.454,7.286-7.48a12.531,12.531,0,0,0-.068-1.26c.471-.088.944-.178,1.427-.272,1.087-.236,2.189-.53,3.3-.745.236-.042.462-.089.709-.122,1.4-.215,2.866-.021,4.242-.487a21.21,21.21,0,0,1,4.441-1.055c.856-.1,2.609.131,3.5-.353.562-.1,1.176-.431,1.176-.935a.768.768,0,0,0-.237-.577c.5-.257.888-.609.7-1.208-.215-.687-.961-.708-1.727-.609Z" transform="translate(0 -0.493)" fill="#9eddf6"/>
      <path id="パス_820" data-name="パス 820" d="M978.065,3105.27a.607.607,0,0,1,.026.068,2.583,2.583,0,0,1,1.654,1.044c0,.005.01.005.026.016a3.826,3.826,0,0,0,.835.267,16.323,16.323,0,0,0,3.055.247h.1c1.207,0,2.357-.069,3.123-.11a21.485,21.485,0,0,0,6.4-1.092,2.527,2.527,0,0,1,.913-.173c1.3-2.724,2.541-5.69,2.845-6.288-1.68-1-2.12-2.494-4.5-2.4-2.761.1-3.8-.44-6.179-1.4-1.817-.714-2.026-.588-3.774.756-2.21,1.7-7.06-.095-6.578,3.391a19.333,19.333,0,0,0,2.053,5.675Z" transform="translate(-93.395)" fill="#9eddf6"/>
      <path id="パス_821" data-name="パス 821" d="M988.935,3158.509a3.663,3.663,0,0,0,2.593,3.611l.546.211v-8.006c-1.737.115-3.139,1.622-3.139,4.184Z" transform="translate(-99.646 -28.612)" fill="#9eddf6"/>
      <path id="パス_822" data-name="パス 822" d="M997.578,3177.3l-.578-.246v9.233c1.8-.215,3.328-1.985,3.328-4.614a4.223,4.223,0,0,0-2.751-4.373Z" transform="translate(-103.537 -39.578)" fill="#9eddf6"/>
      <path id="パス_823" data-name="パス 823" d="M975.578,3164.085v3.281h-1.035v-3.281a8.651,8.651,0,0,1-4.5-1.307,4.015,4.015,0,0,1-1.858-2.85c0-.735.787-1.434,1.926-1.434s1.433,1.622,1.826,2.624a3.119,3.119,0,0,0,2.6,2.053v-9.6l-.64-.247c-3.575-1.286-5.265-3.081-5.265-6.42,0-3.086,2.331-5.386,5.905-5.657v-3.386h1.035v3.386a8.864,8.864,0,0,1,4.4,1.317c.855.551,1.286,1.008,1.286,1.748,0,.913-.545,1.984-1.443,1.984-1.06,0-1.276-1.129-1.616-1.9-.425-.8-.73-1.985-2.629-2.231v8.378l.976.3c3.4,1.275,5.412,2.865,5.412,6.745,0,3.28-2.01,6.121-6.195,6.483Zm19.559-23.5a30.081,30.081,0,0,0-5.89-6.866c-1.318-1.129-3.028-2.907-4.834-4.367a2.553,2.553,0,0,1-2.021,2.147,21.2,21.2,0,0,1-4.136.394,32.009,32.009,0,0,1-7.591-1.03,12.032,12.032,0,0,1-4.913-1.417,2.857,2.857,0,0,1-.4-.3c-3.869,3.628-6.22,8.8-8.582,13.444-3.733,7.328-6,16.415-2.252,24.189,2.966,6.179,9.764,7.464,15.989,7.486,10.3.031,26.605.451,28.951-12.971a27.67,27.67,0,0,0,.425-5.061,31.154,31.154,0,0,0-4.745-15.643Z" transform="translate(-82.115 -16.462)" fill="#9eddf6"/>
      <path id="パス_824" data-name="パス 824" d="M976.087,3119.33a3.985,3.985,0,0,0,.8.913,1.117,1.117,0,0,0-.189.332,1.7,1.7,0,0,0,.52,1.984c.058.048.121.121.189.168a11.032,11.032,0,0,0,4.6,1.3h0a31.952,31.952,0,0,0,7.465,1.029,21.144,21.144,0,0,0,3.978-.373,1.73,1.73,0,0,0,1.365-1.963c-.01-.021,0-.036,0-.057a1.72,1.72,0,0,0-1.044-1.26,8.553,8.553,0,0,0,1.79-1.679,1.733,1.733,0,0,0-.021-2.069,1.712,1.712,0,0,0-1.863-.583.646.646,0,0,0-.131.032,22.014,22.014,0,0,1-6.677,1.15c-.756.036-1.921.115-3.171.115a16.573,16.573,0,0,1-3.328-.273,4.953,4.953,0,0,1-1.061-.336,1.574,1.574,0,0,1-.267-.183,1.747,1.747,0,0,0-.531-.541,1.708,1.708,0,0,0-2.414,2.3l-.01-.006Z" transform="translate(-93.333 -10.478)" fill="#9eddf6"/>
    </g>
    <g transform="matrix(1, 0, 0, 1, 1016.07, 784)" filter="url(#長方形_203)">
      <rect id="長方形_203-2" data-name="長方形 203" width="325" height="154" transform="translate(37.93 59)" fill="url(#linear-gradient-2)"/>
    </g>
    <path id="パス_1117" data-name="パス 1117" d="M3.872-15.62c-.99,0-1.606-.022-2.332-.088a19.731,19.731,0,0,1,.088,2v1.738a14.359,14.359,0,0,1-.11,1.716h2.42v-3.322H18.106v3.322h2.42a13.877,13.877,0,0,1-.088-1.738v-1.76a16.545,16.545,0,0,1,.066-1.958,22.3,22.3,0,0,1-2.354.088H16.83c.418-.616,1.078-1.694,1.452-2.376l-2.552-.572a15.062,15.062,0,0,1-1.562,2.948H12.584a29.213,29.213,0,0,0-1.342-2.926l-2.464.4a20.3,20.3,0,0,1,1.232,2.53H7.986a20.481,20.481,0,0,0-1.65-2.728l-2.42.506A11.847,11.847,0,0,1,5.324-15.62ZM9.394-6.8A8.85,8.85,0,0,1,8.58-5.236H4.95A16.748,16.748,0,0,1,2.9-5.324a16.78,16.78,0,0,1,.11,2.09v2.86c0,.748-.044,1.43-.11,2.178H5.346V.946H16.632V1.8h2.486a14.308,14.308,0,0,1-.11-2.156v-2.86A16.591,16.591,0,0,1,19.1-5.324a16.416,16.416,0,0,1-2.09.088H11.154A14.5,14.5,0,0,0,11.9-6.8h3.124a22.722,22.722,0,0,1,2.31.088,13.972,13.972,0,0,1-.066-1.98v-2.024a11.143,11.143,0,0,1,.066-1.738,11.358,11.358,0,0,1-1.606.088H6.358a12.166,12.166,0,0,1-1.672-.088,11.187,11.187,0,0,1,.088,1.672v2.09a15.348,15.348,0,0,1-.088,1.98A20.363,20.363,0,0,1,7-6.8ZM7.062-10.516h7.9v1.87h-7.9ZM5.346-3.3H16.654v2.134H5.346ZM36.08-9.68v1.056H31.724a15.622,15.622,0,0,1-2.244-.11v1.98a15.81,15.81,0,0,1,2.244-.11H36.08v1.1H30.25A20.421,20.421,0,0,1,27.61-5.9v2.2a24.183,24.183,0,0,1,2.662-.132h4.092A15.815,15.815,0,0,1,27.17-.7a9,9,0,0,1,1.342,2.112A21.285,21.285,0,0,0,33-.44a12.236,12.236,0,0,0,3.168-2.42,14.813,14.813,0,0,0-.066,1.5V-.308a16.421,16.421,0,0,1-.132,2.244h2.6a12.517,12.517,0,0,1-.154-2.222V-1.364a15.059,15.059,0,0,0-.066-1.562A17.166,17.166,0,0,0,46.508,1.43,8.712,8.712,0,0,1,47.762-.814a18.883,18.883,0,0,1-4.576-1.254,11.421,11.421,0,0,1-2.992-1.76h4.422a23.766,23.766,0,0,1,2.64.132V-5.9a19.432,19.432,0,0,1-2.662.132H38.456v-1.1h4.6a16.15,16.15,0,0,1,2.266.11v-1.98a15.96,15.96,0,0,1-2.266.11h-4.6V-9.68H44.2a16.149,16.149,0,0,1,2.266.11v-2.09a20.231,20.231,0,0,1-2.266.088H41.646c.308-.55.4-.748.814-1.628h2.2c1.078,0,1.936.044,2.618.11v-2.2a17.839,17.839,0,0,1-2.486.132h-.616c.484-.682.836-1.232,1.364-2.112l-2.266-.836a11.739,11.739,0,0,1-1.584,2.948H40.3V-16.72a11.551,11.551,0,0,1,.11-1.716h-2.4a15.669,15.669,0,0,1,.066,1.628v1.65H36.52v-1.65a14.816,14.816,0,0,1,.066-1.628h-2.4a12.236,12.236,0,0,1,.11,1.716v1.562H33.044A15.554,15.554,0,0,0,31.35-18.04l-2.2.836a9.3,9.3,0,0,1,1.5,2.046h-.7a18.643,18.643,0,0,1-2.508-.132v2.2c.7-.066,1.54-.11,2.618-.11h2.376c.242.418.484.924.814,1.628H30.58a19.982,19.982,0,0,1-2.266-.088v2.09a16.342,16.342,0,0,1,2.266-.11Zm-.506-1.892a14.042,14.042,0,0,0-.66-1.628H39.93a12.831,12.831,0,0,1-.726,1.628Zm32.032-4.994a13.473,13.473,0,0,1-1.562.066h-.792v-.132a9.519,9.519,0,0,1,.11-1.782H63.008a9.028,9.028,0,0,1,.132,1.782v.132H62.084a8.348,8.348,0,0,1-1.364-.088V-17.93a10.542,10.542,0,0,1-1.914.11H55.352a12.257,12.257,0,0,1-1.848-.11V-15.6a8.671,8.671,0,0,1,.968-.088V-3.432a6.355,6.355,0,0,1-1.21.176L53.768-.88a8.488,8.488,0,0,1,1.474-.44c.77-.22,1.8-.55,2.772-.858v1.65a21.6,21.6,0,0,1-.11,2.354h2.222a15.859,15.859,0,0,1-.11-2.332v-9.746h8.162a30.766,30.766,0,0,0,.88,6.556A19.185,19.185,0,0,1,67.32-1.76V-7.414c0-1.122,0-1.452.044-1.958a13.6,13.6,0,0,1-1.43.066h-3.5a9.772,9.772,0,0,1-1.386-.066c.044.726.066.99.066,1.958v5.962c0,.726-.044,1.276-.088,1.914h1.98V-.968h3.366a16.971,16.971,0,0,1-1.5,1.056,6.505,6.505,0,0,1,1.386,1.694,18.768,18.768,0,0,0,3.542-3.256c.77,1.782,1.8,2.838,2.728,2.838A1.52,1.52,0,0,0,73.9.352a11.022,11.022,0,0,0,.638-3.212A7.9,7.9,0,0,1,72.8-4.048c-.066,1.738-.22,2.772-.374,2.772-.044,0-.132-.11-.33-.462a9.7,9.7,0,0,1-.748-1.8,25.588,25.588,0,0,0,1.87-3.63c.176-.4.352-.792.484-1.056L71.918-9.35a14.514,14.514,0,0,1-1.232,3.124c-.176-1.144-.308-2.31-.418-4.026h1.21a18.147,18.147,0,0,1,2.464.11v-2.31a13.755,13.755,0,0,1-2.464.132H70.2c-.022-.66-.044-2.486-.044-3.256a16.917,16.917,0,0,1,.11-2.794H67.98a13.648,13.648,0,0,1,.066,1.584c.022,2.926.022,2.926.066,4.466h-1.76a17.785,17.785,0,0,0,.55-2.354,5.99,5.99,0,0,1,.7.044Zm-2.53,1.87a15.563,15.563,0,0,1-.484,2.376h-.924c-.11-.946-.242-1.738-.374-2.376Zm-5.06,2.376v-3.366c.264.022.352.022.66.044v1.012c.33-.044.418-.044.748-.066.22.9.374,1.716.484,2.376ZM56.5-15.686h1.518v2.574H56.5Zm0,4.532h1.518V-8.8H56.5Zm0,4.312h1.518v2.53c-.594.176-.792.242-1.518.418Zm6.512-.638h2.464v1.408H63.008Zm-.022,3.124h2.486v1.562H62.986Zm7.59-12.3A11.558,11.558,0,0,1,72.2-13.178l1.738-1.012a17.647,17.647,0,0,0-1.76-3.322Zm29.5,6.468a26.546,26.546,0,0,1-3.344.154H83.71a28.37,28.37,0,0,1-3.366-.154v2.9c.99-.088,2.134-.154,3.366-.154H96.734a30,30,0,0,1,3.344.154Zm15.048-8.008a14.39,14.39,0,0,1,.088,1.848c0,5.28-1.188,8.888-4.026,12.144a14.665,14.665,0,0,1-4.8,3.674,6.581,6.581,0,0,1,1.716,2.266,18.556,18.556,0,0,0,3.41-2.53,15.317,15.317,0,0,0,3.388-4.224,15.742,15.742,0,0,0,1.716-4.444,17.393,17.393,0,0,0,2.926,6.006,21.416,21.416,0,0,0,5.588,5.192A8.185,8.185,0,0,1,126.852-.7a14.651,14.651,0,0,1-3.41-2.376,14.746,14.746,0,0,1-3.476-4.18,15.792,15.792,0,0,1-2.156-8.668,14.555,14.555,0,0,1,.154-2.266Zm30.624,5.28a8.251,8.251,0,0,1-.44,1.672,6.229,6.229,0,0,0-.836-.044,12.173,12.173,0,0,0-3.036.286c.022-.462.044-1.166.11-2.112a70.58,70.58,0,0,0,7.744-.77c.462-.066.55-.066.858-.088l-.11-2.53a39.866,39.866,0,0,1-8.338,1.166,12.952,12.952,0,0,1,.4-2.706l-2.728-.132a1.238,1.238,0,0,1,.044.352c0,.418-.022.968-.044,1.254-.066.88-.066.88-.088,1.32H138.8a19.463,19.463,0,0,1-4.114-.33v2.464c.242-.022.44-.022.506-.022h.418c2.134.066,3.322.088,3.564.088-.044,1.056-.088,1.936-.088,2.64a9.092,9.092,0,0,0-3.014,1.98A6.911,6.911,0,0,0,133.892-3.5c0,2.288,1.386,3.85,3.432,3.85,1.826,0,3.784-1.078,5.764-3.168a19.416,19.416,0,0,0,3.828-5.852,3.226,3.226,0,0,1,2.464,3.036c0,1.518-.814,2.6-2.574,3.432a9.121,9.121,0,0,1-4.2.88,7.087,7.087,0,0,1,1.166,2.486A12.254,12.254,0,0,0,148.258,0c2.486-1.232,3.784-3.1,3.784-5.5a4.908,4.908,0,0,0-2.09-4.158,5.924,5.924,0,0,0-2.288-1.078c.066-.2.088-.22.308-.836a5.081,5.081,0,0,1,.264-.638ZM139.128-7.9a24.131,24.131,0,0,0,.4,4.972,3.031,3.031,0,0,1-1.914.836c-.77,0-1.254-.616-1.254-1.606a4.362,4.362,0,0,1,.99-2.684A6.543,6.543,0,0,1,139.128-7.9Zm2.486,3.322a.9.9,0,0,1-.022-.242,1.163,1.163,0,0,0-.022-.286,36.584,36.584,0,0,1-.154-3.784,8.082,8.082,0,0,1,2.64-.4,5.167,5.167,0,0,1,.572.022,16.738,16.738,0,0,1-2.728,4.4,2.031,2.031,0,0,0-.242.308Zm18.832-7.48a3.285,3.285,0,0,1,.418-.022c.176,0,.484,0,.88.022.374.022.594.022.7.022h1.276a1.863,1.863,0,0,0,.286-.022A47,47,0,0,1,160.072-.22L162.844.858a74.589,74.589,0,0,0,2.464-7.282c.572-2,1.122-4.334,1.364-5.7a29.991,29.991,0,0,0,3.608-.462c.528-.088.528-.088.7-.11l-.11-2.53a18.259,18.259,0,0,1-3.762.66c.088-.506.11-.638.22-1.254a12.5,12.5,0,0,1,.418-2.112l-2.9-.264a2.985,2.985,0,0,1,.022.4,26.7,26.7,0,0,1-.418,3.366c-.506.022-.748.022-1.012.022a17.5,17.5,0,0,1-2.948-.2Zm17.446.484c-1.386-.022-1.584-.022-2.178-.022a28.233,28.233,0,0,0-6.556.7l.2,2.42a23.743,23.743,0,0,1,5.808-.638,22.9,22.9,0,0,1,2.772.154Zm-8.668,4.62c-1.21,1.65-1.628,2.64-1.628,3.806A3.179,3.179,0,0,0,169.158-.44a8.933,8.933,0,0,0,4.422.88,25.6,25.6,0,0,0,4.092-.352c.506-.088.682-.11,1.078-.154l-.2-2.706a16.837,16.837,0,0,1-4.994.814c-2.2,0-3.3-.572-3.3-1.694a3.65,3.65,0,0,1,1.144-2.42Zm20.592-11.176a5.17,5.17,0,0,1-.066.748l-.33,2.728c-.176,1.518-.308,3.96-.308,5.742,0,.44.044,2.068.066,2.706v.418a1.71,1.71,0,0,1-.022.286l2.64-.044v-.462a10.548,10.548,0,0,1,2.772-7.106,3.274,3.274,0,0,1,2.376-1.166c1.892,0,2.948,1.76,2.948,4.928,0,3.344-1.166,5.434-3.718,6.732a12.843,12.843,0,0,1-4.818,1.254,8.415,8.415,0,0,1,1.3,2.6A18.762,18.762,0,0,0,196.966,0a9.247,9.247,0,0,0,5.676-9.042,9.213,9.213,0,0,0-1.584-5.852,4.607,4.607,0,0,0-3.762-1.98,5.252,5.252,0,0,0-4.18,2.244,8.894,8.894,0,0,0-1.386,2.618,4.833,4.833,0,0,1-.132.484h-.066c.044-.528.132-1.276.286-2.2a21.581,21.581,0,0,1,.792-4.246Zm34.1,4.026a4.808,4.808,0,0,1,2.222.66,5.45,5.45,0,0,1,2.706,4.884,6.159,6.159,0,0,1-3.058,5.5,11.692,11.692,0,0,1-4.378,1.21A7.018,7.018,0,0,1,222.75.726,14.383,14.383,0,0,0,226.2-.2,8.475,8.475,0,0,0,231.55-8.4c0-4.95-3.432-8.162-8.712-8.162a9.876,9.876,0,0,0-7.568,3.08,9.45,9.45,0,0,0-2.42,6.4c0,3.542,1.8,6.094,4.312,6.094,1.8,0,3.212-1.3,4.466-4.136A31.827,31.827,0,0,0,223.916-14.1Zm-2.684.022a28.994,28.994,0,0,1-1.826,7.436c-.792,1.892-1.54,2.816-2.266,2.816-.968,0-1.738-1.43-1.738-3.234A7.366,7.366,0,0,1,218.394-13,5.6,5.6,0,0,1,221.232-14.08ZM8.651,52.832H6.56a34.361,34.361,0,0,1-4.469-.246V57.26a35.259,35.259,0,0,1,4.469-.246H20.336v5.043a29.881,29.881,0,0,1-.246,4.469h5a24.689,24.689,0,0,1-.246-4.387V57.014h9.512a34.807,34.807,0,0,1,4.469.246V52.586a33.491,33.491,0,0,1-4.469.246H24.846V46.19H31.57a38.584,38.584,0,0,1,4.1.164V42.008a30.1,30.1,0,0,1-4.223.2h-6.6v-5.33H33.21a30.176,30.176,0,0,1,4.182.2V32.619a29.114,29.114,0,0,1-4.182.2H14.022c.738-1.6,1.148-2.46,1.189-2.583.287-.615.369-.738.615-1.23l-4.879-.984a11.843,11.843,0,0,1-.984,2.993c-1.681,4.018-3.813,6.724-8,10.291A17.947,17.947,0,0,1,5,44.96a37.806,37.806,0,0,0,6.765-8.077h8.569v5.33H11.4c-1.107,0-2.009-.041-2.87-.123a22.511,22.511,0,0,1,.123,2.378Zm4.305,0V46.19h7.38v6.642Zm64.9-3.2c0-1.6.041-2.624.123-3.69a32.973,32.973,0,0,1-3.813.164H65.026a33.43,33.43,0,0,1-3.813-.164c.082,1.107.123,2.255.123,3.69v10a28.265,28.265,0,0,1-.287,4.1H65.4v-2.3h8.692c.328,0,1.107,0,2.3.041a15.571,15.571,0,0,1,1.066,4.223c2.091.123,2.255.123,2.829.123,2.542,0,3.772-.123,4.633-.492,1.476-.615,1.968-1.681,1.968-4.141V34.341c0-2.05.041-3.075.164-4.551a36.779,36.779,0,0,1-4.223.164H74.948a35.081,35.081,0,0,1-4.182-.164c.082,1.271.123,2.419.123,3.813v6.273c0,1.763-.041,2.542-.123,3.731,1.025-.082,2.337-.123,3.772-.123h8.077V60.622c0,.82-.369,1.107-1.517,1.107-.738,0-2.214-.123-3.116-.205-.082-1.066-.123-2.009-.123-3.567ZM74.948,33.275h7.667v2.05H74.948Zm0,4.961h7.667v2.091H74.948ZM65.4,49.552h8.364v2.46H65.4Zm0,5.781h8.364V58H65.4ZM56.826,43.484h7.421c1.435,0,2.706.041,3.772.123-.082-.9-.123-1.845-.123-3.731V33.6c0-1.6.041-2.5.123-3.813a34.642,34.642,0,0,1-4.182.164H56.58a37.238,37.238,0,0,1-4.223-.164,45.456,45.456,0,0,1,.164,4.592V61.155a36.653,36.653,0,0,1-.246,5.084h4.8a35.563,35.563,0,0,1-.246-5.043Zm0-10.209h7.052v2.05H56.826Zm0,4.961h7.052v2.091H56.826Zm59.491-6.15H105.9a35.4,35.4,0,0,1-4.961-.246v4.346a39.18,39.18,0,0,1,4.838-.2h10.537v2.706h-8.733a26.175,26.175,0,0,1-4.141-.2v4.223a37,37,0,0,1,4.141-.164h22.427a35.973,35.973,0,0,1,4.182.164V38.482a26.448,26.448,0,0,1-4.182.2h-9.143V35.981h11.193a47.305,47.305,0,0,1,4.8.2V31.84a35.122,35.122,0,0,1-4.92.246h-11.07v-.492a12.645,12.645,0,0,1,.246-3.157h-5a16.878,16.878,0,0,1,.205,3.157ZM105.534,53.652V48.9H132.02v4.756h4.8a16.061,16.061,0,0,1-.205-2.993V47.666a18.567,18.567,0,0,1,.164-2.911c-1.435.123-2.46.164-4.428.164h-27.1a42.051,42.051,0,0,1-4.387-.164,21.788,21.788,0,0,1,.164,3.034V50.7a16.69,16.69,0,0,1-.205,2.952Zm5.945-3.485a7.817,7.817,0,0,1,.123,1.312,13.814,13.814,0,0,1-.656,3.854c-.779,2.173-2.419,3.772-5.289,5.084a17.675,17.675,0,0,1-5.617,1.517,16.1,16.1,0,0,1,2.952,4.551,25.509,25.509,0,0,0,4.428-1.558,18.845,18.845,0,0,0,4.838-3.362,15.211,15.211,0,0,0,3.977-9.389,9.348,9.348,0,0,1,.246-1.763Zm13.366,3.321a16.825,16.825,0,0,1,.205-3.2h-4.92a23.1,23.1,0,0,1,.164,3.4v8.4c0,2.993,1.107,3.526,7.339,3.526,4.715,0,6.642-.287,7.585-1.189,1.107-1.025,1.722-3.239,2.05-7.38a14.131,14.131,0,0,1-4.387-1.394c-.205,3.444-.369,4.551-.738,5.084s-1.271.7-4.141.7c-2.788,0-3.157-.164-3.157-1.23Zm44.608-8.282h9.635a42.81,42.81,0,0,1,4.756.246V40.573a41.76,41.76,0,0,1-4.756.246h-9.635V33.808a33.083,33.083,0,0,1,.287-4.715h-5.371a35.1,35.1,0,0,1,.287,4.715V60.294h-9.348a54.1,54.1,0,0,1-5.658-.246v4.92a51.25,51.25,0,0,1,5.658-.287h26.035a44.737,44.737,0,0,1,5.453.287v-4.92a52.656,52.656,0,0,1-5.535.246H169.453ZM214.717,31.43H203.36a33.491,33.491,0,0,1-4.469-.246v4.141a31.554,31.554,0,0,1,4.223-.2H231.4a31.836,31.836,0,0,1,4.264.2V31.184a31.7,31.7,0,0,1-4.3.246h-12.1V30.9a13.035,13.035,0,0,1,.246-2.542h-5.043a12.85,12.85,0,0,1,.246,2.583Zm-9.594,11.644A29.2,29.2,0,0,1,205,46.108a35.156,35.156,0,0,1,3.854-.164h16.974a31.963,31.963,0,0,1,3.854.164,28.131,28.131,0,0,1-.123-3.034V39.548c0-1.312.041-1.927.123-2.993a30.4,30.4,0,0,1-3.649.164H208.977A35.185,35.185,0,0,1,205,36.555c.082.984.123,1.681.123,2.993Zm4.264-3.034h15.867v2.5H209.387Zm-9.348,21.935a29.759,29.759,0,0,1-.246,4.51h4.838a28.009,28.009,0,0,1-.246-4.51V51.069h25.83V61.278c0,.656-.2.861-.984.861-1.148,0-2.911-.123-5.166-.369a9.322,9.322,0,0,1,.9,4.1c.656,0,.656,0,1.312.041,1.312.082,1.517.082,2.378.082,2.87,0,4.1-.246,4.92-.984.779-.7.984-1.476.984-3.526V51.028a34.425,34.425,0,0,1,.164-3.69,32.846,32.846,0,0,1-4.018.164H204.139c-1.763,0-2.952-.041-4.264-.164a36.244,36.244,0,0,1,.164,3.731Zm25.994-6.806a21.982,21.982,0,0,1,.123-2.624c-1.23.082-1.8.123-3.362.123H211.56c-1.517,0-2.378-.041-3.321-.123a24.554,24.554,0,0,1,.123,2.706v4.756a21.5,21.5,0,0,1-.164,3.321h4.223v-2.05h10.332c1.107,0,2.624.041,3.4.123a24.34,24.34,0,0,1-.123-2.747Zm-13.612.615H222.1v2.255h-9.676Z" transform="translate(1098 895)" fill="#fff"/>
  </g>
</svg>
