<svg xmlns="http://www.w3.org/2000/svg" xmlns:xlink="http://www.w3.org/1999/xlink" width="695.81" height="422.07" viewBox="0 0 695.81 422.07">
  <defs>
    <linearGradient id="linear-gradient" y1="0.5" x2="1" y2="0.5" gradientUnits="objectBoundingBox">
      <stop offset="0" stop-color="#03a8e5"/>
      <stop offset="1" stop-color="#012869"/>
    </linearGradient>
    <filter id="パス_301" x="0" y="0" width="695.81" height="422.07" filterUnits="userSpaceOnUse">
      <feOffset dx="10" dy="10" input="SourceAlpha"/>
      <feGaussianBlur stdDeviation="15" result="blur"/>
      <feFlood flood-opacity="0.161"/>
      <feComposite operator="in" in2="blur"/>
      <feComposite in="SourceGraphic"/>
    </filter>
    <linearGradient id="linear-gradient-2" x1="-0.03" xlink:href="#linear-gradient"/>
    <filter id="長方形_218" x="93" y="1.934" width="562" height="102" filterUnits="userSpaceOnUse">
      <feOffset input="SourceAlpha"/>
      <feGaussianBlur stdDeviation="5" result="blur-2"/>
      <feFlood flood-color="#013778" flood-opacity="0.322"/>
      <feComposite operator="in" in2="blur-2"/>
      <feComposite in="SourceGraphic"/>
    </filter>
  </defs>
  <g id="新卒_中途" data-name="新卒・中途" transform="translate(-952 -4307.066)">
    <g id="グループ_244" data-name="グループ 244" transform="translate(458.647 1969)">
      <g transform="matrix(1, 0, 0, 1, 493.35, 2338.07)" filter="url(#パス_301)">
        <path id="パス_301-2" data-name="パス 301" d="M0,0H605.81V332.07H0Z" transform="translate(35 35)" fill="url(#linear-gradient)"/>
      </g>
      <path id="パス_302" data-name="パス 302" d="M0,0H597.81V324.07H0Z" transform="translate(532.353 2377.066)" fill="#edf9ff"/>
    </g>
    <path id="パス_1178" data-name="パス 1178" d="M10.448-8.592V-10.7a21.98,21.98,0,0,0,4.384-1.088c.288-.1.352-.128.528-.176L14.048-13.52a13.109,13.109,0,0,1-5.392,1.36,18.6,18.6,0,0,1,.1,2.5c0,6.064-.4,8.16-1.92,10.016A7.383,7.383,0,0,1,8.416,1.408,9.749,9.749,0,0,0,9.84-1.808a20.879,20.879,0,0,0,.592-5.168h1.712V-.528a11.382,11.382,0,0,1-.1,1.888H13.92a11.039,11.039,0,0,1-.1-1.888V-6.976h.4a9.116,9.116,0,0,1,1.28.064V-8.688a7.914,7.914,0,0,1-1.456.1ZM3.792-6.72v1.136H2.176a8.8,8.8,0,0,1-1.488-.08v1.7a8.955,8.955,0,0,1,1.456-.08h1.04A8.237,8.237,0,0,1,.384-1.3,6,6,0,0,1,1.2.336a8,8,0,0,0,2.64-2.96c-.032.368-.048.784-.048,1.088v1.6a9.326,9.326,0,0,1-.08,1.264h1.84A7.665,7.665,0,0,1,5.456,0V-1.6c0-.08-.016-.576-.016-.624-.016-.416-.016-.416-.032-.624A8.116,8.116,0,0,0,6.976-1.12a9.685,9.685,0,0,1,.768-1.52A7.018,7.018,0,0,1,6.1-4.048h.592a11.768,11.768,0,0,1,1.456.064v-1.68a8.836,8.836,0,0,1-1.456.08H5.456V-6.72h1.3a12.225,12.225,0,0,1,1.472.064V-8.368a8.815,8.815,0,0,1-1.472.08h-.32a5.752,5.752,0,0,0,.352-.7,3.11,3.11,0,0,1,.272-.592c.144-.352.144-.352.24-.56l-1.36-.384h.656a12.644,12.644,0,0,1,1.5.064v-1.712a8.8,8.8,0,0,1-1.488.08H5.52v-.24A5.865,5.865,0,0,1,5.6-13.5H3.664a6.165,6.165,0,0,1,.08,1.168v.24H2.528a9.212,9.212,0,0,1-1.536-.08v1.712a12.473,12.473,0,0,1,1.5-.064h.752l-1.408.352a6.681,6.681,0,0,1,.7,1.888H2.16a8.681,8.681,0,0,1-1.488-.08v1.712A11.768,11.768,0,0,1,2.128-6.72Zm1.92-3.808a8.986,8.986,0,0,1-.9,2.24H2.624l1.424-.384a7.084,7.084,0,0,0-.688-1.856ZM26.368-3.984A8.768,8.768,0,0,1,26.432-5.3h-1.92a7.437,7.437,0,0,1,.08,1.312H20.368a16.143,16.143,0,0,1-2.032-.1v1.824a17.045,17.045,0,0,1,2.032-.1h4.224V-.336a10.52,10.52,0,0,1-.112,1.728h2a9.861,9.861,0,0,1-.112-1.744v-2h4.48a14.187,14.187,0,0,1,2.048.1V-4.08a16.433,16.433,0,0,1-2.048.1Zm-1.792-7.968H20.5a13.577,13.577,0,0,1-1.936-.112v1.808a14.01,14.01,0,0,1,1.9-.1H30.816a13.928,13.928,0,0,1,1.856.1v-1.808a12.957,12.957,0,0,1-1.9.112H26.352v-.368a6.636,6.636,0,0,1,.1-1.168H24.48a6.636,6.636,0,0,1,.1,1.168ZM21.92-10.32a7.007,7.007,0,0,1-1.312,2.656A7.731,7.731,0,0,1,18.56-5.712a6.877,6.877,0,0,1,1.264,1.344,14.218,14.218,0,0,0,2.384-2.64,11.459,11.459,0,0,0,1.968,1.984A7.346,7.346,0,0,1,25.3-6.432a7.6,7.6,0,0,1-2.256-2,14.017,14.017,0,0,0,.608-1.376Zm6.016.016a6.46,6.46,0,0,1-.8,1.952,7.079,7.079,0,0,1-1.584,1.9A5.359,5.359,0,0,1,26.784-5.2,10.137,10.137,0,0,0,28.3-7.072a9.6,9.6,0,0,0,3.424,2.48,7.341,7.341,0,0,1,.928-1.632,7.626,7.626,0,0,1-3.584-2.208c.176-.4.256-.576.56-1.328Zm14.3-.656a12.644,12.644,0,0,1-.528,3.232,11.845,11.845,0,0,1-2.736,4.736A12.639,12.639,0,0,1,35.76-.48,4.488,4.488,0,0,1,37.072,1.2,15.984,15.984,0,0,0,41.04-2.416a13.422,13.422,0,0,0,2.288-4.832,10.341,10.341,0,0,0,.816,2.272,12.185,12.185,0,0,0,1.408,2.368,16.123,16.123,0,0,0,3.888,3.76A6.79,6.79,0,0,1,50.8-.656a11.451,11.451,0,0,1-2.368-1.728,12.944,12.944,0,0,1-2.56-3.072,12.388,12.388,0,0,1-1.712-6.336,7.55,7.55,0,0,1,.048-1.008,8.718,8.718,0,0,1-1.456.08H40.208a9.742,9.742,0,0,1-1.5-.08v1.92c.624-.048,1.1-.08,1.536-.08ZM57.6-4.944a8.782,8.782,0,0,0,2.064,1.808,6.824,6.824,0,0,1,.88-1.568A9.434,9.434,0,0,1,58-6.736a13.146,13.146,0,0,0,1.6-2.736,4.448,4.448,0,0,1,.352-.672l-.768-.832a5.828,5.828,0,0,1-.928.048H57.6V-12.24a6.82,6.82,0,0,1,.1-1.248H55.76a7.347,7.347,0,0,1,.1,1.216v1.344h-.8a9.769,9.769,0,0,1-1.264-.064v1.776a10.955,10.955,0,0,1,1.344-.064h2.608A9.506,9.506,0,0,1,56-6.816a11.035,11.035,0,0,1-2.752,2.16,6.2,6.2,0,0,1,.816,1.664,10.783,10.783,0,0,0,1.776-1.36V-.336a9.572,9.572,0,0,1-.1,1.664H57.68A11.361,11.361,0,0,1,57.6-.3Zm6.784-2.368h1.7c.56,0,1.056.032,1.568.08V-9.04a10.406,10.406,0,0,1-1.568.08h-1.7v-2.816A9.38,9.38,0,0,1,64.5-13.44h-2a11.325,11.325,0,0,1,.112,1.664V-8.96h-1.2a10.8,10.8,0,0,1-1.568-.08v1.808c.512-.048,1.024-.08,1.568-.08h1.2v6.256H60.864a14.509,14.509,0,0,1-1.84-.1V.784A12.9,12.9,0,0,1,60.832.672H66.3a13.138,13.138,0,0,1,1.824.112V-1.152a13.724,13.724,0,0,1-1.824.1h-1.92Zm14.8-6.288a9.16,9.16,0,0,1-1.68,2.384c-.3-.224-.416-.3-.832-.608l-1.136,1.232A20.588,20.588,0,0,1,78.48-8.208l-.768.7c-.848.016-.848.016-1.088.032h-.576a8.843,8.843,0,0,1-.976-.048l.208,1.728a22.622,22.622,0,0,1,2.864-.224,7.608,7.608,0,0,1-3.616,2.944A5.683,5.683,0,0,1,75.584-1.68a10.486,10.486,0,0,0,1.888-1.28A9.31,9.31,0,0,0,78.8-1.616,12.147,12.147,0,0,1,74.56-.224a5.614,5.614,0,0,1,.8,1.552A13.3,13.3,0,0,0,80.208-.56,14.269,14.269,0,0,0,85.2,1.248,8.55,8.55,0,0,1,85.984-.5a14.391,14.391,0,0,1-4.272-1.136,14.907,14.907,0,0,0,2.368-2.48c.112-.16.144-.192.256-.336l-.992-.912a12.58,12.58,0,0,1-1.3.064H79.584a6.963,6.963,0,0,0,.48-.848c1.456-.112,1.456-.112,3.728-.368.224.384.32.576.7,1.264l1.44-.928A31.651,31.651,0,0,0,83.472-9.7l-1.328.816c.448.56.592.752.848,1.1-1.792.144-1.792.144-3.04.192a39.572,39.572,0,0,0,3.136-3.28c.352-.432.464-.576.576-.688l-1.632-.88a15.992,15.992,0,0,1-2.4,3.04c-.352-.352-.512-.5-.96-.88a24.289,24.289,0,0,0,1.7-2.048c.272-.368.272-.368.416-.544Zm2.608,9.648a8.639,8.639,0,0,1-1.568,1.44,6.135,6.135,0,0,1-1.5-1.44Zm-7.536-9.712a7.842,7.842,0,0,1-3.264,3.136,5.757,5.757,0,0,1,.9,1.472,13.3,13.3,0,0,0,2.784-2.352c.4-.464.416-.48,1.008-1.248ZM72.688-3.44V-.5a12.058,12.058,0,0,1-.1,1.76h1.856C74.4.736,74.384.272,74.384-.624V-7.1c.128-.192.528-.736.816-1.152.1-.128.16-.224.192-.256a7.784,7.784,0,0,1,.432-.656l-1.44-.944a7.3,7.3,0,0,1-.96,1.584,11.947,11.947,0,0,1-2.656,2.576,6.476,6.476,0,0,1,.752,1.7A7.438,7.438,0,0,0,72.7-5.408ZM92.224.384c-.016-.208-.016-.336-.016-.432A13.135,13.135,0,0,1,93.632-4.9l-1.28-.576A16.318,16.318,0,0,0,91.52-3.36c.016-.4.032-.528.032-.88a26.715,26.715,0,0,1,.24-3.536A22.059,22.059,0,0,1,92.8-12.56l-2.112-.224a10.47,10.47,0,0,1-.24,1.488,30.717,30.717,0,0,0-.656,6.256,27.908,27.908,0,0,0,.416,4.784c.048.368.064.464.08.752ZM94.432-9.2a18.994,18.994,0,0,0,2.88.176,28.659,28.659,0,0,0,3.424-.192c.768-.1,1.008-.128,1.136-.144l-.1-1.936a17.644,17.644,0,0,1-4.352.432,11.536,11.536,0,0,1-2.96-.256Zm1.1,2.64a5.227,5.227,0,0,0-1.472,3.3,2.68,2.68,0,0,0,.48,1.568c.7.944,1.984,1.392,3.968,1.392a19.731,19.731,0,0,0,3.312-.3,5.348,5.348,0,0,1,.656-.1l-.16-2.032a11.244,11.244,0,0,1-3.808.608c-1.664,0-2.544-.48-2.544-1.392a3.619,3.619,0,0,1,1.136-2.3Zm11.776-5.2a7.644,7.644,0,0,1,.064,1.024c.064,4.432.352,6.752,1.008,8.352.64,1.536,1.5,2.32,2.576,2.32,1.36,0,2.288-1.3,3.12-4.416a7.9,7.9,0,0,1-1.6-1.456,11.8,11.8,0,0,1-.848,2.9c-.192.448-.416.688-.656.688-.512,0-1.024-1.024-1.3-2.688a29.941,29.941,0,0,1-.3-4.288,18.6,18.6,0,0,1,.128-2.432Zm8.08,1.52A13.966,13.966,0,0,1,117.664-6.3a16.22,16.22,0,0,1,1.024,4.624l1.984-.752a15.952,15.952,0,0,0-3.6-8.608ZM125.9-5.36A10.106,10.106,0,0,1,127.76-5.9a17.93,17.93,0,0,1,4.208-.624c1.7,0,2.624.672,2.624,1.92a2.57,2.57,0,0,1-1.136,2.16,5.643,5.643,0,0,1-2.672,1.088,14.1,14.1,0,0,1-2.272.24h-.24A5.058,5.058,0,0,1,128.96.7,15.73,15.73,0,0,0,132.432.1c2.544-.8,4.048-2.528,4.048-4.656a3.629,3.629,0,0,0-.592-2.064c-.72-1.1-1.952-1.632-3.776-1.632a22.606,22.606,0,0,0-4.944.672,8.53,8.53,0,0,1-1.664.3Zm16.384-3.408a2.389,2.389,0,0,1,.3-.016c.128,0,.352,0,.64.016.272.016.432.016.512.016h.928a1.355,1.355,0,0,0,.208-.016A34.184,34.184,0,0,1,142.016-.16l2.016.784a54.247,54.247,0,0,0,1.792-5.3c.416-1.456.816-3.152.992-4.144a21.811,21.811,0,0,0,2.624-.336c.384-.064.384-.064.512-.08l-.08-1.84a13.279,13.279,0,0,1-2.736.48c.064-.368.08-.464.16-.912a9.092,9.092,0,0,1,.3-1.536l-2.112-.192a2.172,2.172,0,0,1,.016.288,19.418,19.418,0,0,1-.3,2.448c-.368.016-.544.016-.736.016a12.73,12.73,0,0,1-2.144-.144Zm12.688.352c-1.008-.016-1.152-.016-1.584-.016a20.533,20.533,0,0,0-4.768.512l.144,1.76a17.268,17.268,0,0,1,4.224-.464,16.656,16.656,0,0,1,2.016.112Zm-6.3,3.36a4.512,4.512,0,0,0-1.184,2.768A2.312,2.312,0,0,0,148.624-.32a6.5,6.5,0,0,0,3.216.64,18.619,18.619,0,0,0,2.976-.256c.368-.064.5-.08.784-.112l-.144-1.968a12.245,12.245,0,0,1-3.632.592c-1.6,0-2.4-.416-2.4-1.232a2.655,2.655,0,0,1,.832-1.76Zm14.72-.88c.352-.752,1.056-2.5,1.968-4.832a15.416,15.416,0,0,1,.784-1.84l-2.16-.544c-.112.656-.112.656-3.792,10.88-.512,1.392-.656,1.776-.88,2.24l2.064.672a18.353,18.353,0,0,1,1.344-3.664c.784-1.44,1.68-2.24,2.544-2.24a.792.792,0,0,1,.72.368,2.184,2.184,0,0,1,.128.944c0,.16,0,.544-.016,1.12v.16A4.637,4.637,0,0,0,166.368-.9,2.5,2.5,0,0,0,168.88.5c2.416,0,3.984-1.664,4.672-4.976a5,5,0,0,1-1.76-1.2,10.027,10.027,0,0,1-.608,2.544c-.464,1.12-1.152,1.712-2,1.712a1.344,1.344,0,0,1-.848-.224c-.288-.24-.352-.56-.352-1.712,0-1.84-.08-2.416-.4-2.928a2.166,2.166,0,0,0-1.792-.912,2.993,2.993,0,0,0-2.064.944l-.3.352Zm26.672-.736c-.016-.32-.032-.624-.032-1.248v-3.424a11.5,11.5,0,0,1,.08-1.632,13.027,13.027,0,0,1-1.552.064h-5.2a12.77,12.77,0,0,1-1.52-.064,13.117,13.117,0,0,1,.064,1.52v8.32a5.31,5.31,0,0,1-.944.128l.432,1.712a2.364,2.364,0,0,1,.448-.144c1.536-.352,2.9-.752,4.336-1.232L186.16-4.08a9.812,9.812,0,0,0,4.448,2.96,6.823,6.823,0,0,1,.88-1.648,9.016,9.016,0,0,1-2.9-1.28c.752-.528,1.632-1.168,2.128-1.584a2.2,2.2,0,0,1,.384-.3Zm-1.232.112h.56a14.039,14.039,0,0,1-1.984,1.5,4.926,4.926,0,0,1-.96-1.5Zm-4.08,0a7.984,7.984,0,0,0,1.3,2.368c-.912.3-1.1.352-2.48.7V-6.56Zm-1.184-3.872v-.944h4.8v.944Zm0,1.424h4.8v.992h-4.8Zm-6.656-3.024a15.86,15.86,0,0,1,2.72,2.96l1.392-1.232a18.652,18.652,0,0,0-2.832-2.928Zm-.176,6.416a5.9,5.9,0,0,1,1.088-.08h.88v3.44a10.681,10.681,0,0,1-2.32,1.584l.784,1.824a4.023,4.023,0,0,1,.512-.416,15.741,15.741,0,0,0,1.824-1.5A3.829,3.829,0,0,0,181.536.688a17.516,17.516,0,0,0,4.864.336c1.376,0,3.216-.048,4.832-.112a6.975,6.975,0,0,1,.48-1.888,50.581,50.581,0,0,1-6.9.336,8.539,8.539,0,0,1-3.344-.4,2.251,2.251,0,0,1-1.088-1.072V-5.6a16.12,16.12,0,0,1,.064-1.744,6.934,6.934,0,0,1-1.216.08h-1.2a7.241,7.241,0,0,1-1.3-.08Zm27.632-6.432a9.8,9.8,0,0,1-1.136.048h-.576v-.1a6.923,6.923,0,0,1,.08-1.3h-1.712a6.565,6.565,0,0,1,.1,1.3v.1h-.768a6.071,6.071,0,0,1-.992-.064v-.976a7.667,7.667,0,0,1-1.392.08h-2.512a8.915,8.915,0,0,1-1.344-.08v1.7a6.306,6.306,0,0,1,.7-.064V-2.5a4.622,4.622,0,0,1-.88.128L194.3-.64a6.173,6.173,0,0,1,1.072-.32c.56-.16,1.312-.4,2.016-.624v1.2a15.715,15.715,0,0,1-.08,1.712h1.616a11.534,11.534,0,0,1-.08-1.7V-7.456h5.936a22.375,22.375,0,0,0,.64,4.768A13.953,13.953,0,0,1,204.16-1.28V-5.392c0-.816,0-1.056.032-1.424a9.889,9.889,0,0,1-1.04.048h-2.544a7.107,7.107,0,0,1-1.008-.048c.032.528.048.72.048,1.424v4.336c0,.528-.032.928-.064,1.392h1.44V-.7h2.448a12.341,12.341,0,0,1-1.088.768A4.731,4.731,0,0,1,203.392,1.3a13.65,13.65,0,0,0,2.576-2.368c.56,1.3,1.312,2.064,1.984,2.064a1.106,1.106,0,0,0,.992-.736,8.016,8.016,0,0,0,.464-2.336,5.743,5.743,0,0,1-1.264-.864c-.048,1.264-.16,2.016-.272,2.016-.032,0-.1-.08-.24-.336a7.057,7.057,0,0,1-.544-1.312,18.609,18.609,0,0,0,1.36-2.64c.128-.288.256-.576.352-.768L207.5-6.8a10.556,10.556,0,0,1-.9,2.272c-.128-.832-.224-1.68-.3-2.928h.88a13.2,13.2,0,0,1,1.792.08v-1.68a10,10,0,0,1-1.792.1h-.928c-.016-.48-.032-1.808-.032-2.368a12.3,12.3,0,0,1,.08-2.032H204.64a9.924,9.924,0,0,1,.048,1.152c.016,2.128.016,2.128.048,3.248h-1.28a12.934,12.934,0,0,0,.4-1.712,4.356,4.356,0,0,1,.512.032Zm-1.84,1.36a11.319,11.319,0,0,1-.352,1.728H201.5c-.08-.688-.176-1.264-.272-1.728Zm-3.68,1.728v-2.448c.192.016.256.016.48.032v.736c.24-.032.3-.032.544-.048.16.656.272,1.248.352,1.728Zm-2.56-2.448h1.1v1.872h-1.1Zm0,3.3h1.1V-6.4h-1.1Zm0,3.136h1.1v1.84c-.432.128-.576.176-1.1.3Zm4.736-.464h1.792v1.024h-1.792Zm-.016,2.272h1.808v1.136h-1.808Zm5.52-8.944a8.406,8.406,0,0,1,1.184,2.528l1.264-.736a12.834,12.834,0,0,0-1.28-2.416Zm7.936-.672a7.957,7.957,0,0,1,.064,1.088c0,.224,0,.56-.016,1.04-.1,4.016-.128,5.616-.128,6.448,0,2.144.464,3.376,1.568,4.112a5.216,5.216,0,0,0,2.8.7,6.056,6.056,0,0,0,4.8-2.032,9.856,9.856,0,0,0,1.9-4.08,6.91,6.91,0,0,1-1.936-1.232,10.726,10.726,0,0,1-.736,2.688,4.117,4.117,0,0,1-3.872,2.736,2.534,2.534,0,0,1-2.144-.832c-.32-.48-.416-1.056-.416-2.576,0-1.136.1-4.384.16-5.872a14.628,14.628,0,0,1,.192-2.16ZM229.36-2.4a17.221,17.221,0,0,1,3.472,3.648L234.32-.144a18.7,18.7,0,0,0-3.6-3.52Zm30.3-2.08a7.582,7.582,0,0,1-1.232.064h-3.056c.208-.24.272-.336.48-.608h3.3c.672,0,.976.016,1.376.048-.032-.4-.048-.752-.048-1.6v-2.1a15.256,15.256,0,0,1,.048-1.584,12,12,0,0,1-1.568.064h-5.392c.192-.288.256-.384.416-.64h5.68a13.916,13.916,0,0,1,1.9.1v-1.712a13.768,13.768,0,0,1-1.952.1h-4.784a8.552,8.552,0,0,1,.48-.864l-1.84-.464a8.881,8.881,0,0,1-2.56,3.84,5.091,5.091,0,0,1,1.328,1.248c.224-.24.288-.32.448-.5v2.544a12.486,12.486,0,0,1-.064,1.568,14.02,14.02,0,0,1,1.424-.048,8.323,8.323,0,0,1-3.376,2.352,3.913,3.913,0,0,1,.976,1.328,10.215,10.215,0,0,0,1.84-1.168A8.656,8.656,0,0,0,254.912-1.2a14.422,14.422,0,0,1-4.208.944,4.652,4.652,0,0,1,.72,1.552,16.154,16.154,0,0,0,5.056-1.52,14.7,14.7,0,0,0,4.944,1.488A5.574,5.574,0,0,1,262.1-.48a13.453,13.453,0,0,1-4.016-.736,13.541,13.541,0,0,0,2-1.824c.224-.256.288-.32.528-.56Zm-1.632,1.36a10.569,10.569,0,0,1-1.552,1.168,9.441,9.441,0,0,1-1.6-1.168Zm-3.7-5.808h4.48v.672h-4.48Zm0,1.888h4.48v.7h-4.48Zm-4.144-6.576a6.807,6.807,0,0,1-1.584,1.936,7.4,7.4,0,0,1-1.68,1.184,4.457,4.457,0,0,1,.992,1.5,13.811,13.811,0,0,0,3.536-3.312c.128-.16.16-.192.256-.32Zm.144,6.72a12.235,12.235,0,0,0,.736-1.072,2.707,2.707,0,0,1,.176-.272c.048-.1.1-.16.112-.192a1.627,1.627,0,0,1,.24-.368l-1.44-.992a7.15,7.15,0,0,1-.72,1.248,12.262,12.262,0,0,1-2.688,2.9,5.17,5.17,0,0,1,.736,1.744,6.536,6.536,0,0,0,1.184-1.216c-.032.9-.032,1.12-.032,1.7V-.768a17.2,17.2,0,0,1-.1,2h1.888a18.409,18.409,0,0,1-.1-2.032Zm24.432-5.152a9.8,9.8,0,0,1-1.136.048h-.576v-.1a6.923,6.923,0,0,1,.08-1.3h-1.712a6.567,6.567,0,0,1,.1,1.3v.1h-.768a6.071,6.071,0,0,1-.992-.064v-.976a7.667,7.667,0,0,1-1.392.08h-2.512a8.915,8.915,0,0,1-1.344-.08v1.7a6.306,6.306,0,0,1,.7-.064V-2.5a4.622,4.622,0,0,1-.88.128L264.7-.64a6.173,6.173,0,0,1,1.072-.32c.56-.16,1.312-.4,2.016-.624v1.2a15.711,15.711,0,0,1-.08,1.712h1.616a11.534,11.534,0,0,1-.08-1.7V-7.456h5.936a22.375,22.375,0,0,0,.64,4.768A13.953,13.953,0,0,1,274.56-1.28V-5.392c0-.816,0-1.056.032-1.424a9.889,9.889,0,0,1-1.04.048h-2.544A7.107,7.107,0,0,1,270-6.816c.032.528.048.72.048,1.424v4.336c0,.528-.032.928-.064,1.392h1.44V-.7h2.448a12.344,12.344,0,0,1-1.088.768A4.731,4.731,0,0,1,273.792,1.3a13.65,13.65,0,0,0,2.576-2.368c.56,1.3,1.312,2.064,1.984,2.064a1.106,1.106,0,0,0,.992-.736,8.017,8.017,0,0,0,.464-2.336,5.742,5.742,0,0,1-1.264-.864c-.048,1.264-.16,2.016-.272,2.016-.032,0-.1-.08-.24-.336a7.056,7.056,0,0,1-.544-1.312,18.609,18.609,0,0,0,1.36-2.64c.128-.288.256-.576.352-.768L277.9-6.8a10.553,10.553,0,0,1-.9,2.272c-.128-.832-.224-1.68-.3-2.928h.88a13.2,13.2,0,0,1,1.792.08v-1.68a10,10,0,0,1-1.792.1h-.928c-.016-.48-.032-1.808-.032-2.368a12.3,12.3,0,0,1,.08-2.032H275.04a9.931,9.931,0,0,1,.048,1.152c.016,2.128.016,2.128.048,3.248h-1.28a12.934,12.934,0,0,0,.4-1.712,4.356,4.356,0,0,1,.512.032Zm-1.84,1.36a11.319,11.319,0,0,1-.352,1.728H271.9c-.08-.688-.176-1.264-.272-1.728Zm-3.68,1.728v-2.448c.192.016.256.016.48.032v.736c.24-.032.3-.032.544-.048.16.656.272,1.248.352,1.728Zm-2.56-2.448h1.1v1.872h-1.1Zm0,3.3h1.1V-6.4h-1.1Zm0,3.136h1.1v1.84c-.432.128-.576.176-1.1.3Zm4.736-.464h1.792v1.024h-1.792Zm-.016,2.272h1.808v1.136h-1.808Zm5.52-8.944a8.406,8.406,0,0,1,1.184,2.528l1.264-.736a12.835,12.835,0,0,0-1.28-2.416Zm7.936-.672a7.957,7.957,0,0,1,.064,1.088c0,.224,0,.56-.016,1.04-.1,4.016-.128,5.616-.128,6.448,0,2.144.464,3.376,1.568,4.112a5.216,5.216,0,0,0,2.8.7,6.056,6.056,0,0,0,4.8-2.032,9.856,9.856,0,0,0,1.9-4.08,6.91,6.91,0,0,1-1.936-1.232,10.726,10.726,0,0,1-.736,2.688,4.117,4.117,0,0,1-3.872,2.736,2.534,2.534,0,0,1-2.144-.832c-.32-.48-.416-1.056-.416-2.576,0-1.136.1-4.384.16-5.872a14.625,14.625,0,0,1,.192-2.16Zm15.824,4.016a2.389,2.389,0,0,1,.3-.016c.128,0,.352,0,.64.016.272.016.432.016.512.016h.928a1.355,1.355,0,0,0,.208-.016A34.184,34.184,0,0,1,300.416-.16l2.016.784a54.242,54.242,0,0,0,1.792-5.3c.416-1.456.816-3.152.992-4.144a21.812,21.812,0,0,0,2.624-.336c.384-.064.384-.064.512-.08l-.08-1.84a13.279,13.279,0,0,1-2.736.48c.064-.368.08-.464.16-.912a9.091,9.091,0,0,1,.3-1.536l-2.112-.192a2.168,2.168,0,0,1,.016.288,19.418,19.418,0,0,1-.3,2.448c-.368.016-.544.016-.736.016a12.73,12.73,0,0,1-2.144-.144Zm12.688.352c-1.008-.016-1.152-.016-1.584-.016a20.533,20.533,0,0,0-4.768.512l.144,1.76a17.268,17.268,0,0,1,4.224-.464,16.657,16.657,0,0,1,2.016.112Zm-6.3,3.36a4.512,4.512,0,0,0-1.184,2.768A2.312,2.312,0,0,0,307.024-.32a6.5,6.5,0,0,0,3.216.64,18.619,18.619,0,0,0,2.976-.256c.368-.064.5-.08.784-.112l-.144-1.968a12.245,12.245,0,0,1-3.632.592c-1.6,0-2.4-.416-2.4-1.232a2.655,2.655,0,0,1,.832-1.76Zm14.528.112a8.783,8.783,0,0,0,2.064,1.808,6.823,6.823,0,0,1,.88-1.568A9.434,9.434,0,0,1,322-6.736a13.146,13.146,0,0,0,1.6-2.736,4.447,4.447,0,0,1,.352-.672l-.768-.832a5.828,5.828,0,0,1-.928.048H321.6V-12.24a6.82,6.82,0,0,1,.1-1.248H319.76a7.347,7.347,0,0,1,.1,1.216v1.344h-.8a9.769,9.769,0,0,1-1.264-.064v1.776a10.955,10.955,0,0,1,1.344-.064h2.608A9.507,9.507,0,0,1,320-6.816a11.036,11.036,0,0,1-2.752,2.16,6.2,6.2,0,0,1,.816,1.664,10.784,10.784,0,0,0,1.776-1.36V-.336a9.573,9.573,0,0,1-.1,1.664h1.936A11.362,11.362,0,0,1,321.6-.3Zm6.784-2.368h1.7c.56,0,1.056.032,1.568.08V-9.04a10.406,10.406,0,0,1-1.568.08h-1.7v-2.816a9.379,9.379,0,0,1,.112-1.664h-2a11.327,11.327,0,0,1,.112,1.664V-8.96h-1.2a10.8,10.8,0,0,1-1.568-.08v1.808c.512-.048,1.024-.08,1.568-.08h1.2v6.256h-1.744a14.508,14.508,0,0,1-1.84-.1V.784a12.9,12.9,0,0,1,1.808-.112H330.3a13.138,13.138,0,0,1,1.824.112V-1.152a13.724,13.724,0,0,1-1.824.1h-1.92Zm10.96,5.872A12.048,12.048,0,0,1,334.8-.112a5.161,5.161,0,0,1,.976,1.584,19,19,0,0,0,2.448-.64,13.923,13.923,0,0,0,2.912-1.424l-1.008-.848h4.352l-.864.784a12.037,12.037,0,0,0,5.344,2.144,5.364,5.364,0,0,1,.992-1.568,12.69,12.69,0,0,1-4.608-1.36h1.28c.8,0,1.3.016,1.792.064a2.807,2.807,0,0,1-.048-.64c0-.064-.016-.416-.016-1.04V-7.1a14.382,14.382,0,0,1,.064-1.712c-.56.048-1.008.064-1.792.064h-8.512c-.752,0-1.3-.016-1.776-.064A15.831,15.831,0,0,1,336.4-7.1v4.048c0,.8-.032,1.28-.064,1.68.512-.048.976-.064,1.776-.064Zm-1.232-5.984h8.512v.736h-8.512Zm0,1.936h8.512v.736h-8.512Zm0,1.936h8.512v.784h-8.512Zm9.648-8.288a9.727,9.727,0,0,1,.064-1.232,13.906,13.906,0,0,1-1.808.08h-7.264a14.177,14.177,0,0,1-1.824-.08,7.968,7.968,0,0,1,.08,1.232v1.232c0,.432-.032.8-.064,1.2.48-.032,1.04-.048,1.76-.048h7.376c.7,0,1.248.016,1.728.048-.032-.368-.048-.72-.048-1.2Zm-1.776.208v.88h-7.216v-.88Zm7.68,6.5a2.71,2.71,0,0,1,.608.1c.64.144,1.264.24,2.224.368a10.929,10.929,0,0,0-.08,1.36c0,2.576,1.584,3.968,4.5,3.968A5.749,5.749,0,0,0,364.528-.4a3.807,3.807,0,0,0,1.536-2.992,4.977,4.977,0,0,0-.688-2.352,6.149,6.149,0,0,0-.752-1.008,5.912,5.912,0,0,1-1.984.4,3.727,3.727,0,0,1,1.44,2.7c0,1.568-1.168,2.464-3.2,2.464a2.911,2.911,0,0,1-1.984-.592,2,2,0,0,1-.592-1.648,11.346,11.346,0,0,1,.08-1.136c.624.032.768.032,1.024.032a23.3,23.3,0,0,0,2.4-.144,2.056,2.056,0,0,1,.48-.048l.048-1.84a12.791,12.791,0,0,1-3.056.32c-.176,0-.3,0-.784-.016.1-.768.144-1.088.3-2.256.688.016.832.016.992.016.576,0,1.088-.032,2.24-.128.352-.032.432-.048.64-.064l.064-1.872a15.894,15.894,0,0,1-3.648.336,12.99,12.99,0,0,1,.512-2.7l-2.128-.192a.662.662,0,0,1,.016.16,18.833,18.833,0,0,1-.32,2.656,12.14,12.14,0,0,1-2.9-.576l-.16,1.76c.24.048.32.064.544.112a20.984,20.984,0,0,0,2.288.4c-.08.592-.224,1.664-.288,2.24a10.491,10.491,0,0,1-2.816-.608Zm17.648-6.624a7.643,7.643,0,0,1,.064,1.024c.064,4.432.352,6.752,1.008,8.352.64,1.536,1.5,2.32,2.576,2.32,1.36,0,2.288-1.3,3.12-4.416a7.9,7.9,0,0,1-1.6-1.456,11.8,11.8,0,0,1-.848,2.9c-.192.448-.416.688-.656.688-.512,0-1.024-1.024-1.3-2.688a29.942,29.942,0,0,1-.3-4.288,18.6,18.6,0,0,1,.128-2.432Zm8.08,1.52A13.965,13.965,0,0,1,381.664-6.3a16.22,16.22,0,0,1,1.024,4.624l1.984-.752a15.952,15.952,0,0,0-3.6-8.608ZM401.584-1.7c-.224-.128-.3-.192-.576-.368a14.312,14.312,0,0,0-4.384-2.256c-.016-.384-.016-.384-.064-1.936.624-.032.864-.048,1.088-.064,1.2-.112,1.92-.192,2.16-.224.368-.048.768-.1,1.04-.112l-.048-1.76a11.841,11.841,0,0,1-1.984.352c-1.472.16-1.472.16-2.272.208-.016-.992-.016-1.184-.032-1.584,1.408-.08,2.032-.128,3.44-.32a10.008,10.008,0,0,1,1.264-.144l-.08-1.776a21.647,21.647,0,0,1-4.608.608,9.917,9.917,0,0,1,.112-1.952h-2.032a11.418,11.418,0,0,1,.08,2.016c-.4.016-.944.032-1.2.032a21.039,21.039,0,0,1-4.3-.336l-.016,1.776h.256c.048,0,.176,0,.352.016,1.072.08,3.136.16,3.92.16.24,0,.5,0,1.008-.016.016.912.016,1.456.016,1.6-.448.016-.992.032-1.312.032a20.631,20.631,0,0,1-3.728-.272l-.032,1.728c.24,0,.4,0,.608.016,1.328.1,1.92.112,2.9.112.336,0,.832-.016,1.6-.032.016.64.016.64.032.864v.352a3.085,3.085,0,0,1,.016.384,8.36,8.36,0,0,0-1.072-.064c-2.688,0-4.272,1.024-4.272,2.768,0,1.584,1.344,2.5,3.68,2.5a4.26,4.26,0,0,0,2.64-.688,2.5,2.5,0,0,0,.9-2.16v-.176a7.119,7.119,0,0,1,.864.4A10.8,10.8,0,0,1,400.5.176Zm-6.752-1.232v.384a2.028,2.028,0,0,1-.192,1.024,1.661,1.661,0,0,1-1.392.512c-1.136,0-1.824-.368-1.824-.96,0-.688.784-1.1,2.08-1.1A5.615,5.615,0,0,1,394.832-2.928ZM415.12-8.512v-1.04c1.264-.032,1.552-.032,1.936-.032,1.328,0,2.1.032,2.688.08l-.016-1.84c-.592.064-1.84.1-4.624.112a12.582,12.582,0,0,1,.08-1.9l-2.016.016a8.682,8.682,0,0,1,.1,1.936c-.832.032-.832.032-1.36.048-1.312.032-1.472.032-2.512.064-2.064.08-2.32.08-2.72.08a6.967,6.967,0,0,1-.784-.032l.064,1.9c.432-.064.432-.064,2.848-.24.7-.048,2.208-.1,4.5-.16,0,.432,0,1.328.016,1.36a.658.658,0,0,0,.016.192,2.674,2.674,0,0,0-1.664-.48,2.945,2.945,0,0,0-3.184,2.912,2.5,2.5,0,0,0,1.1,2.16,2.949,2.949,0,0,0,1.856.576,2.636,2.636,0,0,0,2.352-1.136A3.368,3.368,0,0,1,411.936-1.6a7.551,7.551,0,0,1-2.72.928,5.251,5.251,0,0,1,1.136,1.808,11.185,11.185,0,0,0,2.9-1.312,5.134,5.134,0,0,0,2.384-4.32,4.869,4.869,0,0,0-.512-2.256c0-.192-.016-.32-.016-.384Zm-1.84,2.64a1.458,1.458,0,0,1-1.568,1.44,1.263,1.263,0,0,1-1.36-1.264,1.4,1.4,0,0,1,1.488-1.28C412.72-6.976,413.28-6.544,413.28-5.872Z" transform="translate(1079 4651.136)" fill="#0052aa"/>
    <path id="パス_1176" data-name="パス 1176" d="M-15.645-18.8v-4.62a48.081,48.081,0,0,0,9.59-2.38c.63-.21.77-.28,1.155-.385l-2.87-3.4c-1.785,1.33-7.84,2.87-11.8,2.975a40.686,40.686,0,0,1,.21,5.46c0,13.265-.875,17.85-4.2,21.91A16.15,16.15,0,0,1-20.09,3.08a21.325,21.325,0,0,0,3.115-7.035,45.672,45.672,0,0,0,1.3-11.3h3.745v14.1a24.9,24.9,0,0,1-.21,4.13H-8.05a24.148,24.148,0,0,1-.21-4.13v-14.1h.875a19.941,19.941,0,0,1,2.8.14V-19a17.311,17.311,0,0,1-3.185.21ZM-30.2-14.7v2.485H-33.74a19.242,19.242,0,0,1-3.255-.175v3.71a19.589,19.589,0,0,1,3.185-.175h2.275a18.018,18.018,0,0,1-6.125,6.02A13.12,13.12,0,0,1-35.875.735,17.5,17.5,0,0,0-30.1-5.74c-.07.805-.1,1.715-.1,2.38V.14A20.4,20.4,0,0,1-30.38,2.9h4.025a16.768,16.768,0,0,1-.21-2.9V-3.5c0-.175-.035-1.26-.035-1.365-.035-.91-.035-.91-.07-1.365a17.753,17.753,0,0,0,3.43,3.78,21.186,21.186,0,0,1,1.68-3.325,15.351,15.351,0,0,1-3.605-3.08h1.3a25.743,25.743,0,0,1,3.185.14V-12.39a19.329,19.329,0,0,1-3.185.175h-2.7V-14.7h2.835a26.742,26.742,0,0,1,3.22.14v-3.745a19.283,19.283,0,0,1-3.22.175h-.7a12.582,12.582,0,0,0,.77-1.54,6.8,6.8,0,0,1,.6-1.3c.315-.77.315-.77.525-1.225l-2.975-.84h1.435a27.658,27.658,0,0,1,3.29.14v-3.745a19.243,19.243,0,0,1-3.255.175h-2.38v-.525a12.83,12.83,0,0,1,.175-2.555h-4.235a13.485,13.485,0,0,1,.175,2.555v.525h-2.66a20.151,20.151,0,0,1-3.36-.175v3.745a27.285,27.285,0,0,1,3.29-.14H-31.4l-3.08.77a14.614,14.614,0,0,1,1.54,4.13h-.84a18.99,18.99,0,0,1-3.255-.175v3.745a25.743,25.743,0,0,1,3.185-.14Zm4.2-8.33a19.656,19.656,0,0,1-1.96,4.9H-32.76l3.115-.84a15.5,15.5,0,0,0-1.5-4.06ZM19.18-8.715a19.18,19.18,0,0,1,.14-2.87h-4.2a16.269,16.269,0,0,1,.175,2.87H6.055a35.312,35.312,0,0,1-4.445-.21v3.99a37.285,37.285,0,0,1,4.445-.21H15.3v4.41a23.013,23.013,0,0,1-.245,3.78h4.375A21.571,21.571,0,0,1,19.18-.77V-5.145h9.8a31.034,31.034,0,0,1,4.48.21v-3.99a35.946,35.946,0,0,1-4.48.21Zm-3.92-17.43H6.335A29.7,29.7,0,0,1,2.1-26.39v3.955a30.647,30.647,0,0,1,4.165-.21H28.91a30.467,30.467,0,0,1,4.06.21V-26.39a28.344,28.344,0,0,1-4.165.245h-9.66v-.805a14.516,14.516,0,0,1,.21-2.555h-4.3a14.516,14.516,0,0,1,.21,2.555Zm-5.81,3.57a15.328,15.328,0,0,1-2.87,5.81,16.912,16.912,0,0,1-4.48,4.27,15.043,15.043,0,0,1,2.765,2.94A31.1,31.1,0,0,0,10.08-15.33a25.066,25.066,0,0,0,4.305,4.34,16.07,16.07,0,0,1,2.45-3.08A16.624,16.624,0,0,1,11.9-18.445a30.661,30.661,0,0,0,1.33-3.01Zm13.16.035a14.132,14.132,0,0,1-1.75,4.27A15.484,15.484,0,0,1,17.4-14.1a11.723,11.723,0,0,1,2.695,2.73,22.174,22.174,0,0,0,3.325-4.1,21,21,0,0,0,7.49,5.425,16.058,16.058,0,0,1,2.03-3.57,16.681,16.681,0,0,1-7.84-4.83c.385-.875.56-1.26,1.225-2.905ZM-59.982,108V99.456l16.376-30.883a11.276,11.276,0,0,0,1.424-4.049Q-42,62.788-42,60.207q0-1.157-.045-2.447a5.939,5.939,0,0,0-.489-2.27,4.214,4.214,0,0,0-1.335-1.647,4.25,4.25,0,0,0-2.581-.667A4.486,4.486,0,0,0-49.7,54.333a4.482,4.482,0,0,0-1.2,3.382v5.162h-9.078V57.893a13.412,13.412,0,0,1,1.068-5.34,13.779,13.779,0,0,1,2.937-4.361A13.328,13.328,0,0,1-51.7,45.21a12.949,12.949,0,0,1,5.34-1.112,13.308,13.308,0,0,1,6.1,1.291A12.162,12.162,0,0,1-36.041,48.9a15.326,15.326,0,0,1,2.358,5.073,23.49,23.49,0,0,1,.757,6.052q0,2.314-.089,3.871a23.426,23.426,0,0,1-.356,2.982,13.139,13.139,0,0,1-.89,2.848q-.623,1.424-1.691,3.471L-49.3,98.922h16.376V108Zm45.3,0L-4.357,81.389l-.178-.178a3.558,3.558,0,0,1-1.38.579,10.917,10.917,0,0,1-2.447.222,8.892,8.892,0,0,1-4.45-1.157,9.032,9.032,0,0,1-3.2-2.937A7.776,7.776,0,0,1-16.995,76a12.3,12.3,0,0,1-.534-2.626,32.564,32.564,0,0,1-.356-4.049q-.089-2.447-.089-6.185,0-3.115.089-5.118a24.922,24.922,0,0,1,.356-3.427,9.416,9.416,0,0,1,.578-2.314,16.444,16.444,0,0,1,1.024-2.047A12.276,12.276,0,0,1-11.165,45.7a13.969,13.969,0,0,1,6.72-1.6,13.414,13.414,0,0,1,6.675,1.646,12.934,12.934,0,0,1,4.717,4.495,22.837,22.837,0,0,1,1.068,2.047A10.661,10.661,0,0,1,8.726,54.6q.178,1.424.267,3.427t.089,5.118q0,2.937-.089,4.85t-.267,3.248q-.267,1.424-.579,2.536t-.756,2.359L-4.535,108ZM-8.9,69.463a4.292,4.292,0,0,0,1.335,3.293A4.422,4.422,0,0,0-4.446,74a4.422,4.422,0,0,0,3.115-1.246A4.292,4.292,0,0,0,0,69.463V57.715a4.292,4.292,0,0,0-1.335-3.293,4.422,4.422,0,0,0-3.115-1.246,4.422,4.422,0,0,0-3.115,1.246A4.292,4.292,0,0,0-8.9,57.715Zm41.454,16.4a30.752,30.752,0,0,1,5.124,4.41c-2.268,1.512-3.654,2.394-5,3.15A61.117,61.117,0,0,1,22.6,97.71a11.573,11.573,0,0,1,2.688,4.2,69.695,69.695,0,0,0,7.98-3.78v9.114a31.593,31.593,0,0,1-.252,4.158h4.872v-2.268H53.936V111.4h4.788a28.189,28.189,0,0,1-.252-4.158V96.45a25.387,25.387,0,0,1,.21-3.864,25.854,25.854,0,0,1-3.528.168H41.546A55.96,55.96,0,0,0,54.188,80.616c.966-1.26,1.008-1.3,1.512-1.932l-2.478-2.646a23.074,23.074,0,0,1-3.7.21h-8.61c.714-.966,1.092-1.47,2.184-3.066l-4.956-1.218C35.666,77.13,30.122,82.17,23.234,85.53a10.491,10.491,0,0,1,2.856,3.528,43.553,43.553,0,0,0,11.34-8.736H48.476a43.638,43.638,0,0,1-7.182,7.266,36.538,36.538,0,0,0-5.25-4.2Zm5.292,11H53.978v8.274H37.85Z" transform="translate(1111 4487)" fill="#0052aa"/>
    <path id="パス_1177" data-name="パス 1177" d="M-23.2-23.52h-9.2a26.967,26.967,0,0,1-3.15-.14,27.4,27.4,0,0,1,.14,3.045V-9.9A26.231,26.231,0,0,1-35.6-6.4h4.13v-2.1h8.26V-1.4a29.344,29.344,0,0,1-.245,4.34h4.48a27.533,27.533,0,0,1-.245-4.34V-8.505h8.68v2.1H-6.4A24.088,24.088,0,0,1-6.58-9.9V-20.58a25.7,25.7,0,0,1,.14-3.08,25.031,25.031,0,0,1-3.185.14h-9.59V-25.8a25.663,25.663,0,0,1,.21-3.675h-4.41a22.692,22.692,0,0,1,.21,3.815Zm0,3.71v7.595h-8.26V-19.81Zm3.99,7.595V-19.81h8.68v7.595Zm39.235-6.09v2.555H13.79a15.523,15.523,0,0,1-2.905-.175v3.535a20.587,20.587,0,0,1,2.8-.14H20.02v6.055c0,.525-.21.665-1.12.665a20.961,20.961,0,0,1-3.22-.315,14.261,14.261,0,0,1,1.19,3.5c1.47.035,2.24.07,2.345.07,3.4,0,4.48-.805,4.48-3.325v-6.65h6.09a22.094,22.094,0,0,1,3.185.175v-3.57a20.943,20.943,0,0,1-3.185.175h-6.09v-2.555h2.03a18.476,18.476,0,0,1,2.765.14v-2.1a33.1,33.1,0,0,0,3.92,2.135,14.759,14.759,0,0,1,1.82-3.64,24.708,24.708,0,0,1-6.16-3.185,18.575,18.575,0,0,1-4.69-4.34H19.6a16.341,16.341,0,0,1-3.71,3.955,26.114,26.114,0,0,1-6.58,3.885,13.361,13.361,0,0,1,2.065,3.29c1.785-.98,2.45-1.365,3.535-2.065v2.065a18.4,18.4,0,0,1,2.66-.14ZM17.885-21.42H16.59a25.513,25.513,0,0,0,4.9-4.62,25.44,25.44,0,0,0,5.18,4.62H17.885ZM14.7-11.8A16.565,16.565,0,0,1,9.765-6.37a11.148,11.148,0,0,1,2.66,2.625,23.073,23.073,0,0,0,5.39-6.51ZM25.27-10.22A25.646,25.646,0,0,0,30.8-3.465,14.291,14.291,0,0,1,33.705-6.09a22.656,22.656,0,0,1-5.425-5.67ZM1.575-26.53a37.562,37.562,0,0,1,5.74,6.37l2.975-2.87a45,45,0,0,0-5.915-6.055Zm0,14.175A12.986,12.986,0,0,1,3.92-12.53H5.845v7.6A24.769,24.769,0,0,1,.805-1.54L2.52,2.45c.35-.28.56-.455,1.12-.875a37.774,37.774,0,0,0,4.025-3.36,8.467,8.467,0,0,0,4.34,3.22c1.75.56,3.99.7,10.185.7,3.6,0,8.05-.07,11.06-.21a15.335,15.335,0,0,1,1.05-4.1,107.4,107.4,0,0,1-15.75.77c-3.92,0-5.7-.35-7.28-1.4A6.4,6.4,0,0,1,9.52-4.795V-12.32a25.052,25.052,0,0,1,.14-3.78A18.716,18.716,0,0,1,7-15.96H4.375a15.653,15.653,0,0,1-2.8-.175ZM-44.152,49.256-57.144,82.744l.224.224a4.477,4.477,0,0,1,1.736-.728,13.738,13.738,0,0,1,3.08-.28,11.189,11.189,0,0,1,5.6,1.456,11.366,11.366,0,0,1,4.032,3.7,12.654,12.654,0,0,1,1.232,2.464,18.869,18.869,0,0,1,.784,3.248q.224,2.016.336,5.1t.112,7.784q0,3.92-.112,6.44t-.336,4.2a15.739,15.739,0,0,1-.84,3.024,20.694,20.694,0,0,1-1.288,2.576,15.449,15.449,0,0,1-5.992,5.712,17.579,17.579,0,0,1-8.456,2.016,16.88,16.88,0,0,1-8.4-2.072,16.276,16.276,0,0,1-5.936-5.656,14.774,14.774,0,0,1-1.4-2.576,11.975,11.975,0,0,1-.728-3.024,28.383,28.383,0,0,1-.448-4.2q-.112-2.52-.112-6.44,0-3.7.112-6.1t.336-4.2a17.852,17.852,0,0,1,.672-3.08q.448-1.4,1.008-2.968l15.008-40.1Zm-7.28,48.5a5.4,5.4,0,0,0-1.68-4.144,5.564,5.564,0,0,0-3.92-1.568,5.564,5.564,0,0,0-3.92,1.568,5.4,5.4,0,0,0-1.68,4.144v14.784a5.4,5.4,0,0,0,1.68,4.144,5.564,5.564,0,0,0,3.92,1.568,5.564,5.564,0,0,0,3.92-1.568,5.4,5.4,0,0,0,1.68-4.144Zm30.24-32.032a17.417,17.417,0,0,1,1.4-7.168,16.772,16.772,0,0,1,3.752-5.376,16.142,16.142,0,0,1,5.432-3.416,17.9,17.9,0,0,1,6.44-1.176,17.9,17.9,0,0,1,6.44,1.176A16.142,16.142,0,0,1,7.7,53.176a16.772,16.772,0,0,1,3.752,5.376,17.417,17.417,0,0,1,1.4,7.168v46.816a17.417,17.417,0,0,1-1.4,7.168A16.772,16.772,0,0,1,7.7,125.08,16.142,16.142,0,0,1,2.272,128.5a17.9,17.9,0,0,1-6.44,1.176,17.9,17.9,0,0,1-6.44-1.176,16.142,16.142,0,0,1-5.432-3.416,16.772,16.772,0,0,1-3.752-5.376,17.417,17.417,0,0,1-1.4-7.168Zm11.424,46.816A5.649,5.649,0,0,0-8.2,116.624a5.358,5.358,0,0,0,4.032,1.624,5.358,5.358,0,0,0,4.032-1.624,5.649,5.649,0,0,0,1.568-4.088V65.72A5.649,5.649,0,0,0-.136,61.632a5.358,5.358,0,0,0-4.032-1.624A5.358,5.358,0,0,0-8.2,61.632,5.649,5.649,0,0,0-9.768,65.72Zm51.382-9.886a36.609,36.609,0,0,1,6.1,5.25c-2.7,1.8-4.35,2.85-5.95,3.75a72.758,72.758,0,0,1-12,5.1,13.777,13.777,0,0,1,3.2,5,82.971,82.971,0,0,0,9.5-4.5V128.1a37.611,37.611,0,0,1-.3,4.95h5.8v-2.7h19.1v2.7h5.7a33.557,33.557,0,0,1-.3-4.95V115.25a30.222,30.222,0,0,1,.25-4.6,30.778,30.778,0,0,1-4.2.2h-16.2A66.619,66.619,0,0,0,67.364,96.4c1.15-1.5,1.2-1.55,1.8-2.3l-2.95-3.15a27.469,27.469,0,0,1-4.4.25H51.564c.85-1.15,1.3-1.75,2.6-3.65l-5.9-1.45c-2.95,6.15-9.55,12.15-17.75,16.15a12.49,12.49,0,0,1,3.4,4.2,51.848,51.848,0,0,0,13.5-10.4h13.15a51.951,51.951,0,0,1-8.55,8.65,43.5,43.5,0,0,0-6.25-5Zm6.3,13.1h19.2v9.85h-19.2Z" transform="translate(1476 4474)" fill="#0052aa"/>
    <g id="グループ_270" data-name="グループ 270" transform="translate(435.617 -1113.692)" style="mix-blend-mode: multiply;isolation: isolate">
      <path id="パス_830" data-name="パス 830" d="M812.367,5539.478c.92,2.557,1.452,2.945,1.787,2.945h.34a16.916,16.916,0,0,0,.533,3.235,30.736,30.736,0,0,1,.384,5.311s4.149,3.573,5.357,4.777,1.932,1.548,2.607,1.548,4.347-3.479,4.347-3.479-.2-2.366-.2-3.332a21.432,21.432,0,0,1,.338-2.8,5.66,5.66,0,0,0,1.474-3.363l.214-2.173s.728-.254,1.235-1.74.613-3.874.288-4.2l-.325-.328s1.158-6.4-1.594-10.1-8.072-3.8-10.716-3.041-2.932,2.644-2.932,2.644a6.326,6.326,0,0,0-3.4,5.286c-.434,4.056.542,5.031.542,5.031s-1.192,1.22-.279,3.777Zm87.624,56.655c-.972.972-4.406,4.019-5.96,5.574a57.105,57.105,0,0,1-5.118,4.127h-1.133s.678-2.431,1.068-4.663.39-7.093,2.332-9.911,2.338-9.047,2.338-9.047,1.291,1.62,2.263,2.589,1.1,3.242,2.66,4.8,3.106,5.567,3.106,5.567-.585,0-1.554.969Zm3.174-22.812c-1.427-2.2-4.748-4.426-4.748-6.414s-1.019-1.021-1.409-2.773-2.1-5.745-3.04-6.68-12.56-4.467-14.049-4.919-5.12-1.816-5.12-1.816.52,1.94,1.1,9.973-2.222,16.748-2.222,16.748-.52-8.285-1.384-10.4-2.114-3.368-1.724-4.835a43.081,43.081,0,0,1,1.684-4.4s-.564-1.208-3.971-.734-3.906,1.684-3.906,1.684a14,14,0,0,1,2.2,3.108c.322,1.037.452,2.074-.585,4.4a22.843,22.843,0,0,0-1.294,6.219s-3.108-6.865-3.95-11.335-1.232-10.122-1.232-10.122-2.591,3.579-4.469,4.749-10.487,4.856-12.369,6.731l-.081.105a78.52,78.52,0,0,0-8.921-3.371,12.572,12.572,0,0,0-3.334-.724l-2.194-3.718s-1.195,5.107-1.882,8.543-.975,4.563-.975,4.563-.761-3.584-1.086-4.454a1.854,1.854,0,0,1,.105-1.736c.167-.164,1.343-1.34,1.343-1.34s-1.2-2.5-2.786-2.5-3.225,2.244-3.225,2.244a4.767,4.767,0,0,1,1.523,1.845,18.069,18.069,0,0,1,.18,3.4s-4.56-7.859-6.008-9.843a6.227,6.227,0,0,1-1.445-3.188l-2.972,3.368a29.189,29.189,0,0,0-6.3,1.628c-2.461,1.087-5.321,1.337-6.732,2.748s-1.411,6.8-1.411,8.691-.616,5.353,0,7.6.542,10.348,1.124,13.823,1.266,8.794,2.315,9.843.867,1.452.867,1.452-2.486,13.823-3.064,18.265l-.579,4.436a5.159,5.159,0,0,0,2.219,1.065h.87s.387,5.209.387,7.72-1.835,4.055-1.835,5.983.483,5.023,0,7.819-.483,17.179-1.062,19.5-3.523,19.686-2.8,26.344-1.885,24.035-1.885,28.087-.359,4.129-.359,4.129a11.894,11.894,0,0,1-2.34,4.705c-1.6,1.587-3.138,5.159-2.946,6.221a2.864,2.864,0,0,0,.965,1.835c.434.433,3.569.965,5.7.241s4.681-2.557,4.681-3.473.046-2.219.625-2.8a10.245,10.245,0,0,0,1.111-1.4l1.786.529s3.281-1.641,3.281-2.217a9.471,9.471,0,0,1,.288-1.689s.146-1.857.146-2.244a.909.909,0,0,0-.214-.6l.214-.217s1.065-5.042,0-8.806a9.343,9.343,0,0,1,.461-6.806c.359-1.158.145-7.454.724-10.354s.938-8.026,1.666-10.06,1.59-11.5,2.169-14.693,7.528-26.272,7.528-26.272.724,17.083,0,19.834-1.449,2.17-1.449,7.525-1.012,16.989-1.012,19.782a30.5,30.5,0,0,1-1.544,8.982c-.771,1.928-1.591,7-.771,7.819s.239,3.52.239,3.52l.34,4.1,2.8,1.782,2.557-.093a6.719,6.719,0,0,1,2.027,2.606c.821,1.786,2.6,2.652,4.247,3.328s5.621.071,6.274-.58,1.086-3.209-.724-5.017l-4.68-4.683.338-.334s.82-6.575,0-9.221-.133-2.637.084-4.089,2.039-7.831,2.907-11.979,4.875-17.371,5.742-26.78,2.461-24.18,2.461-29.244V5626.6l1.914-.718s-.192-10.815-1.449-16.512a87.669,87.669,0,0,1-1.641-10.233s.365.046.957.111l.074.124c.774,1.226,2.387,2.31,4,5.118a11.4,11.4,0,0,0,6.087,5.006l1.363,19.888.972.969s2.006,34.852,2.393,38.8,2.105,9.363,2.914,10.171.975,7.251,1.492,10.363,3.239,10.753,3.239,13.215.322,9.76.322,9.76l.761.084c-.075,0-.391.022-1.061.69-.777.783-3.412,2.074-5.313,4.712s-1.508,4.06-1.508,4.06.214.216.56.56,2.635,1.081,6.131.82,5.917-2.334,6.521-3.625,1.511-2.245,1.511-1.968H871.1c0-.277.477-.277,1.641-.71a11.245,11.245,0,0,0,2.5-1.511s.26-3.932.26-4.4a19.225,19.225,0,0,0-.821-2.725s-.563-3.5-.864-6.177-2.27-6.168-2.27-8.4a146.84,146.84,0,0,0-1.845-16.716c-.873-4.369-.486-3.2.486-5.828s0-9.131,0-11.759.777-8.255.777-8.255,2.041,6.415,2.041,8.255.616,31.544.941,35.752,2.2,11.138,2.523,14.447,0,10.342,0,10.342a1.4,1.4,0,0,0,.5.863c.5.5,1.109,1.158,1.109,1.158a2.4,2.4,0,0,0-.657,1.521c0,.864,0,3.517.369,3.886s2.545,1.9,2.545,1.9,1.6,0,1.771.777-.26,1.941-.26,3.105,5.267,3.889,7.732,3.889,4.4-1.425,4.576-2.592a8.414,8.414,0,0,0-1.725-6.3,28.076,28.076,0,0,1-3.4-5.761h.4s-.1-2.718-.1-5.825a49.557,49.557,0,0,0-1.653-10.2c-.582-2.231.585-6.9,1.653-11.075s-1.068-13.734-1.068-17.362.26-14.765-.712-15.733-.842-.839-.842-2.786a66.109,66.109,0,0,1,1.424-12.043c1.037-4.538,1.2-19.584,1.2-19.584s1.164-.774,1.164-4.464-.387-9.79-.387-9.79a4.2,4.2,0,0,1,1.263-.291c1.167-.194,1.947-.384,1.947-.384a8.116,8.116,0,0,0,1.746,1.1,4.744,4.744,0,0,0,2.621.533s4.176-6.024,6.993-10.106,8.741-11.945,8.741-14.762-8.834-14.452-10.261-16.652Zm-43-29.168s.387.263.387,1.725v3.982s-.043.34.56.941,6.394,5.167,7.106,5.167,2.548-2.548,3.777-3.78a4.833,4.833,0,0,0,1.384-2.632h.3a3.151,3.151,0,0,0,1.728-.434,3.232,3.232,0,0,0,.95-2.329,27.867,27.867,0,0,1,1.034-5.489c.477-1.725.281-3.264-.474-4.016s0-1.6,0-3.022-2.158-6.26-2.158-6.26a4.113,4.113,0,0,0,1.641-2.378c.387-1.6-.344-2.676-1.858-2.676a34.885,34.885,0,0,1-5.613-.95c-1.944-.39-5.635-1.186-11.208,3.409s-2.849,9.592-1.489,12.694a27.513,27.513,0,0,0,3.932,6.047Z" transform="translate(0)" fill="#ace2f7"/>
    </g>
    <g transform="matrix(1, 0, 0, 1, 952, 4307.07)" filter="url(#長方形_218)">
      <rect id="長方形_218-2" data-name="長方形 218" width="532" height="72" transform="translate(108 16.93)" fill="url(#linear-gradient-2)"/>
    </g>
    <path id="パス_1175" data-name="パス 1175" d="M16.325-13.425v-3.3a34.344,34.344,0,0,0,6.85-1.7c.45-.15.55-.2.825-.275l-2.05-2.425c-1.275.95-5.6,2.05-8.425,2.125a29.062,29.062,0,0,1,.15,3.9c0,9.475-.625,12.75-3,15.65A11.536,11.536,0,0,1,13.15,2.2a15.232,15.232,0,0,0,2.225-5.025A32.623,32.623,0,0,0,16.3-10.9h2.675V-.825a17.784,17.784,0,0,1-.15,2.95H21.75a17.249,17.249,0,0,1-.15-2.95V-10.9h.625a14.244,14.244,0,0,1,2,.1v-2.775a12.365,12.365,0,0,1-2.275.15ZM5.925-10.5v1.775H3.4A13.744,13.744,0,0,1,1.075-8.85V-6.2A13.992,13.992,0,0,1,3.35-6.325H4.975A12.87,12.87,0,0,1,.6-2.025,9.371,9.371,0,0,1,1.875.525,12.5,12.5,0,0,0,6-4.1c-.05.575-.075,1.225-.075,1.7V.1A14.572,14.572,0,0,1,5.8,2.075H8.675A11.977,11.977,0,0,1,8.525,0V-2.5c0-.125-.025-.9-.025-.975-.025-.65-.025-.65-.05-.975a12.681,12.681,0,0,0,2.45,2.7,15.133,15.133,0,0,1,1.2-2.375,10.965,10.965,0,0,1-2.575-2.2h.925a18.388,18.388,0,0,1,2.275.1V-8.85a13.806,13.806,0,0,1-2.275.125H8.525V-10.5H10.55a19.1,19.1,0,0,1,2.3.1v-2.675a13.774,13.774,0,0,1-2.3.125h-.5a8.987,8.987,0,0,0,.55-1.1,4.86,4.86,0,0,1,.425-.925c.225-.55.225-.55.375-.875l-2.125-.6H10.3a19.756,19.756,0,0,1,2.35.1v-2.675a13.745,13.745,0,0,1-2.325.125h-1.7v-.375A9.164,9.164,0,0,1,8.75-21.1H5.725a9.632,9.632,0,0,1,.125,1.825v.375H3.95a14.394,14.394,0,0,1-2.4-.125v2.675a19.49,19.49,0,0,1,2.35-.1H5.075l-2.2.55a10.439,10.439,0,0,1,1.1,2.95h-.6a13.564,13.564,0,0,1-2.325-.125V-10.4a18.388,18.388,0,0,1,2.275-.1Zm3-5.95a14.04,14.04,0,0,1-1.4,3.5H4.1l2.225-.6a11.069,11.069,0,0,0-1.075-2.9ZM43.7-6.225a13.7,13.7,0,0,1,.1-2.05h-3a11.621,11.621,0,0,1,.125,2.05h-6.6a25.223,25.223,0,0,1-3.175-.15v2.85a26.632,26.632,0,0,1,3.175-.15h6.6v3.15a16.438,16.438,0,0,1-.175,2.7h3.125A15.408,15.408,0,0,1,43.7-.55V-3.675h7a22.167,22.167,0,0,1,3.2.15v-2.85a25.676,25.676,0,0,1-3.2.15Zm-2.8-12.45H34.525A21.214,21.214,0,0,1,31.5-18.85v2.825a21.89,21.89,0,0,1,2.975-.15H50.65a21.762,21.762,0,0,1,2.9.15V-18.85a20.246,20.246,0,0,1-2.975.175h-6.9v-.575a10.369,10.369,0,0,1,.15-1.825H40.75a10.369,10.369,0,0,1,.15,1.825Zm-4.15,2.55a10.949,10.949,0,0,1-2.05,4.15,12.08,12.08,0,0,1-3.2,3.05,10.745,10.745,0,0,1,1.975,2.1A22.215,22.215,0,0,0,37.2-10.95a17.9,17.9,0,0,0,3.075,3.1,11.479,11.479,0,0,1,1.75-2.2A11.874,11.874,0,0,1,38.5-13.175a21.9,21.9,0,0,0,.95-2.15Zm9.4.025a10.094,10.094,0,0,1-1.25,3.05,11.06,11.06,0,0,1-2.475,2.975,8.373,8.373,0,0,1,1.925,1.95,15.838,15.838,0,0,0,2.375-2.925,15,15,0,0,0,5.35,3.875,11.47,11.47,0,0,1,1.45-2.55,11.915,11.915,0,0,1-5.6-3.45c.275-.625.4-.9.875-2.075ZM73.275-6.825a14.585,14.585,0,0,1-6.125,5.45A8.77,8.77,0,0,1,68.8.925a15.5,15.5,0,0,0,5.725-5.85c-.05.9-.075,1.3-.075,1.9V-.5a21.538,21.538,0,0,1-.15,2.625h2.9a19.986,19.986,0,0,1-.15-2.6v-2.6c0-.575-.025-1.125-.075-1.875A12.074,12.074,0,0,0,79.65-1.6,22.5,22.5,0,0,0,83.125.875a11.4,11.4,0,0,1,1.35-2.625,16.111,16.111,0,0,1-3.8-2.325,10.57,10.57,0,0,1-2.5-2.75h3.1c.85,0,1.75.05,2.475.125V-9.375a18.535,18.535,0,0,1-2.475.15H77.05V-9.5a6.06,6.06,0,0,1,.125-1.525h-2.85A6.3,6.3,0,0,1,74.45-9.5v.275h-3.6c-1.075,0-1.675-.025-2.275-.075v-1.825c-.85.4-1.125.5-1.9.8v-3.6h.55a10.285,10.285,0,0,1,1.375.075v-2.6a6.871,6.871,0,0,1-1.375.1h-.55v-2.075a14.2,14.2,0,0,1,.15-2.525H63.85A14.5,14.5,0,0,1,64-18.4v2.05H62.975A10.753,10.753,0,0,1,61.1-16.5v2.7a16.388,16.388,0,0,1,1.825-.125H64v4.55a18.526,18.526,0,0,1-3,.725l.4,2.825c.325-.125.6-.225,1-.375.75-.225.8-.25,1.6-.525V-1.3c0,.6-.15.75-.85.75A12.272,12.272,0,0,1,61.175-.7a8.6,8.6,0,0,1,.575,2.575c.725.025,1.075.05,1.5.05,1.575,0,2.325-.125,2.775-.5.45-.35.65-.925.65-1.95v-7.2c.575-.225.575-.225,1.675-.7v1.7a23.527,23.527,0,0,1,2.5-.1ZM81.35-21a15.888,15.888,0,0,1-4.175,1.3,57.736,57.736,0,0,1-8.775.75,8,8,0,0,1,.95,2.4A55.684,55.684,0,0,0,82.7-18.575a4.583,4.583,0,0,1,.575-.175Zm-8.225,9.6A19.394,19.394,0,0,0,71.1-15.9l-2.225.8A19.923,19.923,0,0,1,70.8-10.475Zm4.575-.775A17.69,17.69,0,0,0,76.15-16.5l-2.375.625a15.213,15.213,0,0,1,1.45,4.325Zm2.825,2A26.828,26.828,0,0,0,83.6-16l-2.55-1.025a18.414,18.414,0,0,1-2.8,5.925Zm20.9,4.375v4.125a20.6,20.6,0,0,1-.15,2.95h2.95A21.954,21.954,0,0,1,104.1-1.7V-5.8h6v4.375c0,.525-.225.625-1.25.625-.8,0-1.9-.075-3.15-.2a10.111,10.111,0,0,1,.7,2.6c.75.05,2.025.1,2.8.1,2.85,0,3.6-.525,3.6-2.6V-17.325c0-1.35.025-1.975.1-2.825a27.8,27.8,0,0,1-2.875.1H96c-1.35,0-2-.025-2.875-.1a33.772,33.772,0,0,1,.125,3.625c0,2.95-.1,6.5-.225,8.6a25.3,25.3,0,0,1-.5,3.825A11.433,11.433,0,0,1,90.7.125,15.04,15.04,0,0,1,93.125,2.1a16.783,16.783,0,0,0,2.55-7.9Zm0-2.475H95.85c0-.5,0-.675.025-1.85,0-.35.025-.85.025-1.575h5.525Zm2.675,0V-11.7h6v3.425Zm-2.675-5.875H95.95l.025-.7v-2.575h5.45Zm2.675,0v-3.275h6v3.275ZM131-17.125a19.756,19.756,0,0,1-.825,5.05,18.508,18.508,0,0,1-4.275,7.4A19.749,19.749,0,0,1,120.875-.75a7.012,7.012,0,0,1,2.05,2.625,24.974,24.974,0,0,0,6.2-5.65,20.971,20.971,0,0,0,3.575-7.55,16.159,16.159,0,0,0,1.275,3.55,19.038,19.038,0,0,0,2.2,3.7A25.192,25.192,0,0,0,142.25,1.8a10.61,10.61,0,0,1,2.125-2.825,17.891,17.891,0,0,1-3.7-2.7,20.225,20.225,0,0,1-4-4.8,19.356,19.356,0,0,1-2.675-9.9A11.8,11.8,0,0,1,134.075-20a13.622,13.622,0,0,1-2.275.125h-3.975a15.222,15.222,0,0,1-2.35-.125v3c.975-.075,1.725-.125,2.4-.125Zm26.5,9.4A13.722,13.722,0,0,0,160.725-4.9,10.662,10.662,0,0,1,162.1-7.35a14.74,14.74,0,0,1-3.975-3.175,20.54,20.54,0,0,0,2.5-4.275,6.95,6.95,0,0,1,.55-1.05l-1.2-1.3a9.107,9.107,0,0,1-1.45.075H157.5v-2.05a10.657,10.657,0,0,1,.15-1.95h-3.025a11.478,11.478,0,0,1,.15,1.9v2.1h-1.25a15.264,15.264,0,0,1-1.975-.1V-14.4a17.117,17.117,0,0,1,2.1-.1h4.075A14.854,14.854,0,0,1,155-10.65a17.243,17.243,0,0,1-4.3,3.375,9.686,9.686,0,0,1,1.275,2.6A16.848,16.848,0,0,0,154.75-6.8V-.525a14.956,14.956,0,0,1-.15,2.6h3.025a17.752,17.752,0,0,1-.125-2.55Zm10.6-3.7h2.65c.875,0,1.65.05,2.45.125v-2.825a16.259,16.259,0,0,1-2.45.125H168.1v-4.4a14.657,14.657,0,0,1,.175-2.6H165.15a17.7,17.7,0,0,1,.175,2.6V-14H163.45a16.877,16.877,0,0,1-2.45-.125V-11.3c.8-.075,1.6-.125,2.45-.125h1.875V-1.65H162.6a22.669,22.669,0,0,1-2.875-.15V1.225a20.161,20.161,0,0,1,2.825-.175h8.55a20.528,20.528,0,0,1,2.85.175V-1.8a21.443,21.443,0,0,1-2.85.15h-3ZM180.875-3.75a26.907,26.907,0,0,1,5.425,5.7l2.325-2.175A29.221,29.221,0,0,0,183-5.725Zm40.05-13.05H214.35a19.262,19.262,0,0,1-2.25-.1,19.572,19.572,0,0,1,.1,2.175v7.65a18.735,18.735,0,0,1-.125,2.5h2.95v-1.5h5.9V-1a20.96,20.96,0,0,1-.175,3.1h3.2a19.666,19.666,0,0,1-.175-3.1V-6.075h6.2v1.5h2.95a17.2,17.2,0,0,1-.125-2.5V-14.7a18.355,18.355,0,0,1,.1-2.2,17.879,17.879,0,0,1-2.275.1h-6.85v-1.625a18.329,18.329,0,0,1,.15-2.625h-3.15a16.208,16.208,0,0,1,.15,2.725Zm0,2.65v5.425h-5.9V-14.15Zm2.85,5.425V-14.15h6.2v5.425Zm30.525-4.35v1.825h-4.45a11.088,11.088,0,0,1-2.075-.125V-8.85a14.705,14.705,0,0,1,2-.1H254.3v4.325c0,.375-.15.475-.8.475a14.972,14.972,0,0,1-2.3-.225,10.186,10.186,0,0,1,.85,2.5c1.05.025,1.6.05,1.675.05,2.425,0,3.2-.575,3.2-2.375V-8.95h4.35a15.781,15.781,0,0,1,2.275.125v-2.55a14.959,14.959,0,0,1-2.275.125h-4.35v-1.825h1.45a13.2,13.2,0,0,1,1.975.1v-1.5a23.643,23.643,0,0,0,2.8,1.525,10.541,10.541,0,0,1,1.3-2.6,17.649,17.649,0,0,1-4.4-2.275,13.268,13.268,0,0,1-3.35-3.1H254a11.672,11.672,0,0,1-2.65,2.825,18.653,18.653,0,0,1-4.7,2.775,9.543,9.543,0,0,1,1.475,2.35c1.275-.7,1.75-.975,2.525-1.475v1.475a13.146,13.146,0,0,1,1.9-.1ZM252.775-15.3h-.925a18.224,18.224,0,0,0,3.5-3.3,18.172,18.172,0,0,0,3.7,3.3h-6.275ZM250.5-8.425a11.832,11.832,0,0,1-3.525,3.875,7.963,7.963,0,0,1,1.9,1.875,16.481,16.481,0,0,0,3.85-4.65ZM258.05-7.3A18.319,18.319,0,0,0,262-2.475a10.208,10.208,0,0,1,2.075-1.875A16.182,16.182,0,0,1,260.2-8.4ZM241.125-18.95a26.83,26.83,0,0,1,4.1,4.55l2.125-2.05a32.14,32.14,0,0,0-4.225-4.325Zm0,10.125A9.276,9.276,0,0,1,242.8-8.95h1.375v5.425a17.692,17.692,0,0,1-3.6,2.425L241.8,1.75c.25-.2.4-.325.8-.625a26.983,26.983,0,0,0,2.875-2.4,6.048,6.048,0,0,0,3.1,2.3c1.25.4,2.85.5,7.275.5,2.575,0,5.75-.05,7.9-.15a10.954,10.954,0,0,1,.75-2.925A76.715,76.715,0,0,1,253.25-1c-2.8,0-4.075-.25-5.2-1a4.573,4.573,0,0,1-1.25-1.425V-8.8a17.9,17.9,0,0,1,.1-2.7,13.368,13.368,0,0,1-1.9.1h-1.875a11.181,11.181,0,0,1-2-.125Zm42.15,2a14.585,14.585,0,0,1-6.125,5.45,8.77,8.77,0,0,1,1.65,2.3,15.5,15.5,0,0,0,5.725-5.85c-.05.9-.075,1.3-.075,1.9V-.5a21.536,21.536,0,0,1-.15,2.625h2.9a19.984,19.984,0,0,1-.15-2.6v-2.6c0-.575-.025-1.125-.075-1.875A12.073,12.073,0,0,0,289.65-1.6,22.5,22.5,0,0,0,293.125.875a11.4,11.4,0,0,1,1.35-2.625,16.111,16.111,0,0,1-3.8-2.325,10.57,10.57,0,0,1-2.5-2.75h3.1c.85,0,1.75.05,2.475.125V-9.375a18.535,18.535,0,0,1-2.475.15H287.05V-9.5a6.061,6.061,0,0,1,.125-1.525h-2.85A6.306,6.306,0,0,1,284.45-9.5v.275h-3.6c-1.075,0-1.675-.025-2.275-.075v-1.825c-.85.4-1.125.5-1.9.8v-3.6h.55a10.285,10.285,0,0,1,1.375.075v-2.6a6.871,6.871,0,0,1-1.375.1h-.55v-2.075a14.2,14.2,0,0,1,.15-2.525H273.85A14.5,14.5,0,0,1,274-18.4v2.05h-1.025a10.753,10.753,0,0,1-1.875-.15v2.7a16.387,16.387,0,0,1,1.825-.125H274v4.55a18.526,18.526,0,0,1-3,.725l.4,2.825c.325-.125.6-.225,1-.375.75-.225.8-.25,1.6-.525V-1.3c0,.6-.15.75-.85.75a12.272,12.272,0,0,1-1.975-.15,8.6,8.6,0,0,1,.575,2.575c.725.025,1.075.05,1.5.05,1.575,0,2.325-.125,2.775-.5.45-.35.65-.925.65-1.95v-7.2c.575-.225.575-.225,1.675-.7v1.7a23.527,23.527,0,0,1,2.5-.1ZM291.35-21a15.888,15.888,0,0,1-4.175,1.3,57.736,57.736,0,0,1-8.775.75,8,8,0,0,1,.95,2.4,55.685,55.685,0,0,0,13.35-2.025,4.582,4.582,0,0,1,.575-.175Zm-8.225,9.6a19.4,19.4,0,0,0-2.025-4.5l-2.225.8a19.922,19.922,0,0,1,1.925,4.625Zm4.575-.775a17.69,17.69,0,0,0-1.55-4.325l-2.375.625a15.213,15.213,0,0,1,1.45,4.325Zm2.825,2A26.829,26.829,0,0,0,293.6-16l-2.55-1.025a18.413,18.413,0,0,1-2.8,5.925Zm20.9,4.375v4.125a20.6,20.6,0,0,1-.15,2.95h2.95A21.952,21.952,0,0,1,314.1-1.7V-5.8h6v4.375c0,.525-.225.625-1.25.625-.8,0-1.9-.075-3.15-.2a10.112,10.112,0,0,1,.7,2.6c.75.05,2.025.1,2.8.1,2.85,0,3.6-.525,3.6-2.6V-17.325c0-1.35.025-1.975.1-2.825a27.8,27.8,0,0,1-2.875.1H306c-1.35,0-2-.025-2.875-.1a33.77,33.77,0,0,1,.125,3.625c0,2.95-.1,6.5-.225,8.6a25.293,25.293,0,0,1-.5,3.825A11.433,11.433,0,0,1,300.7.125,15.04,15.04,0,0,1,303.125,2.1a16.782,16.782,0,0,0,2.55-7.9Zm0-2.475H305.85c0-.5,0-.675.025-1.85,0-.35.025-.85.025-1.575h5.525Zm2.675,0V-11.7h6v3.425Zm-2.675-5.875H305.95l.025-.7v-2.575h5.45Zm2.675,0v-3.275h6v3.275ZM341-17.125a19.756,19.756,0,0,1-.825,5.05,18.507,18.507,0,0,1-4.275,7.4A19.748,19.748,0,0,1,330.875-.75a7.012,7.012,0,0,1,2.05,2.625,24.975,24.975,0,0,0,6.2-5.65,20.972,20.972,0,0,0,3.575-7.55,16.159,16.159,0,0,0,1.275,3.55,19.04,19.04,0,0,0,2.2,3.7A25.192,25.192,0,0,0,352.25,1.8a10.61,10.61,0,0,1,2.125-2.825,17.892,17.892,0,0,1-3.7-2.7,20.226,20.226,0,0,1-4-4.8,19.356,19.356,0,0,1-2.675-9.9A11.8,11.8,0,0,1,344.075-20a13.623,13.623,0,0,1-2.275.125h-3.975a15.222,15.222,0,0,1-2.35-.125v3c.975-.075,1.725-.125,2.4-.125Zm26.5,9.4A13.722,13.722,0,0,0,370.725-4.9,10.662,10.662,0,0,1,372.1-7.35a14.74,14.74,0,0,1-3.975-3.175,20.54,20.54,0,0,0,2.5-4.275,6.952,6.952,0,0,1,.55-1.05l-1.2-1.3a9.107,9.107,0,0,1-1.45.075H367.5v-2.05a10.655,10.655,0,0,1,.15-1.95h-3.025a11.478,11.478,0,0,1,.15,1.9v2.1h-1.25a15.265,15.265,0,0,1-1.975-.1V-14.4a17.118,17.118,0,0,1,2.1-.1h4.075A14.854,14.854,0,0,1,365-10.65a17.243,17.243,0,0,1-4.3,3.375,9.687,9.687,0,0,1,1.275,2.6A16.848,16.848,0,0,0,364.75-6.8V-.525a14.956,14.956,0,0,1-.15,2.6h3.025a17.752,17.752,0,0,1-.125-2.55Zm10.6-3.7h2.65c.875,0,1.65.05,2.45.125v-2.825a16.26,16.26,0,0,1-2.45.125H378.1v-4.4a14.657,14.657,0,0,1,.175-2.6H375.15a17.7,17.7,0,0,1,.175,2.6V-14H373.45a16.877,16.877,0,0,1-2.45-.125V-11.3c.8-.075,1.6-.125,2.45-.125h1.875V-1.65H372.6a22.669,22.669,0,0,1-2.875-.15V1.225a20.161,20.161,0,0,1,2.825-.175h8.55a20.528,20.528,0,0,1,2.85.175V-1.8a21.444,21.444,0,0,1-2.85.15h-3Zm26.35-4.6a5.464,5.464,0,0,1,2.525.75,6.194,6.194,0,0,1,3.075,5.55,7,7,0,0,1-3.475,6.25A13.286,13.286,0,0,1,401.6-2.1,7.975,7.975,0,0,1,403.125.825a16.344,16.344,0,0,0,3.925-1.05,9.631,9.631,0,0,0,6.075-9.325c0-5.625-3.9-9.275-9.9-9.275a11.222,11.222,0,0,0-8.6,3.5,10.739,10.739,0,0,0-2.75,7.275c0,4.025,2.05,6.925,4.9,6.925,2.05,0,3.65-1.475,5.075-4.7A36.167,36.167,0,0,0,404.45-16.025ZM401.4-16a32.949,32.949,0,0,1-2.075,8.45c-.9,2.15-1.75,3.2-2.575,3.2-1.1,0-1.975-1.625-1.975-3.675a8.37,8.37,0,0,1,3.4-6.75A6.364,6.364,0,0,1,401.4-16Zm25.675,2.625v1.125h-2.5a15.109,15.109,0,0,1-2.025-.1v2.2a14.187,14.187,0,0,1,2.025-.1h2.5V-9H423.4a13.143,13.143,0,0,1-2.225-.125V-6.7a18.806,18.806,0,0,1,2.225-.1h9.4a16.641,16.641,0,0,1,2.175.1V-9.125A12.672,12.672,0,0,1,432.8-9h-3.275v-1.25h2.3a13.2,13.2,0,0,1,1.975.1v-2.2a14.306,14.306,0,0,1-1.975.1h-2.3v-1.125h1.925a14.119,14.119,0,0,1,2.2.125v-1.225h1.4a17.022,17.022,0,0,1-.075-1.75v-1.25c0-.775.025-1.25.075-1.8a27.168,27.168,0,0,1-2.775.1h-2.55v-.175a7.989,7.989,0,0,1,.125-1.7h-2.975A8.247,8.247,0,0,1,427-19.325v.15h-3.15a22.493,22.493,0,0,1-2.55-.1,12.68,12.68,0,0,1,.1,1.825v1.325a11.882,11.882,0,0,1-.1,1.8h1.575v1.075a14.61,14.61,0,0,1,2.25-.125Zm-1.95-2.025c-.6,0-.85,0-1.3-.025v-1.6h8.8v1.6c-.375.025-.675.025-1.175.025h-1.925a5.867,5.867,0,0,1,.125-1.125h-2.7a5.628,5.628,0,0,1,.125,1.125ZM424.8-5.725c-.9,0-1.55-.025-2.125-.075a22.457,22.457,0,0,1,.1,2.325V-.15a11.663,11.663,0,0,1-.15,2.225H425.4V1.025h5.65V1.8h2.725a13.111,13.111,0,0,1-.125-2.25V-3.6a16.821,16.821,0,0,1,.1-2.2c-.575.05-1.125.075-1.975.075Zm.6,2.1h5.65V-1.2H425.4Zm10.575-15.65a17.2,17.2,0,0,1,.125,2.65v10.05a17.376,17.376,0,0,1-.125,2.675H438.8a16.032,16.032,0,0,1-.125-2.65V-16.675a16.862,16.862,0,0,1,.125-2.6Zm4.45-1.575a19.7,19.7,0,0,1,.15,3.1V-1.5c0,.65-.225.775-1.375.775-.575,0-1.35-.075-2.825-.225a8.8,8.8,0,0,1,.7,2.6c1.3.075,1.725.1,2.325.1,3.025,0,3.775-.575,3.775-2.9V-17.825a17.058,17.058,0,0,1,.175-3.025ZM456.075-11a18.823,18.823,0,0,1,2.15-.1h8.55a18.2,18.2,0,0,1,2.25.1v-1.75a24.3,24.3,0,0,0,4.075,2.2,13.461,13.461,0,0,1,1.375-2.75,23.507,23.507,0,0,1-6.375-3.425,16.334,16.334,0,0,1-4.2-4.225h-2.975A17.459,17.459,0,0,1,457-16.775a24.978,24.978,0,0,1-6.375,3.6,9.682,9.682,0,0,1,1.45,2.55,25.452,25.452,0,0,0,4-2.1Zm2.175-2.7h-.7a17.5,17.5,0,0,0,4.9-4.875A22.836,22.836,0,0,0,467.6-13.7h-9.35ZM457.025,1.9V.625H467.95V1.9h2.975a15.618,15.618,0,0,1-.15-2.625v-5.85A17.04,17.04,0,0,1,470.9-9.05a16.4,16.4,0,0,1-2.175.1h-12.5a15.744,15.744,0,0,1-2.15-.1,22.576,22.576,0,0,1,.125,2.475V-.75a19.989,19.989,0,0,1-.15,2.65Zm0-8.425H467.95v4.7H457.025Z" transform="translate(1086.38 4369.136)" fill="#fff"/>
  </g>
</svg>
