<svg xmlns="http://www.w3.org/2000/svg" xmlns:xlink="http://www.w3.org/1999/xlink" width="577.727" height="448" viewBox="0 0 577.727 448">
  <defs>
    <linearGradient id="linear-gradient" y1="0.5" x2="1" y2="0.5" gradientUnits="objectBoundingBox">
      <stop offset="0" stop-color="#03a8e5"/>
      <stop offset="1" stop-color="#012869"/>
    </linearGradient>
    <filter id="パス_301" x="0" y="0" width="577.727" height="448" filterUnits="userSpaceOnUse">
      <feOffset dx="10" dy="10" input="SourceAlpha"/>
      <feGaussianBlur stdDeviation="15" result="blur"/>
      <feFlood flood-opacity="0.161"/>
      <feComposite operator="in" in2="blur"/>
      <feComposite in="SourceGraphic"/>
    </filter>
    <linearGradient id="linear-gradient-2" x1="-0.03" xlink:href="#linear-gradient"/>
    <filter id="長方形_221" x="331.347" y="37.864" width="202" height="102" filterUnits="userSpaceOnUse">
      <feOffset input="SourceAlpha"/>
      <feGaussianBlur stdDeviation="5" result="blur-2"/>
      <feFlood flood-color="#013778" flood-opacity="0.322"/>
      <feComposite operator="in" in2="blur-2"/>
      <feComposite in="SourceGraphic"/>
    </filter>
  </defs>
  <g id="血液型" transform="translate(-1072.653 -5038.136)">
    <g id="グループ_246" data-name="グループ 246" transform="translate(579.3 2700.07)">
      <g transform="matrix(1, 0, 0, 1, 493.35, 2338.07)" filter="url(#パス_301)">
        <path id="パス_301-2" data-name="パス 301" d="M0,0H487.727V358H0Z" transform="translate(35 35)" fill="url(#linear-gradient)"/>
      </g>
      <path id="パス_302" data-name="パス 302" d="M0,0H479.727V350H0Z" transform="translate(532.353 2377.066)" fill="#edf9ff"/>
    </g>
    <path id="パス_1196" data-name="パス 1196" d="M7.24-7.92a9.94,9.94,0,0,1-.12,1.16A7.738,7.738,0,0,1,4.5-2.2,9.437,9.437,0,0,1,1.4-.36,7.1,7.1,0,0,1,2.86,1.6,11.584,11.584,0,0,0,7.94-2.8,10.641,10.641,0,0,0,9.5-7.92h3.84v1.16a19.648,19.648,0,0,1-.62,5.32c-.18.3-.4.38-1.14.38a16.441,16.441,0,0,1-2.42-.26,8.59,8.59,0,0,1,.6,2.34c1.34.06,1.66.08,2.06.08,1.78,0,2.5-.28,2.94-1.16.5-1.06.84-4.22.84-8.36V-9.1A20.394,20.394,0,0,0,18.08-7,9.311,9.311,0,0,1,19.6-9.16a15.51,15.51,0,0,1-5.54-5.8,7.475,7.475,0,0,1-.78-1.74l-2.22.86a8.2,8.2,0,0,1,.42.84,20,20,0,0,0,3.3,5.02c-.48.02-.76.02-1.24.02H6.18A10.337,10.337,0,0,1,5.14-10a22.245,22.245,0,0,0,3.22-4.86,5.656,5.656,0,0,1,.54-1.02l-2.4-.86a6.217,6.217,0,0,1-.8,2.02A15.42,15.42,0,0,1,.44-8.98,6.953,6.953,0,0,1,1.98-7.02a19.882,19.882,0,0,0,2.5-2.22v1.42a13.9,13.9,0,0,1,1.7-.1Zm20.82-8.5v.38A30.778,30.778,0,0,1,27.54-12c-1.1.16-3.52.4-4.26.4l.24,2.36a35.856,35.856,0,0,1,3.58-.64,33.929,33.929,0,0,1-1.94,5.66A21.85,21.85,0,0,1,23.08-.46L25.4.82c.1-.2.1-.22.16-.34l.3-.6a42.894,42.894,0,0,0,2.4-5.62,42.308,42.308,0,0,0,1.22-4.34c.46-.04.76-.06,1.16-.06,1.58,0,2.04.54,2.04,2.38a17.771,17.771,0,0,1-.52,4.56c-.3.98-.62,1.36-1.2,1.36a8.274,8.274,0,0,1-2.92-.78,7.512,7.512,0,0,1,.2,1.7c0,.2-.02.48-.04.88a9.7,9.7,0,0,0,3.08.58,2.533,2.533,0,0,0,2.22-.9c.96-1.1,1.54-3.84,1.54-7.28,0-1.82-.26-2.78-.94-3.54a3.874,3.874,0,0,0-2.96-1.06c-.38,0-.66.02-1.24.06.06-.26.06-.3.14-.74.28-1.5.28-1.5.34-1.92.06-.32.08-.42.12-.68a4.653,4.653,0,0,1,.16-.62Zm7.16,3.84a12.944,12.944,0,0,1,2.3,3.42,17.978,17.978,0,0,1,1.6,4.54L41.4-5.78a19.414,19.414,0,0,0-4.12-7.8ZM49.74-14.3a36.2,36.2,0,0,0,7.8,2.5l.82-2.3a30,30,0,0,1-7.46-2.22Zm-1.6,1.76a8.162,8.162,0,0,1-.12,1.16c-.36,2.36-.68,4.58-.84,5.82-.1.76-.1.84-.16,1.2l2.52.08a4.354,4.354,0,0,1,.9-.86A9.1,9.1,0,0,1,55.42-6.6c2.12,0,3.38.8,3.38,2.14,0,1.7-1.96,2.88-4.78,2.88a16.146,16.146,0,0,1-5.38-1A8.875,8.875,0,0,1,48.94,0a18.39,18.39,0,0,0,5.1.7A8.64,8.64,0,0,0,59.32-.66a4.87,4.87,0,0,0,2.06-3.86c0-2.56-2.24-4.24-5.64-4.24-2.42,0-4.9.78-6.06,1.9l-.04-.04c.06-.3.06-.3.1-.58a42.321,42.321,0,0,1,.9-4.92ZM72.1-16.58a20.433,20.433,0,0,1-.6,3.48c-.44.02-.78.02-1.02.02a13.887,13.887,0,0,1-2.7-.18v2.28l1.06.02c.42.02.54.02.8.02.24,0,.36,0,1.26-.02a30.768,30.768,0,0,1-1.88,4.72,18.2,18.2,0,0,1-1.94,3.2l2.3,1.28c.12-.24.12-.24.38-.72.76-1.4.94-1.76,1.4-2.74a38.39,38.39,0,0,0,2.2-5.8c1.24-.1,2.46-.24,3.18-.36a3.9,3.9,0,0,1,.64-.1l-.06-2.3a17.155,17.155,0,0,1-3.2.56c.22-.88.32-1.28.42-1.76a10.012,10.012,0,0,1,.32-1.34Zm12.8,5.2a31.571,31.571,0,0,0-5.64-2.68l-1.2,1.94a24.478,24.478,0,0,1,5.76,2.8Zm-.08,9.02a3.581,3.581,0,0,1-.3-.28,7.375,7.375,0,0,0-.7-.54,12.5,12.5,0,0,0-3.16-1.84,21.235,21.235,0,0,1-.18-2.74,6.666,6.666,0,0,1,.24-2.02L78.4-9.9a10.608,10.608,0,0,0-.16,2.02c0,.6.04,1.38.1,2.3a9.934,9.934,0,0,0-1.86-.18c-2.54,0-4.32,1.42-4.32,3.44,0,2.04,1.72,3.36,4.36,3.36A4.617,4.617,0,0,0,79.84-.08,3.2,3.2,0,0,0,80.7-2.2c0-.08-.02-.22-.04-.4A12.1,12.1,0,0,1,83.72-.12Zm-6.4-1.1s.04.48.04.68c0,1.12-.66,1.68-2.02,1.68-1.24,0-1.96-.48-1.96-1.3,0-.84.84-1.38,2.14-1.38A5.042,5.042,0,0,1,78.42-3.46ZM90.14-14.7a9.558,9.558,0,0,1,.08,1.28c.08,5.54.44,8.44,1.26,10.44.8,1.92,1.88,2.9,3.22,2.9,1.7,0,2.86-1.62,3.9-5.52a9.873,9.873,0,0,1-2-1.82A14.745,14.745,0,0,1,95.54-3.8c-.24.56-.52.86-.82.86-.64,0-1.28-1.28-1.62-3.36a37.427,37.427,0,0,1-.38-5.36,23.251,23.251,0,0,1,.16-3.04Zm10.1,1.9a17.457,17.457,0,0,1,2.84,4.92,20.275,20.275,0,0,1,1.28,5.78l2.48-.94a19.939,19.939,0,0,0-4.5-10.76Zm18.3-.54v2.92h2.92v-2.92Zm0,8.56v2.92h2.92V-4.78Zm19.5-11.288a5.027,5.027,0,0,0,2.477-.429q.683-.429.682-1.989v-3.588a1.939,1.939,0,0,0-.526-1.4,1.885,1.885,0,0,0-1.424-.546,1.679,1.679,0,0,0-1.5.663,2.3,2.3,0,0,0-.449,1.287v2.262h-3.978v-2.3a5.781,5.781,0,0,1,.468-2.3,5.6,5.6,0,0,1,1.287-1.872,6.4,6.4,0,0,1,1.911-1.248,5.877,5.877,0,0,1,2.34-.468,5.2,5.2,0,0,1,2.71.643,6.241,6.241,0,0,1,1.618,1.306,8.523,8.523,0,0,1,.683.936,4.555,4.555,0,0,1,.487,1.131,15.551,15.551,0,0,1,.351,3.822q0,1.443-.059,2.34a4.895,4.895,0,0,1-.293,1.482,2.964,2.964,0,0,1-.76,1.053,9.02,9.02,0,0,1-1.345.936,7.555,7.555,0,0,1,1.423,1.092,3.211,3.211,0,0,1,.721,1.17,6.043,6.043,0,0,1,.273,1.657q.039.956.039,2.438,0,1.365-.059,2.262a11.639,11.639,0,0,1-.176,1.482,4.624,4.624,0,0,1-.312,1.053,6.42,6.42,0,0,1-.507.9,6.3,6.3,0,0,1-1.891,1.814,5.623,5.623,0,0,1-3.023.722,7.011,7.011,0,0,1-1.989-.312,5.423,5.423,0,0,1-1.911-1.014,5.505,5.505,0,0,1-1.424-1.833,6.147,6.147,0,0,1-.565-2.769V-7.956H137.3v2.067a2.261,2.261,0,0,0,.527,1.54,1.791,1.791,0,0,0,1.423.6,1.791,1.791,0,0,0,1.424-.6,2.378,2.378,0,0,0,.526-1.618V-9.945a2.737,2.737,0,0,0-.624-2.145,1.735,1.735,0,0,0-.956-.39,12.839,12.839,0,0,0-1.579-.078ZM153.608.06l1.02.8,12.6-16.12-1.04-.8Zm11.52.6a3.681,3.681,0,0,0,2.7-1.02,4.721,4.721,0,0,0,1.16-3.46,4.7,4.7,0,0,0-1.16-3.44,3.73,3.73,0,0,0-2.7-1.02,3.812,3.812,0,0,0-2.72,1.02,4.734,4.734,0,0,0-1.16,3.44,4.721,4.721,0,0,0,1.16,3.46A3.7,3.7,0,0,0,165.128.66Zm0-7.24a1.441,1.441,0,0,1,1.28.62,3.531,3.531,0,0,1,.54,2c0,1.94-.62,2.94-1.82,2.94-1.18,0-1.82-1-1.82-2.84a3.478,3.478,0,0,1,.54-2.08A1.392,1.392,0,0,1,165.128-6.58Zm-9.42-.34a3.681,3.681,0,0,0,2.7-1.02,4.721,4.721,0,0,0,1.16-3.46,4.7,4.7,0,0,0-1.16-3.44,3.73,3.73,0,0,0-2.7-1.02c-2.44,0-3.88,1.66-3.88,4.46a4.753,4.753,0,0,0,1.16,3.46A3.7,3.7,0,0,0,155.708-6.92Zm0-7.24a1.539,1.539,0,0,1,1.46.9,4.391,4.391,0,0,1,.36,1.86c0,1.8-.66,2.8-1.82,2.8-1.18,0-1.82-1-1.82-2.84C153.888-13.18,154.548-14.16,155.708-14.16Z" transform="translate(1363 5380)" fill="#0052aa"/>
    <path id="パス_1192" data-name="パス 1192" d="M36.613.738A46.865,46.865,0,0,1,34.522-4.1l-9.1-23.657A27.148,27.148,0,0,1,24.026-31.9H16.892a24.284,24.284,0,0,1-1.312,4.141L6.56-4.1A44.816,44.816,0,0,1,4.387.738h6.724a19.785,19.785,0,0,1,1.23-4.3l1.64-4.469H27.1l1.64,4.469a27.568,27.568,0,0,1,1.148,4.3ZM25.625-12.751H15.457l4.264-12.136c.123-.369.123-.369.779-2.3.451,1.353.574,1.845.738,2.3Zm26.4-16.4c-.041,2.419-.041,3.772-.041,4.1h-.9a28.023,28.023,0,0,1-4.018-.2v4.51a25.876,25.876,0,0,1,3.9-.2h.615c-.656,3.239-1.681,4.8-4.715,6.97a14.273,14.273,0,0,1,3.28,3.4,14.3,14.3,0,0,0,4.387-5.207,16.072,16.072,0,0,0,1.476-5.166h4.018v3.977a34.361,34.361,0,0,1-.246,4.469h3.157c.041.615.041.9.041,1.353v1.23h-8.2a27.37,27.37,0,0,1-4.223-.2V-5.7c1.312-.123,2.788-.2,4.715-.2h7.708v3.731H51.947a44.341,44.341,0,0,1-4.715-.205V2.214a41.6,41.6,0,0,1,5.043-.246H78.761a43.391,43.391,0,0,1,5.166.246V-2.378a43.861,43.861,0,0,1-4.8.205H67.568V-5.9H75.85a47,47,0,0,1,4.756.2v-4.469a33.385,33.385,0,0,1-4.838.246h-8.2v-1.271a11.1,11.1,0,0,1,.205-2.583H64.411c-.082-1.148-.082-1.763-.082-3.239v-3.936H64.7a33.615,33.615,0,0,1,3.9.164v-4.428a32.512,32.512,0,0,1-3.977.164h-.287v-4.1a24.036,24.036,0,0,1,3.485.164v-4.387a29.5,29.5,0,0,1-4.387.205H52.4a42.584,42.584,0,0,1-4.387-.205v4.387a28.914,28.914,0,0,1,3.731-.164Zm7.995,0v4.1h-3.69c0-.861.041-1.8.041-2.829v-1.271ZM74.5-17.753a27.463,27.463,0,0,1-.123-2.952v-8.61a21.2,21.2,0,0,1,.164-3.116H69.864a24.5,24.5,0,0,1,.205,3.362v8.036a23.644,23.644,0,0,1-.205,3.28Zm8.241-12.669a27.8,27.8,0,0,1,.2-3.854h-4.92a21.136,21.136,0,0,1,.205,3.526V-17.3c0,.861-.123.943-1.681.943a30.96,30.96,0,0,1-4.346-.369,13.245,13.245,0,0,1,1.189,4.469,33.082,33.082,0,0,0,3.4.164c4.838,0,5.945-.779,5.945-4.305Zm24.969,3.075v5.986h5.986v-5.986Zm0,17.548v5.986h5.986V-9.8ZM152.684,0V-8.692H136.038v-7.872l12.054-41.82h8.856L144.4-16.564h8.282V-33.21h8.364v16.646h4.018v7.872h-4.018V0Zm24.108-46.33a12.752,12.752,0,0,1,1.025-5.248,12.28,12.28,0,0,1,2.747-3.936,11.818,11.818,0,0,1,3.977-2.5,13.106,13.106,0,0,1,4.715-.861,13.106,13.106,0,0,1,4.715.861,11.818,11.818,0,0,1,3.977,2.5,12.28,12.28,0,0,1,2.747,3.936,12.752,12.752,0,0,1,1.025,5.248v34.276A12.752,12.752,0,0,1,200.7-6.806a12.28,12.28,0,0,1-2.747,3.936,11.818,11.818,0,0,1-3.977,2.5,13.106,13.106,0,0,1-4.715.861,13.106,13.106,0,0,1-4.715-.861,11.818,11.818,0,0,1-3.977-2.5,12.28,12.28,0,0,1-2.747-3.936,12.752,12.752,0,0,1-1.025-5.248Zm8.364,34.276A4.136,4.136,0,0,0,186.3-9.061a3.923,3.923,0,0,0,2.952,1.189,3.923,3.923,0,0,0,2.952-1.189,4.136,4.136,0,0,0,1.148-2.993V-46.33a4.136,4.136,0,0,0-1.148-2.993,3.923,3.923,0,0,0-2.952-1.189,3.923,3.923,0,0,0-2.952,1.189,4.136,4.136,0,0,0-1.148,2.993ZM219.268.123l2.091,1.64,25.83-33.046-2.132-1.64Zm23.616,1.23a7.547,7.547,0,0,0,5.535-2.091c1.558-1.517,2.378-3.977,2.378-7.093,0-3.075-.82-5.535-2.378-7.052a7.647,7.647,0,0,0-5.535-2.091,7.816,7.816,0,0,0-5.576,2.091c-1.558,1.558-2.378,3.977-2.378,7.052,0,3.116.82,5.576,2.378,7.093A7.579,7.579,0,0,0,242.884,1.353Zm0-14.842a2.953,2.953,0,0,1,2.624,1.271,7.239,7.239,0,0,1,1.107,4.1c0,3.977-1.271,6.027-3.731,6.027-2.419,0-3.731-2.05-3.731-5.822a7.13,7.13,0,0,1,1.107-4.264A2.854,2.854,0,0,1,242.884-13.489Zm-19.311-.7a7.547,7.547,0,0,0,5.535-2.091c1.558-1.517,2.378-3.977,2.378-7.093,0-3.075-.82-5.535-2.378-7.052a7.647,7.647,0,0,0-5.535-2.091c-5,0-7.954,3.4-7.954,9.143,0,3.075.82,5.576,2.378,7.093A7.579,7.579,0,0,0,223.573-14.186Zm0-14.842a3.155,3.155,0,0,1,2.993,1.845,9,9,0,0,1,.738,3.813c0,3.69-1.353,5.74-3.731,5.74-2.419,0-3.731-2.05-3.731-5.822C219.842-27.019,221.195-29.028,223.573-29.028Z" transform="translate(1146 5211)" fill="#0052aa"/>
    <path id="パス_1193" data-name="パス 1193" d="M15.968-25.44a11.091,11.091,0,0,0-8.256,3.2c-2.368,2.3-3.648,5.856-3.648,9.984C4.064-4.128,8.736,1.088,16,1.088S27.968-4.16,27.968-12.256c0-4.16-1.248-7.648-3.584-9.984A11.214,11.214,0,0,0,15.968-25.44Zm.1,22.72A6.909,6.909,0,0,1,11.1-4.672C9.44-6.336,8.512-9.024,8.512-12.224c0-5.792,2.912-9.44,7.52-9.44a6.887,6.887,0,0,1,4.928,1.952c1.632,1.632,2.528,4.224,2.528,7.456C23.488-6.368,20.64-2.72,16.064-2.72ZM40.608-22.752c-.032,1.888-.032,2.944-.032,3.2h-.7a21.872,21.872,0,0,1-3.136-.16v3.52a20.2,20.2,0,0,1,3.04-.16h.48c-.512,2.528-1.312,3.744-3.68,5.44a11.14,11.14,0,0,1,2.56,2.656A11.163,11.163,0,0,0,42.56-12.32a12.544,12.544,0,0,0,1.152-4.032h3.136v3.1a26.819,26.819,0,0,1-.192,3.488H49.12c.032.48.032.7.032,1.056v.96h-6.4a21.362,21.362,0,0,1-3.3-.16v3.456c1.024-.1,2.176-.16,3.68-.16h6.016V-1.7H40.544a34.608,34.608,0,0,1-3.68-.16V1.728A32.472,32.472,0,0,1,40.8,1.536H61.472a33.866,33.866,0,0,1,4.032.192V-1.856a34.233,34.233,0,0,1-3.744.16H52.736V-4.608H59.2a36.679,36.679,0,0,1,3.712.16V-7.936a26.057,26.057,0,0,1-3.776.192h-6.4v-.992a8.66,8.66,0,0,1,.16-2.016H50.272c-.064-.9-.064-1.376-.064-2.528v-3.072H50.5a26.236,26.236,0,0,1,3.04.128V-19.68a25.375,25.375,0,0,1-3.1.128h-.224v-3.2a18.76,18.76,0,0,1,2.72.128v-3.424a23.026,23.026,0,0,1-3.424.16H40.9a33.236,33.236,0,0,1-3.424-.16v3.424a22.567,22.567,0,0,1,2.912-.128Zm6.24,0v3.2h-2.88c0-.672.032-1.408.032-2.208v-.992Zm11.3,8.9a21.435,21.435,0,0,1-.1-2.3v-6.72a16.547,16.547,0,0,1,.128-2.432H54.528a19.126,19.126,0,0,1,.16,2.624v6.272a18.454,18.454,0,0,1-.16,2.56Zm6.432-9.888a21.7,21.7,0,0,1,.16-3.008H60.9A16.5,16.5,0,0,1,61.056-24v10.5c0,.672-.1.736-1.312.736a24.164,24.164,0,0,1-3.392-.288,10.338,10.338,0,0,1,.928,3.488,25.821,25.821,0,0,0,2.656.128c3.776,0,4.64-.608,4.64-3.36Zm19.488,2.4v4.672h4.672v-4.672Zm0,13.7v4.672h4.672V-7.648ZM107.776,0V-6.144l11.776-22.208a8.109,8.109,0,0,0,1.024-2.912q.128-1.248.128-3.1,0-.832-.032-1.76a4.271,4.271,0,0,0-.352-1.632,3.03,3.03,0,0,0-.96-1.184,3.056,3.056,0,0,0-1.856-.48,3.226,3.226,0,0,0-2.336.832,3.223,3.223,0,0,0-.864,2.432v3.712h-6.528v-3.584a9.644,9.644,0,0,1,.768-3.84,9.908,9.908,0,0,1,2.112-3.136,9.584,9.584,0,0,1,3.072-2.144,9.312,9.312,0,0,1,3.84-.8,9.57,9.57,0,0,1,4.384.928,8.745,8.745,0,0,1,3.04,2.528,11.021,11.021,0,0,1,1.7,3.648,16.892,16.892,0,0,1,.544,4.352q0,1.664-.064,2.784a16.846,16.846,0,0,1-.256,2.144,9.448,9.448,0,0,1-.64,2.048q-.448,1.024-1.216,2.5l-9.6,18.5h11.776V0Zm32.576,0,7.424-19.136-.128-.128a2.558,2.558,0,0,1-.992.416,7.851,7.851,0,0,1-1.76.16,6.394,6.394,0,0,1-3.2-.832,6.5,6.5,0,0,1-2.3-2.112,5.592,5.592,0,0,1-.7-1.376A8.847,8.847,0,0,1,138.3-24.9a23.415,23.415,0,0,1-.256-2.912q-.064-1.76-.064-4.448,0-2.24.064-3.68A17.92,17.92,0,0,1,138.3-38.4a6.771,6.771,0,0,1,.416-1.664,11.826,11.826,0,0,1,.736-1.472A8.828,8.828,0,0,1,142.88-44.8a10.045,10.045,0,0,1,4.832-1.152,9.646,9.646,0,0,1,4.8,1.184,9.3,9.3,0,0,1,3.392,3.232,16.42,16.42,0,0,1,.768,1.472,7.666,7.666,0,0,1,.512,1.664q.128,1.024.192,2.464t.064,3.68q0,2.112-.064,3.488t-.192,2.336q-.192,1.024-.416,1.824t-.544,1.7L147.648,0Zm4.16-27.712a3.087,3.087,0,0,0,.96,2.368,3.18,3.18,0,0,0,2.24.9,3.18,3.18,0,0,0,2.24-.9,3.087,3.087,0,0,0,.96-2.368V-36.16a3.087,3.087,0,0,0-.96-2.368,3.18,3.18,0,0,0-2.24-.9,3.18,3.18,0,0,0-2.24.9,3.087,3.087,0,0,0-.96,2.368ZM171.136.1l1.632,1.28,20.16-25.792-1.664-1.28Zm18.432.96a5.89,5.89,0,0,0,4.32-1.632,7.553,7.553,0,0,0,1.856-5.536,7.522,7.522,0,0,0-1.856-5.5,5.969,5.969,0,0,0-4.32-1.632,6.1,6.1,0,0,0-4.352,1.632,7.574,7.574,0,0,0-1.856,5.5,7.553,7.553,0,0,0,1.856,5.536A5.915,5.915,0,0,0,189.568,1.056Zm0-11.584a2.3,2.3,0,0,1,2.048.992,5.65,5.65,0,0,1,.864,3.2c0,3.1-.992,4.7-2.912,4.7-1.888,0-2.912-1.6-2.912-4.544A5.565,5.565,0,0,1,187.52-9.5,2.228,2.228,0,0,1,189.568-10.528ZM174.5-11.072a5.89,5.89,0,0,0,4.32-1.632,7.553,7.553,0,0,0,1.856-5.536,7.522,7.522,0,0,0-1.856-5.5,5.969,5.969,0,0,0-4.32-1.632c-3.9,0-6.208,2.656-6.208,7.136a7.6,7.6,0,0,0,1.856,5.536A5.915,5.915,0,0,0,174.5-11.072Zm0-11.584a2.463,2.463,0,0,1,2.336,1.44,7.025,7.025,0,0,1,.576,2.976c0,2.88-1.056,4.48-2.912,4.48-1.888,0-2.912-1.6-2.912-4.544C171.584-21.088,172.64-22.656,174.5-22.656Z" transform="translate(1146 5295)" fill="#0052aa"/>
    <path id="パス_1194" data-name="パス 1194" d="M18.464.576c5.312,0,8.288-2.528,8.288-7.04a6.317,6.317,0,0,0-1.984-4.9,5.862,5.862,0,0,0-3.232-1.472,5.414,5.414,0,0,0,2.528-1.344,5.7,5.7,0,0,0,1.792-4.48c0-4-2.784-6.24-7.744-6.24H10.56c-2.176,0-2.688,0-4.032-.064a30.5,30.5,0,0,1,.256,3.936V-3.648A22.838,22.838,0,0,1,6.5.672c1.312-.064,2.24-.1,4.1-.1ZM11.008-14.5v-6.816h6.624a4.539,4.539,0,0,1,3.072.992,3.231,3.231,0,0,1,.832,2.336c0,2.208-1.44,3.488-3.872,3.488Zm0,3.552h6.816a5.228,5.228,0,0,1,3.488,1.088A3.54,3.54,0,0,1,22.336-7.04c0,2.56-1.6,4-4.448,4h-6.88Zm29.6-11.808c-.032,1.888-.032,2.944-.032,3.2h-.7a21.872,21.872,0,0,1-3.136-.16v3.52a20.2,20.2,0,0,1,3.04-.16h.48c-.512,2.528-1.312,3.744-3.68,5.44a11.14,11.14,0,0,1,2.56,2.656A11.163,11.163,0,0,0,42.56-12.32a12.544,12.544,0,0,0,1.152-4.032h3.136v3.1a26.819,26.819,0,0,1-.192,3.488H49.12c.032.48.032.7.032,1.056v.96h-6.4a21.362,21.362,0,0,1-3.3-.16v3.456c1.024-.1,2.176-.16,3.68-.16h6.016V-1.7H40.544a34.608,34.608,0,0,1-3.68-.16V1.728A32.472,32.472,0,0,1,40.8,1.536H61.472a33.866,33.866,0,0,1,4.032.192V-1.856a34.233,34.233,0,0,1-3.744.16H52.736V-4.608H59.2a36.679,36.679,0,0,1,3.712.16V-7.936a26.057,26.057,0,0,1-3.776.192h-6.4v-.992a8.66,8.66,0,0,1,.16-2.016H50.272c-.064-.9-.064-1.376-.064-2.528v-3.072H50.5a26.236,26.236,0,0,1,3.04.128V-19.68a25.375,25.375,0,0,1-3.1.128h-.224v-3.2a18.76,18.76,0,0,1,2.72.128v-3.424a23.026,23.026,0,0,1-3.424.16H40.9a33.236,33.236,0,0,1-3.424-.16v3.424a22.567,22.567,0,0,1,2.912-.128Zm6.24,0v3.2h-2.88c0-.672.032-1.408.032-2.208v-.992Zm11.3,8.9a21.435,21.435,0,0,1-.1-2.3v-6.72a16.547,16.547,0,0,1,.128-2.432H54.528a19.126,19.126,0,0,1,.16,2.624v6.272a18.454,18.454,0,0,1-.16,2.56Zm6.432-9.888a21.7,21.7,0,0,1,.16-3.008H60.9A16.5,16.5,0,0,1,61.056-24v10.5c0,.672-.1.736-1.312.736a24.164,24.164,0,0,1-3.392-.288,10.338,10.338,0,0,1,.928,3.488,25.821,25.821,0,0,0,2.656.128c3.776,0,4.64-.608,4.64-3.36Zm19.488,2.4v4.672h4.672v-4.672Zm0,13.7v4.672h4.672V-7.648ZM115.52,0V-38.656l-6.528,4.8v-6.912l6.528-4.8h6.528V0Zm35.392-36.224a3.038,3.038,0,0,0-.96-2.272,3.122,3.122,0,0,0-2.24-.928,3.122,3.122,0,0,0-2.24.928,3.038,3.038,0,0,0-.96,2.272v6.656a3.038,3.038,0,0,0,.96,2.272,3.122,3.122,0,0,0,2.24.928,3.122,3.122,0,0,0,2.24-.928,3.038,3.038,0,0,0,.96-2.272Zm-12.928,2.56q0-1.856.128-3.168a10.441,10.441,0,0,1,.448-2.272,10.79,10.79,0,0,1,.736-1.728,12.106,12.106,0,0,1,1.056-1.6,8.821,8.821,0,0,1,3.2-2.592,9.433,9.433,0,0,1,4.16-.928,9.433,9.433,0,0,1,4.16.928,8.821,8.821,0,0,1,3.2,2.592,15.232,15.232,0,0,1,1.088,1.6,9.186,9.186,0,0,1,.768,1.728,9.4,9.4,0,0,1,.416,2.272q.1,1.312.1,3.168,0,2.048-.064,3.456a10.577,10.577,0,0,1-.384,2.5A5.824,5.824,0,0,1,156-25.76a12.21,12.21,0,0,1-1.824,1.824A9.717,9.717,0,0,1,156-22.144a6.039,6.039,0,0,1,.992,2.112,13.859,13.859,0,0,1,.384,2.976q.064,1.76.064,4.32,0,2.112-.1,3.488a21.2,21.2,0,0,1-.288,2.4,6.6,6.6,0,0,1-.544,1.728,13.785,13.785,0,0,1-.864,1.472A9.235,9.235,0,0,1,152.576-.8,9.337,9.337,0,0,1,147.712.384,9.337,9.337,0,0,1,142.848-.8a9.235,9.235,0,0,1-3.072-2.848,13.785,13.785,0,0,1-.864-1.472,6.6,6.6,0,0,1-.544-1.728,21.2,21.2,0,0,1-.288-2.4q-.1-1.376-.1-3.488,0-2.56.064-4.32a13.858,13.858,0,0,1,.384-2.976,6.039,6.039,0,0,1,.992-2.112,9.717,9.717,0,0,1,1.824-1.792,12.21,12.21,0,0,1-1.824-1.824,5.824,5.824,0,0,1-.992-1.952,10.576,10.576,0,0,1-.384-2.5Q137.984-31.616,137.984-33.664ZM150.912-18.3a3.038,3.038,0,0,0-.96-2.272,3.122,3.122,0,0,0-2.24-.928,3.122,3.122,0,0,0-2.24.928,3.038,3.038,0,0,0-.96,2.272v8.96a3.038,3.038,0,0,0,.96,2.272,3.122,3.122,0,0,0,2.24.928,3.122,3.122,0,0,0,2.24-.928,3.038,3.038,0,0,0,.96-2.272ZM171.136.1l1.632,1.28,20.16-25.792-1.664-1.28Zm18.432.96a5.89,5.89,0,0,0,4.32-1.632,7.553,7.553,0,0,0,1.856-5.536,7.522,7.522,0,0,0-1.856-5.5,5.969,5.969,0,0,0-4.32-1.632,6.1,6.1,0,0,0-4.352,1.632,7.574,7.574,0,0,0-1.856,5.5,7.553,7.553,0,0,0,1.856,5.536A5.915,5.915,0,0,0,189.568,1.056Zm0-11.584a2.3,2.3,0,0,1,2.048.992,5.65,5.65,0,0,1,.864,3.2c0,3.1-.992,4.7-2.912,4.7-1.888,0-2.912-1.6-2.912-4.544A5.565,5.565,0,0,1,187.52-9.5,2.228,2.228,0,0,1,189.568-10.528ZM174.5-11.072a5.89,5.89,0,0,0,4.32-1.632,7.553,7.553,0,0,0,1.856-5.536,7.522,7.522,0,0,0-1.856-5.5,5.969,5.969,0,0,0-4.32-1.632c-3.9,0-6.208,2.656-6.208,7.136a7.6,7.6,0,0,0,1.856,5.536A5.915,5.915,0,0,0,174.5-11.072Zm0-11.584a2.463,2.463,0,0,1,2.336,1.44,7.025,7.025,0,0,1,.576,2.976c0,2.88-1.056,4.48-2.912,4.48-1.888,0-2.912-1.6-2.912-4.544C171.584-21.088,172.64-22.656,174.5-22.656Z" transform="translate(1363 5295)" fill="#0052aa"/>
    <path id="パス_1195" data-name="パス 1195" d="M13.5-6.225l-1.25-6.45H12.2l-1.25,6.45ZM7.2,0l3.975-17.8H13.3L17.275,0h-2.55l-.75-3.825H10.5L9.75,0ZM21.025,0V-17.8H24.75a5.222,5.222,0,0,1,2.088.375,3.938,3.938,0,0,1,1.412,1,3.734,3.734,0,0,1,.788,1.437,5.984,5.984,0,0,1,.238,1.688v.65a5.68,5.68,0,0,1-.113,1.225,2.947,2.947,0,0,1-.337.875,3.507,3.507,0,0,1-1.3,1.2A2.765,2.765,0,0,1,28.85-8.1a4.962,4.962,0,0,1,.425,2.25v1a5.169,5.169,0,0,1-1.138,3.6A4.7,4.7,0,0,1,24.5,0Zm2.55-8.25v5.7h1.1a2.688,2.688,0,0,0,1.212-.225A1.552,1.552,0,0,0,26.55-3.4a2.352,2.352,0,0,0,.275-.95q.05-.55.05-1.2A8.029,8.029,0,0,0,26.8-6.725a2.141,2.141,0,0,0-.3-.85,1.439,1.439,0,0,0-.675-.513A3.215,3.215,0,0,0,24.7-8.25Zm0-7.15v4.9h1.15a1.948,1.948,0,0,0,1.712-.637A3.289,3.289,0,0,0,26.875-13a2.812,2.812,0,0,0-.487-1.8,2.17,2.17,0,0,0-1.763-.6ZM37.2-17.775c-.025,1.475-.025,2.3-.025,2.5h-.55a17.087,17.087,0,0,1-2.45-.125v2.75a15.778,15.778,0,0,1,2.375-.125h.375a5.892,5.892,0,0,1-2.875,4.25,8.7,8.7,0,0,1,2,2.075,8.721,8.721,0,0,0,2.675-3.175,9.8,9.8,0,0,0,.9-3.15h2.45v2.425a20.952,20.952,0,0,1-.15,2.725H43.85c.025.375.025.55.025.825v.75h-5A16.689,16.689,0,0,1,36.3-6.175v2.7C37.1-3.55,38-3.6,39.175-3.6h4.7v2.275H37.15a27.038,27.038,0,0,1-2.875-.125v2.8A25.369,25.369,0,0,1,37.35,1.2H53.5a26.458,26.458,0,0,1,3.15.15v-2.8a26.744,26.744,0,0,1-2.925.125h-7.05V-3.6h5.05a28.655,28.655,0,0,1,2.9.125V-6.2a20.357,20.357,0,0,1-2.95.15h-5v-.775A6.766,6.766,0,0,1,46.8-8.4H44.75c-.05-.7-.05-1.075-.05-1.975v-2.4h.225a20.5,20.5,0,0,1,2.375.1v-2.7a19.824,19.824,0,0,1-2.425.1H44.7v-2.5a14.656,14.656,0,0,1,2.125.1V-20.35a17.989,17.989,0,0,1-2.675.125H37.425a25.966,25.966,0,0,1-2.675-.125v2.675a17.63,17.63,0,0,1,2.275-.1Zm4.875,0v2.5h-2.25c0-.525.025-1.1.025-1.725v-.775Zm8.825,6.95a16.746,16.746,0,0,1-.075-1.8v-5.25a12.927,12.927,0,0,1,.1-1.9h-2.85a14.942,14.942,0,0,1,.125,2.05v4.9a14.417,14.417,0,0,1-.125,2Zm5.025-7.725a16.952,16.952,0,0,1,.125-2.35h-3a12.887,12.887,0,0,1,.125,2.15v8.2c0,.525-.075.575-1.025.575A18.878,18.878,0,0,1,49.5-10.2a8.076,8.076,0,0,1,.725,2.725,20.172,20.172,0,0,0,2.075.1c2.95,0,3.625-.475,3.625-2.625ZM71.15-16.675v3.65H74.8v-3.65Zm0,10.7v3.65H74.8v-3.65ZM95.725,0V-30.2l-5.1,3.75v-5.4l5.1-3.75h5.1V0Zm17.55-28.25a7.776,7.776,0,0,1,.625-3.2,7.487,7.487,0,0,1,1.675-2.4A7.206,7.206,0,0,1,118-35.375a7.992,7.992,0,0,1,2.875-.525,7.992,7.992,0,0,1,2.875.525,7.206,7.206,0,0,1,2.425,1.525,7.487,7.487,0,0,1,1.675,2.4,7.776,7.776,0,0,1,.625,3.2v20.9a7.776,7.776,0,0,1-.625,3.2,7.487,7.487,0,0,1-1.675,2.4A7.206,7.206,0,0,1,123.75-.225,7.992,7.992,0,0,1,120.875.3,7.992,7.992,0,0,1,118-.225a7.206,7.206,0,0,1-2.425-1.525,7.487,7.487,0,0,1-1.675-2.4,7.776,7.776,0,0,1-.625-3.2Zm5.1,20.9a2.522,2.522,0,0,0,.7,1.825,2.392,2.392,0,0,0,1.8.725,2.392,2.392,0,0,0,1.8-.725,2.522,2.522,0,0,0,.7-1.825v-20.9a2.522,2.522,0,0,0-.7-1.825,2.392,2.392,0,0,0-1.8-.725,2.392,2.392,0,0,0-1.8.725,2.522,2.522,0,0,0-.7,1.825Zm20.8,7.425,1.275,1,15.75-20.15-1.3-1Zm14.4.75A4.6,4.6,0,0,0,156.95-.45a5.9,5.9,0,0,0,1.45-4.325,5.877,5.877,0,0,0-1.45-4.3,4.663,4.663,0,0,0-3.375-1.275,4.766,4.766,0,0,0-3.4,1.275,5.917,5.917,0,0,0-1.45,4.3,5.9,5.9,0,0,0,1.45,4.325A4.621,4.621,0,0,0,153.575.825Zm0-9.05a1.8,1.8,0,0,1,1.6.775,4.414,4.414,0,0,1,.675,2.5c0,2.425-.775,3.675-2.275,3.675-1.475,0-2.275-1.25-2.275-3.55a4.347,4.347,0,0,1,.675-2.6A1.74,1.74,0,0,1,153.575-8.225ZM141.8-8.65a4.6,4.6,0,0,0,3.375-1.275,5.9,5.9,0,0,0,1.45-4.325,5.877,5.877,0,0,0-1.45-4.3,4.663,4.663,0,0,0-3.375-1.275c-3.05,0-4.85,2.075-4.85,5.575a5.941,5.941,0,0,0,1.45,4.325A4.621,4.621,0,0,0,141.8-8.65Zm0-9.05a1.924,1.924,0,0,1,1.825,1.125,5.488,5.488,0,0,1,.45,2.325c0,2.25-.825,3.5-2.275,3.5-1.475,0-2.275-1.25-2.275-3.55C139.525-16.475,140.35-17.7,141.8-17.7Z" transform="translate(1146 5382)" fill="#0052aa"/>
    <g transform="matrix(1, 0, 0, 1, 1072.65, 5038.14)" filter="url(#長方形_221)">
      <rect id="長方形_221-2" data-name="長方形 221" width="172" height="72" transform="translate(346.35 52.86)" fill="url(#linear-gradient-2)"/>
    </g>
    <path id="パス_1191" data-name="パス 1191" d="M5.9-17.15a24.319,24.319,0,0,1-2.875-.125,23.223,23.223,0,0,1,.15,2.775V-1.85H2.6A9,9,0,0,1,.875-1.975V.85A30.739,30.739,0,0,1,4.15.7h16.9a30.574,30.574,0,0,1,3.2.15V-1.975a9.118,9.118,0,0,1-1.75.125h-.6V-14.425a19.624,19.624,0,0,1,.15-2.85,22.5,22.5,0,0,1-2.8.125h-6.8A36.826,36.826,0,0,0,14-20.55l-3.1-.35a13.846,13.846,0,0,1-1.45,3.75Zm2.7,2.425V-1.85H5.9V-14.725Zm5.25,0V-1.85h-2.7V-14.725Zm2.55,0h2.75V-1.85H16.4Zm32.5,5.8A12.255,12.255,0,0,0,46.65-10.9l-1.4,1.625a11.258,11.258,0,0,1,2.225,2.15Zm3-5.2a10.018,10.018,0,0,1-1.75.1h-3.1c.1-.3.175-.475.25-.65l.225-.6-2.65-.6A11.15,11.15,0,0,1,44.2-13.5a19.5,19.5,0,0,1-3.75,5.925v-3.15A33.226,33.226,0,0,0,42.2-14c.175-.4.2-.425.475-1.025l-2.65-.9a13.3,13.3,0,0,1-1.125,2.7A16,16,0,0,1,35.05-8.05,6.976,6.976,0,0,1,36.5-5.425a8.535,8.535,0,0,0,1.45-1.9c-.05,1.1-.05,1.45-.05,2.35v4.1a22.184,22.184,0,0,1-.15,2.925h2.825A21.962,21.962,0,0,1,40.45-.775v-6.55A5.316,5.316,0,0,1,41.975-5.45c.45-.5.65-.725.925-1.075A22.932,22.932,0,0,0,45.3-3.35a16.783,16.783,0,0,1-4.525,3,6.7,6.7,0,0,1,1.6,2.325,21.047,21.047,0,0,0,4.8-3.525,18.612,18.612,0,0,0,6.2,3.475,8.867,8.867,0,0,1,1.25-2.75,15.043,15.043,0,0,1-5.7-2.675,21.444,21.444,0,0,0,3.7-7.4c.35-1.175.425-1.35.6-1.825ZM50.2-11.7A16.437,16.437,0,0,1,47-5.175a19.508,19.508,0,0,1-2.6-3.45A22.021,22.021,0,0,0,46.1-11.7Zm-6.675-6.9h-3.9a17.528,17.528,0,0,1-2.6-.15v2.7c.8-.075,1.6-.125,2.5-.125h11.95a21.583,21.583,0,0,1,2.475.125v-2.7a21.49,21.49,0,0,1-2.55.15H46.225v-.925a6.793,6.793,0,0,1,.125-1.55H43.4a6.766,6.766,0,0,1,.125,1.575ZM31.25-18.975a16.059,16.059,0,0,1,3.8,3.35l1.775-2.025a17.057,17.057,0,0,0-3.775-3.175Zm-.575,6.325a17.868,17.868,0,0,1,4,3.2l1.65-2.225A22.838,22.838,0,0,0,32.35-14.65ZM33.9-7.4c-.875,3.5-1.875,5.875-3.075,7.3L33.05,1.8a31.339,31.339,0,0,0,2.975-7.65ZM64.225-17.775c-.025,1.475-.025,2.3-.025,2.5h-.55A17.087,17.087,0,0,1,61.2-15.4v2.75a15.778,15.778,0,0,1,2.375-.125h.375a5.892,5.892,0,0,1-2.875,4.25,8.7,8.7,0,0,1,2,2.075A8.721,8.721,0,0,0,65.75-9.625a9.8,9.8,0,0,0,.9-3.15H69.1v2.425a20.951,20.951,0,0,1-.15,2.725h1.925c.025.375.025.55.025.825v.75h-5a16.689,16.689,0,0,1-2.575-.125v2.7c.8-.075,1.7-.125,2.875-.125h4.7v2.275H64.175A27.038,27.038,0,0,1,61.3-1.45v2.8a25.369,25.369,0,0,1,3.075-.15h16.15a26.458,26.458,0,0,1,3.15.15v-2.8a26.744,26.744,0,0,1-2.925.125H73.7V-3.6h5.05a28.655,28.655,0,0,1,2.9.125V-6.2a20.357,20.357,0,0,1-2.95.15h-5v-.775A6.766,6.766,0,0,1,73.825-8.4h-2.05c-.05-.7-.05-1.075-.05-1.975v-2.4h.225a20.5,20.5,0,0,1,2.375.1v-2.7a19.824,19.824,0,0,1-2.425.1h-.175v-2.5a14.656,14.656,0,0,1,2.125.1V-20.35a17.989,17.989,0,0,1-2.675.125H64.45a25.966,25.966,0,0,1-2.675-.125v2.675a17.63,17.63,0,0,1,2.275-.1Zm4.875,0v2.5H66.85c0-.525.025-1.1.025-1.725v-.775Zm8.825,6.95a16.745,16.745,0,0,1-.075-1.8v-5.25a12.928,12.928,0,0,1,.1-1.9H75.1a14.941,14.941,0,0,1,.125,2.05v4.9a14.417,14.417,0,0,1-.125,2ZM82.95-18.55a16.952,16.952,0,0,1,.125-2.35h-3a12.887,12.887,0,0,1,.125,2.15v8.2c0,.525-.075.575-1.025.575a18.878,18.878,0,0,1-2.65-.225,8.076,8.076,0,0,1,.725,2.725,20.172,20.172,0,0,0,2.075.1c2.95,0,3.625-.475,3.625-2.625Z" transform="translate(1462.38 5135.136)" fill="#fff"/>
  </g>
</svg>
