<svg xmlns="http://www.w3.org/2000/svg" xmlns:xlink="http://www.w3.org/1999/xlink" width="430.891" height="356.071" viewBox="0 0 430.891 356.071">
  <defs>
    <linearGradient id="linear-gradient" y1="0.5" x2="1" y2="0.5" gradientUnits="objectBoundingBox">
      <stop offset="0" stop-color="#03a8e5"/>
      <stop offset="1" stop-color="#012869"/>
    </linearGradient>
    <filter id="パス_301" x="0" y="0" width="430.891" height="356.071" filterUnits="userSpaceOnUse">
      <feOffset dx="10" dy="10" input="SourceAlpha"/>
      <feGaussianBlur stdDeviation="15" result="blur"/>
      <feFlood flood-opacity="0.161"/>
      <feComposite operator="in" in2="blur"/>
      <feComposite in="SourceGraphic"/>
    </filter>
    <linearGradient id="linear-gradient-2" x1="-0.03" xlink:href="#linear-gradient"/>
    <filter id="長方形_203" x="21" y="36.003" width="236" height="126" filterUnits="userSpaceOnUse">
      <feOffset input="SourceAlpha"/>
      <feGaussianBlur stdDeviation="5" result="blur-2"/>
      <feFlood flood-color="#013778" flood-opacity="0.322"/>
      <feComposite operator="in" in2="blur-2"/>
      <feComposite in="SourceGraphic"/>
    </filter>
  </defs>
  <g id="一人当たり売上高" transform="translate(-1016.07 -784)">
    <g id="グループ_218" data-name="グループ 218" transform="translate(1051.07 819)">
      <g transform="matrix(1, 0, 0, 1, -35, -35)" filter="url(#パス_301)">
        <path id="パス_301-2" data-name="パス 301" d="M0,0H340.891V266.071H0Z" transform="translate(35 35)" fill="url(#linear-gradient)"/>
      </g>
      <path id="パス_302" data-name="パス 302" d="M0,0H332.891V258.071H0Z" transform="translate(4 4)" fill="#edf9ff"/>
    </g>
    <text id="_9.1億円" data-name="9.1億円" transform="translate(1102.07 1042.003)" fill="#0052aa" font-size="125" font-family="DINCondensed-Bold, DIN Condensed" font-weight="700"><tspan x="0" y="0">9.1</tspan><tspan y="0" font-size="23" font-family="HiraginoSans-W6, Hiragino Sans" font-weight="400">億円</tspan></text>
    <g id="グループ_265" data-name="グループ 265" transform="translate(1291.209 879.118)">
      <path id="パス_819" data-name="パス 819" d="M819.954,3145.134c-.05-.261-.1-.516-.165-.758-1.2-4.417-2.764-8.73-4.266-13.048-.076-.219-.238-.817-.461-1.456.292-.328.13-1.1.179-1.5a10.493,10.493,0,0,0,.132-1.645c.506,2.184,1.906,4.531,2.4,6.6.777,3.306,2.76,8.078,2.184,11.8Zm-7.3,85.246c-1.437,3.769-1.251,7.72-2.575,11.453a92.206,92.206,0,0,0-2.667,9.967c-.083.1-.156.2-.232.3a21.326,21.326,0,0,0-1.5,2.409,22.956,22.956,0,0,1-.688-3.134c-.334-2.942,1.036-6.591,1.622-9.46a45.868,45.868,0,0,0,1.234-9.534c-.049-6.136-.225-11.7,1.665-17.751.162-.52.334-1.039.5-1.565.8,1.707,1.654,3.391,2.459,5.009.745,1.486,2.65,4.031,2.631,5.732-.016,1.826-1.734,4.725-2.445,6.576Zm-8.723-109.429a1.577,1.577,0,0,0-.562-.222,1.025,1.025,0,0,1,.056-.156,9.244,9.244,0,0,1,.7-1.641c.371,1.039,1.618,1.708,2.436,2.3a42.852,42.852,0,0,0,3.891,2.432,9.538,9.538,0,0,0,1.889.894c-.218.249-.39.612-.556.774-.348.334-.764.507-.96,1-.261.669.914,1.9,1.254,2.519a3.358,3.358,0,0,0,.619.954.964.964,0,0,0,.49.211c.1.879.3,1.793.348,2.167.119.917.264,1.83.391,2.747.043.281.066.565.105.844-.582-.993-1.191-1.969-1.846-2.912a58.606,58.606,0,0,1-3.561-5.285c-1.059-1.913-2.809-5.431-4.693-6.632Zm-7.756,48.215c-.265-.648-.526-1.3-.781-1.962-.946-2.489-3.875-6.734-2.981-9.243.556-1.552,1.8-2.809,2.773-4.235a33.138,33.138,0,0,1,.741,5.565,31.223,31.223,0,0,0,.106,5.418,19.744,19.744,0,0,1,.143,4.457Zm63.8-29.455c-.013-.02-.006-.043-.02-.063a1.083,1.083,0,0,0-.94-.421l-.252-.062a7.467,7.467,0,0,0-3.785-.648c-.741.05-1.417-.07-2.167-.076-.457-.007-1.069-.03-1.678.02.324-.2.738-.354.966-.519.5-.375,1.009-.825.937-1.507-.083-.724-.6-.959-1.228-.618-.711.39-1.138.966-1.972,1.1a16.38,16.38,0,0,0-2.614.261,3.544,3.544,0,0,0-1.846,1.354c-1.453-.47-2.76.619-4.332,1.562-.894.533-10.421,7.111-10.384,7.145-.649-.583-.6-2.912-1.88-2.26a32.837,32.837,0,0,0-2.174-7.906,26.53,26.53,0,0,0-2.581-4.818,8.017,8.017,0,0,0-.81-.954l-.006-.009a5.248,5.248,0,0,0-3.005-2.592,45.394,45.394,0,0,1-4.987-3.243,5.4,5.4,0,0,0,.073.648,1.336,1.336,0,0,0-.457-.6,9.279,9.279,0,0,0-1.009-.611,7.975,7.975,0,0,0-.837-.533,5.565,5.565,0,0,0,.513-2.088c.036-.486.212-.9.268-1.379.056-.457.079-.924.106-1.386.116-.063.235-.129.344-.192,1.492-.847,1.846-2.353,2.38-3.868.364-1.042,1.082-1.907,1.386-2.965a7.22,7.22,0,0,0,.248-2.472,11.057,11.057,0,0,1-.281-1.836,23.2,23.2,0,0,0,.572-2.28c0-.186,0-.39-.006-.6.493-.828,1.175-1.437.775-2.587a11.359,11.359,0,0,0-1.7-3.776,6.844,6.844,0,0,0-4.394-2.694,9.657,9.657,0,0,0-4.662.176,5.036,5.036,0,0,1-1.281.426c-.374.03-.764-.042-1.142-.02a7.382,7.382,0,0,0-2.681.824,6.51,6.51,0,0,0-2.333,2.1,6.31,6.31,0,0,0-1.165,4.682,32.75,32.75,0,0,0,.638,4.8,7.135,7.135,0,0,0,.583,2.1c.427.7,1.195,1.188,1.651,1.9a11.528,11.528,0,0,1,1.129,2.7,1.947,1.947,0,0,0,.384.755,5.54,5.54,0,0,1-.149.688c-.725.249-1.036,1.473-1.171,2.122a9.458,9.458,0,0,1-.344,1.284c-1.363.426-2.621,2.5-3.972,3.144-2.226,1.065-4.374,1.791-6.141,3.63-.265.278-.507.569-.735.861a2.965,2.965,0,0,0-2.836,1.379c-1.016,1.651-1.036,5.374-1.612,7.373-2.283,7.992-5.291,16.708-4.94,24.858.288,6.529,3.587,14.09,5.884,20.27,1.118,3.028,2.668,3.454,5.337,2.723.47,1.394.963,2.866,1.546,4.2a1.549,1.549,0,0,0,.4,1.049c-.589,3.663-.056,7.433-.725,11.268-1.926,10.957-2.161,22.516-2.161,33.572v9.48c0,4.365-2.664,13.588-.688,18.009-.03,1.327-.023,2.631-.007,3.882.007.824-.092,2.217.516,2.892.656.725,2.462.612,3.356.612.563,0,1.863.249,2.339-.1.377-.285.407-.984,1.01-1.113.582-.125.883.387,1.207.784a4.292,4.292,0,0,0,2.978,1.549,14.881,14.881,0,0,0,2.071.113,18.6,18.6,0,0,0,2.681.128c1.624-.168,10.328.358,9.113-3.206a1.507,1.507,0,0,0-.159-.354,38.78,38.78,0,0,0,5.874-.006c2.237-.13,5.388-1.821,2.111-3.393-1.913-.923-4.358-.583-6.092-1.969a10.9,10.9,0,0,1-2.333-2.524c2.608-2.344,3.521-7.419,4.742-10.335,2.373-5.688,5.46-11.341,7.108-17.3a35.971,35.971,0,0,0,1.552-7.7c.119-3.095-1.4-5.8-1.936-8.8-.638-3.6-.668-7.274-1.522-10.841-.056-.234-.112-.47-.175-.7-.742-3.042-1.542-6.1-2.4-9.127a40.338,40.338,0,0,1-.834-5.083c1.295-.056,2.783-.192,3.108-1.039.3-.788-.178-2.392-.3-3.19a34.647,34.647,0,0,0-1.188-4.643c-1.618-5.589-1.208-11.651-.874-17.4.086-1.578.156-3.17.229-4.755a6.829,6.829,0,0,0,1.456,1.6c1.429,1.068,2.284.049,3.726-.93,1.913-1.288,3.634-2.843,5.573-4.1,3.137-2.056,7.009-3.449,9.428-6.312,1.462-1.72,4.606-2.177,4.593-4.715a7.925,7.925,0,0,0-.043-.795c.3-.055.6-.112.9-.171.685-.149,1.38-.334,2.078-.47.149-.026.291-.056.447-.077a15.222,15.222,0,0,0,2.674-.307,13.371,13.371,0,0,1,2.8-.665,6.819,6.819,0,0,0,2.2-.222c.354-.063.741-.271.741-.589a.485.485,0,0,0-.149-.364c.318-.162.56-.384.44-.761-.135-.433-.606-.447-1.089-.384Z" transform="translate(-782.391 -3095.707)" fill="#9eddf6"/>
      <path id="パス_820" data-name="パス 820" d="M977.294,3101.481a.388.388,0,0,1,.016.043,1.629,1.629,0,0,1,1.043.659s.006,0,.016.01a2.43,2.43,0,0,0,.526.168,10.313,10.313,0,0,0,1.926.156h.063c.761,0,1.486-.043,1.969-.069a13.542,13.542,0,0,0,4.037-.688,1.587,1.587,0,0,1,.576-.109c.817-1.717,1.6-3.587,1.794-3.964-1.059-.629-1.337-1.572-2.839-1.516a7.71,7.71,0,0,1-3.895-.88c-1.145-.451-1.277-.371-2.379.476-1.393,1.072-4.451-.06-4.146,2.138a12.2,12.2,0,0,0,1.294,3.577Z" transform="translate(-912.817 -3095.019)" fill="#9eddf6"/>
      <path id="パス_821" data-name="パス 821" d="M988.935,3156.962a2.309,2.309,0,0,0,1.635,2.276l.344.133v-5.047c-1.1.073-1.979,1.023-1.979,2.638Z" transform="translate(-921.546 -3134.975)" fill="#9eddf6"/>
      <path id="パス_822" data-name="パス 822" d="M997.364,3177.209l-.364-.155v5.821a3.062,3.062,0,0,0,.364-5.666Z" transform="translate(-926.98 -3150.288)" fill="#9eddf6"/>
      <path id="パス_823" data-name="パス 823" d="M967.085,3151.17v2.068h-.652v-2.068a5.459,5.459,0,0,1-2.836-.824,2.531,2.531,0,0,1-1.171-1.8c0-.463.5-.9,1.214-.9s.9,1.022,1.151,1.654a1.966,1.966,0,0,0,1.642,1.294v-6.049l-.4-.156c-2.254-.811-3.319-1.942-3.319-4.047,0-1.946,1.47-3.4,3.723-3.566v-2.134h.652v2.134a5.582,5.582,0,0,1,2.776.83c.539.347.81.636.81,1.1,0,.575-.344,1.251-.91,1.251-.669,0-.8-.711-1.019-1.2-.268-.5-.46-1.251-1.657-1.406v5.281l.615.192c2.145.8,3.412,1.807,3.412,4.252a3.937,3.937,0,0,1-3.905,4.087Zm12.33-14.816a18.955,18.955,0,0,0-3.713-4.328c-.831-.711-1.909-1.833-3.047-2.753a1.608,1.608,0,0,1-1.274,1.353,13.344,13.344,0,0,1-2.608.249,20.161,20.161,0,0,1-4.785-.649,7.575,7.575,0,0,1-3.1-.893,1.806,1.806,0,0,1-.252-.192c-2.439,2.287-3.921,5.549-5.41,8.475-2.353,4.62-3.78,10.348-1.42,15.249,1.87,3.9,6.155,4.706,10.079,4.719,6.494.02,16.772.284,18.251-8.177a17.434,17.434,0,0,0,.268-3.19,19.642,19.642,0,0,0-2.992-9.862Z" transform="translate(-897.064 -3118.007)" fill="#9eddf6"/>
      <path id="パス_824" data-name="パス 824" d="M976,3118.372a2.522,2.522,0,0,0,.5.576.7.7,0,0,0-.119.209,1.069,1.069,0,0,0,.328,1.25c.037.03.076.076.119.106a6.954,6.954,0,0,0,2.9.817h0a20.154,20.154,0,0,0,4.706.649,13.338,13.338,0,0,0,2.508-.235,1.091,1.091,0,0,0,.86-1.238c-.007-.013,0-.023,0-.036a1.084,1.084,0,0,0-.658-.794,5.376,5.376,0,0,0,1.129-1.059,1.093,1.093,0,0,0-.013-1.3,1.079,1.079,0,0,0-1.175-.367.4.4,0,0,0-.083.02,13.866,13.866,0,0,1-4.209.725c-.476.023-1.211.073-2,.073a10.427,10.427,0,0,1-2.1-.172,3.109,3.109,0,0,1-.669-.212.967.967,0,0,1-.168-.115,1.1,1.1,0,0,0-.334-.341,1.077,1.077,0,0,0-1.522,1.453l-.007,0Z" transform="translate(-912.73 -3109.651)" fill="#9eddf6"/>
    </g>
    <g transform="matrix(1, 0, 0, 1, 1016.07, 784)" filter="url(#長方形_203)">
      <rect id="長方形_203-2" data-name="長方形 203" width="206" height="96" transform="translate(36 51)" fill="url(#linear-gradient-2)"/>
    </g>
    <text id="営業職一人あたりの_年間売上高" data-name="営業職一人あたりの
年間売上高" transform="translate(1080.07 865.003)" fill="#fff" font-size="13" font-family="HiraginoSans-W6, Hiragino Sans" letter-spacing="0.2em"><tspan x="0" y="0">営業職一人あたりの</tspan><tspan y="0" font-size="24" font-family="DINCondensed-Bold, DIN Condensed" font-weight="700"></tspan><tspan font-size="24"><tspan x="0" y="37">年間売上高</tspan></tspan></text>
  </g>
</svg>
