<svg xmlns="http://www.w3.org/2000/svg" xmlns:xlink="http://www.w3.org/1999/xlink" width="842.586" height="691.934" viewBox="0 0 842.586 691.934">
  <defs>
    <linearGradient id="linear-gradient" y1="0.5" x2="1" y2="0.5" gradientUnits="objectBoundingBox">
      <stop offset="0" stop-color="#03a8e5"/>
      <stop offset="1" stop-color="#012869"/>
    </linearGradient>
    <filter id="パス_301" x="0" y="0" width="842.586" height="691.934" filterUnits="userSpaceOnUse">
      <feOffset dx="10" dy="10" input="SourceAlpha"/>
      <feGaussianBlur stdDeviation="15" result="blur"/>
      <feFlood flood-opacity="0.161"/>
      <feComposite operator="in" in2="blur"/>
      <feComposite in="SourceGraphic"/>
    </filter>
    <linearGradient id="linear-gradient-2" x1="-0.03" xlink:href="#linear-gradient"/>
    <filter id="長方形_219" x="21.347" y="49.934" width="203" height="102" filterUnits="userSpaceOnUse">
      <feOffset input="SourceAlpha"/>
      <feGaussianBlur stdDeviation="5" result="blur-2"/>
      <feFlood flood-color="#013778" flood-opacity="0.322"/>
      <feComposite operator="in" in2="blur-2"/>
      <feComposite in="SourceGraphic"/>
    </filter>
  </defs>
  <g id="出身地" transform="translate(-288.653 -4676.066)">
    <g id="グループ_247" data-name="グループ 247" transform="translate(-204.7 2338)">
      <g transform="matrix(1, 0, 0, 1, 493.35, 2338.07)" filter="url(#パス_301)">
        <path id="パス_301-2" data-name="パス 301" d="M0,0H752.586V601.934H0Z" transform="translate(35 35)" fill="url(#linear-gradient)"/>
      </g>
      <path id="パス_302" data-name="パス 302" d="M0,0H744.586V593.934H0Z" transform="translate(532.353 2377.066)" fill="#edf9ff"/>
    </g>
    <g id="グループ_264" data-name="グループ 264" transform="translate(-51.893 1020.106)" opacity="0.29">
      <path id="パス_673" data-name="パス 673" d="M536.988,4137.994H528.57l-7.161-5.728s.1-3.261.13-6.266H513v22.821l8,8.491v-8.323h4.833l11.16-7.853Z" transform="translate(-0.058 -0.205)" fill="#03a8e5" stroke="rgba(0,0,0,0)" stroke-width="1"/>
      <path id="パス_674" data-name="パス 674" d="M525.994,4173.546l-12.516,15.441h11.013l4.429,14.571,21.951-28.4L543.15,4161H525.994Z" transform="translate(-0.059 -0.222)" fill="#03a8e5" stroke="rgba(0,0,0,0)" stroke-width="1"/>
      <path id="パス_675" data-name="パス 675" d="M558.982,4136.011V4118H541.569l-6.969,8h-12.77c-.035,3.006-.142,6.266-.142,6.266l7.822,5.728h7.481v3.187L526,4149.137v11.842h17.246l.322-13.013Z" transform="translate(-0.063 -0.201)" fill="#03a8e5" stroke="rgba(0,0,0,0)" stroke-width="1"/>
      <path id="パス_676" data-name="パス 676" d="M529.307,4203.815,524.8,4189H513.627L503,4202.109v33.868h8v-14.992h4v27.986h6.542l15.527-19.646Z" transform="translate(-0.054 -0.236)" fill="#03a8e5" stroke="rgba(0,0,0,0)" stroke-width="1"/>
      <path id="パス_677" data-name="パス 677" d="M572.858,4139H558.992v-3.4l-15.252,11.984-.318,13.045,7.676,14.348h26.885l.2-31.852Z" transform="translate(-0.073 -0.209)" fill="#03a8e5" stroke="rgba(0,0,0,0)" stroke-width="1"/>
      <path id="パス_678" data-name="パス 678" d="M529.444,4203.725l7.714,25.375,41.818-52.906.007-1.194H551.643Z" transform="translate(-0.067 -0.229)" fill="#03a8e5" stroke="rgba(0,0,0,0)" stroke-width="1"/>
      <path id="パス_679" data-name="パス 679" d="M396.216,4242.189l-.323,8.133,5.2,2.277,31.884-31.234v-6.506l-7.159-1.953Z" transform="translate(-0.001 -0.248)" fill="#03a8e5" stroke="rgba(0,0,0,0)" stroke-width="1"/>
      <path id="パス_680" data-name="パス 680" d="M813.983,4135.99v-20.771l-10.373,12.965-24.637,30.794,35.334-.162,4.417-11.519.121-.314h5.133v21.99h6.755l6.239-5.376V4135.99Z" transform="translate(-0.189 -0.199)" fill="#03a8e5" stroke="rgba(0,0,0,0)" stroke-width="1"/>
      <path id="パス_681" data-name="パス 681" d="M1080.913,3815.948l.082-12.932,10.913-6.922v-15.829l-10.995,6.821v-.124H1063.4L1014.3,3709H973.965v50.361l-12.994,14.9v23.7H921.991v18.131L903,3833.565v48.35h25.987v-12.994h12.994v-14.992H928.987v-16.992h16.992v15.688l16.732-15.688h3.712l31.937,41.428,31.932-41.428h50.873l16.74-11.274v-9.715Z" transform="translate(-0.25 0)" fill="#03a8e5" stroke="rgba(0,0,0,0)" stroke-width="1"/>
      <path id="パス_682" data-name="パス 682" d="M1081.413,3816.448l.082-12.932,10.913-6.922v-15.829l-10.995,6.82v-.123H1063.9L1014.8,3709.5H973.466v50.36l-12.994,14.9v23.7H922.491v18.131L903.5,3834.065v48.35h25.987v-12.994h12.994v-14.993H929.487v-16.992h15.992v15.688l16.732-15.688h3.712l31.937,41.429,31.932-41.429h50.872l16.74-11.274v-9.715Z" transform="translate(-0.25 0)" fill="#03a8e5" stroke="#fff" stroke-linecap="round" stroke-linejoin="round" stroke-width="1"/>
      <path id="パス_683" data-name="パス 683" d="M732.893,4089.637l20.092-5.208v15.554H763.98V4065H745.989v10H724v12.688Z" transform="translate(-0.162 -0.175)" fill="#03a8e5" stroke="rgba(0,0,0,0)" stroke-width="1"/>
      <path id="パス_684" data-name="パス 684" d="M733.639,4089.414l19.846-5.208v15.277H764.48V4064.5H745.49v10H724.5v12.965l8.785,1.954" transform="translate(-0.162 -0.175)" fill="#03a8e5" stroke="#fff" stroke-linecap="round" stroke-linejoin="round" stroke-width="1"/>
      <path id="パス_685" data-name="パス 685" d="M836,4078.118v22.865h34.983V4068h-26.51Z" transform="translate(-0.217 -0.177)" fill="#03a8e5" stroke="rgba(0,0,0,0)" stroke-width="1"/>
      <path id="パス_686" data-name="パス 686" d="M835.5,4078.618v22.865h34.983V4068.5h-26.51Z" transform="translate(-0.217 -0.177)" fill="#03a8e5" stroke="#fff" stroke-linecap="round" stroke-linejoin="round" stroke-width="1"/>
      <path id="パス_687" data-name="パス 687" d="M815.988,4059v15.992h0v5.777L792,4107.356v19.611h12.6l19.687-25.987h11.688v-22.52l8-9.965V4059Z" transform="translate(-0.195 -0.172)" fill="#03a8e5" stroke="rgba(0,0,0,0)" stroke-width="1"/>
      <path id="パス_688" data-name="パス 688" d="M816.488,4059.5v14.993h0v5.777L792.5,4106.856v19.61h11.6l19.687-25.987h11.688v-22.52l8-9.965v-8.5Z" transform="translate(-0.196 -0.172)" fill="#03a8e5" stroke="#fff" stroke-linecap="round" stroke-linejoin="round" stroke-width="1"/>
      <path id="パス_689" data-name="パス 689" d="M853.392,4043.984H816v14.993h27.986v9h25.987V4049.12l14.993-13.7v-25.3Z" transform="translate(-0.207 -0.148)" fill="#03a8e5" stroke="rgba(0,0,0,0)" stroke-width="1"/>
      <path id="パス_690" data-name="パス 690" d="M853.892,4044.484H816.5v14.992h27.986v9h25.987V4049.62l14.993-13.7v-25.3Z" transform="translate(-0.207 -0.149)" fill="#03a8e5" stroke="#fff" stroke-linecap="round" stroke-linejoin="round" stroke-width="1"/>
      <path id="パス_691" data-name="パス 691" d="M599,4106.979v.371l10.734-10.367h10.409l11.385-10.995h17.241l5.2-6.6V4063H612.315l-22.759,20.989H591v22.99Z" transform="translate(-0.096 -0.174)" fill="#03a8e5" stroke="rgba(0,0,0,0)" stroke-width="1"/>
      <path id="パス_692" data-name="パス 692" d="M599.5,4107.479v-.628l10.734-10.366h10.409l11.385-11h17.241l5.2-6.6V4063.5H612.815l-22.759,20.989H591.5v22.99Z" transform="translate(-0.096 -0.174)" fill="#03a8e5" stroke="#fff" stroke-linecap="round" stroke-linejoin="round" stroke-width="1"/>
      <path id="パス_693" data-name="パス 693" d="M721.993,4115.526v25.752l.325-.316h10.67v-51.2l-9-1.958V4064H708v37.854Z" transform="translate(-0.154 -0.175)" fill="#03a8e5" stroke="rgba(0,0,0,0)" stroke-width="1"/>
      <path id="パス_694" data-name="パス 694" d="M721.493,4115.026v25.752l.325-.316h11.669v-51.2l-9-1.958v-23.8H707.5v37.854Z" transform="translate(-0.154 -0.174)" fill="#03a8e5" stroke="#fff" stroke-linecap="round" stroke-linejoin="round" stroke-width="1"/>
      <path id="パス_695" data-name="パス 695" d="M654,4064v15.342l-5,6.833v7.809h41.979V4064Z" transform="translate(-0.125 -0.175)" fill="#03a8e5" stroke="rgba(0,0,0,0)" stroke-width="1"/>
      <path id="パス_696" data-name="パス 696" d="M654.5,4063.5v15.343l-5,6.833v7.81h41.979V4063.5Z" transform="translate(-0.125 -0.174)" fill="#03a8e5" stroke="#fff" stroke-linecap="round" stroke-linejoin="round" stroke-width="1"/>
      <path id="パス_697" data-name="パス 697" d="M965.969,3932.976V3883H935.983v13.993h18.991v6H927.987V3890H913.994v12.993H902v29.985h63.969Z" transform="translate(-0.249 -0.085)" fill="#03a8e5" stroke="rgba(0,0,0,0)" stroke-width="1"/>
      <path id="パス_698" data-name="パス 698" d="M966.469,3933.475V3882.5H936.483v13.994h18.991v7H927.488V3890.5H913.495v12.994H902.5v29.985h63.969Z" transform="translate(-0.25 -0.085)" fill="#03a8e5" stroke="#fff" stroke-linecap="round" stroke-linejoin="round" stroke-width="1"/>
      <rect id="長方形_192" data-name="長方形 192" width="32.984" height="57.972" transform="translate(901.751 3932.89)" fill="#03a8e5" stroke="rgba(0,0,0,0)" stroke-width="1"/>
      <rect id="長方形_193" data-name="長方形 193" width="32.984" height="57.972" transform="translate(902.25 3933.39)" fill="#03a8e5" stroke="#fff" stroke-linecap="round" stroke-linejoin="round" stroke-width="1"/>
      <path id="パス_699" data-name="パス 699" d="M752.99,4083.867,733,4089.075v51.078l17.039-20.171h2.951v-36.115Z" transform="translate(-0.166 -0.184)" fill="#03a8e5" stroke="rgba(0,0,0,0)" stroke-width="1"/>
      <path id="パス_700" data-name="パス 700" d="M753.49,4084.367l-19.99,5.208v51.078l17.039-20.171h2.951v-36.115Z" transform="translate(-0.167 -0.184)" fill="#03a8e5" stroke="#fff" stroke-linecap="round" stroke-linejoin="round" stroke-width="1"/>
      <path id="パス_701" data-name="パス 701" d="M598.981,4106.989h-8V4084H565.529L561,4092.3v21.626l4.526,9.056h14.229l9.054,10.995h10.172l5.736-8.1-5.736-6.409Z" transform="translate(-0.082 -0.184)" fill="#03a8e5" stroke="rgba(0,0,0,0)" stroke-width="1"/>
      <path id="パス_702" data-name="パス 702" d="M599.481,4107.489h-8V4084.5H566.029l-4.529,8.3v20.626l4.526,9.056h14.229l9.054,10.994h10.172l5.523-7.8-5.523-6.171Z" transform="translate(-0.082 -0.184)" fill="#03a8e5" stroke="#fff" stroke-linecap="round" stroke-linejoin="round" stroke-width="1"/>
      <path id="パス_703" data-name="パス 703" d="M915.333,4034.979,935.068,3991H901.543L885,4009.265v25.713Z" transform="translate(-0.241 -0.138)" fill="#03a8e5" stroke="rgba(0,0,0,0)" stroke-width="1"/>
      <path id="パス_704" data-name="パス 704" d="M915.833,4035.479l19.735-43.979H902.043L885.5,4009.766v25.713Z" transform="translate(-0.241 -0.139)" fill="#03a8e5" stroke="#fff" stroke-linecap="round" stroke-linejoin="round" stroke-width="1"/>
      <rect id="長方形_194" data-name="長方形 194" width="32.984" height="32.984" transform="translate(870.766 4067.824)" fill="#03a8e5" stroke="rgba(0,0,0,0)" stroke-width="1"/>
      <rect id="長方形_195" data-name="長方形 195" width="32.984" height="32.984" transform="translate(870.266 4068.324)" fill="#03a8e5" stroke="#fff" stroke-linecap="round" stroke-linejoin="round" stroke-width="1"/>
      <path id="パス_705" data-name="パス 705" d="M714,4148.556v10.665l-7,5.53v7.811l4.385,4.39,3.736-1.139,17.866-17.569V4141H721.63Z" transform="translate(-0.154 -0.212)" fill="#03a8e5" stroke="rgba(0,0,0,0)" stroke-width="1"/>
      <path id="パス_706" data-name="パス 706" d="M714.5,4148.055v10.666l-7,5.53v7.811l4.385,4.39,3.736-1.139,17.866-17.57V4140.5H722.13Z" transform="translate(-0.154 -0.212)" fill="#03a8e5" stroke="#fff" stroke-linecap="round" stroke-linejoin="round" stroke-width="1"/>
      <rect id="長方形_196" data-name="長方形 196" width="34.983" height="18.991" transform="translate(835.783 4100.808)" fill="#03a8e5" stroke="rgba(0,0,0,0)" stroke-width="1"/>
      <rect id="長方形_197" data-name="長方形 197" width="34.983" height="18.991" transform="translate(835.283 4100.308)" fill="#03a8e5" stroke="#fff" stroke-linecap="round" stroke-linejoin="round" stroke-width="1"/>
      <path id="パス_707" data-name="パス 707" d="M779.992,4019v12.868l-11.961,32.11H764v20.989h8.891l7.1-6.979V4068.9l16.992-25.212.081-11.69h17.91V4019Z" transform="translate(-0.182 -0.152)" fill="#03a8e5" stroke="rgba(0,0,0,0)" stroke-width="1"/>
      <path id="パス_708" data-name="パス 708" d="M779.492,4019.5v12.868l-11.961,32.109H763.5v20.99h8.891l7.1-6.979V4069.4l16.992-25.212.081-11.69h17.91V4019.5Z" transform="translate(-0.181 -0.152)" fill="#03a8e5" stroke="#fff" stroke-linecap="round" stroke-linejoin="round" stroke-width="1"/>
      <path id="パス_709" data-name="パス 709" d="M779.987,4075v3L772.969,4085h-8.975v14.992H753v20.99h15.609l7.16,6h16.212v-19.66l23.988-26.463V4075Z" transform="translate(-0.176 -0.18)" fill="#03a8e5" stroke="rgba(0,0,0,0)" stroke-width="1"/>
      <path id="パス_710" data-name="パス 710" d="M780.487,4075.5v3l-7.017,6.994h-8.975v13.992H753.5v20.99h15.109l7.16,7h16.712v-20.16l23.988-26.462V4075.5Z" transform="translate(-0.177 -0.18)" fill="#03a8e5" stroke="#fff" stroke-linecap="round" stroke-linejoin="round" stroke-width="1"/>
      <path id="パス_711" data-name="パス 711" d="M796.575,4044,780,4069.154v5.831h35.982V4044Z" transform="translate(-0.19 -0.164)" fill="#03a8e5" stroke="rgba(0,0,0,0)" stroke-width="1"/>
      <path id="パス_712" data-name="パス 712" d="M797.075,4044.5,780.5,4069.654v5.831h35.982V4044.5Z" transform="translate(-0.19 -0.165)" fill="#03a8e5" stroke="#fff" stroke-linecap="round" stroke-linejoin="round" stroke-width="1"/>
      <path id="パス_713" data-name="パス 713" d="M903.984,4100.983H871v17.991h20.734l8.126,18.286L935.532,4068H903.984Z" transform="translate(-0.234 -0.177)" fill="#03a8e5" stroke="rgba(0,0,0,0)" stroke-width="1"/>
      <path id="パス_714" data-name="パス 714" d="M903.484,4101.483H870.5v17.991h20.734l8.126,18.287,35.672-69.261H903.484Z" transform="translate(-0.234 -0.177)" fill="#03a8e5" stroke="#fff" stroke-linecap="round" stroke-linejoin="round" stroke-width="1"/>
      <path id="パス_715" data-name="パス 715" d="M836,4119v14.992h28.706l6.277-8.161V4119Z" transform="translate(-0.217 -0.201)" fill="#03a8e5" stroke="rgba(0,0,0,0)" stroke-width="1"/>
      <path id="パス_716" data-name="パス 716" d="M835.5,4119.5v14.992h28.706l6.277-8.161V4119.5Z" transform="translate(-0.217 -0.202)" fill="#03a8e5" stroke="#fff" stroke-linecap="round" stroke-linejoin="round" stroke-width="1"/>
      <path id="パス_717" data-name="パス 717" d="M892.757,4119H870.995v22.071L860,4158.034v7.943h25.952l15.334-28.564Z" transform="translate(-0.229 -0.201)" fill="#03a8e5" stroke="rgba(0,0,0,0)" stroke-width="1"/>
      <path id="パス_718" data-name="パス 718" d="M892.257,4119.5H870.495v22.07L859.5,4158.534v7.943h25.952l15.334-28.565Z" transform="translate(-0.229 -0.202)" fill="#03a8e5" stroke="#fff" stroke-linecap="round" stroke-linejoin="round" stroke-width="1"/>
      <path id="パス_719" data-name="パス 719" d="M836,4148.992h22.989v-8.235l5.939-6.757H836Z" transform="translate(-0.217 -0.209)" fill="#03a8e5" stroke="rgba(0,0,0,0)" stroke-width="1"/>
      <path id="パス_720" data-name="パス 720" d="M835.5,4149.492h22.989v-8.235l5.939-6.757H835.5Z" transform="translate(-0.217 -0.209)" fill="#03a8e5" stroke="#fff" stroke-linecap="round" stroke-linejoin="round" stroke-width="1"/>
      <path id="パス_721" data-name="パス 721" d="M823.51,4101,813,4113.851v20.133h22.989V4101Z" transform="translate(-0.206 -0.192)" fill="#03a8e5" stroke="rgba(0,0,0,0)" stroke-width="1"/>
      <path id="パス_722" data-name="パス 722" d="M823.01,4101.5l-10.51,12.851v20.133h22.989V4101.5Z" transform="translate(-0.205 -0.193)" fill="#03a8e5" stroke="#fff" stroke-linecap="round" stroke-linejoin="round" stroke-width="1"/>
      <path id="パス_723" data-name="パス 723" d="M966.483,3933H935v57.972h41.979V3933Z" transform="translate(-0.266 -0.11)" fill="#03a8e5" stroke="rgba(0,0,0,0)" stroke-width="1"/>
      <path id="パス_724" data-name="パス 724" d="M966.983,3933.5H935.5v57.972h41.979V3933.5Z" transform="translate(-0.266 -0.11)" fill="#03a8e5" stroke="#fff" stroke-linecap="round" stroke-linejoin="round" stroke-width="1"/>
      <path id="パス_725" data-name="パス 725" d="M916,4035H885.762L871,4048.883v19.1h64.853l1.561-3.031L953.624,4035Z" transform="translate(-0.234 -0.16)" fill="#03a8e5" stroke="rgba(0,0,0,0)" stroke-width="1"/>
      <path id="パス_726" data-name="パス 726" d="M915.5,4035.5H885.262L870.5,4049.383v19.1h64.853l1.561-3.031,16.209-29.953Z" transform="translate(-0.234 -0.161)" fill="#03a8e5" stroke="#fff" stroke-linecap="round" stroke-linejoin="round" stroke-width="1"/>
      <path id="パス_727" data-name="パス 727" d="M915.492,4034.979h37.733l23.8-43.979h-41.8Z" transform="translate(-0.256 -0.138)" fill="#03a8e5" stroke="rgba(0,0,0,0)" stroke-width="1"/>
      <path id="パス_728" data-name="パス 728" d="M915.492,4035.479h37.733l23.8-43.979h-41.8Z" transform="translate(-0.256 -0.139)" fill="#03a8e5" stroke="#fff" stroke-linecap="round" stroke-linejoin="round" stroke-width="1"/>
      <path id="パス_729" data-name="パス 729" d="M792.293,4127H777.238l-7.7-7H758v26.987h6v-7h5v10.995h-9v7h17.939L802.728,4127Z" transform="translate(-0.179 -0.202)" fill="#03a8e5" stroke="rgba(0,0,0,0)" stroke-width="1"/>
      <path id="パス_730" data-name="パス 730" d="M790.751,4127.5H776.738l-7.7-7H757.5v26.987h6v-7h5v11h-9v6H776.86l23.99-29.985Z" transform="translate(-0.178 -0.202)" fill="#03a8e5" stroke="#fff" stroke-linecap="round" stroke-linejoin="round" stroke-width="1"/>
      <path id="パス_731" data-name="パス 731" d="M648.975,4086H630.413l-10.995,10.995H609.366L599,4107.361v12.5l5.553,6.125h44.422V4086Z" transform="translate(-0.101 -0.185)" fill="#03a8e5" stroke="rgba(0,0,0,0)" stroke-width="1"/>
      <path id="パス_732" data-name="パス 732" d="M649.476,4085.5H630.913l-10.995,10.995H609.866L599.5,4106.861v12.5l5.553,6.125h44.422V4085.5Z" transform="translate(-0.101 -0.185)" fill="#03a8e5" stroke="#fff" stroke-linecap="round" stroke-linejoin="round" stroke-width="1"/>
      <path id="パス_733" data-name="パス 733" d="M691.979,4101.583V4093H649v32.984h28.986V4111.02Z" transform="translate(-0.125 -0.189)" fill="#03a8e5" stroke="rgba(0,0,0,0)" stroke-width="1"/>
      <path id="パス_734" data-name="パス 734" d="M691.479,4102.084V4093.5H649.5v32.984h27.986V4111.52Z" transform="translate(-0.125 -0.189)" fill="#03a8e5" stroke="#fff" stroke-linecap="round" stroke-linejoin="round" stroke-width="1"/>
      <path id="パス_735" data-name="パス 735" d="M714.991,4147.771v0l7-7.24v-25.69L707.994,4101.2v31.535l-11.634,17.242h16.5Z" transform="translate(-0.148 -0.193)" fill="#03a8e5" stroke="rgba(0,0,0,0)" stroke-width="1"/>
      <path id="パス_736" data-name="パス 736" d="M714.491,4148.27v0l7-7.239v-25.69L707.494,4101.7v31.535l-11.634,17.242h16.5Z" transform="translate(-0.148 -0.193)" fill="#03a8e5" stroke="#fff" stroke-linecap="round" stroke-linejoin="round" stroke-width="1"/>
      <path id="パス_737" data-name="パス 737" d="M691.993,4064v38.128L678,4111.349v14.621h11.994l7.329,7h10.662V4064Z" transform="translate(-0.139 -0.175)" fill="#03a8e5" stroke="rgba(0,0,0,0)" stroke-width="1"/>
      <path id="パス_738" data-name="パス 738" d="M691.493,4063.5v38.128l-13.993,9.22v14.621h11.994l7.329,7h10.662V4063.5Z" transform="translate(-0.139 -0.174)" fill="#03a8e5" stroke="#fff" stroke-linecap="round" stroke-linejoin="round" stroke-width="1"/>
      <path id="パス_739" data-name="パス 739" d="M711.31,4175.849l-4.318-4.391v-7.236l7-5.4v-11.006L711.745,4150H696.13L689,4160.647v19.038l12.493,11.294h7.1l6.4-6.6v-9.671Z" transform="translate(-0.145 -0.215)" fill="#03a8e5" stroke="rgba(0,0,0,0)" stroke-width="1"/>
      <path id="パス_740" data-name="パス 740" d="M711.81,4176.349l-4.318-4.391v-7.737l7-5.4v-10.506l-2.243,2.188H696.63l-7.13,10.648v19.038l12.493,11.294h7.1l6.4-6.6v-9.671Z" transform="translate(-0.145 -0.216)" fill="#03a8e5" stroke="#fff" stroke-linecap="round" stroke-linejoin="round" stroke-width="1"/>
      <path id="パス_741" data-name="パス 741" d="M753.129,4120H750l-17.007,20.172v17.242L715,4174.985v11.784l17.37-18.792H754.98v-13.993h-8v-10.357l10.995-9.386V4120Z" transform="translate(-0.158 -0.202)" fill="#03a8e5" stroke="rgba(0,0,0,0)" stroke-width="1"/>
      <path id="パス_742" data-name="パス 742" d="M752.629,4120.5H750.5l-17.007,20.172v17.242l-17.991,17.57v9.442l17.37-17.45H755.48v-12.994h-9v-10.357l10.995-9.386V4120.5Z" transform="translate(-0.158 -0.202)" fill="#03a8e5" stroke="#fff" stroke-linecap="round" stroke-linejoin="round" stroke-width="1"/>
      <path id="パス_743" data-name="パス 743" d="M860.994,4001.864,848,4005.669v20.921l12.994-10.145Z" transform="translate(-0.223 -0.144)" fill="#03a8e5" stroke="rgba(0,0,0,0)" stroke-width="1"/>
      <path id="パス_744" data-name="パス 744" d="M861.494,4001.864l-12.994,3.805v20.921l12.994-10.145Z" transform="translate(-0.223 -0.144)" fill="#03a8e5" stroke="#fff" stroke-linecap="round" stroke-linejoin="round" stroke-width="1"/>
      <path id="パス_745" data-name="パス 745" d="M614.883,4151,597,4178.737v11.243h15.319l9.4-14.992h22.549l4.744,9.16,8.286-7.032L641.272,4151Z" transform="translate(-0.1 -0.217)" fill="#03a8e5" stroke="rgba(0,0,0,0)" stroke-width="1"/>
      <path id="パス_746" data-name="パス 746" d="M614.383,4151.5,596.5,4179.238v11.242h15.319l9.4-14.992h22.549l4.744,9.16,8.286-7.031L640.772,4151.5Z" transform="translate(-0.099 -0.217)" fill="#03a8e5" stroke="#fff" stroke-linecap="round" stroke-linejoin="round" stroke-width="1"/>
      <path id="パス_747" data-name="パス 747" d="M640.976,4150.994v-11H626.983v-3h-20.99L593,4155.026v19.956h4v3.75l17.764-27.737Z" transform="translate(-0.098 -0.21)" fill="#03a8e5" stroke="rgba(0,0,0,0)" stroke-width="1"/>
      <path id="パス_748" data-name="パス 748" d="M640.477,4151.492V4140.5H626.484v-4H606.111L593.5,4154.526v19.956h3v3.593l17.764-26.582Z" transform="translate(-0.098 -0.21)" fill="#03a8e5" stroke="#fff" stroke-linecap="round" stroke-linejoin="round" stroke-width="1"/>
      <path id="パス_749" data-name="パス 749" d="M673.171,4134H647v6h-6v11h37.981v-1.186Z" transform="translate(-0.121 -0.209)" fill="#03a8e5" stroke="rgba(0,0,0,0)" stroke-width="1"/>
      <path id="パス_750" data-name="パス 750" d="M672.671,4134.5H646.5v6h-6v10.995h37.981v-1.185Z" transform="translate(-0.121 -0.209)" fill="#03a8e5" stroke="#fff" stroke-linecap="round" stroke-linejoin="round" stroke-width="1"/>
      <path id="パス_751" data-name="パス 751" d="M656.248,4177.429l11.123-9.437h6.976l4.634-6.623V4151H640.029Z" transform="translate(-0.121 -0.217)" fill="#03a8e5" stroke="rgba(0,0,0,0)" stroke-width="1"/>
      <path id="パス_752" data-name="パス 752" d="M656.748,4177.929l11.123-9.437h6.975l4.634-6.623V4151.5H640.529Z" transform="translate(-0.121 -0.217)" fill="#03a8e5" stroke="#fff" stroke-linecap="round" stroke-linejoin="round" stroke-width="1"/>
      <path id="パス_753" data-name="パス 753" d="M694.86,4146.995l3.388-9.995h-6.21l-1.354,4H683v6h11.86Z" transform="translate(-0.142 -0.21)" fill="#03a8e5" stroke="rgba(0,0,0,0)" stroke-width="1"/>
      <path id="パス_754" data-name="パス 754" d="M695.361,4146.5l3.388-10h-6.21l-1.354,4H683.5v6h11.86Z" transform="translate(-0.142 -0.21)" fill="#03a8e5" stroke="#fff" stroke-linecap="round" stroke-linejoin="round" stroke-width="1"/>
      <path id="パス_755" data-name="パス 755" d="M511.991,4124H499.759l-5.817,10.741.224,4.251h3.579l4.252-6.266v10.179l-3,2.6v20.471h3.137l4.122-7h5.251l-5.513,5.954v9.039h8.594l5.4-5.842v-12.22l-8-8.655Z" transform="translate(-0.049 -0.204)" fill="#03a8e5" stroke="rgba(0,0,0,0)" stroke-width="1"/>
      <path id="パス_756" data-name="パス 756" d="M511.492,4123.5H500.259l-5.817,10.741.224,4.251h3.579l4.252-6.266v10.679l-3,2.6v20.971h2.637l4.122-7h5.75l-5.513,5.954v9.039h7.595l5.4-5.958v-12.465l-8-8.828Z" transform="translate(-0.049 -0.203)" fill="#03a8e5" stroke="#fff" stroke-linecap="round" stroke-linejoin="round" stroke-width="1"/>
      <path id="パス_757" data-name="パス 757" d="M534.989,4135.994H527.57l-7.161-5.728s.1-3.261.13-6.266H512v22.82l8,8.492v-8.323h4.53l10.463-7.853Z" transform="translate(-0.058 -0.204)" fill="#03a8e5" stroke="rgba(0,0,0,0)" stroke-width="1"/>
      <path id="パス_758" data-name="パス 758" d="M535.488,4136.494H527.07l-7.161-5.728s.1-3.261.13-6.266H511.5v22.821l8,8.491v-8.323h4.833l11.159-7.853Z" transform="translate(-0.058 -0.204)" fill="#03a8e5" stroke="#fff" stroke-linecap="round" stroke-linejoin="round" stroke-width="1"/>
      <path id="パス_759" data-name="パス 759" d="M524.994,4171.546l-12.516,15.441h11.013l4.429,14.571,21.951-28.4L542.15,4159H524.994Z" transform="translate(-0.058 -0.221)" fill="#03a8e5" stroke="rgba(0,0,0,0)" stroke-width="1"/>
      <path id="パス_760" data-name="パス 760" d="M524.494,4172.046l-12.516,15.441h11.013l4.429,14.57,21.951-28.4-7.72-14.154H524.494Z" transform="translate(-0.058 -0.221)" fill="#03a8e5" stroke="#fff" stroke-linecap="round" stroke-linejoin="round" stroke-width="1"/>
      <path id="パス_761" data-name="パス 761" d="M557.981,4134.012V4117H542.745l-6.1,7H519.831c-.035,3.006-.142,6.266-.142,6.266l7.822,5.728h7.481v3.187L524,4147.137v11.842h17.768l.332-13.012Z" transform="translate(-0.062 -0.2)" fill="#03a8e5" stroke="rgba(0,0,0,0)" stroke-width="1"/>
      <path id="パス_762" data-name="パス 762" d="M557.482,4134.511V4116.5H542.245l-6.1,7H520.331c-.035,3.255-.142,6.788-.142,6.788l7.822,6.206h7.481v3.452l-10.995,8.625v10.913h17.246l.322-13.013Z" transform="translate(-0.062 -0.2)" fill="#03a8e5" stroke="#fff" stroke-linecap="round" stroke-linejoin="round" stroke-width="1"/>
      <path id="パス_763" data-name="パス 763" d="M527.307,4201.815,522.8,4187H511.627L501,4200.109v33.868h8v-13.993h4v26.987h6.542l15.527-19.646Z" transform="translate(-0.053 -0.235)" fill="#03a8e5" stroke="rgba(0,0,0,0)" stroke-width="1"/>
      <path id="パス_764" data-name="パス 764" d="M527.807,4202.315l-4.5-14.815H511.9l-10.4,12.83v33.147h8v-13.993h4v27.986h6.542l15.527-19.646Z" transform="translate(-0.053 -0.235)" fill="#03a8e5" stroke="#fff" stroke-linecap="round" stroke-linejoin="round" stroke-width="1"/>
      <path id="パス_765" data-name="パス 765" d="M571.858,4137H557.992v-3.4l-15.252,11.984-.318,13.045,7.676,14.348h26.885l.2-31.852Z" transform="translate(-0.073 -0.208)" fill="#03a8e5" stroke="rgba(0,0,0,0)" stroke-width="1"/>
      <path id="パス_766" data-name="パス 766" d="M572.358,4137.5H558.492v-3.4l-15.252,11.984-.318,13.045,7.676,14.348h26.885l.2-31.852Z" transform="translate(-0.073 -0.209)" fill="#03a8e5" stroke="#fff" stroke-linecap="round" stroke-linejoin="round" stroke-width="1"/>
      <path id="パス_767" data-name="パス 767" d="M527.444,4201.725l7.714,25.375,41.817-52.906.007-1.194H549.643Z" transform="translate(-0.066 -0.228)" fill="#03a8e5" stroke="rgba(0,0,0,0)" stroke-width="1"/>
      <path id="パス_768" data-name="パス 768" d="M527.944,4202.225l7.714,25.375,41.817-52.905.007-1.194H550.143Z" transform="translate(-0.066 -0.228)" fill="#03a8e5" stroke="#fff" stroke-linecap="round" stroke-linejoin="round" stroke-width="1"/>
      <path id="パス_769" data-name="パス 769" d="M394.216,4240.771l-.323,8.134,5.2,2.277,31.884-31.234v-6.506l-7.158-1.953Z" transform="translate(0 -0.247)" fill="#03a8e5" stroke="rgba(0,0,0,0)" stroke-width="1"/>
      <path id="パス_770" data-name="パス 770" d="M394.716,4240.771l-.323,8.134,5.2,2.277,31.884-31.234v-6.506l-7.158-1.953Z" transform="translate(0 -0.247)" fill="#03a8e5" stroke="#fff" stroke-linecap="round" stroke-linejoin="round" stroke-width="1"/>
      <path id="パス_771" data-name="パス 771" d="M812.983,4133.99v-19.771l-10.373,12.965-24.637,30.794,35.334-.162,4.417-11.519.12-.314h4.134v21.99h7.754l6.239-5.539V4133.99Z" transform="translate(-0.189 -0.199)" fill="#03a8e5" stroke="rgba(0,0,0,0)" stroke-width="1"/>
      <path id="パス_772" data-name="パス 772" d="M812.483,4134.49v-20.771l-10.373,12.965-24.637,30.794,35.334-.162,4.417-11.519.121-.314h5.133v21.99h6.755l6.239-5.376V4134.49Z" transform="translate(-0.188 -0.199)" fill="#03a8e5" stroke="#fff" stroke-linecap="round" stroke-linejoin="round" stroke-width="1"/>
      <path id="パス_773" data-name="パス 773" d="M1080.913,3815.948l.082-12.932,10.913-6.922v-15.829l-10.995,6.821v-.124H1063.4L1014.3,3709H973.965v50.361l-12.994,14.9v23.7H921.991v18.131L903,3833.565v48.35h25.987v-12.994h12.994v-14.992H928.987v-16.992h16.992v15.688l16.732-15.688h3.712l31.937,41.428,31.932-41.428h50.873l16.74-11.274v-9.715Z" transform="translate(-0.25 0)" fill="#03a8e5" stroke="#fff" stroke-miterlimit="10" stroke-width="2"/>
      <path id="パス_774" data-name="パス 774" d="M733.14,4089.414l19.846-5.208v15.777h10.995V4065H745.99v10H725v12.465l8.785,1.954" transform="translate(-0.163 -0.175)" fill="#03a8e5" stroke="#fff" stroke-miterlimit="10" stroke-width="2"/>
      <path id="パス_775" data-name="パス 775" d="M836,4078.118v22.865h34.983V4068h-26.51Z" transform="translate(-0.217 -0.177)" fill="#03a8e5" stroke="#fff" stroke-miterlimit="10" stroke-width="2"/>
      <path id="パス_776" data-name="パス 776" d="M815.988,4059v15.992h0v5.777L792,4107.356v19.611h12.6l19.687-25.987h11.688v-22.52l8-9.965V4059Z" transform="translate(-0.195 -0.172)" fill="#03a8e5" stroke="#fff" stroke-miterlimit="10" stroke-width="2"/>
      <path id="パス_777" data-name="パス 777" d="M853.392,4043.984H816v14.993h27.986v9h25.987V4049.12l14.993-13.7v-25.3Z" transform="translate(-0.207 -0.148)" fill="#03a8e5" stroke="#fff" stroke-miterlimit="10" stroke-width="2"/>
      <path id="パス_778" data-name="パス 778" d="M599,4106.979v.371l10.734-10.367h10.409l11.385-10.995h17.241l5.2-6.6V4063H612.315l-22.759,20.989H591v22.99Z" transform="translate(-0.096 -0.174)" fill="#03a8e5" stroke="#fff" stroke-miterlimit="10" stroke-width="2"/>
      <path id="パス_779" data-name="パス 779" d="M721.993,4115.526v25.752l.325-.316h10.67v-51.2l-9-1.958V4064H708v37.854Z" transform="translate(-0.154 -0.175)" fill="#03a8e5" stroke="#fff" stroke-miterlimit="10" stroke-width="2"/>
      <path id="パス_780" data-name="パス 780" d="M654,4064v15.342l-5,6.833v7.809h41.979V4064Z" transform="translate(-0.125 -0.175)" fill="#03a8e5" stroke="#fff" stroke-miterlimit="10" stroke-width="2"/>
      <path id="パス_781" data-name="パス 781" d="M965.969,3932.976V3883H935.983v13.993h18.991v6H927.987V3890H913.994v12.993H902v29.985h63.969Z" transform="translate(-0.249 -0.085)" fill="#03a8e5" stroke="#fff" stroke-miterlimit="10" stroke-width="2"/>
      <rect id="長方形_198" data-name="長方形 198" width="32.984" height="57.972" transform="translate(901.751 3932.89)" fill="#03a8e5" stroke="#fff" stroke-miterlimit="10" stroke-width="2"/>
      <path id="パス_782" data-name="パス 782" d="M752.99,4083.867,733,4089.075v51.078l17.039-20.171h2.951v-36.115Z" transform="translate(-0.166 -0.184)" fill="#03a8e5" stroke="#fff" stroke-miterlimit="10" stroke-width="2"/>
      <path id="パス_783" data-name="パス 783" d="M598.981,4106.989h-8V4084H565.529L561,4092.3v21.626l4.526,9.056h14.229l9.054,10.995h10.172l5.736-8.1-5.736-6.409Z" transform="translate(-0.082 -0.184)" fill="#03a8e5" stroke="#fff" stroke-miterlimit="10" stroke-width="2"/>
      <path id="パス_784" data-name="パス 784" d="M915.333,4034.979,935.068,3991H901.543L885,4009.265v25.713Z" transform="translate(-0.241 -0.138)" fill="#03a8e5" stroke="#fff" stroke-miterlimit="10" stroke-width="2"/>
      <rect id="長方形_199" data-name="長方形 199" width="32.984" height="32.984" transform="translate(870.766 4067.824)" fill="#03a8e5" stroke="#fff" stroke-miterlimit="10" stroke-width="2"/>
      <path id="パス_785" data-name="パス 785" d="M714,4148.556v10.665l-7,5.53v7.811l4.385,4.39,3.736-1.139,17.866-17.569V4141H721.63Z" transform="translate(-0.154 -0.212)" fill="#03a8e5" stroke="#fff" stroke-miterlimit="10" stroke-width="2"/>
      <rect id="長方形_200" data-name="長方形 200" width="34.983" height="18.991" transform="translate(835.783 4100.808)" fill="#03a8e5" stroke="#fff" stroke-miterlimit="10" stroke-width="2"/>
      <path id="パス_786" data-name="パス 786" d="M779.992,4019v12.868l-11.961,32.11H764v20.989h8.891l7.1-6.979V4068.9l16.992-25.212.081-11.69h17.91V4019Z" transform="translate(-0.182 -0.152)" fill="#03a8e5" stroke="#fff" stroke-miterlimit="10" stroke-width="2"/>
      <path id="パス_787" data-name="パス 787" d="M779.987,4075v3L772.969,4085h-8.975v14.992H753v20.99h15.609l7.16,6h16.212v-19.66l23.988-26.463V4075Z" transform="translate(-0.176 -0.18)" fill="#03a8e5" stroke="#fff" stroke-miterlimit="10" stroke-width="2"/>
      <path id="パス_788" data-name="パス 788" d="M796.575,4044,780,4069.154v5.831h35.982V4044Z" transform="translate(-0.19 -0.164)" fill="#03a8e5" stroke="#fff" stroke-miterlimit="10" stroke-width="2"/>
      <path id="パス_789" data-name="パス 789" d="M903.984,4100.983H871v17.991h20.734l8.126,18.286L935.532,4068H903.984Z" transform="translate(-0.234 -0.177)" fill="#03a8e5" stroke="#fff" stroke-miterlimit="10" stroke-width="2"/>
      <path id="パス_790" data-name="パス 790" d="M836,4119v14.992h28.706l6.277-8.161V4119Z" transform="translate(-0.217 -0.201)" fill="#03a8e5" stroke="#fff" stroke-miterlimit="10" stroke-width="2"/>
      <path id="パス_791" data-name="パス 791" d="M892.757,4119H870.995v22.071L860,4158.034v7.943h25.952l15.334-28.564Z" transform="translate(-0.229 -0.201)" fill="#03a8e5" stroke="#fff" stroke-miterlimit="10" stroke-width="2"/>
      <path id="パス_792" data-name="パス 792" d="M836,4148.992h22.989v-8.235l5.939-6.757H836Z" transform="translate(-0.217 -0.209)" fill="#03a8e5" stroke="#fff" stroke-miterlimit="10" stroke-width="2"/>
      <path id="パス_793" data-name="パス 793" d="M823.51,4101,813,4113.851v20.133h22.989V4101Z" transform="translate(-0.206 -0.192)" fill="#03a8e5" stroke="#fff" stroke-miterlimit="10" stroke-width="2"/>
      <path id="パス_794" data-name="パス 794" d="M966.483,3933H935v57.972h41.979V3933Z" transform="translate(-0.266 -0.11)" fill="#03a8e5" stroke="#fff" stroke-miterlimit="10" stroke-width="2"/>
      <path id="パス_795" data-name="パス 795" d="M916,4035H885.762L871,4048.883v19.1h64.853l1.561-3.031L953.624,4035Z" transform="translate(-0.234 -0.16)" fill="#03a8e5" stroke="#fff" stroke-miterlimit="10" stroke-width="2"/>
      <path id="パス_796" data-name="パス 796" d="M915.492,4034.979h37.733l23.8-43.979h-41.8Z" transform="translate(-0.256 -0.138)" fill="#03a8e5" stroke="#fff" stroke-miterlimit="10" stroke-width="2"/>
      <path id="パス_797" data-name="パス 797" d="M792.293,4127H777.238l-7.7-7H758v26.987h6v-7h5v10.995h-9v7h17.939L802.728,4127Z" transform="translate(-0.179 -0.202)" fill="#03a8e5" stroke="#fff" stroke-miterlimit="10" stroke-width="2"/>
      <path id="パス_798" data-name="パス 798" d="M648.975,4086H630.413l-10.995,10.995H609.366L599,4107.361v12.5l5.553,6.125h44.422V4086Z" transform="translate(-0.101 -0.185)" fill="#03a8e5" stroke="#fff" stroke-miterlimit="10" stroke-width="2"/>
      <path id="パス_799" data-name="パス 799" d="M691.979,4101.583V4093H649v32.984h28.986V4111.02Z" transform="translate(-0.125 -0.189)" fill="#03a8e5" stroke="#fff" stroke-miterlimit="10" stroke-width="2"/>
      <path id="パス_800" data-name="パス 800" d="M714.991,4147.771v0l7-7.24v-25.69L707.994,4101.2v31.535l-11.634,17.242h16.5Z" transform="translate(-0.148 -0.193)" fill="#03a8e5" stroke="#fff" stroke-miterlimit="10" stroke-width="2"/>
      <path id="パス_801" data-name="パス 801" d="M691.993,4064v38.128L678,4111.349v14.621h11.994l7.329,7h10.662V4064Z" transform="translate(-0.139 -0.175)" fill="#03a8e5" stroke="#fff" stroke-miterlimit="10" stroke-width="2"/>
      <path id="パス_802" data-name="パス 802" d="M711.31,4175.849l-4.318-4.391v-7.236l7-5.4v-11.006L711.745,4150H696.13L689,4160.647v19.038l12.493,11.294h7.1l6.4-6.6v-9.671Z" transform="translate(-0.145 -0.215)" fill="#03a8e5" stroke="#fff" stroke-miterlimit="10" stroke-width="2"/>
      <path id="パス_803" data-name="パス 803" d="M753.129,4120H750l-17.007,20.172v17.242L715,4174.985v11.784l17.37-18.792H754.98v-13.993h-8v-10.357l10.995-9.386V4120Z" transform="translate(-0.158 -0.202)" fill="#03a8e5" stroke="#fff" stroke-miterlimit="10" stroke-width="2"/>
      <path id="パス_804" data-name="パス 804" d="M860.994,4001.864,848,4005.669v20.921l12.994-10.145Z" transform="translate(-0.223 -0.144)" fill="#03a8e5" stroke="#fff" stroke-miterlimit="10" stroke-width="2"/>
      <path id="パス_805" data-name="パス 805" d="M614.883,4151,597,4178.737v11.243h15.319l9.4-14.992h22.549l4.744,9.16,8.286-7.032L641.272,4151Z" transform="translate(-0.1 -0.217)" fill="#03a8e5" stroke="#fff" stroke-miterlimit="10" stroke-width="2"/>
      <path id="パス_806" data-name="パス 806" d="M640.976,4150.994v-11H626.983v-3h-20.99L593,4155.026v19.956h4v3.75l17.764-27.737Z" transform="translate(-0.098 -0.21)" fill="#03a8e5" stroke="#fff" stroke-miterlimit="10" stroke-width="2"/>
      <path id="パス_807" data-name="パス 807" d="M673.171,4134H647v6h-6v11h37.981v-1.186Z" transform="translate(-0.121 -0.209)" fill="#03a8e5" stroke="#fff" stroke-miterlimit="10" stroke-width="2"/>
      <path id="パス_808" data-name="パス 808" d="M656.248,4177.429l11.123-9.437h6.976l4.634-6.623V4151H640.029Z" transform="translate(-0.121 -0.217)" fill="#03a8e5" stroke="#fff" stroke-miterlimit="10" stroke-width="2"/>
      <path id="パス_809" data-name="パス 809" d="M694.86,4146.995l3.388-9.995h-6.21l-1.354,4H683v6h11.86Z" transform="translate(-0.142 -0.21)" fill="#03a8e5" stroke="#fff" stroke-miterlimit="10" stroke-width="2"/>
      <path id="パス_810" data-name="パス 810" d="M511.991,4124H499.759l-5.817,10.741.224,4.251h3.579l4.252-6.266v10.179l-3,2.6v20.471h3.137l4.122-7h5.251l-5.513,5.954v9.039h8.594l5.4-5.842v-12.22l-8-8.655Z" transform="translate(-0.049 -0.204)" fill="#03a8e5" stroke="#fff" stroke-miterlimit="10" stroke-width="2"/>
      <path id="パス_811" data-name="パス 811" d="M534.989,4135.994H527.57l-7.161-5.728s.1-3.261.13-6.266H512v22.82l8,8.492v-8.323h4.53l10.463-7.853Z" transform="translate(-0.058 -0.204)" fill="#03a8e5" stroke="#fff" stroke-miterlimit="10" stroke-width="2"/>
      <path id="パス_812" data-name="パス 812" d="M524.994,4171.546l-12.516,15.441h11.013l4.429,14.571,21.951-28.4L542.15,4159H524.994Z" transform="translate(-0.058 -0.221)" fill="#03a8e5" stroke="#fff" stroke-miterlimit="10" stroke-width="2"/>
      <path id="パス_813" data-name="パス 813" d="M557.981,4134.012V4117H542.745l-6.1,7H519.831c-.035,3.006-.142,6.266-.142,6.266l7.822,5.728h7.481v3.187L524,4147.137v11.842h17.768l.332-13.012Z" transform="translate(-0.062 -0.2)" fill="#03a8e5" stroke="#fff" stroke-miterlimit="10" stroke-width="2"/>
      <path id="パス_814" data-name="パス 814" d="M527.307,4201.815,522.8,4187H511.627L501,4200.109v33.868h8v-13.993h4v26.987h6.542l15.527-19.646Z" transform="translate(-0.053 -0.235)" fill="#03a8e5" stroke="#fff" stroke-miterlimit="10" stroke-width="2"/>
      <path id="パス_815" data-name="パス 815" d="M571.858,4137H557.992v-3.4l-15.252,11.984-.318,13.045,7.676,14.348h26.885l.2-31.852Z" transform="translate(-0.073 -0.208)" fill="#03a8e5" stroke="#fff" stroke-miterlimit="10" stroke-width="2"/>
      <path id="パス_816" data-name="パス 816" d="M527.444,4201.725l7.714,25.375,41.817-52.906.007-1.194H549.643Z" transform="translate(-0.066 -0.228)" fill="#03a8e5" stroke="#fff" stroke-miterlimit="10" stroke-width="2"/>
      <path id="パス_817" data-name="パス 817" d="M394.216,4240.771l-.323,8.134,5.2,2.277,31.884-31.234v-6.506l-7.158-1.953Z" transform="translate(0 -0.247)" fill="#03a8e5" stroke="#fff" stroke-miterlimit="10" stroke-width="2"/>
      <path id="パス_818" data-name="パス 818" d="M812.983,4133.99v-19.771l-10.373,12.965-24.637,30.794,35.334-.162,4.417-11.519.12-.314h4.134v21.99h7.754l6.239-5.539V4133.99Z" transform="translate(-0.189 -0.199)" fill="#03a8e5" stroke="#fff" stroke-miterlimit="10" stroke-width="2"/>
    </g>
    <path id="パス_1180" data-name="パス 1180" d="M33.712-22.246V-9.114a33.361,33.361,0,0,1-.294,5.243H39.3A32.515,32.515,0,0,1,39-9.114V-22.246h2.842c1.813,0,3.332.1,4.851.245v-5.537a36.4,36.4,0,0,1-5.047.245H25.431v-5.145a81.151,81.151,0,0,0,19.992-4.018l-4.018-4.655a15.867,15.867,0,0,1-4.018,1.568,76.575,76.575,0,0,1-15.827,2.5c-.294,0-.392,0-1.519-.049.147,1.47.245,3.479.245,7.056,0,12.495-1.078,17.64-4.606,22a25.8,25.8,0,0,1,4.214,3.969c3.577-4.851,5-9.555,5.39-18.179ZM2.94-36.652a49.278,49.278,0,0,1,8.428,9.261l4.067-3.92a58.551,58.551,0,0,0-8.526-8.967ZM2.3-16.807a19.63,19.63,0,0,1,3.381-.245H8.967v10a33.494,33.494,0,0,1-6.615,4.7,3.147,3.147,0,0,0-.784.343l2.4,5.733A4.047,4.047,0,0,1,4.9,3.038,57.658,57.658,0,0,0,11.564-2.5c3.969,4.508,7.5,5.586,18.571,5.586,3.626,0,12.74-.2,16.562-.392a22.631,22.631,0,0,1,1.47-5.684,150.059,150.059,0,0,1-18.13.882c-7.4,0-10.143-.343-12.1-1.47a9.169,9.169,0,0,1-3.871-3.577V-17a50.99,50.99,0,0,1,.2-5.39,22.283,22.283,0,0,1-3.724.245H6.223a22.589,22.589,0,0,1-3.92-.245Zm91.777-2.94a16.522,16.522,0,0,0-2.205-3.087l-3.822,1.421a11.629,11.629,0,0,1,1.274,1.666H82.908c-.539-2.3-.882-4.018-1.176-6.125-.441-3.038-.98-9.261-.98-11.662A24.942,24.942,0,0,1,81-40.915H75.215a36.929,36.929,0,0,1,.441,4.312c.49,8.134.931,11.858,2.107,16.856H61.887a34.277,34.277,0,0,1-5.635-.294v4.753a40.843,40.843,0,0,1,5.635-.294H78.841A34.849,34.849,0,0,0,83.5-5.194a36.325,36.325,0,0,1-4.459,3.136v-7.5c0-2.4,0-2.989.1-4.116a38.07,38.07,0,0,1-4.165.147H62.818a37.583,37.583,0,0,1-4.312-.2,27.151,27.151,0,0,1,.2,3.871V-.49a25.386,25.386,0,0,1-.245,3.969H63.21V1.029H75.8a13.291,13.291,0,0,1,1.96,3.136,44.9,44.9,0,0,0,8.428-5.586c3.332,3.822,6.223,5.488,9.555,5.488a4.09,4.09,0,0,0,4.018-2.891c.686-1.421.882-2.548,1.421-6.272a16.977,16.977,0,0,1-4.508-3.038c-.049,4.9-.441,6.615-1.519,6.615-1.274,0-3.136-1.274-5.243-3.577A43.129,43.129,0,0,0,93.2-9.065c1.715-2.352,1.715-2.352,1.911-2.646.539-.686.539-.686.833-1.078l-4.361-2.5A23.013,23.013,0,0,1,87.22-8.771a40.011,40.011,0,0,1-3.136-6.811H94.913a47.871,47.871,0,0,1,5.831.294v-4.753a37.7,37.7,0,0,1-5.586.294ZM63.21-10h3.773v2.058H63.21Zm0,5.194h3.773V-2.6H63.21ZM70.854-10h3.871v2.058H70.854Zm0,5.194h3.871V-2.6H70.854ZM83.349-22.393c1.078-.1,1.323-.147,1.911-.147,6.762-.49,9.065-.637,11.123-.882.1.343.1.343.245.833.2.784.2.784.392,1.421l3.822-1.617a43.288,43.288,0,0,0-3.626-8.232L93.688-29.6a15.389,15.389,0,0,1,1.421,2.842c-1.666.147-1.666.147-4.8.245a85.26,85.26,0,0,0,6.517-7.154A11.254,11.254,0,0,1,97.9-34.986l-3.92-2.352a33.963,33.963,0,0,1-4.018,5.684c-.784-1.078-1.029-1.323-1.519-1.96a43.425,43.425,0,0,0,3.724-4.557c.392-.49.539-.686.98-1.176l-4.018-1.715A19.649,19.649,0,0,1,85.9-36.407l-1.372-1.421-2.842,3.185a34.469,34.469,0,0,1,5.586,5.929,24.89,24.89,0,0,1-2.3,2.3c-1.568,0-1.617,0-2.4-.049ZM57.428-21.315c.931-.147,1.715-.245,2.4-.294a126,126,0,0,0,12.593-1.274c.392,1.274.588,2.009.686,2.3l3.528-1.568a36.9,36.9,0,0,0-3.577-8.134l-3.332,1.47A14.619,14.619,0,0,1,71.1-26.46c-1.519.245-1.862.245-4.851.539a105.946,105.946,0,0,0,8.183-9.065l-4.018-2.352a28.286,28.286,0,0,1-4.459,6.125c-.882-1.029-1.029-1.176-1.764-2.009a37.261,37.261,0,0,0,4.116-5.39l.637-.882L64.729-41.16a15.162,15.162,0,0,1-3.283,5.194c-.588-.49-.833-.735-1.666-1.47l-2.6,3.479a33.137,33.137,0,0,1,5.978,5.733c-.931,1.029-.931,1.029-2.5,2.548-1.862.049-1.862.049-2.156.049-.637,0-1.078-.049-1.764-.1Zm71.3-11.368v7.154h7.154v-7.154Zm0,20.972v7.154h7.154v-7.154ZM182.264,0V-10.282H162.573v-9.312l14.259-49.47h10.476l-14.841,49.47h9.8V-39.285h9.894v19.691h4.753v9.312h-4.753V0Zm30.749,0,17.363-59.752H219.512V-51.8h-8.73V-69.064H240.27v9.894L223.489,0Zm48.1.147,2.5,1.96,30.87-39.494-2.548-1.96Zm28.224,1.47a9.019,9.019,0,0,0,6.615-2.5c1.862-1.813,2.842-4.753,2.842-8.477,0-3.675-.98-6.615-2.842-8.428a9.14,9.14,0,0,0-6.615-2.5,9.341,9.341,0,0,0-6.664,2.5c-1.862,1.862-2.842,4.753-2.842,8.428,0,3.724.98,6.664,2.842,8.477A9.058,9.058,0,0,0,289.332,1.617Zm0-17.738a3.529,3.529,0,0,1,3.136,1.519,8.651,8.651,0,0,1,1.323,4.9c0,4.753-1.519,7.2-4.459,7.2-2.891,0-4.459-2.45-4.459-6.958a8.521,8.521,0,0,1,1.323-5.1A3.411,3.411,0,0,1,289.332-16.121Zm-23.079-.833a9.019,9.019,0,0,0,6.615-2.5c1.862-1.813,2.842-4.753,2.842-8.477,0-3.675-.98-6.615-2.842-8.428a9.14,9.14,0,0,0-6.615-2.5c-5.978,0-9.506,4.067-9.506,10.927,0,3.675.98,6.664,2.842,8.477A9.058,9.058,0,0,0,266.253-16.954Zm0-17.738a3.771,3.771,0,0,1,3.577,2.205,10.757,10.757,0,0,1,.882,4.557c0,4.41-1.617,6.86-4.459,6.86-2.891,0-4.459-2.45-4.459-6.958C261.794-32.291,263.411-34.692,266.253-34.692Z" transform="translate(369 4959)" fill="#0052aa"/>
    <path id="パス_1181" data-name="パス 1181" d="M28.044-7.011a18.836,18.836,0,0,1,3.321.205v-3.772a17.255,17.255,0,0,1-3.28.2H22.1c.082-.861.123-1.6.164-2.5h5.494a18.237,18.237,0,0,1,2.911.164v-3.567a19.147,19.147,0,0,1-2.952.164H26.322a32.658,32.658,0,0,0,1.722-2.993l-3.977-.779a18.078,18.078,0,0,1-1.8,3.772H18.9a32.68,32.68,0,0,0-2.337-3.772l-3.772.943A19.723,19.723,0,0,1,14.8-16.113H13.407a18,18,0,0,1-2.87-.164v3.567a19.148,19.148,0,0,1,2.952-.164h4.756c-.041,1.23-.041,1.6-.123,2.5H13.038a17.52,17.52,0,0,1-3.28-.2v3.772a22.917,22.917,0,0,1,3.567-.205h4.018a8.351,8.351,0,0,1-3.157,3.526A17.042,17.042,0,0,1,8.9-1.517a12.135,12.135,0,0,1,2.3,3.567c4.879-1.6,7.462-3.485,9.266-6.765A19.121,19.121,0,0,0,28.495.861c.2-.615.246-.82.451-1.353a12.794,12.794,0,0,1,.7,3.362c1.066.041,1.558.041,2.378.041,4.879,0,5.822-.738,5.822-4.592V-28.9a37,37,0,0,1,.205-4.551,37.238,37.238,0,0,1-4.223.164H25.871a35.525,35.525,0,0,1-4.182-.164c.082,1.189.123,2.255.123,3.813v5.822c0,1.8-.041,2.665-.123,3.69,1.066-.082,2.337-.123,3.772-.123h8.077v18.04c0,.9-.246,1.107-1.271,1.107a18.29,18.29,0,0,1-2.952-.246,14.005,14.005,0,0,1,.9-1.722c-3.526-.943-5.33-1.886-7.3-3.936ZM25.871-30.217h7.667v2.009H25.871Zm0,4.8h7.667v2.009H25.871Zm-18.2,5.166h7.5c1.517,0,2.706.041,3.813.123-.082-.9-.123-1.845-.123-3.69v-5.822c0-1.6.041-2.665.123-3.813a34.642,34.642,0,0,1-4.182.164H7.38A36.428,36.428,0,0,1,3.2-33.456a45.455,45.455,0,0,1,.164,4.592V-1.845a36.653,36.653,0,0,1-.246,5.084h4.8a35.4,35.4,0,0,1-.246-4.961Zm0-9.963h7.175v2.009H7.667Zm0,4.8h7.175v2.009H7.667Zm55.514-1.394v2.3H55.1a28.742,28.742,0,0,1-4.469-.2A39.133,39.133,0,0,1,50.8-20.5v7.544c-.041,2.829-.041,2.829-.041,2.993a5.342,5.342,0,0,0-.123,1.189,31.269,31.269,0,0,1,4.633-.2H59.7a24.336,24.336,0,0,1-5.863,4.223,34.329,34.329,0,0,1-7.708,3.034,17.521,17.521,0,0,1,2.3,4.141A42.542,42.542,0,0,0,55.432-.738a26.7,26.7,0,0,0,7.831-6.478c-.041.779-.082,2.3-.082,2.788v2.952A32.874,32.874,0,0,1,62.894,3.2h5.043a25.112,25.112,0,0,1-.287-4.674V-4.428c0-.7-.041-1.476-.082-2.829a26.581,26.581,0,0,0,7.175,5.9,42.93,42.93,0,0,0,8.4,3.731,27.1,27.1,0,0,1,2.337-4.346C79.253-3.4,74.907-5.535,71.258-8.979h4.92a32.369,32.369,0,0,1,4.592.2,32.312,32.312,0,0,1-.164-4.182v-7.585c0-1.558.041-2.911.164-4.141a39.693,39.693,0,0,1-4.551.164H67.65v-2.3H79.13a43.806,43.806,0,0,1,5.084.246v-4.51a34.35,34.35,0,0,1-5.371.287H67.65a20.365,20.365,0,0,1,.246-3.69h-5a23.68,23.68,0,0,1,.287,3.69H52.357a36.094,36.094,0,0,1-5.248-.287v4.51a35.059,35.059,0,0,1,4.961-.246Zm0,5.822v2.5H55.145v-2.5Zm4.469,0h8.61v2.5H67.65Zm-4.469,5.9v2.583H55.145v-2.583Zm4.469,0h8.61v2.583H67.65Zm40.057-12.259v5.986h5.986v-5.986Zm0,17.548v5.986h5.986V-9.8ZM138.088,0V-7.872l15.088-28.454a10.389,10.389,0,0,0,1.312-3.731q.164-1.6.164-3.977,0-1.066-.041-2.255a5.472,5.472,0,0,0-.451-2.091,3.882,3.882,0,0,0-1.23-1.517,3.916,3.916,0,0,0-2.378-.615,4.133,4.133,0,0,0-2.993,1.066,4.129,4.129,0,0,0-1.107,3.116v4.756h-8.364v-4.592a12.357,12.357,0,0,1,.984-4.92,12.7,12.7,0,0,1,2.706-4.018,12.28,12.28,0,0,1,3.936-2.747,11.931,11.931,0,0,1,4.92-1.025,12.261,12.261,0,0,1,5.617,1.189,11.205,11.205,0,0,1,3.895,3.239,14.121,14.121,0,0,1,2.173,4.674,21.642,21.642,0,0,1,.7,5.576q0,2.132-.082,3.567a21.584,21.584,0,0,1-.328,2.747,12.106,12.106,0,0,1-.82,2.624q-.574,1.312-1.558,3.2l-12.3,23.7h15.088V0Zm55.268-46.412a3.893,3.893,0,0,0-1.23-2.911,4,4,0,0,0-2.87-1.189,4,4,0,0,0-2.87,1.189,3.893,3.893,0,0,0-1.23,2.911v8.528a3.893,3.893,0,0,0,1.23,2.911,4,4,0,0,0,2.87,1.189,4,4,0,0,0,2.87-1.189,3.893,3.893,0,0,0,1.23-2.911Zm-16.564,3.28q0-2.378.164-4.059a13.377,13.377,0,0,1,.574-2.911,13.824,13.824,0,0,1,.943-2.214,15.511,15.511,0,0,1,1.353-2.05,11.3,11.3,0,0,1,4.1-3.321,12.086,12.086,0,0,1,5.33-1.189,12.086,12.086,0,0,1,5.33,1.189,11.3,11.3,0,0,1,4.1,3.321,19.521,19.521,0,0,1,1.394,2.05,11.77,11.77,0,0,1,.984,2.214,12.039,12.039,0,0,1,.533,2.911q.123,1.681.123,4.059,0,2.624-.082,4.428a13.551,13.551,0,0,1-.492,3.2,7.462,7.462,0,0,1-1.271,2.5,15.646,15.646,0,0,1-2.337,2.337,12.45,12.45,0,0,1,2.337,2.3,7.738,7.738,0,0,1,1.271,2.706,17.756,17.756,0,0,1,.492,3.813q.082,2.255.082,5.535,0,2.706-.123,4.469a27.16,27.16,0,0,1-.369,3.075,8.452,8.452,0,0,1-.7,2.214,17.666,17.666,0,0,1-1.107,1.886,11.832,11.832,0,0,1-3.936,3.649A11.963,11.963,0,0,1,189.256.492a11.963,11.963,0,0,1-6.232-1.517,11.832,11.832,0,0,1-3.936-3.649,17.663,17.663,0,0,1-1.107-1.886,8.451,8.451,0,0,1-.7-2.214,27.16,27.16,0,0,1-.369-3.075q-.123-1.763-.123-4.469,0-3.28.082-5.535a17.756,17.756,0,0,1,.492-3.813,7.738,7.738,0,0,1,1.271-2.706,12.45,12.45,0,0,1,2.337-2.3,15.646,15.646,0,0,1-2.337-2.337,7.462,7.462,0,0,1-1.271-2.5,13.551,13.551,0,0,1-.492-3.2Q176.792-40.508,176.792-43.132Zm16.564,19.68a3.893,3.893,0,0,0-1.23-2.911,4,4,0,0,0-2.87-1.189,4,4,0,0,0-2.87,1.189,3.893,3.893,0,0,0-1.23,2.911v11.48a3.893,3.893,0,0,0,1.23,2.911,4,4,0,0,0,2.87,1.189,4,4,0,0,0,2.87-1.189,3.893,3.893,0,0,0,1.23-2.911ZM219.268.123l2.091,1.64,25.83-33.046-2.132-1.64Zm23.616,1.23a7.547,7.547,0,0,0,5.535-2.091c1.558-1.517,2.378-3.977,2.378-7.093,0-3.075-.82-5.535-2.378-7.052a7.647,7.647,0,0,0-5.535-2.091,7.816,7.816,0,0,0-5.576,2.091c-1.558,1.558-2.378,3.977-2.378,7.052,0,3.116.82,5.576,2.378,7.093A7.579,7.579,0,0,0,242.884,1.353Zm0-14.842a2.953,2.953,0,0,1,2.624,1.271,7.239,7.239,0,0,1,1.107,4.1c0,3.977-1.271,6.027-3.731,6.027-2.419,0-3.731-2.05-3.731-5.822a7.13,7.13,0,0,1,1.107-4.264A2.854,2.854,0,0,1,242.884-13.489Zm-19.311-.7a7.547,7.547,0,0,0,5.535-2.091c1.558-1.517,2.378-3.977,2.378-7.093,0-3.075-.82-5.535-2.378-7.052a7.647,7.647,0,0,0-5.535-2.091c-5,0-7.954,3.4-7.954,9.143,0,3.075.82,5.576,2.378,7.093A7.579,7.579,0,0,0,223.573-14.186Zm0-14.842a3.155,3.155,0,0,1,2.993,1.845,9,9,0,0,1,.738,3.813c0,3.69-1.353,5.74-3.731,5.74-2.419,0-3.731-2.05-3.731-5.822C219.842-27.019,221.195-29.028,223.573-29.028Z" transform="translate(720 4956)" fill="#0052aa"/>
    <path id="パス_1182" data-name="パス 1182" d="M10.925-16.8H4.35a19.262,19.262,0,0,1-2.25-.1,19.571,19.571,0,0,1,.1,2.175v7.65a18.736,18.736,0,0,1-.125,2.5h2.95v-1.5h5.9V-1a20.96,20.96,0,0,1-.175,3.1h3.2A19.666,19.666,0,0,1,13.775-1V-6.075h6.2v1.5h2.95a17.206,17.206,0,0,1-.125-2.5V-14.7a18.354,18.354,0,0,1,.1-2.2,17.879,17.879,0,0,1-2.275.1h-6.85v-1.625a18.33,18.33,0,0,1,.15-2.625h-3.15a16.208,16.208,0,0,1,.15,2.725Zm0,2.65v5.425h-5.9V-14.15Zm2.85,5.425V-14.15h6.2v5.425Zm22.95-9.85v-.7a11.214,11.214,0,0,1,.125-1.75H33.875a8.774,8.774,0,0,1,.15,1.75v.7h-2.55A13.515,13.515,0,0,1,29.1-18.7V-16a11.281,11.281,0,0,1,2.05-.125h8a10.743,10.743,0,0,1,2.1.125v-2.7a13.084,13.084,0,0,1-2.275.125Zm1.85,6.75A22.013,22.013,0,0,0,39.9-15.25l-2.575-.65a20.385,20.385,0,0,1-1.3,4.075H31.1a15.96,15.96,0,0,1-2.525-.125V-9.2a16.387,16.387,0,0,1,2.5-.125H39.45a11.659,11.659,0,0,1,2.025.125v-2.75a11.019,11.019,0,0,1-2.15.125Zm-7.85-3.525a15.107,15.107,0,0,1,1.175,3.5l2.475-.75a16.959,16.959,0,0,0-1.3-3.5ZM32.675.525H37.55V1.95H40.3A12.555,12.555,0,0,1,40.2.075V-6a14.231,14.231,0,0,1,.075-1.85,13.5,13.5,0,0,1-1.825.075H32c-.925,0-1.425-.025-2-.075.05.575.075,1.025.075,2.05V-.375a20.3,20.3,0,0,1-.1,2.35h2.7Zm0-5.9h4.9v3.5h-4.9ZM50.5-20.425a9.616,9.616,0,0,1-1.975.125H44.2a17.045,17.045,0,0,1-2.05-.1,19.072,19.072,0,0,1,.1,2.1V-.725a23.652,23.652,0,0,1-.15,2.85h2.95A17.248,17.248,0,0,1,44.875-.8V-17.825H48.35a27.579,27.579,0,0,1-2.75,6.55,10.2,10.2,0,0,1,2.6,3.25A7.4,7.4,0,0,1,49-4.8c0,.8-.4,1.075-1.65,1.075a11.174,11.174,0,0,1-1.875-.15A5.888,5.888,0,0,1,46.05-1.15a12.013,12.013,0,0,0,1.25.05,6.682,6.682,0,0,0,2.55-.325A3.034,3.034,0,0,0,51.625-4.55a9.371,9.371,0,0,0-.7-3.475,11.206,11.206,0,0,0-2.4-3.625,51.771,51.771,0,0,0,2.7-5.95,8.213,8.213,0,0,1,.5-1.1Zm15.175,3.75v3.65h3.65v-3.65Zm0,10.7v3.65h3.65v-3.65ZM90.25,0V-30.2l-5.1,3.75v-5.4l5.1-3.75h5.1V0ZM107.8-28.25a7.776,7.776,0,0,1,.625-3.2,7.487,7.487,0,0,1,1.675-2.4,7.206,7.206,0,0,1,2.425-1.525A7.992,7.992,0,0,1,115.4-35.9a7.992,7.992,0,0,1,2.875.525A7.206,7.206,0,0,1,120.7-33.85a7.487,7.487,0,0,1,1.675,2.4,7.776,7.776,0,0,1,.625,3.2v20.9a7.776,7.776,0,0,1-.625,3.2,7.487,7.487,0,0,1-1.675,2.4,7.206,7.206,0,0,1-2.425,1.525A7.992,7.992,0,0,1,115.4.3a7.992,7.992,0,0,1-2.875-.525A7.206,7.206,0,0,1,110.1-1.75a7.487,7.487,0,0,1-1.675-2.4,7.776,7.776,0,0,1-.625-3.2Zm5.1,20.9a2.522,2.522,0,0,0,.7,1.825,2.392,2.392,0,0,0,1.8.725,2.392,2.392,0,0,0,1.8-.725,2.522,2.522,0,0,0,.7-1.825v-20.9a2.522,2.522,0,0,0-.7-1.825,2.392,2.392,0,0,0-1.8-.725,2.392,2.392,0,0,0-1.8.725,2.522,2.522,0,0,0-.7,1.825ZM133.7.075l1.275,1,15.75-20.15-1.3-1Zm14.4.75A4.6,4.6,0,0,0,151.475-.45a5.9,5.9,0,0,0,1.45-4.325,5.877,5.877,0,0,0-1.45-4.3A4.663,4.663,0,0,0,148.1-10.35a4.766,4.766,0,0,0-3.4,1.275,5.917,5.917,0,0,0-1.45,4.3A5.9,5.9,0,0,0,144.7-.45,4.621,4.621,0,0,0,148.1.825Zm0-9.05a1.8,1.8,0,0,1,1.6.775,4.414,4.414,0,0,1,.675,2.5c0,2.425-.775,3.675-2.275,3.675-1.475,0-2.275-1.25-2.275-3.55a4.347,4.347,0,0,1,.675-2.6A1.74,1.74,0,0,1,148.1-8.225ZM136.325-8.65A4.6,4.6,0,0,0,139.7-9.925a5.9,5.9,0,0,0,1.45-4.325,5.877,5.877,0,0,0-1.45-4.3,4.663,4.663,0,0,0-3.375-1.275c-3.05,0-4.85,2.075-4.85,5.575a5.941,5.941,0,0,0,1.45,4.325A4.621,4.621,0,0,0,136.325-8.65Zm0-9.05a1.924,1.924,0,0,1,1.825,1.125,5.488,5.488,0,0,1,.45,2.325c0,2.25-.825,3.5-2.275,3.5-1.475,0-2.275-1.25-2.275-3.55C134.05-16.475,134.875-17.7,136.325-17.7Z" transform="translate(369 5060)" fill="#0052aa"/>
    <path id="パス_1187" data-name="パス 1187" d="M1.85-1.625A17.624,17.624,0,0,1,1.7,1.3H4.625V-.075H20.4V1.3h2.9a16.777,16.777,0,0,1-.15-2.875V-16.6a25.46,25.46,0,0,1,.15-3,25.682,25.682,0,0,1-2.95.125H4.65A23.645,23.645,0,0,1,1.7-19.6a29.89,29.89,0,0,1,.15,3.025Zm2.775-5.2A7.552,7.552,0,0,1,6.375-4.85a10.7,10.7,0,0,0,4.375-7.7,31.935,31.935,0,0,0,.25-4.4h2.475v8.6c0,1.75.475,2.15,2.65,2.15C18-6.2,18.8-6.4,19.3-7c.475-.575.6-1.375.75-4.25a8.551,8.551,0,0,1-2.35-.9,15.352,15.352,0,0,1-.2,3.1c-.075.225-.35.35-.775.35-.525,0-.575-.05-.575-.575V-16.95h4.225v14.3H4.625Zm0-10.125h3.75c0,5.4-.95,7.9-3.75,9.8Zm33.85,3.175v2.6h-2.15a11.67,11.67,0,0,1-2.15-.125v2.475a12.179,12.179,0,0,1,2.15-.125h2.15v3.175h-3a12.425,12.425,0,0,1-2.375-.15v2.6a14.8,14.8,0,0,1,2.375-.125h9.05a16.03,16.03,0,0,1,2.35.125v-2.6a12.823,12.823,0,0,1-2.45.15l1.35-.75A12.241,12.241,0,0,0,44.2-8.95a10.144,10.144,0,0,1,1.6.125V-11.3a11.5,11.5,0,0,1-2.15.125H41.075v-2.6H44.25a14.486,14.486,0,0,1,2.325.125v-2.525a13.927,13.927,0,0,1-2.325.125h-8.5a13.623,13.623,0,0,1-2.275-.125v2.525a13.992,13.992,0,0,1,2.275-.125Zm2.6,4.825h2.45L42.2-8.275a10.979,10.979,0,0,1,1.575,2.5h-2.7ZM29.3-1.225a23.67,23.67,0,0,1-.15,3.25H32V.6H47.975V2.025h2.85a20.17,20.17,0,0,1-.15-3.225V-17.25a25.76,25.76,0,0,1,.15-3,25.682,25.682,0,0,1-2.95.125H32.1a23.4,23.4,0,0,1-2.95-.125,29.889,29.889,0,0,1,.15,3.025ZM32-17.7H47.975V-1.825H32Zm33.675,1.025v3.65h3.65v-3.65Zm0,10.7v3.65h3.65v-3.65ZM84.2,0V-4.8l9.2-17.35a6.335,6.335,0,0,0,.8-2.275q.1-.975.1-2.425,0-.65-.025-1.375A3.337,3.337,0,0,0,94-29.5a2.367,2.367,0,0,0-.75-.925A2.388,2.388,0,0,0,91.8-30.8a2.52,2.52,0,0,0-1.825.65,2.518,2.518,0,0,0-.675,1.9v2.9H84.2v-2.8a7.535,7.535,0,0,1,.6-3,7.741,7.741,0,0,1,1.65-2.45,7.488,7.488,0,0,1,2.4-1.675,7.275,7.275,0,0,1,3-.625,7.477,7.477,0,0,1,3.425.725A6.832,6.832,0,0,1,97.65-33.2a8.61,8.61,0,0,1,1.325,2.85,13.2,13.2,0,0,1,.425,3.4q0,1.3-.05,2.175a13.161,13.161,0,0,1-.2,1.675,7.382,7.382,0,0,1-.5,1.6q-.35.8-.95,1.95L90.2-5.1h9.2V0Zm25.9.075,1.275,1,15.75-20.15-1.3-1Zm14.4.75A4.6,4.6,0,0,0,127.875-.45a5.9,5.9,0,0,0,1.45-4.325,5.877,5.877,0,0,0-1.45-4.3A4.663,4.663,0,0,0,124.5-10.35a4.766,4.766,0,0,0-3.4,1.275,5.917,5.917,0,0,0-1.45,4.3A5.9,5.9,0,0,0,121.1-.45,4.621,4.621,0,0,0,124.5.825Zm0-9.05a1.8,1.8,0,0,1,1.6.775,4.414,4.414,0,0,1,.675,2.5c0,2.425-.775,3.675-2.275,3.675-1.475,0-2.275-1.25-2.275-3.55a4.347,4.347,0,0,1,.675-2.6A1.74,1.74,0,0,1,124.5-8.225ZM112.725-8.65A4.6,4.6,0,0,0,116.1-9.925a5.9,5.9,0,0,0,1.45-4.325,5.877,5.877,0,0,0-1.45-4.3,4.663,4.663,0,0,0-3.375-1.275c-3.05,0-4.85,2.075-4.85,5.575a5.941,5.941,0,0,0,1.45,4.325A4.621,4.621,0,0,0,112.725-8.65Zm0-9.05a1.924,1.924,0,0,1,1.825,1.125A5.488,5.488,0,0,1,115-14.25c0,2.25-.825,3.5-2.275,3.5-1.475,0-2.275-1.25-2.275-3.55C110.45-16.475,111.275-17.7,112.725-17.7Z" transform="translate(721 5170)" fill="#0052aa"/>
    <path id="パス_1186" data-name="パス 1186" d="M10.925-16.8H4.35a19.262,19.262,0,0,1-2.25-.1,19.571,19.571,0,0,1,.1,2.175v7.65a18.736,18.736,0,0,1-.125,2.5h2.95v-1.5h5.9V-1a20.96,20.96,0,0,1-.175,3.1h3.2A19.666,19.666,0,0,1,13.775-1V-6.075h6.2v1.5h2.95a17.206,17.206,0,0,1-.125-2.5V-14.7a18.354,18.354,0,0,1,.1-2.2,17.879,17.879,0,0,1-2.275.1h-6.85v-1.625a18.33,18.33,0,0,1,.15-2.625h-3.15a16.208,16.208,0,0,1,.15,2.725Zm0,2.65v5.425h-5.9V-14.15Zm2.85,5.425V-14.15h6.2v5.425Zm24.7-5.05v2.6h-2.15a11.67,11.67,0,0,1-2.15-.125v2.475a12.179,12.179,0,0,1,2.15-.125h2.15v3.175h-3a12.425,12.425,0,0,1-2.375-.15v2.6a14.8,14.8,0,0,1,2.375-.125h9.05a16.03,16.03,0,0,1,2.35.125v-2.6a12.823,12.823,0,0,1-2.45.15l1.35-.75A12.241,12.241,0,0,0,44.2-8.95a10.144,10.144,0,0,1,1.6.125V-11.3a11.5,11.5,0,0,1-2.15.125H41.075v-2.6H44.25a14.486,14.486,0,0,1,2.325.125v-2.525a13.927,13.927,0,0,1-2.325.125h-8.5a13.623,13.623,0,0,1-2.275-.125v2.525a13.992,13.992,0,0,1,2.275-.125Zm2.6,4.825h2.45L42.2-8.275a10.979,10.979,0,0,1,1.575,2.5h-2.7ZM29.3-1.225a23.67,23.67,0,0,1-.15,3.25H32V.6H47.975V2.025h2.85a20.17,20.17,0,0,1-.15-3.225V-17.25a25.76,25.76,0,0,1,.15-3,25.682,25.682,0,0,1-2.95.125H32.1a23.4,23.4,0,0,1-2.95-.125,29.889,29.889,0,0,1,.15,3.025ZM32-17.7H47.975V-1.825H32Zm33.675,1.025v3.65h3.65v-3.65Zm0,10.7v3.65h3.65v-3.65ZM84.2,0V-4.8l9.2-17.35a6.335,6.335,0,0,0,.8-2.275q.1-.975.1-2.425,0-.65-.025-1.375A3.337,3.337,0,0,0,94-29.5a2.367,2.367,0,0,0-.75-.925A2.388,2.388,0,0,0,91.8-30.8a2.52,2.52,0,0,0-1.825.65,2.518,2.518,0,0,0-.675,1.9v2.9H84.2v-2.8a7.535,7.535,0,0,1,.6-3,7.741,7.741,0,0,1,1.65-2.45,7.488,7.488,0,0,1,2.4-1.675,7.275,7.275,0,0,1,3-.625,7.477,7.477,0,0,1,3.425.725A6.832,6.832,0,0,1,97.65-33.2a8.61,8.61,0,0,1,1.325,2.85,13.2,13.2,0,0,1,.425,3.4q0,1.3-.05,2.175a13.161,13.161,0,0,1-.2,1.675,7.382,7.382,0,0,1-.5,1.6q-.35.8-.95,1.95L90.2-5.1h9.2V0Zm25.9.075,1.275,1,15.75-20.15-1.3-1Zm14.4.75A4.6,4.6,0,0,0,127.875-.45a5.9,5.9,0,0,0,1.45-4.325,5.877,5.877,0,0,0-1.45-4.3A4.663,4.663,0,0,0,124.5-10.35a4.766,4.766,0,0,0-3.4,1.275,5.917,5.917,0,0,0-1.45,4.3A5.9,5.9,0,0,0,121.1-.45,4.621,4.621,0,0,0,124.5.825Zm0-9.05a1.8,1.8,0,0,1,1.6.775,4.414,4.414,0,0,1,.675,2.5c0,2.425-.775,3.675-2.275,3.675-1.475,0-2.275-1.25-2.275-3.55a4.347,4.347,0,0,1,.675-2.6A1.74,1.74,0,0,1,124.5-8.225ZM112.725-8.65A4.6,4.6,0,0,0,116.1-9.925a5.9,5.9,0,0,0,1.45-4.325,5.877,5.877,0,0,0-1.45-4.3,4.663,4.663,0,0,0-3.375-1.275c-3.05,0-4.85,2.075-4.85,5.575a5.941,5.941,0,0,0,1.45,4.325A4.621,4.621,0,0,0,112.725-8.65Zm0-9.05a1.924,1.924,0,0,1,1.825,1.125A5.488,5.488,0,0,1,115-14.25c0,2.25-.825,3.5-2.275,3.5-1.475,0-2.275-1.25-2.275-3.55C110.45-16.475,111.275-17.7,112.725-17.7Z" transform="translate(552 5170)" fill="#0052aa"/>
    <path id="パス_1185" data-name="パス 1185" d="M7.65-12.525V-6.6A41.019,41.019,0,0,1,3.1-4.525a10.164,10.164,0,0,1-2.125.65L1.9-.9c.25-.125.675-.325,1.1-.5,1.775-.8,3.15-1.45,4.65-2.3v2.65A23.374,23.374,0,0,1,7.5,1.975h3.125a18.472,18.472,0,0,1-.15-3V-17.9a17.331,17.331,0,0,1,.15-2.85H7.5a21.185,21.185,0,0,1,.15,2.85v2.75H3.9a11.114,11.114,0,0,1-2.35-.15v2.925a11.99,11.99,0,0,1,2.35-.15Zm8.7,2.65c1.775-.975,1.775-.975,2.8-1.6,1.15-.725,3.25-2.175,3.975-2.75.4-.325.55-.45.8-.625L21.95-17.2a22.908,22.908,0,0,1-5.6,4.275v-4.95a18.224,18.224,0,0,1,.15-2.875H13.425a20.346,20.346,0,0,1,.15,2.875v16.6c0,1.175.3,1.825,1.05,2.175.65.325,1.4.4,3.625.4a19.827,19.827,0,0,0,2.55-.1A3.727,3.727,0,0,0,22.625.475c.85-.75,1.3-2.575,1.45-5.95a13.588,13.588,0,0,1-2.65-1.1,14.891,14.891,0,0,1-.45,4.6c-.3.575-.85.725-2.6.725-1.7,0-2.025-.125-2.025-.75ZM39.8-18.8c.3-.65.3-.65.85-1.95l-2.875-.5a11.173,11.173,0,0,1-1.4,3.55,13.631,13.631,0,0,1-3.2,3.8,7.549,7.549,0,0,1,1.875,2.025A16.762,16.762,0,0,0,36.575-13.5,35.891,35.891,0,0,1,36.3-9.6h-.275A14.871,14.871,0,0,1,33.7-9.725v2.65A11.989,11.989,0,0,1,35.65-7.2h.375a39.751,39.751,0,0,1-1.65,7.175l2.8.275c.225-.925.275-1.175.45-1.975h8.45C45.8-.6,45.675-.5,44.75-.5a14.078,14.078,0,0,1-2.525-.25,6.24,6.24,0,0,1,.525,2.575c1.55.1,1.85.125,2.25.125,2.625,0,3.2-.575,3.725-3.675H49a13.6,13.6,0,0,1,1.9.1V-4.25a8.674,8.674,0,0,1-1.875.125c.1-.975.15-1.775.25-3.075h.25a15.018,15.018,0,0,1,2.1.125v-2.65A12.269,12.269,0,0,1,49.4-9.6c.075-2.275.125-3.5.125-3.675.05-.75.075-1.05.125-1.4-.675.05-1.425.075-2.625.075h-9.65c.425-.6.725-1.1,1.15-1.775H47.9a30.6,30.6,0,0,1,3.275.1V-18.95a25.334,25.334,0,0,1-3.6.15ZM38.05-4.125c.325-1.75.35-2,.5-3.075h2.8c-.175,1.6-.225,1.925-.4,3.075Zm5.325,0q.225-1.65.375-3.075h3c-.075,1.025-.15,1.95-.275,3.075ZM38.8-9.6c.125-1.15.15-1.45.225-2.7h2.7c-.1,1.9-.1,1.9-.15,2.7Zm5.15,0c.05-.7.05-.7.2-2.7h2.8c-.025,1.175-.025,1.175-.075,2.7ZM29.125-18.975A18.082,18.082,0,0,1,32.9-15.55l1.925-2A23.028,23.028,0,0,0,31-20.8Zm-1.05,6.35a16.3,16.3,0,0,1,4,3.325l1.775-2.05A19.221,19.221,0,0,0,29.8-14.5ZM31.7-7.5A29.176,29.176,0,0,1,28.925-.625,2.787,2.787,0,0,1,28.45.05L30.8,2.025l.975-2.05a42.985,42.985,0,0,0,2.15-5.75ZM65.475-18.3a15.787,15.787,0,0,1-2.575-.15v2.5a21.791,21.791,0,0,1,2.5-.1h3.675a9.763,9.763,0,0,1-.6,1.275H66.6c-1.125,0-1.85-.025-2.425-.075.05.575.1,1.5.1,2.325V-5.05c0,.85-.025,1.8-.075,2.375,1-.025,1.55-.05,2.325-.05h8.7c.625,0,1.1.025,1.925.05A17.356,17.356,0,0,1,77.025-5.1v-7.4a20.5,20.5,0,0,1,.1-2.375,15.115,15.115,0,0,1-2.25.1h-3.6c.225-.425.325-.65.625-1.275h4.225c.9,0,1.7.025,2.475.1v-2.5a15.867,15.867,0,0,1-2.475.15H74.55c.375-.55.925-1.4,1.375-2.15L73.25-21.1a13.77,13.77,0,0,1-1.575,2.8h-2.2a16.551,16.551,0,0,0-1.7-2.825l-2.425.775A11.135,11.135,0,0,1,66.7-18.3Zm1.3,5.65H74.5v1.35H66.775Zm0,3.225H74.5V-8.1H66.775Zm-.025,3.2h7.7v1.35h-7.7ZM56.15-18.75a25.222,25.222,0,0,1,4.225,4.625l2.05-1.925a27.2,27.2,0,0,0-4.275-4.5Zm.075,10a9.383,9.383,0,0,1,1.7-.125h1.35v5.25A12.687,12.687,0,0,1,55.7-1.2l1.25,2.825a7.082,7.082,0,0,1,.7-.575A19.191,19.191,0,0,0,60.5-1.375,6.142,6.142,0,0,0,63.15.65c1.35.55,3.3.775,6.875.775,1.875,0,4.1-.05,8.575-.175a8.857,8.857,0,0,1,.825-2.925,72.538,72.538,0,0,1-9.3.525c-3.5,0-5.2-.2-6.525-.775a3.555,3.555,0,0,1-1.75-1.65v-5.15a18.976,18.976,0,0,1,.125-2.725,10.961,10.961,0,0,1-1.925.125H58.225a10.847,10.847,0,0,1-2-.125Zm36.95-7.925v3.65h3.65v-3.65Zm0,10.7v3.65h3.65v-3.65ZM111.7,0V-4.8l9.2-17.35a6.335,6.335,0,0,0,.8-2.275q.1-.975.1-2.425,0-.65-.025-1.375A3.337,3.337,0,0,0,121.5-29.5a2.367,2.367,0,0,0-.75-.925,2.388,2.388,0,0,0-1.45-.375,2.52,2.52,0,0,0-1.825.65,2.518,2.518,0,0,0-.675,1.9v2.9h-5.1v-2.8a7.535,7.535,0,0,1,.6-3,7.741,7.741,0,0,1,1.65-2.45,7.488,7.488,0,0,1,2.4-1.675,7.275,7.275,0,0,1,3-.625,7.477,7.477,0,0,1,3.425.725A6.832,6.832,0,0,1,125.15-33.2a8.61,8.61,0,0,1,1.325,2.85,13.2,13.2,0,0,1,.425,3.4q0,1.3-.05,2.175a13.161,13.161,0,0,1-.2,1.675,7.382,7.382,0,0,1-.5,1.6q-.35.8-.95,1.95L117.7-5.1h9.2V0Zm25.9.075,1.275,1,15.75-20.15-1.3-1Zm14.4.75A4.6,4.6,0,0,0,155.375-.45a5.9,5.9,0,0,0,1.45-4.325,5.877,5.877,0,0,0-1.45-4.3A4.663,4.663,0,0,0,152-10.35a4.766,4.766,0,0,0-3.4,1.275,5.917,5.917,0,0,0-1.45,4.3A5.9,5.9,0,0,0,148.6-.45,4.621,4.621,0,0,0,152,.825Zm0-9.05a1.8,1.8,0,0,1,1.6.775,4.414,4.414,0,0,1,.675,2.5c0,2.425-.775,3.675-2.275,3.675-1.475,0-2.275-1.25-2.275-3.55a4.347,4.347,0,0,1,.675-2.6A1.74,1.74,0,0,1,152-8.225ZM140.225-8.65A4.6,4.6,0,0,0,143.6-9.925a5.9,5.9,0,0,0,1.45-4.325,5.877,5.877,0,0,0-1.45-4.3,4.663,4.663,0,0,0-3.375-1.275c-3.05,0-4.85,2.075-4.85,5.575a5.941,5.941,0,0,0,1.45,4.325A4.621,4.621,0,0,0,140.225-8.65Zm0-9.05a1.924,1.924,0,0,1,1.825,1.125,5.488,5.488,0,0,1,.45,2.325c0,2.25-.825,3.5-2.275,3.5-1.475,0-2.275-1.25-2.275-3.55C137.95-16.475,138.775-17.7,140.225-17.7Z" transform="translate(369 5172)" fill="#0052aa"/>
    <path id="パス_1184" data-name="パス 1184" d="M15.75-12.875,15.675-.6c0,1.725.7,2.175,3.45,2.175,2.5,0,3.525-.25,4.075-.95.6-.775.875-2.3,1.125-6.025a6.993,6.993,0,0,1-2.6-1.025,19.042,19.042,0,0,1-.475,4.7c-.175.575-.5.7-1.675.7-.95,0-1.025-.05-1.025-.675l.05-11.15c.025-1.35.025-1.825.125-2.85-.9.075-1.775.125-3.075.125H11.5c.05-1.05.075-1.65.1-2.975a18.267,18.267,0,0,1,.15-2.3H8.6a21.524,21.524,0,0,1,.125,2.275c0,1.125-.025,1.7-.075,3H5.225a23.975,23.975,0,0,1-3.15-.15v3a24.5,24.5,0,0,1,3.15-.15H8.45a17.871,17.871,0,0,1-1.9,6.9A12.928,12.928,0,0,1,.775-.375,8.341,8.341,0,0,1,2.825,2.05,16.841,16.841,0,0,0,6.4-.75a15.633,15.633,0,0,0,4.2-7.8,26.029,26.029,0,0,0,.7-4.325Zm14.025-2.2a18.613,18.613,0,0,1-1.5,6.9l2.425.9a27.731,27.731,0,0,0,1.45-7.3Zm6.125.925A29.268,29.268,0,0,1,37.65-7.6l2.325-1.1A38.174,38.174,0,0,0,38-15Zm4.15-5.975a16.6,16.6,0,0,1,.15,2.875v14.4A26.133,26.133,0,0,1,40.05.375H43a25.13,25.13,0,0,1-.15-3.2v-14.45a16.275,16.275,0,0,1,.15-2.85Zm7.375-.75a24.154,24.154,0,0,1,.15,3.1v16.3a27.806,27.806,0,0,1-.15,3.375H50.35a27.246,27.246,0,0,1-.15-3.375V-17.75a25.427,25.427,0,0,1,.15-3.125ZM35.775-18a15.1,15.1,0,0,1,.15-2.85H33a22.8,22.8,0,0,1,.175,2.9v5.625a29.447,29.447,0,0,1-.35,4.375,11.663,11.663,0,0,1-1.1,3.7A11.959,11.959,0,0,1,28.75-.075a6.936,6.936,0,0,1,2.025,2.15A16.9,16.9,0,0,0,33.85-2.1c1.375-2.675,1.925-5.4,1.925-9.8Zm7.175,3.85a34.387,34.387,0,0,1,2.3,6.375L47.45-9.1a43.528,43.528,0,0,0-2.5-6.05Zm22.725-2.525v3.65h3.65v-3.65Zm0,10.7v3.65h3.65v-3.65ZM90.25-20.6a6.445,6.445,0,0,0,3.175-.55q.875-.55.875-2.55v-4.6a2.486,2.486,0,0,0-.675-1.8,2.417,2.417,0,0,0-1.825-.7,2.153,2.153,0,0,0-1.925.85A2.952,2.952,0,0,0,89.3-28.3v2.9H84.2v-2.95a7.411,7.411,0,0,1,.6-2.95,7.173,7.173,0,0,1,1.65-2.4,8.2,8.2,0,0,1,2.45-1.6,7.535,7.535,0,0,1,3-.6,6.663,6.663,0,0,1,3.475.825A8,8,0,0,1,97.45-33.4a10.924,10.924,0,0,1,.875,1.2,5.84,5.84,0,0,1,.625,1.45,19.937,19.937,0,0,1,.45,4.9q0,1.85-.075,3a6.275,6.275,0,0,1-.375,1.9,3.8,3.8,0,0,1-.975,1.35,11.564,11.564,0,0,1-1.725,1.2A9.686,9.686,0,0,1,98.075-17,4.117,4.117,0,0,1,99-15.5a7.748,7.748,0,0,1,.35,2.125q.05,1.225.05,3.125,0,1.75-.075,2.9a14.922,14.922,0,0,1-.225,1.9,5.927,5.927,0,0,1-.4,1.35,8.23,8.23,0,0,1-.65,1.15A8.079,8.079,0,0,1,95.625-.625,7.209,7.209,0,0,1,91.75.3,8.989,8.989,0,0,1,89.2-.1a6.952,6.952,0,0,1-2.45-1.3,7.058,7.058,0,0,1-1.825-2.35A7.881,7.881,0,0,1,84.2-7.3v-2.9h5.1v2.65a2.9,2.9,0,0,0,.675,1.975A2.3,2.3,0,0,0,91.8-4.8a2.3,2.3,0,0,0,1.825-.775A3.048,3.048,0,0,0,94.3-7.65v-5.1q0-2.1-.8-2.75a2.225,2.225,0,0,0-1.225-.5,16.461,16.461,0,0,0-2.025-.1ZM110.1.075l1.275,1,15.75-20.15-1.3-1Zm14.4.75A4.6,4.6,0,0,0,127.875-.45a5.9,5.9,0,0,0,1.45-4.325,5.877,5.877,0,0,0-1.45-4.3A4.663,4.663,0,0,0,124.5-10.35a4.766,4.766,0,0,0-3.4,1.275,5.917,5.917,0,0,0-1.45,4.3A5.9,5.9,0,0,0,121.1-.45,4.621,4.621,0,0,0,124.5.825Zm0-9.05a1.8,1.8,0,0,1,1.6.775,4.414,4.414,0,0,1,.675,2.5c0,2.425-.775,3.675-2.275,3.675-1.475,0-2.275-1.25-2.275-3.55a4.347,4.347,0,0,1,.675-2.6A1.74,1.74,0,0,1,124.5-8.225ZM112.725-8.65A4.6,4.6,0,0,0,116.1-9.925a5.9,5.9,0,0,0,1.45-4.325,5.877,5.877,0,0,0-1.45-4.3,4.663,4.663,0,0,0-3.375-1.275c-3.05,0-4.85,2.075-4.85,5.575a5.941,5.941,0,0,0,1.45,4.325A4.621,4.621,0,0,0,112.725-8.65Zm0-9.05a1.924,1.924,0,0,1,1.825,1.125A5.488,5.488,0,0,1,115-14.25c0,2.25-.825,3.5-2.275,3.5-1.475,0-2.275-1.25-2.275-3.55C110.45-16.475,111.275-17.7,112.725-17.7Z" transform="translate(721 5060)" fill="#0052aa"/>
    <path id="パス_1183" data-name="パス 1183" d="M11.025-16.35v1.4H6.1a17.526,17.526,0,0,1-2.725-.125,23.862,23.862,0,0,1,.1,2.575v4.6C3.45-6.175,3.45-6.175,3.45-6.075a3.257,3.257,0,0,0-.075.725A19.066,19.066,0,0,1,6.2-5.475H8.9A14.839,14.839,0,0,1,5.325-2.9a20.932,20.932,0,0,1-4.7,1.85,10.683,10.683,0,0,1,1.4,2.525A25.94,25.94,0,0,0,6.3-.45,16.278,16.278,0,0,0,11.075-4.4c-.025.475-.05,1.4-.05,1.7V-.9a20.045,20.045,0,0,1-.175,2.85h3.075A15.312,15.312,0,0,1,13.75-.9V-2.7c0-.425-.025-.9-.05-1.725a16.208,16.208,0,0,0,4.375,3.6A26.177,26.177,0,0,0,23.2,1.45,16.526,16.526,0,0,1,24.625-1.2,17.629,17.629,0,0,1,15.95-5.475h3a19.737,19.737,0,0,1,2.8.125,19.7,19.7,0,0,1-.1-2.55v-4.625c0-.95.025-1.775.1-2.525a24.2,24.2,0,0,1-2.775.1H13.75v-1.4h7a26.711,26.711,0,0,1,3.1.15v-2.75a20.945,20.945,0,0,1-3.275.175H13.75a12.418,12.418,0,0,1,.15-2.25H10.85a14.439,14.439,0,0,1,.175,2.25h-6.6a22.008,22.008,0,0,1-3.2-.175v2.75a21.377,21.377,0,0,1,3.025-.15Zm0,3.55v1.525h-4.9V-12.8Zm2.725,0H19v1.525H13.75ZM11.025-9.2v1.575h-4.9V-9.2Zm2.725,0H19v1.575H13.75Zm21.4-3.325V-6.6A41.02,41.02,0,0,1,30.6-4.525a10.164,10.164,0,0,1-2.125.65L29.4-.9c.25-.125.675-.325,1.1-.5,1.775-.8,3.15-1.45,4.65-2.3v2.65A23.374,23.374,0,0,1,35,1.975h3.125a18.472,18.472,0,0,1-.15-3V-17.9a17.331,17.331,0,0,1,.15-2.85H35a21.185,21.185,0,0,1,.15,2.85v2.75H31.4a11.114,11.114,0,0,1-2.35-.15v2.925a11.99,11.99,0,0,1,2.35-.15Zm8.7,2.65c1.775-.975,1.775-.975,2.8-1.6,1.15-.725,3.25-2.175,3.975-2.75.4-.325.55-.45.8-.625L49.45-17.2a22.907,22.907,0,0,1-5.6,4.275v-4.95A18.224,18.224,0,0,1,44-20.75H40.925a20.345,20.345,0,0,1,.15,2.875v16.6c0,1.175.3,1.825,1.05,2.175.65.325,1.4.4,3.625.4a19.827,19.827,0,0,0,2.55-.1A3.727,3.727,0,0,0,50.125.475c.85-.75,1.3-2.575,1.45-5.95a13.588,13.588,0,0,1-2.65-1.1,14.891,14.891,0,0,1-.45,4.6c-.3.575-.85.725-2.6.725-1.7,0-2.025-.125-2.025-.75Zm21.825-6.8v3.65h3.65v-3.65Zm0,10.7v3.65h3.65v-3.65ZM97.55-35.6l-5.8,14.95.1.1a2,2,0,0,1,.775-.325A6.133,6.133,0,0,1,94-21a5,5,0,0,1,2.5.65,5.074,5.074,0,0,1,1.8,1.65,5.649,5.649,0,0,1,.55,1.1,8.423,8.423,0,0,1,.35,1.45q.1.9.15,2.275T99.4-10.4q0,1.75-.05,2.875T99.2-5.65a7.026,7.026,0,0,1-.375,1.35,9.239,9.239,0,0,1-.575,1.15A6.9,6.9,0,0,1,95.575-.6,7.848,7.848,0,0,1,91.8.3a7.536,7.536,0,0,1-3.75-.925A7.266,7.266,0,0,1,85.4-3.15a6.6,6.6,0,0,1-.625-1.15,5.346,5.346,0,0,1-.325-1.35,12.671,12.671,0,0,1-.2-1.875Q84.2-8.65,84.2-10.4q0-1.65.05-2.725T84.4-15a7.97,7.97,0,0,1,.3-1.375q.2-.625.45-1.325l6.7-17.9ZM94.3-13.95a2.411,2.411,0,0,0-.75-1.85,2.484,2.484,0,0,0-1.75-.7,2.484,2.484,0,0,0-1.75.7,2.411,2.411,0,0,0-.75,1.85v6.6a2.411,2.411,0,0,0,.75,1.85,2.484,2.484,0,0,0,1.75.7,2.484,2.484,0,0,0,1.75-.7,2.411,2.411,0,0,0,.75-1.85ZM110.1.075l1.275,1,15.75-20.15-1.3-1Zm14.4.75A4.6,4.6,0,0,0,127.875-.45a5.9,5.9,0,0,0,1.45-4.325,5.877,5.877,0,0,0-1.45-4.3A4.663,4.663,0,0,0,124.5-10.35a4.766,4.766,0,0,0-3.4,1.275,5.917,5.917,0,0,0-1.45,4.3A5.9,5.9,0,0,0,121.1-.45,4.621,4.621,0,0,0,124.5.825Zm0-9.05a1.8,1.8,0,0,1,1.6.775,4.414,4.414,0,0,1,.675,2.5c0,2.425-.775,3.675-2.275,3.675-1.475,0-2.275-1.25-2.275-3.55a4.347,4.347,0,0,1,.675-2.6A1.74,1.74,0,0,1,124.5-8.225ZM112.725-8.65A4.6,4.6,0,0,0,116.1-9.925a5.9,5.9,0,0,0,1.45-4.325,5.877,5.877,0,0,0-1.45-4.3,4.663,4.663,0,0,0-3.375-1.275c-3.05,0-4.85,2.075-4.85,5.575a5.941,5.941,0,0,0,1.45,4.325A4.621,4.621,0,0,0,112.725-8.65Zm0-9.05a1.924,1.924,0,0,1,1.825,1.125A5.488,5.488,0,0,1,115-14.25c0,2.25-.825,3.5-2.275,3.5-1.475,0-2.275-1.25-2.275-3.55C110.45-16.475,111.275-17.7,112.725-17.7Z" transform="translate(552 5060)" fill="#0052aa"/>
    <g transform="matrix(1, 0, 0, 1, 288.65, 4676.07)" filter="url(#長方形_219)">
      <rect id="長方形_219-2" data-name="長方形 219" width="173" height="72" transform="translate(36.35 64.93)" fill="url(#linear-gradient-2)"/>
    </g>
    <path id="パス_1179" data-name="パス 1179" d="M10.925-12.925H5.975v-4.05a14.705,14.705,0,0,1,.1-2h-3a13.925,13.925,0,0,1,.125,2.2v4.95c0,.575-.025,1.05-.075,1.6.6-.05,1.125-.075,1.8-.075h6v8.2H5.05V-6.15A12.352,12.352,0,0,1,5.175-8.3H2.15a20.779,20.779,0,0,1,.125,2.4V-.6a18.139,18.139,0,0,1-.15,2.5H5.05V.6H19.925V1.9H22.85A15.787,15.787,0,0,1,22.7-.6V-6a19.988,19.988,0,0,1,.125-2.375H19.8a13.3,13.3,0,0,1,.125,2.125V-2.1H13.75v-8.2H20.2c.6,0,1.2.025,1.75.075a13.7,13.7,0,0,1-.075-1.6V-16.8A14.371,14.371,0,0,1,22-18.975H19A15.018,15.018,0,0,1,19.1-17v4.075H13.75V-18.4a16.089,16.089,0,0,1,.15-2.475H10.775a15.009,15.009,0,0,1,.15,2.475ZM47.1-1.35c0,.4-.275.5-1.55.5A16.183,16.183,0,0,1,42.7-1.1a9.013,9.013,0,0,1,.675,2.725C45.55,1.7,45.55,1.7,46.1,1.7c2.8,0,3.675-.55,3.675-2.325v-6.95a32.6,32.6,0,0,0,2.925-3,11.234,11.234,0,0,1,1.2-1.3l-1.875-1.95a18.581,18.581,0,0,1-2.25,2.85v-5.3A20.071,20.071,0,0,1,49.9-19a22.747,22.747,0,0,1-2.675.1H42.6c.325-.55.675-1.175,1.15-2.075l-2.925-.375A10.027,10.027,0,0,1,39.7-18.9h-2A24.963,24.963,0,0,1,35-19a23.341,23.341,0,0,1,.1,2.4v8.95c-2.3.1-2.3.1-2.575.1-.25,0-.5-.025-.8-.05L32.1-4.925c.45-.075.775-.1,1.575-.175,4.225-.325,5.025-.4,10.25-1.025a39.493,39.493,0,0,1-12.4,5.5A9.567,9.567,0,0,1,32.95,1.85,46.675,46.675,0,0,0,47.1-5.35ZM37.775-13.1H47.1v1.45H37.775ZM47.1-15.2H37.775v-1.4H47.1ZM37.775-9.55H47.1v.95c-3.975.425-3.975.425-9.325.8ZM72.75-10.6l2.425-.775v5.3A19.014,19.014,0,0,1,75.05-3.5h2.9A18.139,18.139,0,0,1,77.8-6v-6.225l2.875-.9c-.075,2.425-.175,3.975-.3,4.8-.1.525-.25.625-.875.625a6.911,6.911,0,0,1-1.4-.2,7.46,7.46,0,0,1,.675,2.575c.625.05.85.05,1.175.05,1.825,0,2.5-.425,2.825-1.85A46.156,46.156,0,0,0,83.325-14c.05-1.35.075-1.525.125-2.625a15.285,15.285,0,0,1-2.05.75L77.8-14.75v-3.5a20.582,20.582,0,0,1,.15-2.55h-2.9a17.846,17.846,0,0,1,.125,2.5v4.35l-2.425.775V-15.9a19.183,19.183,0,0,1,.15-2.55H69.95a15.94,15.94,0,0,1,.15,2.65v3.425l-.225.075a14.97,14.97,0,0,1-2.425.55l.625,2.725A13.5,13.5,0,0,1,69.6-9.6c.1-.025.275-.075.5-.15v8.6c0,2.2,1.1,2.675,6.15,2.675,7.125,0,7.65-.35,7.95-5.35a13.161,13.161,0,0,1-2.725-.825c0,1.7-.15,2.55-.45,2.975-.375.525-1.175.65-4.15.65a19.519,19.519,0,0,1-3.4-.175c-.55-.1-.725-.275-.725-.775Zm-8.975-4.075H63.2a9.79,9.79,0,0,1-1.95-.125v2.675a10.26,10.26,0,0,1,1.95-.125h.575V-4.4a13.031,13.031,0,0,1-2.975.9l.525,2.875c.375-.175.6-.275,1.3-.55A42.079,42.079,0,0,0,68.8-3.95L68.725-6.6c-1.125.575-1.4.7-2.375,1.15v-6.8h.475a11.38,11.38,0,0,1,1.75.1v-2.625a8.386,8.386,0,0,1-1.675.1h-.55v-3.2a17.646,17.646,0,0,1,.15-2.9H63.625a21.344,21.344,0,0,1,.15,2.875Z" transform="translate(369.38 4790.136)" fill="#fff"/>
  </g>
</svg>
