<svg xmlns="http://www.w3.org/2000/svg" xmlns:xlink="http://www.w3.org/1999/xlink" width="467.293" height="904.787" viewBox="0 0 467.293 904.787">
  <defs>
    <linearGradient id="linear-gradient" y1="0.5" x2="1" y2="0.5" gradientUnits="objectBoundingBox">
      <stop offset="0" stop-color="#03a8e5"/>
      <stop offset="1" stop-color="#012869"/>
    </linearGradient>
    <filter id="パス_301" x="0" y="0" width="467.293" height="904.787" filterUnits="userSpaceOnUse">
      <feOffset dx="10" dy="10" input="SourceAlpha"/>
      <feGaussianBlur stdDeviation="15" result="blur"/>
      <feFlood flood-opacity="0.161"/>
      <feComposite operator="in" in2="blur"/>
      <feComposite in="SourceGraphic"/>
    </filter>
    <linearGradient id="linear-gradient-2" x1="-0.03" xlink:href="#linear-gradient"/>
    <filter id="長方形_225" x="21.347" y="48.429" width="384" height="171" filterUnits="userSpaceOnUse">
      <feOffset input="SourceAlpha"/>
      <feGaussianBlur stdDeviation="5" result="blur-2"/>
      <feFlood flood-color="#013778" flood-opacity="0.322"/>
      <feComposite operator="in" in2="blur-2"/>
      <feComposite in="SourceGraphic"/>
    </filter>
  </defs>
  <g id="お酒" transform="translate(-288.653 -5904.571)">
    <g id="グループ_258" data-name="グループ 258" transform="translate(-204.7 3567.005)">
      <g transform="matrix(1, 0, 0, 1, 493.35, 2337.57)" filter="url(#パス_301)">
        <path id="パス_301-2" data-name="パス 301" d="M0,0H377.293V814.787H0Z" transform="translate(35 35)" fill="url(#linear-gradient)"/>
      </g>
      <path id="パス_302" data-name="パス 302" d="M0,0H369.293V806.787H0Z" transform="translate(532.353 2376.566)" fill="#edf9ff"/>
    </g>
    <g id="グループ_261" data-name="グループ 261" transform="translate(243.87 3962.977)">
      <path id="パス_667" data-name="パス 667" d="M386.009,2680.732l-25.75,9.369a3.232,3.232,0,0,0,1.107,6.268,3.179,3.179,0,0,0,1.107-.2l25.747-9.369a3.23,3.23,0,0,0-2.211-6.07Zm5.044,5.937L359.116,2698.3a3.968,3.968,0,0,1-1.237.215,3.621,3.621,0,0,1-3.4-2.385c0-.007-.019-.063-.063-.3-.426-2-1.031-8.417-2.6-15.149-1.612-6.782-4.053-14.2-9.214-19.056l-.23-.186a44.217,44.217,0,0,1-3.659-3.205c-.076-.069-.145-.129-.205-.183a2.5,2.5,0,0,0-.18-.189c-6.177-6.114-11.931-15.152-16.306-27.177q-.824-2.256-1.5-4.438a22.565,22.565,0,0,0,6.306-1.252l3.435-1.247,2.278,6.249-3.949,1.438c.542,2.079,1.214,4.234,2.022,6.448,3.259,8.959,7.577,15.8,12.35,20.517-.006.006-.009.015-.019.025.1.085.208.177.312.262a32.587,32.587,0,0,0,2.855,2.492c6.606,6.107,7.23,21.981,7.981,24.044a4.957,4.957,0,0,0,6.353,2.968l23.1-8.41a4.964,4.964,0,0,0,2.959-6.359c-.751-2.063-10.479-14.609-9.35-23.527a33.054,33.054,0,0,0,.593-3.779c.025-.129.044-.258.069-.385-.013,0-.022-.006-.032-.006.621-6.681-.467-14.7-3.725-23.656q-1.211-3.326-2.6-6.24l-17.41,6.338-2.278-6.253,16.877-6.135a23.337,23.337,0,0,0,5.678-3.06q.861,2.087,1.675,4.316c3.6,9.883,5.189,18.829,5.189,26.507,0,1.666-.069,3.265-.214,4.789-.006.079-.009.154-.013.233a.179.179,0,0,0-.006.035l-.028.236a42.2,42.2,0,0,1-.757,4.858l-.051.249a17.854,17.854,0,0,0-.157,2.52c.041,7.114,3.328,14.331,6.549,20.306,1.618,2.977,3.258,5.618,4.533,7.662.64,1.022,1.186,1.9,1.58,2.559.2.331.357.606.461.8s.11.236.116.236a3.617,3.617,0,0,1-2.158,4.644Zm-80.645-71.5a5.571,5.571,0,0,1-.36-1.99c-.041-2.678,1.937-6.123,5.634-8.451a3.227,3.227,0,0,0,.984-4.492,16.1,16.1,0,0,1-2.659-8.808,16.032,16.032,0,0,1,26.375-12.268,3.234,3.234,0,0,0,4.366-.2,9.515,9.515,0,0,1,3.451-2.253,9.4,9.4,0,0,1,12.107,5.653,8.689,8.689,0,0,1,.476,1.931,3.236,3.236,0,0,0,3.65,2.754,12.546,12.546,0,0,1,1.779-.117c4.546.028,7.788,2.079,8.719,4.76a6.1,6.1,0,0,1,.344,2c.088,3.394-3.189,8.009-8.83,10.028l-19.911,7.246a3.227,3.227,0,0,0-1.931,4.139l6.744,18.526a4.921,4.921,0,0,1,.3,1.7,5.009,5.009,0,0,1-3.287,4.7,5.207,5.207,0,0,1-1.707.3,4.958,4.958,0,0,1-4.678-3.274L335.23,2618.5a3.227,3.227,0,0,0-4.142-1.93l-6.46,2.35a16.348,16.348,0,0,1-5.5.99c-4.568-.019-7.8-2.066-8.725-4.744Zm-7.745,18v0a47.353,47.353,0,0,1-2.877,15.2l-1.142-.41,1.135.41c-5.331,14.549-16.347,24.555-27.025,24.622a15.771,15.771,0,0,1-5.344-.925c-6.543-2.407-10.577-8.852-11.934-16.864-.161-.959-.293-1.937-.388-2.93-.092-1.066-.164-2.139-.164-3.243a44.56,44.56,0,0,1,.833-8.344,48.948,48.948,0,0,1,2.085-7.581c5.331-14.555,16.353-24.561,27.032-24.631a15.386,15.386,0,0,1,5.344.937c6.517,2.4,10.539,8.789,11.912,16.757q.255,1.467.4,2.988c.091,1.079.164,2.164.164,3.281,0,.239-.028.492-.035.731Zm93.877,41.848c-3.823-5.978-10.233-16.984-10.11-24.552a11.725,11.725,0,0,1,.085-1.527,49.741,49.741,0,0,0,.827-5.24c.028-.189.057-.347.082-.483a3.186,3.186,0,0,0,.041-.826c.132-1.577.192-3.189.192-4.845,0-8.568-1.763-18.229-5.574-28.715-.911-2.505-1.893-4.868-2.915-7.143a14.953,14.953,0,0,0,2.562-8.009,12.191,12.191,0,0,0-.723-4.189c-2.2-5.921-8.227-8.953-14.511-9.022-.035-.107-.072-.214-.113-.325a15.926,15.926,0,0,0-14.952-10.482,15.7,15.7,0,0,0-5.461.978,15.226,15.226,0,0,0-3.653,1.934,22.6,22.6,0,0,0-12.274-3.656,22.141,22.141,0,0,0-7.684,1.372,22.388,22.388,0,0,0-6.766,3.966l7.924-25.779a6.218,6.218,0,0,0,.205-2.347,6.409,6.409,0,0,0,1.1-12.366l-12.662-4.607a6.44,6.44,0,0,0-7.133,10.216,6.252,6.252,0,0,0-1.319,1.9l-16.328,38.621a10.593,10.593,0,0,0-.77,3.637c-7.994,1.1-16.11,8.413-19.959,18.99l-23.018,63.242-5.953,16.36a9.183,9.183,0,0,0,5.473,11.738l28.662,10.428a9.182,9.182,0,0,0,11.738-5.473l5.956-16.36,21.145-58.087a16.818,16.818,0,0,0,2.946,1.192c.678,2.4,1.439,4.84,2.35,7.344,4.555,12.5,10.586,22.23,17.429,29.141a3.372,3.372,0,0,0,.621.669c.095.066.227.186.407.337a45.649,45.649,0,0,0,3.883,3.394c3.6,3.284,6.139,10.337,7.517,16.949.716,3.322,1.193,6.521,1.565,9.085a38.478,38.478,0,0,0,1.032,5.858,10.076,10.076,0,0,0,9.476,6.637,10.373,10.373,0,0,0,3.4-.587l31.977-11.64a10.1,10.1,0,0,0,6.032-12.915,34.7,34.7,0,0,0-2.751-4.811Zm-28.561-107.475,27.653-33.151-1.035-.76-5.009-3.7L366.034,2566.1l1.943,1.438Zm5.962,5.06,34.741-15.321-1.171-8.508-1.587.994-33.113,20.7,1.129,2.139Zm-1.587-49.8-1.845.309-6.625,1.082-4.438,37.7,2.375.454,10.533-39.548Zm-86.494,114.841a1.6,1.6,0,0,0-2.079.627l3.208,1.17a1.548,1.548,0,0,0-1.129-1.8Zm-9.672,1.858a1.6,1.6,0,0,0-2.079.628l3.2,1.164a1.544,1.544,0,0,0-1.126-1.792Zm9.022,12.4c-4.328,6.318-10.031,9.618-13.583,8.325-1.842-.672-3.517-2.94-4.448-6.284l-9.381,1.063c1.293,7.315,4.953,12.845,10.344,14.779a13.1,13.1,0,0,0,4.514.782c8.372.063,18.063-7.748,23.476-19.905l-3.915.445-7.006.795Zm.6-30.5c2.01.732,3.6,3.044,4.464,6.281l5.5-.622,3.855-.436c-1.287-7.325-4.94-12.857-10.337-14.8a12.994,12.994,0,0,0-4.514-.783h-.1c-8.353,0-18,7.8-23.388,19.924l10.934-1.24c4.539-6.644,10.407-9.489,13.593-8.329ZM266.8,2640.468l-2.167-.788-.713,1.955,2.2.8a1.146,1.146,0,0,0,.861.013,1.02,1.02,0,0,0,.571-.622.885.885,0,0,0-.262-.99,1.255,1.255,0,0,0-.489-.369Zm-1.322,3.993-2.284-.829-.845,2.322,2.3.836a1.241,1.241,0,1,0,.833-2.328Zm31.757-5.255a4.247,4.247,0,0,0-1.186-.7,1.933,1.933,0,0,0-1.732.129,2,2,0,0,0-.776.978l-.707,1.946a14.762,14.762,0,0,0-.58,1.905l-2.58-.94a15.361,15.361,0,0,0,.782-1.845l1.4-3.839a13.2,13.2,0,0,0,.59-1.924l2.479.9-.36.984a3.01,3.01,0,0,1,2.905-.224,5.425,5.425,0,0,1,1.183.6l-1.416,2.031Zm-8.426,2.559a2.582,2.582,0,0,0-.082.252l-5.612-2.041a1.672,1.672,0,0,0,1.132,2.164,1.958,1.958,0,0,0,1.429,0,1.33,1.33,0,0,0,.606-.5l1.946,1.407a3.961,3.961,0,0,1-1.29.988,4.363,4.363,0,0,1-3.331-.013,4.177,4.177,0,0,1-2.508-2.114,4.552,4.552,0,0,1-.025-3.461,4.049,4.049,0,0,1,5.457-2.656,3.812,3.812,0,0,1,2.685,4.275,10.77,10.77,0,0,1-.407,1.707Zm-9.675,1.858c-.016.047-.047.129-.079.255l-5.612-2.044a1.671,1.671,0,0,0,1.129,2.164,1.924,1.924,0,0,0,1.429-.006,1.258,1.258,0,0,0,.606-.5l1.949,1.4a3.993,3.993,0,0,1-1.293.994,4.324,4.324,0,0,1-3.328-.019,4.172,4.172,0,0,1-2.508-2.107,4.525,4.525,0,0,1-.032-3.463,4.062,4.062,0,0,1,5.467-2.66,3.817,3.817,0,0,1,2.678,4.281,10.217,10.217,0,0,1-.407,1.7Zm-8.946-1.269a2.452,2.452,0,0,1-1.379,1.521,2.89,2.89,0,0,1-1.2.177,2.832,2.832,0,0,1,1.079,1.076,2.9,2.9,0,0,1-2.2,4.113,4.5,4.5,0,0,1-.971.019,5.31,5.31,0,0,1-1.221-.268l-3.394-1.236c-.953-.344-1.315-.461-1.861-.631a12.311,12.311,0,0,0,.767-1.8l2.482-6.82a13.988,13.988,0,0,0,.555-1.833c.619.265.8.332,1.82.7l3.265,1.189a.078.078,0,0,1,.029.016c2,.739,2.826,2.132,2.227,3.776Zm29.672-13.458-6.449.735-2.7.306v0l-20.027,2.281v0l-10.351,1.18-.008.006c-.06.187-.145.357-.209.542a44.315,44.315,0,0,0-2.757,15.095,35.588,35.588,0,0,0,.182,3.574l.041,0,5.928-.672,3.243-.369,20.024-2.274,10.326-1.173c.072-.193.154-.375.223-.571h0a47.711,47.711,0,0,0,1.479-5.054c0-.006,0-.009,0-.016.27-1.12.506-2.233.684-3.337.041-.236.063-.47.1-.709.129-.88.261-1.763.333-2.625.1-1.142.154-2.265.154-3.363,0-1.221-.066-2.4-.179-3.555l-.038,0Z" fill="#a8e1f7"/>
    </g>
    <g transform="matrix(1, 0, 0, 1, 288.65, 5904.57)" filter="url(#長方形_225)">
      <rect id="長方形_225-2" data-name="長方形 225" width="354" height="141" transform="translate(36.35 63.43)" fill="url(#linear-gradient-2)"/>
    </g>
    <path id="パス_1208" data-name="パス 1208" d="M3.875,0V-15.1l-2.55,1.875v-2.7L3.875-17.8h2.55V0ZM32.9-14.8a22.111,22.111,0,0,0,1.5-2.6l-2.625-.65A14.99,14.99,0,0,1,30.2-14.8H27.95v-3.025c4.1-.45,5.625-.65,7-.85.35-.05.575-.1.65-.1.5-.075.5-.075.75-.1l-1.875-2.3A37.1,37.1,0,0,1,27.95-20.1a77.991,77.991,0,0,1-8.775.475c-.725,0-1.25,0-2.4-.05A7.2,7.2,0,0,1,17.85-17.3c1.55,0,1.8-.025,3.35-.075l-1.775.6A18.03,18.03,0,0,1,20.55-14.8H18.475a19.316,19.316,0,0,1-2.75-.15v2.575a21.643,21.643,0,0,1,2.75-.15h4.1A17.164,17.164,0,0,1,15.15-8.4,6.733,6.733,0,0,1,16.6-5.925c1.075-.55,1.4-.725,2.075-1.1v6.5c0,.925-.05,1.875-.125,2.625h2.725V.95h11.1V2.1h2.75a15.794,15.794,0,0,1-.15-2.625V-7.05c.825.45,1.225.65,2.275,1.125A10.273,10.273,0,0,1,38.7-8.5a18.914,18.914,0,0,1-7.925-4.025h4.3a21.78,21.78,0,0,1,2.725.15V-14.95a18.22,18.22,0,0,1-2.725.15Zm-7.525,0H23.15a25.208,25.208,0,0,0-1.35-2.6c2.55-.1,2.55-.1,3.575-.175Zm-3.85,6a17.44,17.44,0,0,0,3.9-3.6c-.025.425-.05.725-.05.875v.65A9.06,9.06,0,0,1,25.25-9.3h2.8a8.146,8.146,0,0,1-.1-1.6v-.675a2.111,2.111,0,0,0-.05-.475,3.4,3.4,0,0,0-.025-.375A18.331,18.331,0,0,0,32-8.8Zm-.25,2.175h4.15V-5.05h-4.15Zm0,3.775h4.15V-1.3h-4.15ZM27.95-6.6h4.425v1.575H27.95Zm-.025,3.75H32.35v1.575H27.925ZM63.275-8h3.05a17.755,17.755,0,0,1,2.475.15v-2.875a17.017,17.017,0,0,1-2.475.15h-3.05V-12.35a29.451,29.451,0,0,0,4.375-5.2,4.509,4.509,0,0,1,.5-.6L66.775-19.9a11.159,11.159,0,0,1-2.175.125H58.825a19.23,19.23,0,0,1-2.775-.15v2.85c.75-.075,1.7-.125,2.7-.125H64.3a14.2,14.2,0,0,1-2.975,3.4h-1a18.07,18.07,0,0,1,.15,2.375v.85h-2.6A14.321,14.321,0,0,1,55.4-10.7v2.85A19.452,19.452,0,0,1,57.95-8h2.525v6.7c0,.4-.2.475-1.075.475A21.359,21.359,0,0,1,56.575-1.1a9.5,9.5,0,0,1,.675,2.825c1.1.075,1.875.1,2.6.1,2.775,0,3.425-.5,3.425-2.7Zm-7.3,5.4a28.158,28.158,0,0,0-2.8-2.55A26.615,26.615,0,0,0,55.45-14.9c.075-1.025.075-1.025.1-1.525a16.6,16.6,0,0,1-2.1.1H51.275c.225-1.15.35-1.925.5-2.95a11.374,11.374,0,0,1,.275-1.6L49.1-21.1v.275a32.968,32.968,0,0,1-.525,4.5h-.7a11.088,11.088,0,0,1-2.2-.15v2.7a13.27,13.27,0,0,1,1.8-.125h.6A42.011,42.011,0,0,1,45.9-7.15a30.97,30.97,0,0,1,3.825,2.675A13.579,13.579,0,0,1,45.25-.4a13.555,13.555,0,0,1,1.8,2.325,16.757,16.757,0,0,0,4.725-4.65A27.637,27.637,0,0,1,54.25-.175Zm-3.1-11.3a20.292,20.292,0,0,1-1.8,7.075c-.6-.425-.975-.7-1.975-1.375a47.561,47.561,0,0,0,1.375-4.575c.2-.75.2-.75.275-1.125Zm24.9-.5c.525-.025.65-.05,1.7-.05a60.272,60.272,0,0,0,6.7-.35c.2.45.275.6.525,1.125.2.475.3.625.45.925a49.184,49.184,0,0,1-7.075.475,14.817,14.817,0,0,1-2.575-.1l.1,2.725c.425-.05.6-.05,1.025-.075A71.766,71.766,0,0,0,88.3-10.4a15.052,15.052,0,0,0,1.925,2.8A17.229,17.229,0,0,0,85.9-8.125a11.144,11.144,0,0,0-5.825,1.25,4.175,4.175,0,0,0-2.1,3.475A4.027,4.027,0,0,0,79.9.025C81.3.875,83.125,1.25,86,1.25A24.07,24.07,0,0,0,92.4.4,12.364,12.364,0,0,1,94.025.025l-.45-3.075a19.417,19.417,0,0,1-7.7,1.625,9.745,9.745,0,0,1-3.575-.55,1.648,1.648,0,0,1-1.075-1.45A1.8,1.8,0,0,1,82.3-4.95a9.644,9.644,0,0,1,4.2-.7,13.444,13.444,0,0,1,5.75,1.025L94.45-6.2a25,25,0,0,1-3.35-4.575c.3-.075.3-.075.925-.2.6-.125,1.425-.3,2.45-.55.575-.15,1.1-.25,1.575-.325l-.25-2.725a12.626,12.626,0,0,1-2.375.725c-.15.025-1.3.275-3.45.725A22.511,22.511,0,0,1,89-15.175c.775-.1,3.55-.65,5.225-1.05.6-.125.6-.125.85-.175l-.25-2.65a42,42,0,0,1-6.75,1.5,14.655,14.655,0,0,1-1.025-3.025l-3.125.425c.025.05.375.825,1,2.275.2.45.2.45.275.65a44.431,44.431,0,0,1-5.15.275,20.973,20.973,0,0,1-2.4-.1Zm34.15-6.325a25.54,25.54,0,0,1-.75,4.35c-.55.025-.975.025-1.275.025a17.358,17.358,0,0,1-3.375-.225v2.85l1.325.025c.525.025.675.025,1,.025.3,0,.45,0,1.575-.025a38.461,38.461,0,0,1-2.35,5.9,22.756,22.756,0,0,1-2.425,4l2.875,1.6c.15-.3.15-.3.475-.9.95-1.75,1.175-2.2,1.75-3.425a47.987,47.987,0,0,0,2.75-7.25c1.55-.125,3.075-.3,3.975-.45a4.875,4.875,0,0,1,.8-.125l-.075-2.875a21.443,21.443,0,0,1-4,.7c.275-1.1.4-1.6.525-2.2a12.516,12.516,0,0,1,.4-1.675Zm16,6.5a39.464,39.464,0,0,0-7.05-3.35l-1.5,2.425a30.6,30.6,0,0,1,7.2,3.5Zm-.1,11.275a4.475,4.475,0,0,1-.375-.35,9.218,9.218,0,0,0-.875-.675,15.619,15.619,0,0,0-3.95-2.3A26.544,26.544,0,0,1,122.4-9.7a8.333,8.333,0,0,1,.3-2.525l-2.9-.15a13.26,13.26,0,0,0-.2,2.525c0,.75.05,1.725.125,2.875A12.418,12.418,0,0,0,117.4-7.2c-3.175,0-5.4,1.775-5.4,4.3,0,2.55,2.15,4.2,5.45,4.2A5.772,5.772,0,0,0,121.6-.1a4,4,0,0,0,1.075-2.65c0-.1-.025-.275-.05-.5a15.12,15.12,0,0,1,3.825,3.1Zm-8-1.375s.05.6.05.85c0,1.4-.825,2.1-2.525,2.1-1.55,0-2.45-.6-2.45-1.625,0-1.05,1.05-1.725,2.675-1.725A6.3,6.3,0,0,1,119.825-4.325Zm38.75,6.55A19.214,19.214,0,0,1,155.4-2.75a16.911,16.911,0,0,1-1.325-6.85,16.4,16.4,0,0,1,1.3-6.625A19.482,19.482,0,0,1,158.55-21.2h-3.5a20.181,20.181,0,0,0-2.75,4.925A17.692,17.692,0,0,0,151.025-9.6a18.4,18.4,0,0,0,1.325,6.9,20.023,20.023,0,0,0,2.725,4.925Zm16.4-22.8a14.757,14.757,0,0,1,.125,2.2c.025,3.125.25,9.95.35,10.85a.561.561,0,0,0,.025.25,9.246,9.246,0,0,0-2.325-.25c-3.6,0-6.175,1.875-6.175,4.475A4.508,4.508,0,0,0,167.6-.825c.925,1.425,2.7,2.15,5.25,2.15,3.725,0,5.7-1.475,5.7-4.275a5.82,5.82,0,0,0-.05-.8c.275.175.475.275.8.45a15.741,15.741,0,0,1,3.3,2.05A9.856,9.856,0,0,1,184.375.4l1.95-2.825c-.3-.175-.425-.275-.75-.5A33.635,33.635,0,0,0,182.35-5.05a18.459,18.459,0,0,0-3.9-1.7c-.175-2.45-.225-3.575-.275-5.525a53.9,53.9,0,0,0,5.875-.45c1.125-.125,1.125-.125,1.625-.15l-.25-3.025a27.031,27.031,0,0,1-7.325.85c-.025-1.2-.025-1.275-.025-1.625a28.45,28.45,0,0,1,.175-3.875Zm.55,16c0,.025.025.725.025,1.175a1.757,1.757,0,0,1-.525,1.4,3.574,3.574,0,0,1-2.275.675,4.472,4.472,0,0,1-1.825-.375,1.366,1.366,0,0,1-.85-1.3c0-1.1,1.25-1.85,3.125-1.85A8.113,8.113,0,0,1,175.525-4.575Zm34.15-16.175a12.393,12.393,0,0,1-1.825,2.075,56.033,56.033,0,0,1-5.775,4.875,15.331,15.331,0,0,0-2.2,1.8,2.921,2.921,0,0,0-.825,2.025c0,1.15.45,1.825,2.1,3.1A79.3,79.3,0,0,1,207.6-1.55a24.15,24.15,0,0,1,3.25,3.425l2.575-2.6a6.234,6.234,0,0,1-.725-.625,84.031,84.031,0,0,0-7.875-6.525c-2.2-1.65-2.25-1.7-2.25-2.075,0-.275.175-.475.95-1.05,2.925-2.225,4.675-3.625,5.95-4.8a38.137,38.137,0,0,1,3.075-2.75ZM235.1.5a10.522,10.522,0,0,1,1.3,1.8,12.325,12.325,0,0,0,2.625-2.725,12.758,12.758,0,0,0,2.425-5.7,13.094,13.094,0,0,0,2.2,5.025A16.415,16.415,0,0,0,247,2.325a9.941,9.941,0,0,1,1.775-2.55,12.14,12.14,0,0,1-4.4-4.475,14.867,14.867,0,0,1-1.775-7.45,7.962,7.962,0,0,1,.1-1.5h-2.85c.025.325.075,1,.075,1.475A17.9,17.9,0,0,1,239.1-6a11.7,11.7,0,0,1-3,4.75,39.171,39.171,0,0,0-2.225-3.975L231.7-4.35c.525.9.7,1.2,1,1.775a30.731,30.731,0,0,1-3.15.8V-5.65h4.125c.95,0,1.3.025,1.975.075-.05-.75-.075-1.325-.075-2.375v-4.4a14.582,14.582,0,0,1,.1-2.05,16.518,16.518,0,0,1-2.05.1h-.95v-.925a6.665,6.665,0,0,1,.1-1.25h-2.55a7.306,7.306,0,0,1,.1,1.275v.9h-1.35c-.625,0-.875,0-1.275-.025a16.867,16.867,0,0,0,3.8-4.1,11.843,11.843,0,0,0,3.925,3.775,11.362,11.362,0,0,1,1.425-2.275,8.7,8.7,0,0,1-4.125-3.8h-2.55a11.876,11.876,0,0,1-5.05,4.95,12.4,12.4,0,0,1,.9,2.675,9.224,9.224,0,0,0,.975-.675c.05.65.05,1.025.05,1.6V-1.3a10.022,10.022,0,0,1-1.6.15l.625,2.8c.35-.125.925-.275,1.425-.4A60.382,60.382,0,0,0,233.675-.5c.2.475.3.725.55,1.4ZM229.55-11v-1.3h3.6V-11Zm0,1.925h3.6V-7.65h-3.6Zm11.525-8.4c.15-.5.25-.925.425-1.525a11.02,11.02,0,0,1,.425-1.45l-2.9-.5a12.876,12.876,0,0,1-.55,2.9,15.6,15.6,0,0,1-2.75,5.675,9.13,9.13,0,0,1,2.025,1.85,18.761,18.761,0,0,0,2.475-4.55h5.225a15.189,15.189,0,0,1-2.175,4.9A10.12,10.12,0,0,1,245.55-8.85a26.279,26.279,0,0,0,2.425-6.05,10.671,10.671,0,0,1,.475-1.3l-1.275-1.375a13.933,13.933,0,0,1-2.175.1Zm27-.5a20.308,20.308,0,0,1-4.275.75,5.449,5.449,0,0,0,.025-.6,6.194,6.194,0,0,1,.025-.85,8.187,8.187,0,0,1,.225-1.725l-3.175-.025a9.535,9.535,0,0,1,.125,1.9v.925a2.892,2.892,0,0,0-.025.525h-1.075a13.472,13.472,0,0,1-3.45-.275l-.025,2.75a2.762,2.762,0,0,1,.4-.025,5.085,5.085,0,0,1,.55.025c.725.025,1.25.05,1.925.05h1.625v.775c-.025.55-.025.95-.025,1.125h-.275a4.332,4.332,0,0,0-4.325,4.35,4.751,4.751,0,0,0,.6,2.35A3.093,3.093,0,0,0,259.45-4.5a1.323,1.323,0,0,0,.75-.225h.05a3.848,3.848,0,0,0-.725,2.225,2.775,2.775,0,0,0,1.65,2.7,12.11,12.11,0,0,0,5.1.825,29.608,29.608,0,0,0,3.6-.225A9.857,9.857,0,0,0,273.75-.225,3.75,3.75,0,0,0,275.7-3.9a9.015,9.015,0,0,0-.35-2.5c-.2-.7-.2-.7-.275-.975-.125-.525-.125-.525-.225-.85a10.906,10.906,0,0,1-3.35-.8,12.409,12.409,0,0,1,.625,1.75,8.693,8.693,0,0,1,.55,2.875c0,1.2-.55,1.825-1.9,2.15a17.791,17.791,0,0,1-4.125.475c-2.875,0-4.075-.4-4.075-1.375a4.448,4.448,0,0,1,.9-2.275,13.016,13.016,0,0,0,.85-1.4A4.974,4.974,0,0,0,264.9-9.2a3.234,3.234,0,0,0-1.2-2.775c0-.8,0-.925.025-2.65a31.606,31.606,0,0,0,3.725-.475,5.2,5.2,0,0,1,.75-.1Zm-7.275,7.55c.9.05,1.3.525,1.3,1.5a1.944,1.944,0,0,1-1.775,2.075c-.825,0-1.35-.625-1.35-1.6a1.917,1.917,0,0,1,1.725-2A.189.189,0,0,1,260.8-10.425Zm9.075-6.4a22.553,22.553,0,0,1,5.55,5.85l2.4-1.925a26.566,26.566,0,0,0-5.7-5.65ZM288.55,2.225A20.885,20.885,0,0,0,291.275-2.7a18.776,18.776,0,0,0,1.3-6.9,17.692,17.692,0,0,0-1.275-6.675,19.955,19.955,0,0,0-2.725-4.925H285.05a20.427,20.427,0,0,1,3.2,4.975A16.23,16.23,0,0,1,289.525-9.6,16.828,16.828,0,0,1,288.2-2.75a19.213,19.213,0,0,1-3.175,4.975ZM10.325,33.35a16,16,0,0,1,4.8-.825c2.675,0,4.425,1.4,4.425,3.55a2.569,2.569,0,0,1-2.525,2.775A1.729,1.729,0,0,1,15.45,38a4.817,4.817,0,0,1-.35-2.2,8.668,8.668,0,0,1,.05-1.1,10.546,10.546,0,0,1-2.775,1.1A8.352,8.352,0,0,0,12.8,39a4.036,4.036,0,0,0,4.1,2.775,5.554,5.554,0,0,0,5.675-5.7c0-3.55-2.975-6.1-7.15-6.1a17.336,17.336,0,0,0-5.1.7v-3.25c.95-.1,1.45-.175,2.275-.325,1.725-.3,2.2-.375,2.65-.45l-.1-2.8a27.881,27.881,0,0,1-4.825.95V23.2a15.349,15.349,0,0,1,.15-2.725H7.35A17.129,17.129,0,0,1,7.5,23.35V25c-.275,0-.4,0-1,.025-.35.025-.625.025-.875.025A15.332,15.332,0,0,1,2.6,24.825l.025,2.8A4.687,4.687,0,0,1,3.15,27.6c.075,0,.3,0,.625.025.3,0,1,.025,1.375.025.625,0,.975,0,1.35-.025.825-.05.825-.05,1.025-.05l.025,3.85A13.374,13.374,0,0,0,3.9,33.55a5.336,5.336,0,0,0-2.15,3.7,3.672,3.672,0,0,0,1.375,2.825A7.787,7.787,0,0,0,7.85,41.85a2.2,2.2,0,0,0,2.3-1.45,7.444,7.444,0,0,0,.2-2.125Zm-2.8,4.55c0,.825-.125,1.05-.55,1.05a3.005,3.005,0,0,1-1.6-.55c-.575-.35-.825-.725-.825-1.15,0-.9,1.1-2,2.975-3Zm16.15-10.55a21.2,21.2,0,0,0-4.95-5.125L16.375,23.8a21.349,21.349,0,0,1,5,5.4Zm13.4-4.3a21.51,21.51,0,0,0-3.775-2.9l-1.75,2.025A19.359,19.359,0,0,1,35.7,25.5l1.6-2.075a23.626,23.626,0,0,1,2.475-.1h2.4V25.55H40.15c-1.275,0-1.825-.025-2.525-.075a21.875,21.875,0,0,1,.1,2.575V39.8a30.605,30.605,0,0,1-.15,3.15h2.65V41.7h10.3v1.25H53.2a21.734,21.734,0,0,1-.15-3.225v-11.5c0-1.275.025-2.25.075-2.775-.475.05-1.4.1-2.425.1H48.4V23.325h2.775c1,0,1.825.05,2.675.125v-2.7a21.133,21.133,0,0,1-2.8.15H39.85a16.867,16.867,0,0,1-2.775-.15Zm8.95,4.8v3.7a1.546,1.546,0,0,0,.8,1.525,4.972,4.972,0,0,0,2.475.35,11.812,11.812,0,0,0,1.225-.05v1.9h-10.3V32.9a5.837,5.837,0,0,1,1.9,1.7c1.75-1.875,2.275-3.325,2.425-6.75Zm-1.45-2.3V23.325h1.45V25.55Zm-2.425,2.3a7.266,7.266,0,0,1-.55,3.05,4.29,4.29,0,0,1-1.375,1.775V27.85Zm8.375,3.325c-.95.025-1.05.025-1.225.025-.725,0-.9-.125-.9-.625V27.85h2.125Zm-10.3,6.35h10.3v1.75h-10.3Zm-9.55-9.1a19.377,19.377,0,0,1,4.45,3.375L36.7,29.45a23.591,23.591,0,0,0-4.375-3.175Zm3.8,4.9C33.2,37.05,32.2,39.075,30.9,40.65l2.375,2.1c.175-.4.2-.4.375-.75.4-.7.5-.875.825-1.55a38.817,38.817,0,0,0,2.15-5.475Zm39.975-8.35a5.464,5.464,0,0,1,2.525.75,6.194,6.194,0,0,1,3.075,5.55,7,7,0,0,1-3.475,6.25A13.286,13.286,0,0,1,71.6,38.9a7.975,7.975,0,0,1,1.525,2.925,16.345,16.345,0,0,0,3.925-1.05,9.631,9.631,0,0,0,6.075-9.325c0-5.625-3.9-9.275-9.9-9.275a11.222,11.222,0,0,0-8.6,3.5,10.739,10.739,0,0,0-2.75,7.275c0,4.025,2.05,6.925,4.9,6.925,2.05,0,3.65-1.475,5.075-4.7A36.167,36.167,0,0,0,74.45,24.975ZM71.4,25a32.948,32.948,0,0,1-2.075,8.45c-.9,2.15-1.75,3.2-2.575,3.2-1.1,0-1.975-1.625-1.975-3.675a8.37,8.37,0,0,1,3.4-6.75A6.364,6.364,0,0,1,71.4,25Zm27.425,1.4c.525-.025,1.375-.05,2.15-.05h3.7v1.025H101.75c-1.15,0-1.7-.025-2.325-.075a21.513,21.513,0,0,1,.075,2.15v3.9c0,1.175-.025,1.725-.075,2.375.55-.05,1.05-.075,2.125-.075h3.125v1.175H101.45a19.972,19.972,0,0,1-2.475-.1v2.3c.725-.05,1.3-.075,2.45-.075h3.25v1.225H100.8c-1.175,0-2.15-.05-2.725-.1v2.4a19.231,19.231,0,0,1,2.775-.15h10.275a20.521,20.521,0,0,1,2.825.15V40.05a25.067,25.067,0,0,1-2.7.125H107.1V38.95h3.4c.9,0,1.65.025,2.475.1V36.7a14.872,14.872,0,0,1-2.475.125h-3.4V35.65h3.45c1.05,0,1.5.025,2.15.075a18.873,18.873,0,0,1-.075-2.325v-4a15.381,15.381,0,0,1,.075-2.1c-.65.05-1.2.075-2.4.075h-3.2V26.35h4.425a20.106,20.106,0,0,1,2.325.1V24.1a17.391,17.391,0,0,1-2.5.15H107.1v-1.2a45.893,45.893,0,0,0,5.425-.7c.575-.125.575-.125.75-.15l-1.65-2.15c-1.65.65-6.3,1.175-10.35,1.175-.325,0-1.05,0-2-.025a8.265,8.265,0,0,1,.925,2.125c2.225-.025,3.125-.05,4.475-.125v1.05h-3.75a14.871,14.871,0,0,1-2.325-.125v2.3c-.425.025-.775.05-1.35.05h-.525V23c.775-.25.975-.325,1.225-.425.65-.25,1.175-.45,1.35-.5l-1.35-2.2a6.167,6.167,0,0,1-.925.475A21.958,21.958,0,0,1,90.9,21.8a11.933,11.933,0,0,1,.95,2.325c1.225-.225,1.675-.3,2.4-.475v2.825H93a10.764,10.764,0,0,1-1.85-.125V29a10.177,10.177,0,0,1,1.8-.125H94A21.2,21.2,0,0,1,92.975,31.5,18.635,18.635,0,0,1,90.5,35.6a9.338,9.338,0,0,1,1.275,2.6,18.059,18.059,0,0,0,2.6-5.425c-.05.675-.075.975-.075,1.575-.025.65-.025.65-.05,1.85v3.95a25.451,25.451,0,0,1-.15,2.95h2.75a23.6,23.6,0,0,1-.125-2.975v-4.9c0-.2-.025-.525-.025-.925,0-.325-.025-.6-.025-.8a13.857,13.857,0,0,0-.075-1.475,13.766,13.766,0,0,0,1.425,2.725A7.551,7.551,0,0,1,99.2,32.425a11.476,11.476,0,0,1-2.35-3.55h.375a9.941,9.941,0,0,1,1.6.1Zm5.85,2.975V30.6h-2.85V29.375Zm0,3.025v1.225h-2.85V32.4Zm2.425,1.225V32.4h3.15v1.225Zm0-3.025V29.375h3.15V30.6Zm22.8,5.6a18.923,18.923,0,0,1,2.3.125V33.75a12.529,12.529,0,0,1-2.15.125H128c.05-.5.05-.6.075-.875a4.9,4.9,0,0,1,.1-.725h-2.65a5.827,5.827,0,0,1,.075,1v.6h-2.025a18.643,18.643,0,0,1-2.4-.125v2.575a14.989,14.989,0,0,1,2.375-.125h1.625a5.5,5.5,0,0,1-1.85,2.725,8.454,8.454,0,0,1-2.55,1.525,7.823,7.823,0,0,1,1.6,2.225,9.293,9.293,0,0,0,4.675-4.6,10.581,10.581,0,0,0,3.4,3.35,9.416,9.416,0,0,1,1.4-2.35,7.657,7.657,0,0,1-3.475-2.875Zm5.65,2a11.53,11.53,0,0,1-4.8,3.025c.15.175.275.325.375.425.25.3.425.5.5.575.225.325.425.575.825,1.15a16.18,16.18,0,0,0,5-3.525L135.8,38.2h4.175l-1.7,1.5a21.164,21.164,0,0,0,4.525,3.65,12.534,12.534,0,0,1,1.75-2.125,14.878,14.878,0,0,1-4.3-3.025h.85c.725,0,1.25.025,2.15.075-.05-.725-.075-1.6-.075-2.6V27.4c0-.975.025-1.65.075-2.375-.6.05-1.1.075-2.45.075h-1.9a12.487,12.487,0,0,0,.7-1.775h1.775a18.619,18.619,0,0,1,2.675.125V20.775a14.235,14.235,0,0,1-2.675.15H135.1a14.092,14.092,0,0,1-2.65-.15V23.45a14.609,14.609,0,0,1,2.375-.125H136.9a9.022,9.022,0,0,1-.65,1.775h-1.175a15.38,15.38,0,0,1-2.1-.075c.05.525.075,1.45.075,2.4v8.55c0,.825-.025,1.6-.075,2.3.65-.05,1.2-.075,1.975-.075Zm-.05-10.9h5.175v1.475H135.5Zm0,3.525h5.175v1.5H135.5Zm0,3.55h5.175v1.5H135.5Zm-7.45-9.35v-3.15a7.487,7.487,0,0,1,.125-1.65H125.55a10.014,10.014,0,0,1,.1,1.65v3.15h-2.3a15.8,15.8,0,0,1-2.125-.1V27.25a16.353,16.353,0,0,1,2.1-.1h1.45a11.371,11.371,0,0,1-4,3.2,7.656,7.656,0,0,1,1.2,2.15,13.889,13.889,0,0,0,3.75-3.6,10.128,10.128,0,0,0-.075,1.125V30.6a7.256,7.256,0,0,1-.075,1.075h2.55a6.809,6.809,0,0,1-.075-1.125v-.575a7.789,7.789,0,0,0-.1-1.3A14.1,14.1,0,0,0,131.4,31.9a7.644,7.644,0,0,1,1.175-2.1,11.4,11.4,0,0,1-3.675-2.65h1.675a11.351,11.351,0,0,1,1.575.075V24.95a8.1,8.1,0,0,1-1.6.075Zm-6.7-3.475a11.867,11.867,0,0,1,1.9,3.125l1.925-1.025a17.48,17.48,0,0,0-1.975-3.075Zm9-1a11.053,11.053,0,0,1-1.875,3.15l1.7,1.05a21.413,21.413,0,0,0,2.05-3.225Zm28.6,7.875a.44.44,0,0,1,.15-.025,1.148,1.148,0,0,1,.25.025,3.722,3.722,0,0,1,.425.025c.125,0,.4.025.75.025,1.175.1,2.175.125,3.1.125.65,0,1.25-.025,2.25-.05.1,3.475.125,4.7.2,5.325a5.942,5.942,0,0,0-2.225-.35c-3.025,0-5.15,1.7-5.15,4.125,0,2.55,2,4.1,5.275,4.1,2.425,0,4.175-.875,4.75-2.35a4.374,4.374,0,0,0,.2-1.4v-.35c.15.1.725.475,1.575,1.025a9.366,9.366,0,0,1,1.875,1.6l1.2-3.025a4.756,4.756,0,0,1-.7-.425,19.932,19.932,0,0,0-3.925-2.275c-.25-4.2-.25-4.25-.25-5.65v-.55c1.325-.15,2.625-.375,3.475-.55a4.32,4.32,0,0,1,.725-.125l-.1-2.825-.2.05c-.4.15-.4.15-.55.2a25.133,25.133,0,0,1-3.375.6V24.55a24.459,24.459,0,0,1,.175-3.675l-3.125.075a7,7,0,0,1,.075,1.2c0,1.025.025,2.275.025,3.75-.875.05-1.425.05-2.3.05a18.017,18.017,0,0,1-4.525-.4Zm7.175,8V37.1a2.1,2.1,0,0,1-.325,1.35,2.458,2.458,0,0,1-2.025.775c-1.4,0-2.3-.625-2.3-1.55,0-1.025,1-1.65,2.6-1.65A5.233,5.233,0,0,1,166.125,36.425ZM156.35,41.75a4.9,4.9,0,0,1-.05-.675c0-1.65,1-4.75,2.475-7.65L156.7,32.5a4.762,4.762,0,0,1-.3.775c-.25.6-.25.6-.475,1.125-.125.4-.25.675-.3.85-.175.45-.175.45-.3.725H155.3a4.256,4.256,0,0,0,.025-.525v-.4c0-.4,0-.4.025-1.3.025-4.35.975-10.375,2-12.55l-3.375-.35v.1a13.42,13.42,0,0,1-.275,1.85c-.55,2.825-.55,2.825-.675,3.575A44.686,44.686,0,0,0,152.55,33a47.409,47.409,0,0,0,.675,7.95,9.129,9.129,0,0,1,.125.975Z" transform="translate(355.38 6030.136)" fill="#fff"/>
    <path id="パス_1210" data-name="パス 1210" d="M19.475-17.175V-1.7c0,.55-.2.65-1.4.65A22.116,22.116,0,0,1,15-1.25a7.609,7.609,0,0,1,.7,2.8h.925c.525.025.925.025,1.1.025A9.965,9.965,0,0,0,21,1.225c.75-.3,1.125-1.025,1.125-2.25v-16.15c.85.025,1.175.025,1.85.1V-19.8a24.728,24.728,0,0,1-2.825.15H11.7a23.512,23.512,0,0,1-2.875-.15v2.75a27.931,27.931,0,0,1,2.9-.125ZM6.55-14.8a51.6,51.6,0,0,0,2.175-5.55l-2.75-.975A17.849,17.849,0,0,1,4.65-17.1,21.527,21.527,0,0,1,.6-10.95,12.157,12.157,0,0,1,2-8.15a20.449,20.449,0,0,0,1.975-2.775C3.925-9.9,3.9-9.35,3.9-8.125V-1.15a30.4,30.4,0,0,1-.15,3.225H6.675C6.6,1.15,6.55.2,6.55-1.15ZM17.2-12.675a18.987,18.987,0,0,1,.075-1.95,17.164,17.164,0,0,1-1.925.075H11a14.244,14.244,0,0,1-2-.1,15.593,15.593,0,0,1,.1,2.025v7.65A12.306,12.306,0,0,1,8.975-3H11.6V-4.8h3.75a17.163,17.163,0,0,1,1.925.075,18.987,18.987,0,0,1-.075-1.95Zm-5.6.475h3.15v5.025H11.6Zm17.925-1.975a31.376,31.376,0,0,1,4.15-.5c4.85-.35,6.4-.5,8.425-.8a11.055,11.055,0,0,0-3.475,2.525A8.705,8.705,0,0,0,36.25-7.075,6.689,6.689,0,0,0,39.825-1.05,15.04,15.04,0,0,0,45.675.6c.475.075.525.075.85.15l.45-3.4c-.25.025-.475.025-.5.025a15.171,15.171,0,0,1-3.725-.65A4.2,4.2,0,0,1,39.425-7.35c0-2.525,1.875-5.025,5.05-6.675a11.181,11.181,0,0,1,4.95-1.35,3.871,3.871,0,0,1,.525.025l-.175-3.175a13.469,13.469,0,0,1-2.575.2c-6.675.325-10.95.55-12.775.65-3.675.25-3.675.25-4.125.25-.125,0-.4,0-.95-.025Zm15.3,2.4A16.873,16.873,0,0,1,47.45-8.05l1.75-.925a16.2,16.2,0,0,0-2.625-3.675Zm7.35,1.175a14.458,14.458,0,0,0-2.6-3.525L47.9-13.25a18.419,18.419,0,0,1,2.55,3.625ZM57.6-8.025a4.234,4.234,0,0,1,.95.15c1,.225,1.975.375,3.475.575A17.074,17.074,0,0,0,61.9-5.175c0,4.025,2.475,6.2,7.025,6.2a8.982,8.982,0,0,0,5.65-1.65,5.948,5.948,0,0,0,2.4-4.675A7.776,7.776,0,0,0,75.9-8.975a9.608,9.608,0,0,0-1.175-1.575,9.237,9.237,0,0,1-3.1.625A5.823,5.823,0,0,1,73.875-5.7c0,2.45-1.825,3.85-5,3.85a4.548,4.548,0,0,1-3.1-.925A3.126,3.126,0,0,1,64.85-5.35a17.73,17.73,0,0,1,.125-1.775c.975.05,1.2.05,1.6.05a36.41,36.41,0,0,0,3.75-.225,3.213,3.213,0,0,1,.75-.075l.075-2.875a19.987,19.987,0,0,1-4.775.5c-.275,0-.475,0-1.225-.025.15-1.2.225-1.7.475-3.525,1.075.025,1.3.025,1.55.025.9,0,1.7-.05,3.5-.2.55-.05.675-.075,1-.1l.1-2.925a24.835,24.835,0,0,1-5.7.525,20.3,20.3,0,0,1,.8-4.225l-3.325-.3a1.035,1.035,0,0,1,.025.25,29.426,29.426,0,0,1-.5,4.15A18.97,18.97,0,0,1,58.55-17l-.25,2.75c.375.075.5.1.85.175a32.789,32.789,0,0,0,3.575.625c-.125.925-.35,2.6-.45,3.5a16.393,16.393,0,0,1-4.4-.95ZM93.3.5a10.521,10.521,0,0,1,1.3,1.8A12.324,12.324,0,0,0,97.225-.425a12.758,12.758,0,0,0,2.425-5.7,13.093,13.093,0,0,0,2.2,5.025,16.415,16.415,0,0,0,3.35,3.425,9.941,9.941,0,0,1,1.775-2.55,12.14,12.14,0,0,1-4.4-4.475,14.867,14.867,0,0,1-1.775-7.45,7.961,7.961,0,0,1,.1-1.5H98.05c.025.325.075,1,.075,1.475A17.9,17.9,0,0,1,97.3-6a11.7,11.7,0,0,1-3,4.75,39.173,39.173,0,0,0-2.225-3.975L89.9-4.35c.525.9.7,1.2,1,1.775a30.732,30.732,0,0,1-3.15.8V-5.65h4.125c.95,0,1.3.025,1.975.075-.05-.75-.075-1.325-.075-2.375v-4.4a14.582,14.582,0,0,1,.1-2.05,16.518,16.518,0,0,1-2.05.1h-.95v-.925a6.667,6.667,0,0,1,.1-1.25h-2.55a7.306,7.306,0,0,1,.1,1.275v.9h-1.35c-.625,0-.875,0-1.275-.025a16.867,16.867,0,0,0,3.8-4.1,11.843,11.843,0,0,0,3.925,3.775,11.362,11.362,0,0,1,1.425-2.275,8.7,8.7,0,0,1-4.125-3.8h-2.55a11.876,11.876,0,0,1-5.05,4.95,12.4,12.4,0,0,1,.9,2.675,9.224,9.224,0,0,0,.975-.675c.05.65.05,1.025.05,1.6V-1.3a10.022,10.022,0,0,1-1.6.15l.625,2.8c.35-.125.925-.275,1.425-.4A60.382,60.382,0,0,0,91.875-.5c.2.475.3.725.55,1.4ZM87.75-11v-1.3h3.6V-11Zm0,1.925h3.6V-7.65h-3.6Zm11.525-8.4c.15-.5.25-.925.425-1.525a11.018,11.018,0,0,1,.425-1.45l-2.9-.5a12.875,12.875,0,0,1-.55,2.9,15.6,15.6,0,0,1-2.75,5.675,9.13,9.13,0,0,1,2.025,1.85,18.761,18.761,0,0,0,2.475-4.55h5.225a15.189,15.189,0,0,1-2.175,4.9A10.12,10.12,0,0,1,103.75-8.85a26.279,26.279,0,0,0,2.425-6.05,10.671,10.671,0,0,1,.475-1.3l-1.275-1.375a13.933,13.933,0,0,1-2.175.1Zm24.5-.5a20.308,20.308,0,0,1-4.275.75,5.454,5.454,0,0,0,.025-.6,6.192,6.192,0,0,1,.025-.85,8.189,8.189,0,0,1,.225-1.725l-3.175-.025a9.536,9.536,0,0,1,.125,1.9v.925a2.892,2.892,0,0,0-.025.525h-1.075a13.473,13.473,0,0,1-3.45-.275l-.025,2.75a2.762,2.762,0,0,1,.4-.025,5.085,5.085,0,0,1,.55.025c.725.025,1.25.05,1.925.05h1.625v.775c-.025.55-.025.95-.025,1.125h-.275a4.332,4.332,0,0,0-4.325,4.35,4.752,4.752,0,0,0,.6,2.35A3.093,3.093,0,0,0,115.15-4.5a1.323,1.323,0,0,0,.75-.225h.05a3.848,3.848,0,0,0-.725,2.225,2.775,2.775,0,0,0,1.65,2.7,12.11,12.11,0,0,0,5.1.825,29.608,29.608,0,0,0,3.6-.225A9.857,9.857,0,0,0,129.45-.225,3.75,3.75,0,0,0,131.4-3.9a9.016,9.016,0,0,0-.35-2.5c-.2-.7-.2-.7-.275-.975-.125-.525-.125-.525-.225-.85a10.906,10.906,0,0,1-3.35-.8,12.409,12.409,0,0,1,.625,1.75,8.693,8.693,0,0,1,.55,2.875c0,1.2-.55,1.825-1.9,2.15a17.791,17.791,0,0,1-4.125.475c-2.875,0-4.075-.4-4.075-1.375a4.448,4.448,0,0,1,.9-2.275,13.012,13.012,0,0,0,.85-1.4A4.973,4.973,0,0,0,120.6-9.2a3.234,3.234,0,0,0-1.2-2.775c0-.8,0-.925.025-2.65a31.606,31.606,0,0,0,3.725-.475,5.2,5.2,0,0,1,.75-.1Zm-7.275,7.55c.9.05,1.3.525,1.3,1.5a1.944,1.944,0,0,1-1.775,2.075c-.825,0-1.35-.625-1.35-1.6a1.917,1.917,0,0,1,1.725-2A.189.189,0,0,1,116.5-10.425Zm9.075-6.4a22.553,22.553,0,0,1,5.55,5.85l2.4-1.925a26.565,26.565,0,0,0-5.7-5.65Zm22.6.15v3.65h3.65v-3.65Zm0,10.7v3.65h3.65v-3.65ZM171.2,0V-24.16l-4.08,3v-4.32l4.08-3h4.08V0Zm22.12-22.64a1.9,1.9,0,0,0-.6-1.42,1.951,1.951,0,0,0-1.4-.58,1.951,1.951,0,0,0-1.4.58,1.9,1.9,0,0,0-.6,1.42v4.16a1.9,1.9,0,0,0,.6,1.42,1.951,1.951,0,0,0,1.4.58,1.951,1.951,0,0,0,1.4-.58,1.9,1.9,0,0,0,.6-1.42Zm-8.08,1.6q0-1.16.08-1.98a6.525,6.525,0,0,1,.28-1.42,6.744,6.744,0,0,1,.46-1.08,7.568,7.568,0,0,1,.66-1,5.513,5.513,0,0,1,2-1.62,5.9,5.9,0,0,1,2.6-.58,5.9,5.9,0,0,1,2.6.58,5.513,5.513,0,0,1,2,1.62,9.519,9.519,0,0,1,.68,1,5.741,5.741,0,0,1,.48,1.08,5.872,5.872,0,0,1,.26,1.42q.06.82.06,1.98,0,1.28-.04,2.16a6.61,6.61,0,0,1-.24,1.56,3.64,3.64,0,0,1-.62,1.22,7.632,7.632,0,0,1-1.14,1.14,6.073,6.073,0,0,1,1.14,1.12,3.775,3.775,0,0,1,.62,1.32,8.661,8.661,0,0,1,.24,1.86q.04,1.1.04,2.7,0,1.32-.06,2.18a13.247,13.247,0,0,1-.18,1.5,4.123,4.123,0,0,1-.34,1.08,8.617,8.617,0,0,1-.54.92A5.772,5.772,0,0,1,194.36-.5a5.836,5.836,0,0,1-3.04.74,5.836,5.836,0,0,1-3.04-.74,5.772,5.772,0,0,1-1.92-1.78,8.617,8.617,0,0,1-.54-.92,4.123,4.123,0,0,1-.34-1.08,13.247,13.247,0,0,1-.18-1.5q-.06-.86-.06-2.18,0-1.6.04-2.7a8.662,8.662,0,0,1,.24-1.86,3.774,3.774,0,0,1,.62-1.32,6.073,6.073,0,0,1,1.14-1.12,7.632,7.632,0,0,1-1.14-1.14,3.64,3.64,0,0,1-.62-1.22,6.61,6.61,0,0,1-.24-1.56Q185.24-19.76,185.24-21.04Zm8.08,9.6a1.9,1.9,0,0,0-.6-1.42,1.951,1.951,0,0,0-1.4-.58,1.951,1.951,0,0,0-1.4.58,1.9,1.9,0,0,0-.6,1.42v5.6a1.9,1.9,0,0,0,.6,1.42,1.951,1.951,0,0,0,1.4.58,1.951,1.951,0,0,0,1.4-.58,1.9,1.9,0,0,0,.6-1.42ZM206.76.075l1.275,1,15.75-20.15-1.3-1Zm14.4.75A4.6,4.6,0,0,0,224.535-.45a5.9,5.9,0,0,0,1.45-4.325,5.877,5.877,0,0,0-1.45-4.3,4.663,4.663,0,0,0-3.375-1.275,4.766,4.766,0,0,0-3.4,1.275,5.917,5.917,0,0,0-1.45,4.3A5.9,5.9,0,0,0,217.76-.45,4.621,4.621,0,0,0,221.16.825Zm0-9.05a1.8,1.8,0,0,1,1.6.775,4.414,4.414,0,0,1,.675,2.5c0,2.425-.775,3.675-2.275,3.675-1.475,0-2.275-1.25-2.275-3.55a4.347,4.347,0,0,1,.675-2.6A1.74,1.74,0,0,1,221.16-8.225ZM209.385-8.65a4.6,4.6,0,0,0,3.375-1.275,5.9,5.9,0,0,0,1.45-4.325,5.877,5.877,0,0,0-1.45-4.3,4.663,4.663,0,0,0-3.375-1.275c-3.05,0-4.85,2.075-4.85,5.575a5.941,5.941,0,0,0,1.45,4.325A4.621,4.621,0,0,0,209.385-8.65Zm0-9.05a1.924,1.924,0,0,1,1.825,1.125,5.488,5.488,0,0,1,.45,2.325c0,2.25-.825,3.5-2.275,3.5-1.475,0-2.275-1.25-2.275-3.55C207.11-16.475,207.935-17.7,209.385-17.7ZM10.325,46.35a16,16,0,0,1,4.8-.825c2.675,0,4.425,1.4,4.425,3.55a2.569,2.569,0,0,1-2.525,2.775A1.729,1.729,0,0,1,15.45,51a4.817,4.817,0,0,1-.35-2.2,8.668,8.668,0,0,1,.05-1.1,10.546,10.546,0,0,1-2.775,1.1A8.352,8.352,0,0,0,12.8,52a4.036,4.036,0,0,0,4.1,2.775,5.554,5.554,0,0,0,5.675-5.7c0-3.55-2.975-6.1-7.15-6.1a17.336,17.336,0,0,0-5.1.7v-3.25c.95-.1,1.45-.175,2.275-.325,1.725-.3,2.2-.375,2.65-.45l-.1-2.8a27.881,27.881,0,0,1-4.825.95V36.2a15.349,15.349,0,0,1,.15-2.725H7.35A17.129,17.129,0,0,1,7.5,36.35V38c-.275,0-.4,0-1,.025-.35.025-.625.025-.875.025A15.332,15.332,0,0,1,2.6,37.825l.025,2.8A4.687,4.687,0,0,1,3.15,40.6c.075,0,.3,0,.625.025.3,0,1,.025,1.375.025.625,0,.975,0,1.35-.025.825-.05.825-.05,1.025-.05l.025,3.85A13.374,13.374,0,0,0,3.9,46.55a5.336,5.336,0,0,0-2.15,3.7,3.672,3.672,0,0,0,1.375,2.825A7.787,7.787,0,0,0,7.85,54.85a2.2,2.2,0,0,0,2.3-1.45,7.444,7.444,0,0,0,.2-2.125Zm-2.8,4.55c0,.825-.125,1.05-.55,1.05a3.005,3.005,0,0,1-1.6-.55c-.575-.35-.825-.725-.825-1.15,0-.9,1.1-2,2.975-3Zm16.15-10.55a21.2,21.2,0,0,0-4.95-5.125L16.375,36.8a21.348,21.348,0,0,1,5,5.4Zm10.9-4.3a21.509,21.509,0,0,0-3.775-2.9l-1.75,2.025A19.359,19.359,0,0,1,33.2,38.5l1.6-2.075a23.625,23.625,0,0,1,2.475-.1h2.4V38.55H37.65c-1.275,0-1.825-.025-2.525-.075a21.875,21.875,0,0,1,.1,2.575V52.8a30.605,30.605,0,0,1-.15,3.15h2.65V54.7h10.3v1.25H50.7a21.734,21.734,0,0,1-.15-3.225v-11.5c0-1.275.025-2.25.075-2.775-.475.05-1.4.1-2.425.1H45.9V36.325h2.775c1,0,1.825.05,2.675.125v-2.7a21.134,21.134,0,0,1-2.8.15H37.35a16.867,16.867,0,0,1-2.775-.15Zm8.95,4.8v3.7a1.546,1.546,0,0,0,.8,1.525,4.972,4.972,0,0,0,2.475.35,11.812,11.812,0,0,0,1.225-.05v1.9h-10.3V45.9a5.837,5.837,0,0,1,1.9,1.7c1.75-1.875,2.275-3.325,2.425-6.75Zm-1.45-2.3V36.325h1.45V38.55Zm-2.425,2.3a7.266,7.266,0,0,1-.55,3.05,4.29,4.29,0,0,1-1.375,1.775V40.85Zm8.375,3.325c-.95.025-1.05.025-1.225.025-.725,0-.9-.125-.9-.625V40.85h2.125Zm-10.3,6.35h10.3v1.75h-10.3Zm-9.55-9.1a19.377,19.377,0,0,1,4.45,3.375L34.2,42.45a23.591,23.591,0,0,0-4.375-3.175Zm3.8,4.9C30.7,50.05,29.7,52.075,28.4,53.65l2.375,2.1c.175-.4.2-.4.375-.75.4-.7.5-.875.825-1.55a38.817,38.817,0,0,0,2.15-5.475Zm31.975-4.9a.44.44,0,0,1,.15-.025,1.148,1.148,0,0,1,.25.025,3.722,3.722,0,0,1,.425.025c.125,0,.4.025.75.025,1.175.1,2.175.125,3.1.125.65,0,1.25-.025,2.25-.05.1,3.475.125,4.7.2,5.325a5.942,5.942,0,0,0-2.225-.35c-3.025,0-5.15,1.7-5.15,4.125,0,2.55,2,4.1,5.275,4.1,2.425,0,4.175-.875,4.75-2.35a4.374,4.374,0,0,0,.2-1.4v-.35c.15.1.725.475,1.575,1.025a9.366,9.366,0,0,1,1.875,1.6l1.2-3.025a4.756,4.756,0,0,1-.7-.425A19.932,19.932,0,0,0,73.95,47.55c-.25-4.2-.25-4.25-.25-5.65v-.55c1.325-.15,2.625-.375,3.475-.55a4.32,4.32,0,0,1,.725-.125l-.1-2.825-.2.05c-.4.15-.4.15-.55.2a25.133,25.133,0,0,1-3.375.6V37.55a24.46,24.46,0,0,1,.175-3.675l-3.125.075a6.993,6.993,0,0,1,.075,1.2c0,1.025.025,2.275.025,3.75-.875.05-1.425.05-2.3.05A18.017,18.017,0,0,1,64,38.55Zm7.175,8V50.1a2.1,2.1,0,0,1-.325,1.35,2.458,2.458,0,0,1-2.025.775c-1.4,0-2.3-.625-2.3-1.55,0-1.025,1-1.65,2.6-1.65A5.233,5.233,0,0,1,71.125,49.425ZM61.35,54.75a4.9,4.9,0,0,1-.05-.675c0-1.65,1-4.75,2.475-7.65L61.7,45.5a4.764,4.764,0,0,1-.3.775c-.25.6-.25.6-.475,1.125-.125.4-.25.675-.3.85-.175.45-.175.45-.3.725H60.3a4.255,4.255,0,0,0,.025-.525v-.4c0-.4,0-.4.025-1.3.025-4.35.975-10.375,2-12.55l-3.375-.35v.1A13.42,13.42,0,0,1,58.7,35.8c-.55,2.825-.55,2.825-.675,3.575A44.685,44.685,0,0,0,57.55,46a47.41,47.41,0,0,0,.675,7.95,9.123,9.123,0,0,1,.125.975ZM93.3,54.5a10.521,10.521,0,0,1,1.3,1.8,12.324,12.324,0,0,0,2.625-2.725,12.758,12.758,0,0,0,2.425-5.7,13.093,13.093,0,0,0,2.2,5.025,16.415,16.415,0,0,0,3.35,3.425,9.941,9.941,0,0,1,1.775-2.55,12.14,12.14,0,0,1-4.4-4.475,14.867,14.867,0,0,1-1.775-7.45,7.961,7.961,0,0,1,.1-1.5H98.05c.025.325.075,1,.075,1.475A17.9,17.9,0,0,1,97.3,48a11.7,11.7,0,0,1-3,4.75,39.173,39.173,0,0,0-2.225-3.975L89.9,49.65c.525.9.7,1.2,1,1.775a30.731,30.731,0,0,1-3.15.8V48.35h4.125c.95,0,1.3.025,1.975.075-.05-.75-.075-1.325-.075-2.375v-4.4a14.582,14.582,0,0,1,.1-2.05,16.518,16.518,0,0,1-2.05.1h-.95v-.925a6.667,6.667,0,0,1,.1-1.25h-2.55a7.306,7.306,0,0,1,.1,1.275v.9h-1.35c-.625,0-.875,0-1.275-.025a16.867,16.867,0,0,0,3.8-4.1,11.843,11.843,0,0,0,3.925,3.775,11.362,11.362,0,0,1,1.425-2.275,8.7,8.7,0,0,1-4.125-3.8h-2.55a11.876,11.876,0,0,1-5.05,4.95,12.4,12.4,0,0,1,.9,2.675,9.224,9.224,0,0,0,.975-.675c.05.65.05,1.025.05,1.6V52.7a10.022,10.022,0,0,1-1.6.15l.625,2.8c.35-.125.925-.275,1.425-.4a60.383,60.383,0,0,0,6.175-1.75c.2.475.3.725.55,1.4ZM87.75,43V41.7h3.6V43Zm0,1.925h3.6V46.35h-3.6Zm11.525-8.4c.15-.5.25-.925.425-1.525a11.018,11.018,0,0,1,.425-1.45l-2.9-.5a12.875,12.875,0,0,1-.55,2.9,15.6,15.6,0,0,1-2.75,5.675,9.13,9.13,0,0,1,2.025,1.85,18.761,18.761,0,0,0,2.475-4.55h5.225a15.189,15.189,0,0,1-2.175,4.9,10.12,10.12,0,0,1,2.275,1.325,26.279,26.279,0,0,0,2.425-6.05,10.671,10.671,0,0,1,.475-1.3l-1.275-1.375a13.933,13.933,0,0,1-2.175.1Zm33.2,14.825c-.35-.2-.475-.3-.9-.575a22.361,22.361,0,0,0-6.85-3.525c-.025-.6-.025-.6-.1-3.025.975-.05,1.35-.075,1.7-.1,1.875-.175,3-.3,3.375-.35.575-.075,1.2-.15,1.625-.175l-.075-2.75a18.5,18.5,0,0,1-3.1.55c-2.3.25-2.3.25-3.55.325-.025-1.55-.025-1.85-.05-2.475,2.2-.125,3.175-.2,5.375-.5a15.638,15.638,0,0,1,1.975-.225l-.125-2.775a33.823,33.823,0,0,1-7.2.95,15.5,15.5,0,0,1,.175-3.05h-3.175a17.836,17.836,0,0,1,.125,3.15c-.625.025-1.475.05-1.875.05a32.873,32.873,0,0,1-6.725-.525l-.025,2.775h.4c.075,0,.275,0,.55.025,1.675.125,4.9.25,6.125.25.375,0,.775,0,1.575-.025.025,1.425.025,2.275.025,2.5-.7.025-1.55.05-2.05.05a32.237,32.237,0,0,1-5.825-.425l-.05,2.7c.375,0,.625,0,.95.025,2.075.15,3,.175,4.525.175.525,0,1.3-.025,2.5-.05.025,1,.025,1,.05,1.35v.55a4.817,4.817,0,0,1,.025.6,13.061,13.061,0,0,0-1.675-.1c-4.2,0-6.675,1.6-6.675,4.325,0,2.475,2.1,3.9,5.75,3.9a6.656,6.656,0,0,0,4.125-1.075,3.9,3.9,0,0,0,1.4-3.375v-.275a11.125,11.125,0,0,1,1.35.625,16.869,16.869,0,0,1,4.625,3.425Zm-10.55-1.925v.6a3.169,3.169,0,0,1-.3,1.6,2.6,2.6,0,0,1-2.175.8c-1.775,0-2.85-.575-2.85-1.5,0-1.075,1.225-1.725,3.25-1.725A8.774,8.774,0,0,1,121.925,49.425Zm23.2-16.15a25.54,25.54,0,0,1-.75,4.35c-.55.025-.975.025-1.275.025a17.359,17.359,0,0,1-3.375-.225v2.85l1.325.025c.525.025.675.025,1,.025.3,0,.45,0,1.575-.025a38.46,38.46,0,0,1-2.35,5.9,22.756,22.756,0,0,1-2.425,4l2.875,1.6c.15-.3.15-.3.475-.9.95-1.75,1.175-2.2,1.75-3.425a47.986,47.986,0,0,0,2.75-7.25c1.55-.125,3.075-.3,3.975-.45a4.874,4.874,0,0,1,.8-.125l-.075-2.875a21.443,21.443,0,0,1-4,.7c.275-1.1.4-1.6.525-2.2a12.516,12.516,0,0,1,.4-1.675Zm16,6.5a39.464,39.464,0,0,0-7.05-3.35l-1.5,2.425a30.6,30.6,0,0,1,7.2,3.5Zm-.1,11.275a4.48,4.48,0,0,1-.375-.35,9.217,9.217,0,0,0-.875-.675,15.619,15.619,0,0,0-3.95-2.3A26.543,26.543,0,0,1,155.6,44.3a8.333,8.333,0,0,1,.3-2.525l-2.9-.15a13.261,13.261,0,0,0-.2,2.525c0,.75.05,1.725.125,2.875A12.417,12.417,0,0,0,150.6,46.8c-3.175,0-5.4,1.775-5.4,4.3,0,2.55,2.15,4.2,5.45,4.2a5.772,5.772,0,0,0,4.15-1.4,4,4,0,0,0,1.075-2.65c0-.1-.025-.275-.05-.5a15.12,15.12,0,0,1,3.825,3.1Zm-8-1.375s.05.6.05.85c0,1.4-.825,2.1-2.525,2.1-1.55,0-2.45-.6-2.45-1.625,0-1.05,1.05-1.725,2.675-1.725A6.3,6.3,0,0,1,153.025,49.675Zm14.65-14.05a11.945,11.945,0,0,1,.1,1.6c.1,6.925.55,10.55,1.575,13.05,1,2.4,2.35,3.625,4.025,3.625,2.125,0,3.575-2.025,4.875-6.9a12.34,12.34,0,0,1-2.5-2.275,18.431,18.431,0,0,1-1.325,4.525c-.3.7-.65,1.075-1.025,1.075-.8,0-1.6-1.6-2.025-4.2a46.785,46.785,0,0,1-.475-6.7,29.063,29.063,0,0,1,.2-3.8ZM180.3,38a21.822,21.822,0,0,1,3.55,6.15,25.343,25.343,0,0,1,1.6,7.225l3.1-1.175a24.925,24.925,0,0,0-5.625-13.45Zm22.875-.675v3.65h3.65v-3.65Zm0,10.7v3.65h3.65v-3.65ZM226.2,54V29.84l-4.08,3V28.52l4.08-3h4.08V54Zm14.96,0,7.16-24.64h-4.48v3.28h-3.6V25.52H252.4V29.6L245.48,54Zm20.6.075,1.275,1,15.75-20.15-1.3-1Zm14.4.75a4.6,4.6,0,0,0,3.375-1.275,5.9,5.9,0,0,0,1.45-4.325,5.877,5.877,0,0,0-1.45-4.3,4.663,4.663,0,0,0-3.375-1.275,4.766,4.766,0,0,0-3.4,1.275,5.917,5.917,0,0,0-1.45,4.3,5.9,5.9,0,0,0,1.45,4.325A4.621,4.621,0,0,0,276.16,54.825Zm0-9.05a1.8,1.8,0,0,1,1.6.775,4.414,4.414,0,0,1,.675,2.5c0,2.425-.775,3.675-2.275,3.675-1.475,0-2.275-1.25-2.275-3.55a4.347,4.347,0,0,1,.675-2.6A1.74,1.74,0,0,1,276.16,45.775Zm-11.775-.425a4.6,4.6,0,0,0,3.375-1.275,5.9,5.9,0,0,0,1.45-4.325,5.877,5.877,0,0,0-1.45-4.3,4.663,4.663,0,0,0-3.375-1.275c-3.05,0-4.85,2.075-4.85,5.575a5.941,5.941,0,0,0,1.45,4.325A4.621,4.621,0,0,0,264.385,45.35Zm0-9.05a1.924,1.924,0,0,1,1.825,1.125,5.489,5.489,0,0,1,.45,2.325c0,2.25-.825,3.5-2.275,3.5-1.475,0-2.275-1.25-2.275-3.55C262.11,37.525,262.935,36.3,264.385,36.3ZM7.025,89.275v.35A18.344,18.344,0,0,1,6.8,92.05a30.4,30.4,0,0,1-2.35,8.575A16.847,16.847,0,0,1,.875,105.95a10.959,10.959,0,0,1,2.85,2.15,23.869,23.869,0,0,0,4.425-7.725,44.727,44.727,0,0,0,1.975-8.55A10.582,10.582,0,0,1,10.45,89.9Zm7.425.6a12.459,12.459,0,0,1,.35,1.8,39.157,39.157,0,0,0,2.375,9.1,26.263,26.263,0,0,0,4.25,7.35,10.775,10.775,0,0,1,2.75-2.3,24.18,24.18,0,0,1-5.575-10.8,32.363,32.363,0,0,1-1.05-5.75ZM45.6,87.7a20,20,0,0,1-4.65,4.675,36.511,36.511,0,0,1-13.125,6.5,9.4,9.4,0,0,1,1.675,2.85,40.505,40.505,0,0,0,8.925-4.05v8.8a14.061,14.061,0,0,1-.15,2.7h3.5a18.912,18.912,0,0,1-.125-2.775V95.725a44.208,44.208,0,0,0,5.9-5.15,10.3,10.3,0,0,1,.925-.875Zm22.375,4V90.375a20.383,20.383,0,0,1,.1-2.675H64.7a14.33,14.33,0,0,1,.15,2.6v1.4h-5.5a16.045,16.045,0,0,1-3.2-.175V94.6a21.324,21.324,0,0,1,3.15-.125h5.55v12.1a18.616,18.616,0,0,1-.15,2.825h3.4a19.307,19.307,0,0,1-.125-2.8V94.475H73.75a21.522,21.522,0,0,1,3.175.125V91.525A15.619,15.619,0,0,1,73.8,91.7l1.725-.65A15.887,15.887,0,0,0,73.3,87.1l-1.85.65a17,17,0,0,1,2.175,3.95ZM59.25,96.275a20.292,20.292,0,0,1-4.225,9.65,10.146,10.146,0,0,1,2.9,1.6,26.479,26.479,0,0,0,4.2-9.7c.05-.25.1-.4.1-.425.025-.05.05-.2.1-.375Zm11.225.75a6.829,6.829,0,0,1,.4,1.175,33.674,33.674,0,0,0,4.1,9.35,18.355,18.355,0,0,1,2.875-1.75,27.359,27.359,0,0,1-4.425-9.525Zm8.325-7.05a14.589,14.589,0,0,0-2.2-3.8l-1.775.65a17.907,17.907,0,0,1,2.15,3.875Zm4.475,10.175a27.445,27.445,0,0,1,4.075-.125h13.275a27.445,27.445,0,0,1,4.075.125V96.675a24.552,24.552,0,0,1-4.05.175H87.325a24.552,24.552,0,0,1-4.05-.175Zm30.8-11.7a12.564,12.564,0,0,1,.1,2.275c0,7-.575,10.225-2.375,13.1a10.271,10.271,0,0,1-2.575,2.875,8.9,8.9,0,0,1,2.525,2.425,15.92,15.92,0,0,0,3.45-4.625c1.3-2.575,1.85-5.4,2.025-10.275a52.246,52.246,0,0,1,.25-5.6Zm6.625-.175a10.82,10.82,0,0,1,.1,1.65v.75l-.125,14.1a11.2,11.2,0,0,1-.225,2.65l1.6,1.7a10.876,10.876,0,0,1,1.075-.45,16.511,16.511,0,0,0,5.325-3,15.515,15.515,0,0,0,3.975-5.825,10.479,10.479,0,0,1-2.35-2.35,12.216,12.216,0,0,1-2.45,4.575,10.051,10.051,0,0,1-3.825,2.85l.125-14.225a13.547,13.547,0,0,1,.175-2.375Zm25.725,3.05v3.65h3.65v-3.65Zm0,10.7v3.65h3.65v-3.65Zm20.7,5.975V92.9l-2.55,1.875v-2.7l2.55-1.875h2.55V108ZM175.9,93.875a3.888,3.888,0,0,1,.313-1.6,3.744,3.744,0,0,1,.837-1.2,3.6,3.6,0,0,1,1.212-.762,4.067,4.067,0,0,1,2.875,0,3.6,3.6,0,0,1,1.213.762,3.744,3.744,0,0,1,.837,1.2,3.888,3.888,0,0,1,.313,1.6v10.45a3.888,3.888,0,0,1-.312,1.6,3.744,3.744,0,0,1-.837,1.2,3.6,3.6,0,0,1-1.213.762,4.067,4.067,0,0,1-2.875,0,3.6,3.6,0,0,1-1.212-.762,3.744,3.744,0,0,1-.837-1.2,3.888,3.888,0,0,1-.312-1.6Zm2.55,10.45a1.261,1.261,0,0,0,.35.913,1.3,1.3,0,0,0,1.8,0,1.261,1.261,0,0,0,.35-.913V93.875a1.261,1.261,0,0,0-.35-.912,1.3,1.3,0,0,0-1.8,0,1.261,1.261,0,0,0-.35.912Zm12.4,3.75,1.275,1,15.75-20.15-1.3-1Zm14.4.75a4.6,4.6,0,0,0,3.375-1.275,7.138,7.138,0,0,0,0-8.625,4.663,4.663,0,0,0-3.375-1.275,4.766,4.766,0,0,0-3.4,1.275,7.138,7.138,0,0,0,0,8.625A4.621,4.621,0,0,0,205.25,108.825Zm0-9.05a1.8,1.8,0,0,1,1.6.775,4.414,4.414,0,0,1,.675,2.5c0,2.425-.775,3.675-2.275,3.675-1.475,0-2.275-1.25-2.275-3.55a4.347,4.347,0,0,1,.675-2.6A1.74,1.74,0,0,1,205.25,99.775Zm-11.775-.425a4.6,4.6,0,0,0,3.375-1.275,7.138,7.138,0,0,0,0-8.625,4.663,4.663,0,0,0-3.375-1.275c-3.05,0-4.85,2.075-4.85,5.575a5.941,5.941,0,0,0,1.45,4.325A4.621,4.621,0,0,0,193.475,99.35Zm0-9.05a1.924,1.924,0,0,1,1.825,1.125,5.488,5.488,0,0,1,.45,2.325c0,2.25-.825,3.5-2.275,3.5C192,97.25,191.2,96,191.2,93.7,191.2,91.525,192.025,90.3,193.475,90.3ZM20.65,145.975a5.045,5.045,0,0,1-1.975.225l-5.55.025c.075-.8.075-1.025.1-1.575.05-1.3.05-1.3.1-1.825,0-.175.025-.325.025-.475a7.274,7.274,0,0,1,.1-.775L10.1,141.5a4.853,4.853,0,0,1,.075.975v.625c0,.725-.05,2.175-.125,3.125l-4.375.025a14.342,14.342,0,0,1-2.775-.2l.025,3.075a17.753,17.753,0,0,1,2.7-.125l4.15-.025c-.025.175-.075.425-.125.775a12.83,12.83,0,0,1-1.275,4.35,14.077,14.077,0,0,1-6.5,6.3,9.856,9.856,0,0,1,2.25,2.65,18.334,18.334,0,0,0,6.75-6.925,18.3,18.3,0,0,0,2-7.15l5.825-.025a56.122,56.122,0,0,1-.55,8c-.4,2.175-.775,2.725-1.85,2.725A12.963,12.963,0,0,1,13,159.1a7.556,7.556,0,0,1,.575,3.2,19.067,19.067,0,0,0,3.1.275c3,0,3.875-1.025,4.525-5.35.25-1.65.525-5.5.6-8.325a3.905,3.905,0,0,1,.275-1.675Zm27.125-1.55a4.429,4.429,0,0,1-1.825.25l-5.475.075c-.475,0-.875.025-1.2.05a5.9,5.9,0,0,0,.4-.8l.325-.65a5.046,5.046,0,0,1,.325-.7,5.113,5.113,0,0,1,.425-.775l-3.425-.675a9.33,9.33,0,0,1-1.275,3.3,19.231,19.231,0,0,1-6.475,7.25A6.642,6.642,0,0,1,32,153.9a24.469,24.469,0,0,0,5.85-6.4l7.525-.125a19.8,19.8,0,0,1-7.3,10.55,22.514,22.514,0,0,1-5.475,2.95,7.7,7.7,0,0,1,2.125,2.625,25.255,25.255,0,0,0,8.9-6.35,25.93,25.93,0,0,0,5.125-9.65,4.7,4.7,0,0,1,.625-1.5ZM74.85,151.8a24.736,24.736,0,0,1,3.175.125V148.95a17.757,17.757,0,0,1-3.225.175H60.175a17.6,17.6,0,0,1-3.225-.175v2.975a24.735,24.735,0,0,1,3.175-.125h6.1a10.617,10.617,0,0,1-1.1,4.725c-1.05,1.925-2.925,3.25-5.925,4.175a7.932,7.932,0,0,1,2.025,2.75c3.375-1.35,5.2-2.725,6.525-4.925A13.575,13.575,0,0,0,69.5,151.8Zm-15.375-6.1a23.554,23.554,0,0,1,3.175-.125h9.7a23.554,23.554,0,0,1,3.175.125v-3.05a16.96,16.96,0,0,1-3.225.175H62.7a16.96,16.96,0,0,1-3.225-.175Zm27.85-3.25a12.564,12.564,0,0,1,.1,2.275c0,7-.575,10.225-2.375,13.1a10.271,10.271,0,0,1-2.575,2.875A8.9,8.9,0,0,1,85,163.125a15.92,15.92,0,0,0,3.45-4.625c1.3-2.575,1.85-5.4,2.025-10.275a52.246,52.246,0,0,1,.25-5.6Zm6.625-.175a10.82,10.82,0,0,1,.1,1.65v.75l-.125,14.1a11.2,11.2,0,0,1-.225,2.65l1.6,1.7a10.878,10.878,0,0,1,1.075-.45,16.511,16.511,0,0,0,5.325-3,15.515,15.515,0,0,0,3.975-5.825,10.479,10.479,0,0,1-2.35-2.35,12.216,12.216,0,0,1-2.45,4.575,10.051,10.051,0,0,1-3.825,2.85l.125-14.225a13.547,13.547,0,0,1,.175-2.375Zm25.725,3.05v3.65h3.65v-3.65Zm0,10.7v3.65h3.65v-3.65ZM142.4,147.85a1.187,1.187,0,0,0-.375-.888,1.237,1.237,0,0,0-1.75,0,1.187,1.187,0,0,0-.375.888v2.6a1.187,1.187,0,0,0,.375.887,1.237,1.237,0,0,0,1.75,0,1.187,1.187,0,0,0,.375-.887Zm-5.05,1q0-.725.05-1.238a4.079,4.079,0,0,1,.175-.887,4.214,4.214,0,0,1,.288-.675,4.727,4.727,0,0,1,.412-.625,3.445,3.445,0,0,1,1.25-1.012,3.823,3.823,0,0,1,3.25,0,3.445,3.445,0,0,1,1.25,1.012,5.95,5.95,0,0,1,.425.625,3.588,3.588,0,0,1,.3.675,3.671,3.671,0,0,1,.163.887q.037.512.037,1.238,0,.8-.025,1.35a4.132,4.132,0,0,1-.15.975,2.275,2.275,0,0,1-.387.762,4.77,4.77,0,0,1-.712.712,3.8,3.8,0,0,1,.712.7,2.359,2.359,0,0,1,.387.825,5.414,5.414,0,0,1,.15,1.162q.025.687.025,1.688,0,.825-.037,1.363a8.282,8.282,0,0,1-.113.938,2.576,2.576,0,0,1-.213.675,5.384,5.384,0,0,1-.337.575,3.608,3.608,0,0,1-1.2,1.113,4.134,4.134,0,0,1-3.8,0,3.608,3.608,0,0,1-1.2-1.113,5.387,5.387,0,0,1-.338-.575,2.577,2.577,0,0,1-.212-.675,8.282,8.282,0,0,1-.113-.937q-.037-.537-.037-1.363,0-1,.025-1.687a5.413,5.413,0,0,1,.15-1.162,2.359,2.359,0,0,1,.388-.825,3.8,3.8,0,0,1,.712-.7,4.77,4.77,0,0,1-.712-.712,2.275,2.275,0,0,1-.388-.762,4.131,4.131,0,0,1-.15-.975Q137.35,149.65,137.35,148.85Zm5.05,6a1.187,1.187,0,0,0-.375-.888,1.237,1.237,0,0,0-1.75,0,1.187,1.187,0,0,0-.375.888v3.5a1.187,1.187,0,0,0,.375.887,1.237,1.237,0,0,0,1.75,0,1.187,1.187,0,0,0,.375-.887Zm9.9,7.225,1.275,1,15.75-20.15-1.3-1Zm14.4.75a4.6,4.6,0,0,0,3.375-1.275,7.138,7.138,0,0,0,0-8.625,4.663,4.663,0,0,0-3.375-1.275,4.766,4.766,0,0,0-3.4,1.275,7.138,7.138,0,0,0,0,8.625A4.621,4.621,0,0,0,166.7,162.825Zm0-9.05a1.8,1.8,0,0,1,1.6.775,4.414,4.414,0,0,1,.675,2.5c0,2.425-.775,3.675-2.275,3.675-1.475,0-2.275-1.25-2.275-3.55a4.347,4.347,0,0,1,.675-2.6A1.74,1.74,0,0,1,166.7,153.775Zm-11.775-.425a4.6,4.6,0,0,0,3.375-1.275,7.138,7.138,0,0,0,0-8.625,4.663,4.663,0,0,0-3.375-1.275c-3.05,0-4.85,2.075-4.85,5.575a5.941,5.941,0,0,0,1.45,4.325A4.621,4.621,0,0,0,154.925,153.35Zm0-9.05a1.924,1.924,0,0,1,1.825,1.125,5.488,5.488,0,0,1,.45,2.325c0,2.25-.825,3.5-2.275,3.5-1.475,0-2.275-1.25-2.275-3.55C152.65,145.525,153.475,144.3,154.925,144.3ZM20.675,197.225a10.433,10.433,0,0,1-3.075.275H5.5a20.471,20.471,0,0,1-2.075-.125A15.134,15.134,0,0,1,3.5,199.4v4.775a15.056,15.056,0,0,1-.1,2.15l3.35-.025a11.509,11.509,0,0,1-.1-2.2v-3.725l11.9-.025c-.5,5.425-2.375,9.1-5.95,11.525A16.328,16.328,0,0,1,7.525,214.2a10.746,10.746,0,0,1,2.05,2.875,20.319,20.319,0,0,0,7.75-4.95c2.6-2.8,3.775-5.75,4.575-11.6a6.827,6.827,0,0,1,.425-1.775ZM46.6,195.7a20,20,0,0,1-4.65,4.675,36.511,36.511,0,0,1-13.125,6.5,9.4,9.4,0,0,1,1.675,2.85,40.506,40.506,0,0,0,8.925-4.05v8.8a14.061,14.061,0,0,1-.15,2.7h3.5a18.912,18.912,0,0,1-.125-2.775V203.725a44.21,44.21,0,0,0,5.9-5.15,10.3,10.3,0,0,1,.925-.875Zm11.45,4.25a26.248,26.248,0,0,1,6.375,5.075l2.15-2.725a35.407,35.407,0,0,0-6.45-4.825Zm.875,16.5a8.851,8.851,0,0,1,1.65-.425,27,27,0,0,0,9.525-3.75c3.425-2.275,5.8-5.225,7.925-9.8a10.78,10.78,0,0,1-2.65-2.45,20.875,20.875,0,0,1-2.55,5A16.7,16.7,0,0,1,65.4,211.15,23.821,23.821,0,0,1,58,213Zm34.25-17.125v3.65h3.65v-3.65Zm0,10.7v3.65h3.65v-3.65ZM111.425,216l4.475-15.4h-2.8v2.05h-2.25V198.2h7.6v2.55L114.125,216Zm14.375.075,1.275,1,15.75-20.15-1.3-1Zm14.4.75a4.6,4.6,0,0,0,3.375-1.275,7.138,7.138,0,0,0,0-8.625,4.663,4.663,0,0,0-3.375-1.275,4.766,4.766,0,0,0-3.4,1.275,7.138,7.138,0,0,0,0,8.625A4.621,4.621,0,0,0,140.2,216.825Zm0-9.05a1.8,1.8,0,0,1,1.6.775,4.414,4.414,0,0,1,.675,2.5c0,2.425-.775,3.675-2.275,3.675-1.475,0-2.275-1.25-2.275-3.55a4.347,4.347,0,0,1,.675-2.6A1.74,1.74,0,0,1,140.2,207.775Zm-11.775-.425a4.6,4.6,0,0,0,3.375-1.275,7.138,7.138,0,0,0,0-8.625,4.663,4.663,0,0,0-3.375-1.275c-3.05,0-4.85,2.075-4.85,5.575a5.941,5.941,0,0,0,1.45,4.325A4.621,4.621,0,0,0,128.425,207.35Zm0-9.05a1.924,1.924,0,0,1,1.825,1.125,5.488,5.488,0,0,1,.45,2.325c0,2.25-.825,3.5-2.275,3.5-1.475,0-2.275-1.25-2.275-3.55C126.15,199.525,126.975,198.3,128.425,198.3ZM12,263.575a6.223,6.223,0,0,1-1.575,4.2,7.717,7.717,0,0,1-3.7,2.175,5.581,5.581,0,0,1,1.55,2.275c3.15-1.275,4.8-2.875,5.7-5.5a10.338,10.338,0,0,0,.6-3.15H16.55v6.175c0,1.575.7,1.975,3.475,1.975,1.75,0,2.75-.2,3.225-.625.6-.525.875-1.625,1-3.925a7.374,7.374,0,0,1-2.35-1,10.032,10.032,0,0,1-.25,2.65q-.15.45-1.125.45c-1.3,0-1.45-.075-1.45-.575v-5.125H21.15a18.658,18.658,0,0,1,2.55.15v-2.6a14.564,14.564,0,0,1-2.275.125h-.4v-2.175H22a12.836,12.836,0,0,1,2.075.125v-2.6a13.026,13.026,0,0,1-2.075.125h-.975V255.9a5.178,5.178,0,0,1,.1-1.15H18.55a7.829,7.829,0,0,1,.075,1.15v.825H13.25v-.85a6.6,6.6,0,0,1,.075-1.125h-2.5a5.567,5.567,0,0,1,.1,1.175v.8H10.5a13.4,13.4,0,0,1-1.6-.075c.6-.775,1.05-1.4,1.375-1.825l-1.9-1.45A12.428,12.428,0,0,1,7.1,255.6c.025-.775.025-1.1.025-1.625a29.468,29.468,0,0,1,.15-4.8H4.4a19.9,19.9,0,0,1,.175,3.625c0,5.975-.275,9.5-.975,11.85a11.134,11.134,0,0,1-2.875,5.2,7.507,7.507,0,0,1,1.8,2.15,14.447,14.447,0,0,0,3.425-6.1,17.82,17.82,0,0,0,2.225,2.725,10.778,10.778,0,0,1,1.375-2.45A13.01,13.01,0,0,1,6.6,262.95c.175-1.2.25-2.075.375-4.1A16.576,16.576,0,0,0,8.55,257.1v2.1a11.8,11.8,0,0,1,1.95-.125h.425v2.175H10.6a12.659,12.659,0,0,1-1.925-.1v2.55a15.307,15.307,0,0,1,2.425-.125Zm1.25-2.325v-2.175h5.375v2.175Zm3.85-7.55h3.725a22.128,22.128,0,0,1,2.325.125V251.2a16.628,16.628,0,0,1-2.4.15H17.1v-.6a8.279,8.279,0,0,1,.125-1.7h-2.65a8.468,8.468,0,0,1,.125,1.675v.625H11.825a16.927,16.927,0,0,1-2.425-.125v2.6a22.281,22.281,0,0,1,2.425-.125H14.7v.85a10.5,10.5,0,0,1-.075,1.45h2.55a10.419,10.419,0,0,1-.075-1.475ZM2.95,261.5a31.677,31.677,0,0,0,.8-7.4l-2.1-.25v.65a27.614,27.614,0,0,1-.175,2.875,11.774,11.774,0,0,1-.6,3.075Zm29.7-9.25v2.075h-.6c-1.325,0-1.925-.025-2.575-.075.075.85.1,1.675.1,2.65v11.85a28.408,28.408,0,0,1-.15,3.3H31.95v-1.375h5.975v.925h2.45c-.075-.825-.1-1.725-.1-2.875v-11.75c0-1.125.025-1.9.075-2.725-.55.05-1.175.075-2.575.075H37.4V252.25h.975a17.583,17.583,0,0,1,2.525.125V249.7a17.23,17.23,0,0,1-2.775.15h-6.4a16.867,16.867,0,0,1-2.775-.15v2.675c.825-.075,1.7-.125,2.75-.125Zm2.025,0h.7v2.075h-.7Zm-2.75,9.85a6.823,6.823,0,0,1,1.175,1.8c1.175-1.95,1.55-3.725,1.575-7.4h.7v4.875c0,.925.3,1.125,1.75,1.125h.8v1.775h-6Zm0-5.6h1c-.05,2.7-.35,4.3-1,5.45Zm5.125,0h.875v3.925c-.8,0-.875-.025-.875-.425Zm-5.125,9.95h6v1.925h-6ZM47,254.2H43.25a18.467,18.467,0,0,1-2.325-.125v2.7a20.355,20.355,0,0,1,2.325-.125H47v11.8c0,.475-.2.6-1.1.6a21.626,21.626,0,0,1-2.95-.2,10.787,10.787,0,0,1,.65,2.75c.875.05,1.575.075,2.15.075,1.85,0,2.55-.1,3.15-.5.525-.35.75-1,.75-2.2V256.65a15.081,15.081,0,0,1,2.125.125V254.05a15.308,15.308,0,0,1-2.125.15v-2.175a23.146,23.146,0,0,1,.15-2.95H46.825a17.006,17.006,0,0,1,.175,2.95Zm-.75,10.1a27.122,27.122,0,0,0-3-5.9L41,259.575a23.936,23.936,0,0,1,2.9,6.125Zm19.425-10.975v3.65h3.65v-3.65Zm0,10.7v3.65h3.65v-3.65ZM90.025,252.2l-2.9,7.475.05.05a1,1,0,0,1,.387-.163,3.067,3.067,0,0,1,.688-.062,2.5,2.5,0,0,1,1.25.325,2.537,2.537,0,0,1,.9.825,2.825,2.825,0,0,1,.275.55,4.211,4.211,0,0,1,.175.725q.05.45.075,1.138t.025,1.737q0,.875-.025,1.438t-.075.938a3.512,3.512,0,0,1-.187.675,4.618,4.618,0,0,1-.287.575,3.448,3.448,0,0,1-1.338,1.275,3.924,3.924,0,0,1-1.887.45,3.768,3.768,0,0,1-1.875-.462,3.633,3.633,0,0,1-1.325-1.263,3.3,3.3,0,0,1-.312-.575,2.673,2.673,0,0,1-.162-.675,6.336,6.336,0,0,1-.1-.937q-.025-.562-.025-1.437,0-.825.025-1.362t.075-.937a3.985,3.985,0,0,1,.15-.687q.1-.313.225-.663l3.35-8.95ZM88.4,263.025a1.206,1.206,0,0,0-.375-.925,1.269,1.269,0,0,0-1.75,0,1.206,1.206,0,0,0-.375.925v3.3a1.206,1.206,0,0,0,.375.925,1.269,1.269,0,0,0,1.75,0,1.206,1.206,0,0,0,.375-.925Zm9.9,7.05,1.275,1,15.75-20.15-1.3-1Zm14.4.75a4.6,4.6,0,0,0,3.375-1.275,7.138,7.138,0,0,0,0-8.625,4.663,4.663,0,0,0-3.375-1.275,4.766,4.766,0,0,0-3.4,1.275,7.138,7.138,0,0,0,0,8.625A4.621,4.621,0,0,0,112.7,270.825Zm0-9.05a1.8,1.8,0,0,1,1.6.775,4.414,4.414,0,0,1,.675,2.5c0,2.425-.775,3.675-2.275,3.675-1.475,0-2.275-1.25-2.275-3.55a4.347,4.347,0,0,1,.675-2.6A1.74,1.74,0,0,1,112.7,261.775Zm-11.775-.425a4.6,4.6,0,0,0,3.375-1.275,7.138,7.138,0,0,0,0-8.625,4.663,4.663,0,0,0-3.375-1.275c-3.05,0-4.85,2.075-4.85,5.575a5.941,5.941,0,0,0,1.45,4.325A4.621,4.621,0,0,0,100.925,261.35Zm0-9.05a1.924,1.924,0,0,1,1.825,1.125,5.488,5.488,0,0,1,.45,2.325c0,2.25-.825,3.5-2.275,3.5-1.475,0-2.275-1.25-2.275-3.55C98.65,253.525,99.475,252.3,100.925,252.3Zm-97.1,70.475a26.222,26.222,0,0,1-.15,3.025H6.65v-1.5H18.275v1.5H21.3a25.326,25.326,0,0,1-.15-3.025v-16.15a22.589,22.589,0,0,1,.125-2.55,20.121,20.121,0,0,1-2.7.125H6.475a22.074,22.074,0,0,1-2.775-.125c.075.825.125,1.7.125,2.675ZM6.65,306.85H18.275v5.8H6.65Zm0,8.425H18.275v6.4H6.65Zm30.225-5.45a23.51,23.51,0,0,1-8.7,9.6,8.617,8.617,0,0,1,1.7,2.625,23.9,23.9,0,0,0,4.05-3.5v2.825a17.884,17.884,0,0,1,2.5-.15H38.4v1.7a23.084,23.084,0,0,1-.175,3.1h3.15a22.59,22.59,0,0,1-.175-3.1v-1.7h2.225a18.138,18.138,0,0,1,2.5.15v-2.85a27.87,27.87,0,0,0,4.2,3.475,10.2,10.2,0,0,1,1.7-2.725,21.391,21.391,0,0,1-5.45-4.2,24.79,24.79,0,0,1-3.75-5.25h5.35a29.526,29.526,0,0,1,3.025.15v-3.05a20.526,20.526,0,0,1-3.025.175H41.2v-1.8a12.481,12.481,0,0,1,.175-2.3H38.25a15.54,15.54,0,0,1,.15,2.325V307.1H31.975A21.658,21.658,0,0,1,29,306.925v3.05a28.545,28.545,0,0,1,2.975-.15Zm4.325,8.7v-3.95a20.2,20.2,0,0,0-.225-2.775,27.06,27.06,0,0,0,4.85,6.625,15.642,15.642,0,0,1-2.2.1Zm-2.8,0H36.275a15.825,15.825,0,0,1-2.225-.1A24.791,24.791,0,0,0,38.6,311.8a24.482,24.482,0,0,0-.2,2.8ZM62.075,306.05a21.51,21.51,0,0,0-3.775-2.9l-1.75,2.025A19.359,19.359,0,0,1,60.7,308.5l1.6-2.075a23.631,23.631,0,0,1,2.475-.1h2.4v2.225H65.15c-1.275,0-1.825-.025-2.525-.075a21.875,21.875,0,0,1,.1,2.575V322.8a30.606,30.606,0,0,1-.15,3.15h2.65V324.7h10.3v1.25H78.2a21.734,21.734,0,0,1-.15-3.225v-11.5c0-1.275.025-2.25.075-2.775-.475.05-1.4.1-2.425.1H73.4v-2.225h2.775c1,0,1.825.05,2.675.125v-2.7a21.132,21.132,0,0,1-2.8.15H64.85a16.867,16.867,0,0,1-2.775-.15Zm8.95,4.8v3.7a1.546,1.546,0,0,0,.8,1.525,4.972,4.972,0,0,0,2.475.35,11.814,11.814,0,0,0,1.225-.05v1.9h-10.3V315.9a5.837,5.837,0,0,1,1.9,1.7c1.75-1.875,2.275-3.325,2.425-6.75Zm-1.45-2.3v-2.225h1.45v2.225Zm-2.425,2.3a7.266,7.266,0,0,1-.55,3.05,4.29,4.29,0,0,1-1.375,1.775V310.85Zm8.375,3.325c-.95.025-1.05.025-1.225.025-.725,0-.9-.125-.9-.625V310.85h2.125Zm-10.3,6.35h10.3v1.75h-10.3Zm-9.55-9.1a19.378,19.378,0,0,1,4.45,3.375l1.575-2.35a23.591,23.591,0,0,0-4.375-3.175Zm3.8,4.9c-1.275,3.725-2.275,5.75-3.575,7.325l2.375,2.1c.175-.4.2-.4.375-.75.4-.7.5-.875.825-1.55a38.819,38.819,0,0,0,2.15-5.475Zm33.7-9v3.65h3.65v-3.65Zm0,10.7v3.65h3.65v-3.65Zm20.7-4.325a3.222,3.222,0,0,0,1.588-.275q.437-.275.438-1.275v-2.3a1.243,1.243,0,0,0-.338-.9,1.209,1.209,0,0,0-.912-.35,1.077,1.077,0,0,0-.963.425,1.476,1.476,0,0,0-.287.825v1.45h-2.55v-1.475a3.705,3.705,0,0,1,.3-1.475,3.586,3.586,0,0,1,.825-1.2,4.1,4.1,0,0,1,1.225-.8,3.767,3.767,0,0,1,1.5-.3,3.331,3.331,0,0,1,1.738.413,4,4,0,0,1,1.037.837,5.466,5.466,0,0,1,.438.6,2.92,2.92,0,0,1,.313.725,9.969,9.969,0,0,1,.225,2.45q0,.925-.037,1.5a3.138,3.138,0,0,1-.187.95,1.9,1.9,0,0,1-.487.675,5.781,5.781,0,0,1-.863.6,4.842,4.842,0,0,1,.912.7,2.058,2.058,0,0,1,.463.75,3.875,3.875,0,0,1,.175,1.063q.025.612.025,1.563,0,.875-.037,1.45a7.462,7.462,0,0,1-.112.95,2.964,2.964,0,0,1-.2.675,4.115,4.115,0,0,1-.325.575,4.039,4.039,0,0,1-1.213,1.163,3.6,3.6,0,0,1-1.937.462,4.494,4.494,0,0,1-1.275-.2,3.476,3.476,0,0,1-1.225-.65,3.529,3.529,0,0,1-.912-1.175,3.94,3.94,0,0,1-.363-1.775V318.9h2.55v1.325a1.449,1.449,0,0,0,.338.987,1.268,1.268,0,0,0,1.825,0,1.524,1.524,0,0,0,.338-1.038v-2.55a1.755,1.755,0,0,0-.4-1.375,1.112,1.112,0,0,0-.613-.25,8.232,8.232,0,0,0-1.012-.05ZM125.8,324.075l1.275,1,15.75-20.15-1.3-1Zm14.4.75a4.6,4.6,0,0,0,3.375-1.275,7.138,7.138,0,0,0,0-8.625,4.663,4.663,0,0,0-3.375-1.275,4.766,4.766,0,0,0-3.4,1.275,7.138,7.138,0,0,0,0,8.625A4.621,4.621,0,0,0,140.2,324.825Zm0-9.05a1.8,1.8,0,0,1,1.6.775,4.414,4.414,0,0,1,.675,2.5c0,2.425-.775,3.675-2.275,3.675-1.475,0-2.275-1.25-2.275-3.55a4.347,4.347,0,0,1,.675-2.6A1.74,1.74,0,0,1,140.2,315.775Zm-11.775-.425a4.6,4.6,0,0,0,3.375-1.275,7.138,7.138,0,0,0,0-8.625,4.663,4.663,0,0,0-3.375-1.275c-3.05,0-4.85,2.075-4.85,5.575a5.941,5.941,0,0,0,1.45,4.325A4.621,4.621,0,0,0,128.425,315.35Zm0-9.05a1.924,1.924,0,0,1,1.825,1.125,5.489,5.489,0,0,1,.45,2.325c0,2.25-.825,3.5-2.275,3.5-1.475,0-2.275-1.25-2.275-3.55C126.15,307.525,126.975,306.3,128.425,306.3ZM11.05,362.45v4.075H4.075a21.367,21.367,0,0,1-2.75-.15V369.2a20.83,20.83,0,0,1,2.75-.15H11.05V376H5.925v-3.5a13.286,13.286,0,0,1,.1-1.85H3.175a11.7,11.7,0,0,1,.125,2v4.775a13.3,13.3,0,0,1-.15,2.45H5.925V378.45h13.15v1.45H21.85a13.784,13.784,0,0,1-.15-2.45v-4.8a11.219,11.219,0,0,1,.125-1.975H18.95a10.826,10.826,0,0,1,.125,1.825V376h-5.3v-6.95h7.2a21.222,21.222,0,0,1,2.725.15v-2.825a20.684,20.684,0,0,1-2.725.15h-7.2V362.45H19.4a22.7,22.7,0,0,1,2.55.125V359.8a16.922,16.922,0,0,1-2.55.125H8.05a15.662,15.662,0,0,0,.625-1.45c.2-.45.375-.875.55-1.2l-3-.55a7.871,7.871,0,0,1-.575,1.75,16.079,16.079,0,0,1-4.1,5.85,16.342,16.342,0,0,1,2.35,1.75,21.211,21.211,0,0,0,2.825-3.625Zm21.6-2.2v2.075h-.6c-1.325,0-1.925-.025-2.575-.075.075.85.1,1.675.1,2.65v11.85a28.408,28.408,0,0,1-.15,3.3H31.95v-1.375h5.975v.925h2.45c-.075-.825-.1-1.725-.1-2.875v-11.75c0-1.125.025-1.9.075-2.725-.55.05-1.175.075-2.575.075H37.4V360.25h.975a17.583,17.583,0,0,1,2.525.125V357.7a17.23,17.23,0,0,1-2.775.15h-6.4a16.867,16.867,0,0,1-2.775-.15v2.675c.825-.075,1.7-.125,2.75-.125Zm2.025,0h.7v2.075h-.7Zm-2.75,9.85a6.823,6.823,0,0,1,1.175,1.8c1.175-1.95,1.55-3.725,1.575-7.4h.7v4.875c0,.925.3,1.125,1.75,1.125h.8v1.775h-6Zm0-5.6h1c-.05,2.7-.35,4.3-1,5.45Zm5.125,0h.875v3.925c-.8,0-.875-.025-.875-.425Zm-5.125,9.95h6v1.925h-6ZM47,362.2H43.25a18.47,18.47,0,0,1-2.325-.125v2.7a20.355,20.355,0,0,1,2.325-.125H47v11.8c0,.475-.2.6-1.1.6a21.626,21.626,0,0,1-2.95-.2,10.787,10.787,0,0,1,.65,2.75c.875.05,1.575.075,2.15.075,1.85,0,2.55-.1,3.15-.5.525-.35.75-1,.75-2.2V364.65a15.081,15.081,0,0,1,2.125.125V362.05a15.309,15.309,0,0,1-2.125.15v-2.175a23.146,23.146,0,0,1,.15-2.95H46.825a17.005,17.005,0,0,1,.175,2.95Zm-.75,10.1a27.122,27.122,0,0,0-3-5.9L41,367.575a23.936,23.936,0,0,1,2.9,6.125Zm15.775-13.025v.35a18.344,18.344,0,0,1-.225,2.425,30.4,30.4,0,0,1-2.35,8.575,16.847,16.847,0,0,1-3.575,5.325,10.958,10.958,0,0,1,2.85,2.15,23.869,23.869,0,0,0,4.425-7.725,44.727,44.727,0,0,0,1.975-8.55,10.584,10.584,0,0,1,.325-1.925Zm7.425.6a12.459,12.459,0,0,1,.35,1.8,39.157,39.157,0,0,0,2.375,9.1,26.262,26.262,0,0,0,4.25,7.35,10.774,10.774,0,0,1,2.75-2.3,24.18,24.18,0,0,1-5.575-10.8,32.363,32.363,0,0,1-1.05-5.75ZM100.6,357.7a20,20,0,0,1-4.65,4.675,36.51,36.51,0,0,1-13.125,6.5,9.4,9.4,0,0,1,1.675,2.85,40.505,40.505,0,0,0,8.925-4.05v8.8a14.061,14.061,0,0,1-.15,2.7h3.5a18.912,18.912,0,0,1-.125-2.775V365.725a44.211,44.211,0,0,0,5.9-5.15,10.3,10.3,0,0,1,.925-.875Zm19.075,3.625v3.65h3.65v-3.65Zm0,10.7v3.65h3.65v-3.65Zm20.7,5.975V362.9l-2.55,1.875v-2.7l2.55-1.875h2.55V378Zm11.925.075,1.275,1,15.75-20.15-1.3-1Zm14.4.75a4.6,4.6,0,0,0,3.375-1.275,7.138,7.138,0,0,0,0-8.625,4.663,4.663,0,0,0-3.375-1.275,4.766,4.766,0,0,0-3.4,1.275,7.138,7.138,0,0,0,0,8.625A4.621,4.621,0,0,0,166.7,378.825Zm0-9.05a1.8,1.8,0,0,1,1.6.775,4.414,4.414,0,0,1,.675,2.5c0,2.425-.775,3.675-2.275,3.675-1.475,0-2.275-1.25-2.275-3.55a4.347,4.347,0,0,1,.675-2.6A1.74,1.74,0,0,1,166.7,369.775Zm-11.775-.425a4.6,4.6,0,0,0,3.375-1.275,7.138,7.138,0,0,0,0-8.625,4.663,4.663,0,0,0-3.375-1.275c-3.05,0-4.85,2.075-4.85,5.575a5.941,5.941,0,0,0,1.45,4.325A4.621,4.621,0,0,0,154.925,369.35Zm0-9.05a1.924,1.924,0,0,1,1.825,1.125,5.489,5.489,0,0,1,.45,2.325c0,2.25-.825,3.5-2.275,3.5-1.475,0-2.275-1.25-2.275-3.55C152.65,361.525,153.475,360.3,154.925,360.3Z" transform="translate(359.38 6312.136)" fill="#0052aa"/>
    <path id="パス_1209" data-name="パス 1209" d="M7.475-17.025A12.69,12.69,0,0,1,7.6-19.35H4.25a13.2,13.2,0,0,1,.1,2.3l.025,11.6a18.838,18.838,0,0,0,.075,2.3A3.456,3.456,0,0,0,5.675-.6C6.65.15,8.375.475,11.525.475c1.525,0,4.675-.15,6.15-.3,2.65-.25,2.775-.275,3.3-.275l-.15-3.325a14.771,14.771,0,0,1-2.85.6,47.147,47.147,0,0,1-5.8.4c-2.425,0-3.85-.2-4.275-.65C7.55-3.425,7.45-4,7.45-5.45a1.659,1.659,0,0,1,.025-.325v-3.3a42.328,42.328,0,0,0,10.675-3.45c1.325-.65,2.075-1,2.25-1.075l-2-2.825c-1.625,1.525-7.15,3.75-10.925,4.45Zm10.1-2.7A15.989,15.989,0,0,1,20.05-15.9l1.8-.825a15.9,15.9,0,0,0-2.5-3.8Zm7.3,1.475a14.708,14.708,0,0,0-2.45-3.625l-1.725.8a18.605,18.605,0,0,1,2.4,3.725Zm2.4,10.4a27.445,27.445,0,0,1,4.075-.125H44.625A27.445,27.445,0,0,1,48.7-7.85v-3.475a24.551,24.551,0,0,1-4.05.175H31.325a24.551,24.551,0,0,1-4.05-.175Zm30.8-11.7a12.565,12.565,0,0,1,.1,2.275c0,7-.575,10.225-2.375,13.1A10.271,10.271,0,0,1,53.225-1.3,8.9,8.9,0,0,1,55.75,1.125,15.92,15.92,0,0,0,59.2-3.5c1.3-2.575,1.85-5.4,2.025-10.275a52.246,52.246,0,0,1,.25-5.6Zm6.625-.175a10.82,10.82,0,0,1,.1,1.65v.75l-.125,14.1a11.2,11.2,0,0,1-.225,2.65l1.6,1.7a10.877,10.877,0,0,1,1.075-.45,16.511,16.511,0,0,0,5.325-3A15.515,15.515,0,0,0,76.425-8.15a10.479,10.479,0,0,1-2.35-2.35,12.216,12.216,0,0,1-2.45,4.575A10.051,10.051,0,0,1,67.8-3.075L67.925-17.3a13.547,13.547,0,0,1,.175-2.375Zm39.325,21.95A19.214,19.214,0,0,1,100.85-2.75,16.912,16.912,0,0,1,99.525-9.6a16.4,16.4,0,0,1,1.3-6.625A19.482,19.482,0,0,1,104-21.2h-3.5a20.181,20.181,0,0,0-2.75,4.925A17.692,17.692,0,0,0,96.475-9.6,18.4,18.4,0,0,0,97.8-2.7a20.023,20.023,0,0,0,2.725,4.925ZM115.45-8.45c0,.275,0,.45-.025.775H111.85a15.1,15.1,0,0,1-2.625-.15V-5.15a15.972,15.972,0,0,1,2.625-.15h3.2a5.683,5.683,0,0,1-1.775,2.775A10.337,10.337,0,0,1,108.65-.3a9.125,9.125,0,0,1,1.775,2.45C113.5.95,115-.05,116.25-1.7a8.792,8.792,0,0,0,1.55-3.6h3.225V-.45c0,1.75.8,2.175,4.2,2.175,4.8,0,5.25-.375,5.8-4.6a8.53,8.53,0,0,1-2.7-.875,5.848,5.848,0,0,1-.45,2.5c-.275.35-.875.475-2.25.475a5.782,5.782,0,0,1-1.6-.125c-.375-.1-.4-.15-.4-.675V-5.3H127.6a19.073,19.073,0,0,1,2.625.15V-7.825a14.931,14.931,0,0,1-2.625.15h-3.975v-2.7a20.153,20.153,0,0,1,2.4.1V-11.35A25.058,25.058,0,0,0,130.15-9.1a10.2,10.2,0,0,1,1.4-2.475,22.184,22.184,0,0,1-4-1.9,19.366,19.366,0,0,0,2.25-2.3c.5-.55.55-.625.7-.775l-2.3-1.3a14.741,14.741,0,0,1-2.6,3.025c-.525-.4-.8-.625-1.475-1.2a25.817,25.817,0,0,0,1.85-1.875c.575-.675.9-1.05.975-1.15l-2.3-1.275c-.075.125-.075.125-.2.325a4.384,4.384,0,0,1-.525.725,13.143,13.143,0,0,1-1.475,1.6A6.155,6.155,0,0,1,120.9-20.4a14.4,14.4,0,0,1-2.15.1h-4.625a14.286,14.286,0,0,1-2.075-.125v2.6l-.8-.65L109.2-16.95a17.126,17.126,0,0,1,3.5,3.275,21.444,21.444,0,0,1-4.775,2.425,9.459,9.459,0,0,1,1.475,2.3,24.646,24.646,0,0,0,4.4-2.425v1.1c.625-.05.9-.075,1.675-.1Zm2.675-1.925h2.9v2.7H118.1V-8.25Zm-.9-7.55a16.168,16.168,0,0,1-2.45,2.675,21.509,21.509,0,0,0-2.725-2.575,11.129,11.129,0,0,1,1.525-.1Zm-.95,5.2H115.6a20.874,20.874,0,0,0,4.225-4.525,20.943,20.943,0,0,0,4.25,4.525h-7.8Zm28.1,1.475a12.851,12.851,0,0,1,2.175-.125H150V-8.75h-4.5a14.019,14.019,0,0,1-2-.1,19.263,19.263,0,0,1,.1,2.25v5.525c0,2.3,1,2.725,6.575,2.725a40.783,40.783,0,0,0,5.775-.275,2.474,2.474,0,0,0,2.025-1.55,10.654,10.654,0,0,0,.7-3.625,9.6,9.6,0,0,1-2.525-.8,4.456,4.456,0,0,0,.925-2.1,60.747,60.747,0,0,0,.675-8.275c.075-2.6.075-2.625.15-3.6a19.962,19.962,0,0,1-2.25.125H147.6c.125-.3.15-.375.35-.875.15-.375.175-.425.475-1.2l-2.825-.65a11.7,11.7,0,0,1-1.475,3.85A14.58,14.58,0,0,1,140.9-13.3a6.764,6.764,0,0,1,2.025,1.9,19.81,19.81,0,0,0,1.45-1.625ZM155.1-15.875a52.654,52.654,0,0,1-.55,8.2c-.2,1.075-.325,1.25-1,1.25-.325,0-.55-.025-.95-.05a15.368,15.368,0,0,1-.05-1.675V-11.8a16.687,16.687,0,0,1,.1-2.075,15.97,15.97,0,0,1-2.275.1H146.55c-.625,0-.95,0-1.575-.05a20.643,20.643,0,0,0,1.325-2.05ZM151.025-6.35a9.1,9.1,0,0,1,.425,2.3c.8.075,1.5.125,2.35.125a3.217,3.217,0,0,0,2.225-.55c-.075,1.8-.225,2.65-.6,3.05-.425.45-1.575.575-5.35.575a20.914,20.914,0,0,1-3.225-.175c-.475-.125-.6-.3-.6-.775V-6.35Zm-14.5-12.625a23.508,23.508,0,0,1,4.175,3.4l1.725-2.1A23.978,23.978,0,0,0,138.2-20.9Zm-.9,6.3a23.587,23.587,0,0,1,4.45,3.3l1.5-2.2a31.494,31.494,0,0,0-4.425-3.1Zm3.85,4.85c-1.075,3.275-2.575,6.3-3.725,7.5l2.3,2.075c.3-.55.325-.6.35-.65a36.869,36.869,0,0,0,3.225-7.325Zm29.85-10.125a21.509,21.509,0,0,0-3.775-2.9l-1.75,2.025a19.359,19.359,0,0,1,4.15,3.325l1.6-2.075a23.626,23.626,0,0,1,2.475-.1h2.4v2.225H172.4c-1.275,0-1.825-.025-2.525-.075a21.875,21.875,0,0,1,.1,2.575V-1.2a30.6,30.6,0,0,1-.15,3.15h2.65V.7h10.3V1.95h2.675a21.734,21.734,0,0,1-.15-3.225v-11.5c0-1.275.025-2.25.075-2.775-.475.05-1.4.1-2.425.1h-2.3v-2.225h2.775c1,0,1.825.05,2.675.125v-2.7a21.134,21.134,0,0,1-2.8.15H172.1a16.867,16.867,0,0,1-2.775-.15Zm8.95,4.8v3.7a1.546,1.546,0,0,0,.8,1.525,4.972,4.972,0,0,0,2.475.35,11.811,11.811,0,0,0,1.225-.05v1.9h-10.3V-8.1a5.837,5.837,0,0,1,1.9,1.7c1.75-1.875,2.275-3.325,2.425-6.75Zm-1.45-2.3v-2.225h1.45v2.225Zm-2.425,2.3a7.266,7.266,0,0,1-.55,3.05,4.29,4.29,0,0,1-1.375,1.775V-13.15Zm8.375,3.325c-.95.025-1.05.025-1.225.025-.725,0-.9-.125-.9-.625V-13.15h2.125Zm-10.3,6.35h10.3v1.75h-10.3Zm-9.55-9.1a19.377,19.377,0,0,1,4.45,3.375l1.575-2.35a23.591,23.591,0,0,0-4.375-3.175Zm3.8,4.9C165.45-3.95,164.45-1.925,163.15-.35l2.375,2.1c.175-.4.2-.4.375-.75.4-.7.5-.875.825-1.55a38.816,38.816,0,0,0,2.15-5.475ZM197.6-13.1a18.267,18.267,0,0,1,2.15-.1h5.2a17.117,17.117,0,0,1,2.1.1v-1.45a26.736,26.736,0,0,0,5.675,3.1,11.41,11.41,0,0,1,1.6-2.55,24.336,24.336,0,0,1-6.075-2.9,18.054,18.054,0,0,1-4.65-4.075h-2.925a17.725,17.725,0,0,1-4.05,3.775,28.1,28.1,0,0,1-6.325,3.3,7.659,7.659,0,0,1,1.65,2.475,35.817,35.817,0,0,0,5.65-3.225Zm2.05-2.35c-.35,0-.525,0-.925-.025a22.248,22.248,0,0,0,3.45-3.25,25.287,25.287,0,0,0,3.6,3.275H199.65Zm6.875,8.625L209.5-9.6c.625-.575.95-.875.95-.9l-1.55-1.425a14.752,14.752,0,0,1-2.2.1H195.625a10.292,10.292,0,0,1-1.925-.125V-9.4a16.346,16.346,0,0,1,2.4-.125h9.85l-3.15,2.7h-7.1a16.518,16.518,0,0,1-2.05-.1,14.455,14.455,0,0,1,.125,1.95V-.15a14.617,14.617,0,0,1-.15,2.175h2.85v-1h11.6v1h2.875A13.889,13.889,0,0,1,210.825-.1V-4.875a16.779,16.779,0,0,1,.1-2.05,14.078,14.078,0,0,1-1.975.1ZM196.475-4.45h11.6V-1.4h-11.6Zm34.55-13.525a20.307,20.307,0,0,1-4.275.75,5.456,5.456,0,0,0,.025-.6,6.19,6.19,0,0,1,.025-.85,8.189,8.189,0,0,1,.225-1.725l-3.175-.025a9.536,9.536,0,0,1,.125,1.9v.925a2.891,2.891,0,0,0-.025.525h-1.075a13.473,13.473,0,0,1-3.45-.275L219.4-14.6a2.762,2.762,0,0,1,.4-.025,5.085,5.085,0,0,1,.55.025c.725.025,1.25.05,1.925.05H223.9v.775c-.025.55-.025.95-.025,1.125H223.6a4.332,4.332,0,0,0-4.325,4.35,4.752,4.752,0,0,0,.6,2.35A3.093,3.093,0,0,0,222.4-4.5a1.323,1.323,0,0,0,.75-.225h.05a3.848,3.848,0,0,0-.725,2.225,2.775,2.775,0,0,0,1.65,2.7,12.11,12.11,0,0,0,5.1.825,29.608,29.608,0,0,0,3.6-.225A9.857,9.857,0,0,0,236.7-.225,3.75,3.75,0,0,0,238.65-3.9a9.016,9.016,0,0,0-.35-2.5c-.2-.7-.2-.7-.275-.975-.125-.525-.125-.525-.225-.85a10.906,10.906,0,0,1-3.35-.8,12.409,12.409,0,0,1,.625,1.75,8.693,8.693,0,0,1,.55,2.875c0,1.2-.55,1.825-1.9,2.15a17.791,17.791,0,0,1-4.125.475c-2.875,0-4.075-.4-4.075-1.375a4.448,4.448,0,0,1,.9-2.275,13.011,13.011,0,0,0,.85-1.4A4.973,4.973,0,0,0,227.85-9.2a3.234,3.234,0,0,0-1.2-2.775c0-.8,0-.925.025-2.65A31.605,31.605,0,0,0,230.4-15.1a5.2,5.2,0,0,1,.75-.1Zm-7.275,7.55c.9.05,1.3.525,1.3,1.5a1.944,1.944,0,0,1-1.775,2.075c-.825,0-1.35-.625-1.35-1.6a1.917,1.917,0,0,1,1.725-2A.189.189,0,0,1,223.75-10.425Zm9.075-6.4a22.553,22.553,0,0,1,5.55,5.85l2.4-1.925a26.565,26.565,0,0,0-5.7-5.65ZM249,2.225A20.885,20.885,0,0,0,251.725-2.7a18.776,18.776,0,0,0,1.3-6.9,17.692,17.692,0,0,0-1.275-6.675,19.954,19.954,0,0,0-2.725-4.925H245.5a20.426,20.426,0,0,1,3.2,4.975A16.23,16.23,0,0,1,249.975-9.6a16.828,16.828,0,0,1-1.325,6.85,19.214,19.214,0,0,1-3.175,4.975Zm33.925-18.9v3.65h3.65v-3.65Zm0,10.7v3.65h3.65v-3.65ZM11.625,47.1q3.45,0,4.763-.825T17.7,42.45v-6.9a3.729,3.729,0,0,0-1.013-2.7A3.626,3.626,0,0,0,13.95,31.8a3.23,3.23,0,0,0-2.888,1.275A4.429,4.429,0,0,0,10.2,35.55V39.9H2.55V35.475a11.116,11.116,0,0,1,.9-4.425,10.759,10.759,0,0,1,2.475-3.6A12.3,12.3,0,0,1,9.6,25.05a11.3,11.3,0,0,1,4.5-.9,9.994,9.994,0,0,1,5.213,1.237A12,12,0,0,1,22.425,27.9a16.387,16.387,0,0,1,1.313,1.8,8.76,8.76,0,0,1,.937,2.175,29.906,29.906,0,0,1,.675,7.35q0,2.775-.113,4.5a9.414,9.414,0,0,1-.562,2.85A5.7,5.7,0,0,1,23.213,48.6a17.345,17.345,0,0,1-2.588,1.8,14.529,14.529,0,0,1,2.738,2.1,6.175,6.175,0,0,1,1.388,2.25,11.623,11.623,0,0,1,.525,3.188q.075,1.838.075,4.688,0,2.625-.113,4.35a22.383,22.383,0,0,1-.337,2.85,8.89,8.89,0,0,1-.6,2.025,12.344,12.344,0,0,1-.975,1.725,12.118,12.118,0,0,1-3.637,3.488,10.814,10.814,0,0,1-5.812,1.387,13.483,13.483,0,0,1-3.825-.6A10.428,10.428,0,0,1,6.375,75.9a10.587,10.587,0,0,1-2.737-3.525A11.821,11.821,0,0,1,2.55,67.05V62.7H10.2v3.975a4.347,4.347,0,0,0,1.012,2.962A3.445,3.445,0,0,0,13.95,70.8a3.445,3.445,0,0,0,2.737-1.163A4.572,4.572,0,0,0,17.7,66.525v-7.65q0-3.15-1.2-4.125A3.337,3.337,0,0,0,14.663,54a24.691,24.691,0,0,0-3.038-.15ZM37.95,35.625a11.663,11.663,0,0,1,.938-4.8,11.231,11.231,0,0,1,2.513-3.6,10.809,10.809,0,0,1,3.638-2.288,12.2,12.2,0,0,1,8.625,0A10.809,10.809,0,0,1,57.3,27.225a11.231,11.231,0,0,1,2.512,3.6,11.663,11.663,0,0,1,.938,4.8v31.35a11.663,11.663,0,0,1-.937,4.8,11.231,11.231,0,0,1-2.512,3.6,10.809,10.809,0,0,1-3.638,2.287,12.2,12.2,0,0,1-8.625,0A10.809,10.809,0,0,1,41.4,75.375a11.231,11.231,0,0,1-2.513-3.6,11.663,11.663,0,0,1-.937-4.8Zm7.65,31.35a3.783,3.783,0,0,0,1.05,2.738,3.9,3.9,0,0,0,5.4,0,3.783,3.783,0,0,0,1.05-2.738V35.625a3.783,3.783,0,0,0-1.05-2.737,3.9,3.9,0,0,0-5.4,0,3.783,3.783,0,0,0-1.05,2.737Zm29.2,11.1,1.275,1,15.75-20.15-1.3-1Zm14.4.75a4.6,4.6,0,0,0,3.375-1.275,5.9,5.9,0,0,0,1.45-4.325,5.877,5.877,0,0,0-1.45-4.3A4.663,4.663,0,0,0,89.2,67.65a4.766,4.766,0,0,0-3.4,1.275,5.917,5.917,0,0,0-1.45,4.3A5.9,5.9,0,0,0,85.8,77.55,4.621,4.621,0,0,0,89.2,78.825Zm0-9.05a1.8,1.8,0,0,1,1.6.775,4.414,4.414,0,0,1,.675,2.5c0,2.425-.775,3.675-2.275,3.675-1.475,0-2.275-1.25-2.275-3.55a4.347,4.347,0,0,1,.675-2.6A1.74,1.74,0,0,1,89.2,69.775ZM77.425,69.35A4.6,4.6,0,0,0,80.8,68.075a5.9,5.9,0,0,0,1.45-4.325,5.877,5.877,0,0,0-1.45-4.3,4.663,4.663,0,0,0-3.375-1.275c-3.05,0-4.85,2.075-4.85,5.575a5.941,5.941,0,0,0,1.45,4.325A4.621,4.621,0,0,0,77.425,69.35Zm0-9.05a1.924,1.924,0,0,1,1.825,1.125,5.488,5.488,0,0,1,.45,2.325c0,2.25-.825,3.5-2.275,3.5-1.475,0-2.275-1.25-2.275-3.55C75.15,61.525,75.975,60.3,77.425,60.3Z" transform="translate(359.38 6166.136)" fill="#0052aa"/>
  </g>
</svg>
