<svg xmlns="http://www.w3.org/2000/svg" xmlns:xlink="http://www.w3.org/1999/xlink" width="428.789" height="403.92" viewBox="0 0 428.789 403.92">
  <defs>
    <linearGradient id="linear-gradient" y1="0.5" x2="1" y2="0.5" gradientUnits="objectBoundingBox">
      <stop offset="0" stop-color="#03a8e5"/>
      <stop offset="1" stop-color="#012869"/>
    </linearGradient>
    <filter id="パス_301" x="0" y="0" width="428.789" height="403.92" filterUnits="userSpaceOnUse">
      <feOffset dx="10" dy="10" input="SourceAlpha"/>
      <feGaussianBlur stdDeviation="15" result="blur"/>
      <feFlood flood-opacity="0.161"/>
      <feComposite operator="in" in2="blur"/>
      <feComposite in="SourceGraphic"/>
    </filter>
    <linearGradient id="linear-gradient-2" x1="-0.03" xlink:href="#linear-gradient"/>
    <filter id="長方形_223" x="142.906" y="36.025" width="124" height="80" filterUnits="userSpaceOnUse">
      <feOffset input="SourceAlpha"/>
      <feGaussianBlur stdDeviation="5" result="blur-2"/>
      <feFlood flood-color="#013778" flood-opacity="0.322"/>
      <feComposite operator="in" in2="blur-2"/>
      <feComposite in="SourceGraphic"/>
    </filter>
  </defs>
  <g id="昼食" transform="translate(-1072.38 -5419.746)">
    <g id="グループ_252" data-name="グループ 252" transform="translate(1107.38 5454.746)">
      <g transform="matrix(1, 0, 0, 1, -35, -35)" filter="url(#パス_301)">
        <path id="パス_301-2" data-name="パス 301" d="M0,0H338.789V313.92H0Z" transform="translate(35 35)" fill="url(#linear-gradient)"/>
      </g>
      <path id="パス_302" data-name="パス 302" d="M0,0H330.789V305.92H0Z" transform="translate(4 4)" fill="#edf9ff"/>
    </g>
    <g id="グループ_259" data-name="グループ 259" transform="translate(1260.475 5517.574)">
      <path id="パス_660" data-name="パス 660" d="M243.7,1589.5a10.157,10.157,0,0,1-4.625-1.109l-2.946,4.561a70.19,70.19,0,0,0,77.42,2.661l-4.15-6.3h-.317a20.148,20.148,0,0,1-3.1-.253,60.888,60.888,0,0,1-58.635-.222,10.043,10.043,0,0,1-3.643.665Z" transform="translate(-191.881 -1465.063)" fill="#a2dff6"/>
      <path id="パス_661" data-name="パス 661" d="M222.165,1247.5a60.925,60.925,0,0,1,50.462,95.1,19.5,19.5,0,0,1-1.647,8.965l3.009,4.593a70.456,70.456,0,1,0-106.975-3.9l.95-1.457a10.378,10.378,0,0,1-2.186-13.685l1.457-2.249a60.956,60.956,0,0,1,54.929-87.367Z" transform="translate(-137.174 -1238.001)" fill="#a2dff6"/>
      <path id="パス_662" data-name="パス 662" d="M268.292,1311.909a42.435,42.435,0,0,1,39.914,56.7,28.756,28.756,0,0,1,2.471,2.344,44.812,44.812,0,0,0,3.168-16.662,45.552,45.552,0,0,0-91.1,0,44.043,44.043,0,0,0,1.14,10.073l2.471-3.833v-.031a44.765,44.765,0,0,1-.443-6.209,42.423,42.423,0,0,1,42.385-42.385Z" transform="translate(-183.201 -1283.842)" fill="#a2dff6"/>
      <path id="パス_663" data-name="パス 663" d="M297.064,1550.474a45.593,45.593,0,0,0,33.325,2.059c-.158-.222-.317-.443-.475-.7-.443-.666-.855-1.362-1.235-2.059a42.784,42.784,0,0,1-12.323,1.806,42.266,42.266,0,0,1-17.549-3.8l-1.742,2.693Z" transform="translate(-231.365 -1438.747)" fill="#a2dff6"/>
      <path id="パス_664" data-name="パス 664" d="M111.954,1552.491l3.167,2.04a3.379,3.379,0,0,0,4.671-1.01l34.643-53.77a3.38,3.38,0,0,1,4.671-1.01,5.881,5.881,0,0,0,8.13-1.758l3.34-5.185,3.243-5.034,8.257-12.815a3.38,3.38,0,0,0-1.011-4.671l-.6-.386a3.379,3.379,0,0,0-4.671,1.01l-7.358,11.421a1.66,1.66,0,0,1-2.562.281,1.7,1.7,0,0,1-.193-2.13l7.325-11.369a3.379,3.379,0,0,0-1.011-4.67l-.6-.386a3.379,3.379,0,0,0-4.671,1.01l-7.358,11.42a1.658,1.658,0,0,1-2.292.5h0a1.659,1.659,0,0,1-.5-2.293l7.358-11.42a3.379,3.379,0,0,0-1.011-4.671l-.6-.386a3.379,3.379,0,0,0-4.671,1.01l-8.256,12.815-3.243,5.034-3.34,5.184a5.881,5.881,0,0,0,1.759,8.13,3.38,3.38,0,0,1,1.011,4.671l-34.642,53.769a3.379,3.379,0,0,0,1.01,4.671Z" transform="translate(-110.405 -1379.703)" fill="#a2dff6"/>
      <path id="パス_665" data-name="パス 665" d="M417.471,1483.951c-6.081-9.234-17.637-14.61-24.536-10.067s-6.527,17.283-.447,26.517c4.715,7.161,11.475,10.092,17.492,8.938l35.755,54.3a3.379,3.379,0,0,0,4.681.963l3.146-2.071a3.379,3.379,0,0,0,.964-4.68l-35.755-54.3c3.437-5.071,3.415-12.439-1.3-19.6Z" transform="translate(-290.193 -1389.795)" fill="#a2dff6"/>
    </g>
    <g transform="matrix(1, 0, 0, 1, 1072.38, 5419.75)" filter="url(#長方形_223)">
      <rect id="長方形_223-2" data-name="長方形 223" width="94" height="50" transform="translate(157.91 51.03)" fill="url(#linear-gradient-2)"/>
    </g>
    <text id="昼食-2" data-name="昼食" transform="translate(1258.312 5500.937)" fill="#fff" font-size="17" font-family="HiraginoSans-W6, Hiragino Sans" letter-spacing="0.2em"><tspan x="0" y="0">昼食</tspan></text>
    <text id="外食_46_" data-name="外食：46％　" transform="translate(1133.286 5573.771)" fill="#0052aa" font-size="22" font-family="HiraginoSans-W6, Hiragino Sans" letter-spacing="0.1em"><tspan x="0" y="0">外食：</tspan><tspan y="0" font-size="44" font-family="DINCondensed-Bold, DIN Condensed" font-weight="700">46</tspan><tspan y="0">％　</tspan></text>
    <text id="お弁当持参_28_" data-name="お弁当持参：28％" transform="translate(1133.286 5621.771)" fill="#0052aa" font-size="17" font-family="HiraginoSans-W6, Hiragino Sans" letter-spacing="0.05em"><tspan x="0" y="0">お弁当持参：</tspan><tspan y="0" font-size="34" font-family="DINCondensed-Bold, DIN Condensed" font-weight="700">28</tspan><tspan y="0">％</tspan></text>
    <text id="コンビニ_14_" data-name="コンビニ：14％" transform="translate(1133.286 5662.771)" fill="#0052aa" font-size="14" font-family="HiraginoSans-W6, Hiragino Sans" letter-spacing="0.05em"><tspan x="0" y="0">コンビニ：</tspan><tspan y="0" font-size="27" font-family="DINCondensed-Bold, DIN Condensed" font-weight="700">14</tspan><tspan y="0">％</tspan></text>
    <text id="オフィスビル内の社員食堂_11_" data-name="オフィスビル内の社員食堂：11％" transform="translate(1133.286 5700.771)" fill="#0052aa" font-size="13" font-family="HiraginoSans-W6, Hiragino Sans" letter-spacing="0.05em"><tspan x="0" y="0">オフィスビル内の社員食堂：</tspan><tspan y="0" font-size="26" font-family="DINCondensed-Bold, DIN Condensed" font-weight="700">11</tspan><tspan y="0">％</tspan></text>
    <text id="その他_1_自宅に帰って食べている_" data-name="その他：1％（自宅に帰って食べている）" transform="translate(1133.286 5740.771)" fill="#0052aa" font-size="14" font-family="HiraginoSans-W6, Hiragino Sans" letter-spacing="0.05em"><tspan x="0" y="0">その他：</tspan><tspan y="0" font-size="28" font-family="DINCondensed-Bold, DIN Condensed" font-weight="700">1</tspan><tspan y="0">％</tspan><tspan y="0" font-size="8">（自宅に帰って食べている）</tspan></text>
  </g>
</svg>
