<svg xmlns="http://www.w3.org/2000/svg" xmlns:xlink="http://www.w3.org/1999/xlink" width="426.132" height="497.984" viewBox="0 0 426.132 497.984">
  <defs>
    <linearGradient id="linear-gradient" y1="0.5" x2="1" y2="0.5" gradientUnits="objectBoundingBox">
      <stop offset="0" stop-color="#03a8e5"/>
      <stop offset="1" stop-color="#012869"/>
    </linearGradient>
    <filter id="パス_301" x="0" y="0" width="426.132" height="497.984" filterUnits="userSpaceOnUse">
      <feOffset dx="10" dy="10" input="SourceAlpha"/>
      <feGaussianBlur stdDeviation="15" result="blur"/>
      <feFlood flood-opacity="0.161"/>
      <feComposite operator="in" in2="blur"/>
      <feComposite in="SourceGraphic"/>
    </filter>
    <linearGradient id="linear-gradient-2" x1="-0.03" xlink:href="#linear-gradient"/>
    <filter id="長方形_227" x="20.441" y="32.419" width="298" height="64" filterUnits="userSpaceOnUse">
      <feOffset input="SourceAlpha"/>
      <feGaussianBlur stdDeviation="5" result="blur-2"/>
      <feFlood flood-color="#013778" flood-opacity="0.322"/>
      <feComposite operator="in" in2="blur-2"/>
      <feComposite in="SourceGraphic"/>
    </filter>
  </defs>
  <g id="堺商事の特に良いところ" transform="translate(-288.653 -6731.252)">
    <g id="グループ_257" data-name="グループ 257" transform="translate(323.653 6766.252)">
      <g transform="matrix(1, 0, 0, 1, -35, -35)" filter="url(#パス_301)">
        <path id="パス_301-2" data-name="パス 301" d="M0,0H336.132V407.984H0Z" transform="translate(35 35)" fill="url(#linear-gradient)"/>
      </g>
      <path id="パス_302" data-name="パス 302" d="M0,0H328.132V399.984H0Z" transform="translate(4 4)" fill="#edf9ff"/>
    </g>
    <g id="グループ_263" data-name="グループ 263" transform="translate(406.994 6821.029)" opacity="0.753">
      <path id="パス_669" data-name="パス 669" d="M1661.891,3005.8c-1.336-1.214,2.9-3.277-.85-2.793-2.308.3-2.884,2.785-.365,4.495,3.4,2.309,1.822,4.252,3.523,5.346s4.37,1.217,3.523-.364a32.69,32.69,0,0,0-5.832-6.683Z" transform="translate(-1550.465 -2963.257)" fill="#a8e1f7"/>
      <path id="パス_670" data-name="パス 670" d="M1572.149,3018.875c-3.992,1.425-5.1-.972-7.289.607s-1.72-5.282-3.644-4.98c-3.888.607.85,3.468-.608,3.374s-.729,2.215,1.822,2.458-1.215,1.215-2.308.607.729-1.215-2.065-2.187-1.579-3.987-4.738-6.246-5.993-4.125-4.131-1.165c.878,1.4,4.131,1.321,4.981,4.063,0,0-1.7-.661-1.094,1.161s-2.917.635-2.065,2.551c.486,1.093-4.374-1.336-3.037-1.58s4.738.243,3.158-1.7-5.572-4.495-5.7-5.467-1.215,2.065-4.378,1.093-.49,2.187-4.256,3.159,1.164,2.43-4.642,4.131.458,1.983.939,1.7c3.31-1.943,11.356-2.429,13.057-1.943s-1.168,4.3,1.093,4.5c4.252.364,6.925,4.13,8.261,3.4s-.3-4.522,4.738-2.673c7.532,2.766,8.179.165,9.812,1.093,2.944,1.673,3.816-6.568,2.094-5.953Z" transform="translate(-1471.413 -2967.462)" fill="#a8e1f7"/>
      <path id="パス_671" data-name="パス 671" d="M1621.842,3007.952c-.365-1.215-1.58-2.794-3.159-.608s-1.215,4.738,1.7,3.888,3.766-1.215,4.495-.243,6.392.551,4.859-.973c-4.69-4.661-7.532-.85-7.9-2.064Z" transform="translate(-1525.237 -2965.287)" fill="#a8e1f7"/>
      <path id="パス_672" data-name="パス 672" d="M1543.363,2905.323c.02,0,.056,0,.073.009a.243.243,0,0,0,.176.1c-.1.063-.185-.041-.249-.11Zm-.588,2.838a31.6,31.6,0,0,1-1.766,4.339,119.126,119.126,0,0,1-11.282,17.417q-4.694,6.057-9.582,12.033a71.4,71.4,0,0,0-18.036-16.644c5.811-3.689,11.644-7.307,17.521-10.725,6.193-3.495,12.689-6.933,19.017-8.667a14.75,14.75,0,0,1,4.152-.661,4.082,4.082,0,0,0,.474.058,9.089,9.089,0,0,1-.5,2.849Zm-10.964,65.246c-1.407,2.352-2.144-9.186-3.933-7.4-1.823,1.823-.365,6.8-1.944,8.869s1.579,9.233-1.944,11.784c-.607-2.064-4.252-14.7-5.71-17.615s2.065,5.466-5.345-4.5c-.959.131-1.9.2-2.8.231q6.517-7.586,12.7-15.448a68.436,68.436,0,0,1,8.974,24.071Zm-2.312,66.008a34.142,34.142,0,0,1,2.628,7.88c.524,2.589.293,5.835-2.218,6.813-2.42.93-5.32.226-7.906-.589a53.838,53.838,0,0,1-7.672-3.289,121.69,121.69,0,0,1-10.825-6.462,71.493,71.493,0,0,0,18.3-18.017,109.961,109.961,0,0,1,7.69,13.663Zm-120.675,11.438a119.161,119.161,0,0,1-17.424,11.279,31.676,31.676,0,0,1-4.342,1.766,9.034,9.034,0,0,1-2.865.5,4.4,4.4,0,0,0-.06-.488,15.148,15.148,0,0,1,.656-4.158c1.738-6.33,5.179-12.824,8.677-19.016,3.421-5.876,7.038-11.708,10.731-17.516a71.4,71.4,0,0,0,16.662,18.05c-3.985,3.25-7.994,6.458-12.036,9.587Zm-24.612,13.693c0-.018-.006-.056-.009-.078.058.063.181.146.111.258a.25.25,0,0,0-.1-.18Zm12.524-132.667a43.217,43.217,0,0,1-3.011-7.76c-.632-2.558-1.13-5.706.67-7.562,1.9-1.75,5.036-1.266,7.608-.63a44.087,44.087,0,0,1,7.785,2.989,118.715,118.715,0,0,1,13.553,7.887,71.491,71.491,0,0,0-18.49,18.833,117.982,117.982,0,0,1-8.115-13.757Zm105.553,30.785c-.275.307-.564.6-.84.909-1.2.288-3.608-4.479-5.4-4-1.823.486.972,3.037,2.065,4.738.934,1.454,1.075-.788,1.777.948q-4.494,4.956-9.087,9.827c-2.558-4.943-6.915-11.242-11.52-13.083,1.28,1.745,7.892,12.162,9.091,15.71q-7.732,8.144-15.72,16.05c-4.5,4.579-9.1,9.061-13.74,13.5q-3.658-3.492-7.244-7.053c.184-1.479.4-3.149-.571-4.666-6.925,1.349-3.766-2.685-6.074-2.685a4.083,4.083,0,0,0-.595.1c-7.307-7.5-14.41-15.213-21.164-23.214,1.456-6.1,10.218-9.2,13.984-16.73.85-1.7-4.13-1.215-1.579-4.252,1.934-2.3-.486-4.495,3.037-4.495s4.616.972,5.952-1.7c.535-1.07-3.28-2.794-1.73-2.916,3.243-.254,9.505-4.252,10.963-4.374s-.676-2.43,2.187-2.551c1.582-.067,1.094,1.7,1.336,1.944s4.131,0,5.588,0,.243-3.888,5.467-4.738c-4.374.486-4.738-.85-3.4-2.672-2.308.364-1.822.243-3.28,4.13s-4.374,2.187-4.252,1.7.243-2.429-.972-1.822c-4.423,2.211-3.887-2.43-1.7-2.551s5.1-4.981,10.569-4.981,9.336,2.222,8.139,2.43c-2.794.486-2.065,1.214-.972,1.214,2.079,0,2.794-3.523,9.962-3.4,2.068.035-3.766-2.673,1.58-1.822,1.934.307-.486-2.673.972-2.552.29.024.651.072,1.046.127a69.184,69.184,0,0,1,32.719,23.769c-5.347,6.516-10.848,12.941-16.591,19.165Zm-102.821,36.026c1.58.729,9.9,8.029,9.476,10.326-1.7,9.111,2.916,13.485,2.794,16.157-.084,1.854-1.353,1.83.167,5.062a68.635,68.635,0,0,1-17.034-44.885c1.934,5.25,3.862,9.835,4.6,13.34Zm11.9-58.409c.486-.57,1.006-1.107,1.51-1.661a4.311,4.311,0,0,1-1.51,1.661Zm4.864-4.642c.941-.731.686-.829.023-.51a69.4,69.4,0,0,1,8.647-7.071c-2.571,2.788-8.682,9.2-9.4,10.791-.85,1.893-1.458-1.509.729-3.21Zm13.849,59.528c-1.56-2.325-4.495-4.617-4.616-6.2s-4.859-8.5-3.887-9.476a2.8,2.8,0,0,0,.193-.237c4.513,5.388,9.2,10.622,13.992,15.742-2.785.557-5.23.839-5.681.167Zm48.431,38.78c-1.324,2.613-4.164,6.047-14.658,6.047,0-6.285-7.132-9.115-7.125-20.339q1.1-1.006,2.189-2.02c6.31,5.678,12.821,11.143,19.594,16.311Zm12.919-10.6c.243-2.551,4.859-3.28,6.56-7.41,3.645,2.794-4.616,16.4-7.654,15.307-2.86-1.03.85-5.345,1.094-7.9Zm1.7-39.648c1.6,4.278,5.91-1.025,9.107-.078,1.392,5.588-7.167,17.251-9.962,18.952s-3.28,7.046-3.523,10.083,3.887,8.625-5.588,12.756c-1.033.45-.708,1.353-.873,2.537q-9.148-7.466-17.822-15.5,6.908-6.527,13.672-13.2,7.579-7.684,14.988-15.552Zm-63.145-58.8c1.487-.841,3.021-1.6,4.574-2.333a27.916,27.916,0,0,1-4.574,2.333Zm11.753.406c.243.729,2.892.266,3.645.729,1.58.972-4.13,2.065-4.738,1.7s.85-3.159,1.093-2.43Zm2.308,9.6c-.365,1.215-4.5,3.159-3.887,1.7,1.258-3.019,4.616-2.794,4.373-3.766s.877-1.378,3.4-1.822c2.03-.357-2.43,1.944.85,3.914,1.494.9-.063,2.646-1.336,2.769s-4.525,1.944-4.252.729,2.065-2.794,2.673-3.644-1.458-1.094-1.822.121Zm9.233-15.311c-3.645,1.156-8.626,4.742-10.812,4.62s-4.738,1.58-6.074,1.58-7.167,4.494-7.289,2.916,3.4-4.617,7.411-6.317c2.35-1,3.14-1.465,3.234-2.009q3.064-1.147,6.255-2c3.677.625,9.51.507,7.276,1.216Zm11.906.489c-1.337,1.58-5.345,1.823-5.345.365a47.336,47.336,0,0,1,5.345-.365Zm13.363,3.4c-2.673.972-4.5-2.187,0-3.037-1.336,1.7-1.336,2.065,0,3.037Zm54.116,65.18c-.03.571-.043,1.146-.087,1.712-.224-.983-.13-1.47.087-1.712Zm-6.615-4.559c3.158,4.009.243,6.56,0,5.345a39.24,39.24,0,0,1,0-5.345Zm-17.98-16.036c0,3.645-2.673,8.382-4.44,8.5s-5.036,4.252-6.858,6.074c-1.155,1.154-2.354,1.134-3.049.411q7.08-7.564,13.907-15.359c.153.133.277.224.44.37Zm39.531-64.392a4.006,4.006,0,0,0-1.976-2.272,6.568,6.568,0,0,0-2.87-.538,18.234,18.234,0,0,0-5.438,1.146c-6.909,2.506-13.078,6.432-19.122,10.417-5.808,3.889-11.41,8.066-16.9,12.378a70.561,70.561,0,0,0-77.2,1.42,89.848,89.848,0,0,0-13.2-9.631,45.616,45.616,0,0,0-8.07-3.9,18.048,18.048,0,0,0-4.928-1.058,8.6,8.6,0,0,0-6.371,1.982,8.984,8.984,0,0,0-2.773,6.353,20.027,20.027,0,0,0,.43,5.29,49.166,49.166,0,0,0,2.828,8.881,115.165,115.165,0,0,0,8.2,15.584c.362.587.751,1.152,1.12,1.735a70.517,70.517,0,0,0,2.365,70.941c-4.311,5.491-8.488,11.092-12.377,16.9-3.985,6.044-7.91,12.213-10.417,19.122a18.241,18.241,0,0,0-1.145,5.438,6.557,6.557,0,0,0,.539,2.869,4.005,4.005,0,0,0,2.272,1.975,10.121,10.121,0,0,0,5.643-.114,35,35,0,0,0,5.2-1.808,122.223,122.223,0,0,0,18.821-10.971c4.877-3.408,9.635-6.969,14.332-10.607a70.538,70.538,0,0,0,71.194,2.044,120.367,120.367,0,0,0,14.174,7.655,60.231,60.231,0,0,0,8.635,3.08,28.192,28.192,0,0,0,4.914.857,12.143,12.143,0,0,0,6.047-.965,7.758,7.758,0,0,0,4.256-5.736,12.765,12.765,0,0,0-.375-5.433,35.845,35.845,0,0,0-3.576-8.364,84.557,84.557,0,0,0-9.467-13.362,70.509,70.509,0,0,0,1.725-77.3c3.639-4.7,7.2-9.455,10.609-14.333a122.265,122.265,0,0,0,10.97-18.821,34.966,34.966,0,0,0,1.807-5.2,10.113,10.113,0,0,0,.114-5.643Z" transform="translate(-1379.762 -2900.87)" fill="#a8e1f7"/>
    </g>
    <g transform="matrix(1, 0, 0, 1, 288.65, 6731.25)" filter="url(#長方形_227)">
      <rect id="長方形_227-2" data-name="長方形 227" width="268" height="34" transform="translate(35.44 47.42)" fill="url(#linear-gradient-2)"/>
    </g>
    <text id="やりたいことに挑戦できる_21_" data-name="やりたいことに挑戦できる：21％" transform="translate(345.094 6985.671)" fill="#0052aa" font-size="15" font-family="HiraginoSans-W6, Hiragino Sans" letter-spacing="0.1em"><tspan x="0" y="0">やりたいことに挑戦できる：</tspan><tspan y="0" font-size="33" font-family="DINCondensed-Bold, DIN Condensed" font-weight="700">21</tspan><tspan y="0">％</tspan></text>
    <text id="社内コミュニケーションがとりやすい_雰囲気が良い_16_オフィスがきれい_14_取扱商品が多く_幅広い事業領域を持っている_12_待遇_福利厚生が充実している_10_その他_3_" data-name="社内コミュニケーションがとりやすい（雰囲気が良い）：16％
オフィスがきれい：14％
取扱商品が多く、幅広い事業領域を持っている：12％
待遇・福利厚生が充実している：10％
その他：3％" transform="translate(345.094 7019.671)" fill="#0052aa" font-size="10" font-family="HiraginoSans-W6, Hiragino Sans" letter-spacing="0.1em"><tspan x="0" y="0">社内コミュニケーションがとりやすい</tspan><tspan y="0" font-size="7">（雰囲気が良い）</tspan><tspan y="0">：</tspan><tspan y="0" font-size="20" font-family="DINCondensed-Bold, DIN Condensed" font-weight="700">16</tspan><tspan y="0">％</tspan><tspan y="0" font-family="DINCondensed-Bold, DIN Condensed" font-weight="700"></tspan><tspan x="0" y="30">オフィスがきれい：</tspan><tspan y="30" font-size="20" font-family="DINCondensed-Bold, DIN Condensed" font-weight="700">14</tspan><tspan y="30">％</tspan><tspan y="30" font-family="DINCondensed-Bold, DIN Condensed" font-weight="700"></tspan><tspan x="0" y="60">取扱商品が多く、幅広い事業領域を持っている：</tspan><tspan y="60" font-size="20" font-family="DINCondensed-Bold, DIN Condensed" font-weight="700">12</tspan><tspan y="60">％</tspan><tspan y="60" font-family="DINCondensed-Bold, DIN Condensed" font-weight="700"></tspan><tspan x="0" y="90">待遇・福利厚生が充実している：</tspan><tspan y="90" font-size="20" font-family="DINCondensed-Bold, DIN Condensed" font-weight="700">10</tspan><tspan y="90">％</tspan><tspan y="90" font-family="DINCondensed-Bold, DIN Condensed" font-weight="700"></tspan><tspan x="0" y="120">その他：</tspan><tspan y="120" font-size="20" font-family="DINCondensed-Bold, DIN Condensed" font-weight="700">3</tspan><tspan y="120">％</tspan></text>
    <text id="_24_" data-name="
24％" transform="translate(502.094 6823.671)" fill="#0052aa" font-size="37" font-family="DINCondensed-Bold, DIN Condensed" font-weight="700" letter-spacing="0.1em"><tspan x="0" y="0"></tspan><tspan font-size="112"><tspan x="0" y="96">24</tspan><tspan y="96" font-size="37" font-family="HiraginoSans-W6, Hiragino Sans" font-weight="400">％</tspan></tspan></text>
    <text id="グローバルに_働ける" data-name="グローバルに
働ける" transform="translate(345.094 6860.671)" fill="#0052aa" font-size="23" font-family="HiraginoSans-W6, Hiragino Sans" letter-spacing="0.1em"><tspan x="0" y="0">グローバルに</tspan><tspan y="0" font-family="DINCondensed-Bold, DIN Condensed" font-weight="700"></tspan><tspan x="0" y="35">働ける</tspan></text>
    <text id="_海外と関わる機会が多い_" data-name="（海外と関わる機会が多い）" transform="translate(345.094 6923.671)" fill="#0052aa" font-size="10" font-family="HiraginoSans-W6, Hiragino Sans" letter-spacing="0.1em"><tspan x="0" y="0">（海外と関わる機会が多い）</tspan></text>
    <text id="堺商事の特に良いと思うところ" transform="translate(345.115 6799.86)" fill="#fff" font-size="14" font-family="HiraginoSans-W6, Hiragino Sans" letter-spacing="0.2em"><tspan x="0" y="0">堺商事の特に良いと思うところ</tspan></text>
  </g>
</svg>
