<svg xmlns="http://www.w3.org/2000/svg" xmlns:xlink="http://www.w3.org/1999/xlink" width="577.727" height="422.07" viewBox="0 0 577.727 422.07">
  <defs>
    <linearGradient id="linear-gradient" y1="0.5" x2="1" y2="0.5" gradientUnits="objectBoundingBox">
      <stop offset="0" stop-color="#03a8e5"/>
      <stop offset="1" stop-color="#012869"/>
    </linearGradient>
    <filter id="パス_301" x="0" y="0" width="577.727" height="422.07" filterUnits="userSpaceOnUse">
      <feOffset dx="10" dy="10" input="SourceAlpha"/>
      <feGaussianBlur stdDeviation="15" result="blur"/>
      <feFlood flood-opacity="0.161"/>
      <feComposite operator="in" in2="blur"/>
      <feComposite in="SourceGraphic"/>
    </filter>
    <linearGradient id="linear-gradient-2" x1="-0.03" xlink:href="#linear-gradient"/>
    <filter id="長方形_220" x="21.347" y="47.934" width="346" height="102" filterUnits="userSpaceOnUse">
      <feOffset input="SourceAlpha"/>
      <feGaussianBlur stdDeviation="5" result="blur-2"/>
      <feFlood flood-color="#013778" flood-opacity="0.322"/>
      <feComposite operator="in" in2="blur-2"/>
      <feComposite in="SourceGraphic"/>
    </filter>
  </defs>
  <g id="文系_理系" data-name="文系・理系" transform="translate(-1072.653 -4677.066)">
    <g id="グループ_245" data-name="グループ 245" transform="translate(579.3 2339)">
      <g transform="matrix(1, 0, 0, 1, 493.35, 2338.07)" filter="url(#パス_301)">
        <path id="パス_301-2" data-name="パス 301" d="M0,0H487.727V332.07H0Z" transform="translate(35 35)" fill="url(#linear-gradient)"/>
      </g>
      <path id="パス_302" data-name="パス 302" d="M0,0H479.727V324.07H0Z" transform="translate(532.353 2377.066)" fill="#edf9ff"/>
    </g>
    <g id="グループ_275" data-name="グループ 275" transform="translate(-1480.572 422.088)" opacity="0.313">
      <path id="パス_833" data-name="パス 833" d="M3041.81,4539.716H2875.745a20.929,20.929,0,0,1-2.094-3.121h56.93a.786.786,0,0,0,.782-.788.776.776,0,0,0-.782-.773h-57.719l-.777-2.6h52.966a.83.83,0,0,0,.854-.771.779.779,0,0,0-.78-.79h-53.477c-.151-.688-.273-1.376-.369-2.081h51.1a.829.829,0,0,0,.854-.769.779.779,0,0,0-.784-.792H2871.11c-.046-.688-.076-1.382-.086-2.08h51.424a.78.78,0,1,0,0-1.561H2871.12c.041-.693.045-1.395.126-2.081h53.877a.78.78,0,1,0,0-1.561H2871.5l.335-2.6h58.749a.78.78,0,1,0,0-1.56h-58.307c.312-1.3.646-2.506,1.017-3.641h168.84a58.524,58.524,0,0,0-2.377,15.7,32.6,32.6,0,0,0,2.058,11.872Zm5.584-27.568-57.642-108.191H2841.073a10.561,10.561,0,0,0-3.836.259c-2.734,1.131-2.07,5.1-2.313,7.489a45.461,45.461,0,0,0-.31,6.639c.2,4.2,1.756,8.163,2.815,12.191.057.217,23.726,89.829,23.726,89.829-.112,1.669-.192,3.318-.2,4.677-.03,7.61,2.172,16.253,9.01,23.066l1.491,1.492h178.169v-9.883h-5.21a29.3,29.3,0,0,1-2.236-11.872,56.412,56.412,0,0,1,2.489-15.7Z" transform="translate(-23.998)" fill="#03a8e5"/>
      <path id="パス_834" data-name="パス 834" d="M3226.417,4471.582c-.021-5.374,2.032-11.459,4.277-16.234l-3.469-1.61.889-1.737h-59.579l31.1,55.616,24.575-48a37.859,37.859,0,0,0-2.26,11.962,21.288,21.288,0,0,0,1.067,6.726l-18,37.493,2.866,4.363,21.74-45.285-3.069-1.467c-.055-.6-.137-1.2-.137-1.829Z" transform="translate(-184.245 -23.075)" fill="#03a8e5"/>
      <path id="パス_835" data-name="パス 835" d="M2964.654,4690.773H2798.587a20.155,20.155,0,0,1-2.089-3.121h56.926a.78.78,0,1,0,0-1.561H2795.7l-.772-2.6h53.04a.786.786,0,0,0,.78-.785.777.777,0,0,0-.78-.775h-53.477c-.152-.688-.273-1.383-.369-2.081h51.1a.829.829,0,0,0,.853-.769.778.778,0,0,0-.784-.792h-51.338c-.045-.689-.076-1.383-.086-2.081h51.35a.834.834,0,0,0,.858-.774.775.775,0,0,0-.784-.786h-51.327c.035-.7.045-1.391.125-2.081h53.877a.779.779,0,0,0,.782-.773.788.788,0,0,0-.782-.788H2794.34l.335-2.6h58.68a.83.83,0,0,0,.854-.769.78.78,0,0,0-.786-.791h-58.307c.311-1.291.646-2.505,1.016-3.641h168.835a58.656,58.656,0,0,0-2.372,15.694,32.539,32.539,0,0,0,2.058,11.874Zm7.915,1.289v-1.289h-5.209a29.323,29.323,0,0,1-2.241-11.874,56.46,56.46,0,0,1,2.494-15.694h7.136l5.063-9.883H2847.943a4.46,4.46,0,0,1-3.156-1.308l-1.482-1.481c-7.81-7.78-10.3-17.621-10.282-25.982,0-.035,0-.126.005-.262,0-1.229.065-2.6.151-3.983l-3.169-9.993-44.471,52.66s-.94,8.4-.965,13.213c-.031,7.577,2.164,16.19,8.972,22.984l1.492,1.486h177.532V4697.2l2,.966,21.528-44.841h-4.928l-18.6,38.74Z" transform="translate(0 -99.041)" fill="#03a8e5"/>
    </g>
    <g id="グループ_274" data-name="グループ 274" transform="translate(-1679.238 474.106)" opacity="0.313">
      <path id="パス_832" data-name="パス 832" d="M2908.958,4420.771l-9.362,5.767-.781-.781-12.483,8.359s-4.623-.557-7.38,1.115-3.093,2.172-3.093,2.172l-1.838-.586-9.862,16.466-2.091-.042-1.589,3.678-.837-.083-1.375,3.719a14.513,14.513,0,0,0,2.047,2.843,7.449,7.449,0,0,0,1.589,1.337l-.308,1.2-8.134,7.688a6.487,6.487,0,0,0,1.669,3.105,7.582,7.582,0,0,0,3.263,1.8l7.876-7.879,2.277-.98,1.212.042-3.51,10.28a6.6,6.6,0,0,0,2.839,2.8c1.84.792,4.847-.168,4.847-.168l2.6-8.69v7.971a7.28,7.28,0,0,0,3.326,1.129,5.415,5.415,0,0,0,2.993-1.129v-8.484s1.939.045,4.426-.166,3.115-.837,3.115-.837l1.813-3.593-.885-.5,1.586-3.523-1.122-1.059,2.694-8.247s16.179,8.081,22.473,22.568-3.032,23.737-3.032,23.737l-13.878-10.2h10.671v-3.734h-63.191v3.734h22.4v11.489H2886.3v-11.489h6.032v8.049s-3.964,1.333-3.964,5.217,3.964,4.774,3.964,4.774v16.427h2.585v-16.427a6.287,6.287,0,0,0,3.32-2.5,6.466,6.466,0,0,0,.914-2.387l13.861,11.822v20.98h-22.4V4529.8h-24.7v8.042h-15.622c-8.356-.14-15.044,11.731-15.044,11.776h119.185c0-.045-6.016-11.916-13.875-11.776h-7.354c0-.14,5.85-43.433-4.012-61.822s-33.934-31.091-33.934-31.091l11.534-7.939-.586-1.046,8.985-6.059s.792,1.03,1.6.613-.083-1.562-1.057-2.785-4.793-6.938-5.491-7.941-1.266-.976-1.51-.731c-.514.514.231,1.734.231,1.734Z" fill="#03a8e5"/>
    </g>
    <path id="パス_1190" data-name="パス 1190" d="M-11.438-25.2a44.348,44.348,0,0,1,5.246.258V-29.8a38.128,38.128,0,0,1-5.418.3h-12v-3.1a15.1,15.1,0,0,1,.3-3.268h-5.461a15.249,15.249,0,0,1,.3,3.311V-29.5H-39.9a38.279,38.279,0,0,1-5.375-.3v4.859a46.981,46.981,0,0,1,5.246-.258h2.021a40.68,40.68,0,0,0,3.87,9.03,39.9,39.9,0,0,0,5.074,6.88c-4.429,3.655-9.2,5.891-16.9,8a17.2,17.2,0,0,1,2.752,4.6,63.484,63.484,0,0,0,9.159-3.7,47.022,47.022,0,0,0,8.428-5.59C-20.855-1.892-15.609.9-8.3,3.311A15.583,15.583,0,0,1-5.332-1.72c-6.923-1.548-12.083-3.87-16.813-7.568a38.641,38.641,0,0,0,5.074-7.267A35.545,35.545,0,0,0-13.717-25.2Zm-7.353,0a30.567,30.567,0,0,1-2.967,7.31,31.088,31.088,0,0,1-3.913,5.418A30.667,30.667,0,0,1-29.8-17.845,31.35,31.35,0,0,1-33.067-25.2Zm35.733,8.643-.774.645c-4.042.086-4.472.086-8.385.086A24.448,24.448,0,0,1,3.1-16.039l.43,5.2a16.311,16.311,0,0,1,3.182-.258c1.978-.043,10.32-.387,12.212-.473V-.9a23.028,23.028,0,0,1-.258,4.343h5.289A23.028,23.028,0,0,1,23.693-.9V-11.739c2.451-.129,8.514-.516,10.621-.688a6.169,6.169,0,0,1,1.118-.086c.559.9.946,1.548,2.15,3.612l4-2.537A65.281,65.281,0,0,0,33.8-21.715l-3.7,2.15c1.376,1.591,1.892,2.193,2.58,3.053-3.612.3-3.612.3-10.32.516,2.107-1.935,6.106-5.934,7.955-8,.645-.688,1.075-1.161,1.29-1.333.3-.3.473-.516.516-.559l.645-.645-4.429-2.322c-1.634,2.709-3.612,4.945-8.084,9.245C18.7-20.941,18.1-21.414,16.6-22.575a62.372,62.372,0,0,0,6.493-7.7c3.225-.3,8.686-1.032,11.438-1.548,2.236-.387,2.236-.387,2.967-.473l-2.967-4.343a25.445,25.445,0,0,1-4.773,1.29A151.339,151.339,0,0,1,6.493-33.669c-.6,0-1.5,0-2.709-.043a15.868,15.868,0,0,1,1.591,4.3c4.558-.129,4.558-.129,11.782-.473A38.325,38.325,0,0,1,13.2-25.026c-1.376-.9-2.365-1.634-3.1-2.107l-3.44,3.01A71.037,71.037,0,0,1,16.942-16.6Zm-5.031,6.321C9.46-6.536,6.751-4.257,1.849-1.677A17.789,17.789,0,0,1,5.074,2.236C10.32-1.247,12.642-3.4,15.738-7.869Zm14.964,2.15A39.933,39.933,0,0,0,37.926,2.365a27.8,27.8,0,0,1,3.225-4.042,26.635,26.635,0,0,1-4.386-2.709,33.319,33.319,0,0,1-6.063-6.02ZM-43.6,89V79.99H-60.855V71.83L-48.36,28.48h9.18l-13,43.35H-43.6V54.575h8.67V71.83h4.165v8.16H-34.93V89ZM-1.44,40.89a4.035,4.035,0,0,0-1.275-3.017A4.146,4.146,0,0,0-5.69,36.64a4.146,4.146,0,0,0-2.975,1.233A4.035,4.035,0,0,0-9.94,40.89v8.84a4.035,4.035,0,0,0,1.275,3.018A4.146,4.146,0,0,0-5.69,53.98a4.146,4.146,0,0,0,2.975-1.232A4.035,4.035,0,0,0-1.44,49.73Zm-17.17,3.4q0-2.465.17-4.207a13.867,13.867,0,0,1,.6-3.018,14.33,14.33,0,0,1,.977-2.295,16.079,16.079,0,0,1,1.4-2.125,11.715,11.715,0,0,1,4.25-3.442A12.528,12.528,0,0,1-5.69,27.97,12.528,12.528,0,0,1-.165,29.2a11.715,11.715,0,0,1,4.25,3.442A20.234,20.234,0,0,1,5.53,34.77a12.2,12.2,0,0,1,1.02,2.295A12.479,12.479,0,0,1,7.1,40.083q.128,1.743.128,4.207,0,2.72-.085,4.59a14.046,14.046,0,0,1-.51,3.315,7.735,7.735,0,0,1-1.318,2.592A16.217,16.217,0,0,1,2.9,57.21a12.905,12.905,0,0,1,2.422,2.38,8.021,8.021,0,0,1,1.318,2.8,18.405,18.405,0,0,1,.51,3.953q.085,2.337.085,5.737,0,2.805-.128,4.632A28.154,28.154,0,0,1,6.72,79.9,8.76,8.76,0,0,1,6,82.2,18.31,18.31,0,0,1,4.85,84.155,12.265,12.265,0,0,1,.77,87.938,12.4,12.4,0,0,1-5.69,89.51a12.4,12.4,0,0,1-6.46-1.573,12.265,12.265,0,0,1-4.08-3.783A18.31,18.31,0,0,1-17.378,82.2,8.76,8.76,0,0,1-18.1,79.9a28.154,28.154,0,0,1-.382-3.187q-.128-1.827-.128-4.632,0-3.4.085-5.737a18.4,18.4,0,0,1,.51-3.953,8.021,8.021,0,0,1,1.317-2.8,12.905,12.905,0,0,1,2.423-2.38A16.217,16.217,0,0,1-16.7,54.787a7.735,7.735,0,0,1-1.317-2.592,14.046,14.046,0,0,1-.51-3.315Q-18.61,47.01-18.61,44.29Zm17.17,20.4a4.035,4.035,0,0,0-1.275-3.018A4.146,4.146,0,0,0-5.69,60.44a4.146,4.146,0,0,0-2.975,1.232A4.035,4.035,0,0,0-9.94,64.69v11.9a4.035,4.035,0,0,0,1.275,3.018A4.146,4.146,0,0,0-5.69,80.84a4.146,4.146,0,0,0,2.975-1.232A4.035,4.035,0,0,0-1.44,76.59Zm31.885,1.649a31.484,31.484,0,0,1,5.246,4.515c-2.322,1.548-3.741,2.451-5.117,3.225a62.572,62.572,0,0,1-10.32,4.386,11.849,11.849,0,0,1,2.752,4.3,71.355,71.355,0,0,0,8.17-3.87v9.331a32.345,32.345,0,0,1-.258,4.257h4.988V90.161H52.332v2.322h4.9a28.86,28.86,0,0,1-.258-4.257V77.175a25.991,25.991,0,0,1,.215-3.956,26.469,26.469,0,0,1-3.612.172H39.647A57.293,57.293,0,0,0,52.59,60.964c.989-1.29,1.032-1.333,1.548-1.978L51.6,56.277a23.624,23.624,0,0,1-3.784.215H39c.731-.989,1.118-1.505,2.236-3.139l-5.074-1.247C33.627,57.395,27.951,62.555,20.9,65.995a10.741,10.741,0,0,1,2.924,3.612,44.59,44.59,0,0,0,11.61-8.944H46.742A44.678,44.678,0,0,1,39.389,68.1a37.409,37.409,0,0,0-5.375-4.3Zm5.418,11.266H52.375v8.471H35.863Z" transform="translate(1419 4896)" fill="#0052aa"/>
    <path id="パス_1189" data-name="パス 1189" d="M-17-1.6h-6.086a21.442,21.442,0,0,1-3.434-.17V1.87a29.549,29.549,0,0,1,3.842-.17H-8.364a28.606,28.606,0,0,1,3.842.17V-1.768a23.67,23.67,0,0,1-3.6.17H-13.6V-5.1h4.386a24.272,24.272,0,0,1,3.57.17v-3.5a23.67,23.67,0,0,1-3.6.17H-13.6V-11.05h3.91a34.806,34.806,0,0,1,3.706.1c-.1-.986-.136-2.176-.136-4.556v-7.242c0-2.074.034-3.672.136-4.658a29.51,29.51,0,0,1-4.386.17h-9.384a40.51,40.51,0,0,1-4.59-.17,37.011,37.011,0,0,1,.17,4.556v7.684c-.068,3.434-.068,3.434-.136,4.216,1.02-.068,1.8-.1,4.08-.1H-17v2.788h-3.808a20.356,20.356,0,0,1-3.5-.17v3.468A27.884,27.884,0,0,1-20.774-5.1H-17Zm0-22.338v3.4h-3.774v-3.4Zm3.4,0h3.944v3.4H-13.6ZM-17-17.68v3.434h-3.774V-17.68Zm3.4,0h3.944v3.434H-13.6ZM-32.13-23.6v6.63h-1.054a12.4,12.4,0,0,1-2.38-.17v3.5a11.878,11.878,0,0,1,2.312-.17h1.122v8.092A28.862,28.862,0,0,1-36.312-4.42l.918,3.842.68-.272c5.27-2.142,6.6-2.72,9.554-4.182l-.1-3.6c-1.5.748-1.9.918-3.332,1.53v-6.7h.782a14.189,14.189,0,0,1,2.142.136v-3.468a10.525,10.525,0,0,1-2.142.17h-.782V-23.6h1.02a19.716,19.716,0,0,1,2.516.136V-27.1a14.848,14.848,0,0,1-3.026.2h-4.794a18.133,18.133,0,0,1-3.094-.2v3.672a14.332,14.332,0,0,1,2.55-.17ZM13.4-13.09l-.612.51c-3.2.068-3.536.068-6.63.068a19.331,19.331,0,0,1-3.706-.17l.34,4.114a12.9,12.9,0,0,1,2.516-.2c1.564-.034,8.16-.306,9.656-.374V-.714a18.208,18.208,0,0,1-.2,3.434h4.182a18.208,18.208,0,0,1-.2-3.434V-9.282c1.938-.1,6.732-.408,8.4-.544a4.878,4.878,0,0,1,.884-.068c.442.714.748,1.224,1.7,2.856l3.162-2.006a51.618,51.618,0,0,0-6.154-8.126L23.8-15.47c1.088,1.258,1.5,1.734,2.04,2.414-2.856.238-2.856.238-8.16.408,1.666-1.53,4.828-4.692,6.29-6.324.51-.544.85-.918,1.02-1.054.238-.238.374-.408.408-.442l.51-.51-3.5-1.836c-1.292,2.142-2.856,3.91-6.392,7.31-1.224-1.054-1.7-1.428-2.89-2.346a49.318,49.318,0,0,0,5.134-6.086c2.55-.238,6.868-.816,9.044-1.224,1.768-.306,1.768-.306,2.346-.374L27.3-28.968a20.119,20.119,0,0,1-3.774,1.02A119.663,119.663,0,0,1,5.134-26.622c-.476,0-1.19,0-2.142-.034a12.546,12.546,0,0,1,1.258,3.4c3.6-.1,3.6-.1,9.316-.374a30.3,30.3,0,0,1-3.128,3.842C9.35-20.5,8.568-21.08,7.99-21.454l-2.72,2.38a56.169,56.169,0,0,1,8.126,5.95Zm-3.978,5C7.48-5.168,5.338-3.366,1.462-1.326a14.066,14.066,0,0,1,2.55,3.094C8.16-.986,10-2.686,12.444-6.222Zm11.832,1.7A31.575,31.575,0,0,0,29.988,1.87a21.985,21.985,0,0,1,2.55-3.2A21.06,21.06,0,0,1,29.07-3.468a26.345,26.345,0,0,1-4.794-4.76ZM-38.556,68V26.928l-6.936,5.1V24.684l6.936-5.1h6.936V68ZM5.984,19.584v6.528H-7.752V39.168A7.77,7.77,0,0,1-5.3,37.57a8.321,8.321,0,0,1,3.332-.646,7.909,7.909,0,0,1,5.746,2.142q2.21,2.142,2.21,6.426V58a10.575,10.575,0,0,1-.85,4.352A10.183,10.183,0,0,1,2.856,65.62a9.8,9.8,0,0,1-3.3,2.074,10.869,10.869,0,0,1-3.91.714,10.869,10.869,0,0,1-3.91-.714,9.8,9.8,0,0,1-3.3-2.074,10.183,10.183,0,0,1-2.278-3.264A10.575,10.575,0,0,1-14.688,58v-2.04h6.936v1.768a3.723,3.723,0,0,0,.986,2.754,3.451,3.451,0,0,0,2.55.986A3.068,3.068,0,0,0-1.8,60.52a3.843,3.843,0,0,0,.85-2.652V46.512a3.533,3.533,0,0,0-.918-2.448,3.015,3.015,0,0,0-2.346-1.02,3.32,3.32,0,0,0-1.5.306,3.883,3.883,0,0,0-1.02.714,2.824,2.824,0,0,0-.612.884q-.34.612-.408.748h-6.12V19.584Zm18.462,30.5a24.894,24.894,0,0,1,4.148,3.57c-1.836,1.224-2.958,1.938-4.046,2.55a49.475,49.475,0,0,1-8.16,3.468,9.369,9.369,0,0,1,2.176,3.4,56.42,56.42,0,0,0,6.46-3.06v7.378a25.575,25.575,0,0,1-.2,3.366h3.944V68.918H41.752v1.836h3.876a22.82,22.82,0,0,1-.2-3.366V58.65a20.551,20.551,0,0,1,.17-3.128,20.929,20.929,0,0,1-2.856.136H31.722a45.3,45.3,0,0,0,10.234-9.826c.782-1.02.816-1.054,1.224-1.564l-2.006-2.142a18.679,18.679,0,0,1-2.992.17h-6.97c.578-.782.884-1.19,1.768-2.482l-4.012-.986C26.962,43.01,22.474,47.09,16.9,49.81a8.493,8.493,0,0,1,2.312,2.856,35.257,35.257,0,0,0,9.18-7.072h8.942a35.326,35.326,0,0,1-5.814,5.882,29.58,29.58,0,0,0-4.25-3.4ZM28.73,58.99H41.786v6.7H28.73Z" transform="translate(1223 4913)" fill="#0052aa"/>
    <g transform="matrix(1, 0, 0, 1, 1072.65, 4677.07)" filter="url(#長方形_220)">
      <rect id="長方形_220-2" data-name="長方形 220" width="316" height="72" transform="translate(36.35 62.93)" fill="url(#linear-gradient-2)"/>
    </g>
    <path id="パス_1188" data-name="パス 1188" d="M1.35-7.875a22.789,22.789,0,0,1,3.425-.3V-.45a19.328,19.328,0,0,1-.15,2.625l2.7-.025a17.392,17.392,0,0,1-.15-2.625V-8.35c.65-.075.85-.1,1-.1.475-.075.475-.075.75-.1.1.425.125.575.225,1.075L11.075-8.2a23.434,23.434,0,0,0-1.85-4.85L7.55-12.3a12.857,12.857,0,0,1,.725,1.625c-1.1.1-1.35.125-2.6.175A51.03,51.03,0,0,0,9.1-15.45a6.144,6.144,0,0,1,1.725,2c2.025-1.575,2.9-2.6,4.675-5.675.125-.2.125-.2.275-.425a1.114,1.114,0,0,1,.125-.2l-2.425-1.175a10.243,10.243,0,0,1-1.2,2.3A9.58,9.58,0,0,1,9.2-15.6a2.035,2.035,0,0,1,.2-.3c.1-.175.175-.275.2-.325l.65-.975L7.875-18.4A22.384,22.384,0,0,1,5.55-14.1c-.275-.4-.475-.675-.875-1.175a32.051,32.051,0,0,0,2.35-4.05,4.905,4.905,0,0,1,.475-.85L5.025-21.25a15.193,15.193,0,0,1-1.85,4.175c-.3-.325-.425-.475-.825-.925L1.025-15.95a24.854,24.854,0,0,1,3.125,3.9c-.45.65-.725,1.025-1.2,1.625a3.733,3.733,0,0,1-.475.025,9.222,9.222,0,0,1-1.4-.1Zm22.1-1.75a43.163,43.163,0,0,0-3.875-5.85l-2,1.1a26.26,26.26,0,0,1,1.525,2.2c-1.25.15-1.575.175-4,.35a31.469,31.469,0,0,0,1.575-2.85l1.05-2.025-2.575-.8A17.19,17.19,0,0,1,13.675-14a18.949,18.949,0,0,1-1.325,2.3c-.45.025-.575.025-.775.025a4.994,4.994,0,0,1-.85-.05l.35,2.625c.5-.075,1.05-.125,4.075-.425l-1.55,1.3a13.188,13.188,0,0,1,3.9,3.2L19.25-6.85A22.375,22.375,0,0,0,15.6-9.575c2.675-.25,2.75-.275,4.625-.575.35.65.475.925.975,1.975ZM10.025-2.35a13.952,13.952,0,0,1-.85,1.8L11.45.775A22.352,22.352,0,0,0,13-5.725l-2.25-.5A13.588,13.588,0,0,1,10.225-3a22.548,22.548,0,0,0-.75-4.175l-1.85.5A22.92,22.92,0,0,1,8.3-1.825ZM2.075-7.025a23.344,23.344,0,0,1-1.05,6.85l2.15.95A30.953,30.953,0,0,0,4.2-6.7ZM17.2-19.75q.375.525.45.6A17.135,17.135,0,0,0,23-13.85a7.877,7.877,0,0,1,1.45-2.375,12.032,12.032,0,0,1-2.7-1.925,12.715,12.715,0,0,1-2.35-2.875ZM13.35-6.5a15.4,15.4,0,0,1,.125,1.875V-.05c0,.725.15,1.125.475,1.35a5.051,5.051,0,0,0,2.5.425c3.65,0,4-.35,4.325-4.45a5.224,5.224,0,0,1-2.25-.75c-.025,1.9-.075,2.325-.35,2.625a1.806,1.806,0,0,1-1.1.25C15.95-.6,15.9-.625,15.9-1.175V-4.9A11.459,11.459,0,0,1,16-6.5Zm6.375.4A23.908,23.908,0,0,1,21.9.4L24.35-.775A30.948,30.948,0,0,0,21.9-7.05ZM36.075-11a18.823,18.823,0,0,1,2.15-.1h8.55a18.2,18.2,0,0,1,2.25.1v-1.75a24.3,24.3,0,0,0,4.075,2.2,13.46,13.46,0,0,1,1.375-2.75A23.507,23.507,0,0,1,48.1-16.725a16.334,16.334,0,0,1-4.2-4.225H40.925A17.459,17.459,0,0,1,37-16.775a24.979,24.979,0,0,1-6.375,3.6,9.681,9.681,0,0,1,1.45,2.55,25.451,25.451,0,0,0,4-2.1Zm2.175-2.7h-.7a17.5,17.5,0,0,0,4.9-4.875A22.836,22.836,0,0,0,47.6-13.7H38.25ZM37.025,1.9V.625H47.95V1.9h2.975a15.618,15.618,0,0,1-.15-2.625v-5.85A17.041,17.041,0,0,1,50.9-9.05a16.4,16.4,0,0,1-2.175.1h-12.5a15.744,15.744,0,0,1-2.15-.1A22.571,22.571,0,0,1,34.2-6.575V-.75a19.99,19.99,0,0,1-.15,2.65Zm0-8.425H47.95v4.7H37.025Zm39.8-12.3a15.31,15.31,0,0,1-1.775.075h-.9v-.15a10.816,10.816,0,0,1,.125-2.025H71.6a10.26,10.26,0,0,1,.15,2.025v.15h-1.2a9.486,9.486,0,0,1-1.55-.1v-1.525a11.98,11.98,0,0,1-2.175.125H62.9a13.929,13.929,0,0,1-2.1-.125v2.65a9.853,9.853,0,0,1,1.1-.1V-3.9a7.221,7.221,0,0,1-1.375.2L61.1-1a9.646,9.646,0,0,1,1.675-.5c.875-.25,2.05-.625,3.15-.975V-.6A24.551,24.551,0,0,1,65.8,2.075h2.525A18.022,18.022,0,0,1,68.2-.575V-11.65h9.275a34.962,34.962,0,0,0,1,7.45A21.8,21.8,0,0,1,76.5-2V-8.425c0-1.275,0-1.65.05-2.225a15.452,15.452,0,0,1-1.625.075H70.95a11.1,11.1,0,0,1-1.575-.075c.05.825.075,1.125.075,2.225V-1.65c0,.825-.05,1.45-.1,2.175H71.6V-1.1h3.825a19.284,19.284,0,0,1-1.7,1.2A7.392,7.392,0,0,1,75.3,2.025a21.327,21.327,0,0,0,4.025-3.7C80.2.35,81.375,1.55,82.425,1.55A1.728,1.728,0,0,0,83.975.4,12.526,12.526,0,0,0,84.7-3.25,8.973,8.973,0,0,1,82.725-4.6c-.075,1.975-.25,3.15-.425,3.15-.05,0-.15-.125-.375-.525a11.027,11.027,0,0,1-.85-2.05A29.076,29.076,0,0,0,83.2-8.15c.2-.45.4-.9.55-1.2l-2.025-1.275a16.492,16.492,0,0,1-1.4,3.55c-.2-1.3-.35-2.625-.475-4.575h1.375a20.621,20.621,0,0,1,2.8.125V-14.15a15.63,15.63,0,0,1-2.8.15h-1.45c-.025-.75-.05-2.825-.05-3.7a19.224,19.224,0,0,1,.125-3.175h-2.6a15.51,15.51,0,0,1,.075,1.8c.025,3.325.025,3.325.075,5.075h-2a20.211,20.211,0,0,0,.625-2.675,6.807,6.807,0,0,1,.8.05ZM73.95-16.7A17.685,17.685,0,0,1,73.4-14H72.35c-.125-1.075-.275-1.975-.425-2.7ZM68.2-14v-3.825c.3.025.4.025.75.05v1.15c.375-.05.475-.05.85-.075.25,1.025.425,1.95.55,2.7Zm-4-3.825h1.725V-14.9H64.2Zm0,5.15h1.725V-10H64.2Zm0,4.9h1.725V-4.9c-.675.2-.9.275-1.725.475ZM71.6-8.5h2.8v1.6H71.6Zm-.025,3.55H74.4v1.775H71.575ZM80.2-18.925a13.134,13.134,0,0,1,1.85,3.95l1.975-1.15a20.053,20.053,0,0,0-2-3.775Zm24.25,2.9a5.464,5.464,0,0,1,2.525.75,6.194,6.194,0,0,1,3.075,5.55,7,7,0,0,1-3.475,6.25A13.286,13.286,0,0,1,101.6-2.1,7.975,7.975,0,0,1,103.125.825a16.345,16.345,0,0,0,3.925-1.05,9.631,9.631,0,0,0,6.075-9.325c0-5.625-3.9-9.275-9.9-9.275a11.222,11.222,0,0,0-8.6,3.5,10.739,10.739,0,0,0-2.75,7.275c0,4.025,2.05,6.925,4.9,6.925,2.05,0,3.65-1.475,5.075-4.7A36.167,36.167,0,0,0,104.45-16.025ZM101.4-16a32.948,32.948,0,0,1-2.075,8.45c-.9,2.15-1.75,3.2-2.575,3.2-1.1,0-1.975-1.625-1.975-3.675a8.37,8.37,0,0,1,3.4-6.75A6.364,6.364,0,0,1,101.4-16Zm39.45,1.35a25.784,25.784,0,0,1,3.05.15v-2.825a22.167,22.167,0,0,1-3.15.175h-6.975v-1.8a8.779,8.779,0,0,1,.175-1.9h-3.175a8.866,8.866,0,0,1,.175,1.925v1.775H124.3a22.255,22.255,0,0,1-3.125-.175V-14.5a27.314,27.314,0,0,1,3.05-.15H125.4a23.651,23.651,0,0,0,2.25,5.25,23.2,23.2,0,0,0,2.95,4c-2.575,2.125-5.35,3.425-9.825,4.65a10,10,0,0,1,1.6,2.675A36.909,36.909,0,0,0,127.7-.225a27.338,27.338,0,0,0,4.9-3.25,28.2,28.2,0,0,0,10.075,5.4A9.06,9.06,0,0,1,144.4-1a23.3,23.3,0,0,1-9.775-4.4,22.465,22.465,0,0,0,2.95-4.225,20.665,20.665,0,0,0,1.95-5.025Zm-4.275,0a17.771,17.771,0,0,1-1.725,4.25,18.074,18.074,0,0,1-2.275,3.15,17.829,17.829,0,0,1-2.4-3.125,18.227,18.227,0,0,1-1.9-4.275ZM159.85-9.625l-.45.375c-2.35.05-2.6.05-4.875.05a14.214,14.214,0,0,1-2.725-.125l.25,3.025a9.483,9.483,0,0,1,1.85-.15c1.15-.025,6-.225,7.1-.275v6.2A13.389,13.389,0,0,1,160.85,2h3.075a13.388,13.388,0,0,1-.15-2.525v-6.3c1.425-.075,4.95-.3,6.175-.4a3.587,3.587,0,0,1,.65-.05c.325.525.55.9,1.25,2.1l2.325-1.475a37.954,37.954,0,0,0-4.525-5.975l-2.15,1.25c.8.925,1.1,1.275,1.5,1.775-2.1.175-2.1.175-6,.3,1.225-1.125,3.55-3.45,4.625-4.65.375-.4.625-.675.75-.775.175-.175.275-.3.3-.325l.375-.375-2.575-1.35a26.024,26.024,0,0,1-4.7,5.375c-.9-.775-1.25-1.05-2.125-1.725a36.263,36.263,0,0,0,3.775-4.475c1.875-.175,5.05-.6,6.65-.9,1.3-.225,1.3-.225,1.725-.275L170.075-21.3a14.794,14.794,0,0,1-2.775.75,87.988,87.988,0,0,1-13.525.975c-.35,0-.875,0-1.575-.025a9.225,9.225,0,0,1,.925,2.5c2.65-.075,2.65-.075,6.85-.275a22.282,22.282,0,0,1-2.3,2.825c-.8-.525-1.375-.95-1.8-1.225l-2,1.75A41.3,41.3,0,0,1,159.85-9.65ZM156.925-5.95a14.07,14.07,0,0,1-5.85,4.975A10.343,10.343,0,0,1,152.95,1.3a19.243,19.243,0,0,0,6.2-5.875Zm8.7,1.25a23.217,23.217,0,0,0,6.425,6.075,16.166,16.166,0,0,1,1.875-2.35,15.486,15.486,0,0,1-2.55-1.575,19.372,19.372,0,0,1-3.525-3.5ZM195-1.175h-4.475A15.766,15.766,0,0,1,188-1.3V1.375a21.727,21.727,0,0,1,2.825-.125H201.35a21.034,21.034,0,0,1,2.825.125V-1.3a17.4,17.4,0,0,1-2.65.125H197.5V-3.75h3.225a17.847,17.847,0,0,1,2.625.125V-6.2a17.4,17.4,0,0,1-2.65.125h-3.2v-2.05h2.875a25.593,25.593,0,0,1,2.725.075c-.075-.725-.1-1.6-.1-3.35v-5.325c0-1.525.025-2.7.1-3.425a21.7,21.7,0,0,1-3.225.125h-6.9a29.786,29.786,0,0,1-3.375-.125,27.216,27.216,0,0,1,.125,3.35v5.65c-.05,2.525-.05,2.525-.1,3.1.75-.05,1.325-.075,3-.075H195v2.05h-2.8a14.967,14.967,0,0,1-2.575-.125v2.55a20.5,20.5,0,0,1,2.6-.1H195ZM195-17.6v2.5h-2.775v-2.5Zm2.5,0h2.9v2.5h-2.9ZM195-13v2.525h-2.775V-13Zm2.5,0h2.9v2.525h-2.9Zm-13.625-4.35v4.875H183.1a9.118,9.118,0,0,1-1.75-.125v2.575a8.733,8.733,0,0,1,1.7-.125h.825V-4.2a21.222,21.222,0,0,1-3.075.95l.675,2.825.5-.2c3.875-1.575,4.85-2,7.025-3.075l-.075-2.65c-1.1.55-1.4.675-2.45,1.125V-10.15h.575a10.433,10.433,0,0,1,1.575.1V-12.6a7.739,7.739,0,0,1-1.575.125h-.575V-17.35h.75a14.5,14.5,0,0,1,1.85.1v-2.675a10.917,10.917,0,0,1-2.225.15h-3.525a13.333,13.333,0,0,1-2.275-.15v2.7a10.538,10.538,0,0,1,1.875-.125ZM219.85-9.625l-.45.375c-2.35.05-2.6.05-4.875.05a14.214,14.214,0,0,1-2.725-.125l.25,3.025a9.483,9.483,0,0,1,1.85-.15c1.15-.025,6-.225,7.1-.275v6.2A13.389,13.389,0,0,1,220.85,2h3.075a13.388,13.388,0,0,1-.15-2.525v-6.3c1.425-.075,4.95-.3,6.175-.4a3.587,3.587,0,0,1,.65-.05c.325.525.55.9,1.25,2.1l2.325-1.475a37.954,37.954,0,0,0-4.525-5.975l-2.15,1.25c.8.925,1.1,1.275,1.5,1.775-2.1.175-2.1.175-6,.3,1.225-1.125,3.55-3.45,4.625-4.65.375-.4.625-.675.75-.775.175-.175.275-.3.3-.325l.375-.375-2.575-1.35a26.024,26.024,0,0,1-4.7,5.375c-.9-.775-1.25-1.05-2.125-1.725a36.263,36.263,0,0,0,3.775-4.475c1.875-.175,5.05-.6,6.65-.9,1.3-.225,1.3-.225,1.725-.275L230.075-21.3a14.794,14.794,0,0,1-2.775.75,87.988,87.988,0,0,1-13.525.975c-.35,0-.875,0-1.575-.025a9.225,9.225,0,0,1,.925,2.5c2.65-.075,2.65-.075,6.85-.275a22.282,22.282,0,0,1-2.3,2.825c-.8-.525-1.375-.95-1.8-1.225l-2,1.75A41.3,41.3,0,0,1,219.85-9.65ZM216.925-5.95a14.07,14.07,0,0,1-5.85,4.975A10.343,10.343,0,0,1,212.95,1.3a19.243,19.243,0,0,0,6.2-5.875Zm8.7,1.25a23.217,23.217,0,0,0,6.425,6.075,16.166,16.166,0,0,1,1.875-2.35,15.486,15.486,0,0,1-2.55-1.575,19.372,19.372,0,0,1-3.525-3.5Z" transform="translate(1156.38 4787.136)" fill="#fff"/>
  </g>
</svg>
