<svg xmlns="http://www.w3.org/2000/svg" xmlns:xlink="http://www.w3.org/1999/xlink" width="525.821" height="721.716" viewBox="0 0 525.821 721.716">
  <defs>
    <linearGradient id="linear-gradient" y1="0.5" x2="1" y2="0.5" gradientUnits="objectBoundingBox">
      <stop offset="0" stop-color="#03a8e5"/>
      <stop offset="1" stop-color="#012869"/>
    </linearGradient>
    <filter id="パス_301" x="0" y="0" width="525.821" height="721.716" filterUnits="userSpaceOnUse">
      <feOffset dx="10" dy="10" input="SourceAlpha"/>
      <feGaussianBlur stdDeviation="15" result="blur"/>
      <feFlood flood-opacity="0.161"/>
      <feComposite operator="in" in2="blur"/>
      <feComposite in="SourceGraphic"/>
    </filter>
    <linearGradient id="linear-gradient-2" x1="-0.03" xlink:href="#linear-gradient"/>
    <filter id="長方形_212" x="19.798" y="48" width="310" height="178" filterUnits="userSpaceOnUse">
      <feOffset input="SourceAlpha"/>
      <feGaussianBlur stdDeviation="5" result="blur-2"/>
      <feFlood flood-color="#013778" flood-opacity="0.322"/>
      <feComposite operator="in" in2="blur-2"/>
      <feComposite in="SourceGraphic"/>
    </filter>
  </defs>
  <g id="復職率" transform="translate(-1121.202 -2769)">
    <g id="グループ_225" data-name="グループ 225" transform="translate(626.432 430)">
      <g transform="matrix(1, 0, 0, 1, 494.77, 2339)" filter="url(#パス_301)">
        <path id="パス_301-2" data-name="パス 301" d="M0,0H435.821V631.716H0Z" transform="translate(35 35)" fill="url(#linear-gradient)"/>
      </g>
      <path id="パス_302" data-name="パス 302" d="M0,0H427.821V623.716H0Z" transform="translate(533.568 2378)" fill="#edf9ff"/>
    </g>
    <g id="家族" transform="translate(139.885 -964.516)" opacity="0.996">
      <path id="パス_825" data-name="パス 825" d="M1395.951,4133.281c-7.284-5.792-24.995-8.707-34.25-6.479-10.347,2.489-16.854,16.071-15.743,25.9.379,3.358,1.47,6.673,1.189,10.04-.332,3.984-2.551,7.609-3,11.58-.547,4.863,1.714,9.774,5.247,13.162a27.394,27.394,0,0,0,12.977,6.473c7.613,1.741,15.969,1.224,22.711-2.717a22.474,22.474,0,0,0,5.682-4.825,5.308,5.308,0,0,1-.253,1,44.517,44.517,0,0,1-6.932,9.667,10.5,10.5,0,0,1-3.436,2.658c-2,.836-4.28.52-6.425.176q-16.52-2.647-32.856-6.324a2.206,2.206,0,0,1-2.123-2.325q-.446-2.811-.894-5.618c-.184-1.161-.45-2.455-1.426-3.113-1.493-1-3.837.831-3.218,2.522-1.87-1.758-3.878-3.591-6.394-4.1-4.068-.828-8.276,2.475-9.1,6.544s1.293,8.376,4.62,10.858a13.834,13.834,0,0,0,8.9,2.705,5.8,5.8,0,0,1,2.43.146,4.968,4.968,0,0,1,1.767,1.467c11.578,13.046,28.427,22.149,45.858,21.479a25.436,25.436,0,0,0,7.351-1.209c4.228-1.468,7.722-4.524,10.677-7.884a49.764,49.764,0,0,0,6.483-9.521,34.37,34.37,0,0,1-2.849,6.057c-2.791,4.811-6.33,9.409-11.227,12.041-4.385,2.355-9.5,2.938-14.474,3.006a78.318,78.318,0,0,1-15.111-1.266q2.784,8.109,6.319,15.931a6.278,6.278,0,0,0,2.479,3.252c1.388.715,3.074.315,4.539-.224,9.42-3.48,16-11.869,22.076-19.866a4.3,4.3,0,0,0,4.817,2.244,8,8,0,0,0,4.591-3.272c4.539-6.053,3.693-14.441,5.664-21.746a6.474,6.474,0,0,1,1.76-3.341,2.624,2.624,0,0,1,3.474-.11c.73.762.913,2.151,1.94,2.393a66.305,66.305,0,0,0,.315-8.221,5.137,5.137,0,0,0-.41-2.255,4.839,4.839,0,0,0-1.64-1.646,25.548,25.548,0,0,0-7.4-3.521,11.1,11.1,0,0,0-1.121-3.578c-1.973-3.644-8.887-7.685-13.739-7a16.786,16.786,0,0,0-.045-2.6,5.926,5.926,0,0,0,3.113-11.381,30.678,30.678,0,0,0,3.215-14.235c-.245-4.906-2.29-9.857-6.134-12.916" transform="translate(-152.587 -29.087)" fill="#9eddf6"/>
      <path id="パス_826" data-name="パス 826" d="M1228.6,4236.493a35.545,35.545,0,0,0,3.273,2.653c7.467,5.275,16.483,7.863,25.431,9.735a11.006,11.006,0,0,1-6.341-5.942,4.394,4.394,0,0,1-.068-4.045c1.106-1.715,3.6-1.627,5.616-1.339a29.055,29.055,0,0,1-7.314-8.03c-1.3-2.111-2.322-4.783-1.215-7,1.049-2.1,3.72-2.949,6.036-2.6a16.86,16.86,0,0,1,6.337,2.909c-1.925-2.494-4.725-4.232-6.513-6.826s-2.071-6.772.626-8.4c2.119-1.282,4.831-.319,7.106.663l6.505,2.808c-2.414-2.273-4.924-4.7-5.879-7.874a7.442,7.442,0,0,1,1.146-6.458c.416-.076.833-.155,1.25-.213,6.437-.91,12.516,2.977,17.565,7.07s10.144,8.76,16.549,9.866a19.19,19.19,0,0,1,.092-13.432c-.354.918-9.818-.3-10.947-.437a50.245,50.245,0,0,1-9.145-2.079c-6.267-1.95-11.825-3.248-16.821-7.9-4.771-4.442-7.9-10.325-10.944-16.091-.157-.3-.316-.6-.473-.9a83.477,83.477,0,0,1-3.458-13.611c-.338-2.19-.539-4.405-.676-6.625.371,1.4.832,2.771,1.294,4.145a40.569,40.569,0,0,0,4.056,11.335,29.157,29.157,0,0,0,3.266,4.538c2.289,3.952,4.789,7.792,7.421,11.479a31.145,31.145,0,0,0,5.815,6.611,23.22,23.22,0,0,0,7.607,3.767c6.643,2.05,13.692,2.211,20.62,2.79a24.151,24.151,0,0,1,7.847,1.612c6.988,3.1,9.741,11.305,13.69,17.851a42.152,42.152,0,0,0,6.125,7.862c.408.413.84.821,1.289,1.2a.227.227,0,0,1-.01.036c-4.037-1.752-7.343-5.188-9.832-8.92-3.111-4.661-5.419-9.875-9.036-14.159a5.184,5.184,0,0,0-2.314-1.8c-1.946-.587-3.97,1.159-4.457,3.133s.115,4.034.713,5.977q.925,3.011,1.851,6.02c-6.965.468-13.265-3.838-18.785-8.112s-11.407-8.921-18.376-9.318c-.469,5.507,3.651,10.355,8.132,13.592s9.671,5.676,13.193,9.935c-11.318-3-18.884-8.461-30.132-11.709-4.239,3.652,2.382,7.947,6.584,11.453a43.953,43.953,0,0,0,14.447,7.592,48.238,48.238,0,0,1-25.685-5.825c-.932,2.054-.258,4.509.914,6.438,2.341,3.851,6.478,6.341,10.8,7.605s8.885,1.442,13.39,1.6l-19.67,1.459a3.813,3.813,0,0,0-2.554.84,2.493,2.493,0,0,0-.039,3.041,5.7,5.7,0,0,0,2.652,1.865c8.1,3.314,17.292.154,26.037.585,7.493.373,14.939,3.413,22.307,2a10.277,10.277,0,0,1,2.933-.35,8.633,8.633,0,0,1,3.06,1.17,62.225,62.225,0,0,0,11.838,4.685q-1.908,3.556-4.008,7c21.444,8.274,45.027,8.5,68.013,8.5,12.8,0,26.023-.12,37.764-5.227a69.234,69.234,0,0,0,15.626-9.917c28.2-22.761,45.8-56.84,53.533-92.247a125.857,125.857,0,0,0,3.119-22.834c-.073.014-.147.017-.221.029.648-3.136,1.25-6.28,1.693-9.456,2.022-14.412,3.141-33.24-2.778-46.536-3.877-8.7-6.441-15.925-12.991-22.846-8.4-8.879-22.872-13.875-35.768-16.312-7.462-1.41-25.1-1.974-35.989-2.976a26.046,26.046,0,0,1-5.035-14.455c10.78-6.087,16.618-19.792,13.541-31.784,8.938-1.789,14.357-11.263,15.681-20.282.554-3.768.451-8.041-2.152-10.82a6.349,6.349,0,0,0-6.33-1.481q2.547-3.784,5.1-7.567c-5.768-7.188-.5-18.673-5.043-26.689-2.745-4.836-8.409-7.175-13.818-8.468-4.4-1.052-9.44-1.467-13.464.214a24.877,24.877,0,0,0-16.069-11.26c-10.368-2.039-21.288,2.323-28.985,9.562-4.2,3.951-7.581,8.686-11.537,12.884s-8.72,7.966-14.363,9.158a11.085,11.085,0,0,0,9.133,1.928,15.924,15.924,0,0,1-11.476,11.833c4.094.2,7.579,3.109,10.057,6.375,2.454,3.231,4.267,6.933,6.916,10a8.26,8.26,0,0,0-6.987,8.389c.358,4.915,5.017,8.79,9.912,9.354a64.486,64.486,0,0,0,9.782,32.343,13.378,13.378,0,0,1,2.183,4.563,12.154,12.154,0,0,1-.277,4.322c-.677,3.624-1.379,7.318-3.164,10.542a12.814,12.814,0,0,1-6,5.658c-5.752-1.306-11.577-2.347-17.266-1.068,9.573,2.756,19.218,6.818,25.716,14.369,4.817,5.6,5.534,21.2,2.325,28.586,2.548,3.29,1.739,8.471-.64,11.886,6.312.928,9.811,8.127,15.763,10.421,3.894,1.5,8.571.778,12.041,3.1,3.07,2.051,4.3,5.869,5.767,9.257,5.221,12.048,15.494,21.124,22.365,32.313,7.132,11.614,10.342,25.252,10.5,38.945-.28.928-.552,1.86-.832,2.787-3.532,11.68-7.76,24.321-17.994,30.963-6.209,4.031-13.817,5.238-21.206,5.667a120.527,120.527,0,0,1-26.565-1.521c6.505.078,12.987-.121,19.183-.121,5.157-.078,10.368-.162,15.375-1.405a34.555,34.555,0,0,0,24.253-23.04c2.116-6.968,1.933-14.41,1.426-21.674a82.4,82.4,0,0,0-2.564-16.956,57.048,57.048,0,0,0-16.586-25.977,29.044,29.044,0,0,1-8.96,17.072c-3.716,3.434-8.454,6.03-10.807,10.51-1.312,2.5-1.744,5.348-2.636,8.023a59.313,59.313,0,0,1-6.293,12.724c-5.829,8.738-9.758,17.155-17.381,24.453-2.62,2.508-6.6,4.592-10.359,6.257a144.239,144.239,0,0,0,26.971-34.27,57.216,57.216,0,0,0,2.639-5.165c.917-2.1,1.629-4.285,2.483-6.413a51.48,51.48,0,0,1,12.041-17.849,52.957,52.957,0,0,0,4.472-4.469,17.61,17.61,0,0,0,3.881-9.517c.688-7.74-3.735-14.908-7.98-21.416-1.8-2.763-3.711-5.627-6.575-7.267a2.116,2.116,0,0,0-1.566-.369c-1.131.316-1.118,1.9-.914,3.06a37.961,37.961,0,0,1-1.356,18.528c-.122-3.489-1.98-6.432-4.28-9.058-4.911.49-2.85,8.542-2.418,13.288.179,1.971.6,4,0,5.892a11.452,11.452,0,0,1-3.268,4.445q-2.539,2.48-5.075,4.959c-1.316,1.284-2.731,2.624-4.528,3.011s-4.025-.644-4.208-2.473a87.138,87.138,0,0,1-22.722,18.916c-1.831,1.057-3.964,2.078-5.985,1.452-2.33-.721-3.479-3.283-4.292-5.583-2.406-6.815-5.725-12.346-7.187-19.424-10.127-3.966-19.393-11.486-26.648-19.705-.144-.463-.212-.939-.384-1.4-5.113-.316-10.255-2.45-13.467-6.439s-4.131-9.938-1.569-14.373,8.812-6.564,13.243-3.994c1.13.656,2.217,1.6,3.522,1.581,1-.013,1.919-.6,2.918-.664,4.251-.256,4.939,8.077,9.19,7.8a25.286,25.286,0,0,1-2.2-22.757,29.027,29.027,0,0,0,2.106-5.729,18.381,18.381,0,0,0-.286-5.959q-.452-2.859-.905-5.72a40.324,40.324,0,0,1,5.2-14.532c3.771-5.944,10.345-10.531,17.375-10.2a5.015,5.015,0,0,0,2.356-.207,4.2,4.2,0,0,0,1.384-1.243,83.655,83.655,0,0,0,6.6-9.431,16.224,16.224,0,0,0,7.683-5.263,24.57,24.57,0,0,0,4.878-12.014c1.525-10.479-2.181-21.7-10.014-28.786-8.692-17.208-27.937-28.438-47.429-29.461-10.679-.56-22.592,2.239-28.581,11.1-4.155,6.146-4.705,14.079-8.24,20.6a25.2,25.2,0,0,1-13.479,11.584c-2.062.744-4.319,1.271-5.875,2.813a8.541,8.541,0,0,0-2.075,3.97c-2.027,7.732,1.615,17.145-3.518,23.273-4.7,5.611-13.686,4.466-20.352,1.446,2.981,6.7-.359,16,5.09,20.921,3.677,3.318,9.742,2.769,13.37,6.139,3.6,3.346,3.587,9.453,7.352,12.617,3.88,3.262,9.772,1.885,14.605,3.412,3.679,1.162,6.59,3.966,10.04,5.693a21.461,21.461,0,0,0,6.217,1.858,10.126,10.126,0,0,1-.6.846,32.668,32.668,0,0,1-5.439,1.959q-18.387,5.229-37.169,8.907c-7.411,1.452-15.217,2.88-21.047,7.677-5.992,4.93-8.952,12.8-9.579,20.531s.818,15.469,2.255,23.093q1.974,10.469,3.947,20.936c2.518,13.36,5.1,26.911,11.115,39.1,5.1,10.345,13.1,19.7,23.338,24.731" transform="translate(-109 44)" fill="#9eddf6"/>
    </g>
    <g transform="matrix(1, 0, 0, 1, 1121.2, 2769)" filter="url(#長方形_212)">
      <rect id="長方形_212-2" data-name="長方形 212" width="280" height="148" transform="translate(34.8 63)" fill="url(#linear-gradient-2)"/>
    </g>
    <path id="パス_1158" data-name="パス 1158" d="M9.114-16.128H3.444a14.976,14.976,0,0,1-2.436-.126v2.2a18.081,18.081,0,0,1,2.268-.1H6.594a10.015,10.015,0,0,1-1.239,1.827H3.381a14.791,14.791,0,0,1-1.659-.063l.252,2.1a5,5,0,0,1,.756-.063,5.548,5.548,0,0,0,.672-.021c.378,0,.693-.021.9-.021,4.6-.084,8.3-.273,11.928-.588a24.949,24.949,0,0,1,1.932,1.7L19.8-10.836a48.138,48.138,0,0,0-4.788-3.318h2.772a18.346,18.346,0,0,1,2.247.1v-2.2a14.711,14.711,0,0,1-2.394.126H11.445V-16.4a7.062,7.062,0,0,1,.1-1.365H8.988a5.976,5.976,0,0,1,.126,1.386Zm4.557,1.974-1.134.609c.735.462.945.588,1.47.945-1.764.1-4.515.21-6.216.252.462-.588,1.008-1.365,1.281-1.806ZM5.838-1.785h9.345v.84c0,.42-.168.546-.777.546a25.784,25.784,0,0,1-2.583-.147,10.1,10.1,0,0,1,.567,1.974c1.239.042,1.806.063,2.268.063a3.35,3.35,0,0,0,2.079-.4,1.972,1.972,0,0,0,.651-1.785V-7.371a21.03,21.03,0,0,1,.084-2.247c-.1.021-.189.021-.252.042a2.282,2.282,0,0,0-.273.021c-.126,0-.126,0-1.743.021H5.859c-1.134,0-1.869-.021-2.373-.063a13.6,13.6,0,0,1,.105,2.1V-.966A21.982,21.982,0,0,1,3.465,1.68H5.943C5.88,1.029,5.838.273,5.838-.693Zm0-2.9h9.345v1.05H5.838Zm9.345-1.848H5.838V-7.623h9.345Zm14.994.147a13.157,13.157,0,0,1-.105-2.058v-6.8a10.53,10.53,0,0,1,.126-2.037H27.7a19.171,19.171,0,0,1,.126,2.268v6.258A18.327,18.327,0,0,1,27.7-6.384Zm13.461-8.442a13.994,13.994,0,0,1,.105-2.184,18.73,18.73,0,0,1-2.436.1H34.776a17.669,17.669,0,0,1-2.373-.1,17.09,17.09,0,0,1,.1,2.268v5.649c0,.9-.021,1.554-.084,2.247.714-.063,1.386-.084,2.373-.084h6.552c1.05,0,1.638.021,2.394.084a16.211,16.211,0,0,1-.105-2.142Zm-8.967.021h6.741v1.89H34.671Zm0,3.864h6.741V-9.03H34.671ZM31.689-6.3a1.506,1.506,0,0,1,.021.273c0,.252-.021.735-.042.987A4.158,4.158,0,0,1,29.316-1.3a13.318,13.318,0,0,1-3.4,1.218,9.4,9.4,0,0,1,1.407,2.163,16.51,16.51,0,0,0,2.373-.945,7.667,7.667,0,0,0,3.213-2.688,8.61,8.61,0,0,0,1.05-3.612c.063-.42.084-.567.168-.945Zm6.93,1.806a9.452,9.452,0,0,1,.1-1.743H36.288a11.1,11.1,0,0,1,.1,1.827V-.273c0,.84.21,1.176.882,1.407a9.422,9.422,0,0,0,3.108.315c2.6,0,3.486-.168,4.011-.735.672-.735.882-1.7.966-4.263A9.733,9.733,0,0,1,43.2-4.3v.567a7.849,7.849,0,0,1-.252,2.394c-.168.5-.525.63-1.89.63-2.121,0-2.436-.063-2.436-.567ZM55.587-3a7.01,7.01,0,0,1,1.365,1.911,18.843,18.843,0,0,0,5.04-7.329c-.021.693-.042,1.512-.042,2.2V-.63A20.72,20.72,0,0,1,61.8,1.7h2.52A15.555,15.555,0,0,1,64.2-.651V-6.51c0-.882-.021-1.449-.063-2.121a18.344,18.344,0,0,0,2.751,4.788,19.085,19.085,0,0,0,2.6,2.772,10.876,10.876,0,0,1,1.554-2.268,20.654,20.654,0,0,1-3.759-3.78,16.95,16.95,0,0,1-2.394-4.2h3.3a19.392,19.392,0,0,1,2.31.126V-13.65a20.509,20.509,0,0,1-2.373.126H64.218V-15.5a12.634,12.634,0,0,1,.126-2.037h-2.52a13.106,13.106,0,0,1,.147,2.037v1.974H58.863c-.819,0-1.638-.042-2.268-.1v2.436a19.965,19.965,0,0,1,2.268-.126h2.394a19.852,19.852,0,0,1-5.67,7.959v-8.9a28.98,28.98,0,0,0,1.407-3.423c.231-.63.336-.882.588-1.512l-2.394-.714a14.893,14.893,0,0,1-1.218,3.738,16.629,16.629,0,0,1-3.276,4.914A12.553,12.553,0,0,1,51.639-6.7a13.764,13.764,0,0,0,1.7-2.331c-.042.861-.042,1.3-.042,2.352v5.9a21,21,0,0,1-.126,2.457h2.52a21.932,21.932,0,0,1-.1-2.436ZM84.84-9.24v1.008H80.682a14.912,14.912,0,0,1-2.142-.105v1.89a15.091,15.091,0,0,1,2.142-.105H84.84V-5.5H79.275a19.493,19.493,0,0,1-2.52-.126v2.1A23.084,23.084,0,0,1,79.3-3.654H83.2A15.1,15.1,0,0,1,76.335-.672a8.6,8.6,0,0,1,1.281,2.016A20.317,20.317,0,0,0,81.9-.42a11.68,11.68,0,0,0,3.024-2.31A14.14,14.14,0,0,0,84.861-1.3V-.294a15.674,15.674,0,0,1-.126,2.142h2.478a11.948,11.948,0,0,1-.147-2.121V-1.3A14.375,14.375,0,0,0,87-2.793a16.386,16.386,0,0,0,7.791,4.158,8.316,8.316,0,0,1,1.2-2.142,18.024,18.024,0,0,1-4.368-1.2,10.9,10.9,0,0,1-2.856-1.68h4.221a22.686,22.686,0,0,1,2.52.126v-2.1a18.548,18.548,0,0,1-2.541.126H87.108v-1.05H91.5a15.415,15.415,0,0,1,2.163.105v-1.89a15.234,15.234,0,0,1-2.163.105H87.108V-9.24h5.481a15.416,15.416,0,0,1,2.163.1V-11.13a19.312,19.312,0,0,1-2.163.084H90.153c.294-.525.378-.714.777-1.554h2.1c1.029,0,1.848.042,2.5.1v-2.1a17.028,17.028,0,0,1-2.373.126h-.588c.462-.651.8-1.176,1.3-2.016l-2.163-.8a11.205,11.205,0,0,1-1.512,2.814H88.872V-15.96a11.026,11.026,0,0,1,.1-1.638H86.688a14.957,14.957,0,0,1,.063,1.554v1.575H85.26v-1.575a14.142,14.142,0,0,1,.063-1.554H83.034a11.679,11.679,0,0,1,.105,1.638v1.491h-1.2a14.847,14.847,0,0,0-1.617-2.751l-2.1.8a8.877,8.877,0,0,1,1.428,1.953h-.672a17.8,17.8,0,0,1-2.394-.126v2.1c.672-.063,1.47-.1,2.5-.1h2.268c.231.4.462.882.777,1.554H79.59a19.074,19.074,0,0,1-2.163-.084v1.995a15.6,15.6,0,0,1,2.163-.1Zm-.483-1.806a13.4,13.4,0,0,0-.63-1.554h4.788a12.247,12.247,0,0,1-.693,1.554ZM110.628-.8a8.949,8.949,0,0,1,1.281,2.331,16.452,16.452,0,0,0,4.221-3.99,15.474,15.474,0,0,0,4.158,3.969,11.808,11.808,0,0,1,1.26-2.352,12.585,12.585,0,0,1-4.053-3.7,24.727,24.727,0,0,0,3-9.975c.063-.63.105-1.05.147-1.323a15.1,15.1,0,0,1-1.7.105h-5.5c-.525,0-.966-.021-1.344-.042v-1.3a12.566,12.566,0,0,1-1.911.1h-6.4a17.062,17.062,0,0,1-1.89-.1V-14.8c.462-.042.693-.063,1.407-.084V-3.423a9.99,9.99,0,0,1-1.617.21l.588,2.394a11.757,11.757,0,0,1,1.68-.441c.945-.189,2.373-.567,4.473-1.2V-.5a18.42,18.42,0,0,1-.126,2.268h2.457A14.425,14.425,0,0,1,110.628-.5Zm0-14.091a7.267,7.267,0,0,1,.8.021v1.344c.336-.042.483-.063.882-.084a26.458,26.458,0,0,0,.966,5.313,19.763,19.763,0,0,0,1.554,3.759,12.914,12.914,0,0,1-4.2,3.7Zm7.539,1.26a21.459,21.459,0,0,1-1.974,6.888,19.788,19.788,0,0,1-1.743-6.888ZM105.5-14.889h2.919v2.31H105.5Zm0,4.179h2.919v2.247H105.5Zm0,4.158h2.919v2.037a29.247,29.247,0,0,1-2.919.672Zm30.009,2.415L134-3.045A12.714,12.714,0,0,1,136.71.315L137.8-.651a7.534,7.534,0,0,1,.5,2.079c.966.042,1.743.063,2.163.063,2.226,0,2.835-.42,2.835-1.953V-4.137h.609a12.919,12.919,0,0,1,2,.105V-6.195a13.658,13.658,0,0,1-2.058.105H143.3V-7.14h.462a17.45,17.45,0,0,1,1.995.084V-9.114a12.538,12.538,0,0,1-2.037.1h-9.387a14.643,14.643,0,0,1-2-.084v2.037a17.052,17.052,0,0,1,1.974-.084h6.762v1.05h-6.993a12.919,12.919,0,0,1-2-.105v2.142a17.286,17.286,0,0,1,1.974-.084Zm5.565,0v3c0,.42-.147.5-.777.5a20.668,20.668,0,0,1-2.289-.21l.525-.462A19.2,19.2,0,0,0,136-4.137ZM131.061-17.85a10.6,10.6,0,0,1-4.389,4.179,6.194,6.194,0,0,1,1.218,1.911,15.614,15.614,0,0,0,3.234-2.583,19.173,19.173,0,0,0,1.785-2.163Zm11.592,7.917c.714,0,1.449.021,1.932.063a18.2,18.2,0,0,1-.084-2.058v-3.024a19.171,19.171,0,0,1,.084-2.058,17.744,17.744,0,0,1-2.142.084h-6.489a18.248,18.248,0,0,1-2.121-.084c.042.63.063,1.05.063,1.932v3.15c0,.945-.021,1.428-.063,2.058.4-.042,1.134-.063,1.953-.063Zm-6.594-5.229h6.216v.924h-6.216Zm0,2.562h6.216v.987h-6.216ZM129.045-.546a15.246,15.246,0,0,1-.126,2.247h2.457a17.478,17.478,0,0,1-.105-2.373V-9.3a16.236,16.236,0,0,0,1.365-1.932c.168-.273.231-.357.42-.63l-1.89-1.323a9.6,9.6,0,0,1-.945,1.722,13.913,13.913,0,0,1-3.759,3.759,9.693,9.693,0,0,1,.987,2.226,9.754,9.754,0,0,0,1.638-1.575c-.042.882-.042,1.407-.042,2.247Zm33.684-17.3a12.023,12.023,0,0,1-2.205,3.129c-.4-.294-.546-.4-1.092-.8L157.941-13.9a27.021,27.021,0,0,1,3.864,3.129l-1.008.924c-1.113.021-1.113.021-1.428.042h-.756a11.606,11.606,0,0,1-1.281-.063L157.6-7.6a29.691,29.691,0,0,1,3.759-.294,9.986,9.986,0,0,1-4.746,3.864A7.458,7.458,0,0,1,158-2.2a13.763,13.763,0,0,0,2.478-1.68,12.219,12.219,0,0,0,1.743,1.764A15.943,15.943,0,0,1,156.66-.294a7.369,7.369,0,0,1,1.05,2.037,17.455,17.455,0,0,0,6.363-2.478,18.728,18.728,0,0,0,6.552,2.373,11.222,11.222,0,0,1,1.029-2.289,18.888,18.888,0,0,1-5.607-1.491A19.565,19.565,0,0,0,169.155-5.4c.147-.21.189-.252.336-.441l-1.3-1.2a16.511,16.511,0,0,1-1.7.084h-3.234a9.139,9.139,0,0,0,.63-1.113c1.911-.147,1.911-.147,4.893-.483.294.5.42.756.924,1.659l1.89-1.218a41.544,41.544,0,0,0-3.234-4.62l-1.743,1.071c.588.735.777.987,1.113,1.449-2.352.189-2.352.189-3.99.252a51.939,51.939,0,0,0,4.116-4.305c.462-.567.609-.756.756-.9l-2.142-1.155a20.99,20.99,0,0,1-3.15,3.99c-.462-.462-.672-.651-1.26-1.155a31.875,31.875,0,0,0,2.226-2.688c.357-.483.357-.483.546-.714Zm3.423,12.663a11.339,11.339,0,0,1-2.058,1.89,8.052,8.052,0,0,1-1.974-1.89Zm-9.891-12.747a10.292,10.292,0,0,1-4.284,4.116,7.556,7.556,0,0,1,1.176,1.932,17.455,17.455,0,0,0,3.654-3.087c.525-.609.546-.63,1.323-1.638ZM154.2-4.515V-.651a15.825,15.825,0,0,1-.126,2.31h2.436c-.063-.693-.084-1.3-.084-2.478V-9.324c.168-.252.693-.966,1.071-1.512.126-.168.21-.294.252-.336a10.216,10.216,0,0,1,.567-.861l-1.89-1.239a9.575,9.575,0,0,1-1.26,2.079,15.68,15.68,0,0,1-3.486,3.381,8.5,8.5,0,0,1,.987,2.226A9.762,9.762,0,0,0,154.224-7.1ZM43.108,41.44a24.64,24.64,0,0,1-4,.208H29.172c.676-.78.884-1.092,1.56-1.976H41.444c2.184,0,3.172.052,4.472.156-.1-1.3-.156-2.444-.156-5.2V27.816a49.564,49.564,0,0,1,.156-5.148,39.013,39.013,0,0,1-5.1.208H23.3c.624-.936.832-1.248,1.352-2.08h18.46a45.227,45.227,0,0,1,6.188.312V15.544a44.746,44.746,0,0,1-6.344.312H27.4a27.8,27.8,0,0,1,1.56-2.808l-5.98-1.508c-1.092,4-4.576,9.256-8.32,12.48a16.545,16.545,0,0,1,4.316,4.056c.728-.78.936-1.04,1.456-1.612v8.268a40.582,40.582,0,0,1-.208,5.1,45.564,45.564,0,0,1,4.628-.156c-2.912,3.38-5.876,5.46-10.972,7.644a12.718,12.718,0,0,1,3.172,4.316,33.2,33.2,0,0,0,5.98-3.8A28.132,28.132,0,0,0,27.664,52.1a46.871,46.871,0,0,1-13.676,3.068,15.121,15.121,0,0,1,2.34,5.044,52.5,52.5,0,0,0,16.432-4.94c4.68,2.444,8.892,3.692,16.068,4.836a18.117,18.117,0,0,1,2.184-5.668A43.721,43.721,0,0,1,37.96,52.048a44.006,44.006,0,0,0,6.5-5.928c.728-.832.936-1.04,1.716-1.82Zm-5.3,4.42a34.35,34.35,0,0,1-5.044,3.8,30.681,30.681,0,0,1-5.2-3.8ZM25.792,26.984h14.56v2.184H25.792Zm0,6.136h14.56v2.288H25.792ZM12.324,11.748A22.124,22.124,0,0,1,7.176,18.04a24.049,24.049,0,0,1-5.46,3.848A14.484,14.484,0,0,1,4.94,26.776c4.524-2.964,7.228-5.512,11.492-10.764.416-.52.52-.624.832-1.04Zm.468,21.84A39.771,39.771,0,0,0,15.184,30.1a8.8,8.8,0,0,1,.572-.884c.156-.312.312-.52.364-.624a5.286,5.286,0,0,1,.78-1.2l-4.68-3.224a23.239,23.239,0,0,1-2.34,4.056,39.851,39.851,0,0,1-8.736,9.412,16.8,16.8,0,0,1,2.392,5.668A21.239,21.239,0,0,0,7.384,39.36c-.1,2.912-.1,3.64-.1,5.512V53.5A55.907,55.907,0,0,1,6.968,60H13.1a59.824,59.824,0,0,1-.312-6.6ZM97.4,16.844A31.843,31.843,0,0,1,93.7,17H91.832v-.312a22.5,22.5,0,0,1,.26-4.212H86.528a21.34,21.34,0,0,1,.312,4.212V17h-2.5a19.731,19.731,0,0,1-3.224-.208V13.62a24.918,24.918,0,0,1-4.524.26H68.432a28.972,28.972,0,0,1-4.368-.26v5.512a20.5,20.5,0,0,1,2.288-.208V47.888a15.02,15.02,0,0,1-2.86.416l1.2,5.616a20.063,20.063,0,0,1,3.484-1.04c1.82-.52,4.264-1.3,6.552-2.028v3.9a51.064,51.064,0,0,1-.26,5.564h5.252a37.484,37.484,0,0,1-.26-5.512V31.768H98.748c.468,7.54.936,11.18,2.08,15.5A45.346,45.346,0,0,1,96.72,51.84V38.476c0-2.652,0-3.432.1-4.628a32.139,32.139,0,0,1-3.38.156H85.176a23.1,23.1,0,0,1-3.276-.156c.1,1.716.156,2.34.156,4.628V52.568c0,1.716-.1,3.016-.208,4.524h4.68v-3.38h7.956a40.11,40.11,0,0,1-3.536,2.5,15.376,15.376,0,0,1,3.276,4,44.361,44.361,0,0,0,8.372-7.7c1.82,4.212,4.264,6.708,6.448,6.708a3.594,3.594,0,0,0,3.224-2.392c.676-1.56,1.092-3.588,1.508-7.592a18.663,18.663,0,0,1-4.108-2.808c-.156,4.108-.52,6.552-.884,6.552-.1,0-.312-.26-.78-1.092a22.937,22.937,0,0,1-1.768-4.264,60.48,60.48,0,0,0,4.42-8.58c.416-.936.832-1.872,1.144-2.5L107.588,33.9a34.3,34.3,0,0,1-2.912,7.384c-.416-2.7-.728-5.46-.988-9.516h2.86a42.892,42.892,0,0,1,5.824.26v-5.46a32.511,32.511,0,0,1-5.824.312h-3.016c-.052-1.56-.1-5.876-.1-7.7a39.986,39.986,0,0,1,.26-6.6H98.28a32.262,32.262,0,0,1,.156,3.744c.052,6.916.052,6.916.156,10.556h-4.16a42.04,42.04,0,0,0,1.3-5.564,14.158,14.158,0,0,1,1.664.1Zm-5.98,4.42a36.785,36.785,0,0,1-1.144,5.616H88.088c-.26-2.236-.572-4.108-.884-5.616ZM79.456,26.88V18.924c.624.052.832.052,1.56.1V21.42c.78-.1.988-.1,1.768-.156.52,2.132.884,4.056,1.144,5.616Zm-8.32-7.956h3.588v6.084H71.136Zm0,10.712h3.588V35.2H71.136Zm0,10.192h3.588v5.98c-1.4.416-1.872.572-3.588.988ZM86.528,38.32h5.824v3.328H86.528ZM86.476,45.7h5.876V49.4H86.476Zm17.94-29.068a27.319,27.319,0,0,1,3.848,8.216l4.108-2.392a41.711,41.711,0,0,0-4.16-7.852ZM139.308,26.1a40.209,40.209,0,0,1,7.488,6.4c-1.56,1.508-2.392,2.236-4.316,3.848-.364,0-1.768.052-1.872.052h-.572l1.248-.988-2.6-4.056a30.132,30.132,0,0,1-11.492,6.136l2.08,5.408a58.925,58.925,0,0,0,8.892-5.148l.52,3.588c.468-.052,1.352-.156,2.548-.208,8.372-.676,11.648-1.04,16.8-1.872.416.884.676,1.4,1.352,2.964l4.472-1.82a55.238,55.238,0,0,0-6.4-9.516l-3.8,1.612c1.144,1.456,1.508,1.976,2.236,3.068a66.924,66.924,0,0,1-7.228.52,81.843,81.843,0,0,0,10.868-10.712l-4.16-2.756a56.4,56.4,0,0,1-5.2,6.448,27.47,27.47,0,0,0-2.132-2.132A41.763,41.763,0,0,0,152.256,21h16.692a40.852,40.852,0,0,1,5.408.26V15.6a47.924,47.924,0,0,1-6.188.312h-14.82v-.572a16.146,16.146,0,0,1,.312-3.224h-6.344a16.3,16.3,0,0,1,.312,3.276v.52H133.744a48.145,48.145,0,0,1-6.136-.312v5.668a40.5,40.5,0,0,1,5.356-.26h13.624a18.156,18.156,0,0,1-1.924,3.016c-.78-.624-1.04-.832-1.976-1.508Zm8.216,23.764v5.772a31.107,31.107,0,0,1-.364,5.044h6.5a29.833,29.833,0,0,1-.364-5.044V49.864h15.34a52.624,52.624,0,0,1,6.084.312v-5.72a39.092,39.092,0,0,1-5.356.312H153.3v-.416a16.657,16.657,0,0,1,.208-3.068h-6.188a15.955,15.955,0,0,1,.208,3.068v.416H132.548a39.75,39.75,0,0,1-5.564-.312v5.72a47.207,47.207,0,0,1,6.084-.312ZM128.7,25.164a35.415,35.415,0,0,1,7.28,6.916l3.9-3.848a52.309,52.309,0,0,0-7.228-6.5Zm39.156-3.432a38.306,38.306,0,0,1-8.58,7.176l3.588,3.8a59.189,59.189,0,0,0,9.1-7.488Zm-6.084,14.04a45.7,45.7,0,0,1,8.736,7.332l3.692-4.316a61.066,61.066,0,0,0-9.256-6.6Z" transform="translate(1210 2890)" fill="#fff"/>
    <path id="パス_1159" data-name="パス 1159" d="M28.21,0V-109.928L9.646-96.278v-19.656l18.564-13.65H46.774V0ZM92.092-102.83a28.3,28.3,0,0,1,2.275-11.648,27.255,27.255,0,0,1,6.1-8.736,26.231,26.231,0,0,1,8.827-5.551,29.09,29.09,0,0,1,10.465-1.911,29.09,29.09,0,0,1,10.465,1.911,26.231,26.231,0,0,1,8.827,5.551,27.255,27.255,0,0,1,6.1,8.736,28.3,28.3,0,0,1,2.275,11.648v76.076a28.3,28.3,0,0,1-2.275,11.648,27.255,27.255,0,0,1-6.1,8.736,26.231,26.231,0,0,1-8.827,5.551,29.09,29.09,0,0,1-10.465,1.911A29.09,29.09,0,0,1,109.291-.819a26.231,26.231,0,0,1-8.827-5.551,27.255,27.255,0,0,1-6.1-8.736,28.3,28.3,0,0,1-2.275-11.648Zm18.564,76.076a9.179,9.179,0,0,0,2.548,6.643,8.707,8.707,0,0,0,6.552,2.639,8.707,8.707,0,0,0,6.552-2.639,9.179,9.179,0,0,0,2.548-6.643V-102.83a9.179,9.179,0,0,0-2.548-6.643,8.707,8.707,0,0,0-6.552-2.639,8.707,8.707,0,0,0-6.552,2.639,9.179,9.179,0,0,0-2.548,6.643ZM178-102.83a28.3,28.3,0,0,1,2.275-11.648,27.255,27.255,0,0,1,6.1-8.736,26.231,26.231,0,0,1,8.827-5.551,29.09,29.09,0,0,1,10.465-1.911,29.09,29.09,0,0,1,10.465,1.911,26.23,26.23,0,0,1,8.827,5.551,27.255,27.255,0,0,1,6.1,8.736,28.3,28.3,0,0,1,2.275,11.648v76.076a28.3,28.3,0,0,1-2.275,11.648,27.255,27.255,0,0,1-6.1,8.736,26.231,26.231,0,0,1-8.827,5.551A29.09,29.09,0,0,1,205.66,1.092,29.09,29.09,0,0,1,195.195-.819a26.231,26.231,0,0,1-8.827-5.551,27.255,27.255,0,0,1-6.1-8.736A28.3,28.3,0,0,1,178-26.754ZM196.56-26.754a9.179,9.179,0,0,0,2.548,6.643,8.707,8.707,0,0,0,6.552,2.639,8.707,8.707,0,0,0,6.552-2.639,9.179,9.179,0,0,0,2.548-6.643V-102.83a9.179,9.179,0,0,0-2.548-6.643,8.707,8.707,0,0,0-6.552-2.639,8.707,8.707,0,0,0-6.552,2.639,9.179,9.179,0,0,0-2.548,6.643ZM267.472.183l3.111,2.44,38.43-49.166-3.172-2.44Zm35.136,1.83A11.228,11.228,0,0,0,310.843-1.1c2.318-2.257,3.538-5.917,3.538-10.553,0-4.575-1.22-8.235-3.538-10.492a11.378,11.378,0,0,0-8.235-3.111,11.628,11.628,0,0,0-8.3,3.111c-2.318,2.318-3.538,5.917-3.538,10.492,0,4.636,1.22,8.3,3.538,10.553A11.276,11.276,0,0,0,302.608,2.013Zm0-22.082a4.394,4.394,0,0,1,3.9,1.891,10.77,10.77,0,0,1,1.647,6.1c0,5.917-1.891,8.967-5.551,8.967-3.6,0-5.551-3.05-5.551-8.662a10.607,10.607,0,0,1,1.647-6.344A4.247,4.247,0,0,1,302.608-20.069Zm-28.731-1.037a11.228,11.228,0,0,0,8.235-3.111c2.318-2.257,3.538-5.917,3.538-10.553,0-4.575-1.22-8.235-3.538-10.492a11.378,11.378,0,0,0-8.235-3.111c-7.442,0-11.834,5.063-11.834,13.6,0,4.575,1.22,8.3,3.538,10.553A11.276,11.276,0,0,0,273.877-21.106Zm0-22.082a4.7,4.7,0,0,1,4.453,2.745,13.392,13.392,0,0,1,1.1,5.673c0,5.49-2.013,8.54-5.551,8.54-3.6,0-5.551-3.05-5.551-8.662C268.326-40.2,270.339-43.188,273.877-43.188Z" transform="translate(1228 3367)" fill="#0052aa"/>
  </g>
</svg>
