<svg xmlns="http://www.w3.org/2000/svg" xmlns:xlink="http://www.w3.org/1999/xlink" width="427.324" height="296.676" viewBox="0 0 427.324 296.676">
  <defs>
    <linearGradient id="linear-gradient" y1="0.5" x2="1" y2="0.5" gradientUnits="objectBoundingBox">
      <stop offset="0" stop-color="#03a8e5"/>
      <stop offset="1" stop-color="#012869"/>
    </linearGradient>
    <filter id="パス_301" x="0" y="0" width="427.324" height="296.676" filterUnits="userSpaceOnUse">
      <feOffset dx="10" dy="10" input="SourceAlpha"/>
      <feGaussianBlur stdDeviation="15" result="blur"/>
      <feFlood flood-opacity="0.161"/>
      <feComposite operator="in" in2="blur"/>
      <feComposite in="SourceGraphic"/>
    </filter>
    <linearGradient id="linear-gradient-2" x1="-0.03" xlink:href="#linear-gradient"/>
    <filter id="長方形_226" x="21.441" y="33.436" width="197" height="63" filterUnits="userSpaceOnUse">
      <feOffset input="SourceAlpha"/>
      <feGaussianBlur stdDeviation="5" result="blur-2"/>
      <feFlood flood-color="#013778" flood-opacity="0.322"/>
      <feComposite operator="in" in2="blur-2"/>
      <feComposite in="SourceGraphic"/>
    </filter>
  </defs>
  <g id="休日の過ごし方" transform="translate(-684.062 -6183.445)">
    <g id="グループ_254" data-name="グループ 254" transform="translate(719.062 6218.445)">
      <g transform="matrix(1, 0, 0, 1, -35, -35)" filter="url(#パス_301)">
        <path id="パス_301-2" data-name="パス 301" d="M0,0H337.324V206.676H0Z" transform="translate(35 35)" fill="url(#linear-gradient)"/>
      </g>
      <path id="パス_302" data-name="パス 302" d="M0,0H329.324V198.676H0Z" transform="translate(4 4)" fill="#edf9ff"/>
    </g>
    <g id="グループ_260" data-name="グループ 260" transform="translate(747.626 6271.062)">
      <path id="パス_666" data-name="パス 666" d="M701.448,1245.312c-.133-1.228-.723-2.5-.968-3.733-.4-2.046-.4-4.163-.721-6.238a26.915,26.915,0,0,1-.105-4.428,32.282,32.282,0,0,0-.731-5.448c-.343-2.038-1.159-4.133-.816-6.232a2.922,2.922,0,0,1,.382.111c2.361,4.345,2.565,9.928,3.771,14.683.852,3.341,1.471,8.324-.812,11.284Zm-7.955-64.193c-.733.034-1.62.523-2.185.523-.729,0-1.3-.618-2.2-.527-.386.038-.624.349-1.042.317s-.737-.357-1.151-.418c-.909-.137-1.737.457-2.606.418-.788-.034-1.265-.6-1.99-1.125-.141-.1-.307-.238-.5-.384a40.4,40.4,0,0,0,.293-5.177,6.472,6.472,0,0,1,.517-3.283c.785-.333,1.586-1.048,2.4-.83,1.216.327,1.707,1.069,2.551,1.943.7.725,1.448,1.359,2.185,2.048a12.864,12.864,0,0,0,2.895,2.495,8.074,8.074,0,0,1,2.929,2.014c1.343,1.78-.622,1.911-2.1,1.986Zm-25.09,62.125c-.087.469.059,1.04-.074,1.5-.127.437-.667.8-.756,1.095.295-1.006-.171-2.5-.165-3.581,0-1.483.024-2.963.169-4.44.158-1.586.178-3.183.331-4.777.311-3.28.168-6.518.168-9.821,0-1.566.353-3.1.327-4.644a17.556,17.556,0,0,1,.774,5.254,29.743,29.743,0,0,1-.374,4.523,25.178,25.178,0,0,0,.105,6.961,20.979,20.979,0,0,1,.586,4.175c0,1.477-.822,2.4-1.091,3.753Zm-31.094-6.375a4.831,4.831,0,0,0-.767-2.582,3.109,3.109,0,0,1-.335-2.317c.2-2.02-.9-3.163-1.269-5-.148-.721.161-1.095.372-1.771a3.546,3.546,0,0,0-.038-2,28.188,28.188,0,0,1-.566-4.341c-.129-1.387-1.21-2.62-1.089-4,.069-.735.556-1.232.778-1.919.284-.893-.151-1.19-.343-1.937-.313-1.246.43-2.826.487-4.066.073-1.608-.469-3.111-.4-4.66a7.785,7.785,0,0,1,.487-2.523c.22-.481.436-.669.471-1a1.4,1.4,0,0,0-.055-.5c-.2-.743-.487-.738-.147-1.477a7.664,7.664,0,0,0,.727-1.408c.763.657.41,2.331.735,3.22a6.874,6.874,0,0,1,.537,1.838c.139,1.434.072,2.879.147,4.345.087,1.632.087,3.276.087,4.933a13.145,13.145,0,0,0,.246,2.652,20.033,20.033,0,0,0,.772,1.982c.48,1.475-.3,2.537-.519,4.026a32.366,32.366,0,0,0,0,6.411,42.867,42.867,0,0,0,.416,6.264c.325,1.572,1.509,3.577,1.323,5.163-.856.047-1.555-.089-2.056.675Zm-4.947-104.019c-.155,1.028.376,2.606-1.064,2.826a1.928,1.928,0,0,1-.265,0,22.944,22.944,0,0,1-.248-2.913c0-1.289-.267-3.183-1.642-3.715-1.1-.426-2.385.089-3.521.032-.206-1.05,1.056-2.248,1.681-2.973.792-.917,1.04-2.075,1.749-3a4.582,4.582,0,0,0,1.242-3.22c.155.767.535,1.495.656,2.363.2,1.471-.221,2.927-.154,4.4a8.7,8.7,0,0,0,1.153,4.107,2.387,2.387,0,0,1,.412,2.089Zm-8.593,32.219c-.37,1.739-.739,3.454-1.161,5.153a31.883,31.883,0,0,0-.749,5.09,15.873,15.873,0,0,1-.439,1.976,10.229,10.229,0,0,1-.319-2.474c.062-.582.42-1.105.507-1.671a19.167,19.167,0,0,0,0-1.919,18.082,18.082,0,0,1,.416-1.834,7.164,7.164,0,0,0-.172-1.668,4.781,4.781,0,0,1,.857-2.917,18.807,18.807,0,0,1,1.794-2.252c-.251.83-.543,1.654-.733,2.517Zm-2.5,15.665c-.006-.02-.01-.042-.016-.065a2.5,2.5,0,0,1,.021-1.67c.008.58.022,1.151,0,1.735Zm97.956,22.725c-.089-.949-.259-1.877-.317-2.82a67.642,67.642,0,0,1,0-11.061,22.777,22.777,0,0,0,.107-5.325,17.712,17.712,0,0,0-2.06-5.559,21.989,21.989,0,0,0-3.214-4.991c-1.17-1.315-2.713-2.184-2.537-4.123.138-1.559.432-2.674-.986-3.822-.24-.192-.529-.271-.691-.541a2.427,2.427,0,0,1-.093-1.307A2.435,2.435,0,0,0,708,1161.2c-.719-.224-.966,0-1.495-.656-.4-.5-.75-1.016-1.133-1.527a14.182,14.182,0,0,0-4.458-3.951,17.6,17.6,0,0,0-1.814-.85,3.544,3.544,0,0,1-1.384-.653c-.426-.463-.285-1.1-.806-1.572-.61-.547-1.424-.717-1.961-1.363a12.277,12.277,0,0,1-1.784-2.24,10.685,10.685,0,0,1-.576-1.384c-.572-1.771-.95-3.589-2.264-5.028a11.364,11.364,0,0,0-4.583-3.157,3.434,3.434,0,0,0-1.919-.309c-.151.048-.273.23-.416.307-.285.147-.323.085-.624.1-1.636.1-3.262,1.929-4.365,2.994a9.216,9.216,0,0,0-2.26,4.585,12.489,12.489,0,0,0,.238,4.442,11.035,11.035,0,0,0,.776,2.719c.489,1.022-.041,1.9-.23,2.959a3.868,3.868,0,0,0,.489,2.81c.436.792-.057,1.758.491,2.543a5.451,5.451,0,0,0,.5.515c-2.19-.242-4.931-.44-5.858-2.172a4.136,4.136,0,0,1,.228-3.708,6.075,6.075,0,0,0,.82-3.04c2.3-.279,2.509-4.739,1.151-4.206a26.265,26.265,0,0,0-.228-2.8,13.318,13.318,0,0,0-.667-2.808c-.15-.356-1.79-1.939-1.743-2.109,1.258-4.567-8.064-5.745-7.724-2.414-1.226-.147-2.121,1.323-2.369,2.313-.313,1.265.713,1.917.3,2.921-.251.6-.695.865-.82,1.566a8.871,8.871,0,0,0-.022,1.778c.052,1.1.507,2.083.608,3.117-1.578-.012.162,4.108,1.776,3.892a12.429,12.429,0,0,0,.566,1.84c.236.453.755.759.988,1.192a1.828,1.828,0,0,1-.261,1.994,2.242,2.242,0,0,1-.713.644c-.45.216-.6-.008-.929-.275a17.969,17.969,0,0,0-2.006-1.475,2.669,2.669,0,0,0-1.792-.582,1.19,1.19,0,0,0-.491.224c-.17.162-.115.39-.123.6-.277.095-.5.081-.659.378a1.169,1.169,0,0,0-.073.575c0,.295,0,.295-.244.44a.766.766,0,0,0-.384.568,1.913,1.913,0,0,0,.366,1.182c.117.234-.024.545-.113.778a7.157,7.157,0,0,1-.42.767,6.24,6.24,0,0,0-.6,1.117,18.1,18.1,0,0,0-.963,6.209,7.615,7.615,0,0,1-.067,1.937,9.039,9.039,0,0,0-.352,1.818,7.374,7.374,0,0,1,.02,2.022c-.186.671-.648,1.293-.834,1.984a33.262,33.262,0,0,0-1.186,5.444c-.168,1.717-.188,3.44-.416,5.153a43.548,43.548,0,0,1-1.487,5.088,15.388,15.388,0,0,1-.437,1.921,2.452,2.452,0,0,0-.347,1.648c-.62.371-1.345.757-2.006,1.2a12.729,12.729,0,0,0,.6-3.127c.095-2.012.149-4.012.248-6.036.042-.863.089-1.743.089-2.626,0-.986.453-1.113.818-1.8.4-.753-.02-1.272-.137-2.048-.206-1.4-.307-2.816-.432-4.216-.323-3.555-.753-7.005-.753-10.637,0-2.23.174-4.46.168-6.672a44.912,44.912,0,0,1,0-4.838c.155-1.41,1.26-2.642,1.751-4.006a33.212,33.212,0,0,0,1.069-3.25,28.655,28.655,0,0,0,.519-7.763c-.154-3.028-1.333-4.309-4-5.565a12.383,12.383,0,0,0-1.252-.46c-.669-.232-.693-.547-1.188-.9-.416-.3-2.329-.925-2.65-.485-.2-.352-.654-.656-.85-.1a2.867,2.867,0,0,1-1.824-3,4.255,4.255,0,0,1,.188-1.109c.075-.008.105.038.176.038a6.387,6.387,0,0,0,.321-.919c.663.093.923-.422,1.16-.925.178-.392.162-.885.337-1.26a3.172,3.172,0,0,1,.834-.955,4.845,4.845,0,0,0,1.287-2.256c.252-.941-.35-1.573-.214-2.456a12.05,12.05,0,0,0,.254-2,8.447,8.447,0,0,0-.6-4.163c-1.792-3.394-4.994-4.3-8.5-3.26-1.717.511-4.248,1.721-4.183,3.822-.778.188-1.5,1.474-1.735,2.186a2.586,2.586,0,0,0-.121.578,6.613,6.613,0,0,0-2.713-4.81c-2.741-1.82-6.462-2.175-9.1-.123a7.2,7.2,0,0,0-2.664,3.4c-.4,1.584.256,2.9.895,4.3.291.646.125,1.272.351,1.913.248.7.863.505,1.313.917,1.089.978,1.089,2.582,1.026,3.923-.1,2.081-1.5,2.083-3.091,2.981a6.838,6.838,0,0,0-3.254,3.2,19.727,19.727,0,0,0-.937,3.832,20.85,20.85,0,0,0-.222,2.917c-.06,1.333.2,2.65.273,3.977a5.8,5.8,0,0,1-.089,1.951c-.242.751-.628.576-1.313.711a2.848,2.848,0,0,0-1.943,1.533,13.549,13.549,0,0,1-1.584,1.858c-1.234,1.26-1.214,2.638-.394,4.175a10.174,10.174,0,0,0,1.293,1.636c.374.453.733,1.319,1.271,1.574.557.273.8-.378,1.287-.188.406.162.527.893.778,1.212.638.812,1.47.614,2.254.089.549.909.228,3.143-.25,4-.82,1.438-1.543,2.379-1.487,4.07.02.62.279,1.311.3,1.933.026.873-.554,1.265-.378,2.153a28.89,28.89,0,0,1,.986,6.541,8.981,8.981,0,0,1-.259,2.321c-.208.681-.756,1.264-.935,1.913-.259.935.39,1.2.586,2.006s-.483.97-.479,1.582c.008.763.747.962.251,1.757a3.94,3.94,0,0,1-1.414,1c-.957.553-1.66,1.357-2.606,1.979s-1.422,1.3-.63,2.337c1,1.327,3.375,1.5,4.868,1.313s4.084,1.032,5.347.107c.281-.2.319-.551.586-.754.208-.156.556-.1.756-.245.574-.428.436-1.044.436-1.733,0-1.464.016-2.888.083-4.341a2.618,2.618,0,0,1,.356-1.646,5.526,5.526,0,0,1,.99-.683c0,.107-.014.214-.014.323,0,1.511.257,3.024.333,4.509.188,3.424.794,6.777,1.236,10.179.206,1.594.592,3.016.769,4.584a16.937,16.937,0,0,0,1.166,3.838,7.523,7.523,0,0,1,.079,4c-.253,1.343.452,2.163.5,3.426a16.364,16.364,0,0,0,.45,2.838c.218,1.012,0,2.071.287,3.073.224.8.344,1.638.513,2.43.345,1.618.729,3.315,1.171,4.925.279,1.028,1.626,2.953,1.022,3.945-.343.566-1.014.709-1.273,1.394a1.867,1.867,0,0,0,.17,1.838,2.317,2.317,0,0,0,.64.687c.141.083.761.042.842.162.325.491-.539.781-.654,1.23-.192.731.456.982.856,1.426,1.307,1.438.317,3.369-.552,4.745-.729,1.165-2.533,2.7-2.392,4.175.131,1.357,1.513,1.357,2.559,1.424,1.483.1,2.666.4,4.137-.234s.9-2.026,1.9-3.028c.988-.982,2.056-1.046,2.44-2.5a4.418,4.418,0,0,0,.166-1.939c-.131-.63-.636-1.147-.505-1.808a1.84,1.84,0,0,1,.572.3c1.109.87.333,2.557.162,3.61a4.318,4.318,0,0,0-.148,1.9c.19.463.778.766,1.129,1.127.939.953-.081,2.442,1.443,2.818a18.6,18.6,0,0,0,4.167.331c1.224,0,3.143.255,3.088-1.418-.04-1.489-1.135-2-1.939-3.067a4.016,4.016,0,0,1-.568-1.771c-.149-.75.1-1.01.17-1.671.04-.355-.21-.622-.168-1,.03-.285.323-.485.341-.75.024-.444-.388-.887-.331-1.3.1-.677.295-.355.832-.64a1.6,1.6,0,0,0,.768-2.081c-.275-.7-.967-.731-1.256-1.339-.509-1.079.687-2.755.98-3.735a36.509,36.509,0,0,0,1.341-5.236c.253-1.725.265-3.432.434-5.209.137-1.474.157-3.03.23-4.49a3.447,3.447,0,0,0-.4-1.854,2.158,2.158,0,0,1-.269-1.729c.151-1.468-.6-2.549.184-3.919.794-1.39.47-3.181.481-4.774h0c.372.172.895.263,1.432.446a22.971,22.971,0,0,0,3.147,1.253c1.368.254,2.832.578,4.214.719a9.438,9.438,0,0,1,3.284,1.061c-.172,2.848,1.893,5.533,2.022,8.328.188,3.965-.634,7.88-.422,11.843.238,4.5,1.58,8.851,1.755,13.348a5.39,5.39,0,0,1-.063,2.028c-.226.446-.921.669-1.293,1.042a4.479,4.479,0,0,0-.959,1.523c-.321.864-.238.864-1.089,1.355-.879.5-2.466,1.279-2.109,2.567.448,1.608,3.682,1.077,4.844,1.08,1.022.006,1.313-.485,2.109-.98.6-.378,1.786-.133,2.125-.681.063.832-.184,2.01.537,2.56a5.267,5.267,0,0,0,2.737.353c1.266-.063,2.581-.281,2.917-1.668a17.967,17.967,0,0,0,.168-4.089,26.506,26.506,0,0,0-.586-4.1,8.63,8.63,0,0,1,.651-4.155c.937-3.01,1.87-6.3,1.707-9.482q-.088-1.678-.089-3.414v-3.689c0-1.418.022-2.877-.1-4.27a20.632,20.632,0,0,1,.271-3.5c.079-.881-.406-2.273.085-3.068.57-.923,1.955.079,2.634-.774.436-.548-.236-4.634.521-4.507.265.047.111.572.305.683a2.813,2.813,0,0,0,1.531-.087c.867-.277,1.343-1.406,1.723-2.194a2.115,2.115,0,0,0,.19-1.565c-.036-.115-1.113-2.008-1.1-2.008,1.368.172.247-3.291.311-3.963a36.683,36.683,0,0,0,.287-5.03c-.079-2.123-.164-4.222-.16-6.321a2.3,2.3,0,0,1,.264-.045,5.139,5.139,0,0,1,1.257-.186c.7.182.331.315.622.917.453.917.788.759,1.878.6.883-.131,1.838-.246,2.739-.291a48.363,48.363,0,0,1,5.183.02c-.1.719-.356,1.5-.483,2.2-.174.915.323,1.457.37,2.3.044.82-.517,1.319-.713,2.061a10.639,10.639,0,0,0-.1,2.618,10.823,10.823,0,0,1-.212,2.818c-.224.8-.671,1.182-.727,2.085a13.963,13.963,0,0,1-.968,4.884c-.174.4-.667.86-.681,1.3-.018.608.416.942.5,1.539a11.818,11.818,0,0,1-.442,3.757,10.171,10.171,0,0,0,.341,3.553c.271,2.074.178,4.121.612,6.2.466,2.226,1.153,4.4,1.584,6.636a102.7,102.7,0,0,0,2.711,10.021,29.509,29.509,0,0,1,.838,4.175c.162,1.158-.111.956-.949,1.648a11.75,11.75,0,0,0-1.374,1.588c-.45.545-.681,1.186-1.1,1.7a3.872,3.872,0,0,1-1.483.917,1.541,1.541,0,0,0-.865,2.2c.565,1.03,1.953.972,2.951.921.59-.028,1.089-.2,1.642-.232.727-.038.42.03,1.045.339,2.078,1.014,5.506,1.418,7.666.452.356-.158,2.392-1.3,2.365-1.693.026.4.008.82.03,1.224a13.539,13.539,0,0,0,3.1.2c.323-.8.02-1.83.143-2.7.253-1.747,1.24-2.905.5-4.8-.536-1.365-1.614-2.717-1.778-4.179a25.348,25.348,0,0,1,.5-4.925,60.653,60.653,0,0,0-.186-8.676c-.174-4-1.921-7.31-3.337-10.936-.606-1.553.2-3.06,1.036-4.486.465-.8.863-1.612,1.335-2.4,1.37-2.275,4.973-1.232,7.13-1.667a12.8,12.8,0,0,0,2.4-.66c.994-.422.955-1.089,1.566-1.642.311-.283.743-.143.943-.624a3.863,3.863,0,0,0-.107-1.256Z" transform="translate(-606.272 -1112.001)" fill="#a8e1f7"/>
    </g>
    <g transform="matrix(1, 0, 0, 1, 684.06, 6183.44)" filter="url(#長方形_226)">
      <rect id="長方形_226-2" data-name="長方形 226" width="167" height="33" transform="translate(36.44 48.44)" fill="url(#linear-gradient-2)"/>
    </g>
    <text id="休日の主な過ごし方" transform="translate(735.975 6251.807)" fill="#fff" font-size="13" font-family="HiraginoSans-W6, Hiragino Sans" letter-spacing="0.2em"><tspan x="0" y="0">休日の主な過ごし方</tspan></text>
    <text id="スポーツ_19_インドア_18_その他_10_自己啓発_7_" data-name="スポーツ：19％
インドア：18％
その他：10％
自己啓発：7％" transform="translate(897.503 6282.881)" fill="#0052aa" font-size="16" font-family="HiraginoSans-W6, Hiragino Sans" letter-spacing="0.1em"><tspan x="0" y="0">スポーツ：</tspan><tspan y="0" font-size="30" font-family="DINCondensed-Bold, DIN Condensed" font-weight="700">19</tspan><tspan y="0">％</tspan><tspan y="0" font-family="DINCondensed-Bold, DIN Condensed" font-weight="700"></tspan><tspan x="0" y="40">インドア：</tspan><tspan y="40" font-size="30" font-family="DINCondensed-Bold, DIN Condensed" font-weight="700">18</tspan><tspan y="40">％</tspan><tspan y="40" font-family="DINCondensed-Bold, DIN Condensed" font-weight="700"></tspan><tspan x="0" y="80">その他：</tspan><tspan y="80" font-size="30" font-family="DINCondensed-Bold, DIN Condensed" font-weight="700">10</tspan><tspan y="80">％</tspan><tspan y="80" font-family="DINCondensed-Bold, DIN Condensed" font-weight="700"></tspan><tspan x="0" y="120">自己啓発：</tspan><tspan y="120" font-size="30" font-family="DINCondensed-Bold, DIN Condensed" font-weight="700">7</tspan><tspan y="120">％</tspan></text>
    <text id="家族と過ごす_46_" data-name="家族と過ごす
46％" transform="translate(804.503 6312.881)" fill="#0052aa" font-size="18" font-family="HiraginoSans-W6, Hiragino Sans" letter-spacing="0.1em"><tspan x="-59.4" y="0">家族と過ごす</tspan><tspan y="0" font-family="DINCondensed-Bold, DIN Condensed" font-weight="700"></tspan><tspan font-size="96" font-family="DINCondensed-Bold, DIN Condensed" font-weight="700"><tspan x="-54.312" y="84">46</tspan><tspan y="84" font-size="18" font-family="HiraginoSans-W6, Hiragino Sans" font-weight="400">％</tspan></tspan></text>
  </g>
</svg>
