<svg xmlns="http://www.w3.org/2000/svg" xmlns:xlink="http://www.w3.org/1999/xlink" width="899.653" height="301.867" viewBox="0 0 899.653 301.867">
  <defs>
    <linearGradient id="linear-gradient" y1="0.5" x2="1" y2="0.5" gradientUnits="objectBoundingBox">
      <stop offset="0" stop-color="#03a8e5"/>
      <stop offset="1" stop-color="#012869"/>
    </linearGradient>
    <filter id="パス_301" x="0" y="0" width="899.653" height="301.867" filterUnits="userSpaceOnUse">
      <feOffset dx="10" dy="10" input="SourceAlpha"/>
      <feGaussianBlur stdDeviation="15" result="blur"/>
      <feFlood flood-opacity="0.161"/>
      <feComposite operator="in" in2="blur"/>
      <feComposite in="SourceGraphic"/>
    </filter>
    <linearGradient id="linear-gradient-2" x1="-0.03" xlink:href="#linear-gradient"/>
    <filter id="長方形_206" x="20.631" y="76" width="311" height="140" filterUnits="userSpaceOnUse">
      <feOffset input="SourceAlpha"/>
      <feGaussianBlur stdDeviation="5" result="blur-2"/>
      <feFlood flood-color="#013778" flood-opacity="0.322"/>
      <feComposite operator="in" in2="blur-2"/>
      <feComposite in="SourceGraphic"/>
    </filter>
  </defs>
  <g id="貿易比率" transform="translate(-747.369 -1383)">
    <g id="グループ_221" data-name="グループ 221" transform="translate(252.599 -956)">
      <g transform="matrix(1, 0, 0, 1, 494.77, 2339)" filter="url(#パス_301)">
        <path id="パス_301-2" data-name="パス 301" d="M0,0H809.653V211.867H0Z" transform="translate(35 35)" fill="url(#linear-gradient)"/>
      </g>
      <path id="パス_302" data-name="パス 302" d="M0,0H801.653V203.867H0Z" transform="translate(533.568 2378)" fill="#edf9ff"/>
    </g>
    <path id="パス_1124" data-name="パス 1124" d="M23.744,0V-11.872H1.008V-22.624l16.464-57.12h12.1L12.432-22.624H23.744V-45.36H35.168v22.736h5.488v10.752H35.168V0ZM60.816,0,73.808-33.488l-.224-.224a4.477,4.477,0,0,1-1.736.728,13.738,13.738,0,0,1-3.08.28,11.189,11.189,0,0,1-5.6-1.456,11.366,11.366,0,0,1-4.032-3.7A9.785,9.785,0,0,1,57.9-40.264a15.483,15.483,0,0,1-.672-3.3,40.978,40.978,0,0,1-.448-5.1q-.112-3.08-.112-7.784,0-3.92.112-6.44a31.361,31.361,0,0,1,.448-4.312,11.849,11.849,0,0,1,.728-2.912,20.693,20.693,0,0,1,1.288-2.576A15.449,15.449,0,0,1,65.24-78.4,17.579,17.579,0,0,1,73.7-80.416a16.88,16.88,0,0,1,8.4,2.072,16.276,16.276,0,0,1,5.936,5.656,28.74,28.74,0,0,1,1.344,2.576,13.416,13.416,0,0,1,.9,2.912q.224,1.792.336,4.312t.112,6.44q0,3.7-.112,6.1t-.336,4.088q-.336,1.792-.728,3.192T88.592-40.1L73.584,0ZM68.1-48.5a5.4,5.4,0,0,0,1.68,4.144,5.564,5.564,0,0,0,3.92,1.568,5.564,5.564,0,0,0,3.92-1.568A5.4,5.4,0,0,0,79.3-48.5V-63.28a5.4,5.4,0,0,0-1.68-4.144,5.564,5.564,0,0,0-3.92-1.568,5.564,5.564,0,0,0-3.92,1.568A5.4,5.4,0,0,0,68.1-63.28ZM111.648.111l1.887,1.48,23.31-29.822-1.924-1.48Zm21.312,1.11a6.811,6.811,0,0,0,5-1.887c1.406-1.369,2.146-3.589,2.146-6.4,0-2.775-.74-5-2.146-6.364a6.9,6.9,0,0,0-5-1.887,7.053,7.053,0,0,0-5.032,1.887c-1.406,1.406-2.146,3.589-2.146,6.364,0,2.812.74,5.032,2.146,6.4A6.84,6.84,0,0,0,132.96,1.221Zm0-13.394a2.665,2.665,0,0,1,2.368,1.147,6.533,6.533,0,0,1,1,3.7c0,3.589-1.147,5.439-3.367,5.439-2.183,0-3.367-1.85-3.367-5.254a6.434,6.434,0,0,1,1-3.848A2.576,2.576,0,0,1,132.96-12.173ZM115.533-12.8a6.81,6.81,0,0,0,5-1.887c1.406-1.369,2.146-3.589,2.146-6.4,0-2.775-.74-4.995-2.146-6.364a6.9,6.9,0,0,0-5-1.887c-4.514,0-7.178,3.071-7.178,8.251,0,2.775.74,5.032,2.146,6.4A6.84,6.84,0,0,0,115.533-12.8Zm0-13.394a2.848,2.848,0,0,1,2.7,1.665,8.123,8.123,0,0,1,.666,3.441c0,3.33-1.221,5.18-3.367,5.18-2.183,0-3.367-1.85-3.367-5.254C112.166-24.383,113.387-26.2,115.533-26.2Z" transform="translate(1094 1567)" fill="#0052aa"/>
    <path id="パス_1125" data-name="パス 1125" d="M24.275,2.225A19.214,19.214,0,0,1,21.1-2.75,16.912,16.912,0,0,1,19.775-9.6a16.4,16.4,0,0,1,1.3-6.625A19.482,19.482,0,0,1,24.25-21.2h-3.5A20.181,20.181,0,0,0,18-16.275,17.692,17.692,0,0,0,16.725-9.6,18.4,18.4,0,0,0,18.05-2.7a20.023,20.023,0,0,0,2.725,4.925Zm8-20.9H30.9a13.361,13.361,0,0,1-2.2-.125v2.45a18.089,18.089,0,0,1,2.2-.1h1.375v1.575h-1.35c-.95-.025-1.55-.075-1.775-.075a23.783,23.783,0,0,1,.1,2.6v4.125c0,1.175-.025,2-.1,2.8.9-.05,1.475-.075,2.625-.075h.5v1.65h-1.5a13.507,13.507,0,0,1-2.225-.125v2.5A13.693,13.693,0,0,1,30.775-1.6h1.5V-.25a14.763,14.763,0,0,1-.15,2.35h2.6a14.716,14.716,0,0,1-.15-2.25V-1.6H35.7a13.027,13.027,0,0,1,2.075.125v-2.5A11.418,11.418,0,0,1,35.7-3.85H34.575V-5.5h.675c1.5.025,1.5.025,1.6.025.475.025.475.025.725.05-.05-.65-.075-1.2-.075-2.65V-12.55c0-1.225,0-1.475.05-2.1a8.031,8.031,0,0,1,1,1.525,15.113,15.113,0,0,0,2.25-1.6V-13.3a13.914,13.914,0,0,1,1.95-.1h3.525a13.753,13.753,0,0,1,1.925.1v-1.5a14.679,14.679,0,0,0,2.325,1.475,17.712,17.712,0,0,1,1.45-2.375,14.355,14.355,0,0,1-3.625-2.075A10.831,10.831,0,0,1,45.625-20.8h-2.75C41.85-18.625,39.95-16.85,37-15.25l.325.35c-.55.025-.775.025-1.375.025H34.575V-16.45h1.1c1.15,0,1.525.025,2.2.075V-18.8a13,13,0,0,1-2.2.125h-1.1v-.55a10.873,10.873,0,0,1,.15-1.85h-2.6a11.54,11.54,0,0,1,.15,1.85Zm.125,5.85v1.675H31.275v-1.675Zm0,3.5V-7.55H31.275V-9.325ZM34.525-7.55V-9.325h1.1V-7.55Zm0-3.6v-1.675h1.1v1.675Zm8.225-4.375c-.35,0-.55,0-1-.025a16.312,16.312,0,0,0,2.55-2.975,15.631,15.631,0,0,0,2.925,2.975c-.425.025-.65.025-.95.025Zm-2.225,12.5h1.9v2.2c0,.35-.1.45-.4.45A5.947,5.947,0,0,1,41-.5a7.823,7.823,0,0,1,.425,2.325,4.464,4.464,0,0,0,.525.025c2.025,0,2.525-.4,2.525-2.025v-9.6c0-1,.025-1.675.075-2.25a16.116,16.116,0,0,1-1.8.075H40.2a16.116,16.116,0,0,1-1.8-.075c.05.725.075,1.3.075,2.225V-.2a21.039,21.039,0,0,1-.125,2.25h2.3a18.831,18.831,0,0,1-.125-2.225Zm0-1.925V-6.525h1.9V-4.95Zm0-3.5v-1.5h1.9v1.5Zm4.925-3.2a16.189,16.189,0,0,1,.1,2v5a18.823,18.823,0,0,1-.1,2.15H47.7a17.21,17.21,0,0,1-.1-2.15V-9.675a14.54,14.54,0,0,1,.1-1.975ZM50.875-9.6a21.246,21.246,0,0,1,.15-2.775h-2.45a19.891,19.891,0,0,1,.125,2.7v8.45c0,.6-.15.725-.825.725a8.864,8.864,0,0,1-1.9-.225,7.7,7.7,0,0,1,.525,2.5c.65.05.975.075,1.425.075,2.425,0,2.95-.45,2.95-2.575ZM66-17.125a19.756,19.756,0,0,1-.825,5.05,18.508,18.508,0,0,1-4.275,7.4A19.749,19.749,0,0,1,55.875-.75a7.012,7.012,0,0,1,2.05,2.625,24.974,24.974,0,0,0,6.2-5.65,20.971,20.971,0,0,0,3.575-7.55,16.159,16.159,0,0,0,1.275,3.55,19.039,19.039,0,0,0,2.2,3.7A25.192,25.192,0,0,0,77.25,1.8a10.61,10.61,0,0,1,2.125-2.825,17.891,17.891,0,0,1-3.7-2.7,20.225,20.225,0,0,1-4-4.8A19.356,19.356,0,0,1,69-18.425,11.8,11.8,0,0,1,69.075-20a13.622,13.622,0,0,1-2.275.125H62.825A15.222,15.222,0,0,1,60.475-20v3c.975-.075,1.725-.125,2.4-.125ZM90.25,0V-30.2l-5.1,3.75v-5.4l5.1-3.75h5.1V0Zm19.4,0,5.8-14.95-.1-.1a2,2,0,0,1-.775.325,6.133,6.133,0,0,1-1.375.125,5,5,0,0,1-2.5-.65,5.074,5.074,0,0,1-1.8-1.65,4.368,4.368,0,0,1-.55-1.075,6.912,6.912,0,0,1-.3-1.475,18.3,18.3,0,0,1-.2-2.275q-.05-1.375-.05-3.475,0-1.75.05-2.875a14,14,0,0,1,.2-1.925,5.29,5.29,0,0,1,.325-1.3,9.239,9.239,0,0,1,.575-1.15A6.9,6.9,0,0,1,111.625-35a7.848,7.848,0,0,1,3.775-.9,7.536,7.536,0,0,1,3.75.925,7.266,7.266,0,0,1,2.65,2.525,12.831,12.831,0,0,1,.6,1.15,5.989,5.989,0,0,1,.4,1.3q.1.8.15,1.925T123-25.2q0,1.65-.05,2.725t-.15,1.825q-.15.8-.325,1.425T122.05-17.9L115.35,0Zm3.25-21.65a2.411,2.411,0,0,0,.75,1.85,2.484,2.484,0,0,0,1.75.7,2.484,2.484,0,0,0,1.75-.7,2.411,2.411,0,0,0,.75-1.85v-6.6a2.411,2.411,0,0,0-.75-1.85,2.484,2.484,0,0,0-1.75-.7,2.484,2.484,0,0,0-1.75.7,2.411,2.411,0,0,0-.75,1.85ZM133.7.075l1.275,1,15.75-20.15-1.3-1Zm14.4.75A4.6,4.6,0,0,0,151.475-.45a5.9,5.9,0,0,0,1.45-4.325,5.877,5.877,0,0,0-1.45-4.3A4.663,4.663,0,0,0,148.1-10.35a4.766,4.766,0,0,0-3.4,1.275,5.917,5.917,0,0,0-1.45,4.3A5.9,5.9,0,0,0,144.7-.45,4.621,4.621,0,0,0,148.1.825Zm0-9.05a1.8,1.8,0,0,1,1.6.775,4.414,4.414,0,0,1,.675,2.5c0,2.425-.775,3.675-2.275,3.675-1.475,0-2.275-1.25-2.275-3.55a4.347,4.347,0,0,1,.675-2.6A1.74,1.74,0,0,1,148.1-8.225ZM136.325-8.65A4.6,4.6,0,0,0,139.7-9.925a5.9,5.9,0,0,0,1.45-4.325,5.877,5.877,0,0,0-1.45-4.3,4.663,4.663,0,0,0-3.375-1.275c-3.05,0-4.85,2.075-4.85,5.575a5.941,5.941,0,0,0,1.45,4.325A4.621,4.621,0,0,0,136.325-8.65Zm0-9.05a1.924,1.924,0,0,1,1.825,1.125,5.488,5.488,0,0,1,.45,2.325c0,2.25-.825,3.5-2.275,3.5-1.475,0-2.275-1.25-2.275-3.55C134.05-16.475,134.875-17.7,136.325-17.7Zm21.75,13.95a26.907,26.907,0,0,1,5.425,5.7l2.325-2.175a29.221,29.221,0,0,0-5.625-5.5Zm31.4-14.925H188.1a13.361,13.361,0,0,1-2.2-.125v2.45a18.089,18.089,0,0,1,2.2-.1h1.375v1.575h-1.35c-.95-.025-1.55-.075-1.775-.075a23.78,23.78,0,0,1,.1,2.6v4.125c0,1.175-.025,2-.1,2.8.9-.05,1.475-.075,2.625-.075h.5v1.65h-1.5a13.507,13.507,0,0,1-2.225-.125v2.5a13.693,13.693,0,0,1,2.225-.125h1.5V-.25a14.762,14.762,0,0,1-.15,2.35h2.6a14.715,14.715,0,0,1-.15-2.25V-1.6H192.9a13.027,13.027,0,0,1,2.075.125v-2.5a11.418,11.418,0,0,1-2.075.125h-1.125V-5.5h.675c1.5.025,1.5.025,1.6.025.475.025.475.025.725.05-.05-.65-.075-1.2-.075-2.65V-12.55c0-1.225,0-1.475.05-2.1a8.032,8.032,0,0,1,1,1.525,15.113,15.113,0,0,0,2.25-1.6V-13.3a13.914,13.914,0,0,1,1.95-.1h3.525a13.753,13.753,0,0,1,1.925.1v-1.5a14.68,14.68,0,0,0,2.325,1.475,17.713,17.713,0,0,1,1.45-2.375,14.355,14.355,0,0,1-3.625-2.075,10.831,10.831,0,0,1-2.725-3.025h-2.75c-1.025,2.175-2.925,3.95-5.875,5.55l.325.35c-.55.025-.775.025-1.375.025h-1.375V-16.45h1.1c1.15,0,1.525.025,2.2.075V-18.8a13,13,0,0,1-2.2.125h-1.1v-.55a10.872,10.872,0,0,1,.15-1.85h-2.6a11.539,11.539,0,0,1,.15,1.85Zm.125,5.85v1.675h-1.125v-1.675Zm0,3.5V-7.55h-1.125V-9.325Zm2.125,1.775V-9.325h1.1V-7.55Zm0-3.6v-1.675h1.1v1.675Zm8.225-4.375c-.35,0-.55,0-1-.025a16.312,16.312,0,0,0,2.55-2.975,15.631,15.631,0,0,0,2.925,2.975c-.425.025-.65.025-.95.025Zm-2.225,12.5h1.9v2.2c0,.35-.1.45-.4.45A5.947,5.947,0,0,1,198.2-.5a7.823,7.823,0,0,1,.425,2.325,4.464,4.464,0,0,0,.525.025c2.025,0,2.525-.4,2.525-2.025v-9.6c0-1,.025-1.675.075-2.25a16.116,16.116,0,0,1-1.8.075H197.4a16.116,16.116,0,0,1-1.8-.075c.05.725.075,1.3.075,2.225V-.2a21.04,21.04,0,0,1-.125,2.25h2.3a18.832,18.832,0,0,1-.125-2.225Zm0-1.925V-6.525h1.9V-4.95Zm0-3.5v-1.5h1.9v1.5Zm4.925-3.2a16.19,16.19,0,0,1,.1,2v5a18.824,18.824,0,0,1-.1,2.15h2.25a17.211,17.211,0,0,1-.1-2.15V-9.675a14.541,14.541,0,0,1,.1-1.975Zm5.425,2.05a21.248,21.248,0,0,1,.15-2.775h-2.45a19.89,19.89,0,0,1,.125,2.7v8.45c0,.6-.15.725-.825.725a8.864,8.864,0,0,1-1.9-.225,7.7,7.7,0,0,1,.525,2.5c.65.05.975.075,1.425.075,2.425,0,2.95-.45,2.95-2.575Zm15.05-3.325h-4.95v-4.05a14.706,14.706,0,0,1,.1-2h-3a13.925,13.925,0,0,1,.125,2.2v4.95c0,.575-.025,1.05-.075,1.6.6-.05,1.125-.075,1.8-.075h6v8.2H217.25V-6.15a12.352,12.352,0,0,1,.125-2.15H214.35a20.776,20.776,0,0,1,.125,2.4V-.6a18.138,18.138,0,0,1-.15,2.5h2.925V.6h14.875V1.9h2.925a15.788,15.788,0,0,1-.15-2.5V-6a19.988,19.988,0,0,1,.125-2.375H232a13.3,13.3,0,0,1,.125,2.125V-2.1H225.95v-8.2h6.45c.6,0,1.2.025,1.75.075a13.7,13.7,0,0,1-.075-1.6V-16.8a14.37,14.37,0,0,1,.125-2.175h-3A15.019,15.019,0,0,1,231.3-17v4.075h-5.35V-18.4a16.091,16.091,0,0,1,.15-2.475h-3.125a15.009,15.009,0,0,1,.15,2.475ZM247.45-20.6a6.445,6.445,0,0,0,3.175-.55q.875-.55.875-2.55v-4.6a2.486,2.486,0,0,0-.675-1.8A2.417,2.417,0,0,0,249-30.8a2.153,2.153,0,0,0-1.925.85,2.952,2.952,0,0,0-.575,1.65v2.9h-5.1v-2.95a7.411,7.411,0,0,1,.6-2.95,7.173,7.173,0,0,1,1.65-2.4,8.2,8.2,0,0,1,2.45-1.6,7.535,7.535,0,0,1,3-.6,6.663,6.663,0,0,1,3.475.825A8,8,0,0,1,254.65-33.4a10.925,10.925,0,0,1,.875,1.2,5.84,5.84,0,0,1,.625,1.45,19.936,19.936,0,0,1,.45,4.9q0,1.85-.075,3a6.275,6.275,0,0,1-.375,1.9,3.8,3.8,0,0,1-.975,1.35,11.564,11.564,0,0,1-1.725,1.2,9.686,9.686,0,0,1,1.825,1.4,4.117,4.117,0,0,1,.925,1.5,7.749,7.749,0,0,1,.35,2.125q.05,1.225.05,3.125,0,1.75-.075,2.9a14.919,14.919,0,0,1-.225,1.9,5.928,5.928,0,0,1-.4,1.35,8.23,8.23,0,0,1-.65,1.15,8.079,8.079,0,0,1-2.425,2.325A7.209,7.209,0,0,1,248.95.3a8.989,8.989,0,0,1-2.55-.4,6.952,6.952,0,0,1-2.45-1.3,7.058,7.058,0,0,1-1.825-2.35A7.881,7.881,0,0,1,241.4-7.3v-2.9h5.1v2.65a2.9,2.9,0,0,0,.675,1.975A2.3,2.3,0,0,0,249-4.8a2.3,2.3,0,0,0,1.825-.775A3.048,3.048,0,0,0,251.5-7.65v-5.1q0-2.1-.8-2.75a2.225,2.225,0,0,0-1.225-.5,16.46,16.46,0,0,0-2.025-.1ZM265-28.25a7.776,7.776,0,0,1,.625-3.2,7.488,7.488,0,0,1,1.675-2.4,7.206,7.206,0,0,1,2.425-1.525A7.992,7.992,0,0,1,272.6-35.9a7.992,7.992,0,0,1,2.875.525A7.207,7.207,0,0,1,277.9-33.85a7.488,7.488,0,0,1,1.675,2.4,7.776,7.776,0,0,1,.625,3.2v20.9a7.776,7.776,0,0,1-.625,3.2,7.488,7.488,0,0,1-1.675,2.4,7.207,7.207,0,0,1-2.425,1.525A7.992,7.992,0,0,1,272.6.3a7.992,7.992,0,0,1-2.875-.525A7.206,7.206,0,0,1,267.3-1.75a7.488,7.488,0,0,1-1.675-2.4A7.776,7.776,0,0,1,265-7.35Zm5.1,20.9a2.522,2.522,0,0,0,.7,1.825,2.392,2.392,0,0,0,1.8.725,2.392,2.392,0,0,0,1.8-.725,2.522,2.522,0,0,0,.7-1.825v-20.9a2.522,2.522,0,0,0-.7-1.825,2.392,2.392,0,0,0-1.8-.725,2.392,2.392,0,0,0-1.8.725,2.522,2.522,0,0,0-.7,1.825ZM290.9.075l1.275,1,15.75-20.15-1.3-1Zm14.4.75A4.6,4.6,0,0,0,308.675-.45a5.9,5.9,0,0,0,1.45-4.325,5.877,5.877,0,0,0-1.45-4.3A4.663,4.663,0,0,0,305.3-10.35a4.766,4.766,0,0,0-3.4,1.275,5.917,5.917,0,0,0-1.45,4.3A5.9,5.9,0,0,0,301.9-.45,4.621,4.621,0,0,0,305.3.825Zm0-9.05a1.8,1.8,0,0,1,1.6.775,4.414,4.414,0,0,1,.675,2.5c0,2.425-.775,3.675-2.275,3.675-1.475,0-2.275-1.25-2.275-3.55a4.347,4.347,0,0,1,.675-2.6A1.74,1.74,0,0,1,305.3-8.225ZM293.525-8.65A4.6,4.6,0,0,0,296.9-9.925a5.9,5.9,0,0,0,1.45-4.325,5.877,5.877,0,0,0-1.45-4.3,4.663,4.663,0,0,0-3.375-1.275c-3.05,0-4.85,2.075-4.85,5.575a5.941,5.941,0,0,0,1.45,4.325A4.621,4.621,0,0,0,293.525-8.65Zm0-9.05a1.924,1.924,0,0,1,1.825,1.125,5.489,5.489,0,0,1,.45,2.325c0,2.25-.825,3.5-2.275,3.5-1.475,0-2.275-1.25-2.275-3.55C291.25-16.475,292.075-17.7,293.525-17.7ZM318.65,2.225A20.885,20.885,0,0,0,321.375-2.7a18.776,18.776,0,0,0,1.3-6.9,17.692,17.692,0,0,0-1.275-6.675,19.955,19.955,0,0,0-2.725-4.925H315.15a20.427,20.427,0,0,1,3.2,4.975A16.23,16.23,0,0,1,319.625-9.6,16.828,16.828,0,0,1,318.3-2.75a19.213,19.213,0,0,1-3.175,4.975Z" transform="translate(1237.378 1563)" fill="#0052aa"/>
    <g transform="matrix(1, 0, 0, 1, 747.37, 1383)" filter="url(#長方形_206)">
      <rect id="長方形_206-2" data-name="長方形 206" width="281" height="110" transform="translate(35.63 91)" fill="url(#linear-gradient-2)"/>
    </g>
    <path id="パス_1123" data-name="パス 1123" d="M10.925-18.85H4.575A21.585,21.585,0,0,1,1.55-19v2.65a23.891,23.891,0,0,1,2.95-.125h6.425v1.65H5.6a15.96,15.96,0,0,1-2.525-.125v2.575a22.564,22.564,0,0,1,2.525-.1H19.275a21.935,21.935,0,0,1,2.55.1V-14.95a16.126,16.126,0,0,1-2.55.125H13.7v-1.65h6.825a28.845,28.845,0,0,1,2.925.125V-19a21.416,21.416,0,0,1-3,.15H13.7v-.3a7.711,7.711,0,0,1,.15-1.925H10.8a10.292,10.292,0,0,1,.125,1.925ZM4.35-5.7V-8.6H20.5v2.9h2.925A9.794,9.794,0,0,1,23.3-7.525V-9.35a11.322,11.322,0,0,1,.1-1.775c-.875.075-1.5.1-2.7.1H4.175a25.641,25.641,0,0,1-2.675-.1,13.286,13.286,0,0,1,.1,1.85V-7.5a10.177,10.177,0,0,1-.125,1.8ZM7.975-7.825a4.766,4.766,0,0,1,.075.8,8.423,8.423,0,0,1-.4,2.35,5.48,5.48,0,0,1-3.225,3.1A10.778,10.778,0,0,1,1-.65,9.817,9.817,0,0,1,2.8,2.125a15.554,15.554,0,0,0,2.7-.95A11.491,11.491,0,0,0,8.45-.875,9.275,9.275,0,0,0,10.875-6.6a5.7,5.7,0,0,1,.15-1.075ZM16.125-5.8a10.26,10.26,0,0,1,.125-1.95h-3a14.087,14.087,0,0,1,.1,2.075V-.55c0,1.825.675,2.15,4.475,2.15,2.875,0,4.05-.175,4.625-.725C23.125.25,23.5-1.1,23.7-3.625a8.617,8.617,0,0,1-2.675-.85c-.125,2.1-.225,2.775-.45,3.1S19.8-.95,18.05-.95c-1.7,0-1.925-.1-1.925-.75Zm27.2-5.05H49.2a26.1,26.1,0,0,1,2.9.15v-2.975a25.463,25.463,0,0,1-2.9.15H43.325V-17.8a20.173,20.173,0,0,1,.175-2.875H40.225A21.4,21.4,0,0,1,40.4-17.8V-1.65H34.7a32.989,32.989,0,0,1-3.45-.15v3a31.25,31.25,0,0,1,3.45-.175H50.575A27.279,27.279,0,0,1,53.9,1.2v-3a32.107,32.107,0,0,1-3.375.15h-7.2Zm27.6-8.4H64a20.421,20.421,0,0,1-2.725-.15v2.525A19.24,19.24,0,0,1,63.85-17H81.1a19.412,19.412,0,0,1,2.6.125V-19.4a19.328,19.328,0,0,1-2.625.15H73.7v-.325a7.948,7.948,0,0,1,.15-1.55H70.775a7.835,7.835,0,0,1,.15,1.575Zm-5.85,7.1A17.8,17.8,0,0,1,65-10.3a21.437,21.437,0,0,1,2.35-.1H77.7a19.49,19.49,0,0,1,2.35.1,17.152,17.152,0,0,1-.075-1.85V-14.3c0-.8.025-1.175.075-1.825a18.538,18.538,0,0,1-2.225.1h-10.4a21.455,21.455,0,0,1-2.425-.1c.05.6.075,1.025.075,1.825Zm2.6-1.85H77.35v1.525H67.675ZM61.975-.625a18.146,18.146,0,0,1-.15,2.75h2.95a17.077,17.077,0,0,1-.15-2.75v-6.65h15.75V-1.05c0,.4-.125.525-.6.525-.7,0-1.775-.075-3.15-.225a5.684,5.684,0,0,1,.55,2.5c.4,0,.4,0,.8.025.8.05.925.05,1.45.05,1.75,0,2.5-.15,3-.6.475-.425.6-.9.6-2.15V-7.3a20.992,20.992,0,0,1,.1-2.25,20.028,20.028,0,0,1-2.45.1h-16.2c-1.075,0-1.8-.025-2.6-.1a22.1,22.1,0,0,1,.1,2.275Zm15.85-4.15a13.4,13.4,0,0,1,.075-1.6c-.75.05-1.1.075-2.05.075H69c-.925,0-1.45-.025-2.025-.075a14.971,14.971,0,0,1,.075,1.65v2.9A13.108,13.108,0,0,1,66.95.2h2.575V-1.05h6.3c.675,0,1.6.025,2.075.075a14.841,14.841,0,0,1-.075-1.675Zm-8.3.375h5.9v1.375h-5.9ZM96.6.6c-.025-.325-.025-.525-.025-.675A20.524,20.524,0,0,1,98.8-7.65l-2-.9a25.5,25.5,0,0,0-1.3,3.3c.025-.625.05-.825.05-1.375a41.74,41.74,0,0,1,.375-5.525A34.467,34.467,0,0,1,97.5-19.625l-3.3-.35a16.358,16.358,0,0,1-.375,2.325A48,48,0,0,0,92.8-7.875,43.607,43.607,0,0,0,93.45-.4c.075.575.1.725.125,1.175Zm3.45-14.975a29.677,29.677,0,0,0,4.5.275,44.78,44.78,0,0,0,5.35-.3c1.2-.15,1.575-.2,1.775-.225l-.15-3.025a27.569,27.569,0,0,1-6.8.675,18.026,18.026,0,0,1-4.625-.4Zm1.725,4.125a8.167,8.167,0,0,0-2.3,5.15,4.188,4.188,0,0,0,.75,2.45c1.1,1.475,3.1,2.175,6.2,2.175A30.829,30.829,0,0,0,111.6-.95a8.356,8.356,0,0,1,1.025-.15l-.25-3.175a17.569,17.569,0,0,1-5.95.95c-2.6,0-3.975-.75-3.975-2.175,0-1.075.525-2.15,1.775-3.6Zm28.725.2h-5.025a20.384,20.384,0,0,1-2.325-.1,18.643,18.643,0,0,1,.125,2.45V-.775a22.779,22.779,0,0,1-.15,2.8H126.1V.65h12.6V2.025h3.025a21.549,21.549,0,0,1-.15-2.825V-7.7a17.959,17.959,0,0,1,.125-2.45,20.193,20.193,0,0,1-2.3.1h-5.975v-4.425H140.4a21.789,21.789,0,0,1,2.775.15v-2.9a20.617,20.617,0,0,1-2.8.15h-6.95v-1.55A12.629,12.629,0,0,1,133.6-21h-3.275a12.986,12.986,0,0,1,.175,2.375Zm-4.4,2.6h12.65v5.475H126.1Zm28.675-11.625a3.2,3.2,0,0,1,.25.85c.275,1.4.725,3.575.85,3.95a9.364,9.364,0,0,0-4,7.675c0,3.375,1.725,5.625,4.3,5.625A4.183,4.183,0,0,0,158.5-1.65a11.217,11.217,0,0,0,2.975-2.75,30.031,30.031,0,0,0,4.55-9.325,5.9,5.9,0,0,1,2.25,1.075A4.577,4.577,0,0,1,170.1-8.775a5.99,5.99,0,0,1-.85,3.075,7.28,7.28,0,0,1-3.5,2.675,11.351,11.351,0,0,1-4.075.975,7.259,7.259,0,0,1,1.55,2.925,18.336,18.336,0,0,0,4.075-1.2c3.725-1.575,5.85-4.55,5.85-8.225a7.374,7.374,0,0,0-3.05-6.2,8.638,8.638,0,0,0-3.35-1.5c.1-.35.425-1.575.775-2.925a2.655,2.655,0,0,1,.25-.7l-3.15-.625a19.184,19.184,0,0,1-.725,3.875h-.675a12.1,12.1,0,0,0-4.825,1,24.569,24.569,0,0,1-.6-4.025Zm1.85,7.775a26.857,26.857,0,0,0,2.05,5.75c-.85,1.075-1.65,1.625-2.35,1.625-1,0-1.7-1.125-1.7-2.75A6.321,6.321,0,0,1,156.625-11.3ZM160.55-8a2.142,2.142,0,0,0-.125-.375,29.042,29.042,0,0,1-1.5-4.725,8.292,8.292,0,0,1,4.3-1,27.51,27.51,0,0,1-2.5,5.775,2.022,2.022,0,0,0-.15.325Zm29.3-2.375a9.813,9.813,0,0,0,1.025-.65c.5-.325,2.3-1.675,2.75-2.05.85-.725,2.675-2.35,3.925-3.5a5.359,5.359,0,0,1,1.3-1.025l-1.55-2.2a3.684,3.684,0,0,1-1.55.325c-2.425.175-5.475.3-7.6.3a22.61,22.61,0,0,1-2.95-.15l.125,3a8.434,8.434,0,0,1,1.2-.125c4.525-.2,6.125-.3,7.075-.425l.025.025-.45.45A83.478,83.478,0,0,1,185.7-9.9a22.483,22.483,0,0,1-3.525,2.35l1.7,2.7a15.4,15.4,0,0,1,10.3-4.2c3.025,0,4.95,1.275,4.95,3.225,0,1.775-.9,2.85-2.975,3.625A6.723,6.723,0,0,0,195-4.45a5.381,5.381,0,0,0-4.325-2.05c-2.5,0-4.3,1.5-4.3,3.575a3.568,3.568,0,0,0,1.5,2.875,8.458,8.458,0,0,0,4.85,1.15,12.369,12.369,0,0,0,6.05-1.425,6.109,6.109,0,0,0,3.4-5.525c0-3.425-2.75-5.625-7.025-5.625a12.2,12.2,0,0,0-5.25,1.15Zm3.6,8.9a6.767,6.767,0,0,1-1.3.1c-1.85,0-2.975-.575-2.975-1.575,0-.7.575-1.15,1.475-1.15C192.05-4.1,193-3.2,193.45-1.475ZM11.525,29.575a7.756,7.756,0,0,1,1.225,1.6c2.225-1.075,3.075-1.725,3.925-2.925A6.183,6.183,0,0,0,17.8,25.425h2.9a8.792,8.792,0,0,1-.425,2.35c-.15.35-.45.475-1.075.475a14.253,14.253,0,0,1-2.125-.225,7.86,7.86,0,0,1,.5,2.375c1.175.05,1.425.05,1.95.05,1.725,0,2.525-.325,3-1.25a13.685,13.685,0,0,0,.825-4.25c.1-1.1.175-1.725.2-1.875a15.625,15.625,0,0,1-2.1.1H14.7a14.959,14.959,0,0,1-2.275-.125v2.5a14.174,14.174,0,0,1,2.1-.125h.75c-.225,1.525-.925,2.35-2.675,3.225a22.592,22.592,0,0,0-2.525-3.625l-2.125.85c.55.725.725.95,1.025,1.425-1.4.425-1.675.5-3.25.875L5.6,25.4a42.514,42.514,0,0,0,6.45-1.5l-1.825-2.075A18.918,18.918,0,0,1,2.85,23.55c.075.85.1,1.475.125,1.825l.175,3.35a14.629,14.629,0,0,1-1.775.225l.475,2.575a19.9,19.9,0,0,1,2.1-.625,50.479,50.479,0,0,0,6.075-1.875c.175.325.275.525.5,1.025ZM7.65,41.275A19.333,19.333,0,0,1,1.1,42.9a8.172,8.172,0,0,1,1.575,2.3A20.714,20.714,0,0,0,10.6,42.325l-1.4-1.05h6.55l-1.25,1.05A20.134,20.134,0,0,0,22.625,45.2a13.8,13.8,0,0,1,1.55-2.4,17.627,17.627,0,0,1-6.65-1.525h1.05c1.05,0,2.15.025,2.625.075-.05-.375-.1-1.5-.1-2.65V33.95a24.9,24.9,0,0,1,.1-2.725c-.575.05-1.325.075-2.525.075H6.525c-1.125,0-1.95-.025-2.525-.075.05.775.075,1.45.075,2.575v5.05a19.92,19.92,0,0,1-.1,2.5c.475-.05,1.65-.075,2.65-.075Zm-.975-8.15H18.5V34H6.675Zm0,2.6H18.5v.9H6.675Zm0,2.625H18.5v.95H6.675Zm38.95-2.3A12.171,12.171,0,0,1,43,39.475a17.587,17.587,0,0,1-6.55,3.65,9.174,9.174,0,0,1,1.725,2.05,19.967,19.967,0,0,0,2.5-1.1,17.277,17.277,0,0,0,5.7-4.7A15.793,15.793,0,0,0,48.35,36.05h1.575a30.659,30.659,0,0,1-.7,5.225c-.25,1-.575,1.2-1.85,1.2a15.266,15.266,0,0,1-2.825-.3,6.927,6.927,0,0,1,.675,2.675c1.175.1,1.825.125,2.375.125,3.225,0,4-.675,4.525-3.875.15-.95.45-3.625.5-4.775A23.093,23.093,0,0,1,52.85,33.6a13.034,13.034,0,0,1-2.075.1H39.9a15.038,15.038,0,0,0,1.15-1.525h7.025c1.225,0,1.9.025,2.75.1a16.462,16.462,0,0,1-.125-2.45v-4.75a16.058,16.058,0,0,1,.125-2.45c-.9.075-1.6.1-3,.1H37.175c-1.375,0-2.1-.025-2.975-.1a21.942,21.942,0,0,1,.1,2.45v4.75a22.522,22.522,0,0,1-.1,2.45c.825-.075,1.525-.1,2.725-.1h.925A12.957,12.957,0,0,1,31,36.4a7.213,7.213,0,0,1,1.6,2.1,16.086,16.086,0,0,0,4.75-2.45h2.825A10.452,10.452,0,0,1,37.7,38.125a18.538,18.538,0,0,1-5.25,2.15,6.9,6.9,0,0,1,1.6,2.1c4.35-1.45,7.2-3.375,9.225-6.325ZM36.95,24.95H48.025v1.525H36.95Zm0,3.6H48.025v1.475H36.95Zm29.6,3.55H70a11.952,11.952,0,0,1,2.4.15V29.3a11.952,11.952,0,0,1-2.4.15H66.55V25.275a16.664,16.664,0,0,1,.15-2.8H63.575a20.617,20.617,0,0,1,.15,2.8V41.35a15.872,15.872,0,0,1-2.75.475l.6,3.1a10.471,10.471,0,0,1,1.375-.475c.2-.05.2-.05.525-.15,1.825-.5,1.825-.5,2.65-.75,3.025-.95,4.3-1.4,6.25-2.15l-.025-2.65c-2.225.775-3.45,1.175-5.8,1.85Zm9.55,1.6a43.652,43.652,0,0,0,6.925-4.5c.525-.425.525-.425.9-.7l-1.95-2.3A19.737,19.737,0,0,1,76.1,30.775v-5.45a17.175,17.175,0,0,1,.15-2.825H73.175a19.309,19.309,0,0,1,.15,2.825V42.05c0,1.125.25,1.725.925,2.075.65.35,1.475.45,3.825.45,2.975,0,4.05-.225,4.75-1,.725-.8,1-2.225,1.175-5.95a10.617,10.617,0,0,1-2.65-1.1c-.025,3.1-.175,4.55-.525,5.025-.25.35-.85.45-2.6.45-1.8,0-2.125-.1-2.125-.65Zm20.875-5.075a19.331,19.331,0,0,1,3.6,3.075c-.75.725-1.15,1.075-2.075,1.85-.175,0-.85.025-.9.025h-.275l.6-.475-1.25-1.95A14.486,14.486,0,0,1,91.15,34.1l1,2.6a28.33,28.33,0,0,0,4.275-2.475l.25,1.725c.225-.025.65-.075,1.225-.1,4.025-.325,5.6-.5,8.075-.9.2.425.325.675.65,1.425l2.15-.875a26.557,26.557,0,0,0-3.075-4.575l-1.825.775c.55.7.725.95,1.075,1.475a32.175,32.175,0,0,1-3.475.25,39.348,39.348,0,0,0,5.225-5.15l-2-1.325a27.114,27.114,0,0,1-2.5,3.1,13.206,13.206,0,0,0-1.025-1.025,20.079,20.079,0,0,0,2.025-2.85h8.025a19.64,19.64,0,0,1,2.6.125V23.575a23.04,23.04,0,0,1-2.975.15h-7.125V23.45a7.763,7.763,0,0,1,.15-1.55h-3.05a7.835,7.835,0,0,1,.15,1.575v.25H94.3a23.147,23.147,0,0,1-2.95-.15V26.3a19.469,19.469,0,0,1,2.575-.125h6.55a8.729,8.729,0,0,1-.925,1.45c-.375-.3-.5-.4-.95-.725Zm3.95,11.425v2.775a14.955,14.955,0,0,1-.175,2.425h3.125a14.343,14.343,0,0,1-.175-2.425V40.05h7.375A25.3,25.3,0,0,1,114,40.2V37.45a18.8,18.8,0,0,1-2.575.15H103.7v-.2a8.007,8.007,0,0,1,.1-1.475h-2.975a7.67,7.67,0,0,1,.1,1.475v.2h-7.2a19.111,19.111,0,0,1-2.675-.15V40.2a22.7,22.7,0,0,1,2.925-.15Zm-9.05-11.875a17.026,17.026,0,0,1,3.5,3.325l1.875-1.85a25.148,25.148,0,0,0-3.475-3.125Zm18.825-1.65a18.416,18.416,0,0,1-4.125,3.45L108.3,31.8a28.456,28.456,0,0,0,4.375-3.6Zm-2.925,6.75a21.973,21.973,0,0,1,4.2,3.525l1.775-2.075a29.359,29.359,0,0,0-4.45-3.175Z" transform="translate(827.63 1516.584)" fill="#fff"/>
  </g>
</svg>
