<svg xmlns="http://www.w3.org/2000/svg" xmlns:xlink="http://www.w3.org/1999/xlink" width="1355.061" height="664.337" viewBox="0 0 1355.061 664.337">
  <defs>
    <linearGradient id="linear-gradient" y1="0.5" x2="1" y2="0.5" gradientUnits="objectBoundingBox">
      <stop offset="0" stop-color="#03a8e5"/>
      <stop offset="1" stop-color="#012869"/>
    </linearGradient>
    <filter id="中マド_2" x="0" y="8.181" width="1355.061" height="656.156" filterUnits="userSpaceOnUse">
      <feOffset dx="10" dy="10" input="SourceAlpha"/>
      <feGaussianBlur stdDeviation="15" result="blur"/>
      <feFlood flood-opacity="0.161"/>
      <feComposite operator="in" in2="blur"/>
      <feComposite in="SourceGraphic"/>
    </filter>
    <linearGradient id="linear-gradient-2" x1="-0.03" xlink:href="#linear-gradient"/>
    <filter id="長方形_207" x="429.132" y="0" width="477" height="102" filterUnits="userSpaceOnUse">
      <feOffset input="SourceAlpha"/>
      <feGaussianBlur stdDeviation="5" result="blur-2"/>
      <feFlood flood-color="#013778" flood-opacity="0.322"/>
      <feComposite operator="in" in2="blur-2"/>
      <feComposite in="SourceGraphic"/>
    </filter>
  </defs>
  <g id="地域別輸出入シェア" transform="translate(-292.868 -1651)">
    <g id="ボックス" transform="translate(-55.017 -679.502)">
      <path id="パス_478" data-name="パス 478" d="M0,0H1257.061V558.156H0Z" transform="translate(386.885 2377.683)" fill="#edf9ff" opacity="0.588"/>
      <g transform="matrix(1, 0, 0, 1, 347.88, 2330.5)" filter="url(#中マド_2)">
        <path id="中マド_2-2" data-name="中マド 2" d="M1265.061,566.156H0V0H1265.061V566.155ZM5.683,5V560.825H1259.649V5Z" transform="translate(35 43.18)" fill="url(#linear-gradient)"/>
      </g>
    </g>
    <path id="パス_1127" data-name="パス 1127" d="M4.775-18.675H3.4A13.361,13.361,0,0,1,1.2-18.8v2.45a18.089,18.089,0,0,1,2.2-.1H4.775v1.575H3.425c-.95-.025-1.55-.075-1.775-.075a23.783,23.783,0,0,1,.1,2.6v4.125c0,1.175-.025,2-.1,2.8.9-.05,1.475-.075,2.625-.075h.5v1.65h-1.5A13.507,13.507,0,0,1,1.05-3.975v2.5A13.693,13.693,0,0,1,3.275-1.6h1.5V-.25a14.763,14.763,0,0,1-.15,2.35h2.6a14.716,14.716,0,0,1-.15-2.25V-1.6H8.2a13.027,13.027,0,0,1,2.075.125v-2.5A11.418,11.418,0,0,1,8.2-3.85H7.075V-5.5H7.75c1.5.025,1.5.025,1.6.025.475.025.475.025.725.05-.05-.65-.075-1.2-.075-2.65V-12.55c0-1.225,0-1.475.05-2.1a8.031,8.031,0,0,1,1,1.525,15.113,15.113,0,0,0,2.25-1.6V-13.3a13.914,13.914,0,0,1,1.95-.1h3.525a13.753,13.753,0,0,1,1.925.1v-1.5a14.679,14.679,0,0,0,2.325,1.475,17.712,17.712,0,0,1,1.45-2.375,14.355,14.355,0,0,1-3.625-2.075A10.831,10.831,0,0,1,18.125-20.8h-2.75C14.35-18.625,12.45-16.85,9.5-15.25l.325.35c-.55.025-.775.025-1.375.025H7.075V-16.45h1.1c1.15,0,1.525.025,2.2.075V-18.8a13,13,0,0,1-2.2.125h-1.1v-.55a10.873,10.873,0,0,1,.15-1.85h-2.6a11.54,11.54,0,0,1,.15,1.85Zm.125,5.85v1.675H3.775v-1.675Zm0,3.5V-7.55H3.775V-9.325ZM7.025-7.55V-9.325h1.1V-7.55Zm0-3.6v-1.675h1.1v1.675Zm8.225-4.375c-.35,0-.55,0-1-.025a16.312,16.312,0,0,0,2.55-2.975,15.631,15.631,0,0,0,2.925,2.975c-.425.025-.65.025-.95.025Zm-2.225,12.5h1.9v2.2c0,.35-.1.45-.4.45A5.947,5.947,0,0,1,13.5-.5a7.823,7.823,0,0,1,.425,2.325,4.464,4.464,0,0,0,.525.025c2.025,0,2.525-.4,2.525-2.025v-9.6c0-1,.025-1.675.075-2.25a16.116,16.116,0,0,1-1.8.075H12.7a16.116,16.116,0,0,1-1.8-.075c.05.725.075,1.3.075,2.225V-.2a21.039,21.039,0,0,1-.125,2.25h2.3a18.831,18.831,0,0,1-.125-2.225Zm0-1.925V-6.525h1.9V-4.95Zm0-3.5v-1.5h1.9v1.5Zm4.925-3.2a16.189,16.189,0,0,1,.1,2v5a18.824,18.824,0,0,1-.1,2.15H20.2a17.21,17.21,0,0,1-.1-2.15V-9.675a14.54,14.54,0,0,1,.1-1.975ZM23.375-9.6a21.246,21.246,0,0,1,.15-2.775h-2.45a19.891,19.891,0,0,1,.125,2.7v8.45c0,.6-.15.725-.825.725a8.864,8.864,0,0,1-1.9-.225A7.7,7.7,0,0,1,19,1.775c.65.05.975.075,1.425.075,2.425,0,2.95-.45,2.95-2.575Zm17.55-3.325h-4.95v-4.05a14.7,14.7,0,0,1,.1-2h-3a13.926,13.926,0,0,1,.125,2.2v4.95c0,.575-.025,1.05-.075,1.6.6-.05,1.125-.075,1.8-.075h6v8.2H35.05V-6.15a12.353,12.353,0,0,1,.125-2.15H32.15a20.779,20.779,0,0,1,.125,2.4V-.6a18.139,18.139,0,0,1-.15,2.5H35.05V.6H49.925V1.9H52.85A15.787,15.787,0,0,1,52.7-.6V-6a19.989,19.989,0,0,1,.125-2.375H49.8a13.3,13.3,0,0,1,.125,2.125V-2.1H43.75v-8.2H50.2c.6,0,1.2.025,1.75.075a13.7,13.7,0,0,1-.075-1.6V-16.8A14.371,14.371,0,0,1,52-18.975H49A15.018,15.018,0,0,1,49.1-17v4.075H43.75V-18.4a16.089,16.089,0,0,1,.15-2.475H40.775a15.01,15.01,0,0,1,.15,2.475Zm43.35,15.15A19.214,19.214,0,0,1,81.1-2.75,16.912,16.912,0,0,1,79.775-9.6a16.4,16.4,0,0,1,1.3-6.625A19.482,19.482,0,0,1,84.25-21.2h-3.5A20.181,20.181,0,0,0,78-16.275,17.692,17.692,0,0,0,76.725-9.6,18.4,18.4,0,0,0,78.05-2.7a20.023,20.023,0,0,0,2.725,4.925ZM94,.075l1.275,1,15.75-20.15-1.3-1Zm14.4.75A4.6,4.6,0,0,0,111.775-.45a5.9,5.9,0,0,0,1.45-4.325,5.877,5.877,0,0,0-1.45-4.3A4.663,4.663,0,0,0,108.4-10.35,4.766,4.766,0,0,0,105-9.075a5.917,5.917,0,0,0-1.45,4.3A5.9,5.9,0,0,0,105-.45,4.621,4.621,0,0,0,108.4.825Zm0-9.05a1.8,1.8,0,0,1,1.6.775,4.414,4.414,0,0,1,.675,2.5c0,2.425-.775,3.675-2.275,3.675-1.475,0-2.275-1.25-2.275-3.55a4.347,4.347,0,0,1,.675-2.6A1.74,1.74,0,0,1,108.4-8.225ZM96.625-8.65A4.6,4.6,0,0,0,100-9.925a5.9,5.9,0,0,0,1.45-4.325,5.877,5.877,0,0,0-1.45-4.3,4.663,4.663,0,0,0-3.375-1.275c-3.05,0-4.85,2.075-4.85,5.575a5.941,5.941,0,0,0,1.45,4.325A4.621,4.621,0,0,0,96.625-8.65Zm0-9.05a1.924,1.924,0,0,1,1.825,1.125,5.488,5.488,0,0,1,.45,2.325c0,2.25-.825,3.5-2.275,3.5-1.475,0-2.275-1.25-2.275-3.55C94.35-16.475,95.175-17.7,96.625-17.7ZM124.25,2.225A20.885,20.885,0,0,0,126.975-2.7a18.776,18.776,0,0,0,1.3-6.9A17.692,17.692,0,0,0,127-16.275a19.954,19.954,0,0,0-2.725-4.925H120.75a20.426,20.426,0,0,1,3.2,4.975A16.23,16.23,0,0,1,125.225-9.6,16.828,16.828,0,0,1,123.9-2.75a19.214,19.214,0,0,1-3.175,4.975Z" transform="translate(522.38 1800)" fill="#0052aa"/>
    <path id="パス_1128" data-name="パス 1128" d="M4.775-18.675H3.4A13.361,13.361,0,0,1,1.2-18.8v2.45a18.089,18.089,0,0,1,2.2-.1H4.775v1.575H3.425c-.95-.025-1.55-.075-1.775-.075a23.783,23.783,0,0,1,.1,2.6v4.125c0,1.175-.025,2-.1,2.8.9-.05,1.475-.075,2.625-.075h.5v1.65h-1.5A13.507,13.507,0,0,1,1.05-3.975v2.5A13.693,13.693,0,0,1,3.275-1.6h1.5V-.25a14.763,14.763,0,0,1-.15,2.35h2.6a14.716,14.716,0,0,1-.15-2.25V-1.6H8.2a13.027,13.027,0,0,1,2.075.125v-2.5A11.418,11.418,0,0,1,8.2-3.85H7.075V-5.5H7.75c1.5.025,1.5.025,1.6.025.475.025.475.025.725.05-.05-.65-.075-1.2-.075-2.65V-12.55c0-1.225,0-1.475.05-2.1a8.031,8.031,0,0,1,1,1.525,15.113,15.113,0,0,0,2.25-1.6V-13.3a13.914,13.914,0,0,1,1.95-.1h3.525a13.753,13.753,0,0,1,1.925.1v-1.5a14.679,14.679,0,0,0,2.325,1.475,17.712,17.712,0,0,1,1.45-2.375,14.355,14.355,0,0,1-3.625-2.075A10.831,10.831,0,0,1,18.125-20.8h-2.75C14.35-18.625,12.45-16.85,9.5-15.25l.325.35c-.55.025-.775.025-1.375.025H7.075V-16.45h1.1c1.15,0,1.525.025,2.2.075V-18.8a13,13,0,0,1-2.2.125h-1.1v-.55a10.873,10.873,0,0,1,.15-1.85h-2.6a11.54,11.54,0,0,1,.15,1.85Zm.125,5.85v1.675H3.775v-1.675Zm0,3.5V-7.55H3.775V-9.325ZM7.025-7.55V-9.325h1.1V-7.55Zm0-3.6v-1.675h1.1v1.675Zm8.225-4.375c-.35,0-.55,0-1-.025a16.312,16.312,0,0,0,2.55-2.975,15.631,15.631,0,0,0,2.925,2.975c-.425.025-.65.025-.95.025Zm-2.225,12.5h1.9v2.2c0,.35-.1.45-.4.45A5.947,5.947,0,0,1,13.5-.5a7.823,7.823,0,0,1,.425,2.325,4.464,4.464,0,0,0,.525.025c2.025,0,2.525-.4,2.525-2.025v-9.6c0-1,.025-1.675.075-2.25a16.116,16.116,0,0,1-1.8.075H12.7a16.116,16.116,0,0,1-1.8-.075c.05.725.075,1.3.075,2.225V-.2a21.039,21.039,0,0,1-.125,2.25h2.3a18.831,18.831,0,0,1-.125-2.225Zm0-1.925V-6.525h1.9V-4.95Zm0-3.5v-1.5h1.9v1.5Zm4.925-3.2a16.189,16.189,0,0,1,.1,2v5a18.824,18.824,0,0,1-.1,2.15H20.2a17.21,17.21,0,0,1-.1-2.15V-9.675a14.54,14.54,0,0,1,.1-1.975ZM23.375-9.6a21.246,21.246,0,0,1,.15-2.775h-2.45a19.891,19.891,0,0,1,.125,2.7v8.45c0,.6-.15.725-.825.725a8.864,8.864,0,0,1-1.9-.225A7.7,7.7,0,0,1,19,1.775c.65.05.975.075,1.425.075,2.425,0,2.95-.45,2.95-2.575ZM41-17.125a19.756,19.756,0,0,1-.825,5.05,18.508,18.508,0,0,1-4.275,7.4A19.749,19.749,0,0,1,30.875-.75a7.012,7.012,0,0,1,2.05,2.625,24.974,24.974,0,0,0,6.2-5.65,20.971,20.971,0,0,0,3.575-7.55,16.159,16.159,0,0,0,1.275,3.55,19.039,19.039,0,0,0,2.2,3.7A25.192,25.192,0,0,0,52.25,1.8a10.61,10.61,0,0,1,2.125-2.825,17.891,17.891,0,0,1-3.7-2.7,20.225,20.225,0,0,1-4-4.8A19.356,19.356,0,0,1,44-18.425,11.8,11.8,0,0,1,44.075-20a13.623,13.623,0,0,1-2.275.125H37.825A15.222,15.222,0,0,1,35.475-20v3c.975-.075,1.725-.125,2.4-.125ZM84.275,2.225A19.214,19.214,0,0,1,81.1-2.75,16.912,16.912,0,0,1,79.775-9.6a16.4,16.4,0,0,1,1.3-6.625A19.482,19.482,0,0,1,84.25-21.2h-3.5A20.181,20.181,0,0,0,78-16.275,17.692,17.692,0,0,0,76.725-9.6,18.4,18.4,0,0,0,78.05-2.7a20.023,20.023,0,0,0,2.725,4.925ZM94,.075l1.275,1,15.75-20.15-1.3-1Zm14.4.75A4.6,4.6,0,0,0,111.775-.45a5.9,5.9,0,0,0,1.45-4.325,5.877,5.877,0,0,0-1.45-4.3A4.663,4.663,0,0,0,108.4-10.35,4.766,4.766,0,0,0,105-9.075a5.917,5.917,0,0,0-1.45,4.3A5.9,5.9,0,0,0,105-.45,4.621,4.621,0,0,0,108.4.825Zm0-9.05a1.8,1.8,0,0,1,1.6.775,4.414,4.414,0,0,1,.675,2.5c0,2.425-.775,3.675-2.275,3.675-1.475,0-2.275-1.25-2.275-3.55a4.347,4.347,0,0,1,.675-2.6A1.74,1.74,0,0,1,108.4-8.225ZM96.625-8.65A4.6,4.6,0,0,0,100-9.925a5.9,5.9,0,0,0,1.45-4.325,5.877,5.877,0,0,0-1.45-4.3,4.663,4.663,0,0,0-3.375-1.275c-3.05,0-4.85,2.075-4.85,5.575a5.941,5.941,0,0,0,1.45,4.325A4.621,4.621,0,0,0,96.625-8.65Zm0-9.05a1.924,1.924,0,0,1,1.825,1.125,5.488,5.488,0,0,1,.45,2.325c0,2.25-.825,3.5-2.275,3.5-1.475,0-2.275-1.25-2.275-3.55C94.35-16.475,95.175-17.7,96.625-17.7ZM124.25,2.225A20.885,20.885,0,0,0,126.975-2.7a18.776,18.776,0,0,0,1.3-6.9A17.692,17.692,0,0,0,127-16.275a19.954,19.954,0,0,0-2.725-4.925H120.75a20.426,20.426,0,0,1,3.2,4.975A16.23,16.23,0,0,1,125.225-9.6,16.828,16.828,0,0,1,123.9-2.75a19.214,19.214,0,0,1-3.175,4.975Z" transform="translate(1074.38 1800)" fill="#0052aa"/>
    <path id="パス_1129" data-name="パス 1129" d="M21.725-19.125A6.882,6.882,0,0,1,19.3-18.9H6.25a19.931,19.931,0,0,1-3.45-.2v3.125a24.031,24.031,0,0,1,3.4-.15H19.325A10.367,10.367,0,0,1,16.95-12.95a11.593,11.593,0,0,1-3.65,2.3,8.449,8.449,0,0,1,2.25,2.275,15.637,15.637,0,0,0,3-2.075,15.865,15.865,0,0,0,3.85-5.025,6.948,6.948,0,0,1,1-1.75ZM9.85-14.075a6.331,6.331,0,0,1,.125,1.5c0,4.725-.8,6.875-3.35,8.9A11.527,11.527,0,0,1,2.25-1.55,8.825,8.825,0,0,1,4.225,1.3a14.446,14.446,0,0,0,6.45-4.5c1.7-2.175,2.375-4.575,2.475-8.85a11.478,11.478,0,0,1,.1-2.025ZM34.325-17.1A30.267,30.267,0,0,1,41-13.675l1.6-2.75a41.169,41.169,0,0,0-6.65-3.225ZM32.35-11.025a29.017,29.017,0,0,1,6.775,3.65l1.55-2.825a39.458,39.458,0,0,0-6.65-3.4Zm14.85-8.25a16.873,16.873,0,0,1,2.625,3.725l1.75-.925A16.2,16.2,0,0,0,48.95-20.15ZM33.775,1.025A14.762,14.762,0,0,1,35.525.6C44.475-1.15,49.75-5.25,52.85-12.825a12.155,12.155,0,0,1-2.6-2.225C48.45-9.725,44.7-5.625,40.125-4.025A22.209,22.209,0,0,1,32.9-2.4ZM54.55-18.1a14.458,14.458,0,0,0-2.6-3.525l-1.675.875a18.419,18.419,0,0,1,2.55,3.625Zm27.175-1.025A6.882,6.882,0,0,1,79.3-18.9H66.25a19.931,19.931,0,0,1-3.45-.2v3.125a24.031,24.031,0,0,1,3.4-.15H79.325A10.367,10.367,0,0,1,76.95-12.95a11.593,11.593,0,0,1-3.65,2.3,8.449,8.449,0,0,1,2.25,2.275,15.637,15.637,0,0,0,3-2.075,15.865,15.865,0,0,0,3.85-5.025,6.948,6.948,0,0,1,1-1.75ZM69.85-14.075a6.331,6.331,0,0,1,.125,1.5c0,4.725-.8,6.875-3.35,8.9A11.527,11.527,0,0,1,62.25-1.55,8.825,8.825,0,0,1,64.225,1.3a14.446,14.446,0,0,0,6.45-4.5c1.7-2.175,2.375-4.575,2.475-8.85a11.478,11.478,0,0,1,.1-2.025Z" transform="translate(522 1899)" fill="#0052aa"/>
    <path id="パス_1130" data-name="パス 1130" d="M3.99,0,16.52-43.12H8.68v5.74H2.38V-49.84H23.66v7.14L11.55,0Zm39.9,0V-42.28l-7.14,5.25v-7.56l7.14-5.25h7.14V0ZM69.02,0V-7.14h7.14V0ZM90.09,0l12.53-43.12H94.78v5.74h-6.3V-49.84h21.28v7.14L97.65,0Z" transform="translate(631 1904)" fill="#0052aa"/>
    <path id="パス_1140" data-name="パス 1140" d="M3.99,0,16.52-43.12H8.68v5.74H2.38V-49.84H23.66v7.14L11.55,0ZM49.56-39.62A3.323,3.323,0,0,0,48.51-42.1a3.415,3.415,0,0,0-2.45-1.015A3.415,3.415,0,0,0,43.61-42.1a3.323,3.323,0,0,0-1.05,2.485v7.28a3.323,3.323,0,0,0,1.05,2.485,3.415,3.415,0,0,0,2.45,1.015,3.415,3.415,0,0,0,2.45-1.015,3.323,3.323,0,0,0,1.05-2.485Zm-14.14,2.8q0-2.03.14-3.465a11.42,11.42,0,0,1,.49-2.485,11.8,11.8,0,0,1,.805-1.89,13.241,13.241,0,0,1,1.155-1.75,9.647,9.647,0,0,1,3.5-2.835,10.317,10.317,0,0,1,4.55-1.015,10.317,10.317,0,0,1,4.55,1.015,9.648,9.648,0,0,1,3.5,2.835,16.663,16.663,0,0,1,1.19,1.75,10.047,10.047,0,0,1,.84,1.89,10.277,10.277,0,0,1,.455,2.485q.1,1.435.1,3.465,0,2.24-.07,3.78a11.567,11.567,0,0,1-.42,2.73,6.37,6.37,0,0,1-1.085,2.135,13.355,13.355,0,0,1-1.995,2,10.628,10.628,0,0,1,1.995,1.96,6.605,6.605,0,0,1,1.085,2.31,15.157,15.157,0,0,1,.42,3.255q.07,1.925.07,4.725,0,2.31-.1,3.815A23.185,23.185,0,0,1,56.28-7.49a7.215,7.215,0,0,1-.595,1.89,15.079,15.079,0,0,1-.945,1.61A10.1,10.1,0,0,1,51.38-.875,10.212,10.212,0,0,1,46.06.42a10.212,10.212,0,0,1-5.32-1.3A10.1,10.1,0,0,1,37.38-3.99a15.079,15.079,0,0,1-.945-1.61,7.214,7.214,0,0,1-.6-1.89,23.186,23.186,0,0,1-.315-2.625q-.1-1.5-.1-3.815,0-2.8.07-4.725a15.157,15.157,0,0,1,.42-3.255A6.605,6.605,0,0,1,37-24.22a10.628,10.628,0,0,1,1.995-1.96,13.355,13.355,0,0,1-1.995-2A6.37,6.37,0,0,1,35.91-30.31a11.567,11.567,0,0,1-.42-2.73Q35.42-34.58,35.42-36.82Zm14.14,16.8a3.323,3.323,0,0,0-1.05-2.485,3.415,3.415,0,0,0-2.45-1.015,3.415,3.415,0,0,0-2.45,1.015,3.323,3.323,0,0,0-1.05,2.485v9.8a3.323,3.323,0,0,0,1.05,2.485A3.415,3.415,0,0,0,46.06-6.72a3.415,3.415,0,0,0,2.45-1.015,3.323,3.323,0,0,0,1.05-2.485ZM69.02,0V-7.14h7.14V0ZM88.48-39.55a10.886,10.886,0,0,1,.875-4.48A10.483,10.483,0,0,1,91.7-47.39a10.089,10.089,0,0,1,3.4-2.135,11.188,11.188,0,0,1,4.025-.735,11.188,11.188,0,0,1,4.025.735,10.089,10.089,0,0,1,3.4,2.135,10.483,10.483,0,0,1,2.345,3.36,10.886,10.886,0,0,1,.875,4.48v29.26a10.886,10.886,0,0,1-.875,4.48,10.483,10.483,0,0,1-2.345,3.36,10.089,10.089,0,0,1-3.4,2.135A11.188,11.188,0,0,1,99.12.42,11.188,11.188,0,0,1,95.1-.315,10.089,10.089,0,0,1,91.7-2.45a10.483,10.483,0,0,1-2.345-3.36,10.886,10.886,0,0,1-.875-4.48Zm7.14,29.26a3.53,3.53,0,0,0,.98,2.555A3.349,3.349,0,0,0,99.12-6.72a3.349,3.349,0,0,0,2.52-1.015,3.53,3.53,0,0,0,.98-2.555V-39.55a3.53,3.53,0,0,0-.98-2.555,3.349,3.349,0,0,0-2.52-1.015A3.349,3.349,0,0,0,96.6-42.1a3.53,3.53,0,0,0-.98,2.555Z" transform="translate(1180 1904)" fill="#0052aa"/>
    <path id="パス_1142" data-name="パス 1142" d="M9.3,0V-36.24l-6.12,4.5v-6.48l6.12-4.5h6.12V0ZM31.74,0,42.48-36.96H35.76v4.92h-5.4V-42.72H48.6v6.12L38.22,0ZM59.16,0V-6.12h6.12V0Zm32.7-42.72L84.9-24.78l.12.12a2.4,2.4,0,0,1,.93-.39,7.36,7.36,0,0,1,1.65-.15,5.994,5.994,0,0,1,3,.78,6.089,6.089,0,0,1,2.16,1.98,6.779,6.779,0,0,1,.66,1.32,10.108,10.108,0,0,1,.42,1.74q.12,1.08.18,2.73t.06,4.17q0,2.1-.06,3.45t-.18,2.25a8.432,8.432,0,0,1-.45,1.62,11.086,11.086,0,0,1-.69,1.38A8.276,8.276,0,0,1,89.49-.72,9.417,9.417,0,0,1,84.96.36a9.043,9.043,0,0,1-4.5-1.11,8.719,8.719,0,0,1-3.18-3.03,7.915,7.915,0,0,1-.75-1.38,6.415,6.415,0,0,1-.39-1.62,15.206,15.206,0,0,1-.24-2.25q-.06-1.35-.06-3.45,0-1.98.06-3.27T76.08-18a9.564,9.564,0,0,1,.36-1.65q.24-.75.54-1.59l8.04-21.48Zm-3.9,25.98a2.894,2.894,0,0,0-.9-2.22,2.981,2.981,0,0,0-2.1-.84,2.981,2.981,0,0,0-2.1.84,2.894,2.894,0,0,0-.9,2.22v7.92a2.894,2.894,0,0,0,.9,2.22,2.981,2.981,0,0,0,2.1.84,2.981,2.981,0,0,0,2.1-.84,2.894,2.894,0,0,0,.9-2.22Z" transform="translate(1180 1977)" fill="#0052aa"/>
    <path id="パス_1144" data-name="パス 1144" d="M10.6,0V-5.3H.45v-4.8L7.8-35.6h5.4L5.55-10.1H10.6V-20.25h5.1V-10.1h2.45v4.8H15.7V0ZM25.7,0V-5.1h5.1V0ZM45.65,0V-30.2l-5.1,3.75v-5.4l5.1-3.75h5.1V0Z" transform="translate(1180 2043)" fill="#0052aa"/>
    <path id="パス_1146" data-name="パス 1146" d="M1.7-28.25a7.775,7.775,0,0,1,.625-3.2A7.488,7.488,0,0,1,4-33.85a7.206,7.206,0,0,1,2.425-1.525A7.992,7.992,0,0,1,9.3-35.9a7.992,7.992,0,0,1,2.875.525A7.206,7.206,0,0,1,14.6-33.85a7.488,7.488,0,0,1,1.675,2.4,7.775,7.775,0,0,1,.625,3.2v20.9a7.775,7.775,0,0,1-.625,3.2A7.488,7.488,0,0,1,14.6-1.75,7.206,7.206,0,0,1,12.175-.225,7.992,7.992,0,0,1,9.3.3,7.992,7.992,0,0,1,6.425-.225,7.206,7.206,0,0,1,4-1.75a7.488,7.488,0,0,1-1.675-2.4A7.775,7.775,0,0,1,1.7-7.35ZM6.8-7.35a2.522,2.522,0,0,0,.7,1.825A2.392,2.392,0,0,0,9.3-4.8a2.392,2.392,0,0,0,1.8-.725,2.522,2.522,0,0,0,.7-1.825v-20.9a2.522,2.522,0,0,0-.7-1.825A2.392,2.392,0,0,0,9.3-30.8a2.392,2.392,0,0,0-1.8.725,2.522,2.522,0,0,0-.7,1.825ZM25.7,0V-5.1h5.1V0ZM45.65-20.6a6.445,6.445,0,0,0,3.175-.55q.875-.55.875-2.55v-4.6a2.486,2.486,0,0,0-.675-1.8,2.417,2.417,0,0,0-1.825-.7,2.153,2.153,0,0,0-1.925.85A2.952,2.952,0,0,0,44.7-28.3v2.9H39.6v-2.95a7.411,7.411,0,0,1,.6-2.95,7.173,7.173,0,0,1,1.65-2.4,8.2,8.2,0,0,1,2.45-1.6,7.535,7.535,0,0,1,3-.6,6.663,6.663,0,0,1,3.475.825A8,8,0,0,1,52.85-33.4a10.925,10.925,0,0,1,.875,1.2,5.84,5.84,0,0,1,.625,1.45,19.937,19.937,0,0,1,.45,4.9q0,1.85-.075,3a6.276,6.276,0,0,1-.375,1.9,3.8,3.8,0,0,1-.975,1.35,11.564,11.564,0,0,1-1.725,1.2A9.686,9.686,0,0,1,53.475-17a4.117,4.117,0,0,1,.925,1.5,7.748,7.748,0,0,1,.35,2.125q.05,1.225.05,3.125,0,1.75-.075,2.9a14.922,14.922,0,0,1-.225,1.9,5.927,5.927,0,0,1-.4,1.35,8.23,8.23,0,0,1-.65,1.15A8.079,8.079,0,0,1,51.025-.625,7.209,7.209,0,0,1,47.15.3,8.989,8.989,0,0,1,44.6-.1a6.952,6.952,0,0,1-2.45-1.3,7.058,7.058,0,0,1-1.825-2.35A7.881,7.881,0,0,1,39.6-7.3v-2.9h5.1v2.65a2.9,2.9,0,0,0,.675,1.975A2.3,2.3,0,0,0,47.2-4.8a2.3,2.3,0,0,0,1.825-.775A3.048,3.048,0,0,0,49.7-7.65v-5.1q0-2.1-.8-2.75a2.225,2.225,0,0,0-1.225-.5,16.461,16.461,0,0,0-2.025-.1Z" transform="translate(1180 2107)" fill="#0052aa"/>
    <path id="パス_1132" data-name="パス 1132" d="M9.3,0V-36.24l-6.12,4.5v-6.48l6.12-4.5h6.12V0ZM46.38-42.72,39.42-24.78l.12.12a2.4,2.4,0,0,1,.93-.39,7.36,7.36,0,0,1,1.65-.15,5.994,5.994,0,0,1,3,.78,6.089,6.089,0,0,1,2.16,1.98,6.779,6.779,0,0,1,.66,1.32,10.108,10.108,0,0,1,.42,1.74q.12,1.08.18,2.73t.06,4.17q0,2.1-.06,3.45t-.18,2.25a8.432,8.432,0,0,1-.45,1.62,11.086,11.086,0,0,1-.69,1.38A8.276,8.276,0,0,1,44.01-.72,9.417,9.417,0,0,1,39.48.36a9.043,9.043,0,0,1-4.5-1.11A8.719,8.719,0,0,1,31.8-3.78a7.915,7.915,0,0,1-.75-1.38,6.415,6.415,0,0,1-.39-1.62,15.2,15.2,0,0,1-.24-2.25q-.06-1.35-.06-3.45,0-1.98.06-3.27T30.6-18a9.563,9.563,0,0,1,.36-1.65q.24-.75.54-1.59l8.04-21.48Zm-3.9,25.98a2.894,2.894,0,0,0-.9-2.22,2.981,2.981,0,0,0-2.1-.84,2.981,2.981,0,0,0-2.1.84,2.894,2.894,0,0,0-.9,2.22v7.92a2.894,2.894,0,0,0,.9,2.22,2.981,2.981,0,0,0,2.1.84,2.981,2.981,0,0,0,2.1-.84,2.894,2.894,0,0,0,.9-2.22ZM59.16,0V-6.12h6.12V0ZM75.84-33.9a9.331,9.331,0,0,1,.75-3.84,8.985,8.985,0,0,1,2.01-2.88,8.647,8.647,0,0,1,2.91-1.83,9.59,9.59,0,0,1,3.45-.63,9.59,9.59,0,0,1,3.45.63,8.648,8.648,0,0,1,2.91,1.83,8.985,8.985,0,0,1,2.01,2.88,9.331,9.331,0,0,1,.75,3.84V-8.82a9.331,9.331,0,0,1-.75,3.84A8.985,8.985,0,0,1,91.32-2.1,8.648,8.648,0,0,1,88.41-.27a9.59,9.59,0,0,1-3.45.63,9.59,9.59,0,0,1-3.45-.63A8.647,8.647,0,0,1,78.6-2.1a8.985,8.985,0,0,1-2.01-2.88,9.331,9.331,0,0,1-.75-3.84ZM81.96-8.82a3.026,3.026,0,0,0,.84,2.19,2.87,2.87,0,0,0,2.16.87,2.87,2.87,0,0,0,2.16-.87,3.026,3.026,0,0,0,.84-2.19V-33.9a3.026,3.026,0,0,0-.84-2.19,2.87,2.87,0,0,0-2.16-.87,2.87,2.87,0,0,0-2.16.87,3.026,3.026,0,0,0-.84,2.19Z" transform="translate(631 1977)" fill="#0052aa"/>
    <path id="パス_1134" data-name="パス 1134" d="M7.75-20.6a6.445,6.445,0,0,0,3.175-.55q.875-.55.875-2.55v-4.6a2.486,2.486,0,0,0-.675-1.8A2.417,2.417,0,0,0,9.3-30.8a2.153,2.153,0,0,0-1.925.85A2.952,2.952,0,0,0,6.8-28.3v2.9H1.7v-2.95a7.411,7.411,0,0,1,.6-2.95,7.173,7.173,0,0,1,1.65-2.4A8.2,8.2,0,0,1,6.4-35.3a7.535,7.535,0,0,1,3-.6,6.663,6.663,0,0,1,3.475.825A8,8,0,0,1,14.95-33.4a10.925,10.925,0,0,1,.875,1.2,5.84,5.84,0,0,1,.625,1.45,19.937,19.937,0,0,1,.45,4.9q0,1.85-.075,3a6.276,6.276,0,0,1-.375,1.9,3.8,3.8,0,0,1-.975,1.35,11.564,11.564,0,0,1-1.725,1.2A9.686,9.686,0,0,1,15.575-17a4.117,4.117,0,0,1,.925,1.5,7.748,7.748,0,0,1,.35,2.125q.05,1.225.05,3.125,0,1.75-.075,2.9a14.922,14.922,0,0,1-.225,1.9,5.927,5.927,0,0,1-.4,1.35,8.23,8.23,0,0,1-.65,1.15A8.079,8.079,0,0,1,13.125-.625,7.209,7.209,0,0,1,9.25.3,8.989,8.989,0,0,1,6.7-.1,6.952,6.952,0,0,1,4.25-1.4,7.058,7.058,0,0,1,2.425-3.75,7.881,7.881,0,0,1,1.7-7.3v-2.9H6.8v2.65a2.9,2.9,0,0,0,.675,1.975A2.3,2.3,0,0,0,9.3-4.8a2.3,2.3,0,0,0,1.825-.775A3.048,3.048,0,0,0,11.8-7.65v-5.1q0-2.1-.8-2.75A2.225,2.225,0,0,0,9.775-16a16.461,16.461,0,0,0-2.025-.1ZM25.7,0V-5.1h5.1V0ZM41.45,0l5.8-14.95-.1-.1a2,2,0,0,1-.775.325A6.133,6.133,0,0,1,45-14.6a5,5,0,0,1-2.5-.65,5.074,5.074,0,0,1-1.8-1.65,4.369,4.369,0,0,1-.55-1.075,6.912,6.912,0,0,1-.3-1.475,18.294,18.294,0,0,1-.2-2.275Q39.6-23.1,39.6-25.2q0-1.75.05-2.875A14,14,0,0,1,39.85-30a5.29,5.29,0,0,1,.325-1.3,9.238,9.238,0,0,1,.575-1.15A6.9,6.9,0,0,1,43.425-35a7.848,7.848,0,0,1,3.775-.9,7.536,7.536,0,0,1,3.75.925A7.266,7.266,0,0,1,53.6-32.45a12.831,12.831,0,0,1,.6,1.15,5.989,5.989,0,0,1,.4,1.3q.1.8.15,1.925T54.8-25.2q0,1.65-.05,2.725T54.6-20.65q-.15.8-.325,1.425T53.85-17.9L47.15,0ZM44.7-21.65a2.411,2.411,0,0,0,.75,1.85,2.484,2.484,0,0,0,1.75.7,2.484,2.484,0,0,0,1.75-.7,2.411,2.411,0,0,0,.75-1.85v-6.6a2.411,2.411,0,0,0-.75-1.85,2.484,2.484,0,0,0-1.75-.7,2.484,2.484,0,0,0-1.75.7,2.411,2.411,0,0,0-.75,1.85Z" transform="translate(631 2043)" fill="#0052aa"/>
    <path id="パス_1136" data-name="パス 1136" d="M2.85,0,11.8-30.8H6.2v4.1H1.7v-8.9H16.9v5.1L8.25,0ZM25.7,0V-5.1h5.1V0ZM54.8-35.6v4.8H44.7v9.6a5.713,5.713,0,0,1,1.8-1.175,6.118,6.118,0,0,1,2.45-.475,5.815,5.815,0,0,1,4.225,1.575A6.3,6.3,0,0,1,54.8-16.55v9.2a7.775,7.775,0,0,1-.625,3.2A7.488,7.488,0,0,1,52.5-1.75,7.206,7.206,0,0,1,50.075-.225,7.992,7.992,0,0,1,47.2.3a7.992,7.992,0,0,1-2.875-.525A7.206,7.206,0,0,1,41.9-1.75a7.488,7.488,0,0,1-1.675-2.4,7.775,7.775,0,0,1-.625-3.2v-1.5h5.1v1.3a2.737,2.737,0,0,0,.725,2.025A2.537,2.537,0,0,0,47.3-4.8a2.256,2.256,0,0,0,1.775-.7A2.826,2.826,0,0,0,49.7-7.45V-15.8a2.6,2.6,0,0,0-.675-1.8,2.217,2.217,0,0,0-1.725-.75,2.441,2.441,0,0,0-1.1.225,2.855,2.855,0,0,0-.75.525,2.076,2.076,0,0,0-.45.65q-.25.45-.3.55H40.2V-35.6Z" transform="translate(631 2107)" fill="#0052aa"/>
    <path id="パス_1138" data-name="パス 1138" d="M1.7-28.25a7.775,7.775,0,0,1,.625-3.2A7.488,7.488,0,0,1,4-33.85a7.206,7.206,0,0,1,2.425-1.525A7.992,7.992,0,0,1,9.3-35.9a7.992,7.992,0,0,1,2.875.525A7.206,7.206,0,0,1,14.6-33.85a7.488,7.488,0,0,1,1.675,2.4,7.775,7.775,0,0,1,.625,3.2v20.9a7.775,7.775,0,0,1-.625,3.2A7.488,7.488,0,0,1,14.6-1.75,7.206,7.206,0,0,1,12.175-.225,7.992,7.992,0,0,1,9.3.3,7.992,7.992,0,0,1,6.425-.225,7.206,7.206,0,0,1,4-1.75a7.488,7.488,0,0,1-1.675-2.4A7.775,7.775,0,0,1,1.7-7.35ZM6.8-7.35a2.522,2.522,0,0,0,.7,1.825A2.392,2.392,0,0,0,9.3-4.8a2.392,2.392,0,0,0,1.8-.725,2.522,2.522,0,0,0,.7-1.825v-20.9a2.522,2.522,0,0,0-.7-1.825A2.392,2.392,0,0,0,9.3-30.8a2.392,2.392,0,0,0-1.8.725,2.522,2.522,0,0,0-.7,1.825ZM25.7,0V-5.1h5.1V0ZM41.45,0l5.8-14.95-.1-.1a2,2,0,0,1-.775.325A6.133,6.133,0,0,1,45-14.6a5,5,0,0,1-2.5-.65,5.074,5.074,0,0,1-1.8-1.65,4.369,4.369,0,0,1-.55-1.075,6.912,6.912,0,0,1-.3-1.475,18.294,18.294,0,0,1-.2-2.275Q39.6-23.1,39.6-25.2q0-1.75.05-2.875A14,14,0,0,1,39.85-30a5.29,5.29,0,0,1,.325-1.3,9.238,9.238,0,0,1,.575-1.15A6.9,6.9,0,0,1,43.425-35a7.848,7.848,0,0,1,3.775-.9,7.536,7.536,0,0,1,3.75.925A7.266,7.266,0,0,1,53.6-32.45a12.831,12.831,0,0,1,.6,1.15,5.989,5.989,0,0,1,.4,1.3q.1.8.15,1.925T54.8-25.2q0,1.65-.05,2.725T54.6-20.65q-.15.8-.325,1.425T53.85-17.9L47.15,0ZM44.7-21.65a2.411,2.411,0,0,0,.75,1.85,2.484,2.484,0,0,0,1.75.7,2.484,2.484,0,0,0,1.75-.7,2.411,2.411,0,0,0,.75-1.85v-6.6a2.411,2.411,0,0,0-.75-1.85,2.484,2.484,0,0,0-1.75-.7,2.484,2.484,0,0,0-1.75.7,2.411,2.411,0,0,0-.75,1.85Z" transform="translate(788.38 2172)" fill="#0052aa"/>
    <path id="パス_1139" data-name="パス 1139" d="M21.725-19.125A6.882,6.882,0,0,1,19.3-18.9H6.25a19.931,19.931,0,0,1-3.45-.2v3.125a24.031,24.031,0,0,1,3.4-.15H19.325A10.367,10.367,0,0,1,16.95-12.95a11.593,11.593,0,0,1-3.65,2.3,8.449,8.449,0,0,1,2.25,2.275,15.637,15.637,0,0,0,3-2.075,15.865,15.865,0,0,0,3.85-5.025,6.948,6.948,0,0,1,1-1.75ZM9.85-14.075a6.331,6.331,0,0,1,.125,1.5c0,4.725-.8,6.875-3.35,8.9A11.527,11.527,0,0,1,2.25-1.55,8.825,8.825,0,0,1,4.225,1.3a14.446,14.446,0,0,0,6.45-4.5c1.7-2.175,2.375-4.575,2.475-8.85a11.478,11.478,0,0,1,.1-2.025ZM34.325-17.1A30.267,30.267,0,0,1,41-13.675l1.6-2.75a41.169,41.169,0,0,0-6.65-3.225ZM32.35-11.025a29.017,29.017,0,0,1,6.775,3.65l1.55-2.825a39.458,39.458,0,0,0-6.65-3.4Zm14.85-8.25a16.873,16.873,0,0,1,2.625,3.725l1.75-.925A16.2,16.2,0,0,0,48.95-20.15ZM33.775,1.025A14.762,14.762,0,0,1,35.525.6C44.475-1.15,49.75-5.25,52.85-12.825a12.155,12.155,0,0,1-2.6-2.225C48.45-9.725,44.7-5.625,40.125-4.025A22.209,22.209,0,0,1,32.9-2.4ZM54.55-18.1a14.458,14.458,0,0,0-2.6-3.525l-1.675.875a18.419,18.419,0,0,1,2.55,3.625Zm27.175-1.025A6.882,6.882,0,0,1,79.3-18.9H66.25a19.931,19.931,0,0,1-3.45-.2v3.125a24.031,24.031,0,0,1,3.4-.15H79.325A10.367,10.367,0,0,1,76.95-12.95a11.593,11.593,0,0,1-3.65,2.3,8.449,8.449,0,0,1,2.25,2.275,15.637,15.637,0,0,0,3-2.075,15.865,15.865,0,0,0,3.85-5.025,6.948,6.948,0,0,1,1-1.75ZM69.85-14.075a6.331,6.331,0,0,1,.125,1.5c0,4.725-.8,6.875-3.35,8.9A11.527,11.527,0,0,1,62.25-1.55,8.825,8.825,0,0,1,64.225,1.3a14.446,14.446,0,0,0,6.45-4.5c1.7-2.175,2.375-4.575,2.475-8.85a11.478,11.478,0,0,1,.1-2.025Z" transform="translate(1071 1899)" fill="#0052aa"/>
    <path id="パス_1131" data-name="パス 1131" d="M7.65-12.525V-6.6A41.019,41.019,0,0,1,3.1-4.525a10.164,10.164,0,0,1-2.125.65L1.9-.9c.25-.125.675-.325,1.1-.5,1.775-.8,3.15-1.45,4.65-2.3v2.65A23.374,23.374,0,0,1,7.5,1.975h3.125a18.472,18.472,0,0,1-.15-3V-17.9a17.331,17.331,0,0,1,.15-2.85H7.5a21.185,21.185,0,0,1,.15,2.85v2.75H3.9a11.114,11.114,0,0,1-2.35-.15v2.925a11.99,11.99,0,0,1,2.35-.15Zm8.7,2.65c1.775-.975,1.775-.975,2.8-1.6,1.15-.725,3.25-2.175,3.975-2.75.4-.325.55-.45.8-.625L21.95-17.2a22.908,22.908,0,0,1-5.6,4.275v-4.95a18.224,18.224,0,0,1,.15-2.875H13.425a20.346,20.346,0,0,1,.15,2.875v16.6c0,1.175.3,1.825,1.05,2.175.65.325,1.4.4,3.625.4a19.827,19.827,0,0,0,2.55-.1A3.727,3.727,0,0,0,22.625.475c.85-.75,1.3-2.575,1.45-5.95a13.588,13.588,0,0,1-2.65-1.1,14.891,14.891,0,0,1-.45,4.6c-.3.575-.85.725-2.6.725-1.7,0-2.025-.125-2.025-.75ZM73.7-12.25v-6.225a12.683,12.683,0,0,1,.175-2.425H70.75a16.756,16.756,0,0,1,.15,2.425v6.225H64.55a22.932,22.932,0,0,1-3.075-.15v2.95A27.159,27.159,0,0,1,64.55-9.6H69.3a19.675,19.675,0,0,1-8.575,6.975A9.083,9.083,0,0,1,62.525,0,22.377,22.377,0,0,0,67-3.175,19.2,19.2,0,0,0,71-8a21.844,21.844,0,0,0-.1,2.325V-1.1a23.122,23.122,0,0,1-.175,3.15h3.15A24.782,24.782,0,0,1,73.7-1.075v-4.65c-.025-1.175-.025-1.175-.075-1.8,0-.125-.025-.3-.025-.525a15.7,15.7,0,0,0,3.25,4.1,28.443,28.443,0,0,0,5.65,4,13.249,13.249,0,0,1,1.85-2.775A23.077,23.077,0,0,1,78-6.5a19.1,19.1,0,0,1-2.85-3.1H80.5a26.53,26.53,0,0,1,3.025.15V-12.4a24.467,24.467,0,0,1-3.025.15Zm-4.65-2.075a39.13,39.13,0,0,0-3.4-5.525L63.3-18.375a27.2,27.2,0,0,1,3.275,5.6Zm8.8,1.675a31.8,31.8,0,0,0,3.8-5.8l-2.575-1.4a21.711,21.711,0,0,1-3.45,5.65Z" transform="translate(522 1974)" fill="#0052aa"/>
    <path id="パス_1141" data-name="パス 1141" d="M7.65-12.525V-6.6A41.019,41.019,0,0,1,3.1-4.525a10.164,10.164,0,0,1-2.125.65L1.9-.9c.25-.125.675-.325,1.1-.5,1.775-.8,3.15-1.45,4.65-2.3v2.65A23.374,23.374,0,0,1,7.5,1.975h3.125a18.472,18.472,0,0,1-.15-3V-17.9a17.331,17.331,0,0,1,.15-2.85H7.5a21.185,21.185,0,0,1,.15,2.85v2.75H3.9a11.114,11.114,0,0,1-2.35-.15v2.925a11.99,11.99,0,0,1,2.35-.15Zm8.7,2.65c1.775-.975,1.775-.975,2.8-1.6,1.15-.725,3.25-2.175,3.975-2.75.4-.325.55-.45.8-.625L21.95-17.2a22.908,22.908,0,0,1-5.6,4.275v-4.95a18.224,18.224,0,0,1,.15-2.875H13.425a20.346,20.346,0,0,1,.15,2.875v16.6c0,1.175.3,1.825,1.05,2.175.65.325,1.4.4,3.625.4a19.827,19.827,0,0,0,2.55-.1A3.727,3.727,0,0,0,22.625.475c.85-.75,1.3-2.575,1.45-5.95a13.588,13.588,0,0,1-2.65-1.1,14.891,14.891,0,0,1-.45,4.6c-.3.575-.85.725-2.6.725-1.7,0-2.025-.125-2.025-.75ZM73.7-12.25v-6.225a12.683,12.683,0,0,1,.175-2.425H70.75a16.756,16.756,0,0,1,.15,2.425v6.225H64.55a22.932,22.932,0,0,1-3.075-.15v2.95A27.159,27.159,0,0,1,64.55-9.6H69.3a19.675,19.675,0,0,1-8.575,6.975A9.083,9.083,0,0,1,62.525,0,22.377,22.377,0,0,0,67-3.175,19.2,19.2,0,0,0,71-8a21.844,21.844,0,0,0-.1,2.325V-1.1a23.122,23.122,0,0,1-.175,3.15h3.15A24.782,24.782,0,0,1,73.7-1.075v-4.65c-.025-1.175-.025-1.175-.075-1.8,0-.125-.025-.3-.025-.525a15.7,15.7,0,0,0,3.25,4.1,28.443,28.443,0,0,0,5.65,4,13.249,13.249,0,0,1,1.85-2.775A23.077,23.077,0,0,1,78-6.5a19.1,19.1,0,0,1-2.85-3.1H80.5a26.53,26.53,0,0,1,3.025.15V-12.4a24.467,24.467,0,0,1-3.025.15Zm-4.65-2.075a39.13,39.13,0,0,0-3.4-5.525L63.3-18.375a27.2,27.2,0,0,1,3.275,5.6Zm8.8,1.675a31.8,31.8,0,0,0,3.8-5.8l-2.575-1.4a21.711,21.711,0,0,1-3.45,5.65Z" transform="translate(1071 1974)" fill="#0052aa"/>
    <path id="パス_1133" data-name="パス 1133" d="M15.725-13.675A8.707,8.707,0,0,1,15.8-12.5,21.778,21.778,0,0,1,14.875-6a10.31,10.31,0,0,1-3.25,4.8V-2.45a13.413,13.413,0,0,1-1.975.1H4.525v-2.1a8.343,8.343,0,0,1,1.7,1.925A25.756,25.756,0,0,0,9.2-7.475,32.748,32.748,0,0,1,11.3-4l1.6-2.275a29,29,0,0,0-2.625-3.875,36.4,36.4,0,0,0,1.35-5.7l-2.5-.75a22.212,22.212,0,0,1-.65,4.275C6.975-14.075,6.85-14.225,6.1-15L4.625-12.975A43.1,43.1,0,0,1,7.55-9.625,19.337,19.337,0,0,1,4.525-4.65v-12.6H10.3a17.029,17.029,0,0,1,2.3.125V-19.8a16.877,16.877,0,0,1-2.45.125H4.1a16.766,16.766,0,0,1-2.225-.1c.05.9.075,1.525.075,2.325V-1.375a27.375,27.375,0,0,1-.15,2.95H4.525V.075H10.45A13.355,13.355,0,0,1,12.025,2.1,13.437,13.437,0,0,0,15.5-1.575,10.671,10.671,0,0,0,17.3-6.3a12.34,12.34,0,0,0,1.875,4.375,18.3,18.3,0,0,0,3.7,4,17.778,17.778,0,0,1,1.65-2.65A17.278,17.278,0,0,1,21.45-3.2a11.871,11.871,0,0,1-2.325-4.125,22.025,22.025,0,0,1-.775-5.55,4.767,4.767,0,0,1,.075-.8ZM16.9-17.55c.55-2.025.875-3.125.95-3.3l-2.875-.4A20.763,20.763,0,0,1,14-16.925,18.632,18.632,0,0,1,11.3-11.7a8.531,8.531,0,0,1,2.025,1.9A26.073,26.073,0,0,0,16.1-15.175h5.1a16.163,16.163,0,0,1-2.075,4.85,12.672,12.672,0,0,1,2.25,1.475,25.018,25.018,0,0,0,2.15-5.45,13.234,13.234,0,0,1,.6-2.05L22.95-17.675a10.521,10.521,0,0,1-2,.125Zm45.375,2.475a18.613,18.613,0,0,1-1.5,6.9l2.425.9a27.731,27.731,0,0,0,1.45-7.3Zm6.125.925A29.268,29.268,0,0,1,70.15-7.6l2.325-1.1A38.174,38.174,0,0,0,70.5-15Zm4.15-5.975a16.6,16.6,0,0,1,.15,2.875v14.4A26.134,26.134,0,0,1,72.55.375H75.5a25.13,25.13,0,0,1-.15-3.2v-14.45a16.275,16.275,0,0,1,.15-2.85Zm7.375-.75a24.155,24.155,0,0,1,.15,3.1v16.3a27.807,27.807,0,0,1-.15,3.375H82.85a27.245,27.245,0,0,1-.15-3.375V-17.75a25.427,25.427,0,0,1,.15-3.125ZM68.275-18a15.1,15.1,0,0,1,.15-2.85H65.5a22.8,22.8,0,0,1,.175,2.9v5.625a29.446,29.446,0,0,1-.35,4.375,11.663,11.663,0,0,1-1.1,3.7A11.959,11.959,0,0,1,61.25-.075a6.936,6.936,0,0,1,2.025,2.15A16.9,16.9,0,0,0,66.35-2.1c1.375-2.675,1.925-5.4,1.925-9.8Zm7.175,3.85a34.387,34.387,0,0,1,2.3,6.375L79.95-9.1a43.528,43.528,0,0,0-2.5-6.05Z" transform="translate(522 2041)" fill="#0052aa"/>
    <path id="パス_1143" data-name="パス 1143" d="M15.725-13.675A8.707,8.707,0,0,1,15.8-12.5,21.778,21.778,0,0,1,14.875-6a10.31,10.31,0,0,1-3.25,4.8V-2.45a13.413,13.413,0,0,1-1.975.1H4.525v-2.1a8.343,8.343,0,0,1,1.7,1.925A25.756,25.756,0,0,0,9.2-7.475,32.748,32.748,0,0,1,11.3-4l1.6-2.275a29,29,0,0,0-2.625-3.875,36.4,36.4,0,0,0,1.35-5.7l-2.5-.75a22.212,22.212,0,0,1-.65,4.275C6.975-14.075,6.85-14.225,6.1-15L4.625-12.975A43.1,43.1,0,0,1,7.55-9.625,19.337,19.337,0,0,1,4.525-4.65v-12.6H10.3a17.029,17.029,0,0,1,2.3.125V-19.8a16.877,16.877,0,0,1-2.45.125H4.1a16.766,16.766,0,0,1-2.225-.1c.05.9.075,1.525.075,2.325V-1.375a27.375,27.375,0,0,1-.15,2.95H4.525V.075H10.45A13.355,13.355,0,0,1,12.025,2.1,13.437,13.437,0,0,0,15.5-1.575,10.671,10.671,0,0,0,17.3-6.3a12.34,12.34,0,0,0,1.875,4.375,18.3,18.3,0,0,0,3.7,4,17.778,17.778,0,0,1,1.65-2.65A17.278,17.278,0,0,1,21.45-3.2a11.871,11.871,0,0,1-2.325-4.125,22.025,22.025,0,0,1-.775-5.55,4.767,4.767,0,0,1,.075-.8ZM16.9-17.55c.55-2.025.875-3.125.95-3.3l-2.875-.4A20.763,20.763,0,0,1,14-16.925,18.632,18.632,0,0,1,11.3-11.7a8.531,8.531,0,0,1,2.025,1.9A26.073,26.073,0,0,0,16.1-15.175h5.1a16.163,16.163,0,0,1-2.075,4.85,12.672,12.672,0,0,1,2.25,1.475,25.018,25.018,0,0,0,2.15-5.45,13.234,13.234,0,0,1,.6-2.05L22.95-17.675a10.521,10.521,0,0,1-2,.125Zm45.375,2.475a18.613,18.613,0,0,1-1.5,6.9l2.425.9a27.731,27.731,0,0,0,1.45-7.3Zm6.125.925A29.268,29.268,0,0,1,70.15-7.6l2.325-1.1A38.174,38.174,0,0,0,70.5-15Zm4.15-5.975a16.6,16.6,0,0,1,.15,2.875v14.4A26.134,26.134,0,0,1,72.55.375H75.5a25.13,25.13,0,0,1-.15-3.2v-14.45a16.275,16.275,0,0,1,.15-2.85Zm7.375-.75a24.155,24.155,0,0,1,.15,3.1v16.3a27.807,27.807,0,0,1-.15,3.375H82.85a27.245,27.245,0,0,1-.15-3.375V-17.75a25.427,25.427,0,0,1,.15-3.125ZM68.275-18a15.1,15.1,0,0,1,.15-2.85H65.5a22.8,22.8,0,0,1,.175,2.9v5.625a29.446,29.446,0,0,1-.35,4.375,11.663,11.663,0,0,1-1.1,3.7A11.959,11.959,0,0,1,61.25-.075a6.936,6.936,0,0,1,2.025,2.15A16.9,16.9,0,0,0,66.35-2.1c1.375-2.675,1.925-5.4,1.925-9.8Zm7.175,3.85a34.387,34.387,0,0,1,2.3,6.375L79.95-9.1a43.528,43.528,0,0,0-2.5-6.05Z" transform="translate(1071 2041)" fill="#0052aa"/>
    <path id="パス_1135" data-name="パス 1135" d="M10.925-16.8H4.35a19.262,19.262,0,0,1-2.25-.1,19.571,19.571,0,0,1,.1,2.175v7.65a18.736,18.736,0,0,1-.125,2.5h2.95v-1.5h5.9V-1a20.96,20.96,0,0,1-.175,3.1h3.2A19.666,19.666,0,0,1,13.775-1V-6.075h6.2v1.5h2.95a17.206,17.206,0,0,1-.125-2.5V-14.7a18.354,18.354,0,0,1,.1-2.2,17.879,17.879,0,0,1-2.275.1h-6.85v-1.625a18.33,18.33,0,0,1,.15-2.625h-3.15a16.208,16.208,0,0,1,.15,2.725Zm0,2.65v5.425h-5.9V-14.15Zm2.85,5.425V-14.15h6.2v5.425Zm57.25-7.625v1.4H66.1a17.526,17.526,0,0,1-2.725-.125,23.861,23.861,0,0,1,.1,2.575v4.6c-.025,1.725-.025,1.725-.025,1.825a3.257,3.257,0,0,0-.075.725A19.066,19.066,0,0,1,66.2-5.475h2.7A14.839,14.839,0,0,1,65.325-2.9a20.932,20.932,0,0,1-4.7,1.85,10.683,10.683,0,0,1,1.4,2.525A25.94,25.94,0,0,0,66.3-.45,16.278,16.278,0,0,0,71.075-4.4c-.025.475-.05,1.4-.05,1.7V-.9a20.045,20.045,0,0,1-.175,2.85h3.075A15.312,15.312,0,0,1,73.75-.9V-2.7c0-.425-.025-.9-.05-1.725a16.208,16.208,0,0,0,4.375,3.6A26.177,26.177,0,0,0,83.2,1.45,16.526,16.526,0,0,1,84.625-1.2,17.629,17.629,0,0,1,75.95-5.475h3a19.737,19.737,0,0,1,2.8.125,19.7,19.7,0,0,1-.1-2.55v-4.625c0-.95.025-1.775.1-2.525a24.2,24.2,0,0,1-2.775.1H73.75v-1.4h7a26.711,26.711,0,0,1,3.1.15v-2.75a20.945,20.945,0,0,1-3.275.175H73.75a12.418,12.418,0,0,1,.15-2.25H70.85a14.439,14.439,0,0,1,.175,2.25h-6.6a22.009,22.009,0,0,1-3.2-.175v2.75a21.377,21.377,0,0,1,3.025-.15Zm0,3.55v1.525h-4.9V-12.8Zm2.725,0H79v1.525H73.75ZM71.025-9.2v1.575h-4.9V-9.2Zm2.725,0H79v1.575H73.75Z" transform="translate(522 2106)" fill="#0052aa"/>
    <path id="パス_1145" data-name="パス 1145" d="M10.925-16.8H4.35a19.262,19.262,0,0,1-2.25-.1,19.571,19.571,0,0,1,.1,2.175v7.65a18.736,18.736,0,0,1-.125,2.5h2.95v-1.5h5.9V-1a20.96,20.96,0,0,1-.175,3.1h3.2A19.666,19.666,0,0,1,13.775-1V-6.075h6.2v1.5h2.95a17.206,17.206,0,0,1-.125-2.5V-14.7a18.354,18.354,0,0,1,.1-2.2,17.879,17.879,0,0,1-2.275.1h-6.85v-1.625a18.33,18.33,0,0,1,.15-2.625h-3.15a16.208,16.208,0,0,1,.15,2.725Zm0,2.65v5.425h-5.9V-14.15Zm2.85,5.425V-14.15h6.2v5.425Zm57.25-7.625v1.4H66.1a17.526,17.526,0,0,1-2.725-.125,23.861,23.861,0,0,1,.1,2.575v4.6c-.025,1.725-.025,1.725-.025,1.825a3.257,3.257,0,0,0-.075.725A19.066,19.066,0,0,1,66.2-5.475h2.7A14.839,14.839,0,0,1,65.325-2.9a20.932,20.932,0,0,1-4.7,1.85,10.683,10.683,0,0,1,1.4,2.525A25.94,25.94,0,0,0,66.3-.45,16.278,16.278,0,0,0,71.075-4.4c-.025.475-.05,1.4-.05,1.7V-.9a20.045,20.045,0,0,1-.175,2.85h3.075A15.312,15.312,0,0,1,73.75-.9V-2.7c0-.425-.025-.9-.05-1.725a16.208,16.208,0,0,0,4.375,3.6A26.177,26.177,0,0,0,83.2,1.45,16.526,16.526,0,0,1,84.625-1.2,17.629,17.629,0,0,1,75.95-5.475h3a19.737,19.737,0,0,1,2.8.125,19.7,19.7,0,0,1-.1-2.55v-4.625c0-.95.025-1.775.1-2.525a24.2,24.2,0,0,1-2.775.1H73.75v-1.4h7a26.711,26.711,0,0,1,3.1.15v-2.75a20.945,20.945,0,0,1-3.275.175H73.75a12.418,12.418,0,0,1,.15-2.25H70.85a14.439,14.439,0,0,1,.175,2.25h-6.6a22.009,22.009,0,0,1-3.2-.175v2.75a21.377,21.377,0,0,1,3.025-.15Zm0,3.55v1.525h-4.9V-12.8Zm2.725,0H79v1.525H73.75ZM71.025-9.2v1.575h-4.9V-9.2Zm2.725,0H79v1.575H73.75Z" transform="translate(1071 2106)" fill="#0052aa"/>
    <path id="パス_1137" data-name="パス 1137" d="M14.375-9l.075,7.475v.45a15.917,15.917,0,0,1-.15,2.4h3.4c-.075-.7-.125-1.65-.15-2.875l-.125-11.6H20a25.706,25.706,0,0,1,2.875.1v-3.025a14.215,14.215,0,0,1-2.95.175H17.4l-.05-2.025v-.15a16.04,16.04,0,0,1,.1-2.125h-3.3a18.024,18.024,0,0,1,.125,2.3l.025,2H5.65a14.528,14.528,0,0,1-3.15-.175v3.05a26.044,26.044,0,0,1,3.075-.125h6.85a23.784,23.784,0,0,1-3.35,4.125A26.606,26.606,0,0,1,1.2-3.6,7.243,7.243,0,0,1,3.275-1a36.213,36.213,0,0,0,3.7-2.3A34.418,34.418,0,0,0,11.9-7.65a15.145,15.145,0,0,0,2.55-3.5c-.025.4-.075,1.675-.075,1.8Zm36.85-6.925A4.686,4.686,0,0,1,49.3-15.5l-9.1,1.1v-3.15a12.166,12.166,0,0,1,.15-2.325H36.9a12.425,12.425,0,0,1,.15,2.375v3.425l-2.65.325a19.729,19.729,0,0,1-2.2.175c-.125,0-.325,0-.6-.025l.325,3.1a14.627,14.627,0,0,1,2.775-.475l2.35-.3V-5.55A9.587,9.587,0,0,0,37.3-2.4,3.269,3.269,0,0,0,39.45-.1,17.249,17.249,0,0,0,43.9.325,55.693,55.693,0,0,0,50.1-.1a15.117,15.117,0,0,1,1.525-.1l-.15-3.375A27.683,27.683,0,0,1,43.8-2.6c-2.55,0-3.35-.275-3.525-1.25a11.17,11.17,0,0,1-.1-2.15v-5.625c2.6-.375,5.175-.7,7.7-1,.375-.05.55-.075.95-.15-.45.75-.6.975-.95,1.475A12.625,12.625,0,0,1,43.75-7.775a8.269,8.269,0,0,1,2.5,2.025,18.228,18.228,0,0,0,6.125-7.3,6.17,6.17,0,0,1,.7-1.225Zm30.5-3.2A6.882,6.882,0,0,1,79.3-18.9H66.25a19.931,19.931,0,0,1-3.45-.2v3.125a24.031,24.031,0,0,1,3.4-.15H79.325A10.367,10.367,0,0,1,76.95-12.95a11.593,11.593,0,0,1-3.65,2.3,8.449,8.449,0,0,1,2.25,2.275,15.637,15.637,0,0,0,3-2.075,15.865,15.865,0,0,0,3.85-5.025,6.948,6.948,0,0,1,1-1.75ZM69.85-14.075a6.331,6.331,0,0,1,.125,1.5c0,4.725-.8,6.875-3.35,8.9A11.527,11.527,0,0,1,62.25-1.55,8.825,8.825,0,0,1,64.225,1.3a14.446,14.446,0,0,0,6.45-4.5c1.7-2.175,2.375-4.575,2.475-8.85a11.478,11.478,0,0,1,.1-2.025Zm24.775.1A21.566,21.566,0,0,1,97.55-14.1h9.875a21.566,21.566,0,0,1,2.925.125v-3.3a15.549,15.549,0,0,1-2.95.175H97.575a15.549,15.549,0,0,1-2.95-.175ZM92.1-1.75a24.772,24.772,0,0,1,3.15-.125H109.7a24.772,24.772,0,0,1,3.15.125V-5.1a17.448,17.448,0,0,1-3.2.175H95.3A17.448,17.448,0,0,1,92.1-5.1Zm49.625-17.375a6.882,6.882,0,0,1-2.425.225H126.25a19.931,19.931,0,0,1-3.45-.2v3.125a24.031,24.031,0,0,1,3.4-.15h13.125a10.367,10.367,0,0,1-2.375,3.175,11.593,11.593,0,0,1-3.65,2.3,8.449,8.449,0,0,1,2.25,2.275,15.637,15.637,0,0,0,3-2.075,15.865,15.865,0,0,0,3.85-5.025,6.949,6.949,0,0,1,1-1.75Zm-11.875,5.05a6.331,6.331,0,0,1,.125,1.5c0,4.725-.8,6.875-3.35,8.9A11.527,11.527,0,0,1,122.25-1.55a8.825,8.825,0,0,1,1.975,2.85,14.446,14.446,0,0,0,6.45-4.5c1.7-2.175,2.375-4.575,2.475-8.85a11.479,11.479,0,0,1,.1-2.025Zm25.8-2.3a13.977,13.977,0,0,1,1.6-.15,61.734,61.734,0,0,0,6.975-.55,48.141,48.141,0,0,1-7.675,6.15,13.034,13.034,0,0,1-1.425.2c-.5.075-.825.1-.95.125-.6.075-1.65.15-2.15.15a2.762,2.762,0,0,1-.4-.025l.3,3.05a8.532,8.532,0,0,1,1.15-.25c1.675-.25,3.025-.425,4.025-.55.7-.1,1.625-.2,2.75-.35,1.2-.15,2-.275,3.075-.475a8.57,8.57,0,0,0-2.675,1.9A4.78,4.78,0,0,0,158.9-3.9,4.686,4.686,0,0,0,162.425.475a16.319,16.319,0,0,0,4.65.7h.325c.7-.025,1.1-.025,1.275-.025.35,0,.65,0,.925.025L169.475-2a9.7,9.7,0,0,1-2.375.225c-3.225,0-5.025-.9-5.025-2.525,0-1.35,1.375-2.875,3.4-3.8a16.889,16.889,0,0,1,6.95-1.225h.75L173-12.25a4.141,4.141,0,0,1-.825.1c-.225.025-.875.075-1.775.175-.575.05-1.725.125-3.3.25-3.025.25-4.825.425-6.075.6a71.7,71.7,0,0,0,6.875-5.45,10.69,10.69,0,0,1,1.45-1.225l-1.625-2.075a8.612,8.612,0,0,1-2.35.4c-1.95.15-5.175.275-7.425.275a16.877,16.877,0,0,1-2.45-.125Zm38.8.35a5.464,5.464,0,0,1,2.525.75,6.194,6.194,0,0,1,3.075,5.55,7,7,0,0,1-3.475,6.25A13.286,13.286,0,0,1,191.6-2.1,7.975,7.975,0,0,1,193.125.825a16.344,16.344,0,0,0,3.925-1.05,9.631,9.631,0,0,0,6.075-9.325c0-5.625-3.9-9.275-9.9-9.275a11.222,11.222,0,0,0-8.6,3.5,10.739,10.739,0,0,0-2.75,7.275c0,4.025,2.05,6.925,4.9,6.925,2.05,0,3.65-1.475,5.075-4.7A36.167,36.167,0,0,0,194.45-16.025ZM191.4-16a32.948,32.948,0,0,1-2.075,8.45c-.9,2.15-1.75,3.2-2.575,3.2-1.1,0-1.975-1.625-1.975-3.675a8.37,8.37,0,0,1,3.4-6.75A6.364,6.364,0,0,1,191.4-16Zm33.25,4.275V-6.15a14.984,14.984,0,0,1-.15,2.575h2.9a15.445,15.445,0,0,1-.15-2.5v-6.5l3.05-1a41.112,41.112,0,0,1-.2,4.625c-.15,1.175-.25,1.35-.8,1.35a10.631,10.631,0,0,1-1.7-.225,8.292,8.292,0,0,1,.7,2.55c.625.05.9.075,1.375.075,1.925,0,2.55-.55,2.8-2.425.2-1.625.375-5.075.425-8.075,0-.625,0-.825.025-1.35a14.619,14.619,0,0,1-2.025.75l-3.65,1.175V-18.45a17,17,0,0,1,.15-2.425h-2.9a19.2,19.2,0,0,1,.15,2.5V-14.3l-2.575.825V-15.7a14.171,14.171,0,0,1,.15-2.55h-2.95a15.94,15.94,0,0,1,.15,2.65v2.95a14.385,14.385,0,0,1-2.175.5l.225,2.85a11.622,11.622,0,0,1,1.45-.575c.1-.025.275-.075.5-.15V-1.15c0,2,1.175,2.5,5.85,2.5,4.55,0,6.225-.225,7.175-.9.775-.6,1.1-1.575,1.4-4.425a11.388,11.388,0,0,1-2.725-.8A18.964,18.964,0,0,1,230.95-2.8a1.735,1.735,0,0,1-.6,1.15c-.55.375-1.625.475-4.45.475a13.877,13.877,0,0,1-3.15-.2c-.55-.125-.675-.275-.675-.775V-10.9ZM213.7-.95a25.2,25.2,0,0,1-.15,3.05h2.925c-.075-.95-.125-1.85-.125-3.025V-14.85a25.847,25.847,0,0,0,1.75-4.125c.25-.7.3-.85.5-1.425l-2.825-.85a15.546,15.546,0,0,1-.975,3.375,20.237,20.237,0,0,1-4.425,6.9,16.952,16.952,0,0,1,1.3,2.95,17.87,17.87,0,0,0,2.1-2.875c-.075,2.15-.075,2.15-.075,2.75Z" transform="translate(522 2171)" fill="#0052aa"/>
    <g transform="matrix(1, 0, 0, 1, 292.87, 1651)" filter="url(#長方形_207)">
      <rect id="長方形_207-2" data-name="長方形 207" width="447" height="72" transform="translate(444.13 15)" fill="url(#linear-gradient-2)"/>
    </g>
    <path id="パス_1126" data-name="パス 1126" d="M12.75-10.6l2.425-.775v5.3A19.014,19.014,0,0,1,15.05-3.5h2.9A18.139,18.139,0,0,1,17.8-6v-6.225l2.875-.9c-.075,2.425-.175,3.975-.3,4.8-.1.525-.25.625-.875.625a6.911,6.911,0,0,1-1.4-.2,7.46,7.46,0,0,1,.675,2.575c.625.05.85.05,1.175.05,1.825,0,2.5-.425,2.825-1.85A46.156,46.156,0,0,0,23.325-14c.05-1.35.075-1.525.125-2.625a15.285,15.285,0,0,1-2.05.75L17.8-14.75v-3.5a20.581,20.581,0,0,1,.15-2.55h-2.9a17.846,17.846,0,0,1,.125,2.5v4.35l-2.425.775V-15.9a19.183,19.183,0,0,1,.15-2.55H9.95a15.94,15.94,0,0,1,.15,2.65v3.425l-.225.075a14.97,14.97,0,0,1-2.425.55l.625,2.725A13.5,13.5,0,0,1,9.6-9.6c.1-.025.275-.075.5-.15v8.6c0,2.2,1.1,2.675,6.15,2.675,7.125,0,7.65-.35,7.95-5.35a13.161,13.161,0,0,1-2.725-.825c0,1.7-.15,2.55-.45,2.975-.375.525-1.175.65-4.15.65a19.519,19.519,0,0,1-3.4-.175c-.55-.1-.725-.275-.725-.775ZM3.775-14.675H3.2A9.79,9.79,0,0,1,1.25-14.8v2.675A10.26,10.26,0,0,1,3.2-12.25h.575V-4.4A13.031,13.031,0,0,1,.8-3.5L1.325-.625c.375-.175.6-.275,1.3-.55A42.079,42.079,0,0,0,8.8-3.95L8.725-6.6c-1.125.575-1.4.7-2.375,1.15v-6.8h.475a11.38,11.38,0,0,1,1.75.1v-2.625a8.387,8.387,0,0,1-1.675.1H6.35v-3.2a17.646,17.646,0,0,1,.15-2.9H3.625a21.344,21.344,0,0,1,.15,2.875Zm47.2,1.775A15.217,15.217,0,0,1,49.6-8.4a49.46,49.46,0,0,1-.725-6.55h1.85c1.05,0,2.05.05,2.75.125v-2.75c-.6.075-1.1.1-1.825.125l1.625-1.375A11.532,11.532,0,0,0,50.65-20.95L49.025-19.7a10.384,10.384,0,0,1,2.525,2.25H48.8c0-.3.025-.775.025-.8a16.831,16.831,0,0,1,.125-2.625H46.075a15.918,15.918,0,0,1,.15,2.2c0,.275,0,.525.025,1.225H40.6a21.25,21.25,0,0,1-2.9-.15v2.775c.675-.075,1.75-.125,2.825-.125H46.35A44.22,44.22,0,0,0,47.725-5.1,16.773,16.773,0,0,1,46.1-3.05v-2.2a55.576,55.576,0,0,1-8.95,1.7c.35-.175.475-.25.9-.5v-2.7c-.925.525-1.25.7-2.05,1.1v-6.075h.2a16.682,16.682,0,0,1,1.75.075v-2.6a11.321,11.321,0,0,1-1.775.1H36v-3.7a17.2,17.2,0,0,1,.15-2.8H33.275a20.617,20.617,0,0,1,.15,2.8v3.7H32.9a10.415,10.415,0,0,1-1.85-.125v2.65a13.607,13.607,0,0,1,1.825-.1h.55v7.25A16.188,16.188,0,0,1,30.7-3.55l.6,2.9c.25-.15.35-.2.575-.325C34.4-2.15,35.05-2.45,36.85-3.4l.425,2.6c.4-.125,1.4-.35,2.6-.6A55.845,55.845,0,0,0,45.95-2.9a21.467,21.467,0,0,1-4.325,3,6.7,6.7,0,0,1,2,2.025A19.447,19.447,0,0,0,48.65-2.25c1.075,2.7,2.325,4.175,3.55,4.175A1.529,1.529,0,0,0,53.475,1.1a10.1,10.1,0,0,0,1-4.125,6.368,6.368,0,0,1-1.95-1.625c-.15,1.775-.375,3.15-.575,3.15A12.571,12.571,0,0,1,50.5-4.9a37.076,37.076,0,0,0,2.825-6.325c.075-.225.125-.375.125-.4a4.992,4.992,0,0,1,.225-.525ZM38.75-7.375a14.833,14.833,0,0,1-.075,1.525,11.944,11.944,0,0,1,1.55-.075h3.75a14.459,14.459,0,0,1,1.575.075c-.025-.225-.05-.975-.05-1.525V-12.25a6.722,6.722,0,0,1,.05-1.075,12.278,12.278,0,0,1-1.425.075H40.3a13.019,13.019,0,0,1-1.625-.075c.025.375.075,1.075.075,1.575ZM41-11h2.225v2.8H41ZM70.275-7.075a30.453,30.453,0,0,1-.375,5.4c-.1.5-.375.675-1.075.675A17.062,17.062,0,0,1,66.2-1.25a7.794,7.794,0,0,1,.625,2.75c1.1.1,1.675.125,2.225.125,2.15,0,2.825-.375,3.25-1.725a34.628,34.628,0,0,0,.625-7.75c.025-1,.025-1.25.075-1.75a15.778,15.778,0,0,1-2.375.125h-3.45c.05-.95.075-1.075.1-2.425H69.9c1.425,0,2.325.025,3.15.1a18.763,18.763,0,0,1-.1-2.6v-3.25a26.354,26.354,0,0,1,.1-2.65,22.061,22.061,0,0,1-3.075.125h-5.05A25.054,25.054,0,0,1,61.8-20.3c.075.95.1,1.475.1,2.75v3.025c0,1.275-.025,1.85-.1,2.725a25.061,25.061,0,0,1,2.775-.1,29.326,29.326,0,0,1-.425,4.825C63.6-3.95,62.725-2.25,60.7-.5a7.7,7.7,0,0,1,1.875,2.45,12.69,12.69,0,0,0,2.9-3.925,16.871,16.871,0,0,0,1.425-5.1ZM64.55-17.825h5.8v3.575h-5.8Zm10.4-1.7a23.017,23.017,0,0,1,.15,3.05v9.5a19.178,19.178,0,0,1-.125,2.925H77.85a20.837,20.837,0,0,1-.125-2.975v-9.45a19.363,19.363,0,0,1,.15-3.05Zm5.4-1.275a29.737,29.737,0,0,1,.175,3.4V-1.775c0,.6-.25.75-1.2.75a31.109,31.109,0,0,1-3.4-.25,11.07,11.07,0,0,1,.85,2.8c1.175.05,1.525.075,2.075.075,3.65,0,4.35-.5,4.35-3.025V-17.4a26.144,26.144,0,0,1,.175-3.4Zm14.425,2.125H93.4a13.361,13.361,0,0,1-2.2-.125v2.45a18.09,18.09,0,0,1,2.2-.1h1.375v1.575h-1.35c-.95-.025-1.55-.075-1.775-.075a23.784,23.784,0,0,1,.1,2.6v4.125c0,1.175-.025,2-.1,2.8.9-.05,1.475-.075,2.625-.075h.5v1.65h-1.5a13.507,13.507,0,0,1-2.225-.125v2.5A13.693,13.693,0,0,1,93.275-1.6h1.5V-.25a14.763,14.763,0,0,1-.15,2.35h2.6a14.716,14.716,0,0,1-.15-2.25V-1.6H98.2a13.027,13.027,0,0,1,2.075.125v-2.5A11.418,11.418,0,0,1,98.2-3.85H97.075V-5.5h.675c1.5.025,1.5.025,1.6.025.475.025.475.025.725.05-.05-.65-.075-1.2-.075-2.65V-12.55c0-1.225,0-1.475.05-2.1a8.031,8.031,0,0,1,1,1.525,15.113,15.113,0,0,0,2.25-1.6V-13.3a13.914,13.914,0,0,1,1.95-.1h3.525a13.753,13.753,0,0,1,1.925.1v-1.5a14.68,14.68,0,0,0,2.325,1.475,17.712,17.712,0,0,1,1.45-2.375,14.355,14.355,0,0,1-3.625-2.075,10.831,10.831,0,0,1-2.725-3.025h-2.75c-1.025,2.175-2.925,3.95-5.875,5.55l.325.35c-.55.025-.775.025-1.375.025H97.075V-16.45h1.1c1.15,0,1.525.025,2.2.075V-18.8a13,13,0,0,1-2.2.125h-1.1v-.55a10.873,10.873,0,0,1,.15-1.85h-2.6a11.54,11.54,0,0,1,.15,1.85Zm.125,5.85v1.675H93.775v-1.675Zm0,3.5V-7.55H93.775V-9.325ZM97.025-7.55V-9.325h1.1V-7.55Zm0-3.6v-1.675h1.1v1.675Zm8.225-4.375c-.35,0-.55,0-1-.025a16.312,16.312,0,0,0,2.55-2.975,15.631,15.631,0,0,0,2.925,2.975c-.425.025-.65.025-.95.025Zm-2.225,12.5h1.9v2.2c0,.35-.1.45-.4.45A5.947,5.947,0,0,1,103.5-.5a7.823,7.823,0,0,1,.425,2.325,4.464,4.464,0,0,0,.525.025c2.025,0,2.525-.4,2.525-2.025v-9.6c0-1,.025-1.675.075-2.25a16.116,16.116,0,0,1-1.8.075H102.7a16.116,16.116,0,0,1-1.8-.075c.05.725.075,1.3.075,2.225V-.2a21.038,21.038,0,0,1-.125,2.25h2.3a18.83,18.83,0,0,1-.125-2.225Zm0-1.925V-6.525h1.9V-4.95Zm0-3.5v-1.5h1.9v1.5Zm4.925-3.2a16.188,16.188,0,0,1,.1,2v5a18.822,18.822,0,0,1-.1,2.15h2.25a17.211,17.211,0,0,1-.1-2.15V-9.675a14.54,14.54,0,0,1,.1-1.975Zm5.425,2.05a21.247,21.247,0,0,1,.15-2.775h-2.45a19.89,19.89,0,0,1,.125,2.7v8.45c0,.6-.15.725-.825.725a8.864,8.864,0,0,1-1.9-.225,7.7,7.7,0,0,1,.525,2.5c.65.05.975.075,1.425.075,2.425,0,2.95-.45,2.95-2.575Zm17.55-3.325h-4.95v-4.05a14.706,14.706,0,0,1,.1-2h-3a13.925,13.925,0,0,1,.125,2.2v4.95c0,.575-.025,1.05-.075,1.6.6-.05,1.125-.075,1.8-.075h6v8.2H125.05V-6.15a12.352,12.352,0,0,1,.125-2.15H122.15a20.779,20.779,0,0,1,.125,2.4V-.6a18.139,18.139,0,0,1-.15,2.5h2.925V.6h14.875V1.9h2.925a15.785,15.785,0,0,1-.15-2.5V-6a19.988,19.988,0,0,1,.125-2.375H139.8a13.3,13.3,0,0,1,.125,2.125V-2.1H133.75v-8.2h6.45c.6,0,1.2.025,1.75.075a13.7,13.7,0,0,1-.075-1.6V-16.8A14.37,14.37,0,0,1,142-18.975h-3A15.019,15.019,0,0,1,139.1-17v4.075h-5.35V-18.4a16.091,16.091,0,0,1,.15-2.475h-3.125a15.009,15.009,0,0,1,.15,2.475ZM161-17.125a19.756,19.756,0,0,1-.825,5.05,18.507,18.507,0,0,1-4.275,7.4A19.748,19.748,0,0,1,150.875-.75a7.012,7.012,0,0,1,2.05,2.625,24.975,24.975,0,0,0,6.2-5.65,20.971,20.971,0,0,0,3.575-7.55,16.159,16.159,0,0,0,1.275,3.55,19.038,19.038,0,0,0,2.2,3.7A25.192,25.192,0,0,0,172.25,1.8a10.61,10.61,0,0,1,2.125-2.825,17.891,17.891,0,0,1-3.7-2.7,20.225,20.225,0,0,1-4-4.8,19.356,19.356,0,0,1-2.675-9.9A11.8,11.8,0,0,1,164.075-20a13.622,13.622,0,0,1-2.275.125h-3.975a15.222,15.222,0,0,1-2.35-.125v3c.975-.075,1.725-.125,2.4-.125Zm23.775-.2a29.351,29.351,0,0,1,6.675,3.45l1.6-2.75a40.089,40.089,0,0,0-6.65-3.225ZM182.8-11.25a29.24,29.24,0,0,1,6.775,3.675l1.55-2.825a35.342,35.342,0,0,0-6.65-3.4ZM184.225.8a16.147,16.147,0,0,1,1.75-.4c6.15-1.225,10.4-3.45,13.575-7.1a21.823,21.823,0,0,0,3.75-6.325,12.909,12.909,0,0,1-2.6-2.225,18.5,18.5,0,0,1-2.9,5.525,15.282,15.282,0,0,1-7.225,5.5A22.881,22.881,0,0,1,183.35-2.6ZM223.85-10.275h3.575a16.9,16.9,0,0,1,2.275.1V-13a11.616,11.616,0,0,1-2.3.175h-9.825A11.508,11.508,0,0,1,215.3-13v2.875a13.68,13.68,0,0,1,2.3-.15h3.35v8.05h-4.9a11.291,11.291,0,0,1-2.3-.15v2.8a19.031,19.031,0,0,1,2.325-.1H228.95a19.561,19.561,0,0,1,2.325.1v-2.8a11.417,11.417,0,0,1-2.325.15h-5.1Zm37.875-8.85a6.882,6.882,0,0,1-2.425.225H246.25a19.931,19.931,0,0,1-3.45-.2v3.125a24.031,24.031,0,0,1,3.4-.15h13.125a10.368,10.368,0,0,1-2.375,3.175,11.593,11.593,0,0,1-3.65,2.3,8.449,8.449,0,0,1,2.25,2.275,15.637,15.637,0,0,0,3-2.075,15.865,15.865,0,0,0,3.85-5.025,6.948,6.948,0,0,1,1-1.75Zm-11.875,5.05a6.331,6.331,0,0,1,.125,1.5c0,4.725-.8,6.875-3.35,8.9A11.527,11.527,0,0,1,242.25-1.55a8.825,8.825,0,0,1,1.975,2.85,14.446,14.446,0,0,0,6.45-4.5c1.7-2.175,2.375-4.575,2.475-8.85a11.479,11.479,0,0,1,.1-2.025Z" transform="translate(828 1711.136)" fill="#fff"/>
    <line id="線_41" data-name="線 41" x2="173" transform="translate(672.5 1790.5)" fill="none" stroke="#0052aa" stroke-width="3"/>
    <line id="線_42" data-name="線 42" x2="173" transform="translate(1224.5 1790.5)" fill="none" stroke="#0052aa" stroke-width="3"/>
  </g>
</svg>
