<svg xmlns="http://www.w3.org/2000/svg" xmlns:xlink="http://www.w3.org/1999/xlink" width="426.132" height="355.989" viewBox="0 0 426.132 355.989">
  <defs>
    <linearGradient id="linear-gradient" y1="0.5" x2="1" y2="0.5" gradientUnits="objectBoundingBox">
      <stop offset="0" stop-color="#03a8e5"/>
      <stop offset="1" stop-color="#012869"/>
    </linearGradient>
    <filter id="パス_301" x="0" y="0" width="426.132" height="355.989" filterUnits="userSpaceOnUse">
      <feOffset dx="10" dy="10" input="SourceAlpha"/>
      <feGaussianBlur stdDeviation="15" result="blur"/>
      <feFlood flood-opacity="0.161"/>
      <feComposite operator="in" in2="blur"/>
      <feComposite in="SourceGraphic"/>
    </filter>
    <linearGradient id="linear-gradient-2" x1="-0.03" xlink:href="#linear-gradient"/>
    <filter id="長方形_213" x="20.132" y="32.069" width="325" height="67" filterUnits="userSpaceOnUse">
      <feOffset input="SourceAlpha"/>
      <feGaussianBlur stdDeviation="5" result="blur-2"/>
      <feFlood flood-color="#013778" flood-opacity="0.322"/>
      <feComposite operator="in" in2="blur-2"/>
      <feComposite in="SourceGraphic"/>
    </filter>
  </defs>
  <g id="出張回数" transform="translate(-291.868 -2769.136)">
    <g id="グループ_256" data-name="グループ 256" transform="translate(326.868 2804.136)">
      <g transform="matrix(1, 0, 0, 1, -35, -35)" filter="url(#パス_301)">
        <path id="パス_301-2" data-name="パス 301" d="M0,0H336.132V265.989H0Z" transform="translate(35 35)" fill="url(#linear-gradient)"/>
      </g>
      <path id="パス_302" data-name="パス 302" d="M0,0H328.132V257.989H0Z" transform="translate(4 4)" fill="#edf9ff"/>
      <text id="_1回_18_" data-name="1回：18％" transform="translate(235.132 217)" fill="#0052aa" font-size="13" font-family="DINCondensed-Bold, DIN Condensed" font-weight="700" letter-spacing="0.1em"><tspan x="0" y="0">1</tspan><tspan y="0" font-family="HiraginoSans-W6, Hiragino Sans" font-weight="400">回：</tspan><tspan y="0" font-size="41">18</tspan><tspan y="0" font-family="HiraginoSans-W6, Hiragino Sans" font-weight="400">％</tspan></text>
      <text id="_10回以上_18_" data-name="10回以上：18％" transform="translate(26.132 85)" fill="#0052aa" font-size="13" font-family="DINCondensed-Bold, DIN Condensed" font-weight="700" letter-spacing="0.1em"><tspan x="0" y="0">10</tspan><tspan y="0" font-family="HiraginoSans-W6, Hiragino Sans" font-weight="400">回以上：</tspan><tspan y="0" font-size="38">18</tspan><tspan y="0" font-family="HiraginoSans-W6, Hiragino Sans" font-weight="400">％</tspan></text>
      <path id="パス_847" data-name="パス 847" d="M4053.45,3015h112.764l12.868,12.868" transform="translate(-4027.979 -2923.247)" fill="none" stroke="#0052aa" stroke-width="1"/>
      <path id="パス_850" data-name="パス 850" d="M4494.919,3311l8.885,14.133H4601.8" transform="translate(-4277.585 -3097.535)" fill="none" stroke="#0052aa" stroke-width="1"/>
    </g>
    <path id="飛行機" d="M316.988,1715.2s-7.526,3.951-10.6,4.83l-1.129,6.46-1.13.5-2.571-5.833s-1.944.313-1.944,0c0,0,.627-1.191,1.191-1.191l-5.958-5.645,1.317-.753,4.641,1.756s3.576-.126,4.83.439a25.016,25.016,0,0,1,4.641-2.76l7.338-3.763-1.129-1.443-.5-.063.251-.439-.439-.627.314-.439-1.129-.941-.438.376-1.631-1.505-.564.125.063-.439-2.76-2.321-.689-.125.251-.377-1.631-.941.251-.564L302.877,1696a10.507,10.507,0,0,1,2.2-1l16.119,7.275s2.384-1.944,3.575-1.944c0,0,1.38,1,1.129,2.132,0,0-1.191,1.192-1.693,1.192l2.133.627,11.477-5.77c1.766-.888,3.29-1.616,5.3-1.359,1.09.14,3.066.144,1.693,1.516,0,0-2.226,3.167-4.359,3.919l-8.969,4.7s-1.693,1.129-1.693,2.383l-.188,3.2a14.323,14.323,0,0,1,2.822-1.505,1.976,1.976,0,0,1,1.255,2.321s-2.916,2.227-3.387,1.756c0,0-1.067-.063-1.067.5l-1.129,11.6-1.882,1-.69-3.889-.689-1.505-.439.251.251-.628-.628-2.759-.439.25.376-.878-.439-1.317.5-.314-.314-.627-.314-.565-.5.251-.439-.376.063-.251-1.442-2.634a16.1,16.1,0,0,0-3.889,1.442" transform="translate(191.479 1248.059)" fill="#69c5ea"/>
    <g transform="matrix(1, 0, 0, 1, 291.87, 2769.14)" filter="url(#長方形_213)">
      <rect id="長方形_213-2" data-name="長方形 213" width="295" height="37" transform="translate(35.13 47.07)" fill="url(#linear-gradient-2)"/>
    </g>
    <text id="営業職の2019年における海外出張の回数" transform="translate(347.72 2837.562)" fill="#fff" font-size="12" font-family="HiraginoSans-W6, Hiragino Sans" letter-spacing="0.2em"><tspan x="0" y="0">営業職の</tspan><tspan y="0" font-family="DINCondensed-Bold, DIN Condensed" font-weight="700">2019</tspan><tspan y="0">年における海外出張の回数</tspan></text>
    <g id="円グラフ" transform="translate(439.791 2885.992)">
      <path id="パス_857" data-name="パス 857" d="M2060.98,3229.157a43.62,43.62,0,0,1,40.754-25.963h0v-26.712c-28.5,0-52.918,15.554-64.964,41.386l24.21,11.289Z" transform="translate(-2029.832 -3176.482)" fill="#0052aa"/>
      <path id="パス_858" data-name="パス 858" d="M2014.36,3528.1c-3.785-11.65-3.165-21.8,2.013-32.9l-24.21-11.289c-8.031,17.222-9.079,34.371-3.207,52.443l25.4-8.255Z" transform="translate(-1985.223 -3442.522)" fill="#0095d8"/>
      <path id="パス_859" data-name="パス 859" d="M2081.116,3843.222a43.856,43.856,0,0,1-42.766-31.071l-25.405,8.255c9.786,30.12,36.5,49.529,68.171,49.529v-26.712Z" transform="translate(-2009.213 -3726.575)" fill="#43beff"/>
      <path id="パス_860" data-name="パス 860" d="M2560.088,3850.1a43.619,43.619,0,0,1-40.754,25.963v26.712c28.5,0,52.917-15.554,64.963-41.386l-24.209-11.289Z" transform="translate(-2447.431 -3759.413)" fill="#81cff8"/>
      <path id="パス_861" data-name="パス 861" d="M2519.334,3176.482v26.712a44.967,44.967,0,0,1,44.967,44.967,41.251,41.251,0,0,1-4.213,19l24.209,11.289a67.779,67.779,0,0,0,6.716-30.292A71.679,71.679,0,0,0,2519.334,3176.482Z" transform="translate(-2447.431 -3176.482)" fill="#bdebfc"/>
    </g>
    <text id="_0回_32_" data-name="0回：32％" transform="translate(562 2893.204)" fill="#0052aa" font-size="10" font-family="DINCondensed-Bold, DIN Condensed" font-weight="700" letter-spacing="0.1em"><tspan x="0" y="0">0</tspan><tspan y="0" font-family="HiraginoSans-W6, Hiragino Sans" font-weight="400">回：</tspan><tspan y="0" font-size="25">32</tspan><tspan y="0" font-family="HiraginoSans-W6, Hiragino Sans" font-weight="400">％</tspan></text>
    <text id="_2_5回_20_" data-name="2～5回：20％" transform="translate(344 3033.204)" fill="#0052aa" font-size="14" font-family="DINCondensed-Bold, DIN Condensed" font-weight="700" letter-spacing="0.1em"><tspan x="0" y="0">2</tspan><tspan y="0" font-family="HiraginoSans-W6, Hiragino Sans" font-weight="400">～</tspan><tspan y="0">5</tspan><tspan y="0" font-family="HiraginoSans-W6, Hiragino Sans" font-weight="400">回：</tspan><tspan y="0" font-size="42">20</tspan><tspan y="0" font-family="HiraginoSans-W6, Hiragino Sans" font-weight="400">％</tspan></text>
    <text id="_6_9回_12_" data-name="6～9回：12％" transform="translate(344 2945.204)" fill="#0052aa" font-size="10" font-family="DINCondensed-Bold, DIN Condensed" font-weight="700" letter-spacing="0.1em"><tspan x="0" y="0">6</tspan><tspan y="0" font-family="HiraginoSans-W6, Hiragino Sans" font-weight="400">～</tspan><tspan y="0">9</tspan><tspan y="0" font-family="HiraginoSans-W6, Hiragino Sans" font-weight="400">回：</tspan><tspan y="0" font-size="31">12</tspan><tspan y="0" font-family="HiraginoSans-W6, Hiragino Sans" font-weight="400">％</tspan></text>
    <path id="パス_848" data-name="パス 848" d="M4009.755,3128.625h90.826l15.406-9" transform="translate(-3669.879 -172.934)" fill="none" stroke="#0052aa" stroke-width="1"/>
    <path id="パス_849" data-name="パス 849" d="M4085.9,3334.388h127.614l15.835-25.909" transform="translate(-3745.962 -288.571)" fill="none" stroke="#0052aa" stroke-width="1"/>
    <path id="パス_851" data-name="パス 851" d="M4505.88,3045.687l9.208-14.052h72.764" transform="translate(-3957.062 -131.688)" fill="none" stroke="#0052aa" stroke-width="1"/>
  </g>
</svg>
