<svg xmlns="http://www.w3.org/2000/svg" xmlns:xlink="http://www.w3.org/1999/xlink" width="888.132" height="721.58" viewBox="0 0 888.132 721.58">
  <defs>
    <linearGradient id="linear-gradient" y1="0.5" x2="1" y2="0.5" gradientUnits="objectBoundingBox">
      <stop offset="0" stop-color="#03a8e5"/>
      <stop offset="1" stop-color="#012869"/>
    </linearGradient>
    <filter id="パス_301" x="0" y="0" width="888.132" height="721.58" filterUnits="userSpaceOnUse">
      <feOffset dx="10" dy="10" input="SourceAlpha"/>
      <feGaussianBlur stdDeviation="15" result="blur"/>
      <feFlood flood-opacity="0.161"/>
      <feComposite operator="in" in2="blur"/>
      <feComposite in="SourceGraphic"/>
    </filter>
    <linearGradient id="linear-gradient-2" x1="-0.03" xlink:href="#linear-gradient"/>
    <filter id="長方形_213" x="21.132" y="47.864" width="662" height="119" filterUnits="userSpaceOnUse">
      <feOffset input="SourceAlpha"/>
      <feGaussianBlur stdDeviation="5" result="blur-2"/>
      <feFlood flood-color="#013778" flood-opacity="0.322"/>
      <feComposite operator="in" in2="blur-2"/>
      <feComposite in="SourceGraphic"/>
    </filter>
  </defs>
  <g id="出張回数" transform="translate(-291.868 -2769.136)">
    <g id="グループ_256" data-name="グループ 256" transform="translate(-201.485 431.07)">
      <g transform="matrix(1, 0, 0, 1, 493.35, 2338.07)" filter="url(#パス_301)">
        <path id="パス_301-2" data-name="パス 301" d="M0,0H798.132V631.58H0Z" transform="translate(35 35)" fill="url(#linear-gradient)"/>
      </g>
      <path id="パス_302" data-name="パス 302" d="M0,0H790.132V623.58H0Z" transform="translate(532.353 2377.066)" fill="#edf9ff"/>
    </g>
    <path id="飛行機" d="M347.418,1742.954s-17.871,9.383-25.168,11.467l-2.68,15.338-2.682,1.192-6.1-13.85s-4.617.744-4.617,0c0,0,1.488-2.829,2.829-2.829l-14.146-13.4,3.127-1.787,11.019,4.17s8.491-.3,11.469,1.042c0,0,7.3-5.362,11.019-6.553l17.424-8.935-2.682-3.426-1.19-.149.6-1.042-1.043-1.489.745-1.043-2.682-2.234-1.041.894-3.874-3.575-1.339.3.149-1.042-6.554-5.511-1.637-.3.6-.894-3.874-2.234.6-1.34-11.764-8.34s4.17-2.383,5.213-2.383l38.273,17.275s5.66-4.617,8.489-4.617c0,0,3.276,2.382,2.68,5.063,0,0-2.829,2.83-4.021,2.83l5.064,1.489,27.252-13.7c4.192-2.107,7.813-3.838,12.585-3.227,2.588.332,7.28.341,4.021,3.6,0,0-5.286,7.519-10.35,9.306l-21.3,11.169s-4.021,2.68-4.021,5.659l-.447,7.6s5.509-3.575,6.7-3.575a4.691,4.691,0,0,1,2.98,5.511s-6.923,5.287-8.042,4.17c0,0-2.533-.15-2.533,1.191l-2.68,27.551-4.468,2.383-1.639-9.234-1.637-3.574-1.043.6.6-1.49-1.49-6.552-1.043.595.894-2.085-1.043-3.127,1.192-.745-.745-1.489-.745-1.341-1.19.6-1.043-.893.149-.6-3.425-6.255a38.234,38.234,0,0,0-9.234,3.425" transform="translate(410.651 1439.006)" fill="#69c5ea"/>
    <g transform="matrix(1, 0, 0, 1, 291.87, 2769.14)" filter="url(#長方形_213)">
      <rect id="長方形_213-2" data-name="長方形 213" width="632" height="89" transform="translate(36.13 62.86)" fill="url(#linear-gradient-2)"/>
    </g>
    <path id="パス_1152" data-name="パス 1152" d="M4.4-17.75c-1.125,0-1.825-.025-2.65-.1a22.422,22.422,0,0,1,.1,2.275V-13.6a16.317,16.317,0,0,1-.125,1.95h2.75v-3.775h16.1v3.775h2.75a15.77,15.77,0,0,1-.1-1.975v-2A18.8,18.8,0,0,1,23.3-17.85a25.336,25.336,0,0,1-2.675.1h-1.5c.475-.7,1.225-1.925,1.65-2.7l-2.9-.65A17.116,17.116,0,0,1,16.1-17.75H14.3a33.2,33.2,0,0,0-1.525-3.325l-2.8.45a23.07,23.07,0,0,1,1.4,2.875h-2.3A23.273,23.273,0,0,0,7.2-20.85l-2.75.575a13.463,13.463,0,0,1,1.6,2.525ZM10.675-7.725A10.057,10.057,0,0,1,9.75-5.95H5.625A19.031,19.031,0,0,1,3.3-6.05a19.068,19.068,0,0,1,.125,2.375v3.25c0,.85-.05,1.625-.125,2.475H6.075V1.075H18.9V2.05h2.825A16.259,16.259,0,0,1,21.6-.4V-3.65a18.854,18.854,0,0,1,.1-2.4,18.655,18.655,0,0,1-2.375.1h-6.65a16.474,16.474,0,0,0,.85-1.775h3.55a25.82,25.82,0,0,1,2.625.1,15.877,15.877,0,0,1-.075-2.25v-2.3A12.663,12.663,0,0,1,19.7-14.15a12.907,12.907,0,0,1-1.825.1H7.225a13.826,13.826,0,0,1-1.9-.1,12.712,12.712,0,0,1,.1,1.9v2.375a17.441,17.441,0,0,1-.1,2.25,23.14,23.14,0,0,1,2.625-.1ZM8.025-11.95H17v2.125H8.025Zm-1.95,8.2h12.85v2.425H6.075ZM41-11v1.2H36.05a17.752,17.752,0,0,1-2.55-.125v2.25A17.966,17.966,0,0,1,36.05-7.8H41v1.25H34.375a23.206,23.206,0,0,1-3-.15v2.5A27.481,27.481,0,0,1,34.4-4.35h4.65A17.972,17.972,0,0,1,30.875-.8,10.233,10.233,0,0,1,32.4,1.6,24.187,24.187,0,0,0,37.5-.5a13.9,13.9,0,0,0,3.6-2.75,16.833,16.833,0,0,0-.075,1.7v1.2a18.659,18.659,0,0,1-.15,2.55h2.95A14.224,14.224,0,0,1,43.65-.325V-1.55a17.112,17.112,0,0,0-.075-1.775c2.25,2.275,5.075,3.8,9.275,4.95a9.9,9.9,0,0,1,1.425-2.55,21.457,21.457,0,0,1-5.2-1.425,12.978,12.978,0,0,1-3.4-2H50.7a27.007,27.007,0,0,1,3,.15V-6.7a22.081,22.081,0,0,1-3.025.15H43.7V-7.8h5.225a18.352,18.352,0,0,1,2.575.125v-2.25a18.136,18.136,0,0,1-2.575.125H43.7V-11h6.525a18.352,18.352,0,0,1,2.575.125V-13.25a22.99,22.99,0,0,1-2.575.1h-2.9c.35-.625.45-.85.925-1.85h2.5c1.225,0,2.2.05,2.975.125v-2.5a20.272,20.272,0,0,1-2.825.15h-.7c.55-.775.95-1.4,1.55-2.4l-2.575-.95a13.34,13.34,0,0,1-1.8,3.35H45.8V-19a13.126,13.126,0,0,1,.125-1.95H43.2a17.806,17.806,0,0,1,.075,1.85v1.875H41.5V-19.1a16.837,16.837,0,0,1,.075-1.85H38.85A13.9,13.9,0,0,1,38.975-19v1.775H37.55A17.675,17.675,0,0,0,35.625-20.5l-2.5.95a10.567,10.567,0,0,1,1.7,2.325h-.8a21.185,21.185,0,0,1-2.85-.15v2.5c.8-.075,1.75-.125,2.975-.125h2.7c.275.475.55,1.05.925,1.85H34.75a22.707,22.707,0,0,1-2.575-.1v2.375A18.57,18.57,0,0,1,34.75-11Zm-.575-2.15a15.957,15.957,0,0,0-.75-1.85h5.7a14.58,14.58,0,0,1-.825,1.85Zm36.4-5.675a15.31,15.31,0,0,1-1.775.075h-.9v-.15a10.816,10.816,0,0,1,.125-2.025H71.6a10.26,10.26,0,0,1,.15,2.025v.15h-1.2a9.486,9.486,0,0,1-1.55-.1v-1.525a11.98,11.98,0,0,1-2.175.125H62.9a13.929,13.929,0,0,1-2.1-.125v2.65a9.853,9.853,0,0,1,1.1-.1V-3.9a7.221,7.221,0,0,1-1.375.2L61.1-1a9.646,9.646,0,0,1,1.675-.5c.875-.25,2.05-.625,3.15-.975V-.6A24.551,24.551,0,0,1,65.8,2.075h2.525A18.022,18.022,0,0,1,68.2-.575V-11.65h9.275a34.962,34.962,0,0,0,1,7.45A21.8,21.8,0,0,1,76.5-2V-8.425c0-1.275,0-1.65.05-2.225a15.452,15.452,0,0,1-1.625.075H70.95a11.1,11.1,0,0,1-1.575-.075c.05.825.075,1.125.075,2.225V-1.65c0,.825-.05,1.45-.1,2.175H71.6V-1.1h3.825a19.284,19.284,0,0,1-1.7,1.2A7.392,7.392,0,0,1,75.3,2.025a21.327,21.327,0,0,0,4.025-3.7C80.2.35,81.375,1.55,82.425,1.55A1.728,1.728,0,0,0,83.975.4,12.526,12.526,0,0,0,84.7-3.25,8.973,8.973,0,0,1,82.725-4.6c-.075,1.975-.25,3.15-.425,3.15-.05,0-.15-.125-.375-.525a11.027,11.027,0,0,1-.85-2.05A29.076,29.076,0,0,0,83.2-8.15c.2-.45.4-.9.55-1.2l-2.025-1.275a16.492,16.492,0,0,1-1.4,3.55c-.2-1.3-.35-2.625-.475-4.575h1.375a20.621,20.621,0,0,1,2.8.125V-14.15a15.63,15.63,0,0,1-2.8.15h-1.45c-.025-.75-.05-2.825-.05-3.7a19.224,19.224,0,0,1,.125-3.175h-2.6a15.51,15.51,0,0,1,.075,1.8c.025,3.325.025,3.325.075,5.075h-2a20.211,20.211,0,0,0,.625-2.675,6.807,6.807,0,0,1,.8.05ZM73.95-16.7A17.685,17.685,0,0,1,73.4-14H72.35c-.125-1.075-.275-1.975-.425-2.7ZM68.2-14v-3.825c.3.025.4.025.75.05v1.15c.375-.05.475-.05.85-.075.25,1.025.425,1.95.55,2.7Zm-4-3.825h1.725V-14.9H64.2Zm0,5.15h1.725V-10H64.2Zm0,4.9h1.725V-4.9c-.675.2-.9.275-1.725.475ZM71.6-8.5h2.8v1.6H71.6Zm-.025,3.55H74.4v1.775H71.575ZM80.2-18.925a13.134,13.134,0,0,1,1.85,3.95l1.975-1.15a20.053,20.053,0,0,0-2-3.775Zm24.25,2.9a5.464,5.464,0,0,1,2.525.75,6.194,6.194,0,0,1,3.075,5.55,7,7,0,0,1-3.475,6.25A13.286,13.286,0,0,1,101.6-2.1,7.975,7.975,0,0,1,103.125.825a16.345,16.345,0,0,0,3.925-1.05,9.631,9.631,0,0,0,6.075-9.325c0-5.625-3.9-9.275-9.9-9.275a11.222,11.222,0,0,0-8.6,3.5,10.739,10.739,0,0,0-2.75,7.275c0,4.025,2.05,6.925,4.9,6.925,2.05,0,3.65-1.475,5.075-4.7A36.167,36.167,0,0,0,104.45-16.025ZM101.4-16a32.948,32.948,0,0,1-2.075,8.45c-.9,2.15-1.75,3.2-2.575,3.2-1.1,0-1.975-1.625-1.975-3.675a8.37,8.37,0,0,1,3.4-6.75A6.364,6.364,0,0,1,101.4-16ZM120.85,0V-2.4l4.6-8.675a3.167,3.167,0,0,0,.4-1.137q.05-.488.05-1.213,0-.325-.013-.687a1.668,1.668,0,0,0-.137-.637,1.184,1.184,0,0,0-.375-.463,1.194,1.194,0,0,0-.725-.187,1.26,1.26,0,0,0-.912.325,1.259,1.259,0,0,0-.338.95v1.45h-2.55v-1.4a3.767,3.767,0,0,1,.3-1.5,3.87,3.87,0,0,1,.825-1.225,3.744,3.744,0,0,1,1.2-.838,3.637,3.637,0,0,1,1.5-.312,3.738,3.738,0,0,1,1.712.363,3.416,3.416,0,0,1,1.188.988,4.305,4.305,0,0,1,.663,1.425,6.6,6.6,0,0,1,.212,1.7q0,.65-.025,1.087a6.582,6.582,0,0,1-.1.837,3.691,3.691,0,0,1-.25.8q-.175.4-.475.975L123.85-2.55h4.6V0Zm14.3-14.125a3.888,3.888,0,0,1,.313-1.6,3.744,3.744,0,0,1,.837-1.2,3.6,3.6,0,0,1,1.212-.763,4,4,0,0,1,1.438-.263,4,4,0,0,1,1.438.263,3.6,3.6,0,0,1,1.213.763,3.744,3.744,0,0,1,.837,1.2,3.888,3.888,0,0,1,.313,1.6v10.45a3.888,3.888,0,0,1-.312,1.6,3.744,3.744,0,0,1-.837,1.2,3.6,3.6,0,0,1-1.213.763A4,4,0,0,1,138.95.15a4,4,0,0,1-1.437-.263A3.6,3.6,0,0,1,136.3-.875a3.744,3.744,0,0,1-.837-1.2,3.888,3.888,0,0,1-.312-1.6Zm2.55,10.45a1.261,1.261,0,0,0,.35.912,1.2,1.2,0,0,0,.9.362,1.2,1.2,0,0,0,.9-.362,1.261,1.261,0,0,0,.35-.912v-10.45a1.261,1.261,0,0,0-.35-.912,1.2,1.2,0,0,0-.9-.363,1.2,1.2,0,0,0-.9.363,1.261,1.261,0,0,0-.35.912ZM152.475,0V-15.1l-2.55,1.875v-2.7l2.55-1.875h2.55V0Zm12.2,0,2.9-7.475-.05-.05a1,1,0,0,1-.387.163,3.067,3.067,0,0,1-.687.063,2.5,2.5,0,0,1-1.25-.325,2.537,2.537,0,0,1-.9-.825,2.185,2.185,0,0,1-.275-.538,3.456,3.456,0,0,1-.15-.738,9.146,9.146,0,0,1-.1-1.137q-.025-.687-.025-1.738,0-.875.025-1.437a7,7,0,0,1,.1-.963,2.645,2.645,0,0,1,.162-.65,4.619,4.619,0,0,1,.288-.575,3.448,3.448,0,0,1,1.337-1.275,3.924,3.924,0,0,1,1.887-.45,3.768,3.768,0,0,1,1.875.462,3.633,3.633,0,0,1,1.325,1.263,6.417,6.417,0,0,1,.3.575,3,3,0,0,1,.2.65q.05.4.075.963t.025,1.438q0,.825-.025,1.363t-.075.913q-.075.4-.163.712t-.212.663L167.525,0ZM166.3-10.825a1.206,1.206,0,0,0,.375.925,1.242,1.242,0,0,0,.875.35,1.242,1.242,0,0,0,.875-.35,1.206,1.206,0,0,0,.375-.925v-3.3a1.206,1.206,0,0,0-.375-.925,1.242,1.242,0,0,0-.875-.35,1.242,1.242,0,0,0-.875.35,1.206,1.206,0,0,0-.375.925ZM182.475-6.2H181.2a20.952,20.952,0,0,1-2.725-.15V-3.5a21.5,21.5,0,0,1,2.725-.15h8.4V-.575a18.22,18.22,0,0,1-.15,2.725h3.05a15.054,15.054,0,0,1-.15-2.675V-3.65h5.8a21.224,21.224,0,0,1,2.725.15V-6.35a20.421,20.421,0,0,1-2.725.15h-5.8v-4.05h4.1a23.527,23.527,0,0,1,2.5.1V-12.8a18.352,18.352,0,0,1-2.575.125H192.35v-3.25h5.1A18.4,18.4,0,0,1,200-15.8v-2.725a17.752,17.752,0,0,1-2.55.125h-11.7c.45-.975.7-1.5.725-1.575.175-.375.225-.45.375-.75l-2.975-.6a7.221,7.221,0,0,1-.6,1.825,15.519,15.519,0,0,1-4.875,6.275A10.943,10.943,0,0,1,180.25-11a23.053,23.053,0,0,0,4.125-4.925H189.6v3.25h-5.45c-.675,0-1.225-.025-1.75-.075a13.725,13.725,0,0,1,.075,1.45Zm2.625,0v-4.05h4.5V-6.2ZM213.8.6c-.025-.325-.025-.525-.025-.675A20.524,20.524,0,0,1,216-7.65l-2-.9a25.5,25.5,0,0,0-1.3,3.3c.025-.625.05-.825.05-1.375a41.74,41.74,0,0,1,.375-5.525,34.467,34.467,0,0,1,1.575-7.475l-3.3-.35a16.358,16.358,0,0,1-.375,2.325A48,48,0,0,0,210-7.875,43.607,43.607,0,0,0,210.65-.4c.075.575.1.725.125,1.175Zm3.45-14.975a29.677,29.677,0,0,0,4.5.275,44.78,44.78,0,0,0,5.35-.3c1.2-.15,1.575-.2,1.775-.225l-.15-3.025a27.568,27.568,0,0,1-6.8.675,18.026,18.026,0,0,1-4.625-.4Zm1.725,4.125a8.167,8.167,0,0,0-2.3,5.15,4.188,4.188,0,0,0,.75,2.45c1.1,1.475,3.1,2.175,6.2,2.175A30.829,30.829,0,0,0,228.8-.95a8.355,8.355,0,0,1,1.025-.15l-.25-3.175a17.569,17.569,0,0,1-5.95.95c-2.6,0-3.975-.75-3.975-2.175,0-1.075.525-2.15,1.775-3.6Zm28.55,2.6a16,16,0,0,1,4.8-.825c2.675,0,4.425,1.4,4.425,3.55a2.569,2.569,0,0,1-2.525,2.775A1.729,1.729,0,0,1,252.65-3a4.817,4.817,0,0,1-.35-2.2,8.671,8.671,0,0,1,.05-1.1,10.546,10.546,0,0,1-2.775,1.1A8.352,8.352,0,0,0,250-2,4.036,4.036,0,0,0,254.1.775a5.554,5.554,0,0,0,5.675-5.7c0-3.55-2.975-6.1-7.15-6.1a17.336,17.336,0,0,0-5.1.7v-3.25c.95-.1,1.45-.175,2.275-.325,1.725-.3,2.2-.375,2.65-.45l-.1-2.8a27.881,27.881,0,0,1-4.825.95v-1.6a15.349,15.349,0,0,1,.15-2.725H244.55a17.13,17.13,0,0,1,.15,2.875V-16c-.275,0-.4,0-1,.025-.35.025-.625.025-.875.025a15.332,15.332,0,0,1-3.025-.225l.025,2.8a4.687,4.687,0,0,1,.525-.025c.075,0,.3,0,.625.025.3,0,1,.025,1.375.025.625,0,.975,0,1.35-.025.825-.05.825-.05,1.025-.05l.025,3.85A13.374,13.374,0,0,0,241.1-7.45a5.336,5.336,0,0,0-2.15,3.7,3.672,3.672,0,0,0,1.375,2.825A7.787,7.787,0,0,0,245.05.85a2.2,2.2,0,0,0,2.3-1.45,7.444,7.444,0,0,0,.2-2.125Zm-2.8,4.55c0,.825-.125,1.05-.55,1.05a3.005,3.005,0,0,1-1.6-.55c-.575-.35-.825-.725-.825-1.15,0-.9,1.1-2,2.975-3Zm16.15-10.55a21.2,21.2,0,0,0-4.95-5.125l-2.35,1.575a21.349,21.349,0,0,1,5,5.4Zm15.525,1.6h.375c.3,0,.4,0,1.125.05.65.025,1.575.05,2.275.05,1.25,0,2.55-.025,3.4-.1.025.825.025,1.05.025,1.575,0,3.7-.45,5.45-1.75,7.025a10.3,10.3,0,0,1-3.825,2.725,9.848,9.848,0,0,1,2.425,2.35,16.261,16.261,0,0,0,2.725-1.9,9.37,9.37,0,0,0,2.85-4.85,24.8,24.8,0,0,0,.525-5.975c0-.45,0-.675-.025-1.2a17.66,17.66,0,0,0,2.425-.425,12.181,12.181,0,0,1,1.4-.25l-.175-2.975a13.754,13.754,0,0,1-3.725.95c-.05-1.6-.1-2.55-.1-2.825-.05-1.125-.05-1.35-.05-1.6a5.452,5.452,0,0,1,.05-.85l-3.175.05A38.6,38.6,0,0,1,283.5-14.7c-1.3.075-1.7.1-2.65.1a22.273,22.273,0,0,1-4.45-.325Zm-1.6,3.225A25.794,25.794,0,0,0,273.15-4.7c0-.4-.025-.55-.05-.95V-6.1c-.025-1.225-.025-1.65-.025-1.925-.025-.4-.025-.7-.025-.775,0-.475.05-1.2.175-2.85a33.677,33.677,0,0,1,.65-4.925,24.158,24.158,0,0,1,.725-3.05l-3.3-.325a11,11,0,0,1-.175,1.85,53.733,53.733,0,0,0-.925,9.475A35.973,35.973,0,0,0,271.1-.5a4.076,4.076,0,0,1,.175.95l2.9-.15c.05-1.8,1.2-5,2.85-8.025Zm31.5-1.55a9.813,9.813,0,0,0,1.025-.65c.5-.325,2.3-1.675,2.75-2.05.85-.725,2.675-2.35,3.925-3.5a5.359,5.359,0,0,1,1.3-1.025l-1.55-2.2a3.684,3.684,0,0,1-1.55.325c-2.425.175-5.475.3-7.6.3a22.609,22.609,0,0,1-2.95-.15l.125,3a8.433,8.433,0,0,1,1.2-.125c4.525-.2,6.125-.3,7.075-.425l.025.025-.45.45a83.477,83.477,0,0,1-7.475,6.5,22.485,22.485,0,0,1-3.525,2.35l1.7,2.7a15.4,15.4,0,0,1,10.3-4.2c3.025,0,4.95,1.275,4.95,3.225,0,1.775-.9,2.85-2.975,3.625a6.723,6.723,0,0,0-1.15-2.25,5.381,5.381,0,0,0-4.325-2.05c-2.5,0-4.3,1.5-4.3,3.575a3.568,3.568,0,0,0,1.5,2.875,8.458,8.458,0,0,0,4.85,1.15,12.369,12.369,0,0,0,6.05-1.425,6.109,6.109,0,0,0,3.4-5.525c0-3.425-2.75-5.625-7.025-5.625a12.2,12.2,0,0,0-5.25,1.15Zm3.6,8.9a6.767,6.767,0,0,1-1.3.1c-1.85,0-2.975-.575-2.975-1.575,0-.7.575-1.15,1.475-1.15C308.5-4.1,309.45-3.2,309.9-1.475ZM338.75-18.8c.3-.65.3-.65.85-1.95l-2.875-.5a11.173,11.173,0,0,1-1.4,3.55,13.631,13.631,0,0,1-3.2,3.8A7.549,7.549,0,0,1,334-11.875a16.759,16.759,0,0,0,1.525-1.625,35.889,35.889,0,0,1-.275,3.9h-.275a14.87,14.87,0,0,1-2.325-.125v2.65A11.989,11.989,0,0,1,334.6-7.2h.375a39.749,39.749,0,0,1-1.65,7.175l2.8.275c.225-.925.275-1.175.45-1.975h8.45C344.75-.6,344.625-.5,343.7-.5a14.077,14.077,0,0,1-2.525-.25,6.24,6.24,0,0,1,.525,2.575c1.55.1,1.85.125,2.25.125,2.625,0,3.2-.575,3.725-3.675h.275a13.6,13.6,0,0,1,1.9.1V-4.25a8.674,8.674,0,0,1-1.875.125c.1-.975.15-1.775.25-3.075h.25a15.018,15.018,0,0,1,2.1.125v-2.65a12.269,12.269,0,0,1-2.225.125c.075-2.275.125-3.5.125-3.675.05-.75.075-1.05.125-1.4-.675.05-1.425.075-2.625.075h-9.65c.425-.6.725-1.1,1.15-1.775h9.375a30.6,30.6,0,0,1,3.275.1V-18.95a25.333,25.333,0,0,1-3.6.15ZM337-4.125c.325-1.75.35-2,.5-3.075h2.8c-.175,1.6-.225,1.925-.4,3.075Zm5.325,0q.225-1.65.375-3.075h3c-.075,1.025-.15,1.95-.275,3.075ZM337.75-9.6c.125-1.15.15-1.45.225-2.7h2.7c-.1,1.9-.1,1.9-.15,2.7Zm5.15,0c.05-.7.05-.7.2-2.7h2.8c-.025,1.175-.025,1.175-.075,2.7Zm-14.825-9.375a18.082,18.082,0,0,1,3.775,3.425l1.925-2a23.028,23.028,0,0,0-3.825-3.25Zm-1.05,6.35a16.3,16.3,0,0,1,4,3.325l1.775-2.05a19.221,19.221,0,0,0-4.05-3.15ZM330.65-7.5a29.176,29.176,0,0,1-2.775,6.875A2.787,2.787,0,0,1,327.4.05l2.35,1.975.975-2.05a42.982,42.982,0,0,0,2.15-5.75Zm31.225-2.475A18.738,18.738,0,0,1,364.9-7.05a17.043,17.043,0,0,1-3.8,4.575,15.084,15.084,0,0,1-2.95,2.2A8.061,8.061,0,0,1,360.125,2a25.129,25.129,0,0,0,6.25-6.25,23.993,23.993,0,0,0,3.375-8.35,16.868,16.868,0,0,0,3,3.625v7.7a25.934,25.934,0,0,1-.175,3.325h3.075a25.166,25.166,0,0,1-.175-3.325v-5.4a27.38,27.38,0,0,0,4.3,2.65,13.861,13.861,0,0,1,1.45-2.725,16.44,16.44,0,0,1-3.375-1.675,22.552,22.552,0,0,1-2.375-1.525v-8.125a15.916,15.916,0,0,1,.175-2.875h-3.075a18.815,18.815,0,0,1,.175,2.875v5.55a12.211,12.211,0,0,1-2.45-3.625c.125-1.075.125-1.175.225-1.7-.6.05-1.075.075-2.025.075h-3.6c.15-.475.25-.825.425-1.4.175-.65.275-.95.45-1.45l-2.875-.5a19.156,19.156,0,0,1-.725,3.275,20.055,20.055,0,0,1-4.575,7.775,6.893,6.893,0,0,1,1.65,2.4,24.686,24.686,0,0,0,4.8-7.725h3.65a26.381,26.381,0,0,1-1.6,5.925A19.236,19.236,0,0,0,363.375-12Zm35.5-2.95h-4.95v-4.05a14.7,14.7,0,0,1,.1-2h-3a13.928,13.928,0,0,1,.125,2.2v4.95c0,.575-.025,1.05-.075,1.6.6-.05,1.125-.075,1.8-.075h6v8.2H391.5V-6.15a12.355,12.355,0,0,1,.125-2.15H388.6a20.776,20.776,0,0,1,.125,2.4V-.6a18.138,18.138,0,0,1-.15,2.5H391.5V.6h14.875V1.9H409.3a15.786,15.786,0,0,1-.15-2.5V-6a19.985,19.985,0,0,1,.125-2.375H406.25a13.3,13.3,0,0,1,.125,2.125V-2.1H400.2v-8.2h6.45c.6,0,1.2.025,1.75.075a13.693,13.693,0,0,1-.075-1.6V-16.8a14.37,14.37,0,0,1,.125-2.175h-3a15.016,15.016,0,0,1,.1,1.975v4.075H400.2V-18.4a16.089,16.089,0,0,1,.15-2.475h-3.125a15.009,15.009,0,0,1,.15,2.475Zm33.85,5.6a13.293,13.293,0,0,0,2.925,5.5,17.2,17.2,0,0,0,5.25,3.9,8.5,8.5,0,0,1,1.425-2.6,11.866,11.866,0,0,1-4.25-2.45,31.383,31.383,0,0,0,3-2.7l-1.975-1.5a14.021,14.021,0,0,1-2.6,2.55,8.09,8.09,0,0,1-1.375-2.7h4.325a16.187,16.187,0,0,1,2.375.125V-9.85a16.463,16.463,0,0,1-2.45.125H429.85v-1.35h6.625a14.432,14.432,0,0,1,2.15.125V-13.3a14.833,14.833,0,0,1-2.15.1H429.85v-1.25h6.625a18.542,18.542,0,0,1,2.15.1V-16.7a12.64,12.64,0,0,1-2.2.125H429.85V-17.85h6.775a19.808,19.808,0,0,1,2.75.125v-2.55a20.93,20.93,0,0,1-2.85.15H430a22.313,22.313,0,0,1-2.775-.125,19.447,19.447,0,0,1,.1,2.275v8.25h-.15a13.8,13.8,0,0,1-2-.1V-9.1c-.4.025-.775.05-1.425.05h-2.875c.175-1.275.175-1.4.325-3.1h2.45a16.548,16.548,0,0,1,1.775.075c-.05-.8-.075-1.55-.075-2.3V-18.15a15.682,15.682,0,0,1,.075-1.925,15.992,15.992,0,0,1-1.925.1h-3.1a14,14,0,0,1-2.325-.15v2.675a16.641,16.641,0,0,1,2.175-.1h2.525v3.05h-2.05a12.631,12.631,0,0,1-2.075-.1,48.175,48.175,0,0,1-.75,7.95c.6-.025,1.075-.05,1.725-.05h2.95a16.806,16.806,0,0,1-.675,5.225c-.2.5-.475.625-1.325.625a21.047,21.047,0,0,1-2.55-.225,12.128,12.128,0,0,1,.55,2.775c.825.05,1.575.075,2.3.075a4.331,4.331,0,0,0,2.125-.4c.975-.5,1.35-1.3,1.75-3.525a30.7,30.7,0,0,0,.45-5.125c.425-.025.85-.05,1.5-.05h.425V-1a17.566,17.566,0,0,1-2.25.25l.45,2.575a2.2,2.2,0,0,0,.5-.1c.325-.05.325-.05.8-.15A64.142,64.142,0,0,0,433.45,0l-.05-2.4a33.166,33.166,0,0,1-3.7.925v-5.85Zm29.675-8.7a5.464,5.464,0,0,1,2.525.75,6.194,6.194,0,0,1,3.075,5.55,7,7,0,0,1-3.475,6.25A13.286,13.286,0,0,1,458.05-2.1,7.975,7.975,0,0,1,459.575.825,16.344,16.344,0,0,0,463.5-.225a9.631,9.631,0,0,0,6.075-9.325c0-5.625-3.9-9.275-9.9-9.275a11.222,11.222,0,0,0-8.6,3.5,10.739,10.739,0,0,0-2.75,7.275c0,4.025,2.05,6.925,4.9,6.925,2.05,0,3.65-1.475,5.075-4.7A36.167,36.167,0,0,0,460.9-16.025ZM457.85-16a32.949,32.949,0,0,1-2.075,8.45c-.9,2.15-1.75,3.2-2.575,3.2-1.1,0-1.975-1.625-1.975-3.675a8.37,8.37,0,0,1,3.4-6.75A6.364,6.364,0,0,1,457.85-16Zm28.45,1.475a20.355,20.355,0,0,1-2.425-.1,17,17,0,0,1,.1,2V-6.65a17,17,0,0,1-.1,2,20.088,20.088,0,0,1,2.425-.1h5.325a22.028,22.028,0,0,1,2.425.1,16.187,16.187,0,0,1-.1-2v-5.975a15.928,15.928,0,0,1,.1-2,20.624,20.624,0,0,1-2.425.1Zm.3,2.35h4.7V-7.1h-4.7Zm13.1,14.25a25.309,25.309,0,0,1-.15-3.225V-17a25.759,25.759,0,0,1,.15-3,26.145,26.145,0,0,1-2.975.125h-15.5A25.223,25.223,0,0,1,478.3-20a26.687,26.687,0,0,1,.15,3V-1.175a27.455,27.455,0,0,1-.15,3.25h2.9V.7h15.575V2.075Zm-18.5-19.45h15.575v15.6H481.2Zm49.475.55a13.538,13.538,0,0,1-2.35.125h-4.35c.275-.975.5-1.825.65-2.475.2-.85.25-1.075.35-1.375l-2.75-.55a18.122,18.122,0,0,1-.6,3.4,18.352,18.352,0,0,1-3.375,7.2,8.773,8.773,0,0,1,1.8,1.8c.525-.7.7-.95,1.15-1.65a17.064,17.064,0,0,0,2.1,5.875,15.518,15.518,0,0,1-3.55,3.125,15.274,15.274,0,0,1-1.975,1.075,7.73,7.73,0,0,1,1.35,2.5A19.393,19.393,0,0,0,524.8-2.25a17.119,17.119,0,0,0,4.875,4.3,11.464,11.464,0,0,1,1.45-2.65,13.29,13.29,0,0,1-4.75-3.9,20.432,20.432,0,0,0,2.55-9.8,12.773,12.773,0,0,1,1.75.1Zm-4.3,2.525a18.1,18.1,0,0,1-1.55,7.35,19.663,19.663,0,0,1-2-6.575c.125-.325.125-.325.325-.775Zm-7.85,12.625A12.94,12.94,0,0,0,516.5-2.8,9.283,9.283,0,0,0,518-6a9.877,9.877,0,0,1,2.025.125V-8.4a8.84,8.84,0,0,1-1.85.125h-3.95c.2-.475.3-.65.525-1.275l-2.6-.5a18.094,18.094,0,0,1-.65,1.775h-1.875A10.389,10.389,0,0,1,507.65-8.4v2.525A10.714,10.714,0,0,1,509.625-6h.725a20.9,20.9,0,0,1-1.625,2.475c1.775.65,2.45.925,3.7,1.475a13.671,13.671,0,0,1-4.95,1.85,10.919,10.919,0,0,1,1.3,2.3A13.113,13.113,0,0,0,514.75-.875,13.321,13.321,0,0,1,517.075.65ZM515.4-6a6.449,6.449,0,0,1-1.125,2.225c-.75-.325-1.075-.45-2.125-.825.45-.675.525-.8.875-1.4Zm-.1-10.35v-3a9.821,9.821,0,0,1,.1-1.65h-2.725a7.987,7.987,0,0,1,.125,1.7v2.95h-2.975a11.9,11.9,0,0,1-2.1-.125v2.4A11.758,11.758,0,0,1,509.8-14.2h1.35a9.992,9.992,0,0,1-4,3.125A8.5,8.5,0,0,1,508.775-9a14.2,14.2,0,0,0,4.075-3.925c-.05.45-.075.85-.075,1.075v.95a4.6,4.6,0,0,1-.075.825h2.675a3.748,3.748,0,0,1-.1-.925v-.9c0-.2-.025-.5-.075-1.025a9.059,9.059,0,0,0,2.225,2.375,8.042,8.042,0,0,1,1.45-2.05,6.766,6.766,0,0,1-2.2-1.6h1.675a12.036,12.036,0,0,1,1.6.075v-2.3a11.529,11.529,0,0,1-1.6.075Zm-6.95-3.6a12.966,12.966,0,0,1,1.675,3.325l2.2-.825a12.47,12.47,0,0,0-1.75-3.3Zm9.2-.85a12.359,12.359,0,0,1-1.775,3.35l2.125.95a21.527,21.527,0,0,0,1.9-3.375Z" transform="translate(376.38 2884.136)" fill="#fff"/>
    <g id="円グラフ" transform="translate(595 2998.5)">
      <path id="パス_857" data-name="パス 857" d="M2094.256,3301.557c8.923-19.134,22.432-34.85,39.067-45.448s36.588-16.2,57.7-16.2h0v-63.427c-67.679,0-125.651,36.932-154.253,98.27l57.485,26.805Z" transform="translate(-2020.294 -3176.482)" fill="#0052aa"/>
      <path id="パス_858" data-name="パス 858" d="M2054.407,3588.832c-8.988-27.663-7.514-51.755,4.779-78.118l-57.485-26.806c-19.068,40.892-21.559,81.613-7.616,124.524l60.322-19.6Z" transform="translate(-1985.223 -3385.638)" fill="#0095d8"/>
      <path id="パス_859" data-name="パス 859" d="M2174.814,3885.928c-23.414,0-45.247-6.871-63.138-19.87s-31.172-31.64-38.408-53.908l-60.323,19.6c23.238,71.518,86.671,117.6,161.869,117.6v-63.427Z" transform="translate(-2004.084 -3608.956)" fill="#43beff"/>
      <path id="パス_860" data-name="パス 860" d="M2616.1,3850.1c-8.923,19.134-22.432,34.85-39.068,45.448s-36.588,16.2-57.7,16.2v63.428c67.679,0,125.651-36.932,154.253-98.27L2616.1,3850.1Z" transform="translate(-2348.604 -3634.773)" fill="#81cff8"/>
      <path id="パス_861" data-name="パス 861" d="M2519.334,3176.482v63.427a106.772,106.772,0,0,1,106.772,106.772c0,17.034-2.8,29.686-10,45.124l57.485,26.805c11.123-23.853,15.946-45.61,15.946-71.929A170.2,170.2,0,0,0,2519.334,3176.482Z" transform="translate(-2348.604 -3176.482)" fill="#bdebfc"/>
    </g>
    <path id="パス_1155" data-name="パス 1155" d="M.85-14.125a3.888,3.888,0,0,1,.313-1.6A3.744,3.744,0,0,1,2-16.925a3.6,3.6,0,0,1,1.213-.763A4,4,0,0,1,4.65-17.95a4,4,0,0,1,1.437.263,3.6,3.6,0,0,1,1.213.763,3.744,3.744,0,0,1,.838,1.2,3.888,3.888,0,0,1,.312,1.6v10.45a3.888,3.888,0,0,1-.312,1.6A3.744,3.744,0,0,1,7.3-.875a3.6,3.6,0,0,1-1.213.763A4,4,0,0,1,4.65.15,4,4,0,0,1,3.213-.112,3.6,3.6,0,0,1,2-.875a3.744,3.744,0,0,1-.837-1.2,3.888,3.888,0,0,1-.312-1.6ZM3.4-3.675a1.261,1.261,0,0,0,.35.912,1.2,1.2,0,0,0,.9.362,1.2,1.2,0,0,0,.9-.362,1.261,1.261,0,0,0,.35-.912v-10.45a1.261,1.261,0,0,0-.35-.912,1.2,1.2,0,0,0-.9-.363,1.2,1.2,0,0,0-.9.363,1.261,1.261,0,0,0-.35.912Zm18.25-10.85a20.354,20.354,0,0,1-2.425-.1,17,17,0,0,1,.1,2V-6.65a17,17,0,0,1-.1,2,20.088,20.088,0,0,1,2.425-.1h5.325a22.028,22.028,0,0,1,2.425.1,16.189,16.189,0,0,1-.1-2v-5.975a15.93,15.93,0,0,1,.1-2,20.624,20.624,0,0,1-2.425.1Zm.3,2.35h4.7V-7.1h-4.7Zm13.1,14.25A25.31,25.31,0,0,1,34.9-1.15V-17a25.761,25.761,0,0,1,.15-3,26.145,26.145,0,0,1-2.975.125h-15.5A25.223,25.223,0,0,1,13.65-20a26.688,26.688,0,0,1,.15,3V-1.175a27.456,27.456,0,0,1-.15,3.25h2.9V.7H32.125V2.075Zm-18.5-19.45H32.125v15.6H16.55Zm33.425.7v3.65h3.65v-3.65Zm0,10.7v3.65h3.65v-3.65Zm26.28-19.157a7.863,7.863,0,0,0,3.873-.671q1.067-.671,1.067-3.111v-5.612a3.033,3.033,0,0,0-.823-2.2,2.949,2.949,0,0,0-2.227-.854A2.627,2.627,0,0,0,75.8-36.539a3.6,3.6,0,0,0-.7,2.013v3.538H68.874v-3.6a9.041,9.041,0,0,1,.732-3.6,8.751,8.751,0,0,1,2.013-2.928,10,10,0,0,1,2.989-1.952,9.192,9.192,0,0,1,3.66-.732,8.128,8.128,0,0,1,4.239,1.007,9.762,9.762,0,0,1,2.532,2.044,13.327,13.327,0,0,1,1.068,1.464,7.125,7.125,0,0,1,.762,1.769,24.324,24.324,0,0,1,.549,5.978q0,2.257-.091,3.66a7.656,7.656,0,0,1-.457,2.318,4.636,4.636,0,0,1-1.189,1.647,14.108,14.108,0,0,1-2.1,1.464A11.817,11.817,0,0,1,85.8-20.74a5.023,5.023,0,0,1,1.129,1.83,9.453,9.453,0,0,1,.427,2.592q.061,1.495.061,3.813,0,2.135-.091,3.538a18.2,18.2,0,0,1-.274,2.318A7.231,7.231,0,0,1,86.564-5a10.04,10.04,0,0,1-.793,1.4A9.856,9.856,0,0,1,82.813-.762,8.8,8.8,0,0,1,78.085.366a10.966,10.966,0,0,1-3.111-.488,8.482,8.482,0,0,1-2.989-1.586,8.611,8.611,0,0,1-2.226-2.867,9.614,9.614,0,0,1-.885-4.331v-3.538H75.1v3.233A3.536,3.536,0,0,0,75.92-6.8a2.8,2.8,0,0,0,2.227.946A2.8,2.8,0,0,0,80.373-6.8,3.719,3.719,0,0,0,81.2-9.333v-6.222q0-2.562-.976-3.355a2.714,2.714,0,0,0-1.494-.61,20.082,20.082,0,0,0-2.47-.122ZM97.666,0V-5.856L108.89-27.023a7.729,7.729,0,0,0,.976-2.776q.122-1.19.122-2.958,0-.793-.031-1.677a4.071,4.071,0,0,0-.336-1.556,2.888,2.888,0,0,0-.915-1.129,2.913,2.913,0,0,0-1.769-.458,3.075,3.075,0,0,0-2.227.793,3.072,3.072,0,0,0-.824,2.318v3.538H97.666v-3.416A9.192,9.192,0,0,1,98.4-38a9.444,9.444,0,0,1,2.013-2.989,9.135,9.135,0,0,1,2.928-2.043A8.875,8.875,0,0,1,107-43.8a9.121,9.121,0,0,1,4.179.885,8.336,8.336,0,0,1,2.9,2.41,10.5,10.5,0,0,1,1.616,3.477,16.1,16.1,0,0,1,.519,4.148q0,1.586-.061,2.653a16.055,16.055,0,0,1-.244,2.043,9.006,9.006,0,0,1-.61,1.952q-.427.976-1.159,2.379l-9.15,17.629H116.21V0Zm30.718.075,1.275,1,15.75-20.15-1.3-1Zm14.4.75A4.6,4.6,0,0,0,146.159-.45a5.9,5.9,0,0,0,1.45-4.325,5.877,5.877,0,0,0-1.45-4.3,4.663,4.663,0,0,0-3.375-1.275,4.766,4.766,0,0,0-3.4,1.275,5.917,5.917,0,0,0-1.45,4.3,5.9,5.9,0,0,0,1.45,4.325A4.621,4.621,0,0,0,142.784.825Zm0-9.05a1.8,1.8,0,0,1,1.6.775,4.414,4.414,0,0,1,.675,2.5c0,2.425-.775,3.675-2.275,3.675-1.475,0-2.275-1.25-2.275-3.55a4.347,4.347,0,0,1,.675-2.6A1.74,1.74,0,0,1,142.784-8.225ZM131.009-8.65a4.6,4.6,0,0,0,3.375-1.275,5.9,5.9,0,0,0,1.45-4.325,5.877,5.877,0,0,0-1.45-4.3,4.663,4.663,0,0,0-3.375-1.275c-3.05,0-4.85,2.075-4.85,5.575a5.941,5.941,0,0,0,1.45,4.325A4.621,4.621,0,0,0,131.009-8.65Zm0-9.05a1.924,1.924,0,0,1,1.825,1.125,5.488,5.488,0,0,1,.45,2.325c0,2.25-.825,3.5-2.275,3.5-1.475,0-2.275-1.25-2.275-3.55C128.734-16.475,129.559-17.7,131.009-17.7Z" transform="translate(885 3016)" fill="#0052aa"/>
    <path id="パス_1157" data-name="パス 1157" d="M1.156,0V-3.264l6.256-11.8a4.308,4.308,0,0,0,.544-1.547q.068-.663.068-1.649,0-.442-.017-.935a2.269,2.269,0,0,0-.187-.867,1.61,1.61,0,0,0-.51-.629,1.624,1.624,0,0,0-.986-.255,1.714,1.714,0,0,0-1.241.442,1.712,1.712,0,0,0-.459,1.292v1.972H1.156v-1.9a5.124,5.124,0,0,1,.408-2.04,5.264,5.264,0,0,1,1.122-1.666,5.092,5.092,0,0,1,1.632-1.139,4.947,4.947,0,0,1,2.04-.425,5.084,5.084,0,0,1,2.329.493A4.646,4.646,0,0,1,10.3-22.576a5.855,5.855,0,0,1,.9,1.938,8.974,8.974,0,0,1,.289,2.312q0,.884-.034,1.479a8.949,8.949,0,0,1-.136,1.139,5.019,5.019,0,0,1-.34,1.088q-.238.544-.646,1.326l-5.1,9.826h6.256V0ZM20.128-10.336c2.142-2.312,3.706-3.128,5.916-3.128,1.8,0,2.856.408,5.848,2.312A17.376,17.376,0,0,0,36.55-8.636a9.672,9.672,0,0,0,2.992.476A9.548,9.548,0,0,0,45.424-10.1a14.847,14.847,0,0,0,3.23-3.3l-2.72-2.72A9.113,9.113,0,0,1,42.4-13.022a6.72,6.72,0,0,1-2.516.646c-1.632,0-3.434-.714-6.018-2.38a24.406,24.406,0,0,0-3.094-1.87,9.54,9.54,0,0,0-4.386-1.02,9.689,9.689,0,0,0-5.576,1.768,11.692,11.692,0,0,0-3.366,3.026ZM64.94-24.208v3.264H58.072v6.528a3.885,3.885,0,0,1,1.224-.8,4.16,4.16,0,0,1,1.666-.323,3.954,3.954,0,0,1,2.873,1.071,4.282,4.282,0,0,1,1.1,3.213V-5a5.287,5.287,0,0,1-.425,2.176A5.091,5.091,0,0,1,63.376-1.19,4.9,4.9,0,0,1,61.727-.153,5.434,5.434,0,0,1,59.772.2a5.434,5.434,0,0,1-1.955-.357A4.9,4.9,0,0,1,56.168-1.19a5.091,5.091,0,0,1-1.139-1.632A5.287,5.287,0,0,1,54.6-5v-1.02h3.468v.884a1.861,1.861,0,0,0,.493,1.377,1.725,1.725,0,0,0,1.275.493,1.534,1.534,0,0,0,1.207-.476,1.922,1.922,0,0,0,.425-1.326v-5.678a1.767,1.767,0,0,0-.459-1.224,1.508,1.508,0,0,0-1.173-.51,1.66,1.66,0,0,0-.748.153,1.941,1.941,0,0,0-.51.357,1.412,1.412,0,0,0-.306.442q-.17.306-.2.374h-3.06V-24.208Zm17.952,4.454a27.682,27.682,0,0,1-3.3-.136,23.117,23.117,0,0,1,.136,2.72v8.126a23.117,23.117,0,0,1-.136,2.72,27.319,27.319,0,0,1,3.3-.136h7.242a29.958,29.958,0,0,1,3.3.136,22.016,22.016,0,0,1-.136-2.72V-17.17a21.664,21.664,0,0,1,.136-2.72,28.049,28.049,0,0,1-3.3.136Zm.408,3.2h6.392v6.9H83.3Zm17.816,19.38a34.421,34.421,0,0,1-.2-4.386V-23.12a35.034,35.034,0,0,1,.2-4.08,35.557,35.557,0,0,1-4.046.17H75.99a34.3,34.3,0,0,1-3.978-.17,36.3,36.3,0,0,1,.2,4.08V-1.6a37.34,37.34,0,0,1-.2,4.42h3.944V.952H97.138v1.87ZM75.956-23.63H97.138V-2.414H75.956Zm45.458.952v4.964h4.964v-4.964Zm0,14.552v4.964h4.964V-8.126ZM147.7,0V-9.6l18.4-34.7a12.67,12.67,0,0,0,1.6-4.55q.2-1.95.2-4.85,0-1.3-.05-2.75A6.674,6.674,0,0,0,167.3-59a4.734,4.734,0,0,0-1.5-1.85,4.776,4.776,0,0,0-2.9-.75,5.041,5.041,0,0,0-3.65,1.3,5.036,5.036,0,0,0-1.35,3.8v5.8H147.7v-5.6a15.069,15.069,0,0,1,1.2-6,15.482,15.482,0,0,1,3.3-4.9,14.975,14.975,0,0,1,4.8-3.35,14.55,14.55,0,0,1,6-1.25,14.953,14.953,0,0,1,6.85,1.45,13.665,13.665,0,0,1,4.75,3.95,17.221,17.221,0,0,1,2.65,5.7,26.393,26.393,0,0,1,.85,6.8q0,2.6-.1,4.35a26.321,26.321,0,0,1-.4,3.35,14.763,14.763,0,0,1-1,3.2q-.7,1.6-1.9,3.9l-15,28.9h18.4V0Zm47.2-56.5a15.551,15.551,0,0,1,1.25-6.4,14.975,14.975,0,0,1,3.35-4.8,14.413,14.413,0,0,1,4.85-3.05,15.983,15.983,0,0,1,5.75-1.05,15.983,15.983,0,0,1,5.75,1.05,14.412,14.412,0,0,1,4.85,3.05,14.975,14.975,0,0,1,3.35,4.8,15.551,15.551,0,0,1,1.25,6.4v41.8a15.551,15.551,0,0,1-1.25,6.4,14.975,14.975,0,0,1-3.35,4.8,14.412,14.412,0,0,1-4.85,3.05A15.983,15.983,0,0,1,210.1.6a15.983,15.983,0,0,1-5.75-1.05A14.413,14.413,0,0,1,199.5-3.5a14.975,14.975,0,0,1-3.35-4.8,15.551,15.551,0,0,1-1.25-6.4Zm10.2,41.8a5.043,5.043,0,0,0,1.4,3.65,4.784,4.784,0,0,0,3.6,1.45,4.784,4.784,0,0,0,3.6-1.45,5.043,5.043,0,0,0,1.4-3.65V-56.5a5.043,5.043,0,0,0-1.4-3.65,4.784,4.784,0,0,0-3.6-1.45,4.784,4.784,0,0,0-3.6,1.45,5.043,5.043,0,0,0-1.4,3.65ZM244.136.1l1.734,1.36,21.42-27.4-1.768-1.36Zm19.584,1.02a6.258,6.258,0,0,0,4.59-1.734c1.292-1.258,1.972-3.3,1.972-5.882,0-2.55-.68-4.59-1.972-5.848a6.342,6.342,0,0,0-4.59-1.734,6.481,6.481,0,0,0-4.624,1.734,8.047,8.047,0,0,0-1.972,5.848c0,2.584.68,4.624,1.972,5.882A6.285,6.285,0,0,0,263.72,1.122Zm0-12.308a2.449,2.449,0,0,1,2.176,1.054,6,6,0,0,1,.918,3.4c0,3.3-1.054,5-3.094,5-2.006,0-3.094-1.7-3.094-4.828a5.912,5.912,0,0,1,.918-3.536A2.367,2.367,0,0,1,263.72-11.186Zm-16.014-.578A6.258,6.258,0,0,0,252.3-13.5c1.292-1.258,1.972-3.3,1.972-5.882,0-2.55-.68-4.59-1.972-5.848a6.342,6.342,0,0,0-4.59-1.734c-4.148,0-6.6,2.822-6.6,7.582,0,2.55.68,4.624,1.972,5.882A6.285,6.285,0,0,0,247.706-11.764Zm0-12.308a2.617,2.617,0,0,1,2.482,1.53,7.464,7.464,0,0,1,.612,3.162c0,3.06-1.122,4.76-3.094,4.76-2.006,0-3.094-1.7-3.094-4.828C244.612-22.406,245.734-24.072,247.706-24.072Z" transform="translate(368 3349)" fill="#0052aa"/>
    <path id="パス_1156" data-name="パス 1156" d="M3.875,53V37.9l-2.55,1.875v-2.7L3.875,35.2h2.55V53ZM21.65,38.475a20.354,20.354,0,0,1-2.425-.1,17,17,0,0,1,.1,2V46.35a17,17,0,0,1-.1,2,20.088,20.088,0,0,1,2.425-.1h5.325a22.029,22.029,0,0,1,2.425.1,16.189,16.189,0,0,1-.1-2V40.375a15.93,15.93,0,0,1,.1-2,20.624,20.624,0,0,1-2.425.1Zm.3,2.35h4.7V45.9h-4.7Zm13.1,14.25a25.31,25.31,0,0,1-.15-3.225V36a25.761,25.761,0,0,1,.15-3,26.145,26.145,0,0,1-2.975.125h-15.5A25.224,25.224,0,0,1,13.65,33a26.688,26.688,0,0,1,.15,3V51.825a27.456,27.456,0,0,1-.15,3.25h2.9V53.7H32.125v1.375Zm-18.5-19.45H32.125v15.6H16.55Zm33.425.7v3.65h3.65v-3.65Zm0,10.7v3.65h3.65v-3.65ZM78.425,53V7.7l-7.65,5.625v-8.1L78.425-.4h7.65V53ZM119.9,10.55a3.56,3.56,0,0,0-1.125-2.663,3.712,3.712,0,0,0-5.25,0A3.56,3.56,0,0,0,112.4,10.55v7.8a3.56,3.56,0,0,0,1.125,2.663,3.712,3.712,0,0,0,5.25,0A3.56,3.56,0,0,0,119.9,18.35Zm-15.15,3q0-2.175.15-3.713a12.235,12.235,0,0,1,.525-2.662,12.644,12.644,0,0,1,.863-2.025,14.187,14.187,0,0,1,1.237-1.875,10.337,10.337,0,0,1,3.75-3.037,11.47,11.47,0,0,1,9.75,0,10.337,10.337,0,0,1,3.75,3.037A17.853,17.853,0,0,1,126.05,5.15a10.765,10.765,0,0,1,.9,2.025,11.011,11.011,0,0,1,.488,2.662q.112,1.538.112,3.713,0,2.4-.075,4.05a12.394,12.394,0,0,1-.45,2.925,6.825,6.825,0,0,1-1.162,2.287,14.309,14.309,0,0,1-2.137,2.137,11.387,11.387,0,0,1,2.137,2.1,7.077,7.077,0,0,1,1.162,2.475,16.24,16.24,0,0,1,.45,3.488q.075,2.063.075,5.063,0,2.475-.112,4.087a24.842,24.842,0,0,1-.338,2.813A7.73,7.73,0,0,1,126.462,47a16.156,16.156,0,0,1-1.012,1.725,10.822,10.822,0,0,1-3.6,3.338,12.4,12.4,0,0,1-11.4,0,10.822,10.822,0,0,1-3.6-3.338A16.156,16.156,0,0,1,105.837,47a7.73,7.73,0,0,1-.637-2.025,24.842,24.842,0,0,1-.338-2.812q-.112-1.613-.112-4.087,0-3,.075-5.062a16.239,16.239,0,0,1,.45-3.488,7.077,7.077,0,0,1,1.163-2.475,11.387,11.387,0,0,1,2.137-2.1,14.309,14.309,0,0,1-2.137-2.137,6.825,6.825,0,0,1-1.163-2.287,12.393,12.393,0,0,1-.45-2.925Q104.75,15.95,104.75,13.55Zm15.15,18a3.56,3.56,0,0,0-1.125-2.663,3.712,3.712,0,0,0-5.25,0A3.56,3.56,0,0,0,112.4,31.55v10.5a3.56,3.56,0,0,0,1.125,2.663,3.712,3.712,0,0,0,5.25,0A3.56,3.56,0,0,0,119.9,42.05Zm21.7,21.525,1.275,1,15.75-20.15-1.3-1Zm14.4.75a4.6,4.6,0,0,0,3.375-1.275,5.9,5.9,0,0,0,1.45-4.325,5.877,5.877,0,0,0-1.45-4.3A4.663,4.663,0,0,0,156,42.65a4.766,4.766,0,0,0-3.4,1.275,5.917,5.917,0,0,0-1.45,4.3,5.9,5.9,0,0,0,1.45,4.325A4.621,4.621,0,0,0,156,53.825Zm0-9.05a1.8,1.8,0,0,1,1.6.775,4.414,4.414,0,0,1,.675,2.5c0,2.425-.775,3.675-2.275,3.675-1.475,0-2.275-1.25-2.275-3.55a4.347,4.347,0,0,1,.675-2.6A1.74,1.74,0,0,1,156,44.775Zm-11.775-.425a4.6,4.6,0,0,0,3.375-1.275,5.9,5.9,0,0,0,1.45-4.325,5.877,5.877,0,0,0-1.45-4.3,4.663,4.663,0,0,0-3.375-1.275c-3.05,0-4.85,2.075-4.85,5.575a5.941,5.941,0,0,0,1.45,4.325A4.621,4.621,0,0,0,144.225,44.35Zm0-9.05a1.924,1.924,0,0,1,1.825,1.125,5.488,5.488,0,0,1,.45,2.325c0,2.25-.825,3.5-2.275,3.5-1.475,0-2.275-1.25-2.275-3.55C141.95,36.525,142.775,35.3,144.225,35.3Z" transform="translate(903 3273)" fill="#0052aa"/>
    <path id="パス_1153" data-name="パス 1153" d="M3.875,53V37.9l-2.55,1.875v-2.7L3.875,35.2h2.55V53ZM12.65,38.875a3.888,3.888,0,0,1,.313-1.6,3.744,3.744,0,0,1,.837-1.2,3.6,3.6,0,0,1,1.213-.763,4.067,4.067,0,0,1,2.875,0,3.6,3.6,0,0,1,1.212.763,3.744,3.744,0,0,1,.837,1.2,3.888,3.888,0,0,1,.313,1.6v10.45a3.888,3.888,0,0,1-.312,1.6,3.744,3.744,0,0,1-.837,1.2,3.6,3.6,0,0,1-1.212.763,4.067,4.067,0,0,1-2.875,0,3.6,3.6,0,0,1-1.213-.763,3.744,3.744,0,0,1-.837-1.2,3.888,3.888,0,0,1-.312-1.6Zm2.55,10.45a1.261,1.261,0,0,0,.35.912,1.3,1.3,0,0,0,1.8,0,1.261,1.261,0,0,0,.35-.912V38.875a1.261,1.261,0,0,0-.35-.912,1.3,1.3,0,0,0-1.8,0,1.261,1.261,0,0,0-.35.912Zm18.25-10.85a20.354,20.354,0,0,1-2.425-.1,17,17,0,0,1,.1,2V46.35a17,17,0,0,1-.1,2,20.088,20.088,0,0,1,2.425-.1h5.325a22.028,22.028,0,0,1,2.425.1,16.189,16.189,0,0,1-.1-2V40.375a15.93,15.93,0,0,1,.1-2,20.624,20.624,0,0,1-2.425.1Zm.3,2.35h4.7V45.9h-4.7Zm13.1,14.25a25.31,25.31,0,0,1-.15-3.225V36a25.761,25.761,0,0,1,.15-3,26.145,26.145,0,0,1-2.975.125h-15.5A25.224,25.224,0,0,1,25.45,33a26.688,26.688,0,0,1,.15,3V51.825a27.456,27.456,0,0,1-.15,3.25h2.9V53.7H43.925v1.375Zm-18.5-19.45H43.925v15.6H28.35ZM69.875,32.55a10.21,10.21,0,0,1,.1,1.65q0,7.425-2.7,11.775c-1.825,2.95-4.525,4.975-8.925,6.675a11.461,11.461,0,0,1,1.6,2.475,19.915,19.915,0,0,0,8.375-5.975A19.487,19.487,0,0,0,73.7,54.925a11,11,0,0,1,1.75-2.85A14.432,14.432,0,0,1,70,46.7a17.893,17.893,0,0,0,1.575-3.65,33.56,33.56,0,0,0,1.2-6.975c.225-3.2.225-3.2.25-3.475ZM54.75,48.7a16.342,16.342,0,0,1-2.5.8l.8,3.05c.625-.3.8-.375,1.75-.8a66.909,66.909,0,0,0,9.825-4.975l-.6-2.625a52.248,52.248,0,0,1-6.425,3.4l-.125-11.925v-.55a22.078,22.078,0,0,1,.125-2.45H54.425a22.872,22.872,0,0,1,.2,2.975Zm4.9-13.1a28.886,28.886,0,0,1,4.775,6.375L67,40.2a37.412,37.412,0,0,0-4.95-6.125Zm32.275,6.55H97.8a26.1,26.1,0,0,1,2.9.15V39.325a25.464,25.464,0,0,1-2.9.15H91.925V35.2a20.173,20.173,0,0,1,.175-2.875H88.825A21.4,21.4,0,0,1,89,35.2V51.35H83.3a32.989,32.989,0,0,1-3.45-.15v3a31.25,31.25,0,0,1,3.45-.175H99.175a27.279,27.279,0,0,1,3.325.175v-3a32.107,32.107,0,0,1-3.375.15h-7.2Zm24.85-5.825v3.65h3.65v-3.65Zm0,10.7v3.65h3.65v-3.65ZM145.225,53V7.7l-7.65,5.625v-8.1L145.225-.4h7.65V53ZM186.7,10.55a3.56,3.56,0,0,0-1.125-2.663,3.712,3.712,0,0,0-5.25,0A3.56,3.56,0,0,0,179.2,10.55v7.8a3.56,3.56,0,0,0,1.125,2.663,3.712,3.712,0,0,0,5.25,0A3.56,3.56,0,0,0,186.7,18.35Zm-15.15,3q0-2.175.15-3.713a12.236,12.236,0,0,1,.525-2.662,12.645,12.645,0,0,1,.862-2.025,14.187,14.187,0,0,1,1.238-1.875,10.337,10.337,0,0,1,3.75-3.037,11.47,11.47,0,0,1,9.75,0,10.337,10.337,0,0,1,3.75,3.037A17.854,17.854,0,0,1,192.85,5.15a10.765,10.765,0,0,1,.9,2.025,11.011,11.011,0,0,1,.488,2.662q.112,1.538.113,3.713,0,2.4-.075,4.05a12.394,12.394,0,0,1-.45,2.925,6.825,6.825,0,0,1-1.162,2.287,14.309,14.309,0,0,1-2.138,2.137,11.387,11.387,0,0,1,2.138,2.1,7.077,7.077,0,0,1,1.162,2.475,16.24,16.24,0,0,1,.45,3.488q.075,2.063.075,5.063,0,2.475-.113,4.087a24.839,24.839,0,0,1-.338,2.813A7.729,7.729,0,0,1,193.262,47a16.153,16.153,0,0,1-1.012,1.725,10.822,10.822,0,0,1-3.6,3.338,12.4,12.4,0,0,1-11.4,0,10.822,10.822,0,0,1-3.6-3.338A16.159,16.159,0,0,1,172.637,47,7.73,7.73,0,0,1,172,44.975a24.839,24.839,0,0,1-.337-2.812q-.112-1.613-.113-4.087,0-3,.075-5.062a16.24,16.24,0,0,1,.45-3.488,7.077,7.077,0,0,1,1.163-2.475,11.386,11.386,0,0,1,2.137-2.1,14.309,14.309,0,0,1-2.137-2.137,6.825,6.825,0,0,1-1.163-2.287,12.394,12.394,0,0,1-.45-2.925Q171.55,15.95,171.55,13.55Zm15.15,18a3.56,3.56,0,0,0-1.125-2.663,3.712,3.712,0,0,0-5.25,0A3.56,3.56,0,0,0,179.2,31.55v10.5a3.56,3.56,0,0,0,1.125,2.663,3.712,3.712,0,0,0,5.25,0A3.56,3.56,0,0,0,186.7,42.05Zm21.7,21.525,1.275,1,15.75-20.15-1.3-1Zm14.4.75a4.6,4.6,0,0,0,3.375-1.275,5.9,5.9,0,0,0,1.45-4.325,5.877,5.877,0,0,0-1.45-4.3A4.663,4.663,0,0,0,222.8,42.65a4.766,4.766,0,0,0-3.4,1.275,5.917,5.917,0,0,0-1.45,4.3,5.9,5.9,0,0,0,1.45,4.325A4.621,4.621,0,0,0,222.8,53.825Zm0-9.05a1.8,1.8,0,0,1,1.6.775,4.414,4.414,0,0,1,.675,2.5c0,2.425-.775,3.675-2.275,3.675-1.475,0-2.275-1.25-2.275-3.55a4.347,4.347,0,0,1,.675-2.6A1.74,1.74,0,0,1,222.8,44.775Zm-11.775-.425a4.6,4.6,0,0,0,3.375-1.275,5.9,5.9,0,0,0,1.45-4.325,5.877,5.877,0,0,0-1.45-4.3,4.663,4.663,0,0,0-3.375-1.275c-3.05,0-4.85,2.075-4.85,5.575a5.941,5.941,0,0,0,1.45,4.325A4.621,4.621,0,0,0,211.025,44.35Zm0-9.05a1.924,1.924,0,0,1,1.825,1.125,5.488,5.488,0,0,1,.45,2.325c0,2.25-.825,3.5-2.275,3.5-1.475,0-2.275-1.25-2.275-3.55C208.75,36.525,209.575,35.3,211.025,35.3Z" transform="translate(420 2949)" fill="#0052aa"/>
    <path id="パス_1154" data-name="パス 1154" d="M7.525-17.8l-2.9,7.475.05.05a1,1,0,0,1,.387-.162A3.067,3.067,0,0,1,5.75-10.5,2.5,2.5,0,0,1,7-10.175a2.537,2.537,0,0,1,.9.825,2.825,2.825,0,0,1,.275.55,4.212,4.212,0,0,1,.175.725q.05.45.075,1.138T8.45-5.2q0,.875-.025,1.438t-.075.938a3.513,3.513,0,0,1-.187.675,4.619,4.619,0,0,1-.288.575A3.448,3.448,0,0,1,6.537-.3,3.924,3.924,0,0,1,4.65.15,3.768,3.768,0,0,1,2.775-.312,3.633,3.633,0,0,1,1.45-1.575a3.3,3.3,0,0,1-.312-.575,2.673,2.673,0,0,1-.162-.675,6.335,6.335,0,0,1-.1-.937Q.85-4.325.85-5.2q0-.825.025-1.362T.95-7.5a3.985,3.985,0,0,1,.15-.687q.1-.312.225-.663l3.35-8.95ZM5.9-6.975A1.206,1.206,0,0,0,5.525-7.9a1.242,1.242,0,0,0-.875-.35,1.242,1.242,0,0,0-.875.35,1.206,1.206,0,0,0-.375.925v3.3a1.206,1.206,0,0,0,.375.925,1.242,1.242,0,0,0,.875.35,1.242,1.242,0,0,0,.875-.35A1.206,1.206,0,0,0,5.9-3.675ZM14.8-7.6c1.575-1.7,2.725-2.3,4.35-2.3,1.325,0,2.1.3,4.3,1.7a12.776,12.776,0,0,0,3.425,1.85,7.112,7.112,0,0,0,2.2.35A7.021,7.021,0,0,0,33.4-7.425,10.917,10.917,0,0,0,35.775-9.85l-2-2a6.7,6.7,0,0,1-2.6,2.275,4.941,4.941,0,0,1-1.85.475c-1.2,0-2.525-.525-4.425-1.75a17.945,17.945,0,0,0-2.275-1.375,7.015,7.015,0,0,0-3.225-.75,7.124,7.124,0,0,0-4.1,1.3A8.6,8.6,0,0,0,12.825-9.45ZM41.075,0l2.9-7.475-.05-.05a1,1,0,0,1-.388.163,3.067,3.067,0,0,1-.687.063,2.5,2.5,0,0,1-1.25-.325,2.537,2.537,0,0,1-.9-.825,2.184,2.184,0,0,1-.275-.538,3.456,3.456,0,0,1-.15-.738,9.147,9.147,0,0,1-.1-1.137q-.025-.687-.025-1.738,0-.875.025-1.437a7,7,0,0,1,.1-.963,2.645,2.645,0,0,1,.163-.65,4.62,4.62,0,0,1,.287-.575A3.448,3.448,0,0,1,42.063-17.5a3.924,3.924,0,0,1,1.888-.45,3.768,3.768,0,0,1,1.875.462,3.633,3.633,0,0,1,1.325,1.263,6.415,6.415,0,0,1,.3.575,3,3,0,0,1,.2.65q.05.4.075.963T47.75-12.6q0,.825-.025,1.363t-.075.913q-.075.4-.162.712t-.212.663L43.925,0ZM42.7-10.825a1.206,1.206,0,0,0,.375.925,1.242,1.242,0,0,0,.875.35,1.242,1.242,0,0,0,.875-.35,1.206,1.206,0,0,0,.375-.925v-3.3a1.206,1.206,0,0,0-.375-.925,1.242,1.242,0,0,0-.875-.35,1.242,1.242,0,0,0-.875.35,1.206,1.206,0,0,0-.375.925Zm18.25-3.7a20.354,20.354,0,0,1-2.425-.1,17,17,0,0,1,.1,2V-6.65a17,17,0,0,1-.1,2,20.088,20.088,0,0,1,2.425-.1h5.325a22.028,22.028,0,0,1,2.425.1,16.19,16.19,0,0,1-.1-2v-5.975a15.931,15.931,0,0,1,.1-2,20.624,20.624,0,0,1-2.425.1Zm.3,2.35h4.7V-7.1h-4.7Zm13.1,14.25A25.31,25.31,0,0,1,74.2-1.15V-17a25.761,25.761,0,0,1,.15-3,26.145,26.145,0,0,1-2.975.125h-15.5A25.223,25.223,0,0,1,52.95-20a26.687,26.687,0,0,1,.15,3V-1.175a27.456,27.456,0,0,1-.15,3.25h2.9V.7H71.425V2.075Zm-18.5-19.45H71.425v15.6H55.85Zm33.425.7v3.65h3.65v-3.65Zm0,10.7v3.65h3.65v-3.65ZM117.725,0V-45.3l-7.65,5.625v-8.1l7.65-5.625h7.65V0ZM144.05,0V-7.2l13.8-26.025a9.5,9.5,0,0,0,1.2-3.413q.15-1.463.15-3.638,0-.975-.037-2.062a5.005,5.005,0,0,0-.413-1.912,3.551,3.551,0,0,0-1.125-1.388,3.582,3.582,0,0,0-2.175-.562,3.781,3.781,0,0,0-2.738.975,3.777,3.777,0,0,0-1.012,2.85v4.35h-7.65v-4.2a11.3,11.3,0,0,1,.9-4.5,11.612,11.612,0,0,1,2.475-3.675,11.231,11.231,0,0,1,3.6-2.513,10.912,10.912,0,0,1,4.5-.937,11.215,11.215,0,0,1,5.138,1.088,10.249,10.249,0,0,1,3.563,2.962,12.916,12.916,0,0,1,1.987,4.275,19.8,19.8,0,0,1,.638,5.1q0,1.95-.075,3.263a19.742,19.742,0,0,1-.3,2.512,11.073,11.073,0,0,1-.75,2.4q-.525,1.2-1.425,2.925L153.05-7.65h13.8V0ZM180.9.075l1.275,1,15.75-20.15-1.3-1Zm14.4.75A4.6,4.6,0,0,0,198.675-.45a5.9,5.9,0,0,0,1.45-4.325,5.877,5.877,0,0,0-1.45-4.3A4.663,4.663,0,0,0,195.3-10.35a4.766,4.766,0,0,0-3.4,1.275,5.917,5.917,0,0,0-1.45,4.3A5.9,5.9,0,0,0,191.9-.45,4.621,4.621,0,0,0,195.3.825Zm0-9.05a1.8,1.8,0,0,1,1.6.775,4.414,4.414,0,0,1,.675,2.5c0,2.425-.775,3.675-2.275,3.675-1.475,0-2.275-1.25-2.275-3.55a4.347,4.347,0,0,1,.675-2.6A1.74,1.74,0,0,1,195.3-8.225ZM183.525-8.65A4.6,4.6,0,0,0,186.9-9.925a5.9,5.9,0,0,0,1.45-4.325,5.877,5.877,0,0,0-1.45-4.3,4.663,4.663,0,0,0-3.375-1.275c-3.05,0-4.85,2.075-4.85,5.575a5.941,5.941,0,0,0,1.45,4.325A4.621,4.621,0,0,0,183.525-8.65Zm0-9.05a1.924,1.924,0,0,1,1.825,1.125,5.488,5.488,0,0,1,.45,2.325c0,2.25-.825,3.5-2.275,3.5-1.475,0-2.275-1.25-2.275-3.55C181.25-16.475,182.075-17.7,183.525-17.7Z" transform="translate(368 3142)" fill="#0052aa"/>
    <path id="パス_847" data-name="パス 847" d="M4063.71,3015H4307.1l30.553,30.553" transform="translate(-3652 7)" fill="none" stroke="#0052aa" stroke-width="1"/>
    <path id="パス_848" data-name="パス 848" d="M4009.756,3141h215.662L4262,3119.623" transform="translate(-3652 23)" fill="none" stroke="#0052aa" stroke-width="1"/>
    <path id="パス_849" data-name="パス 849" d="M4085.9,3370h303.013l37.6-61.521" transform="translate(-3728 8)" fill="none" stroke="#0052aa" stroke-width="1"/>
    <path id="パス_850" data-name="パス 850" d="M4494.919,3311l21.1,33.558h215.91" transform="translate(-3652)" fill="none" stroke="#0052aa" stroke-width="1"/>
    <path id="パス_851" data-name="パス 851" d="M4505.88,3065l21.865-33.365h172.773" transform="translate(-3652)" fill="none" stroke="#0052aa" stroke-width="1"/>
  </g>
</svg>
