<svg xmlns="http://www.w3.org/2000/svg" xmlns:xlink="http://www.w3.org/1999/xlink" width="706.264" height="302.867" viewBox="0 0 706.264 302.867">
  <defs>
    <linearGradient id="linear-gradient" y1="0.5" x2="1" y2="0.5" gradientUnits="objectBoundingBox">
      <stop offset="0" stop-color="#03a8e5"/>
      <stop offset="1" stop-color="#012869"/>
    </linearGradient>
    <filter id="パス_301" x="0" y="1" width="706.264" height="301.867" filterUnits="userSpaceOnUse">
      <feOffset dx="10" dy="10" input="SourceAlpha"/>
      <feGaussianBlur stdDeviation="15" result="blur"/>
      <feFlood flood-opacity="0.161"/>
      <feComposite operator="in" in2="blur"/>
      <feComposite in="SourceGraphic"/>
    </filter>
    <clipPath id="clip-path">
      <rect id="長方形_201" data-name="長方形 201" width="145" height="163" transform="translate(0.499 0.136)" fill="#9eddf6"/>
    </clipPath>
    <linearGradient id="linear-gradient-2" x1="-0.03" xlink:href="#linear-gradient"/>
    <filter id="長方形_208" x="19.93" y="0" width="281" height="110" filterUnits="userSpaceOnUse">
      <feOffset input="SourceAlpha"/>
      <feGaussianBlur stdDeviation="5" result="blur-2"/>
      <feFlood flood-color="#013778" flood-opacity="0.322"/>
      <feComposite operator="in" in2="blur-2"/>
      <feComposite in="SourceGraphic"/>
    </filter>
  </defs>
  <g id="平均残業時間" transform="translate(-293.07 -2529)">
    <g id="グループ_222" data-name="グループ 222" transform="translate(-201.7 191)">
      <g transform="matrix(1, 0, 0, 1, 494.77, 2338)" filter="url(#パス_301)">
        <path id="パス_301-2" data-name="パス 301" d="M0,0H616.264V211.867H0Z" transform="translate(35 36)" fill="url(#linear-gradient)"/>
      </g>
      <path id="パス_302" data-name="パス 302" d="M0,0H608.264V203.867H0Z" transform="translate(533.568 2378)" fill="#edf9ff"/>
    </g>
    <g id="残業人" transform="translate(761.5 2587.864)" clip-path="url(#clip-path)">
      <path id="パス_831" data-name="パス 831" d="M2711.527,6867.439h-8.816a10.566,10.566,0,0,0,2.2-4.183v-26.863c-.291-3.367-3.414-6.525-3.863-6.963l2.5-26.886-3.827-.356-4.992,53.673,3.826.357,2.177-23.4a20.629,20.629,0,0,1,1.974,3.576v26.863a4.52,4.52,0,0,1-2.01,1.979h-12.32v2.2h-9.92v-2.46l-7.622.326c-.115-.671-1.631-1.687-2.4-2.135a45.117,45.117,0,0,0-6.375-3.366c-1.72-.518-8.767-.894-10.629-1.29-.7-.149-1.529-.361-2.285-.569.052-.227.084-.369.084-.369s-14.052-4.083-16.826-4.821-8.765-2.005-9.29-2.1-.966-.176-.966-.176l-.748-.131c-.336-.06-1.225-.278-1.225-.278s-8.342-6.479-11.642-8.715c-.915-1.746-1.925-3.371-2.359-4.058l.4.22-.458-.68c-.021-.029-1.435-2.114-3.153-4.114.625-1.212,1.475-2.735,1.814-2.791.567-.093,3.684.186,4.25.186s1.04-.278,1.6-1.02a6.56,6.56,0,0,0,.661-2.688,2.073,2.073,0,0,0,.945-.556,1.186,1.186,0,0,0,.283-1.112l.473-.094c.471-.091.378-.648.471-1.112s.378-1.483.378-1.483,1.889.185,2.079-.555-.378-2.689-.661-3.709a3.289,3.289,0,0,1-.095-2.131,6.851,6.851,0,0,0,.661-2.6c0-.926-.567-4.357-.567-4.357s1.7,0,2.078-.927-.378-3.337-2.078-4.82-6.99-4.45-9.822-4.82-5.666.37-9.066,1.669-5.374,5-5.666,8.158c-.851,9.177,2.361,13.348,2.361,14.461a8.3,8.3,0,0,1-.669,2.232c-.279-.172-.455-.28-.465-.287l-.16-.1-2.724,3.686.12.066a32.689,32.689,0,0,0-6.177,6.047c-2.546,3.447-4.866,11.943-5.135,17.851-.135,2.974.047,12.026.264,20.284-.633-5.3-1.259-10.3-1.611-12.436-.9-5.467-3.953-13.581-5.93-13.933s-4.851,1.057-4.851,3,1.618,43.739,1.978,49.737,6.288,10.758,10.241,10.758h15.632v22.045h-1.1v8.294s-19.665,5.589-21.772,6.31a3.114,3.114,0,0,0-1.771,2.512,3.722,3.722,0,0,0-2,4.191,3.594,3.594,0,0,0,7.11-.844,3.711,3.711,0,0,0-1.406-2.911v.727l22.11-3.135.592,5.728a3.683,3.683,0,1,0,4.646-.077l.53-5.6,21.725,3.08v-.2a3.64,3.64,0,0,0-1.374,3.755,3.775,3.775,0,0,0,7.435-.844,3.688,3.688,0,0,0-2.188-3.348,3.123,3.123,0,0,0-1.853-2.512c-2.2-.721-22.78-6.309-22.78-6.309h-.184v-8.818h-1.1v-22.045h22.867s2.485-1.073,2.485-3.036v-2.059l1.242.272c1.243.267,1.865-.091,2.486.179l1.242.535s-.087,5.806-.266,10.45.71,28.133.71,28.133.281.041.743.1a9.811,9.811,0,0,0-.564,2.315,19.127,19.127,0,0,0,.443,4.108l.088,1.966,4.884.268s.357-1.7.392-1.82,3.6,2.267,4.756,2.444c.909.141,6.782.43,10.3.4v.939h5.511v-17.636h44.091v17.636h6.614v-17.636h1.1v-66.136h2.2Zm-119.413-44.222a89.509,89.509,0,0,1,8.578,6.011,37.35,37.35,0,0,1,4.879,5.8l-.844-.469c-1.529-1.074-3.957-2.744-5.968-3.966a62.114,62.114,0,0,0-7.737-3.65l-1.15-.638Zm70.182,41.8-.835.037a2.485,2.485,0,0,0-.014-.437s.376.182.849.4M2652,6936.882v11.663s-6.375-3.682-7.074-4.312c-.025-.023-.051-.052-.075-.077,1.069-.162,1.788-.284,1.788-.284s-.59-26.849-.376-32.451,1.258-14.154-.714-17.134-13.152-7.655-18.741-9.908c-3.955-1.6-9.962-3.841-13.138-5.018a18.637,18.637,0,0,0-2.637-2.464c-.992-.541-1.354.18-1.354-.721s-1.892-2.613-1.892-2.613a51.017,51.017,0,0,0,.631-5.95c0-2.073-.451-2.885-.36-3.605s1.172-3.426,1.621-5.5c.018-.076.036-.179.053-.271,2.417,1.374,4.529,2.562,5.174,2.89,1.764.9,3.8.938,5.539,1.367s24.681,5.541,24.681,5.541,1.263-2.125,2.3-3.995c.044-.077.087-.169.131-.259l3.043.225a14,14,0,0,0,2.371,1.413l-3.18.129v1.89h-2.2v3.307h3.307v66.136Z" transform="translate(-2566.027 -6795.792)" fill="#9eddf6"/>
    </g>
    <path id="パス_1149" data-name="パス 1149" d="M6.035,0,15.9-25.415l-.17-.17a3.4,3.4,0,0,1-1.318.552,10.426,10.426,0,0,1-2.337.212,8.492,8.492,0,0,1-4.25-1.105,8.626,8.626,0,0,1-3.06-2.8,7.426,7.426,0,0,1-.935-1.827,11.75,11.75,0,0,1-.51-2.507,31.1,31.1,0,0,1-.34-3.868Q2.89-39.27,2.89-42.84q0-2.975.085-4.888A23.8,23.8,0,0,1,3.315-51a8.993,8.993,0,0,1,.552-2.21,15.705,15.705,0,0,1,.977-1.955A11.725,11.725,0,0,1,9.392-59.5a13.341,13.341,0,0,1,6.418-1.53,12.811,12.811,0,0,1,6.375,1.572,12.352,12.352,0,0,1,4.5,4.292,21.811,21.811,0,0,1,1.02,1.955A10.182,10.182,0,0,1,28.39-51q.17,1.36.255,3.273t.085,4.888q0,2.8-.085,4.632t-.255,3.1q-.255,1.36-.552,2.423t-.722,2.252L15.725,0ZM11.56-36.805a4.1,4.1,0,0,0,1.275,3.145,4.223,4.223,0,0,0,2.975,1.19,4.223,4.223,0,0,0,2.975-1.19,4.1,4.1,0,0,0,1.275-3.145v-11.22a4.1,4.1,0,0,0-1.275-3.145,4.223,4.223,0,0,0-2.975-1.19,4.223,4.223,0,0,0-2.975,1.19,4.1,4.1,0,0,0-1.275,3.145ZM43.69,0V-8.67h8.67V0ZM77.605-35.02q3.91,0,5.4-.935T84.49-40.29v-7.82a4.226,4.226,0,0,0-1.147-3.06,4.109,4.109,0,0,0-3.1-1.19,3.66,3.66,0,0,0-3.272,1.445,5.019,5.019,0,0,0-.978,2.8v4.93H67.32v-5.015a12.6,12.6,0,0,1,1.02-5.015,12.194,12.194,0,0,1,2.805-4.08,13.939,13.939,0,0,1,4.165-2.72,12.809,12.809,0,0,1,5.1-1.02,11.327,11.327,0,0,1,5.907,1.4,13.6,13.6,0,0,1,3.528,2.847,18.572,18.572,0,0,1,1.488,2.04A9.928,9.928,0,0,1,92.4-52.275a33.893,33.893,0,0,1,.765,8.33q0,3.145-.128,5.1a10.669,10.669,0,0,1-.637,3.23,6.46,6.46,0,0,1-1.658,2.3,19.658,19.658,0,0,1-2.933,2.04,16.466,16.466,0,0,1,3.1,2.38,7,7,0,0,1,1.573,2.55,13.172,13.172,0,0,1,.595,3.612q.085,2.083.085,5.313,0,2.975-.128,4.93a25.368,25.368,0,0,1-.382,3.23,10.075,10.075,0,0,1-.68,2.295,13.991,13.991,0,0,1-1.105,1.955,13.734,13.734,0,0,1-4.122,3.952A12.256,12.256,0,0,1,80.155.51,15.281,15.281,0,0,1,75.82-.17a11.819,11.819,0,0,1-4.165-2.21,12,12,0,0,1-3.1-4A13.4,13.4,0,0,1,67.32-12.41v-4.93h8.67v4.505a4.927,4.927,0,0,0,1.147,3.357,3.9,3.9,0,0,0,3.1,1.318,3.9,3.9,0,0,0,3.1-1.318,5.182,5.182,0,0,0,1.147-3.528v-8.67q0-3.57-1.36-4.675a3.782,3.782,0,0,0-2.083-.85,27.983,27.983,0,0,0-3.442-.17ZM122.82-19.08v2.85h-3.09a23.077,23.077,0,0,1-3.33-.18v3.18c.93-.09,2.04-.15,3.3-.15h7.11v2.55H119.7a22.263,22.263,0,0,1-3.27-.15v3.27a26.868,26.868,0,0,1,3.21-.18h7.17V-1.5c0,.66-.18.81-1.11.81a26.727,26.727,0,0,1-3.36-.24,7.733,7.733,0,0,1,.72,3.15c2.07.03,2.07.03,2.34.03a8.408,8.408,0,0,0,3.3-.48c.9-.42,1.2-1.14,1.2-2.88V-7.89h.39a16.311,16.311,0,0,1,2.97.18v-3.27a18.3,18.3,0,0,1-2.97.15h-.39v-2.55h.51a19.511,19.511,0,0,1,2.94.15v-3.18a22.142,22.142,0,0,1-3.27.18h-4.14v-2.85h3.3a21.763,21.763,0,0,1,3.09.15v-3.18a22.118,22.118,0,0,1-3.12.18h-3.27v-.81a15.949,15.949,0,0,1,.15-2.25h-3.45a13.408,13.408,0,0,1,.18,2.25v.81h-2.64a21.824,21.824,0,0,1-3.12-.18v3.18a25.405,25.405,0,0,1,3.21-.15ZM106.95-3.03a27.33,27.33,0,0,1-.18,3.57h3.15V-1.98h2.73v1.5h3.06c-.06-.75-.09-1.41-.09-3V-20.64a22.508,22.508,0,0,1,.09-2.97c-.72.06-1.26.09-2.61.09h-3.63a25.99,25.99,0,0,1-2.64-.09,28.123,28.123,0,0,1,.12,3.03Zm3-17.64h2.7v6.27h-2.7Zm0,9.03h2.7v6.75h-2.7Zm14.13,8.7a23.022,23.022,0,0,0-3.93-4.59L117.6-5.85a22.917,22.917,0,0,1,3.84,4.92Zm34.44-6.84c0-1.17.03-1.92.09-2.7a24.127,24.127,0,0,1-2.79.12h-6.69a24.461,24.461,0,0,1-2.79-.12c.06.81.09,1.65.09,2.7v7.32a20.682,20.682,0,0,1-.21,3h3.18V-1.14h6.36c.24,0,.81,0,1.68.03a11.394,11.394,0,0,1,.78,3.09c1.53.09,1.65.09,2.07.09a9.138,9.138,0,0,0,3.39-.36c1.08-.45,1.44-1.23,1.44-3.03V-20.97c0-1.5.03-2.25.12-3.33a26.911,26.911,0,0,1-3.09.12h-5.76a25.669,25.669,0,0,1-3.06-.12c.06.93.09,1.77.09,2.79v4.59c0,1.29-.03,1.86-.09,2.73.75-.06,1.71-.09,2.76-.09H162V-1.74c0,.6-.27.81-1.11.81-.54,0-1.62-.09-2.28-.15-.06-.78-.09-1.47-.09-2.61Zm-2.13-11.97H162v1.5h-5.61Zm0,3.63H162v1.53h-5.61ZM149.4-9.84h6.12v1.8H149.4Zm0,4.23h6.12v1.95H149.4Zm-6.27-8.67h5.43c1.05,0,1.98.03,2.76.09-.06-.66-.09-1.35-.09-2.73v-4.59c0-1.17.03-1.83.09-2.79a25.348,25.348,0,0,1-3.06.12h-5.31a27.248,27.248,0,0,1-3.09-.12,33.261,33.261,0,0,1,.12,3.36V-1.35a26.82,26.82,0,0,1-.18,3.72h3.51a26.023,26.023,0,0,1-.18-3.69Zm0-7.47h5.16v1.5h-5.16Zm0,3.63h5.16v1.53h-5.16ZM194.7-25.5,171.99,2.7h4.41l22.74-28.2ZM225.21-6.93v5.19c0,.66-.21.81-1.11.81a30.334,30.334,0,0,1-4.41-.36,10.854,10.854,0,0,1,.87,3.36c1.53.09,2.52.12,3.48.12,1.98,0,2.82-.15,3.48-.6.75-.48,1.08-1.35,1.08-2.85V-20.7a22.629,22.629,0,0,1,.15-3.39,27.04,27.04,0,0,1-3.48.15H212.76a30.268,30.268,0,0,1-3.51-.15,42.274,42.274,0,0,1,.15,4.53c0,7.8-.3,11.31-1.2,14.1a11.358,11.358,0,0,1-3.21,5.28,11.605,11.605,0,0,1,2.79,2.76,16.822,16.822,0,0,0,3.54-5.94,22.235,22.235,0,0,0,.87-3.57ZM212.55-9.99c.18-2.43.24-3.09.24-4.02h12.42v4.02Zm.27-7.08v-3.75h12.39v3.75ZM265.68,2.67a23.056,23.056,0,0,1-3.81-5.97,20.294,20.294,0,0,1-1.59-8.22,19.685,19.685,0,0,1,1.56-7.95,23.378,23.378,0,0,1,3.81-5.97h-4.2a24.218,24.218,0,0,0-3.3,5.91,21.231,21.231,0,0,0-1.53,8.01,22.077,22.077,0,0,0,1.59,8.28,24.027,24.027,0,0,0,3.27,5.91ZM270.57,0V-2.88l5.52-10.41a3.8,3.8,0,0,0,.48-1.365q.06-.585.06-1.455,0-.39-.015-.825a2,2,0,0,0-.165-.765,1.42,1.42,0,0,0-.45-.555,1.433,1.433,0,0,0-.87-.225,1.512,1.512,0,0,0-1.1.39,1.511,1.511,0,0,0-.4,1.14v1.74h-3.06v-1.68a4.52,4.52,0,0,1,.36-1.8,4.644,4.644,0,0,1,.99-1.47,4.492,4.492,0,0,1,1.44-1.005,4.365,4.365,0,0,1,1.8-.375,4.486,4.486,0,0,1,2.055.435,4.1,4.1,0,0,1,1.425,1.185,5.166,5.166,0,0,1,.8,1.71,7.917,7.917,0,0,1,.255,2.04q0,.78-.03,1.305a7.9,7.9,0,0,1-.12,1,4.43,4.43,0,0,1-.3.96q-.21.48-.57,1.17l-4.5,8.67h5.52V0Zm14.16-16.95a4.665,4.665,0,0,1,.375-1.92,4.492,4.492,0,0,1,1.005-1.44,4.324,4.324,0,0,1,1.455-.915,4.8,4.8,0,0,1,1.725-.315,4.8,4.8,0,0,1,1.725.315,4.324,4.324,0,0,1,1.455.915,4.493,4.493,0,0,1,1.005,1.44,4.665,4.665,0,0,1,.375,1.92V-4.41a4.665,4.665,0,0,1-.375,1.92,4.493,4.493,0,0,1-1.005,1.44,4.324,4.324,0,0,1-1.455.915A4.8,4.8,0,0,1,289.29.18a4.8,4.8,0,0,1-1.725-.315,4.324,4.324,0,0,1-1.455-.915A4.492,4.492,0,0,1,285.1-2.49a4.665,4.665,0,0,1-.375-1.92Zm3.06,12.54a1.513,1.513,0,0,0,.42,1.095,1.435,1.435,0,0,0,1.08.435,1.435,1.435,0,0,0,1.08-.435,1.513,1.513,0,0,0,.42-1.095V-16.95a1.513,1.513,0,0,0-.42-1.095,1.435,1.435,0,0,0-1.08-.435,1.435,1.435,0,0,0-1.08.435,1.513,1.513,0,0,0-.42,1.095ZM302.52,0V-18.12l-3.06,2.25v-3.24l3.06-2.25h3.06V0Zm11.64,0,3.48-8.97-.06-.06a1.2,1.2,0,0,1-.465.195,3.68,3.68,0,0,1-.825.075,3,3,0,0,1-1.5-.39,3.045,3.045,0,0,1-1.08-.99,2.621,2.621,0,0,1-.33-.645,4.149,4.149,0,0,1-.18-.885,10.968,10.968,0,0,1-.12-1.365q-.03-.825-.03-2.085,0-1.05.03-1.725A8.394,8.394,0,0,1,313.2-18a3.174,3.174,0,0,1,.195-.78,5.545,5.545,0,0,1,.345-.69A4.138,4.138,0,0,1,315.345-21a4.709,4.709,0,0,1,2.265-.54,4.522,4.522,0,0,1,2.25.555,4.36,4.36,0,0,1,1.59,1.515,7.7,7.7,0,0,1,.36.69,3.593,3.593,0,0,1,.24.78q.06.48.09,1.155t.03,1.725q0,.99-.03,1.635t-.09,1.1q-.09.48-.195.855t-.255.795L317.58,0Zm1.95-12.99a1.447,1.447,0,0,0,.45,1.11,1.49,1.49,0,0,0,1.05.42,1.491,1.491,0,0,0,1.05-.42,1.447,1.447,0,0,0,.45-1.11v-3.96a1.447,1.447,0,0,0-.45-1.11,1.491,1.491,0,0,0-1.05-.42,1.49,1.49,0,0,0-1.05.42,1.447,1.447,0,0,0-.45,1.11Zm16.41,5.55h-1.53a25.142,25.142,0,0,1-3.27-.18V-4.2a25.8,25.8,0,0,1,3.27-.18h10.08V-.69a21.865,21.865,0,0,1-.18,3.27h3.66a18.066,18.066,0,0,1-.18-3.21V-4.38h6.96a25.468,25.468,0,0,1,3.27.18V-7.62a24.506,24.506,0,0,1-3.27.18h-6.96V-12.3h4.92a28.232,28.232,0,0,1,3,.12v-3.18a22.022,22.022,0,0,1-3.09.15h-4.83v-3.9h6.12a22.08,22.08,0,0,1,3.06.15v-3.27a21.3,21.3,0,0,1-3.06.15H336.45c.54-1.17.84-1.8.87-1.89.21-.45.27-.54.45-.9l-3.57-.72a8.666,8.666,0,0,1-.72,2.19c-1.23,2.94-2.79,4.92-5.85,7.53a13.132,13.132,0,0,1,2.22,2.67,27.664,27.664,0,0,0,4.95-5.91h6.27v3.9h-6.54c-.81,0-1.47-.03-2.1-.09a16.472,16.472,0,0,1,.09,1.74Zm3.15,0V-12.3h5.4v4.86Zm34.41-7.98v2.82a17.691,17.691,0,0,1-.12,1.89c.54-.03.93-.03,2.1-.03h8.34c1.2,0,1.26,0,1.95.03a16.593,16.593,0,0,1-.09-1.89v-2.82h2.88a18.992,18.992,0,0,1,2.67.12v-2.97a16.209,16.209,0,0,1-2.67.15h-2.88v-2.1h2.31a30.984,30.984,0,0,1,3.15.12v-3.12a27.107,27.107,0,0,1-3.63.18h-7.44v-.63a7.21,7.21,0,0,1,.15-1.74h-3.57a10.078,10.078,0,0,1,.15,1.71v.66h-7.47c-1.29,0-2.34-.06-3.39-.15.09,1.08.12,1.86.12,4.08,0,7.11-.21,10.41-.87,13.53a16.248,16.248,0,0,1-1.86,5.13,12.4,12.4,0,0,1,2.52,2.76,21.6,21.6,0,0,0,2.55-7.14,62.229,62.229,0,0,0,.84-10.59Zm-4.23-2.7v-2.1h4.23v2.1Zm7.38,0v-2.1h5.88v2.1Zm0,2.7h5.88v2.07h-5.88Zm9.84,6.3c-.72.06-1.26.09-2.49.09H370.11a20.852,20.852,0,0,1-3.21-.15v2.82c.63-.06,1.08-.09,2.13-.12a17.4,17.4,0,0,0,4.08,4.26,28.35,28.35,0,0,1-8.58,1.68,10.2,10.2,0,0,1,1.17,3.09A32.314,32.314,0,0,0,375.96-.39c2.79,1.47,5.79,2.28,10.83,2.91a14.673,14.673,0,0,1,1.26-3.39,26.364,26.364,0,0,1-8.88-1.41,24.562,24.562,0,0,0,4.95-4.5c.27-.3.3-.33.57-.6Zm-3.21,2.64a16.9,16.9,0,0,1-3.72,2.82,11.773,11.773,0,0,1-3.48-2.82Zm17.43,9.15a25.062,25.062,0,0,0,3.27-5.91,22.53,22.53,0,0,0,1.56-8.28,21.23,21.23,0,0,0-1.53-8.01,23.945,23.945,0,0,0-3.27-5.91h-4.23a24.511,24.511,0,0,1,3.84,5.97,19.475,19.475,0,0,1,1.53,7.95,20.194,20.194,0,0,1-1.59,8.22,23.056,23.056,0,0,1-3.81,5.97Z" transform="translate(408 2733)" fill="#0052aa"/>
    <g transform="matrix(1, 0, 0, 1, 293.07, 2529)" filter="url(#長方形_208)">
      <rect id="長方形_208-2" data-name="長方形 208" width="251" height="80" transform="translate(34.93 15)" fill="url(#linear-gradient-2)"/>
    </g>
    <path id="パス_1148" data-name="パス 1148" d="M11.05-17.675v8.5H4.3A19.106,19.106,0,0,1,1.225-9.35v2.925A24.127,24.127,0,0,1,4.375-6.6H11.05v5.575A27.582,27.582,0,0,1,10.875,2.2H14.05a29.126,29.126,0,0,1-.175-3.225V-6.6H20.75a21.707,21.707,0,0,1,3.15.175V-9.35a18.732,18.732,0,0,1-2.975.175h-7.05v-8.5H19.8a26.081,26.081,0,0,1,3.05.15v-2.85a25.709,25.709,0,0,1-3.125.15H5.475a26.286,26.286,0,0,1-3.125-.15v2.85a26.85,26.85,0,0,1,3.075-.15Zm-7.525,1.85A22.173,22.173,0,0,1,6.475-9.8L9.05-11.1a26.533,26.533,0,0,0-3.1-5.875ZM19.05-16.95A18.553,18.553,0,0,1,15.7-10.9l2.475,1.25a27.107,27.107,0,0,0,3.45-6.125Zm15.025,2.475H33.35a12.322,12.322,0,0,1-2.15-.15v2.75A12.707,12.707,0,0,1,33.35-12h.725v7.475a14.717,14.717,0,0,1-3.1.85L31.6-.85c.675-.275.7-.3,2.025-.775a55.2,55.2,0,0,0,5.75-2.45l-.05-2.675c-1.2.6-1.6.8-2.575,1.2V-12a17.153,17.153,0,0,1,1.85.075v-.15a12.717,12.717,0,0,1,1.2,1.425,18.562,18.562,0,0,0,3.425-4.225H50.65Q50.612-4.3,49.75-1.75c-.25.725-.525.9-1.425.9a26.115,26.115,0,0,1-3.4-.325,9.352,9.352,0,0,1,.7,2.825c1.875.125,2.075.125,2.675.125a4.472,4.472,0,0,0,2.875-.625c.725-.575,1.2-1.775,1.55-3.975a90.624,90.624,0,0,0,.65-12.575,12.068,12.068,0,0,1,.1-2.2c-.5.05-1.4.1-2.325.1H44.525c.2-.5.55-1.425.8-2.1a4.226,4.226,0,0,1,.3-.8l-2.95-.65c-.025.125-.05.2-.05.225a4.7,4.7,0,0,0-.075.475c-.1.45-.375,1.325-.525,1.775a12.523,12.523,0,0,1-3.425,5.25v-1.25a8.251,8.251,0,0,1-1.65.1h-.2V-18.05a15.1,15.1,0,0,1,.15-2.625H33.925a15.764,15.764,0,0,1,.15,2.65ZM48.8-8.425a35.109,35.109,0,0,1-7.375,3.55A9.316,9.316,0,0,1,40-4.5l.975,2.8a12.8,12.8,0,0,1,1.25-.575,49.2,49.2,0,0,0,7.175-3.6Zm-7.4-.85a12.322,12.322,0,0,1,2.15-.15H46.8a11.931,11.931,0,0,1,1.875.1V-12.05a12.386,12.386,0,0,1-1.9.125H43.55a10.555,10.555,0,0,1-2.15-.15ZM80.625-7.35a7.516,7.516,0,0,1-2.25,2.3A11.12,11.12,0,0,1,77.7-7.375L81.575-7.8c.85-.075,1.6-.125,2.1-.125h.275l-.25-2.5a16.438,16.438,0,0,1-2.275.35l-4.1.4c-.05-.425-.1-.75-.2-1.625l3.15-.3a18.928,18.928,0,0,1,2.075-.15h.3l-.2-2.45a12.79,12.79,0,0,1-2.375.35l-3.15.3c-.075-.75-.075-.825-.1-1.55l3.7-.325a19.419,19.419,0,0,1,2.05-.15h.3L82.65-18.05a14.273,14.273,0,0,1-2.25.35h-.125l1.5-1.225A12.3,12.3,0,0,0,78.95-21.05L77.225-19.8a12.719,12.719,0,0,1,2.625,2.15l-3.125.275c-.025-.625-.05-1.775-.05-2a9.561,9.561,0,0,1,.1-1.525l-3.025.025a5.847,5.847,0,0,1,.175,1.225c.05,1.15.05,1.15.15,2.525L72.7-17c-.75.075-1.35.125-1.8.125a4.339,4.339,0,0,1-.45-.025l.225,2.375a.85.85,0,0,0,.25.025c.025,0,.125-.025.325-.05.275-.05.95-.15,1.6-.2l1.375-.125c.025.35.025.45.05.9a3.981,3.981,0,0,1,.05.675l-1.375.125a15,15,0,0,1-1.625.1h-.35l.225,2.45a15.707,15.707,0,0,1,1.925-.3l1.425-.125c.125.95.125.95.225,1.625l-2.325.25c-1.025.075-1.275.1-1.85.1h-.45L70.375-6.5c.65-.125,1.375-.25,2.275-.35l2.5-.25A17.905,17.905,0,0,0,76.2-3.6,24.683,24.683,0,0,1,68.5-.65a9.75,9.75,0,0,1,1.45,2.425,30.247,30.247,0,0,0,7.4-3.2C78.675.625,80.325,1.85,81.775,1.85c1.6,0,2.3-1.25,2.7-4.725A11.845,11.845,0,0,1,82.325-4.3C82.175-1.7,82-1,81.475-1c-.45,0-1.25-.775-2.025-1.9a22.886,22.886,0,0,0,2.475-2.25l.8-.8ZM63.9-8.25A19.164,19.164,0,0,1,66.025-6.1a14.166,14.166,0,0,1-5,6.05,10.29,10.29,0,0,1,1.825,2.2A22.63,22.63,0,0,0,65,.175a17.749,17.749,0,0,0,2.575-3.75A24.722,24.722,0,0,0,70-12c.175-1.6.25-2.275.35-2.85a14.754,14.754,0,0,1-2.075.1H66.05a21.9,21.9,0,0,0,.475-2.7h2.85a15.987,15.987,0,0,1,1.875.1v-2.625a26.177,26.177,0,0,1-2.65.125H64.05a23.363,23.363,0,0,1-2.6-.125v2.65a11.7,11.7,0,0,1,2-.125h.575a16.124,16.124,0,0,1-.625,3.2A11.961,11.961,0,0,1,60.6-9.1a6.475,6.475,0,0,1,1.55,2.275A15.24,15.24,0,0,0,65.375-12.5h2.3A28.269,28.269,0,0,1,66.9-8.55a21.807,21.807,0,0,0-1.775-1.6ZM101-11v1.2H96.05a17.752,17.752,0,0,1-2.55-.125v2.25A17.966,17.966,0,0,1,96.05-7.8H101v1.25H94.375a23.206,23.206,0,0,1-3-.15v2.5A27.481,27.481,0,0,1,94.4-4.35h4.65A17.972,17.972,0,0,1,90.875-.8,10.232,10.232,0,0,1,92.4,1.6,24.187,24.187,0,0,0,97.5-.5a13.9,13.9,0,0,0,3.6-2.75,16.833,16.833,0,0,0-.075,1.7v1.2a18.659,18.659,0,0,1-.15,2.55h2.95a14.224,14.224,0,0,1-.175-2.525V-1.55a17.111,17.111,0,0,0-.075-1.775c2.25,2.275,5.075,3.8,9.275,4.95a9.9,9.9,0,0,1,1.425-2.55,21.457,21.457,0,0,1-5.2-1.425,12.978,12.978,0,0,1-3.4-2H110.7a27.007,27.007,0,0,1,3,.15V-6.7a22.081,22.081,0,0,1-3.025.15H103.7V-7.8h5.225a18.352,18.352,0,0,1,2.575.125v-2.25a18.136,18.136,0,0,1-2.575.125H103.7V-11h6.525a18.352,18.352,0,0,1,2.575.125V-13.25a22.991,22.991,0,0,1-2.575.1h-2.9c.35-.625.45-.85.925-1.85h2.5c1.225,0,2.2.05,2.975.125v-2.5a20.272,20.272,0,0,1-2.825.15h-.7c.55-.775.95-1.4,1.55-2.4l-2.575-.95a13.34,13.34,0,0,1-1.8,3.35H105.8V-19a13.125,13.125,0,0,1,.125-1.95H103.2a17.8,17.8,0,0,1,.075,1.85v1.875H101.5V-19.1a16.838,16.838,0,0,1,.075-1.85H98.85A13.9,13.9,0,0,1,98.975-19v1.775H97.55A17.675,17.675,0,0,0,95.625-20.5l-2.5.95a10.567,10.567,0,0,1,1.7,2.325h-.8a21.185,21.185,0,0,1-2.85-.15v2.5c.8-.075,1.75-.125,2.975-.125h2.7c.275.475.55,1.05.925,1.85H94.75a22.707,22.707,0,0,1-2.575-.1v2.375A18.57,18.57,0,0,1,94.75-11Zm-.575-2.15a15.958,15.958,0,0,0-.75-1.85h5.7a14.58,14.58,0,0,1-.825,1.85Zm34.8-2.75v2.375H132.65a19.23,19.23,0,0,1-2.775-.15v2.65c.775-.075,1.7-.125,2.75-.125h5.925v2.125h-5.925A18.552,18.552,0,0,1,129.9-9.15v2.725a22.39,22.39,0,0,1,2.675-.15h5.975V-1.25c0,.55-.15.675-.925.675a22.272,22.272,0,0,1-2.8-.2,6.444,6.444,0,0,1,.6,2.625c1.725.025,1.725.025,1.95.025a7.007,7.007,0,0,0,2.75-.4c.75-.35,1-.95,1-2.4v-5.65h.325a13.593,13.593,0,0,1,2.475.15V-9.15a15.248,15.248,0,0,1-2.475.125h-.325V-11.15h.425a16.26,16.26,0,0,1,2.45.125v-2.65a18.451,18.451,0,0,1-2.725.15h-3.45V-15.9h2.75a18.136,18.136,0,0,1,2.575.125v-2.65a18.431,18.431,0,0,1-2.6.15h-2.725v-.675a13.292,13.292,0,0,1,.125-1.875h-2.875a11.173,11.173,0,0,1,.15,1.875v.675h-2.2a18.187,18.187,0,0,1-2.6-.15v2.65A21.171,21.171,0,0,1,133.1-15.9ZM122-2.525A22.775,22.775,0,0,1,121.85.45h2.625v-2.1h2.275V-.4h2.55c-.05-.625-.075-1.175-.075-2.5V-17.2a18.758,18.758,0,0,1,.075-2.475c-.6.05-1.05.075-2.175.075H124.1a21.659,21.659,0,0,1-2.2-.075,23.438,23.438,0,0,1,.1,2.525Zm2.5-14.7h2.25V-12H124.5Zm0,7.525h2.25v5.625H124.5Zm11.775,7.25A19.185,19.185,0,0,0,133-6.275l-2.125,1.4a19.1,19.1,0,0,1,3.2,4.1Zm31.2-5.7c0-.975.025-1.6.075-2.25a20.106,20.106,0,0,1-2.325.1H159.65a20.384,20.384,0,0,1-2.325-.1c.05.675.075,1.375.075,2.25v6.1a17.236,17.236,0,0,1-.175,2.5h2.65V-.95h5.3c.2,0,.675,0,1.4.025a9.5,9.5,0,0,1,.65,2.575c1.275.075,1.375.075,1.725.075a7.615,7.615,0,0,0,2.825-.3c.9-.375,1.2-1.025,1.2-2.525V-17.475c0-1.25.025-1.875.1-2.775a22.426,22.426,0,0,1-2.575.1h-4.8a21.391,21.391,0,0,1-2.55-.1c.05.775.075,1.475.075,2.325V-14.1c0,1.075-.025,1.55-.075,2.275.625-.05,1.425-.075,2.3-.075h4.925V-1.45c0,.5-.225.675-.925.675-.45,0-1.35-.075-1.9-.125-.05-.65-.075-1.225-.075-2.175ZM165.7-18.125h4.675v1.25H165.7Zm0,3.025h4.675v1.275H165.7Zm-5.825,6.9h5.1v1.5h-5.1Zm0,3.525h5.1V-3.05h-5.1ZM154.65-11.9h4.525c.875,0,1.65.025,2.3.075-.05-.55-.075-1.125-.075-2.275v-3.825c0-.975.025-1.525.075-2.325a21.123,21.123,0,0,1-2.55.1H154.5a22.706,22.706,0,0,1-2.575-.1,27.718,27.718,0,0,1,.1,2.8V-1.125a22.348,22.348,0,0,1-.15,3.1H154.8a21.683,21.683,0,0,1-.15-3.075Zm0-6.225h4.3v1.25h-4.3Zm0,3.025h4.3v1.275h-4.3Z" transform="translate(366.38 2593.136)" fill="#fff"/>
  </g>
</svg>
