<svg xmlns="http://www.w3.org/2000/svg" xmlns:xlink="http://www.w3.org/1999/xlink" width="428.36" height="358.85" viewBox="0 0 428.36 358.85">
  <defs>
    <linearGradient id="linear-gradient" y1="0.5" x2="1" y2="0.5" gradientUnits="objectBoundingBox">
      <stop offset="0" stop-color="#03a8e5"/>
      <stop offset="1" stop-color="#012869"/>
    </linearGradient>
    <filter id="パス_301" x="0" y="0" width="428.36" height="358.85" filterUnits="userSpaceOnUse">
      <feOffset dx="10" dy="10" input="SourceAlpha"/>
      <feGaussianBlur stdDeviation="15" result="blur"/>
      <feFlood flood-opacity="0.161"/>
      <feComposite operator="in" in2="blur"/>
      <feComposite in="SourceGraphic"/>
    </filter>
    <linearGradient id="linear-gradient-2" x1="-0.03" xlink:href="#linear-gradient"/>
    <filter id="長方形_224" x="20.938" y="39.813" width="329" height="76" filterUnits="userSpaceOnUse">
      <feOffset input="SourceAlpha"/>
      <feGaussianBlur stdDeviation="5" result="blur-2"/>
      <feFlood flood-color="#013778" flood-opacity="0.322"/>
      <feComposite operator="in" in2="blur-2"/>
      <feComposite in="SourceGraphic"/>
    </filter>
  </defs>
  <g id="言語数" transform="translate(-684.062 -5904.186)">
    <g id="グループ_253" data-name="グループ 253" transform="translate(190.709 3567.269)">
      <g transform="matrix(1, 0, 0, 1, 493.35, 2336.92)" filter="url(#パス_301)">
        <path id="パス_301-2" data-name="パス 301" d="M0,0H338.36V268.849H0Z" transform="translate(35 35)" fill="url(#linear-gradient)"/>
      </g>
      <path id="パス_302" data-name="パス 302" d="M0,0H330.36V260.849H0Z" transform="translate(532.353 2375.917)" fill="#edf9ff"/>
    </g>
    <g id="グループ_250" data-name="グループ 250" transform="translate(-7.192 4306.508)" opacity="0.978">
      <path id="パス_659" data-name="パス 659" d="M948.829,1776.983h13.077a11.737,11.737,0,0,1-1.077,20.15H949.906a11.733,11.733,0,0,1-1.078-20.15Zm6.54,23.391a13.665,13.665,0,1,0-13.668-13.661,13.666,13.666,0,0,0,13.668,13.661Zm44.011-37.691h8.435v8.1a11.018,11.018,0,0,1-1.517-.445V1765.8l-3.505,2.461a11.02,11.02,0,0,1-1.085-1.1l4.219-2.961h-3.968l-1.556,1.091a11.016,11.016,0,0,1-1.022-2.608Zm.959-8.5,1.623,1.137h3.967l-4.309-3.021a10.862,10.862,0,0,1,1.073-1.1l3.6,2.525v-4.7a11.022,11.022,0,0,1,1.517-.446v8.257h-8.476a11.014,11.014,0,0,1,1-2.654Zm12.026,8.5h8.79a11.09,11.09,0,0,1-1.129,2.785l-1.806-1.268h-3.964l4.434,3.113a11.153,11.153,0,0,1-1.1,1.084l-3.706-2.6v4.675a10.8,10.8,0,0,1-1.516.375v-8.161Zm0-14.166a11.22,11.22,0,0,1,1.516.374v4.83l3.8-2.667a10.857,10.857,0,0,1,1.091,1.09l-4.525,3.173h3.967l1.874-1.315a11.027,11.027,0,0,1,1.1,2.832h-8.831v-8.316Zm-2.075,24.818a13.667,13.667,0,1,0-13.662-13.666,13.668,13.668,0,0,0,13.662,13.666ZM987.015,1790.2v-2.345a18.557,18.557,0,0,1,3.033-1.43v3.775l6.716-.017.008,3.051h7.653a12,12,0,0,1,.773,2.816h-8.434v-2.816l-6.716.02v5.829h14.525a12.449,12.449,0,0,1-.654,2.817H982.558a12.5,12.5,0,0,1-.652-2.817h5.109v-5.849l-4.688.014a12.265,12.265,0,0,1,1.939-3.264l2.666.217Zm9.75-2.816h2.192a12.059,12.059,0,0,1,3.5,2.816h-5.688v-2.816Zm2.869,20.366H987a12.07,12.07,0,0,1-3.153-2.817h18.94a12.076,12.076,0,0,1-3.153,2.817Zm-19.98-10.086a13.664,13.664,0,1,0,13.665-13.668,13.67,13.67,0,0,0-13.665,13.668Zm50.749-19.04a8.844,8.844,0,0,1,7.342,3.906,6.936,6.936,0,1,0,0,9.89,8.851,8.851,0,1,1-7.342-13.8Zm9.177,8.221.077-1.472,1.123.958,1.42-.383-.562,1.362.8,1.238-1.467-.114-.931,1.145-.343-1.434-1.377-.527,1.259-.771Zm-21.975-.135a13.664,13.664,0,1,0,13.664-13.667,13.665,13.665,0,0,0-13.664,13.667Zm-38.98-28.912c-.441.25-.832.5-1.144.722-.031-.035-.055-.069-.088-.1.222-.3.48-.676.731-1.1a13.729,13.729,0,0,0,.839-1.67,4.72,4.72,0,0,1,1.375,1.335,14.286,14.286,0,0,0-1.714.811Zm2.009-.222c-.053.187-.076.349,0,.3-.072.045.051.135.215.211a4.453,4.453,0,0,1,.183.646c-.1.164-.174.314-.1.292-.065.021.038.13.175.242,0,.027,0,.057.008.087a14.546,14.546,0,0,0-1.9-.132s0,0,0,0H979.2c-.535,0-1.021.035-1.415.074,0-.038-.007-.074-.013-.109a13.136,13.136,0,0,0,1.25-.617,14.013,14.013,0,0,0,1.585-1.039c.01.017.018.032.026.047Zm.484,2.288c-.139.13-.251.26-.189.269-.057-.01.016.114.121.251a4.618,4.618,0,0,1-.177.653c-.173.1-.315.206-.237.246-.071-.04-.039.095.023.257-.014.031-.028.061-.044.087a13.573,13.573,0,0,0-1.584-1.041,13.86,13.86,0,0,0-1.325-.654.59.59,0,0,0,.025-.083c.407.043.917.08,1.483.083l0-.2.026.2,0,0a14.255,14.255,0,0,0,1.874-.129c0,.019,0,.04,0,.061Zm-.8,2.253c-.194.049-.361.127-.276.194-.078-.062-.093.079-.078.254a4.669,4.669,0,0,1-1,.857,13.94,13.94,0,0,0-.834-1.672,13.556,13.556,0,0,0-.85-1.26.36.36,0,0,0,.057-.046,13.8,13.8,0,0,0,3,1.645c-.008.01-.011.019-.019.029Zm-3.457,1.952c-.02-.042-.039-.084-.062-.13.08-.045.122-.076.062-.063.068-.015.043-.05-.028-.092a1,1,0,0,0-.077-.615c.071-.059.1-.091.052-.05.064-.047.012-.088-.085-.116.015-.227.023-.464.026-.718,0,0,0-.009,0-.009l-.2-.025.2,0a13.28,13.28,0,0,0-.1-1.534l.07-.019a13.258,13.258,0,0,0,.709,1.382,13.934,13.934,0,0,0,1.058,1.531,4.826,4.826,0,0,1-1.629.459Zm-.029-7.187c0-.015,0-.032,0-.046h-.044a.171.171,0,0,0-.013-.021l.054-.006v-.011c0-.343-.016-.665-.039-.956.133-.04.217-.091.135-.137.05.028.021,0-.041-.046a1,1,0,0,0,0-.611c.019-.015.037-.023.05-.034a4.789,4.789,0,0,1,1.643.461,13.625,13.625,0,0,0-1.062,1.531c-.247.413-.45.813-.608,1.15a1.141,1.141,0,0,0-.139-.044c.032-.318.056-.7.062-1.106.043-.019.066-.046.028-.087.041.044.02.017-.026-.036Zm-.864,5.467c0,.28.014.537.029.785-.116.036-.185.082-.109.124-.05-.028-.018,0,.043.042a.9.9,0,0,0,0,.583c-.117.067-.183.124-.089.129-.057,0-.023.023.046.053-.009.028-.016.052-.025.076a4.811,4.811,0,0,1-1.639-.459,13.4,13.4,0,0,0,1.061-1.533,13.77,13.77,0,0,0,.7-1.378l.067.019a12.836,12.836,0,0,0-.094,1.527v0a.113.113,0,0,0,0,.028Zm-3.205.25c0-.2-.032-.365-.12-.288.08-.074-.062-.133-.245-.162-.016-.021-.025-.04-.039-.061a14.92,14.92,0,0,0,1.712-.815,13.548,13.548,0,0,0,1.291-.831.375.375,0,0,0,.054.046,14.016,14.016,0,0,0-.849,1.26,14.685,14.685,0,0,0-.834,1.672,4.758,4.758,0,0,1-.971-.823Zm-.606-1.084c.054-.187.075-.349,0-.3.073-.048-.052-.137-.218-.213a4.82,4.82,0,0,1-.182-.644c.1-.166.176-.316.108-.295.066-.021-.056-.144-.21-.261l.024-.062a15.108,15.108,0,0,0,1.875.125h.011l.02-.2v.2a13.927,13.927,0,0,0,1.49-.084l.021.08c-.372.163-.839.381-1.331.657a14.244,14.244,0,0,0-1.581,1.042c-.009-.016-.016-.032-.025-.05Zm-.574-2.221c.142-.133.252-.263.19-.272.06.009-.013-.114-.121-.251a4.389,4.389,0,0,1,.178-.651c.174-.1.313-.206.238-.246.07.038.039-.1-.023-.259.014-.031.025-.057.039-.084a14.423,14.423,0,0,0,1.591,1.038,13.68,13.68,0,0,0,1.25.619.764.764,0,0,0-.011.106c-.4-.04-.882-.074-1.418-.074h-.019a.054.054,0,0,0-.027,0,14.33,14.33,0,0,0-1.867.133c0-.019,0-.041,0-.059Zm.792-2.337c.2-.048.365-.126.278-.193.08.061.095-.08.078-.257a4.761,4.761,0,0,1,1-.855,14.134,14.134,0,0,0,.839,1.67c.251.421.508.8.731,1.1-.03.031-.057.067-.085.1-.313-.217-.7-.472-1.147-.722a15.192,15.192,0,0,0-1.711-.811l.016-.031Zm3.439-2.022a.261.261,0,0,0,.059.053,1.068,1.068,0,0,0,.082.646c-.072.065-.107.095-.054.053-.069.053,0,.095.1.128-.005.082-.012.168-.013.253a1.148,1.148,0,0,0-.026.68v.009c0,.472.031.907.067,1.272a.809.809,0,0,0-.137.042c-.16-.337-.364-.735-.607-1.148a13.869,13.869,0,0,0-1.063-1.533,4.82,4.82,0,0,1,1.588-.455Zm.534-.848a5.452,5.452,0,1,0,5.585,5.452,5.524,5.524,0,0,0-5.585-5.452Zm-11.785,5.6a11.748,11.748,0,0,1,2.137-6.746h19.292a11.718,11.718,0,0,1,.19,13.216H966.51a11.746,11.746,0,0,1-1.948-6.47Zm11.783,13.656a13.667,13.667,0,1,0-13.666-13.666,13.666,13.666,0,0,0,13.666,13.666Zm-24.961,15.407.7,1.24h-1.41l.706-1.24Zm.707-4.61-.706,1.238-.7-1.238Zm1.872,0h3.084l1.6,2.817-1.6,2.815h-3.084l-1.6-2.819,1.6-2.814Zm1.543-2.665.655,1.148h-1.308l.653-1.148Zm4.121,7.275.705,1.24h-1.411l.706-1.24Zm.707-4.61-.706,1.238-.707-1.238Zm-4.827,8.514-.653-1.148h1.308l-.655,1.148Zm-5.015-5.591-2.528,4.443h5.054l2.486,4.367,2.487-4.367h5.059l-2.529-4.443,2.528-4.44h-5.057l-2.486-4.366-2.487,4.366h-5.056l.679,1.192,1.849,3.248Zm93.5,29.84c-1.914-.055-3.837-.107-5.816-.107-16.083.015-30.125,1.864-38.267,4.766a9.452,9.452,0,0,0-2.119-1.548c6.708-3.35,22.319-5.827,40.387-5.81,1.979,0,3.9.049,5.816.107v2.592Zm0,4.544c-1.913-.057-3.837-.107-5.816-.107-14.6.008-27.52,1.543-35.868,3.991a9.415,9.415,0,0,0-1.078-2.167c7.836-2.626,21.493-4.429,36.946-4.419,1.979,0,3.9.051,5.816.106v2.6Zm0,4.075-33.354,0a163.058,163.058,0,0,1,27.538-2.14c1.979,0,3.9.05,5.816.107v2.037Zm-57.314-3.956c-8.143-2.906-22.183-4.755-38.261-4.77-1.983,0-3.907.052-5.821.107V1814.3c1.913-.057,3.839-.107,5.819-.107,12.311,0,23.459,1.121,31.465,2.917a40.866,40.866,0,0,1,8.914,2.9,9.418,9.418,0,0,0-2.116,1.546Zm-2.4,3.766c-8.348-2.448-21.27-3.988-35.866-3.993-1.981,0-3.9.052-5.819.107v-2.6c1.914-.055,3.839-.106,5.821-.106,15.448-.01,29.106,1.792,36.944,4.417a9.408,9.408,0,0,0-1.079,2.171Zm-41.685.189v-2.036c1.915-.055,3.839-.105,5.819-.105a162.813,162.813,0,0,1,27.535,2.141Zm103.346,0v-12.133h-.547l.037-.866h0c-2.381-.221-4.824-.266-7.313-.266-12.431,0-23.683,1.125-31.894,2.963a40.712,40.712,0,0,0-9.843,3.286c-.386.208-.745.423-1.087.644a9.269,9.269,0,0,0-1.978-.234,9.363,9.363,0,0,0-1.977.233c-.343-.219-.7-.434-1.088-.642-7.143-3.757-23.069-6.232-41.737-6.253-2.493,0-4.936.049-7.317.137l.038,1h-.371v12.133H940v5.849h49.831v-2.921a3.575,3.575,0,1,1,7.15,0v2.921H1046.6v-5.849Z" transform="translate(7.596 54.685)" fill="#a8e1f7"/>
    </g>
    <g transform="matrix(1, 0, 0, 1, 684.06, 5904.19)" filter="url(#長方形_224)">
      <rect id="長方形_224-2" data-name="長方形 224" width="299" height="46" transform="translate(35.94 54.81)" fill="url(#linear-gradient-2)"/>
    </g>
    <text id="話せる言語の数" transform="translate(738.192 5988.442)" fill="#fff" font-size="16" font-family="HiraginoSans-W6, Hiragino Sans" letter-spacing="0.2em"><tspan x="0" y="0">話せる言語の数</tspan></text>
    <text id="_日常会話レベル以上" data-name="※日常会話レベル以上" transform="translate(875 5988)" fill="#fff" font-size="11" font-family="LucidaGrande-Bold, Lucida Grande" font-weight="700" letter-spacing="0.2em"><tspan x="0" y="0">※</tspan><tspan y="0" font-family="HiraginoSans-W6, Hiragino Sans" font-weight="400">日常会話レベル以上</tspan></text>
    <text id="_日本語_英語_中国語_韓国語_ドイツ語_スペイン語_インドネシア語_" data-name="（日本語、英語、中国語、韓国語、ドイツ語、スペイン語、インドネシア語）" transform="translate(729 6191.136)" fill="#0052aa" font-size="8" font-family="HiraginoSans-W6, Hiragino Sans"><tspan x="0" y="0">（日本語、英語、中国語、韓国語、ドイツ語、スペイン語、インドネシア語）</tspan></text>
    <g id="グループ_289" data-name="グループ 289" transform="translate(722.624 6023.853)">
      <g id="グループ_283" data-name="グループ 283" transform="translate(0 0)">
        <rect id="長方形_243" data-name="長方形 243" width="0.66" height="122.069" transform="translate(0 0)" fill="#001c91"/>
      </g>
      <g id="グループ_288" data-name="グループ 288" transform="translate(0.578 7.131)">
        <g id="グループ_284" data-name="グループ 284" transform="translate(0 85.983)">
          <rect id="長方形_244" data-name="長方形 244" width="8.555" height="21.972" fill="#81cff8"/>
        </g>
        <g id="グループ_285" data-name="グループ 285" transform="translate(0 57.113)">
          <rect id="長方形_245" data-name="長方形 245" width="102.664" height="21.972" fill="#43beff"/>
        </g>
        <g id="グループ_286" data-name="グループ 286" transform="translate(0 28.87)">
          <rect id="長方形_246" data-name="長方形 246" width="183.94" height="21.972" fill="#0052aa"/>
        </g>
        <g id="グループ_287" data-name="グループ 287" transform="translate(0 0)">
          <rect id="長方形_247" data-name="長方形 247" width="132.608" height="21.972" fill="#0095d8"/>
        </g>
      </g>
    </g>
    <text id="_4か国語以上_2_" data-name="4か国語以上：2％" transform="translate(742 6135)" fill="#0052aa" font-size="11" font-family="DINCondensed-Bold, DIN Condensed" font-weight="700" letter-spacing="0.1em"><tspan x="0" y="0">4</tspan><tspan y="0" font-family="HiraginoSans-W6, Hiragino Sans" font-weight="400">か国語以上：</tspan><tspan y="0" font-size="22">2</tspan><tspan y="0" font-family="HiraginoSans-W6, Hiragino Sans" font-weight="400">％</tspan></text>
    <text id="_1か国語_31_" data-name="1か国語：31％" transform="translate(867 6050)" fill="#0052aa" font-size="13" font-family="DINCondensed-Bold, DIN Condensed" font-weight="700" letter-spacing="0.1em"><tspan x="0" y="0">1</tspan><tspan y="0" font-family="HiraginoSans-W6, Hiragino Sans" font-weight="400">か国語：</tspan><tspan y="0" font-size="26">31</tspan><tspan y="0" font-family="HiraginoSans-W6, Hiragino Sans" font-weight="400">％</tspan></text>
    <text id="_3か国語_24_" data-name="3か国語：24％" transform="translate(835 6107)" fill="#0052aa" font-size="12" font-family="DINCondensed-Bold, DIN Condensed" font-weight="700" letter-spacing="0.1em"><tspan x="0" y="0">3</tspan><tspan y="0" font-family="HiraginoSans-W6, Hiragino Sans" font-weight="400">か国語：</tspan><tspan y="0" font-size="24">24</tspan><tspan y="0" font-family="HiraginoSans-W6, Hiragino Sans" font-weight="400">％</tspan></text>
    <text id="_2か国語_43_" data-name="2か国語：43％" transform="translate(917 6077)" fill="#0052aa" font-size="14" font-family="DINCondensed-Bold, DIN Condensed" font-weight="700" letter-spacing="0.1em"><tspan x="0" y="0">2</tspan><tspan y="0" font-family="HiraginoSans-W6, Hiragino Sans" font-weight="400">か国語：</tspan><tspan y="0" font-size="42">43</tspan><tspan y="0" font-family="HiraginoSans-W6, Hiragino Sans" font-weight="400">％</tspan></text>
  </g>
</svg>
