<svg xmlns="http://www.w3.org/2000/svg" xmlns:xlink="http://www.w3.org/1999/xlink" width="430.709" height="304.065" viewBox="0 0 430.709 304.065">
  <defs>
    <linearGradient id="linear-gradient" y1="0.5" x2="1" y2="0.5" gradientUnits="objectBoundingBox">
      <stop offset="0" stop-color="#03a8e5"/>
      <stop offset="1" stop-color="#012869"/>
    </linearGradient>
    <filter id="パス_301" x="0" y="0" width="430.709" height="304.065" filterUnits="userSpaceOnUse">
      <feOffset dx="10" dy="10" input="SourceAlpha"/>
      <feGaussianBlur stdDeviation="15" result="blur"/>
      <feFlood flood-opacity="0.161"/>
      <feComposite operator="in" in2="blur"/>
      <feComposite in="SourceGraphic"/>
    </filter>
    <linearGradient id="linear-gradient-2" x1="-0.03" xlink:href="#linear-gradient"/>
    <filter id="長方形_202" x="19.521" y="33" width="143" height="72" filterUnits="userSpaceOnUse">
      <feOffset input="SourceAlpha"/>
      <feGaussianBlur stdDeviation="5" result="blur-2"/>
      <feFlood flood-color="#013778" flood-opacity="0.322"/>
      <feComposite operator="in" in2="blur-2"/>
      <feComposite in="SourceGraphic"/>
    </filter>
  </defs>
  <g id="売上高" transform="translate(-293.034 -781)">
    <g id="グループ_191" data-name="グループ 191" transform="translate(328.034 816)">
      <g transform="matrix(1, 0, 0, 1, -35, -35)" filter="url(#パス_301)">
        <path id="パス_301-2" data-name="パス 301" d="M0,0H340.709V214.065H0Z" transform="translate(35 35)" fill="url(#linear-gradient)"/>
      </g>
      <path id="パス_302" data-name="パス 302" d="M0,0H332.709V206.065H0Z" transform="translate(4 4)" fill="#edf9ff"/>
    </g>
    <g transform="matrix(1, 0, 0, 1, 293.03, 781)" filter="url(#長方形_202)">
      <rect id="長方形_202-2" data-name="長方形 202" width="113" height="42" transform="translate(34.52 48)" fill="url(#linear-gradient-2)"/>
    </g>
    <text id="売上高-2" data-name="売上高" transform="translate(355.555 857)" fill="#fff" font-size="17" font-family="HiraginoSans-W6, Hiragino Sans" letter-spacing="0.2em"><tspan x="0" y="0">売上高</tspan></text>
    <g id="アイコン" transform="translate(425.64 850.218)" style="isolation: isolate">
      <rect id="長方形_40" data-name="長方形 40" width="23.527" height="42.31" transform="translate(0.13 110.321)" fill="#9eddf6"/>
      <rect id="長方形_41" data-name="長方形 41" width="23.526" height="49.079" transform="translate(31.27 103.552)" fill="#9eddf6"/>
      <rect id="長方形_42" data-name="長方形 42" width="23.527" height="66.003" transform="translate(62.41 86.628)" fill="#9eddf6"/>
      <rect id="長方形_43" data-name="長方形 43" width="23.526" height="82.927" transform="translate(93.549 69.704)" fill="#9eddf6"/>
      <rect id="長方形_44" data-name="長方形 44" width="23.526" height="103.236" transform="translate(124.689 49.395)" fill="#9eddf6"/>
      <path id="パス_477" data-name="パス 477" d="M197.084,99.506c-1.895,2-4.139,4.174-6.611,6.539-2.429,2.411-5.214,4.874-8.127,7.534s-6.124,5.317-9.408,8.132c-3.372,2.686-6.789,5.6-10.44,8.3-3.593,2.8-7.336,5.511-11.122,8.179s-7.654,5.208-11.488,7.686c-3.876,2.383-7.691,4.788-11.506,6.842-3.765,2.206-7.53,4.01-11.1,5.813-3.59,1.706-7.05,3.2-10.269,4.519-3.242,1.123-6.26,2.439-8.915,3.123-2.687.717-4.966,1.547-7.03,1.9l-6.429,1.21.261,2.88,6.539.007c2.07.034,4.7-.353,7.7-.583,3.055-.213,6.247-.946,9.9-1.492,3.574-.732,7.451-1.6,11.508-2.661,4.015-1.153,8.314-2.3,12.609-3.834,4.373-1.389,8.756-3.11,13.253-4.827,4.442-1.805,8.966-3.668,13.4-5.7s8.871-4.1,13.148-6.3c4.343-2.1,8.453-4.442,12.524-6.6,3.983-2.284,7.88-4.448,11.485-6.66s7.046-4.276,10.127-6.351c3.114-2.022,5.965-3.9,8.436-5.679,2.487-1.752,4.68-3.243,6.426-4.6l3.276-2.468,8.36,8.047L232.86,84.1l-38.371.722,8.627,8.3-1.125,1.237C200.7,95.834,199,97.526,197.084,99.506Z" transform="translate(-84.643 -84.101)" fill="#9eddf6"/>
    </g>
    <text id="単体_約364億円" data-name="単体：約364億円" transform="translate(416.555 1001)" fill="#0052aa" font-size="14" font-family="HiraginoSans-W6, Hiragino Sans" letter-spacing="0.1em"><tspan x="0" y="0">単体：約</tspan><tspan y="0" font-size="44" font-family="DINCondensed-Bold, DIN Condensed" font-weight="700">364</tspan><tspan y="0">億円</tspan></text>
    <text id="連結_約384億円" data-name="連結：約384億円" transform="translate(351.555 938)" fill="#0052aa" font-size="27" font-family="HiraginoSans-W6, Hiragino Sans" letter-spacing="0.1em"><tspan x="0" y="0">連結：約</tspan><tspan y="0" font-size="75" font-family="DINCondensed-Bold, DIN Condensed" font-weight="700">384</tspan><tspan y="0">億円</tspan></text>
  </g>
</svg>
