<svg xmlns="http://www.w3.org/2000/svg" xmlns:xlink="http://www.w3.org/1999/xlink" width="841.586" height="652.058" viewBox="0 0 841.586 652.058">
  <defs>
    <linearGradient id="linear-gradient" y1="0.5" x2="1" y2="0.5" gradientUnits="objectBoundingBox">
      <stop offset="0" stop-color="#03a8e5"/>
      <stop offset="1" stop-color="#012869"/>
    </linearGradient>
    <filter id="パス_301" x="0" y="0" width="841.586" height="652.058" filterUnits="userSpaceOnUse">
      <feOffset dx="10" dy="10" input="SourceAlpha"/>
      <feGaussianBlur stdDeviation="15" result="blur"/>
      <feFlood flood-opacity="0.161"/>
      <feComposite operator="in" in2="blur"/>
      <feComposite in="SourceGraphic"/>
    </filter>
    <linearGradient id="linear-gradient-2" x1="-0.03" xlink:href="#linear-gradient"/>
    <filter id="長方形_222" x="21.347" y="71.934" width="514" height="102" filterUnits="userSpaceOnUse">
      <feOffset input="SourceAlpha"/>
      <feGaussianBlur stdDeviation="5" result="blur-2"/>
      <feFlood flood-color="#013778" flood-opacity="0.322"/>
      <feComposite operator="in" in2="blur-2"/>
      <feComposite in="SourceGraphic"/>
    </filter>
  </defs>
  <g id="通勤時間" transform="translate(-288.653 -5310.066)">
    <g id="グループ_251" data-name="グループ 251" transform="translate(-204.7 2972)">
      <g transform="matrix(1, 0, 0, 1, 493.35, 2338.07)" filter="url(#パス_301)">
        <path id="パス_301-2" data-name="パス 301" d="M0,0H751.586V562.058H0Z" transform="translate(35 35)" fill="url(#linear-gradient)"/>
      </g>
      <path id="パス_302" data-name="パス 302" d="M0,0H743.586V554.058H0Z" transform="translate(532.353 2377.066)" fill="#edf9ff"/>
    </g>
    <g id="グループ_262" data-name="グループ 262" transform="translate(509.337 2970)">
      <path id="パス_668" data-name="パス 668" d="M376.581,2627.17v99.2l5.412,99.052a133.5,133.5,0,0,0,17.8-4.552c12.167-3.906,29.185-11.059,43.614-23.158,18.892-15.841,31.1-44.729,32.234-65.951a99.3,99.3,0,0,0-99.054-104.588Zm79,179.143a112.427,112.427,0,1,1,32.93-79.5,112.074,112.074,0,0,1-32.93,79.5ZM401.411,2590.9v-28.878H350.569V2590.9c-64.79,11.938-113.894,68.412-113.906,136.457.012,76.716,62.368,138.87,139.321,138.882,76.964-.013,139.32-62.167,139.332-138.882-.012-68.045-49.116-124.519-113.9-136.457Zm11.824-67.9H339.928v27.194h73.307V2523Zm96.86,68.2L477.441,2565l-19.306,24.076,32.654,26.2,19.306-24.075Z" fill="#a8e1f7"/>
    </g>
    <g transform="matrix(1, 0, 0, 1, 288.65, 5310.07)" filter="url(#長方形_222)">
      <rect id="長方形_222-2" data-name="長方形 222" width="484" height="72" transform="translate(36.35 86.93)" fill="url(#linear-gradient-2)"/>
    </g>
    <path id="パス_1197" data-name="パス 1197" d="M10.95-15.65a20.847,20.847,0,0,1-2.8-.125,29.229,29.229,0,0,1,.1,2.925v7.9a18.976,18.976,0,0,1-.125,2.725H10.95A13.58,13.58,0,0,1,10.8-4.95V-6.225h3.375v1.05a19.231,19.231,0,0,1-.15,2.775H16.8a15.989,15.989,0,0,1-.15-2.775v-1.05H20.4v.975c0,.65-.025.7-.575.7a12.064,12.064,0,0,1-1.65-.15,6.147,6.147,0,0,1,.575,2.375c.475.025.9.025,1.125.025,1.55,0,2.175-.15,2.625-.575.35-.375.45-.875.45-2.3v-7.7a27.126,27.126,0,0,1,.1-2.9,15.932,15.932,0,0,1-2.55.125h-2a33.217,33.217,0,0,0,3.225-2.375,9.531,9.531,0,0,1,1.25-.95L21.7-20.525a12.586,12.586,0,0,1-2.825.175h-8.1A22.253,22.253,0,0,1,7.8-20.5v2.55a18.524,18.524,0,0,1,2.6-.125h2.375L10.85-16.95a14.413,14.413,0,0,1,2.075,1.3Zm5.7,2.125H20.4V-11.9H16.65Zm-2.475,0V-11.9H10.8v-1.625ZM10.8-9.9h3.375v1.675H10.8Zm9.6,1.675H16.65V-9.9H20.4Zm-2.325-9.85a23.726,23.726,0,0,1-2.5,1.875c-1.475-1.1-1.7-1.25-2.6-1.875ZM.875-18.85a23.928,23.928,0,0,1,4.25,4.675L7.2-16.2a28.977,28.977,0,0,0-4.325-4.525ZM.95-8.775A8.3,8.3,0,0,1,2.55-8.9H3.825v5.325a14.334,14.334,0,0,1-3.3,2.4l1.35,2.75A20.963,20.963,0,0,0,4.65-.85a4.5,4.5,0,0,0,.4-.375A6.074,6.074,0,0,0,7.95.9a18.6,18.6,0,0,0,5.625.625c4.2,0,6.725-.05,10-.2A16.715,16.715,0,0,1,24.3-1.65,70.517,70.517,0,0,1,13.85-1a20.307,20.307,0,0,1-4.975-.45,4.628,4.628,0,0,1-1.25-.65A3.807,3.807,0,0,1,6.4-3.5V-8.85a25.189,25.189,0,0,1,.1-2.725,10.835,10.835,0,0,1-1.9.125H2.85a10.494,10.494,0,0,1-1.9-.125ZM51-13.35a78.3,78.3,0,0,1-.6,10.475C50.125-1.075,49.925-.8,48.925-.8a11.428,11.428,0,0,1-2.25-.275A8.336,8.336,0,0,1,47.3,1.65c1.725.075,1.725.075,2,.075,2.075,0,2.875-.55,3.325-2.25a57.392,57.392,0,0,0,.875-9.65c.125-5.125.125-5.125.2-5.725a20.354,20.354,0,0,1-2.425.1H49.25c.025-4.2.025-4.2.175-5.05H46.5a10,10,0,0,1,.15,1.925c0,1.575,0,1.825-.025,3.125h-.55a11.225,11.225,0,0,1-2.1-.125v2.675a12.433,12.433,0,0,1,2.075-.1h.525c-.3,5.625-1.325,9.275-3.375,12.025l-.025-.925c-1.6.225-1.6.225-4.3.525v-1.25H40.75a18.2,18.2,0,0,1,2.25.1v-2.35a16.477,16.477,0,0,1-2.25.1H38.875V-6.25h2.3a18.772,18.772,0,0,1,2.325.1V-8.5a17.767,17.767,0,0,1-2.325.1h-2.3V-9.5h2.7a18.083,18.083,0,0,1,1.9.05c-.025-.2-.025-.75-.05-1.625v-2.25A10.465,10.465,0,0,1,43.5-15.05a18.657,18.657,0,0,1-1.95.05H33.825a18.105,18.105,0,0,1-1.925-.05,8.788,8.788,0,0,1,.075,1.5v2.575A13.817,13.817,0,0,1,31.9-9.45c.825-.05,1.025-.05,1.925-.05h2.65v1.1H33.95a12.76,12.76,0,0,1-2.25-.125v2.4a13.693,13.693,0,0,1,2.225-.125h2.55v1.125h-2.1A12.15,12.15,0,0,1,32.2-5.25v2.4a13.445,13.445,0,0,1,2.15-.125h2.125v1.5c-2.4.225-3.7.325-4.55.325a6.128,6.128,0,0,1-.625-.025l.45,2.7c.475-.075.65-.1,1.275-.175C36.8.95,39.6.55,42.225.05A6.482,6.482,0,0,1,44,2.125a18.059,18.059,0,0,0,3.975-7.15,34.608,34.608,0,0,0,1.2-8.325ZM36.475-13v1.525h-2.2V-13Zm2.4,0h2.35v1.525h-2.35Zm-4.85-6.125h-.8a10.629,10.629,0,0,1-2.05-.125v2.45a10.836,10.836,0,0,1,1.975-.1h.875v.175A7.977,7.977,0,0,1,33.95-15.5h2.675a6.933,6.933,0,0,1-.075-1.225V-16.9H38.8v.175a6.741,6.741,0,0,1-.075,1.225h2.65a7.2,7.2,0,0,1-.075-1.2v-.2h.75a13.448,13.448,0,0,1,2.075.1v-2.45a14.234,14.234,0,0,1-2.075.125H41.3v-.325a6.767,6.767,0,0,1,.075-1.375H38.7a6.645,6.645,0,0,1,.1,1.425v.275H36.55v-.3a6.354,6.354,0,0,1,.1-1.425h-2.7a11.011,11.011,0,0,1,.075,1.45Zm41.2,3.225v2.375H72.65a19.23,19.23,0,0,1-2.775-.15v2.65c.775-.075,1.7-.125,2.75-.125H78.55v2.125H72.625A18.552,18.552,0,0,1,69.9-9.15v2.725a22.39,22.39,0,0,1,2.675-.15H78.55V-1.25c0,.55-.15.675-.925.675a22.272,22.272,0,0,1-2.8-.2,6.444,6.444,0,0,1,.6,2.625c1.725.025,1.725.025,1.95.025a7.007,7.007,0,0,0,2.75-.4c.75-.35,1-.95,1-2.4v-5.65h.325a13.593,13.593,0,0,1,2.475.15V-9.15a15.248,15.248,0,0,1-2.475.125h-.325V-11.15h.425a16.259,16.259,0,0,1,2.45.125v-2.65a18.451,18.451,0,0,1-2.725.15h-3.45V-15.9h2.75a18.136,18.136,0,0,1,2.575.125v-2.65a18.431,18.431,0,0,1-2.6.15H77.825v-.675a13.292,13.292,0,0,1,.125-1.875H75.075a11.173,11.173,0,0,1,.15,1.875v.675h-2.2a18.187,18.187,0,0,1-2.6-.15v2.65A21.171,21.171,0,0,1,73.1-15.9ZM62-2.525A22.774,22.774,0,0,1,61.85.45h2.625v-2.1H66.75V-.4H69.3c-.05-.625-.075-1.175-.075-2.5V-17.2a18.756,18.756,0,0,1,.075-2.475c-.6.05-1.05.075-2.175.075H64.1a21.659,21.659,0,0,1-2.2-.075A23.438,23.438,0,0,1,62-17.15Zm2.5-14.7h2.25V-12H64.5Zm0,7.525h2.25v5.625H64.5ZM76.275-2.45A19.186,19.186,0,0,0,73-6.275l-2.125,1.4a19.1,19.1,0,0,1,3.2,4.1Zm31.2-5.7c0-.975.025-1.6.075-2.25a20.106,20.106,0,0,1-2.325.1H99.65a20.384,20.384,0,0,1-2.325-.1c.05.675.075,1.375.075,2.25v6.1a17.235,17.235,0,0,1-.175,2.5h2.65V-.95h5.3c.2,0,.675,0,1.4.025a9.495,9.495,0,0,1,.65,2.575c1.275.075,1.375.075,1.725.075a7.615,7.615,0,0,0,2.825-.3c.9-.375,1.2-1.025,1.2-2.525V-17.475c0-1.25.025-1.875.1-2.775a22.426,22.426,0,0,1-2.575.1h-4.8a21.391,21.391,0,0,1-2.55-.1c.05.775.075,1.475.075,2.325V-14.1c0,1.075-.025,1.55-.075,2.275.625-.05,1.425-.075,2.3-.075h4.925V-1.45c0,.5-.225.675-.925.675-.45,0-1.35-.075-1.9-.125-.05-.65-.075-1.225-.075-2.175ZM105.7-18.125h4.675v1.25H105.7Zm0,3.025h4.675v1.275H105.7ZM99.875-8.2h5.1v1.5h-5.1Zm0,3.525h5.1V-3.05h-5.1ZM94.65-11.9h4.525c.875,0,1.65.025,2.3.075-.05-.55-.075-1.125-.075-2.275v-3.825c0-.975.025-1.525.075-2.325a21.123,21.123,0,0,1-2.55.1H94.5a22.706,22.706,0,0,1-2.575-.1,27.717,27.717,0,0,1,.1,2.8V-1.125a22.349,22.349,0,0,1-.15,3.1H94.8A21.684,21.684,0,0,1,94.65-1.1Zm0-6.225h4.3v1.25h-4.3Zm0,3.025h4.3v1.275h-4.3ZM144.275,2.225A19.214,19.214,0,0,1,141.1-2.75a16.911,16.911,0,0,1-1.325-6.85,16.4,16.4,0,0,1,1.3-6.625A19.482,19.482,0,0,1,144.25-21.2h-3.5A20.181,20.181,0,0,0,138-16.275,17.692,17.692,0,0,0,136.725-9.6a18.4,18.4,0,0,0,1.325,6.9,20.023,20.023,0,0,0,2.725,4.925Zm19.2-15.125A22.9,22.9,0,0,0,167.9-3.1,21.9,21.9,0,0,0,172.225.775a14.912,14.912,0,0,1,2-2.425,16.289,16.289,0,0,1-5.875-5.225,30.164,30.164,0,0,0,3.025-2.375c.65-.575.85-.725,1.425-1.175l-2.375-1.825a15.787,15.787,0,0,1-3.275,3.175,17.789,17.789,0,0,1-1.225-3.825h1.75c.925,0,1.675.05,2.475.125V-15.3a13.61,13.61,0,0,1-2.475.125h-10.25a14.711,14.711,0,0,1-2.45-.125v2.525a24.269,24.269,0,0,1,2.45-.125h1.75a12.313,12.313,0,0,1-3.2,1.55,23.808,23.808,0,0,1-4.1,1.1,11.98,11.98,0,0,1,1.325,2.1,28.828,28.828,0,0,0,5.925-2.375,12.8,12.8,0,0,1,1,1.3,29.928,29.928,0,0,1-8.775,3.5,11.161,11.161,0,0,1,1.4,2.125,36.724,36.724,0,0,0,8.375-3.925c.25.575.375.85.575,1.425a30.165,30.165,0,0,1-10.5,5.025,11.933,11.933,0,0,1,1.575,2.3A36.419,36.419,0,0,0,162.3-3.75a13.183,13.183,0,0,1,.1,1.425c0,1.35-.425,1.825-1.625,1.825A18.5,18.5,0,0,1,157.6-.85a7.786,7.786,0,0,1,.725,2.675c1.05.075,2.075.125,2.75.125a4.58,4.58,0,0,0,2.85-.6c.775-.6,1.15-1.675,1.15-3.325a14.56,14.56,0,0,0-1.725-6.65,12.656,12.656,0,0,0-2.2-3.175,14.38,14.38,0,0,0,1.35-1.1Zm-2.525-6.175h-6.5a26.938,26.938,0,0,1-2.75-.1,16.592,16.592,0,0,1,.1,1.75v1.95a11.565,11.565,0,0,1-.125,1.775H154.4v-2.975h16.325V-13.7h2.7a12.165,12.165,0,0,1-.1-1.775v-1.95a11.175,11.175,0,0,1,.1-1.75c-.775.075-1.575.1-2.775.1h-6.925v-.55a6.763,6.763,0,0,1,.125-1.475H160.8a7.1,7.1,0,0,1,.15,1.5Zm26.625-1.45v.475a38.472,38.472,0,0,1-.65,5.05c-1.375.2-4.4.5-5.325.5l.3,2.95a44.821,44.821,0,0,1,4.475-.8,42.411,42.411,0,0,1-2.425,7.075,27.312,27.312,0,0,1-2.6,4.7l2.9,1.6c.125-.25.125-.275.2-.425l.375-.75a53.618,53.618,0,0,0,3-7.025A52.884,52.884,0,0,0,189.35-12.6c.575-.05.95-.075,1.45-.075,1.975,0,2.55.675,2.55,2.975A22.213,22.213,0,0,1,192.7-4c-.375,1.225-.775,1.7-1.5,1.7a10.342,10.342,0,0,1-3.65-.975,9.39,9.39,0,0,1,.25,2.125c0,.25-.025.6-.05,1.1a12.129,12.129,0,0,0,3.85.725A3.166,3.166,0,0,0,194.375-.45c1.2-1.375,1.925-4.8,1.925-9.1,0-2.275-.325-3.475-1.175-4.425a4.843,4.843,0,0,0-3.7-1.325c-.475,0-.825.025-1.55.075.075-.325.075-.375.175-.925.35-1.875.35-1.875.425-2.4.075-.4.1-.525.15-.85a5.817,5.817,0,0,1,.2-.775Zm8.95,4.8A16.18,16.18,0,0,1,199.4-11.45a22.471,22.471,0,0,1,2,5.675l2.85-1.45a24.267,24.267,0,0,0-5.15-9.75Zm20.65-2.15a45.249,45.249,0,0,0,9.75,3.125l1.025-2.875a37.5,37.5,0,0,1-9.325-2.775Zm-2,2.2a10.2,10.2,0,0,1-.15,1.45c-.45,2.95-.85,5.725-1.05,7.275-.125.95-.125,1.05-.2,1.5l3.15.1a5.442,5.442,0,0,1,1.125-1.075,11.378,11.378,0,0,1,6.225-1.825c2.65,0,4.225,1,4.225,2.675,0,2.125-2.45,3.6-5.975,3.6a20.182,20.182,0,0,1-6.725-1.25A11.094,11.094,0,0,1,216.175,0a22.987,22.987,0,0,0,6.375.875c2.9,0,4.975-.525,6.6-1.7a6.087,6.087,0,0,0,2.575-4.825c0-3.2-2.8-5.3-7.05-5.3-3.025,0-6.125.975-7.575,2.375l-.05-.05c.075-.375.075-.375.125-.725A52.9,52.9,0,0,1,218.3-15.5Zm31,4.775a20,20,0,0,1,2.15-.1h8.35a18.99,18.99,0,0,1,2.25.1v-1.95a26.657,26.657,0,0,0,4.275,2.275,11.132,11.132,0,0,1,1.375-2.8,26.425,26.425,0,0,1-6.425-3.375,15.183,15.183,0,0,1-4.225-4.15H250.95A16.462,16.462,0,0,1,247-16.7a23.329,23.329,0,0,1-6.275,3.475,11.612,11.612,0,0,1,1.45,2.55,23.523,23.523,0,0,0,4-2.15Zm2.175-2.7c-.45,0-.6,0-1.025-.025a21.343,21.343,0,0,0,5.2-4.85,20.365,20.365,0,0,0,5.225,4.85c-.475.025-.7.025-1.1.025Zm.25,7.225a25.887,25.887,0,0,1-2.675,5c-1.275.075-2.025.1-2.2.1-.35,0-.775-.025-1.45-.075l.4,3.05a29.728,29.728,0,0,1,3.225-.35c1-.075,5.95-.525,8.425-.75.925-.1,2.425-.275,4.5-.55.425.6.675.95,1.5,2.175l2.4-1.575a51.163,51.163,0,0,0-5.775-6.675l-2.475,1.1c1.4,1.45,1.825,1.9,2.625,2.775-3.5.375-3.5.375-7.925.625a27.176,27.176,0,0,0,2.6-4.85h8.6a23.26,23.26,0,0,1,2.925.15v-2.9a23.538,23.538,0,0,1-2.925.15H244.8a24.554,24.554,0,0,1-2.95-.15v2.9a23.42,23.42,0,0,1,2.95-.15Zm28.9-1.35A13.722,13.722,0,0,0,280.725-4.9,10.662,10.662,0,0,1,282.1-7.35a14.74,14.74,0,0,1-3.975-3.175,20.54,20.54,0,0,0,2.5-4.275,6.952,6.952,0,0,1,.55-1.05l-1.2-1.3a9.107,9.107,0,0,1-1.45.075H277.5v-2.05a10.655,10.655,0,0,1,.15-1.95h-3.025a11.478,11.478,0,0,1,.15,1.9v2.1h-1.25a15.265,15.265,0,0,1-1.975-.1V-14.4a17.118,17.118,0,0,1,2.1-.1h4.075A14.854,14.854,0,0,1,275-10.65a17.243,17.243,0,0,1-4.3,3.375,9.687,9.687,0,0,1,1.275,2.6A16.848,16.848,0,0,0,274.75-6.8V-.525a14.956,14.956,0,0,1-.15,2.6h3.025a17.752,17.752,0,0,1-.125-2.55Zm10.6-3.7h2.65c.875,0,1.65.05,2.45.125v-2.825a16.26,16.26,0,0,1-2.45.125H288.1v-4.4a14.657,14.657,0,0,1,.175-2.6H285.15a17.7,17.7,0,0,1,.175,2.6V-14H283.45a16.877,16.877,0,0,1-2.45-.125V-11.3c.8-.075,1.6-.125,2.45-.125h1.875V-1.65H282.6a22.669,22.669,0,0,1-2.875-.15V1.225a20.161,20.161,0,0,1,2.825-.175h8.55a20.528,20.528,0,0,1,2.85.175V-1.8a21.444,21.444,0,0,1-2.85.15h-3ZM322.475-2.65c-.35-.2-.475-.3-.9-.575a22.362,22.362,0,0,0-6.85-3.525c-.025-.6-.025-.6-.1-3.025.975-.05,1.35-.075,1.7-.1,1.875-.175,3-.3,3.375-.35.575-.075,1.2-.15,1.625-.175l-.075-2.75a18.5,18.5,0,0,1-3.1.55c-2.3.25-2.3.25-3.55.325-.025-1.55-.025-1.85-.05-2.475,2.2-.125,3.175-.2,5.375-.5a15.638,15.638,0,0,1,1.975-.225l-.125-2.775a33.823,33.823,0,0,1-7.2.95,15.5,15.5,0,0,1,.175-3.05h-3.175a17.843,17.843,0,0,1,.125,3.15c-.625.025-1.475.05-1.875.05a32.873,32.873,0,0,1-6.725-.525l-.025,2.775h.4c.075,0,.275,0,.55.025,1.675.125,4.9.25,6.125.25.375,0,.775,0,1.575-.025.025,1.425.025,2.275.025,2.5-.7.025-1.55.05-2.05.05a32.237,32.237,0,0,1-5.825-.425l-.05,2.7c.375,0,.625,0,.95.025,2.075.15,3,.175,4.525.175.525,0,1.3-.025,2.5-.05.025,1,.025,1,.05,1.35v.55a4.818,4.818,0,0,1,.025.6,13.062,13.062,0,0,0-1.675-.1c-4.2,0-6.675,1.6-6.675,4.325,0,2.475,2.1,3.9,5.75,3.9A6.656,6.656,0,0,0,313.4-.125,3.9,3.9,0,0,0,314.8-3.5v-.275a11.123,11.123,0,0,1,1.35.625A16.869,16.869,0,0,1,320.775.275Zm-10.55-1.925v.6a3.169,3.169,0,0,1-.3,1.6,2.6,2.6,0,0,1-2.175.8c-1.775,0-2.85-.575-2.85-1.5,0-1.075,1.225-1.725,3.25-1.725A8.774,8.774,0,0,1,311.925-4.575Zm20.1-9.6a31.376,31.376,0,0,1,4.15-.5c4.85-.35,6.4-.5,8.425-.8a11.055,11.055,0,0,0-3.475,2.525,8.705,8.705,0,0,0-2.375,5.875,6.689,6.689,0,0,0,3.575,6.025A15.04,15.04,0,0,0,348.175.6c.475.075.525.075.85.15l.45-3.4c-.25.025-.475.025-.5.025a15.171,15.171,0,0,1-3.725-.65,4.2,4.2,0,0,1-3.325-4.075c0-2.525,1.875-5.025,5.05-6.675a11.18,11.18,0,0,1,4.95-1.35,3.872,3.872,0,0,1,.525.025l-.175-3.175a13.469,13.469,0,0,1-2.575.2c-6.675.325-10.95.55-12.775.65-3.675.25-3.675.25-4.125.25-.125,0-.4,0-.95-.025Zm15.3,2.4A16.874,16.874,0,0,1,349.95-8.05l1.75-.925a16.2,16.2,0,0,0-2.625-3.675Zm7.35,1.175a14.457,14.457,0,0,0-2.6-3.525l-1.675.875a18.419,18.419,0,0,1,2.55,3.625ZM364.25,2.225A20.885,20.885,0,0,0,366.975-2.7a18.776,18.776,0,0,0,1.3-6.9A17.692,17.692,0,0,0,367-16.275a19.955,19.955,0,0,0-2.725-4.925H360.75a20.427,20.427,0,0,1,3.2,4.975A16.23,16.23,0,0,1,365.225-9.6,16.828,16.828,0,0,1,363.9-2.75a19.213,19.213,0,0,1-3.175,4.975Z" transform="translate(378.38 5442.136)" fill="#fff"/>
    <path id="パス_1198" data-name="パス 1198" d="M6.975-18.54a5.8,5.8,0,0,0,2.858-.495q.787-.495.787-2.3v-4.14a2.237,2.237,0,0,0-.608-1.62,2.175,2.175,0,0,0-1.642-.63,1.938,1.938,0,0,0-1.733.765A2.657,2.657,0,0,0,6.12-25.47v2.61H1.53v-2.655a6.67,6.67,0,0,1,.54-2.655,6.455,6.455,0,0,1,1.485-2.16A7.379,7.379,0,0,1,5.76-31.77a6.781,6.781,0,0,1,2.7-.54,6,6,0,0,1,3.127.743,7.2,7.2,0,0,1,1.868,1.507,9.832,9.832,0,0,1,.788,1.08,5.256,5.256,0,0,1,.563,1.3,17.944,17.944,0,0,1,.4,4.41q0,1.665-.068,2.7a5.648,5.648,0,0,1-.337,1.71,3.42,3.42,0,0,1-.877,1.215,10.407,10.407,0,0,1-1.553,1.08,8.717,8.717,0,0,1,1.643,1.26,3.705,3.705,0,0,1,.832,1.35,6.974,6.974,0,0,1,.315,1.912q.045,1.1.045,2.813,0,1.575-.068,2.61a13.43,13.43,0,0,1-.2,1.71,5.334,5.334,0,0,1-.36,1.215,7.407,7.407,0,0,1-.585,1.035A7.271,7.271,0,0,1,11.812-.562,6.488,6.488,0,0,1,8.325.27,8.09,8.09,0,0,1,6.03-.09,6.257,6.257,0,0,1,3.825-1.26,6.353,6.353,0,0,1,2.183-3.375,7.093,7.093,0,0,1,1.53-6.57V-9.18H6.12v2.385a2.608,2.608,0,0,0,.607,1.777,2.067,2.067,0,0,0,1.642.7,2.067,2.067,0,0,0,1.642-.7,2.743,2.743,0,0,0,.608-1.867v-4.59A3.158,3.158,0,0,0,9.9-13.95a2,2,0,0,0-1.1-.45,14.815,14.815,0,0,0-1.822-.09Zm15.8-6.885a7,7,0,0,1,.563-2.88,6.739,6.739,0,0,1,1.507-2.16,6.486,6.486,0,0,1,2.182-1.372,7.193,7.193,0,0,1,2.588-.473,7.192,7.192,0,0,1,2.587.473,6.486,6.486,0,0,1,2.182,1.372,6.739,6.739,0,0,1,1.508,2.16,7,7,0,0,1,.563,2.88v18.81a7,7,0,0,1-.562,2.88,6.739,6.739,0,0,1-1.508,2.16A6.486,6.486,0,0,1,32.2-.2,7.192,7.192,0,0,1,29.61.27,7.193,7.193,0,0,1,27.022-.2,6.486,6.486,0,0,1,24.84-1.575a6.739,6.739,0,0,1-1.507-2.16,7,7,0,0,1-.562-2.88Zm4.59,18.81a2.27,2.27,0,0,0,.63,1.642,2.153,2.153,0,0,0,1.62.652,2.153,2.153,0,0,0,1.62-.652,2.27,2.27,0,0,0,.63-1.642v-18.81a2.27,2.27,0,0,0-.63-1.642,2.153,2.153,0,0,0-1.62-.653,2.153,2.153,0,0,0-1.62.653,2.27,2.27,0,0,0-.63,1.642Zm31.41-11.2a22.364,22.364,0,0,1-.27,2.61A17.411,17.411,0,0,1,52.6-4.95,21.234,21.234,0,0,1,45.63-.81,15.97,15.97,0,0,1,48.915,3.6c5.31-2.655,8.955-5.76,11.43-9.9a23.943,23.943,0,0,0,3.51-11.52h8.64v2.61c0,4.68-.72,10.62-1.395,11.97-.4.675-.9.855-2.565.855A36.992,36.992,0,0,1,63.09-2.97,19.327,19.327,0,0,1,64.44,2.3c3.015.135,3.735.18,4.635.18,4.005,0,5.625-.63,6.615-2.61,1.125-2.385,1.89-9.5,1.89-18.81v-1.53a45.886,45.886,0,0,0,5.58,4.725,20.951,20.951,0,0,1,3.42-4.86A34.9,34.9,0,0,1,74.115-33.66a16.819,16.819,0,0,1-1.755-3.915l-5,1.935a18.458,18.458,0,0,1,.945,1.89,44.99,44.99,0,0,0,7.425,11.3c-1.08.045-1.71.045-2.79.045H56.385a23.258,23.258,0,0,1-2.34-.09A50.05,50.05,0,0,0,61.29-33.435a12.726,12.726,0,0,1,1.215-2.3l-5.4-1.935a13.989,13.989,0,0,1-1.8,4.545A34.7,34.7,0,0,1,43.47-20.2a15.645,15.645,0,0,1,3.465,4.41,44.734,44.734,0,0,0,5.625-5v3.2a31.27,31.27,0,0,1,3.825-.225Zm67.005-18.99a18.376,18.376,0,0,1,.18,2.97q0,13.365-4.86,21.2C117.81-7.335,112.95-3.69,105.03-.63a20.631,20.631,0,0,1,2.88,4.455C114.66.99,119.34-2.34,122.985-6.93A35.076,35.076,0,0,0,132.66,3.465a19.8,19.8,0,0,1,3.15-5.13A25.978,25.978,0,0,1,126-11.34a32.207,32.207,0,0,0,2.835-6.57,60.407,60.407,0,0,0,2.16-12.555c.4-5.76.4-5.76.45-6.255ZM98.55-7.74a29.417,29.417,0,0,1-4.5,1.44L95.49-.81c1.125-.54,1.44-.675,3.15-1.44A120.436,120.436,0,0,0,116.325-11.2l-1.08-4.725A94.044,94.044,0,0,1,103.68-9.81l-.225-21.465v-.99a39.742,39.742,0,0,1,.225-4.41H97.965a41.169,41.169,0,0,1,.36,5.355Zm8.82-23.58a52,52,0,0,1,8.6,11.475L120.6-23.04a67.342,67.342,0,0,0-8.91-11.025Zm58.095,11.79H176.04a46.986,46.986,0,0,1,5.22.27v-5.355a45.834,45.834,0,0,1-5.22.27H165.465V-32.04a36.31,36.31,0,0,1,.315-5.175h-5.9a38.521,38.521,0,0,1,.315,5.175V-2.97H149.94a59.38,59.38,0,0,1-6.21-.27v5.4a56.25,56.25,0,0,1,6.21-.315h28.575a49.1,49.1,0,0,1,5.985.315v-5.4a57.792,57.792,0,0,1-6.075.27h-12.96ZM197.955,0V-27.18l-4.59,3.375v-4.86l4.59-3.375h4.59V0Zm41.67-28.62v4.275H234.99a34.615,34.615,0,0,1-5-.27v4.77c1.4-.135,3.06-.225,4.95-.225H245.61v3.825H234.945a33.394,33.394,0,0,1-4.9-.225v4.9a40.3,40.3,0,0,1,4.815-.27H245.61V-2.25c0,.99-.27,1.215-1.665,1.215a40.09,40.09,0,0,1-5.04-.36,11.6,11.6,0,0,1,1.08,4.725c3.1.045,3.1.045,3.51.045a12.612,12.612,0,0,0,4.95-.72c1.35-.63,1.8-1.71,1.8-4.32v-10.17h.585a24.467,24.467,0,0,1,4.455.27v-4.9a27.446,27.446,0,0,1-4.455.225h-.585V-20.07h.765a29.267,29.267,0,0,1,4.41.225v-4.77a33.213,33.213,0,0,1-4.9.27H244.3V-28.62h4.95a32.645,32.645,0,0,1,4.635.225v-4.77a33.176,33.176,0,0,1-4.68.27H244.3V-34.11a23.925,23.925,0,0,1,.225-3.375h-5.175a20.112,20.112,0,0,1,.27,3.375V-32.9h-3.96a32.737,32.737,0,0,1-4.68-.27v4.77a38.107,38.107,0,0,1,4.815-.225ZM215.82-4.545A41,41,0,0,1,215.55.81h4.725V-2.97h4.1V-.72h4.59c-.09-1.125-.135-2.115-.135-4.5V-30.96a33.761,33.761,0,0,1,.135-4.455c-1.08.09-1.89.135-3.915.135H219.6a38.985,38.985,0,0,1-3.96-.135,42.187,42.187,0,0,1,.18,4.545Zm4.5-26.46h4.05V-21.6h-4.05Zm0,13.545h4.05V-7.335h-4.05ZM241.515-4.41a34.534,34.534,0,0,0-5.9-6.885l-3.825,2.52a34.376,34.376,0,0,1,5.76,7.38Zm51.66-10.26c0-1.755.045-2.88.135-4.05a36.19,36.19,0,0,1-4.185.18H279.09a36.691,36.691,0,0,1-4.185-.18c.09,1.215.135,2.475.135,4.05V-3.69a31.023,31.023,0,0,1-.315,4.5h4.77V-1.71h9.54c.36,0,1.215,0,2.52.045a17.09,17.09,0,0,1,1.17,4.635c2.295.135,2.475.135,3.105.135,2.79,0,4.14-.135,5.085-.54,1.62-.675,2.16-1.845,2.16-4.545V-31.455c0-2.25.045-3.375.18-5a40.367,40.367,0,0,1-4.635.18h-8.64a38.5,38.5,0,0,1-4.59-.18c.09,1.4.135,2.655.135,4.185v6.885c0,1.935-.045,2.79-.135,4.1,1.125-.09,2.565-.135,4.14-.135h8.865V-2.61c0,.9-.4,1.215-1.665,1.215-.81,0-2.43-.135-3.42-.225-.09-1.17-.135-2.205-.135-3.915ZM289.98-32.625h8.415v2.25H289.98Zm0,5.445h8.415v2.3H289.98ZM279.495-14.76h9.18v2.7h-9.18Zm0,6.345h9.18V-5.49h-9.18Zm-9.4-13.005h8.145c1.575,0,2.97.045,4.14.135-.09-.99-.135-2.025-.135-4.1v-6.885c0-1.755.045-2.745.135-4.185a38.022,38.022,0,0,1-4.59.18H269.82a40.871,40.871,0,0,1-4.635-.18,49.887,49.887,0,0,1,.18,5.04V-2.025a40.23,40.23,0,0,1-.27,5.58h5.265a39.028,39.028,0,0,1-.27-5.535Zm0-11.2h7.74v2.25h-7.74Zm0,5.445h7.74v2.3h-7.74Zm65.655-4.86v-2.7a15.741,15.741,0,0,1,.225-3.24h-5.49a16.909,16.909,0,0,1,.225,3.195v2.745H321.84a33.6,33.6,0,0,1-5.4-.315v5.22a36.292,36.292,0,0,1,5.445-.27h8.82v6.255H319.32a44.483,44.483,0,0,1-5.355-.27v5.22a47.474,47.474,0,0,1,5.4-.27h9.09a39.394,39.394,0,0,1-5.535,6.435,41.078,41.078,0,0,1-10.4,7.02A23.245,23.245,0,0,1,315.63,1.53a45.363,45.363,0,0,0,8.91-6.615,33.5,33.5,0,0,0,6.3-7.515c-.135,2.115-.135,2.745-.135,4.23v7.245a29.364,29.364,0,0,1-.315,4.815h5.67a32.666,32.666,0,0,1-.315-4.86V-8.6c0-.9-.045-1.62-.135-4.185a31.871,31.871,0,0,0,6.84,8.055A44.913,44.913,0,0,0,351.765,1.8a25.608,25.608,0,0,1,3.06-4.86c-7.56-3.285-12.42-7.155-16.83-13.41h10.08a45.065,45.065,0,0,1,5.445.27v-5.22a41.125,41.125,0,0,1-5.445.27h-12.33v-6.255H345.6a33.583,33.583,0,0,1,5.4.27v-5.22a31.042,31.042,0,0,1-5.445.315Zm49.635,9.63v2.925h-8.82a33.026,33.026,0,0,1-3.375-.135c.09,1.215.135,2.2.135,3.825v14.4a41.3,41.3,0,0,1-.27,5.175h4.9a37.69,37.69,0,0,1-.225-4.95V-15.435h7.65V-6.66H383.4V-9.945a31.452,31.452,0,0,1,.135-3.465H379.35a24.759,24.759,0,0,1,.18,3.465v5.94a26.774,26.774,0,0,1-.18,3.645h4.05V-2.61h9.225c1.575.045,2.61.045,3.06.09a33.986,33.986,0,0,1-.09-3.42V-9.9a29.807,29.807,0,0,1,.135-3.465h-4.14a33.187,33.187,0,0,1,.135,3.465v3.24h-2.07v-8.775h7.92v13.32c0,.9-.18,1.035-1.4,1.035a40.629,40.629,0,0,1-4.635-.36,15.918,15.918,0,0,1,1.035,4.59c.855.09,1.08.09,2.025.135h1.71c4.545,0,5.76-.81,5.76-3.87V-15.03a30.042,30.042,0,0,1,.225-4.635,45.75,45.75,0,0,1-4.95.18h-7.7V-22.41h9.495a34.189,34.189,0,0,1,4.995.27v-4.68a26.1,26.1,0,0,1-4.995.27h-3.285v-3.285h2.43a39.131,39.131,0,0,1,4.41.225v-4.725a39.688,39.688,0,0,1-4.5.225h-2.34v-.315a21.43,21.43,0,0,1,.225-3.33h-5.085a17.273,17.273,0,0,1,.225,3.33v.315h-7.155v-.315a16.445,16.445,0,0,1,.225-3.33h-5.085a21.863,21.863,0,0,1,.225,3.33v.315h-1.53a38.232,38.232,0,0,1-4.455-.225v2.25a38.054,38.054,0,0,0-6.525-5.355l-3.24,3.105a34.8,34.8,0,0,1,6.93,6.21l2.835-3.195v1.71a30.851,30.851,0,0,1,4.365-.225h1.62v3.285H376.7a31.164,31.164,0,0,1-4.77-.27v4.68a34.5,34.5,0,0,1,4.905-.27Zm-1.3-4.14v-3.285h7.155v3.285Zm-21.69,3.645a39.355,39.355,0,0,1,6.93,6.21l3.24-3.51a38.556,38.556,0,0,0-6.885-5.94Zm5.625,9.27c-1.71,6.12-3.645,10.62-5.805,13.32l4.23,3.87a11.367,11.367,0,0,1,.72-1.62,83.34,83.34,0,0,0,4.77-12.825Zm61.425-16.38v6.57h6.57v-6.57Zm0,19.26v6.57h6.57v-6.57ZM478.588,0V-9.434H460.521v-8.544L473.6-63.368h9.612L469.6-17.978h8.989V-36.045h9.078v18.067h4.361v8.544h-4.361V0ZM506.8,0l15.931-54.824h-9.968v7.3h-8.01V-63.368H531.81v9.078L516.413,0Zm44.135.135,2.295,1.8,28.35-36.27-2.34-1.8Zm25.92,1.35A8.283,8.283,0,0,0,582.931-.81c1.71-1.665,2.61-4.365,2.61-7.785,0-3.375-.9-6.075-2.61-7.74a8.394,8.394,0,0,0-6.075-2.3,8.578,8.578,0,0,0-6.12,2.3c-1.71,1.71-2.61,4.365-2.61,7.74,0,3.42.9,6.12,2.61,7.785A8.318,8.318,0,0,0,576.856,1.485Zm0-16.29a3.241,3.241,0,0,1,2.88,1.395,7.945,7.945,0,0,1,1.215,4.5c0,4.365-1.4,6.615-4.1,6.615-2.655,0-4.095-2.25-4.095-6.39a7.825,7.825,0,0,1,1.215-4.68A3.133,3.133,0,0,1,576.856-14.805Zm-21.2-.765a8.283,8.283,0,0,0,6.075-2.3c1.71-1.665,2.61-4.365,2.61-7.785,0-3.375-.9-6.075-2.61-7.74a8.393,8.393,0,0,0-6.075-2.295c-5.49,0-8.73,3.735-8.73,10.035,0,3.375.9,6.12,2.61,7.785A8.319,8.319,0,0,0,555.661-15.57Zm0-16.29a3.463,3.463,0,0,1,3.285,2.025,9.879,9.879,0,0,1,.81,4.185c0,4.05-1.485,6.3-4.1,6.3-2.655,0-4.095-2.25-4.095-6.39C551.566-29.655,553.051-31.86,555.661-31.86Z" transform="translate(365 5578)" fill="#0052aa"/>
    <path id="パス_1199" data-name="パス 1199" d="M5.27,0V-20.536L1.8-17.986v-3.672l3.468-2.55H8.738V0ZM36.754-21.624v3.23h-3.5a26.154,26.154,0,0,1-3.774-.2v3.6c1.054-.1,2.312-.17,3.74-.17h8.058v2.89H33.218a25.231,25.231,0,0,1-3.706-.17v3.706a30.45,30.45,0,0,1,3.638-.2h8.126V-1.7c0,.748-.2.918-1.258.918a30.29,30.29,0,0,1-3.808-.272,8.764,8.764,0,0,1,.816,3.57c2.346.034,2.346.034,2.652.034a9.529,9.529,0,0,0,3.74-.544c1.02-.476,1.36-1.292,1.36-3.264V-8.942h.442a18.486,18.486,0,0,1,3.366.2v-3.706a20.737,20.737,0,0,1-3.366.17h-.442v-2.89h.578a22.113,22.113,0,0,1,3.332.17v-3.6a25.094,25.094,0,0,1-3.706.2H40.29v-3.23h3.74a24.665,24.665,0,0,1,3.5.17v-3.6a25.067,25.067,0,0,1-3.536.2H40.29v-.918a18.077,18.077,0,0,1,.17-2.55H36.55a15.2,15.2,0,0,1,.2,2.55v.918H33.762a24.735,24.735,0,0,1-3.536-.2v3.6a28.792,28.792,0,0,1,3.638-.17ZM18.768-3.434a30.974,30.974,0,0,1-.2,4.046h3.57V-2.244h3.094v1.7H28.7c-.068-.85-.1-1.6-.1-3.4V-23.392a25.51,25.51,0,0,1,.1-3.366c-.816.068-1.428.1-2.958.1H21.624a29.456,29.456,0,0,1-2.992-.1,31.874,31.874,0,0,1,.136,3.434Zm3.4-19.992h3.06v7.106h-3.06Zm0,10.234h3.06v7.65h-3.06Zm16.014,9.86a26.092,26.092,0,0,0-4.454-5.2l-2.89,1.9A25.973,25.973,0,0,1,35.19-1.054Zm39.032-7.752c0-1.326.034-2.176.1-3.06a27.344,27.344,0,0,1-3.162.136H66.572a27.723,27.723,0,0,1-3.162-.136c.068.918.1,1.87.1,3.06v8.3a23.439,23.439,0,0,1-.238,3.4h3.6v-1.9h7.208c.272,0,.918,0,1.9.034a12.913,12.913,0,0,1,.884,3.5c1.734.1,1.87.1,2.346.1a10.357,10.357,0,0,0,3.842-.408c1.224-.51,1.632-1.394,1.632-3.434v-22.27c0-1.7.034-2.55.136-3.774a30.5,30.5,0,0,1-3.5.136H74.8a29.092,29.092,0,0,1-3.468-.136c.068,1.054.1,2.006.1,3.162v5.2c0,1.462-.034,2.108-.1,3.094.85-.068,1.938-.1,3.128-.1h6.7V-1.972c0,.68-.306.918-1.258.918-.612,0-1.836-.1-2.584-.17-.068-.884-.1-1.666-.1-2.958ZM74.8-24.65h6.358v1.7H74.8Zm0,4.114h6.358V-18.8H74.8Zm-7.922,9.384h6.936v2.04H66.878Zm0,4.794h6.936v2.21H66.878Zm-7.106-9.826h6.154c1.19,0,2.244.034,3.128.1-.068-.748-.1-1.53-.1-3.094v-5.2c0-1.326.034-2.074.1-3.162a28.727,28.727,0,0,1-3.468.136H59.568a30.88,30.88,0,0,1-3.5-.136,37.694,37.694,0,0,1,.136,3.808v22.2A30.4,30.4,0,0,1,56,2.686h3.978a29.491,29.491,0,0,1-.2-4.182Zm0-8.466H65.62v1.7H59.772Zm0,4.114H65.62V-18.8H59.772Zm56.61-7.276a13.885,13.885,0,0,1,.136,2.244q0,10.1-3.672,16.014c-2.482,4.012-6.154,6.766-12.138,9.078a15.588,15.588,0,0,1,2.176,3.366c5.1-2.142,8.636-4.658,11.39-8.126a26.5,26.5,0,0,0,7.31,7.854,14.957,14.957,0,0,1,2.38-3.876,19.628,19.628,0,0,1-7.412-7.31,24.335,24.335,0,0,0,2.142-4.964,45.641,45.641,0,0,0,1.632-9.486c.306-4.352.306-4.352.34-4.726ZM95.812-5.848a22.226,22.226,0,0,1-3.4,1.088L93.5-.612c.85-.408,1.088-.51,2.38-1.088a91,91,0,0,0,13.362-6.766l-.816-3.57a71.057,71.057,0,0,1-8.738,4.624l-.17-16.218v-.748a30.025,30.025,0,0,1,.17-3.332H95.37a31.105,31.105,0,0,1,.272,4.046Zm6.664-17.816a39.285,39.285,0,0,1,6.494,8.67l3.5-2.414a50.88,50.88,0,0,0-6.732-8.33Zm43.894,8.908h7.99a35.5,35.5,0,0,1,3.944.2V-18.6a34.631,34.631,0,0,1-3.944.2h-7.99v-5.814a27.435,27.435,0,0,1,.238-3.91h-4.454a29.106,29.106,0,0,1,.238,3.91V-2.244H134.64a44.864,44.864,0,0,1-4.692-.2v4.08a42.5,42.5,0,0,1,4.692-.238h21.59a37.1,37.1,0,0,1,4.522.238v-4.08a43.665,43.665,0,0,1-4.59.2H146.37Zm33.8-7.922v4.964h4.964v-4.964Zm0,14.552v4.964h4.964V-8.126ZM213.433-27.6a8.637,8.637,0,0,0,4.255-.737q1.172-.737,1.173-3.417v-6.164a3.331,3.331,0,0,0-.9-2.412,3.239,3.239,0,0,0-2.445-.938,2.885,2.885,0,0,0-2.579,1.139,3.956,3.956,0,0,0-.771,2.211v3.886h-6.834v-3.953a9.931,9.931,0,0,1,.8-3.953,9.611,9.611,0,0,1,2.211-3.216,10.987,10.987,0,0,1,3.283-2.144,10.1,10.1,0,0,1,4.02-.8A8.928,8.928,0,0,1,220.3-47a10.722,10.722,0,0,1,2.781,2.244,14.64,14.64,0,0,1,1.173,1.608,7.825,7.825,0,0,1,.837,1.943,26.717,26.717,0,0,1,.6,6.566q0,2.479-.1,4.02a8.409,8.409,0,0,1-.5,2.546,5.092,5.092,0,0,1-1.307,1.809,15.5,15.5,0,0,1-2.311,1.608,12.979,12.979,0,0,1,2.445,1.876,5.516,5.516,0,0,1,1.24,2.01,10.383,10.383,0,0,1,.469,2.847q.067,1.642.067,4.188,0,2.345-.1,3.886a20,20,0,0,1-.3,2.546,7.942,7.942,0,0,1-.536,1.809,11.029,11.029,0,0,1-.871,1.541,10.825,10.825,0,0,1-3.25,3.116A9.66,9.66,0,0,1,215.443.4a12.045,12.045,0,0,1-3.417-.536,9.316,9.316,0,0,1-3.283-1.742A9.458,9.458,0,0,1,206.3-5.025a10.56,10.56,0,0,1-.971-4.757v-3.886h6.834v3.551a3.884,3.884,0,0,0,.9,2.646,3.077,3.077,0,0,0,2.446,1.038,3.077,3.077,0,0,0,2.445-1.038,4.085,4.085,0,0,0,.9-2.78v-6.834q0-2.814-1.072-3.685a2.981,2.981,0,0,0-1.642-.67,22.057,22.057,0,0,0-2.714-.134Zm31.624,0a8.637,8.637,0,0,0,4.255-.737q1.172-.737,1.173-3.417v-6.164a3.331,3.331,0,0,0-.9-2.412,3.239,3.239,0,0,0-2.445-.938,2.885,2.885,0,0,0-2.579,1.139,3.956,3.956,0,0,0-.771,2.211v3.886H236.95v-3.953a9.931,9.931,0,0,1,.8-3.953,9.611,9.611,0,0,1,2.211-3.216,10.987,10.987,0,0,1,3.283-2.144,10.1,10.1,0,0,1,4.02-.8A8.928,8.928,0,0,1,251.924-47a10.722,10.722,0,0,1,2.781,2.244,14.64,14.64,0,0,1,1.173,1.608,7.825,7.825,0,0,1,.837,1.943,26.716,26.716,0,0,1,.6,6.566q0,2.479-.1,4.02a8.409,8.409,0,0,1-.5,2.546,5.092,5.092,0,0,1-1.307,1.809,15.5,15.5,0,0,1-2.311,1.608,12.979,12.979,0,0,1,2.445,1.876,5.516,5.516,0,0,1,1.239,2.01,10.383,10.383,0,0,1,.469,2.847q.067,1.642.067,4.188,0,2.345-.1,3.886a19.992,19.992,0,0,1-.3,2.546,7.942,7.942,0,0,1-.536,1.809,11.032,11.032,0,0,1-.871,1.541,10.825,10.825,0,0,1-3.25,3.116A9.66,9.66,0,0,1,247.067.4a12.045,12.045,0,0,1-3.417-.536,9.316,9.316,0,0,1-3.283-1.742,9.458,9.458,0,0,1-2.446-3.149,10.56,10.56,0,0,1-.971-4.757v-3.886h6.834v3.551a3.884,3.884,0,0,0,.9,2.646,3.077,3.077,0,0,0,2.446,1.038,3.077,3.077,0,0,0,2.445-1.038,4.085,4.085,0,0,0,.9-2.78v-6.834q0-2.814-1.072-3.685a2.981,2.981,0,0,0-1.642-.67,22.057,22.057,0,0,0-2.714-.134ZM271.736.1l1.734,1.36,21.42-27.4-1.768-1.36Zm19.584,1.02a6.258,6.258,0,0,0,4.59-1.734c1.292-1.258,1.972-3.3,1.972-5.882,0-2.55-.68-4.59-1.972-5.848a6.342,6.342,0,0,0-4.59-1.734,6.481,6.481,0,0,0-4.624,1.734,8.047,8.047,0,0,0-1.972,5.848c0,2.584.68,4.624,1.972,5.882A6.285,6.285,0,0,0,291.32,1.122Zm0-12.308a2.449,2.449,0,0,1,2.176,1.054,6,6,0,0,1,.918,3.4c0,3.3-1.054,5-3.094,5-2.006,0-3.094-1.7-3.094-4.828a5.912,5.912,0,0,1,.918-3.536A2.367,2.367,0,0,1,291.32-11.186Zm-16.014-.578A6.258,6.258,0,0,0,279.9-13.5c1.292-1.258,1.972-3.3,1.972-5.882,0-2.55-.68-4.59-1.972-5.848a6.342,6.342,0,0,0-4.59-1.734c-4.148,0-6.6,2.822-6.6,7.582,0,2.55.68,4.624,1.972,5.882A6.285,6.285,0,0,0,275.306-11.764Zm0-12.308a2.617,2.617,0,0,1,2.482,1.53,7.464,7.464,0,0,1,.612,3.162c0,3.06-1.122,4.76-3.094,4.76-2.006,0-3.094-1.7-3.094-4.828C272.212-22.406,273.334-24.072,275.306-24.072Z" transform="translate(365 5669)" fill="#0052aa"/>
    <path id="パス_1200" data-name="パス 1200" d="M3.875,0V-15.1l-2.55,1.875v-2.7L3.875-17.8h2.55V0ZM20.25-17.8v2.4H15.2v4.8a2.856,2.856,0,0,1,.9-.588,3.059,3.059,0,0,1,1.225-.237,2.908,2.908,0,0,1,2.112.787,3.149,3.149,0,0,1,.813,2.363v4.6a3.888,3.888,0,0,1-.312,1.6,3.744,3.744,0,0,1-.837,1.2,3.6,3.6,0,0,1-1.212.763A4,4,0,0,1,16.45.15a4,4,0,0,1-1.437-.263A3.6,3.6,0,0,1,13.8-.875a3.744,3.744,0,0,1-.837-1.2,3.888,3.888,0,0,1-.312-1.6v-.75H15.2v.65a1.369,1.369,0,0,0,.362,1.012A1.269,1.269,0,0,0,16.5-2.4a1.128,1.128,0,0,0,.888-.35,1.413,1.413,0,0,0,.313-.975V-7.9a1.3,1.3,0,0,0-.338-.9,1.109,1.109,0,0,0-.862-.375,1.221,1.221,0,0,0-.55.113,1.427,1.427,0,0,0-.375.262,1.038,1.038,0,0,0-.225.325q-.125.225-.15.275H12.95v-9.6Zm12.4,7.9a12.425,12.425,0,0,1-.15,1.45,9.673,9.673,0,0,1-3.275,5.7A11.8,11.8,0,0,1,25.35-.45,8.872,8.872,0,0,1,27.175,2a14.48,14.48,0,0,0,6.35-5.5,13.3,13.3,0,0,0,1.95-6.4h4.8v1.45A24.56,24.56,0,0,1,39.5-1.8c-.225.375-.5.475-1.425.475A20.551,20.551,0,0,1,35.05-1.65a10.737,10.737,0,0,1,.75,2.925c1.675.075,2.075.1,2.575.1,2.225,0,3.125-.35,3.675-1.45C42.675-1.4,43.1-5.35,43.1-10.525v-.85A25.493,25.493,0,0,0,46.2-8.75a11.639,11.639,0,0,1,1.9-2.7,19.387,19.387,0,0,1-6.925-7.25,9.344,9.344,0,0,1-.975-2.175L37.425-19.8a10.255,10.255,0,0,1,.525,1.05,24.994,24.994,0,0,0,4.125,6.275c-.6.025-.95.025-1.55.025h-9.2a12.921,12.921,0,0,1-1.3-.05,27.806,27.806,0,0,0,4.025-6.075,7.07,7.07,0,0,1,.675-1.275l-3-1.075a7.772,7.772,0,0,1-1,2.525,19.275,19.275,0,0,1-6.575,7.175,8.692,8.692,0,0,1,1.925,2.45A24.852,24.852,0,0,0,29.2-11.55v1.775A17.372,17.372,0,0,1,31.325-9.9Zm32.075-7.9v-1.5a8.745,8.745,0,0,1,.125-1.8H61.8a9.394,9.394,0,0,1,.125,1.775V-17.8H57a18.669,18.669,0,0,1-3-.175v2.9a20.162,20.162,0,0,1,3.025-.15h4.9v3.475H55.6a24.713,24.713,0,0,1-2.975-.15V-9a26.374,26.374,0,0,1,3-.15h5.05A21.886,21.886,0,0,1,57.6-5.575a22.821,22.821,0,0,1-5.775,3.9A12.914,12.914,0,0,1,53.55.85,25.2,25.2,0,0,0,58.5-2.825,18.611,18.611,0,0,0,62-7c-.075,1.175-.075,1.525-.075,2.35V-.625A16.312,16.312,0,0,1,61.75,2.05H64.9a18.149,18.149,0,0,1-.175-2.7V-4.775c0-.5-.025-.9-.075-2.325a17.706,17.706,0,0,0,3.8,4.475A24.952,24.952,0,0,0,73.625,1a14.228,14.228,0,0,1,1.7-2.7,20.447,20.447,0,0,1-9.35-7.45h5.6A25.036,25.036,0,0,1,74.6-9v-2.9a22.847,22.847,0,0,1-3.025.15h-6.85v-3.475H70.2a18.657,18.657,0,0,1,3,.15v-2.9a17.245,17.245,0,0,1-3.025.175ZM92.3-12.45v1.625H87.4a18.348,18.348,0,0,1-1.875-.075c.05.675.075,1.225.075,2.125v8A22.947,22.947,0,0,1,85.45,2.1h2.725A20.938,20.938,0,0,1,88.05-.65V-8.575H92.3V-3.7H91.2V-5.525a17.472,17.472,0,0,1,.075-1.925H88.95a13.753,13.753,0,0,1,.1,1.925v3.3A14.872,14.872,0,0,1,88.95-.2H91.2V-1.45h5.125c.875.025,1.45.025,1.7.05a18.879,18.879,0,0,1-.05-1.9V-5.5a16.558,16.558,0,0,1,.075-1.925h-2.3A18.436,18.436,0,0,1,95.825-5.5v1.8h-1.15V-8.575h4.4v7.4c0,.5-.1.575-.775.575a22.572,22.572,0,0,1-2.575-.2A8.843,8.843,0,0,1,96.3,1.75c.475.05.6.05,1.125.075h.95c2.525,0,3.2-.45,3.2-2.15V-8.35a16.689,16.689,0,0,1,.125-2.575,25.417,25.417,0,0,1-2.75.1H94.675V-12.45H99.95a18.994,18.994,0,0,1,2.775.15v-2.6a14.5,14.5,0,0,1-2.775.15H98.125v-1.825h1.35a21.74,21.74,0,0,1,2.45.125v-2.625a22.048,22.048,0,0,1-2.5.125h-1.3v-.175a11.9,11.9,0,0,1,.125-1.85H95.425a9.6,9.6,0,0,1,.125,1.85v.175H91.575v-.175a9.136,9.136,0,0,1,.125-1.85H88.875A12.147,12.147,0,0,1,89-19.125v.175h-.85a21.239,21.239,0,0,1-2.475-.125v1.25A21.142,21.142,0,0,0,82.05-20.8l-1.8,1.725a19.332,19.332,0,0,1,3.85,3.45L85.675-17.4v.95a17.139,17.139,0,0,1,2.425-.125H89v1.825H87.475a17.314,17.314,0,0,1-2.65-.15v2.6a19.164,19.164,0,0,1,2.725-.15Zm-.725-2.3v-1.825H95.55v1.825Zm-12.05,2.025a21.863,21.863,0,0,1,3.85,3.45l1.8-1.95a21.42,21.42,0,0,0-3.825-3.3Zm3.125,5.15a21.661,21.661,0,0,1-3.225,7.4l2.35,2.15a6.314,6.314,0,0,1,.4-.9,46.3,46.3,0,0,0,2.65-7.125Zm34.125-9.1v3.65h3.65v-3.65Zm0,10.7v3.65h3.65v-3.65ZM141.35,0V-30.2l-5.1,3.75v-5.4l5.1-3.75h5.1V0ZM158.9-28.25a7.775,7.775,0,0,1,.625-3.2,7.488,7.488,0,0,1,1.675-2.4,7.206,7.206,0,0,1,2.425-1.525A7.992,7.992,0,0,1,166.5-35.9a7.992,7.992,0,0,1,2.875.525A7.206,7.206,0,0,1,171.8-33.85a7.488,7.488,0,0,1,1.675,2.4,7.776,7.776,0,0,1,.625,3.2v20.9a7.776,7.776,0,0,1-.625,3.2,7.488,7.488,0,0,1-1.675,2.4,7.206,7.206,0,0,1-2.425,1.525A7.992,7.992,0,0,1,166.5.3a7.992,7.992,0,0,1-2.875-.525A7.206,7.206,0,0,1,161.2-1.75a7.488,7.488,0,0,1-1.675-2.4,7.775,7.775,0,0,1-.625-3.2ZM164-7.35a2.522,2.522,0,0,0,.7,1.825,2.392,2.392,0,0,0,1.8.725,2.392,2.392,0,0,0,1.8-.725A2.522,2.522,0,0,0,169-7.35v-20.9a2.522,2.522,0,0,0-.7-1.825,2.392,2.392,0,0,0-1.8-.725,2.392,2.392,0,0,0-1.8.725,2.522,2.522,0,0,0-.7,1.825ZM184.8.075l1.275,1,15.75-20.15-1.3-1Zm14.4.75A4.6,4.6,0,0,0,202.575-.45a5.9,5.9,0,0,0,1.45-4.325,5.877,5.877,0,0,0-1.45-4.3A4.663,4.663,0,0,0,199.2-10.35a4.766,4.766,0,0,0-3.4,1.275,5.917,5.917,0,0,0-1.45,4.3A5.9,5.9,0,0,0,195.8-.45,4.621,4.621,0,0,0,199.2.825Zm0-9.05a1.8,1.8,0,0,1,1.6.775,4.414,4.414,0,0,1,.675,2.5c0,2.425-.775,3.675-2.275,3.675-1.475,0-2.275-1.25-2.275-3.55a4.347,4.347,0,0,1,.675-2.6A1.74,1.74,0,0,1,199.2-8.225ZM187.425-8.65A4.6,4.6,0,0,0,190.8-9.925a5.9,5.9,0,0,0,1.45-4.325,5.877,5.877,0,0,0-1.45-4.3,4.663,4.663,0,0,0-3.375-1.275c-3.05,0-4.85,2.075-4.85,5.575a5.941,5.941,0,0,0,1.45,4.325A4.621,4.621,0,0,0,187.425-8.65Zm0-9.05a1.924,1.924,0,0,1,1.825,1.125,5.488,5.488,0,0,1,.45,2.325c0,2.25-.825,3.5-2.275,3.5-1.475,0-2.275-1.25-2.275-3.55C185.15-16.475,185.975-17.7,187.425-17.7Z" transform="translate(365 5742)" fill="#0052aa"/>
    <path id="パス_1201" data-name="パス 1201" d="M3.875,0V-15.1l-2.55,1.875v-2.7L3.875-17.8h2.55V0ZM20.25-17.8v2.4H15.2v4.8a2.856,2.856,0,0,1,.9-.588,3.059,3.059,0,0,1,1.225-.237,2.908,2.908,0,0,1,2.112.787,3.149,3.149,0,0,1,.813,2.363v4.6a3.888,3.888,0,0,1-.312,1.6,3.744,3.744,0,0,1-.837,1.2,3.6,3.6,0,0,1-1.212.763A4,4,0,0,1,16.45.15a4,4,0,0,1-1.437-.263A3.6,3.6,0,0,1,13.8-.875a3.744,3.744,0,0,1-.837-1.2,3.888,3.888,0,0,1-.312-1.6v-.75H15.2v.65a1.369,1.369,0,0,0,.362,1.012A1.269,1.269,0,0,0,16.5-2.4a1.128,1.128,0,0,0,.888-.35,1.413,1.413,0,0,0,.313-.975V-7.9a1.3,1.3,0,0,0-.338-.9,1.109,1.109,0,0,0-.862-.375,1.221,1.221,0,0,0-.55.113,1.427,1.427,0,0,0-.375.262,1.038,1.038,0,0,0-.225.325q-.125.225-.15.275H12.95v-9.6Zm12.4,7.9a12.425,12.425,0,0,1-.15,1.45,9.673,9.673,0,0,1-3.275,5.7A11.8,11.8,0,0,1,25.35-.45,8.872,8.872,0,0,1,27.175,2a14.48,14.48,0,0,0,6.35-5.5,13.3,13.3,0,0,0,1.95-6.4h4.8v1.45A24.56,24.56,0,0,1,39.5-1.8c-.225.375-.5.475-1.425.475A20.551,20.551,0,0,1,35.05-1.65a10.737,10.737,0,0,1,.75,2.925c1.675.075,2.075.1,2.575.1,2.225,0,3.125-.35,3.675-1.45C42.675-1.4,43.1-5.35,43.1-10.525v-.85A25.493,25.493,0,0,0,46.2-8.75a11.639,11.639,0,0,1,1.9-2.7,19.387,19.387,0,0,1-6.925-7.25,9.344,9.344,0,0,1-.975-2.175L37.425-19.8a10.255,10.255,0,0,1,.525,1.05,24.994,24.994,0,0,0,4.125,6.275c-.6.025-.95.025-1.55.025h-9.2a12.921,12.921,0,0,1-1.3-.05,27.806,27.806,0,0,0,4.025-6.075,7.07,7.07,0,0,1,.675-1.275l-3-1.075a7.772,7.772,0,0,1-1,2.525,19.275,19.275,0,0,1-6.575,7.175,8.692,8.692,0,0,1,1.925,2.45A24.852,24.852,0,0,0,29.2-11.55v1.775A17.372,17.372,0,0,1,31.325-9.9ZM69.875-20.45a10.21,10.21,0,0,1,.1,1.65q0,7.425-2.7,11.775C65.45-4.075,62.75-2.05,58.35-.35a11.461,11.461,0,0,1,1.6,2.475A19.915,19.915,0,0,0,68.325-3.85,19.487,19.487,0,0,0,73.7,1.925a11,11,0,0,1,1.75-2.85A14.432,14.432,0,0,1,70-6.3a17.893,17.893,0,0,0,1.575-3.65,33.56,33.56,0,0,0,1.2-6.975c.225-3.2.225-3.2.25-3.475ZM54.75-4.3a16.342,16.342,0,0,1-2.5.8l.8,3.05c.625-.3.8-.375,1.75-.8a66.909,66.909,0,0,0,9.825-4.975l-.6-2.625A52.247,52.247,0,0,1,57.6-5.45l-.125-11.925v-.55a22.078,22.078,0,0,1,.125-2.45H54.425a22.872,22.872,0,0,1,.2,2.975Zm4.9-13.1a28.886,28.886,0,0,1,4.775,6.375L67-12.8a37.412,37.412,0,0,0-4.95-6.125Zm32.275,6.55H97.8a26.1,26.1,0,0,1,2.9.15v-2.975a25.464,25.464,0,0,1-2.9.15H91.925V-17.8a20.173,20.173,0,0,1,.175-2.875H88.825A21.4,21.4,0,0,1,89-17.8V-1.65H83.3a32.989,32.989,0,0,1-3.45-.15v3a31.25,31.25,0,0,1,3.45-.175H99.175A27.279,27.279,0,0,1,102.5,1.2v-3a32.107,32.107,0,0,1-3.375.15h-7.2Zm18.05.55a3.223,3.223,0,0,0,1.588-.275Q112-10.85,112-11.85v-2.3a1.243,1.243,0,0,0-.338-.9,1.209,1.209,0,0,0-.912-.35,1.077,1.077,0,0,0-.963.425,1.476,1.476,0,0,0-.287.825v1.45h-2.55v-1.475a3.705,3.705,0,0,1,.3-1.475,3.586,3.586,0,0,1,.825-1.2,4.1,4.1,0,0,1,1.225-.8,3.767,3.767,0,0,1,1.5-.3,3.331,3.331,0,0,1,1.738.413,4,4,0,0,1,1.037.838,5.463,5.463,0,0,1,.438.6,2.92,2.92,0,0,1,.313.725,9.969,9.969,0,0,1,.225,2.45q0,.925-.037,1.5a3.138,3.138,0,0,1-.187.95,1.9,1.9,0,0,1-.487.675,5.782,5.782,0,0,1-.863.6,4.843,4.843,0,0,1,.912.7,2.058,2.058,0,0,1,.463.75,3.874,3.874,0,0,1,.175,1.062q.025.613.025,1.563,0,.875-.037,1.45a7.461,7.461,0,0,1-.113.95,2.963,2.963,0,0,1-.2.675,4.115,4.115,0,0,1-.325.575,4.039,4.039,0,0,1-1.213,1.163,3.6,3.6,0,0,1-1.937.463,4.494,4.494,0,0,1-1.275-.2,3.476,3.476,0,0,1-1.225-.65,3.529,3.529,0,0,1-.912-1.175,3.94,3.94,0,0,1-.363-1.775V-5.1h2.55v1.325a1.449,1.449,0,0,0,.338.987,1.148,1.148,0,0,0,.912.388,1.148,1.148,0,0,0,.912-.388A1.524,1.524,0,0,0,112-3.825v-2.55a1.755,1.755,0,0,0-.4-1.375,1.112,1.112,0,0,0-.613-.25,8.23,8.23,0,0,0-1.012-.05Zm8.775-3.825a3.888,3.888,0,0,1,.313-1.6,3.744,3.744,0,0,1,.838-1.2,3.6,3.6,0,0,1,1.213-.763,4,4,0,0,1,1.438-.263,4,4,0,0,1,1.438.263,3.6,3.6,0,0,1,1.213.763,3.744,3.744,0,0,1,.838,1.2,3.888,3.888,0,0,1,.312,1.6v10.45a3.888,3.888,0,0,1-.312,1.6,3.744,3.744,0,0,1-.838,1.2,3.6,3.6,0,0,1-1.213.763A4,4,0,0,1,122.55.15a4,4,0,0,1-1.437-.263A3.6,3.6,0,0,1,119.9-.875a3.744,3.744,0,0,1-.838-1.2,3.888,3.888,0,0,1-.312-1.6Zm2.55,10.45a1.261,1.261,0,0,0,.35.912,1.2,1.2,0,0,0,.9.362,1.2,1.2,0,0,0,.9-.362,1.261,1.261,0,0,0,.35-.912v-10.45a1.261,1.261,0,0,0-.35-.912,1.2,1.2,0,0,0-.9-.363,1.2,1.2,0,0,0-.9.363,1.261,1.261,0,0,0-.35.912ZM138.75-9.9a12.423,12.423,0,0,1-.15,1.45,9.672,9.672,0,0,1-3.275,5.7,11.8,11.8,0,0,1-3.875,2.3A8.872,8.872,0,0,1,133.275,2a14.48,14.48,0,0,0,6.35-5.5,13.3,13.3,0,0,0,1.95-6.4h4.8v1.45A24.559,24.559,0,0,1,145.6-1.8c-.225.375-.5.475-1.425.475a20.551,20.551,0,0,1-3.025-.325,10.737,10.737,0,0,1,.75,2.925c1.675.075,2.075.1,2.575.1,2.225,0,3.125-.35,3.675-1.45.625-1.325,1.05-5.275,1.05-10.45v-.85a25.492,25.492,0,0,0,3.1,2.625,11.639,11.639,0,0,1,1.9-2.7,19.387,19.387,0,0,1-6.925-7.25,9.344,9.344,0,0,1-.975-2.175L143.525-19.8a10.255,10.255,0,0,1,.525,1.05,24.994,24.994,0,0,0,4.125,6.275c-.6.025-.95.025-1.55.025h-9.2a12.921,12.921,0,0,1-1.3-.05,27.806,27.806,0,0,0,4.025-6.075,7.07,7.07,0,0,1,.675-1.275l-3-1.075a7.772,7.772,0,0,1-1,2.525,19.275,19.275,0,0,1-6.575,7.175,8.692,8.692,0,0,1,1.925,2.45A24.854,24.854,0,0,0,135.3-11.55v1.775a17.372,17.372,0,0,1,2.125-.125Zm32.075-7.9v-1.5a8.744,8.744,0,0,1,.125-1.8H167.9a9.393,9.393,0,0,1,.125,1.775V-17.8H163.1a18.67,18.67,0,0,1-3-.175v2.9a20.162,20.162,0,0,1,3.025-.15h4.9v3.475H161.7a24.713,24.713,0,0,1-2.975-.15V-9a26.374,26.374,0,0,1,3-.15h5.05A21.886,21.886,0,0,1,163.7-5.575a22.821,22.821,0,0,1-5.775,3.9A12.914,12.914,0,0,1,159.65.85a25.2,25.2,0,0,0,4.95-3.675A18.61,18.61,0,0,0,168.1-7c-.075,1.175-.075,1.525-.075,2.35V-.625a16.312,16.312,0,0,1-.175,2.675H171a18.148,18.148,0,0,1-.175-2.7V-4.775c0-.5-.025-.9-.075-2.325a17.706,17.706,0,0,0,3.8,4.475A24.951,24.951,0,0,0,179.725,1a14.227,14.227,0,0,1,1.7-2.7,20.447,20.447,0,0,1-9.35-7.45h5.6A25.036,25.036,0,0,1,180.7-9v-2.9a22.847,22.847,0,0,1-3.025.15h-6.85v-3.475H176.3a18.658,18.658,0,0,1,3,.15v-2.9a17.246,17.246,0,0,1-3.025.175ZM198.4-12.45v1.625h-4.9a18.348,18.348,0,0,1-1.875-.075c.05.675.075,1.225.075,2.125v8a22.948,22.948,0,0,1-.15,2.875h2.725a20.94,20.94,0,0,1-.125-2.75V-8.575h4.25V-3.7h-1.1V-5.525a17.473,17.473,0,0,1,.075-1.925H195.05a13.754,13.754,0,0,1,.1,1.925v3.3a14.873,14.873,0,0,1-.1,2.025h2.25V-1.45h5.125c.875.025,1.45.025,1.7.05a18.879,18.879,0,0,1-.05-1.9V-5.5a16.562,16.562,0,0,1,.075-1.925h-2.3a18.435,18.435,0,0,1,.075,1.925v1.8h-1.15V-8.575h4.4v7.4c0,.5-.1.575-.775.575a22.572,22.572,0,0,1-2.575-.2,8.843,8.843,0,0,1,.575,2.55c.475.05.6.05,1.125.075h.95c2.525,0,3.2-.45,3.2-2.15V-8.35a16.688,16.688,0,0,1,.125-2.575,25.417,25.417,0,0,1-2.75.1h-4.275V-12.45h5.275a18.994,18.994,0,0,1,2.775.15v-2.6a14.5,14.5,0,0,1-2.775.15h-1.825v-1.825h1.35a21.74,21.74,0,0,1,2.45.125v-2.625a22.048,22.048,0,0,1-2.5.125h-1.3v-.175a11.9,11.9,0,0,1,.125-1.85h-2.825a9.6,9.6,0,0,1,.125,1.85v.175h-3.975v-.175a9.135,9.135,0,0,1,.125-1.85h-2.825a12.145,12.145,0,0,1,.125,1.85v.175h-.85a21.239,21.239,0,0,1-2.475-.125v1.25A21.142,21.142,0,0,0,188.15-20.8l-1.8,1.725a19.331,19.331,0,0,1,3.85,3.45l1.575-1.775v.95a17.139,17.139,0,0,1,2.425-.125h.9v1.825h-1.525a17.313,17.313,0,0,1-2.65-.15v2.6a19.164,19.164,0,0,1,2.725-.15Zm-.725-2.3v-1.825h3.975v1.825Zm-12.05,2.025a21.863,21.863,0,0,1,3.85,3.45l1.8-1.95a21.42,21.42,0,0,0-3.825-3.3Zm3.125,5.15a21.661,21.661,0,0,1-3.225,7.4l2.35,2.15a6.315,6.315,0,0,1,.4-.9,46.3,46.3,0,0,0,2.65-7.125Zm34.125-9.1v3.65h3.65v-3.65Zm0,10.7v3.65h3.65v-3.65ZM247.45,0V-30.2l-5.1,3.75v-5.4l5.1-3.75h5.1V0ZM265-28.25a7.776,7.776,0,0,1,.625-3.2,7.488,7.488,0,0,1,1.675-2.4,7.206,7.206,0,0,1,2.425-1.525A7.992,7.992,0,0,1,272.6-35.9a7.992,7.992,0,0,1,2.875.525A7.207,7.207,0,0,1,277.9-33.85a7.488,7.488,0,0,1,1.675,2.4,7.776,7.776,0,0,1,.625,3.2v20.9a7.776,7.776,0,0,1-.625,3.2,7.488,7.488,0,0,1-1.675,2.4,7.207,7.207,0,0,1-2.425,1.525A7.992,7.992,0,0,1,272.6.3a7.992,7.992,0,0,1-2.875-.525A7.206,7.206,0,0,1,267.3-1.75a7.488,7.488,0,0,1-1.675-2.4A7.776,7.776,0,0,1,265-7.35Zm5.1,20.9a2.522,2.522,0,0,0,.7,1.825,2.392,2.392,0,0,0,1.8.725,2.392,2.392,0,0,0,1.8-.725,2.522,2.522,0,0,0,.7-1.825v-20.9a2.522,2.522,0,0,0-.7-1.825,2.392,2.392,0,0,0-1.8-.725,2.392,2.392,0,0,0-1.8.725,2.522,2.522,0,0,0-.7,1.825ZM290.9.075l1.275,1,15.75-20.15-1.3-1Zm14.4.75A4.6,4.6,0,0,0,308.675-.45a5.9,5.9,0,0,0,1.45-4.325,5.877,5.877,0,0,0-1.45-4.3A4.663,4.663,0,0,0,305.3-10.35a4.766,4.766,0,0,0-3.4,1.275,5.917,5.917,0,0,0-1.45,4.3A5.9,5.9,0,0,0,301.9-.45,4.621,4.621,0,0,0,305.3.825Zm0-9.05a1.8,1.8,0,0,1,1.6.775,4.414,4.414,0,0,1,.675,2.5c0,2.425-.775,3.675-2.275,3.675-1.475,0-2.275-1.25-2.275-3.55a4.347,4.347,0,0,1,.675-2.6A1.74,1.74,0,0,1,305.3-8.225ZM293.525-8.65A4.6,4.6,0,0,0,296.9-9.925a5.9,5.9,0,0,0,1.45-4.325,5.877,5.877,0,0,0-1.45-4.3,4.663,4.663,0,0,0-3.375-1.275c-3.05,0-4.85,2.075-4.85,5.575a5.941,5.941,0,0,0,1.45,4.325A4.621,4.621,0,0,0,293.525-8.65Zm0-9.05a1.924,1.924,0,0,1,1.825,1.125,5.489,5.489,0,0,1,.45,2.325c0,2.25-.825,3.5-2.275,3.5-1.475,0-2.275-1.25-2.275-3.55C291.25-16.475,292.075-17.7,293.525-17.7Z" transform="translate(365 5809)" fill="#0052aa"/>
  </g>
</svg>
