<svg xmlns="http://www.w3.org/2000/svg" xmlns:xlink="http://www.w3.org/1999/xlink" width="578.217" height="542.378" viewBox="0 0 578.217 542.378">
  <defs>
    <linearGradient id="linear-gradient" y1="0.5" x2="1" y2="0.5" gradientUnits="objectBoundingBox">
      <stop offset="0" stop-color="#03a8e5"/>
      <stop offset="1" stop-color="#012869"/>
    </linearGradient>
    <filter id="パス_301" x="0" y="0" width="578.217" height="542.378" filterUnits="userSpaceOnUse">
      <feOffset dx="10" dy="10" input="SourceAlpha"/>
      <feGaussianBlur stdDeviation="15" result="blur"/>
      <feFlood flood-opacity="0.161"/>
      <feComposite operator="in" in2="blur"/>
      <feComposite in="SourceGraphic"/>
    </filter>
    <linearGradient id="linear-gradient-2" x1="-0.03" xlink:href="#linear-gradient"/>
    <filter id="長方形_223" x="165.62" y="43.254" width="228" height="102" filterUnits="userSpaceOnUse">
      <feOffset input="SourceAlpha"/>
      <feGaussianBlur stdDeviation="5" result="blur-2"/>
      <feFlood flood-color="#013778" flood-opacity="0.322"/>
      <feComposite operator="in" in2="blur-2"/>
      <feComposite in="SourceGraphic"/>
    </filter>
  </defs>
  <g id="昼食" transform="translate(-1072.38 -5419.746)">
    <g id="グループ_252" data-name="グループ 252" transform="translate(579.027 3081.68)">
      <g transform="matrix(1, 0, 0, 1, 493.35, 2338.07)" filter="url(#パス_301)">
        <path id="パス_301-2" data-name="パス 301" d="M0,0H488.217V452.378H0Z" transform="translate(35 35)" fill="url(#linear-gradient)"/>
      </g>
      <path id="パス_302" data-name="パス 302" d="M0,0H480.217V444.378H0Z" transform="translate(532.353 2377.066)" fill="#edf9ff"/>
    </g>
    <g id="グループ_259" data-name="グループ 259" transform="translate(1217.595 4307.284)">
      <path id="パス_660" data-name="パス 660" d="M247.044,1589.988a14.638,14.638,0,0,1-6.665-1.6l-4.245,6.573A101.149,101.149,0,0,0,347.7,1598.8l-5.98-9.084h-.456a29.04,29.04,0,0,1-4.474-.365,87.744,87.744,0,0,1-84.5-.319,14.474,14.474,0,0,1-5.25.958Z" transform="translate(-61.957 -172.666)" fill="#a2dff6"/>
      <path id="パス_661" data-name="パス 661" d="M253.238,1251.7a87.8,87.8,0,0,1,72.72,137.04,28.107,28.107,0,0,1-2.374,12.919l4.337,6.619a101.531,101.531,0,1,0-154.158-5.615l1.369-2.1a14.955,14.955,0,0,1-3.15-19.72l2.1-3.241a87.841,87.841,0,0,1,79.156-125.9Z" transform="translate(-20.356 0)" fill="#a2dff6"/>
      <path id="パス_662" data-name="パス 662" d="M288.384,1313.306a61.151,61.151,0,0,1,57.518,81.713,41.425,41.425,0,0,1,3.561,3.378,64.577,64.577,0,0,0,4.565-24.012,65.644,65.644,0,0,0-131.288,0,63.467,63.467,0,0,0,1.643,14.516l3.561-5.524v-.045a64.512,64.512,0,0,1-.639-8.948,61.135,61.135,0,0,1,61.079-61.079Z" transform="translate(-55.357 -34.86)" fill="#a2dff6"/>
      <path id="パス_663" data-name="パス 663" d="M297.064,1551.661a65.7,65.7,0,0,0,48.023,2.967c-.228-.32-.457-.639-.685-1-.639-.959-1.233-1.963-1.78-2.968a61.653,61.653,0,0,1-17.758,2.6,60.908,60.908,0,0,1-25.29-5.478l-2.511,3.88Z" transform="translate(-91.983 -152.655)" fill="#a2dff6"/>
      <path id="パス_664" data-name="パス 664" d="M112.638,1594.755l4.563,2.94a4.869,4.869,0,0,0,6.731-1.456l49.922-77.485a4.87,4.87,0,0,1,6.731-1.456,8.475,8.475,0,0,0,11.716-2.534l4.813-7.471,4.674-7.254,11.9-18.467a4.87,4.87,0,0,0-1.456-6.731l-.864-.557a4.869,4.869,0,0,0-6.731,1.456l-10.6,16.458a2.393,2.393,0,0,1-3.693.4,2.447,2.447,0,0,1-.277-3.069l10.556-16.383a4.869,4.869,0,0,0-1.456-6.73l-.864-.556a4.869,4.869,0,0,0-6.731,1.456l-10.6,16.458a2.39,2.39,0,0,1-3.3.715h0a2.39,2.39,0,0,1-.715-3.3l10.6-16.457a4.87,4.87,0,0,0-1.456-6.731l-.863-.556a4.87,4.87,0,0,0-6.731,1.456l-11.9,18.467-4.674,7.254-4.813,7.471a8.475,8.475,0,0,0,2.535,11.716,4.871,4.871,0,0,1,1.456,6.731l-49.922,77.485a4.869,4.869,0,0,0,1.456,6.731Z" transform="translate(0 -107.755)" fill="#a2dff6"/>
      <path id="パス_665" data-name="パス 665" d="M430.538,1489.115c-8.763-13.307-25.416-21.054-35.358-14.507s-9.406,24.906-.644,38.213c6.8,10.319,16.537,14.543,25.207,12.88l51.525,78.254a4.87,4.87,0,0,0,6.745,1.388l4.534-2.985a4.87,4.87,0,0,0,1.389-6.745l-51.526-78.254c4.953-7.307,4.922-17.925-1.872-28.245Z" transform="translate(-136.718 -115.43)" fill="#a2dff6"/>
    </g>
    <g transform="matrix(1, 0, 0, 1, 1072.38, 5419.75)" filter="url(#長方形_223)">
      <rect id="長方形_223-2" data-name="長方形 223" width="198" height="72" transform="translate(180.62 58.25)" fill="url(#linear-gradient-2)"/>
    </g>
    <path id="パス_1202" data-name="パス 1202" d="M8.3-12.3a15.043,15.043,0,0,1-2.05-.1,17.434,17.434,0,0,1,.1,2.025v5.85A20.215,20.215,0,0,1,6.25-2.3a24.767,24.767,0,0,1,2.5-.1H16.3c1,0,1.725.025,2.55.1a17.091,17.091,0,0,1-.1-2.3V-8.4a20.977,20.977,0,0,0,4,5.225A9.825,9.825,0,0,1,24.325-5.7a15.9,15.9,0,0,1-3.35-3.775,12.54,12.54,0,0,1-1.675-4.35h.375c1.025,0,1.7.025,2.45.075-.05-.575-.075-.975-.075-1.675v-3c0-.875.025-1.275.075-1.975a21.374,21.374,0,0,1-2.9.125H6.65A29.216,29.216,0,0,1,3.5-20.4a23.975,23.975,0,0,1,.15,3.15c0,6.925-.675,9.825-3.05,12.975a11.693,11.693,0,0,1,2.125,2.05,15.432,15.432,0,0,0,2.3-4.35,23.779,23.779,0,0,0,1.2-7.25H16.75c.2.75.25,1,.4,1.525H8.3Zm-2-3.825v-1.8H19.425v1.8ZM8.925-10.2h7.25v1.75H8.925Zm0,3.825h7.25V-4.5H8.925ZM23.4-1.125a19.907,19.907,0,0,1-2.725.15H4.275a16.359,16.359,0,0,1-2.75-.15v2.65a23.382,23.382,0,0,1,2.9-.15h16.05a22.447,22.447,0,0,1,2.925.15Zm16.925-4.35A14.067,14.067,0,0,0,43.975-1.4c2.2,1.75,4.825,2.825,8.75,3.6A14.784,14.784,0,0,1,54-.575,21.1,21.1,0,0,1,48.325-1.85a39.1,39.1,0,0,0,4.45-3.45L50.25-6.65c-.225.25-.275.325-.475.55-.025-.4-.025-.625-.025-1.125v-6.1a25.534,25.534,0,0,0,3.3,1.475,11.807,11.807,0,0,1,1.25-2.775,24.4,24.4,0,0,1-6.075-2.625,16.8,16.8,0,0,1-4.45-3.725h-2.95a21.628,21.628,0,0,1-10.2,6.425,12.242,12.242,0,0,1,1.225,2.725,33.829,33.829,0,0,0,3.125-1.425c.025.65.025.825.025,1.125V-.85c-1,.125-2.5.25-2.825.25H31.8l.475,2.875c.5-.125.825-.175,1.15-.25C37.9,1.275,39.85.9,42.5.275v-2.4c-2.275.5-2.475.525-4.875.9v-4.25Zm7.25,0c.55,0,.975,0,1.525.025a19.1,19.1,0,0,1-3.2,2.4,8.975,8.975,0,0,1-2.6-2.425ZM37.4-14.7a22.047,22.047,0,0,0,4.925-4.175A22.648,22.648,0,0,0,47.4-14.7H43.55v-.725a8.131,8.131,0,0,1,.1-1.5H40.9a5.96,5.96,0,0,1,.125,1.5v.725Zm.225,2.25h9.5v1.25h-9.5Zm0,3.375h9.5v1.4h-9.5Z" transform="translate(1322 5523.136)" fill="#fff"/>
    <path id="パス_1203" data-name="パス 1203" d="M6.944-12.768a23.984,23.984,0,0,1,3.872,3.744A21.814,21.814,0,0,1,5.952-3.168,19.307,19.307,0,0,1,2.176-.352,10.318,10.318,0,0,1,4.7,2.56a32.166,32.166,0,0,0,8-8,30.712,30.712,0,0,0,4.32-10.688,21.591,21.591,0,0,0,3.84,4.64v9.856a33.2,33.2,0,0,1-.224,4.256h3.936a32.213,32.213,0,0,1-.224-4.256V-8.544a35.047,35.047,0,0,0,5.5,3.392A17.742,17.742,0,0,1,31.712-8.64a21.042,21.042,0,0,1-4.32-2.144,28.861,28.861,0,0,1-3.04-1.952v-10.4a20.376,20.376,0,0,1,.224-3.68H20.64a24.083,24.083,0,0,1,.224,3.68v7.1a15.631,15.631,0,0,1-3.136-4.64c.16-1.376.16-1.5.288-2.176-.768.064-1.376.1-2.592.1H10.816c.192-.608.32-1.056.544-1.792.224-.832.352-1.216.576-1.856l-3.68-.64a24.516,24.516,0,0,1-.928,4.192A25.671,25.671,0,0,1,1.472-12.9,8.823,8.823,0,0,1,3.584-9.824a31.6,31.6,0,0,0,6.144-9.888H14.4a33.767,33.767,0,0,1-2.048,7.584A24.623,24.623,0,0,0,8.864-15.36Zm41.472,5.76a18.006,18.006,0,0,0,4.672,5.216c2.816,2.24,6.176,3.616,11.2,4.608A18.923,18.923,0,0,1,65.92-.736a27.01,27.01,0,0,1-7.264-1.632,50.053,50.053,0,0,0,5.7-4.416L61.12-8.512c-.288.32-.352.416-.608.7-.032-.512-.032-.8-.032-1.44v-7.808A32.684,32.684,0,0,0,64.7-15.168a15.112,15.112,0,0,1,1.6-3.552,31.238,31.238,0,0,1-7.776-3.36,21.506,21.506,0,0,1-5.7-4.768H49.056C46.24-23.36,41.536-20.384,36-18.624a15.67,15.67,0,0,1,1.568,3.488,43.3,43.3,0,0,0,4-1.824c.032.832.032,1.056.032,1.44V-1.088c-1.28.16-3.2.32-3.616.32H37.5l.608,3.68c.64-.16,1.056-.224,1.472-.32,5.728-.96,8.224-1.44,11.616-2.24V-2.72c-2.912.64-3.168.672-6.24,1.152v-5.44Zm9.28,0c.7,0,1.248,0,1.952.032a24.447,24.447,0,0,1-4.1,3.072,11.488,11.488,0,0,1-3.328-3.1ZM44.672-18.816a28.221,28.221,0,0,0,6.3-5.344,28.99,28.99,0,0,0,6.5,5.344H52.544v-.928a10.408,10.408,0,0,1,.128-1.92h-3.52a7.629,7.629,0,0,1,.16,1.92v.928Zm.288,2.88H57.12v1.6H44.96Zm0,4.32H57.12v1.792H44.96Zm39.1-9.728v4.672h4.672v-4.672Zm0,13.7v4.672h4.672V-7.648ZM119.168,0V-6.784H106.176v-6.144l9.408-32.64H122.5L112.7-12.928h6.464V-25.92H125.7v12.992h3.136v6.144H125.7V0Zm35.9-45.568-7.424,19.136.128.128a2.558,2.558,0,0,1,.992-.416,7.85,7.85,0,0,1,1.76-.16,6.394,6.394,0,0,1,3.2.832,6.5,6.5,0,0,1,2.3,2.112,7.232,7.232,0,0,1,.7,1.408,10.781,10.781,0,0,1,.448,1.856q.128,1.152.192,2.912t.064,4.448q0,2.24-.064,3.68t-.192,2.4A8.993,8.993,0,0,1,156.7-5.5a11.826,11.826,0,0,1-.736,1.472,8.828,8.828,0,0,1-3.424,3.264A10.045,10.045,0,0,1,147.712.384a9.646,9.646,0,0,1-4.8-1.184,9.3,9.3,0,0,1-3.392-3.232,8.442,8.442,0,0,1-.8-1.472,6.842,6.842,0,0,1-.416-1.728,16.217,16.217,0,0,1-.256-2.4q-.064-1.44-.064-3.68,0-2.112.064-3.488t.192-2.4a10.2,10.2,0,0,1,.384-1.76q.256-.8.576-1.7l8.576-22.912Zm-4.16,27.712a3.087,3.087,0,0,0-.96-2.368,3.18,3.18,0,0,0-2.24-.9,3.18,3.18,0,0,0-2.24.9,3.087,3.087,0,0,0-.96,2.368v8.448a3.087,3.087,0,0,0,.96,2.368,3.18,3.18,0,0,0,2.24.9,3.18,3.18,0,0,0,2.24-.9,3.087,3.087,0,0,0,.96-2.368ZM171.136.1l1.632,1.28,20.16-25.792-1.664-1.28Zm18.432.96a5.89,5.89,0,0,0,4.32-1.632,7.553,7.553,0,0,0,1.856-5.536,7.522,7.522,0,0,0-1.856-5.5,5.969,5.969,0,0,0-4.32-1.632,6.1,6.1,0,0,0-4.352,1.632,7.574,7.574,0,0,0-1.856,5.5,7.553,7.553,0,0,0,1.856,5.536A5.915,5.915,0,0,0,189.568,1.056Zm0-11.584a2.3,2.3,0,0,1,2.048.992,5.65,5.65,0,0,1,.864,3.2c0,3.1-.992,4.7-2.912,4.7-1.888,0-2.912-1.6-2.912-4.544A5.565,5.565,0,0,1,187.52-9.5,2.228,2.228,0,0,1,189.568-10.528ZM174.5-11.072a5.89,5.89,0,0,0,4.32-1.632,7.553,7.553,0,0,0,1.856-5.536,7.522,7.522,0,0,0-1.856-5.5,5.969,5.969,0,0,0-4.32-1.632c-3.9,0-6.208,2.656-6.208,7.136a7.6,7.6,0,0,0,1.856,5.536A5.915,5.915,0,0,0,174.5-11.072Zm0-11.584a2.463,2.463,0,0,1,2.336,1.44,7.025,7.025,0,0,1,.576,2.976c0,2.88-1.056,4.48-2.912,4.48-1.888,0-2.912-1.6-2.912-4.544C171.584-21.088,172.64-22.656,174.5-22.656Z" transform="translate(1145 5627)" fill="#0052aa"/>
    <path id="パス_1204" data-name="パス 1204" d="M10.325-7.65a16,16,0,0,1,4.8-.825c2.675,0,4.425,1.4,4.425,3.55A2.569,2.569,0,0,1,17.025-2.15,1.729,1.729,0,0,1,15.45-3a4.817,4.817,0,0,1-.35-2.2,8.668,8.668,0,0,1,.05-1.1,10.546,10.546,0,0,1-2.775,1.1A8.352,8.352,0,0,0,12.8-2,4.036,4.036,0,0,0,16.9.775a5.554,5.554,0,0,0,5.675-5.7c0-3.55-2.975-6.1-7.15-6.1a17.336,17.336,0,0,0-5.1.7v-3.25c.95-.1,1.45-.175,2.275-.325,1.725-.3,2.2-.375,2.65-.45l-.1-2.8a27.881,27.881,0,0,1-4.825.95v-1.6a15.349,15.349,0,0,1,.15-2.725H7.35A17.129,17.129,0,0,1,7.5-17.65V-16c-.275,0-.4,0-1,.025-.35.025-.625.025-.875.025A15.332,15.332,0,0,1,2.6-16.175l.025,2.8A4.687,4.687,0,0,1,3.15-13.4c.075,0,.3,0,.625.025.3,0,1,.025,1.375.025.625,0,.975,0,1.35-.025.825-.05.825-.05,1.025-.05l.025,3.85A13.374,13.374,0,0,0,3.9-7.45a5.336,5.336,0,0,0-2.15,3.7A3.672,3.672,0,0,0,3.125-.925,7.787,7.787,0,0,0,7.85.85,2.2,2.2,0,0,0,10.15-.6a7.444,7.444,0,0,0,.2-2.125ZM7.525-3.1c0,.825-.125,1.05-.55,1.05a3.005,3.005,0,0,1-1.6-.55C4.8-2.95,4.55-3.325,4.55-3.75c0-.9,1.1-2,2.975-3Zm16.15-10.55a21.2,21.2,0,0,0-4.95-5.125L16.375-17.2a21.349,21.349,0,0,1,5,5.4Zm17.75,6.6V-1a20.909,20.909,0,0,1-.175,2.925h3.1A20.2,20.2,0,0,1,44.175-1V-7.05h3.1a22.4,22.4,0,0,1,2.875.15V-9.7a20.838,20.838,0,0,1-2.875.15h-3.1V-11.3a6.7,6.7,0,0,1,.15-1.7H41.3a11.008,11.008,0,0,1,.125,1.7v1.75H36.65c.025-.375.025-.975.05-1.175a8.708,8.708,0,0,1,.125-2.05h-3.05A13.03,13.03,0,0,1,33.9-10.2v.65H30.425a24.543,24.543,0,0,1-2.9-.15v2.8A25.007,25.007,0,0,1,30.4-7.05h3.325A7.7,7.7,0,0,1,32.2-2.9,9.044,9.044,0,0,1,28.15-.325,10.961,10.961,0,0,1,30.025,2.1c2.525-1.25,3.7-2.175,4.75-3.7a11.08,11.08,0,0,0,1.75-5.45Zm-12.4-6a13.192,13.192,0,0,1,1.525-.075c6.725-.15,10.675-.375,15.25-.85.575.65.825.95,1.625,1.925l2.25-1.775a41.748,41.748,0,0,0-6.75-6.1l-2.15,1.45A35.447,35.447,0,0,1,43.65-16.15c-2.4.225-3.9.3-8.1.4.6-.85,1.45-2.125,2.375-3.675.3-.5.325-.525.575-.925l-3.05-.875a23.779,23.779,0,0,1-3.15,5.5c-1.75-.025-2.625-.05-3.625-.1ZM63.65-11.875H57.6a15.828,15.828,0,0,1-2.6-.15v2.85a24.767,24.767,0,0,1,2.575-.1H72v2.4H58.2a18.8,18.8,0,0,1-2.425-.1v2.8a19.623,19.623,0,0,1,2.4-.1H72V-1.6H57.4a17.674,17.674,0,0,1-2.6-.125v2.85a13.918,13.918,0,0,1,2.725-.15H71.95V2.2h2.9A21.972,21.972,0,0,1,74.7-.65V-9.9a17.116,17.116,0,0,1,.1-2.1,12.062,12.062,0,0,1-2,.125H66.45v-6.7a16.089,16.089,0,0,1,.15-2.475H63.5a17.017,17.017,0,0,1,.15,2.475ZM55.075-18.5a28.436,28.436,0,0,1,3.85,6.225l2.45-1.45a30.541,30.541,0,0,0-3.9-6.125Zm17.25-1.425A20.713,20.713,0,0,1,68.75-13.7l2.325,1.45a29.875,29.875,0,0,0,3.9-6.45Zm27.35,8.875a25.885,25.885,0,0,1,2.9.125V-13.55a21.287,21.287,0,0,1-2.825.15H96.125v-2.475H99.1a17.373,17.373,0,0,1,2.525.125V-18.4a17.191,17.191,0,0,1-2.55.15h-2.95v-.775a8.533,8.533,0,0,1,.15-1.85h-2.95A11.173,11.173,0,0,1,93.475-19v.75H91.2a16.591,16.591,0,0,1-2.525-.15v2.65a17.373,17.373,0,0,1,2.525-.125h2.275V-13.4H90.45a26.477,26.477,0,0,1-2.8-.125v2.6l.125-.025c-.975.425-1.225.525-2.075.825v-3.75h.825A11.7,11.7,0,0,1,87.9-13.8v-2.6a7.651,7.651,0,0,1-1.4.1h-.8v-2.1a14.058,14.058,0,0,1,.15-2.5H82.925a14.363,14.363,0,0,1,.15,2.525V-16.3h-1.1a8.669,8.669,0,0,1-1.85-.15v2.675a14.1,14.1,0,0,1,1.825-.1h1.125V-9.25a14.954,14.954,0,0,1-3.125.825l.4,2.775c.275-.1.725-.275.975-.35.45-.15.45-.15,1.75-.625V-1.25c0,.6-.175.75-.825.75-.55,0-1.175-.05-2.1-.125a8.8,8.8,0,0,1,.575,2.55c.825.025,1.2.05,1.65.05,2.675,0,3.325-.475,3.325-2.45v-7.1c.75-.3,1.025-.4,2.175-.925v2.2a22.744,22.744,0,0,1,2.8-.125h6.3V-1.2c0,.55-.225.675-1.075.675A18.123,18.123,0,0,1,93.075-.8,8.605,8.605,0,0,1,93.8,1.85c1.325.075,1.75.1,2.3.1,1.625,0,2.4-.175,2.95-.65a2.192,2.192,0,0,0,.625-1.725v-6h.4a17.375,17.375,0,0,1,2.45.15V-8.95a17.517,17.517,0,0,1-2.45.125h-.4Zm-2.7,0v2.225h-6.3A21.355,21.355,0,0,1,87.9-8.95v-2.025c.5-.025,1.75-.075,2.55-.075Zm-8,6.375A16.779,16.779,0,0,1,91.9-.7l2.175-1.625A21.447,21.447,0,0,0,91.125-6.1Zm19.3-10.725a10.707,10.707,0,0,1,1.3-.075c2.225-.025,3.2-.05,5.725-.125a5.641,5.641,0,0,1-.85,1.55H109.2a21.413,21.413,0,0,1-2.925-.15v2.625c.8-.075,1.85-.125,2.975-.125h2.875A16.233,16.233,0,0,1,105.7-8.9a6.435,6.435,0,0,1,1.575,2.225c4.225-1.55,6.3-2.775,8.4-5.025h3.5A17.52,17.52,0,0,0,127.9-6.175a6.185,6.185,0,0,1,1.4-2.45c-3.2-.65-5.35-1.6-6.925-3.075H125.8a29.4,29.4,0,0,1,2.95.125V-14.2a20.524,20.524,0,0,1-2.975.15h-8.35c.375-.675.525-.975.85-1.675,2.425-.15,3.65-.225,5.375-.425l1.475,1.675,2.225-1.35a39.272,39.272,0,0,0-5.6-4.875l-2.1,1.1c1.025.75,1.325.975,2.1,1.6-2.175.175-2.7.2-6.95.275.725-.85,1.425-1.8,2.05-2.675a3.657,3.657,0,0,1,.225-.325l-2.925-.625a16.488,16.488,0,0,1-2.425,3.65c-1.725-.025-3-.075-3.8-.15Zm15.9,9.825a10.923,10.923,0,0,1-2.6,2.025C118.1-1.5,114.475-.45,109.35,0a7.457,7.457,0,0,1,1.275,2.4A33.265,33.265,0,0,0,121.05-.55a27.455,27.455,0,0,0,5.375-3.525Zm-6.1-5.275a9.279,9.279,0,0,1-1.75,1.35,18.5,18.5,0,0,1-7.375,2.475,5.586,5.586,0,0,1,1.225,2.15A23.635,23.635,0,0,0,116.6-7a31.219,31.219,0,0,0,3.625-2.225Zm2.825,2.6a9,9,0,0,1-2.425,1.75,25.5,25.5,0,0,1-9.55,2.9,5.661,5.661,0,0,1,1.325,2.25,30.03,30.03,0,0,0,7.225-2.05A23.915,23.915,0,0,0,123.1-6.75Zm21.025-8.425v3.65h3.65v-3.65Zm0,10.7v3.65h3.65v-3.65ZM159.2,0V-4.8l9.2-17.35a6.335,6.335,0,0,0,.8-2.275q.1-.975.1-2.425,0-.65-.025-1.375A3.337,3.337,0,0,0,169-29.5a2.367,2.367,0,0,0-.75-.925,2.388,2.388,0,0,0-1.45-.375,2.52,2.52,0,0,0-1.825.65,2.518,2.518,0,0,0-.675,1.9v2.9h-5.1v-2.8a7.534,7.534,0,0,1,.6-3,7.741,7.741,0,0,1,1.65-2.45,7.488,7.488,0,0,1,2.4-1.675,7.275,7.275,0,0,1,3-.625,7.476,7.476,0,0,1,3.425.725A6.832,6.832,0,0,1,172.65-33.2a8.61,8.61,0,0,1,1.325,2.85,13.2,13.2,0,0,1,.425,3.4q0,1.3-.05,2.175a13.161,13.161,0,0,1-.2,1.675,7.381,7.381,0,0,1-.5,1.6q-.35.8-.95,1.95L165.2-5.1h9.2V0Zm31.2-28.3a2.374,2.374,0,0,0-.75-1.775,2.439,2.439,0,0,0-1.75-.725,2.439,2.439,0,0,0-1.75.725,2.374,2.374,0,0,0-.75,1.775v5.2a2.374,2.374,0,0,0,.75,1.775,2.439,2.439,0,0,0,1.75.725,2.439,2.439,0,0,0,1.75-.725,2.374,2.374,0,0,0,.75-1.775Zm-10.1,2q0-1.45.1-2.475a8.157,8.157,0,0,1,.35-1.775,8.429,8.429,0,0,1,.575-1.35,9.458,9.458,0,0,1,.825-1.25,6.891,6.891,0,0,1,2.5-2.025,7.369,7.369,0,0,1,3.25-.725,7.369,7.369,0,0,1,3.25.725,6.891,6.891,0,0,1,2.5,2.025,11.9,11.9,0,0,1,.85,1.25,7.177,7.177,0,0,1,.6,1.35,7.341,7.341,0,0,1,.325,1.775q.075,1.025.075,2.475,0,1.6-.05,2.7a8.263,8.263,0,0,1-.3,1.95,4.55,4.55,0,0,1-.775,1.525A9.54,9.54,0,0,1,192.95-18.7a7.591,7.591,0,0,1,1.425,1.4,4.718,4.718,0,0,1,.775,1.65,10.827,10.827,0,0,1,.3,2.325q.05,1.375.05,3.375,0,1.65-.075,2.725A16.564,16.564,0,0,1,195.2-5.35,5.153,5.153,0,0,1,194.775-4a10.772,10.772,0,0,1-.675,1.15,7.215,7.215,0,0,1-2.4,2.225A7.3,7.3,0,0,1,187.9.3a7.3,7.3,0,0,1-3.8-.925,7.215,7.215,0,0,1-2.4-2.225A10.769,10.769,0,0,1,181.025-4a5.153,5.153,0,0,1-.425-1.35,16.564,16.564,0,0,1-.225-1.875Q180.3-8.3,180.3-9.95q0-2,.05-3.375a10.827,10.827,0,0,1,.3-2.325,4.718,4.718,0,0,1,.775-1.65,7.592,7.592,0,0,1,1.425-1.4,9.54,9.54,0,0,1-1.425-1.425,4.55,4.55,0,0,1-.775-1.525,8.263,8.263,0,0,1-.3-1.95Q180.3-24.7,180.3-26.3Zm10.1,12a2.374,2.374,0,0,0-.75-1.775,2.439,2.439,0,0,0-1.75-.725,2.439,2.439,0,0,0-1.75.725,2.374,2.374,0,0,0-.75,1.775v7a2.374,2.374,0,0,0,.75,1.775,2.439,2.439,0,0,0,1.75.725,2.439,2.439,0,0,0,1.75-.725A2.374,2.374,0,0,0,190.4-7.3ZM203.7.075l1.275,1,15.75-20.15-1.3-1Zm14.4.75A4.6,4.6,0,0,0,221.475-.45a5.9,5.9,0,0,0,1.45-4.325,5.877,5.877,0,0,0-1.45-4.3A4.663,4.663,0,0,0,218.1-10.35a4.766,4.766,0,0,0-3.4,1.275,5.917,5.917,0,0,0-1.45,4.3A5.9,5.9,0,0,0,214.7-.45,4.621,4.621,0,0,0,218.1.825Zm0-9.05a1.8,1.8,0,0,1,1.6.775,4.414,4.414,0,0,1,.675,2.5c0,2.425-.775,3.675-2.275,3.675-1.475,0-2.275-1.25-2.275-3.55a4.347,4.347,0,0,1,.675-2.6A1.74,1.74,0,0,1,218.1-8.225ZM206.325-8.65A4.6,4.6,0,0,0,209.7-9.925a5.9,5.9,0,0,0,1.45-4.325,5.877,5.877,0,0,0-1.45-4.3,4.663,4.663,0,0,0-3.375-1.275c-3.05,0-4.85,2.075-4.85,5.575a5.941,5.941,0,0,0,1.45,4.325A4.621,4.621,0,0,0,206.325-8.65Zm0-9.05a1.924,1.924,0,0,1,1.825,1.125,5.488,5.488,0,0,1,.45,2.325c0,2.25-.825,3.5-2.275,3.5-1.475,0-2.275-1.25-2.275-3.55C204.05-16.475,204.875-17.7,206.325-17.7Z" transform="translate(1145 5697)" fill="#0052aa"/>
    <path id="パス_1205" data-name="パス 1205" d="M14.38-.98V.24h2.68a13.193,13.193,0,0,1-.1-2.06V-12.8a12.133,12.133,0,0,1,.06-1.66c-.7.04-.7.04-1.74.04H5.66a13.444,13.444,0,0,1-2.58-.14v2.6a19.572,19.572,0,0,1,2.56-.1H14.4v8.72H5.3a12.858,12.858,0,0,1-2.5-.14V-.9A22.357,22.357,0,0,1,5.26-.98Zm9.06-11.86a21,21,0,0,1,5.1,4.06l1.72-2.18a28.326,28.326,0,0,0-5.16-3.86Zm.7,13.2A7.08,7.08,0,0,1,25.46.02a21.6,21.6,0,0,0,7.62-3,17.553,17.553,0,0,0,6.34-7.84,8.624,8.624,0,0,1-2.12-1.96,16.7,16.7,0,0,1-2.04,4,13.362,13.362,0,0,1-5.94,4.9A19.057,19.057,0,0,1,23.4-2.4ZM47.98-13.62a10.152,10.152,0,0,1,.1-1.86H45.4a10.564,10.564,0,0,1,.08,1.84l.02,9.28a15.07,15.07,0,0,0,.06,1.84,2.765,2.765,0,0,0,.98,2.04c.78.6,2.16.86,4.68.86,1.22,0,3.74-.12,4.92-.24,2.12-.2,2.22-.22,2.64-.22l-.12-2.66a11.816,11.816,0,0,1-2.28.48,37.717,37.717,0,0,1-4.64.32c-1.94,0-3.08-.16-3.42-.52-.28-.28-.36-.74-.36-1.9a1.328,1.328,0,0,1,.02-.26V-7.26a33.863,33.863,0,0,0,8.54-2.76c1.06-.52,1.66-.8,1.8-.86l-1.6-2.26c-1.3,1.22-5.72,3-8.74,3.56Zm8.08-2.16a12.792,12.792,0,0,1,1.98,3.06l1.44-.66a12.716,12.716,0,0,0-2-3.04ZM61.9-14.6a11.766,11.766,0,0,0-1.96-2.9l-1.38.64a14.884,14.884,0,0,1,1.92,2.98Zm4,3.42a17.253,17.253,0,0,1,2.34-.1h7.9a17.253,17.253,0,0,1,2.34.1v-2.64a12.439,12.439,0,0,1-2.36.14H68.26a12.439,12.439,0,0,1-2.36-.14ZM63.88-1.4a19.817,19.817,0,0,1,2.52-.1H77.96a19.817,19.817,0,0,1,2.52.1V-4.08a13.959,13.959,0,0,1-2.56.14H66.44a13.959,13.959,0,0,1-2.56-.14ZM91.74-13.34v2.92h2.92v-2.92Zm0,8.56v2.92h2.92V-4.78ZM110.4,0V-24.16l-4.08,3v-4.32l4.08-3h4.08V0Zm19.16,0V-4.24h-8.12V-8.08l5.88-20.4h4.32l-6.12,20.4h4.04V-16.2h4.08v8.12h1.96v3.84h-1.96V0Zm11.6.06,1.02.8,12.6-16.12-1.04-.8Zm11.52.6a3.681,3.681,0,0,0,2.7-1.02,4.721,4.721,0,0,0,1.16-3.46,4.7,4.7,0,0,0-1.16-3.44,3.73,3.73,0,0,0-2.7-1.02,3.812,3.812,0,0,0-2.72,1.02,4.734,4.734,0,0,0-1.16,3.44,4.721,4.721,0,0,0,1.16,3.46A3.7,3.7,0,0,0,152.68.66Zm0-7.24a1.441,1.441,0,0,1,1.28.62,3.531,3.531,0,0,1,.54,2c0,1.94-.62,2.94-1.82,2.94-1.18,0-1.82-1-1.82-2.84a3.478,3.478,0,0,1,.54-2.08A1.392,1.392,0,0,1,152.68-6.58Zm-9.42-.34a3.681,3.681,0,0,0,2.7-1.02,4.721,4.721,0,0,0,1.16-3.46,4.7,4.7,0,0,0-1.16-3.44,3.73,3.73,0,0,0-2.7-1.02c-2.44,0-3.88,1.66-3.88,4.46a4.753,4.753,0,0,0,1.16,3.46A3.7,3.7,0,0,0,143.26-6.92Zm0-7.24a1.539,1.539,0,0,1,1.46.9,4.391,4.391,0,0,1,.36,1.86c0,1.8-.66,2.8-1.82,2.8-1.18,0-1.82-1-1.82-2.84C141.44-13.18,142.1-14.16,143.26-14.16Z" transform="translate(1145 5755)" fill="#0052aa"/>
    <path id="パス_1206" data-name="パス 1206" d="M11.5-7.2l.06,5.98v.36a12.734,12.734,0,0,1-.12,1.92h2.72c-.06-.56-.1-1.32-.12-2.3l-.1-9.28H16a20.565,20.565,0,0,1,2.3.08v-2.42a11.372,11.372,0,0,1-2.36.14H13.92l-.04-1.62v-.12a12.832,12.832,0,0,1,.08-1.7H11.32a14.419,14.419,0,0,1,.1,1.84l.02,1.6H4.52A11.622,11.622,0,0,1,2-12.86v2.44a20.835,20.835,0,0,1,2.46-.1H9.94a19.027,19.027,0,0,1-2.68,3.3A21.285,21.285,0,0,1,.96-2.88,5.794,5.794,0,0,1,2.62-.8,28.97,28.97,0,0,0,5.58-2.64,27.535,27.535,0,0,0,9.52-6.12a12.116,12.116,0,0,0,2.04-2.8c-.02.32-.06,1.34-.06,1.44Zm25.86-7.58a7.31,7.31,0,0,1-2.14.2H26.04a14.088,14.088,0,0,1-2.56-.14v2.6A15.877,15.877,0,0,1,26-12.24h9.52a13.857,13.857,0,0,1-6.06,8.72,16.272,16.272,0,0,1-4.38,2.04A7.36,7.36,0,0,1,26.84.9a19.473,19.473,0,0,0,7.44-5.1,18.8,18.8,0,0,0,4.1-8.38,3.008,3.008,0,0,1,.34-.9Zm18.28,1.86a7.5,7.5,0,0,1-1.22,1.44,22.815,22.815,0,0,1-5.68,4.06A21.331,21.331,0,0,1,44-5.62a8.183,8.183,0,0,1,1.24,2.08A28.216,28.216,0,0,0,50.9-6.08V-.72a11.992,11.992,0,0,1-.1,1.9l2.58.02a11.813,11.813,0,0,1-.1-1.92v-6.8A26.764,26.764,0,0,0,57-10.8a3.9,3.9,0,0,1,.68-.66ZM81.06-1.42c-2.42-2.34-2.42-2.34-2.92-2.78a31,31,0,0,0-3.7-2.9,26.487,26.487,0,0,0,3.12-5.52,3.847,3.847,0,0,1,.64-1.08l-1.32-1.36a4.332,4.332,0,0,1-1.78.22l-7.04.1h-.48a8.752,8.752,0,0,1-1.76-.12l.08,2.56a15.762,15.762,0,0,1,2.18-.16c6.3-.1,6.3-.1,6.62-.12l-.22.52a19.278,19.278,0,0,1-6.72,8.14,16.512,16.512,0,0,1-4,2.2A8.023,8.023,0,0,1,65.38.5,23.767,23.767,0,0,0,73-5.28,38.447,38.447,0,0,1,79.14.66Zm8.32-12.2a10.152,10.152,0,0,1,.1-1.86H86.8a10.563,10.563,0,0,1,.08,1.84l.02,9.28a15.07,15.07,0,0,0,.06,1.84,2.765,2.765,0,0,0,.98,2.04c.78.6,2.16.86,4.68.86,1.22,0,3.74-.12,4.92-.24,2.12-.2,2.22-.22,2.64-.22l-.12-2.66a11.816,11.816,0,0,1-2.28.48,37.717,37.717,0,0,1-4.64.32c-1.94,0-3.08-.16-3.42-.52-.28-.28-.36-.74-.36-1.9a1.327,1.327,0,0,1,.02-.26V-7.26a33.863,33.863,0,0,0,8.54-2.76c1.06-.52,1.66-.8,1.8-.86l-1.6-2.26c-1.3,1.22-5.72,3-8.74,3.56Zm8.08-2.16a12.792,12.792,0,0,1,1.98,3.06l1.44-.66a12.716,12.716,0,0,0-2-3.04Zm5.84,1.18a11.766,11.766,0,0,0-1.96-2.9l-1.38.64a14.884,14.884,0,0,1,1.92,2.98Zm5.76-1.04a10.052,10.052,0,0,1,.08,1.82c0,5.6-.46,8.18-1.9,10.48a8.217,8.217,0,0,1-2.06,2.3A7.118,7.118,0,0,1,107.2.9a12.736,12.736,0,0,0,2.76-3.7c1.04-2.06,1.48-4.32,1.62-8.22a41.8,41.8,0,0,1,.2-4.48Zm5.3-.14a8.656,8.656,0,0,1,.08,1.32v.6l-.1,11.28a8.963,8.963,0,0,1-.18,2.12L115.44.9a8.7,8.7,0,0,1,.86-.36,13.209,13.209,0,0,0,4.26-2.4,12.412,12.412,0,0,0,3.18-4.66,8.383,8.383,0,0,1-1.88-1.88,9.773,9.773,0,0,1-1.96,3.66,8.041,8.041,0,0,1-3.06,2.28l.1-11.38a10.838,10.838,0,0,1,.14-1.9ZM141.5-1.38c0,.58-.1.64-1.08.64a18.7,18.7,0,0,1-2.6-.22,7.451,7.451,0,0,1,.62,2.28c.8.04,1.4.06,1.94.06,1.88,0,2.6-.16,3.04-.72.24-.3.3-.6.3-1.44V-12.24a17.164,17.164,0,0,1,.08-1.94,17.346,17.346,0,0,1-2.28.1h-5.1c.02-.32.02-.32.04-.74.04-.82.04-.82.06-1.1a4.721,4.721,0,0,1,.12-1h-2.5a10.369,10.369,0,0,1,.12,1.76c0,.34,0,.62-.02,1.08h-4.9a19,19,0,0,1-2.32-.1,17.623,17.623,0,0,1,.08,1.94V-.84a16.784,16.784,0,0,1-.14,2.42h2.46a16.5,16.5,0,0,1-.1-2.38V-4.68A7.491,7.491,0,0,1,130.6-3a11.469,11.469,0,0,0,3.8-3.54,8.9,8.9,0,0,0,.96-1.9,14.872,14.872,0,0,0,4.82,5.08,7.63,7.63,0,0,1,1.32-1.88Zm0-10.7v6.62a13.5,13.5,0,0,1-3.14-2.34,11.744,11.744,0,0,1-2.26-3.32c.06-.36.08-.46.14-.96Zm-12.18,0h4.74a10.2,10.2,0,0,1-1.42,4.16,9.091,9.091,0,0,1-3.32,3Zm28.64-.74a4.371,4.371,0,0,1,2.02.6,4.955,4.955,0,0,1,2.46,4.44,5.6,5.6,0,0,1-2.78,5,10.629,10.629,0,0,1-3.98,1.1A6.38,6.38,0,0,1,156.9.66a13.076,13.076,0,0,0,3.14-.84,7.7,7.7,0,0,0,4.86-7.46c0-4.5-3.12-7.42-7.92-7.42a8.978,8.978,0,0,0-6.88,2.8,8.591,8.591,0,0,0-2.2,5.82c0,3.22,1.64,5.54,3.92,5.54,1.64,0,2.92-1.18,4.06-3.76A28.934,28.934,0,0,0,157.96-12.82Zm-2.44.02a26.358,26.358,0,0,1-1.66,6.76c-.72,1.72-1.4,2.56-2.06,2.56-.88,0-1.58-1.3-1.58-2.94a6.7,6.7,0,0,1,2.72-5.4A5.091,5.091,0,0,1,155.52-12.8ZM173.4-6.18a10.978,10.978,0,0,0,2.58,2.26,8.53,8.53,0,0,1,1.1-1.96,11.792,11.792,0,0,1-3.18-2.54,16.432,16.432,0,0,0,2-3.42,5.56,5.56,0,0,1,.44-.84l-.96-1.04a7.285,7.285,0,0,1-1.16.06h-.82V-15.3a8.525,8.525,0,0,1,.12-1.56H171.1a9.183,9.183,0,0,1,.12,1.52v1.68h-1a12.211,12.211,0,0,1-1.58-.08v2.22a13.694,13.694,0,0,1,1.68-.08h3.26a11.882,11.882,0,0,1-2.18,3.08,13.794,13.794,0,0,1-3.44,2.7,7.749,7.749,0,0,1,1.02,2.08,13.478,13.478,0,0,0,2.22-1.7V-.42a11.964,11.964,0,0,1-.12,2.08h2.42a14.2,14.2,0,0,1-.1-2.04Zm8.48-2.96H184c.7,0,1.32.04,1.96.1V-11.3a13.007,13.007,0,0,1-1.96.1h-2.12v-3.52a11.725,11.725,0,0,1,.14-2.08h-2.5a14.155,14.155,0,0,1,.14,2.08v3.52h-1.5a13.5,13.5,0,0,1-1.96-.1v2.26c.64-.06,1.28-.1,1.96-.1h1.5v7.82h-2.18a18.136,18.136,0,0,1-2.3-.12V.98a16.129,16.129,0,0,1,2.26-.14h6.84a16.423,16.423,0,0,1,2.28.14V-1.44a17.155,17.155,0,0,1-2.28.12h-2.4Zm12.7,7.34A15.059,15.059,0,0,1,188.9-.14a6.452,6.452,0,0,1,1.22,1.98,23.752,23.752,0,0,0,3.06-.8,17.4,17.4,0,0,0,3.64-1.78L195.56-1.8H201l-1.08.98a15.046,15.046,0,0,0,6.68,2.68A6.7,6.7,0,0,1,207.84-.1a15.863,15.863,0,0,1-5.76-1.7h1.6c1,0,1.62.02,2.24.08a3.509,3.509,0,0,1-.06-.8c0-.08-.02-.52-.02-1.3V-8.88a17.979,17.979,0,0,1,.08-2.14c-.7.06-1.26.08-2.24.08H193.04c-.94,0-1.62-.02-2.22-.08a19.791,19.791,0,0,1,.08,2.14v5.06c0,1-.04,1.6-.08,2.1.64-.06,1.22-.08,2.22-.08Zm-1.54-7.48h10.64v.92H193.04Zm0,2.42h10.64v.92H193.04Zm0,2.42h10.64v.98H193.04ZM205.1-14.8a12.161,12.161,0,0,1,.08-1.54,17.382,17.382,0,0,1-2.26.1h-9.08a17.721,17.721,0,0,1-2.28-.1,9.959,9.959,0,0,1,.1,1.54v1.54c0,.54-.04,1-.08,1.5.6-.04,1.3-.06,2.2-.06H203c.88,0,1.56.02,2.16.06-.04-.46-.06-.9-.06-1.5Zm-2.22.26v1.1h-9.02v-1.1ZM217.66-4.38a11.254,11.254,0,0,0,2.92,3.26,15.416,15.416,0,0,0,7,2.88A11.828,11.828,0,0,1,228.6-.46a16.881,16.881,0,0,1-4.54-1.02,31.284,31.284,0,0,0,3.56-2.76L225.6-5.32c-.18.2-.22.26-.38.44-.02-.32-.02-.5-.02-.9v-4.88a20.427,20.427,0,0,0,2.64,1.18,9.445,9.445,0,0,1,1-2.22,19.524,19.524,0,0,1-4.86-2.1,13.441,13.441,0,0,1-3.56-2.98h-2.36a17.3,17.3,0,0,1-8.16,5.14,9.793,9.793,0,0,1,.98,2.18,27.063,27.063,0,0,0,2.5-1.14c.02.52.02.66.02.9V-.68c-.8.1-2,.2-2.26.2h-.3l.38,2.3c.4-.1.66-.14.92-.2,3.58-.6,5.14-.9,7.26-1.4V-1.7c-1.82.4-1.98.42-3.9.72v-3.4Zm5.8,0c.44,0,.78,0,1.22.02a15.279,15.279,0,0,1-2.56,1.92,7.18,7.18,0,0,1-2.08-1.94Zm-8.14-7.38a17.638,17.638,0,0,0,3.94-3.34,18.119,18.119,0,0,0,4.06,3.34h-3.08v-.58a6.505,6.505,0,0,1,.08-1.2h-2.2a4.768,4.768,0,0,1,.1,1.2v.58Zm.18,1.8h7.6v1h-7.6Zm0,2.7h7.6v1.12h-7.6Zm23.72-6.4h-1.6a14.915,14.915,0,0,0-1.9-2.84l-1.82.88a12.559,12.559,0,0,1,1.42,1.96h-1.46a19.569,19.569,0,0,1-2.06-.08,13.555,13.555,0,0,1,.08,1.66v1.9a12.249,12.249,0,0,1-.08,1.44h2.06v-3.02H247.1v3.04h2.08a10.015,10.015,0,0,1-.1-1.4v-1.74a17.87,17.87,0,0,1,.08-1.88c-.6.06-1.26.08-2.14.08H245.7a7.371,7.371,0,0,0,.48-.64c.66-.98.66-.98.9-1.3l-2.1-.98a13.9,13.9,0,0,1-1.62,2.92h-1.98v-1.56a9.01,9.01,0,0,1,.1-1.56h-2.36a9.152,9.152,0,0,1,.1,1.56Zm.02,8.02v1.28h-4.16a11.625,11.625,0,0,1-2.02-.12v2.02a13.4,13.4,0,0,1,2.02-.1h4.16V-.82H233.8a17.03,17.03,0,0,1-2.26-.12V1.24a15.56,15.56,0,0,1,2.26-.14h13.34a14.992,14.992,0,0,1,2.22.14V-.94a16.371,16.371,0,0,1-2.22.12h-5.78V-2.56h4.48a13.567,13.567,0,0,1,2.02.1V-4.48a11.225,11.225,0,0,1-2.02.12h-4.48V-5.64h2.8c.82,0,1.44.02,2,.06a11.287,11.287,0,0,1-.06-1.82V-9.08a9.845,9.845,0,0,1,.06-1.58,10.866,10.866,0,0,1-1.3.06h-8.74a13.049,13.049,0,0,1-1.36-.06c.04.4.06.9.06,1.52V-7.4c0,.98-.02,1.38-.06,1.84a14.924,14.924,0,0,1,1.9-.08Zm-2.28-3.2h7V-7.3h-7Zm22.98-4.5v2.92h2.92v-2.92Zm0,8.56v2.92h2.92V-4.78ZM278.6,0V-24.16l-4.08,3v-4.32l4.08-3h4.08V0Zm16.88,0V-24.16l-4.08,3v-4.32l4.08-3h4.08V0Zm13.88.06,1.02.8,12.6-16.12-1.04-.8Zm11.52.6a3.681,3.681,0,0,0,2.7-1.02,4.721,4.721,0,0,0,1.16-3.46,4.7,4.7,0,0,0-1.16-3.44,3.73,3.73,0,0,0-2.7-1.02,3.812,3.812,0,0,0-2.72,1.02A4.734,4.734,0,0,0,317-3.82a4.721,4.721,0,0,0,1.16,3.46A3.7,3.7,0,0,0,320.88.66Zm0-7.24a1.441,1.441,0,0,1,1.28.62,3.531,3.531,0,0,1,.54,2c0,1.94-.62,2.94-1.82,2.94-1.18,0-1.82-1-1.82-2.84a3.478,3.478,0,0,1,.54-2.08A1.392,1.392,0,0,1,320.88-6.58Zm-9.42-.34a3.681,3.681,0,0,0,2.7-1.02,4.721,4.721,0,0,0,1.16-3.46,4.7,4.7,0,0,0-1.16-3.44,3.73,3.73,0,0,0-2.7-1.02c-2.44,0-3.88,1.66-3.88,4.46a4.753,4.753,0,0,0,1.16,3.46A3.7,3.7,0,0,0,311.46-6.92Zm0-7.24a1.539,1.539,0,0,1,1.46.9,4.391,4.391,0,0,1,.36,1.86c0,1.8-.66,2.8-1.82,2.8-1.18,0-1.82-1-1.82-2.84C309.64-13.18,310.3-14.16,311.46-14.16Z" transform="translate(1145 5810)" fill="#0052aa"/>
    <path id="パス_1207" data-name="パス 1207" d="M4.52-13.1a11.181,11.181,0,0,1,1.28-.12,49.387,49.387,0,0,0,5.58-.44A38.513,38.513,0,0,1,5.24-8.74a10.427,10.427,0,0,1-1.14.16c-.4.06-.66.08-.76.1-.48.06-1.32.12-1.72.12a2.21,2.21,0,0,1-.32-.02l.24,2.44a6.826,6.826,0,0,1,.92-.2c1.34-.2,2.42-.34,3.22-.44.56-.08,1.3-.16,2.2-.28.96-.12,1.6-.22,2.46-.38A6.856,6.856,0,0,0,8.2-5.72a3.824,3.824,0,0,0-1.08,2.6A3.749,3.749,0,0,0,9.94.38a13.055,13.055,0,0,0,3.72.56h.26c.56-.02.88-.02,1.02-.02.28,0,.52,0,.74.02l-.1-2.54a7.762,7.762,0,0,1-1.9.18c-2.58,0-4.02-.72-4.02-2.02,0-1.08,1.1-2.3,2.72-3.04a13.511,13.511,0,0,1,5.56-.98h.6L18.4-9.8a3.312,3.312,0,0,1-.66.08c-.18.02-.7.06-1.42.14-.46.04-1.38.1-2.64.2-2.42.2-3.86.34-4.86.48a57.365,57.365,0,0,0,5.5-4.36,8.552,8.552,0,0,1,1.16-.98l-1.3-1.66a6.89,6.89,0,0,1-1.88.32c-1.56.12-4.14.22-5.94.22a13.5,13.5,0,0,1-1.96-.1Zm28.04.28a4.371,4.371,0,0,1,2.02.6,4.955,4.955,0,0,1,2.46,4.44,5.6,5.6,0,0,1-2.78,5,10.629,10.629,0,0,1-3.98,1.1A6.38,6.38,0,0,1,31.5.66a13.076,13.076,0,0,0,3.14-.84A7.7,7.7,0,0,0,39.5-7.64c0-4.5-3.12-7.42-7.92-7.42a8.978,8.978,0,0,0-6.88,2.8,8.591,8.591,0,0,0-2.2,5.82c0,3.22,1.64,5.54,3.92,5.54,1.64,0,2.92-1.18,4.06-3.76A28.934,28.934,0,0,0,32.56-12.82Zm-2.44.02a26.358,26.358,0,0,1-1.66,6.76c-.72,1.72-1.4,2.56-2.06,2.56-.88,0-1.58-1.3-1.58-2.94a6.7,6.7,0,0,1,2.72-5.4A5.091,5.091,0,0,1,30.12-12.8Zm23.6,3.42v4.46a11.987,11.987,0,0,1-.12,2.06h2.32a12.356,12.356,0,0,1-.12-2v-5.2l2.44-.8a32.89,32.89,0,0,1-.16,3.7c-.12.94-.2,1.08-.64,1.08a8.505,8.505,0,0,1-1.36-.18,6.633,6.633,0,0,1,.56,2.04c.5.04.72.06,1.1.06,1.54,0,2.04-.44,2.24-1.94.16-1.3.3-4.06.34-6.46,0-.5,0-.66.02-1.08a11.7,11.7,0,0,1-1.62.6l-2.92.94v-2.66a13.6,13.6,0,0,1,.12-1.94H53.6a15.361,15.361,0,0,1,.12,2v3.26l-2.06.66v-1.78a11.337,11.337,0,0,1,.12-2.04H49.42a12.752,12.752,0,0,1,.12,2.12v2.36a11.508,11.508,0,0,1-1.74.4l.18,2.28a9.3,9.3,0,0,1,1.16-.46c.08-.02.22-.06.4-.12v7.1c0,1.6.94,2,4.68,2,3.64,0,4.98-.18,5.74-.72.62-.48.88-1.26,1.12-3.54a9.11,9.11,0,0,1-2.18-.64,15.173,15.173,0,0,1-.14,1.58,1.388,1.388,0,0,1-.48.92c-.44.3-1.3.38-3.56.38A11.1,11.1,0,0,1,52.2-1.1c-.44-.1-.54-.22-.54-.62v-7ZM44.96-.76a20.161,20.161,0,0,1-.12,2.44h2.34c-.06-.76-.1-1.48-.1-2.42V-11.88a20.676,20.676,0,0,0,1.4-3.3c.2-.56.24-.68.4-1.14L46.62-17a12.437,12.437,0,0,1-.78,2.7A16.189,16.189,0,0,1,42.3-8.78a13.561,13.561,0,0,1,1.04,2.36,14.3,14.3,0,0,0,1.68-2.3C44.96-7,44.96-7,44.96-6.52ZM71.54-13.34v2.92h2.92v-2.92Zm0,8.56v2.92h2.92V-4.78ZM90.2,0V-24.16l-4.08,3v-4.32l4.08-3h4.08V0Zm13.88.06,1.02.8,12.6-16.12-1.04-.8Zm11.52.6a3.681,3.681,0,0,0,2.7-1.02,4.721,4.721,0,0,0,1.16-3.46,4.7,4.7,0,0,0-1.16-3.44,3.73,3.73,0,0,0-2.7-1.02,3.812,3.812,0,0,0-2.72,1.02,4.734,4.734,0,0,0-1.16,3.44,4.721,4.721,0,0,0,1.16,3.46A3.7,3.7,0,0,0,115.6.66Zm0-7.24a1.441,1.441,0,0,1,1.28.62,3.531,3.531,0,0,1,.54,2c0,1.94-.62,2.94-1.82,2.94-1.18,0-1.82-1-1.82-2.84a3.478,3.478,0,0,1,.54-2.08A1.392,1.392,0,0,1,115.6-6.58Zm-9.42-.34a3.681,3.681,0,0,0,2.7-1.02,4.721,4.721,0,0,0,1.16-3.46,4.7,4.7,0,0,0-1.16-3.44,3.73,3.73,0,0,0-2.7-1.02c-2.44,0-3.88,1.66-3.88,4.46a4.753,4.753,0,0,0,1.16,3.46A3.7,3.7,0,0,0,106.18-6.92Zm0-7.24a1.539,1.539,0,0,1,1.46.9A4.391,4.391,0,0,1,108-11.4c0,1.8-.66,2.8-1.82,2.8-1.18,0-1.82-1-1.82-2.84C104.36-13.18,105.02-14.16,106.18-14.16ZM133.532,1.068a9.222,9.222,0,0,1-1.524-2.388,8.118,8.118,0,0,1-.636-3.288A7.874,7.874,0,0,1,132-7.788a9.351,9.351,0,0,1,1.524-2.388h-1.68a9.687,9.687,0,0,0-1.32,2.364,8.492,8.492,0,0,0-.612,3.2,8.831,8.831,0,0,0,.636,3.312,9.612,9.612,0,0,0,1.308,2.364Zm4.092-9.684a11.97,11.97,0,0,1-1.464-.06,11.828,11.828,0,0,1,.06,1.476V-.48a10.321,10.321,0,0,1-.072,1.392H137.5V.3h5.928V.912h1.38A8.212,8.212,0,0,1,144.74-.48V-7.2a11.482,11.482,0,0,1,.06-1.476,12.309,12.309,0,0,1-1.476.06H140.54c.216-.456.4-.864.612-1.44L139.64-10.2a6.546,6.546,0,0,1-.552,1.584Zm-.108,1.224h5.928v1.356h-5.928Zm0,2.508h5.928v1.368h-5.928Zm0,2.52h5.928V-.912h-5.928Zm14.172-1.668-2.724.3c-.324.024-.84.06-1.08.06h-.24l.132,1.356a9.251,9.251,0,0,1,1.308-.216l2.6-.288V-.588c0,1.164.42,1.356,2.952,1.356a11,11,0,0,0,2.436-.144,1.345,1.345,0,0,0,1.068-.888,4.273,4.273,0,0,0,.276-1.548,3.873,3.873,0,0,1-1.32-.48c-.048,1.152-.108,1.452-.312,1.608a4.45,4.45,0,0,1-1.968.228,11.472,11.472,0,0,1-1.464-.072c-.276-.072-.336-.144-.336-.444V-2.964l4.212-.456c.324-.036.888-.072,1.1-.072a1.539,1.539,0,0,1,.216.012l-.132-1.368a8.591,8.591,0,0,1-1.3.228l-4.1.444v-1.26c.8-.168,1.476-.348,2.868-.768a8.5,8.5,0,0,1,.924-.252L155.7-7.536a8.861,8.861,0,0,1-2.58.876,32.2,32.2,0,0,1-4.908.684,5.759,5.759,0,0,1,.552,1.212c1.464-.192,1.464-.192,2.928-.432ZM152.3-9h-3.072a13.081,13.081,0,0,1-1.32-.048,6.268,6.268,0,0,1,.048.888v.9a5.322,5.322,0,0,1-.06.936h1.32V-7.776h7.764v1.452h1.308a7.057,7.057,0,0,1-.048-.924V-8.16a5.653,5.653,0,0,1,.048-.888c-.408.036-.72.048-1.332.048h-3.312v-.384a3.339,3.339,0,0,1,.06-.7h-1.476a3.341,3.341,0,0,1,.072.7ZM162.848.288c-.012-.156-.012-.252-.012-.324A9.851,9.851,0,0,1,163.9-3.672l-.96-.432a12.239,12.239,0,0,0-.624,1.584c.012-.3.024-.4.024-.66a20.036,20.036,0,0,1,.18-2.652,16.544,16.544,0,0,1,.756-3.588L161.7-9.588a7.852,7.852,0,0,1-.18,1.116,23.038,23.038,0,0,0-.492,4.692,20.93,20.93,0,0,0,.312,3.588c.036.276.048.348.06.564ZM164.5-6.9a14.245,14.245,0,0,0,2.16.132,21.5,21.5,0,0,0,2.568-.144c.576-.072.756-.1.852-.108l-.072-1.452a13.233,13.233,0,0,1-3.264.324,8.652,8.652,0,0,1-2.22-.192Zm.828,1.98a3.92,3.92,0,0,0-1.1,2.472,2.01,2.01,0,0,0,.36,1.176c.528.708,1.488,1.044,2.976,1.044a14.8,14.8,0,0,0,2.484-.228,4.011,4.011,0,0,1,.492-.072l-.12-1.524a8.433,8.433,0,0,1-2.856.456c-1.248,0-1.908-.36-1.908-1.044a2.715,2.715,0,0,1,.852-1.728Zm13.9,2.676V-.276a8.9,8.9,0,0,1-.06,1.308h1.356a9.125,9.125,0,0,1-.06-1.3v-1.98h1.4V-1.08c0,.192-.036.228-.252.228a4.789,4.789,0,0,1-.744-.072,3.63,3.63,0,0,1,.264,1.1c.2.012.312.012.4.012a2.493,2.493,0,0,0,1.176-.156c.276-.156.372-.372.372-.852v-1.92h.684a5.619,5.619,0,0,1-.048-.792v-.936c0-.24.012-.528.036-.768-.3.024-.528.036-1.092.036h-5.436c-.468,0-.768-.012-1.08-.036a6.078,6.078,0,0,1,.036.792v.924a4.385,4.385,0,0,1-.048.78h.624V-1a9.726,9.726,0,0,1-.072,1.272h1.356a10.815,10.815,0,0,1-.048-1.14v-1.38Zm0-1.068h-1.872V-4.08h1.872Zm1.236,0V-4.08h2.016v.768h-2.016Zm1.284-4.848H178.16c-.564,0-.792-.012-1.116-.036v1.044c.42-.024.612-.036,1.128-.036h3.576v.48h-3.756a8.531,8.531,0,0,1-1.2-.048v1.1a10.8,10.8,0,0,1,1.224-.048h4c.564,0,.84.012,1.032.024-.024-.312-.036-.456-.036-.876V-8.76c0-.456.012-.648.036-.972a10.013,10.013,0,0,1-1.128.048h-3.84a10.439,10.439,0,0,1-1.26-.06v1.152c.276-.012.852-.036,1.236-.036h3.7ZM174.7-10.044a22.587,22.587,0,0,1,.1,2.688c0,.408-.048,1.512-.1,2.22a12.2,12.2,0,0,1-.276,2.028,6.017,6.017,0,0,1-1.68,3,4.583,4.583,0,0,1,.9,1.068,7.733,7.733,0,0,0,1.968-3.768,29.661,29.661,0,0,0,.4-5.94,10.636,10.636,0,0,1,.048-1.3Zm-.588,6.324a5.653,5.653,0,0,1-.048-.888v-3.36a4.758,4.758,0,0,1,.072-.84h-1.248a4.473,4.473,0,0,1,.072.84v3.36a5.653,5.653,0,0,1-.048.888Zm12.792-.3a7.579,7.579,0,0,1,1.392-.408,13.447,13.447,0,0,1,3.156-.468c1.272,0,1.968.5,1.968,1.44a1.927,1.927,0,0,1-.852,1.62,4.232,4.232,0,0,1-2,.816,10.575,10.575,0,0,1-1.7.18h-.18A3.794,3.794,0,0,1,189.2.528a11.8,11.8,0,0,0,2.6-.456c1.908-.6,3.036-1.9,3.036-3.492a2.722,2.722,0,0,0-.444-1.548,3.091,3.091,0,0,0-2.832-1.224,16.954,16.954,0,0,0-3.708.5,6.4,6.4,0,0,1-1.248.228Zm10.764-2.76a17.419,17.419,0,0,1,1.992-.24c2.6-.192,3.072-.228,4.044-.372a5.289,5.289,0,0,0-1.668,1.2A4.23,4.23,0,0,0,200.9-3.36a3.211,3.211,0,0,0,1.716,2.892,7.219,7.219,0,0,0,2.808.792,2.549,2.549,0,0,1,.408.072l.216-1.632c-.12.012-.228.012-.24.012a7.282,7.282,0,0,1-1.788-.312,2.015,2.015,0,0,1-1.6-1.956,3.9,3.9,0,0,1,2.424-3.2,5.367,5.367,0,0,1,2.376-.648,1.858,1.858,0,0,1,.252.012l-.084-1.536a6.775,6.775,0,0,1-1.38.12c-3.324.156-5.316.264-5.988.3-1.764.12-1.764.12-1.98.12-.06,0-.192,0-.456-.012ZM214.2-2.628a6.752,6.752,0,0,0,1.752,1.956,9.25,9.25,0,0,0,4.2,1.728,7.1,7.1,0,0,1,.612-1.332,10.129,10.129,0,0,1-2.724-.612,18.771,18.771,0,0,0,2.136-1.656l-1.212-.648c-.108.12-.132.156-.228.264-.012-.192-.012-.3-.012-.54V-6.4a12.257,12.257,0,0,0,1.584.708,5.667,5.667,0,0,1,.6-1.332,11.714,11.714,0,0,1-2.916-1.26,8.065,8.065,0,0,1-2.136-1.788h-1.416a10.382,10.382,0,0,1-4.9,3.084,5.876,5.876,0,0,1,.588,1.308,16.238,16.238,0,0,0,1.5-.684c.012.312.012.4.012.54V-.408c-.48.06-1.2.12-1.356.12h-.18l.228,1.38c.24-.06.4-.084.552-.12,2.148-.36,3.084-.54,4.356-.84V-1.02c-1.092.24-1.188.252-2.34.432v-2.04Zm3.48,0c.264,0,.468,0,.732.012a9.167,9.167,0,0,1-1.536,1.152,4.308,4.308,0,0,1-1.248-1.164Zm-4.884-4.428a10.583,10.583,0,0,0,2.364-2,10.871,10.871,0,0,0,2.436,2h-1.848V-7.4a3.9,3.9,0,0,1,.048-.72h-1.32a2.86,2.86,0,0,1,.06.72v.348Zm.108,1.08h4.56v.6H212.9Zm0,1.62h4.56v.672H212.9Zm10.38,2.088a1.881,1.881,0,0,1,.252-.336,35.11,35.11,0,0,0,2.364-2.9c.408-.54.528-.648.72-.648.228,0,.3.06,1.044.912A49.665,49.665,0,0,0,232.328-.48a2.345,2.345,0,0,1,.348.348l.732-1.7a28.136,28.136,0,0,1-4.9-4.68,8.01,8.01,0,0,0-.8-.864,1.7,1.7,0,0,0-1.08-.456,1.651,1.651,0,0,0-.96.36,3.676,3.676,0,0,0-.744.756,15.848,15.848,0,0,1-2.616,2.94ZM229.5-7.92a8.517,8.517,0,0,1,1.26,1.788l.84-.444a8.167,8.167,0,0,0-1.26-1.764Zm3.528.564a6.94,6.94,0,0,0-1.248-1.692l-.8.42a8.841,8.841,0,0,1,1.224,1.74Zm2.448.576a17.419,17.419,0,0,1,1.992-.24c2.6-.192,3.072-.228,4.044-.372a5.289,5.289,0,0,0-1.668,1.2A4.23,4.23,0,0,0,238.7-3.36a3.211,3.211,0,0,0,1.716,2.892,7.219,7.219,0,0,0,2.808.792,2.549,2.549,0,0,1,.408.072l.216-1.632c-.12.012-.228.012-.24.012a7.282,7.282,0,0,1-1.788-.312,2.015,2.015,0,0,1-1.6-1.956,3.9,3.9,0,0,1,2.424-3.2,5.367,5.367,0,0,1,2.376-.648,1.858,1.858,0,0,1,.252.012l-.084-1.536a6.775,6.775,0,0,1-1.38.12c-3.324.156-5.316.264-5.988.3-1.764.12-1.764.12-1.98.12-.06,0-.192,0-.456-.012Zm12.852-2.04a5.731,5.731,0,0,1,.048.768c.048,3.324.264,5.064.756,6.264.48,1.152,1.128,1.74,1.932,1.74,1.02,0,1.716-.972,2.34-3.312a5.923,5.923,0,0,1-1.2-1.092,8.847,8.847,0,0,1-.636,2.172c-.144.336-.312.516-.492.516-.384,0-.768-.768-.972-2.016A22.456,22.456,0,0,1,249.872-7a13.951,13.951,0,0,1,.1-1.824Zm6.06,1.14a10.474,10.474,0,0,1,1.7,2.952,12.164,12.164,0,0,1,.768,3.468l1.488-.564a11.964,11.964,0,0,0-2.7-6.456Zm9.984,2.7a4.707,4.707,0,0,0,.492-.312c.24-.156,1.1-.8,1.32-.984.408-.348,1.284-1.128,1.884-1.68a2.572,2.572,0,0,1,.624-.492L267.944-9.5a1.768,1.768,0,0,1-.744.156c-1.164.084-2.628.144-3.648.144a10.853,10.853,0,0,1-1.416-.072l.06,1.44a4.048,4.048,0,0,1,.576-.06c2.172-.1,2.94-.144,3.4-.2l.012.012-.216.216a40.071,40.071,0,0,1-3.588,3.12,10.793,10.793,0,0,1-1.692,1.128l.816,1.3a7.394,7.394,0,0,1,4.944-2.016c1.452,0,2.376.612,2.376,1.548,0,.852-.432,1.368-1.428,1.74a3.228,3.228,0,0,0-.552-1.08,2.583,2.583,0,0,0-2.076-.984A1.847,1.847,0,0,0,262.7-1.4a1.713,1.713,0,0,0,.72,1.38,4.06,4.06,0,0,0,2.328.552,5.937,5.937,0,0,0,2.9-.684,2.933,2.933,0,0,0,1.632-2.652c0-1.644-1.32-2.7-3.372-2.7a5.858,5.858,0,0,0-2.52.552ZM266.1-.708a3.248,3.248,0,0,1-.624.048c-.888,0-1.428-.276-1.428-.756,0-.336.276-.552.708-.552C265.424-1.968,265.88-1.536,266.1-.708Zm8.184,1.776A10.024,10.024,0,0,0,275.588-1.3a9.012,9.012,0,0,0,.624-3.312,8.492,8.492,0,0,0-.612-3.2,9.578,9.578,0,0,0-1.308-2.364H272.6a9.8,9.8,0,0,1,1.536,2.388,7.79,7.79,0,0,1,.612,3.18,8.078,8.078,0,0,1-.636,3.288,9.222,9.222,0,0,1-1.524,2.388Z" transform="translate(1145 5866)" fill="#0052aa"/>
  </g>
</svg>
