<svg xmlns="http://www.w3.org/2000/svg" xmlns:xlink="http://www.w3.org/1999/xlink" width="966.318" height="355.564" viewBox="0 0 966.318 355.564">
  <defs>
    <linearGradient id="linear-gradient" y1="0.5" x2="1" y2="0.5" gradientUnits="objectBoundingBox">
      <stop offset="0" stop-color="#03a8e5"/>
      <stop offset="1" stop-color="#012869"/>
    </linearGradient>
    <filter id="パス_301" x="0" y="0" width="966.318" height="355.564" filterUnits="userSpaceOnUse">
      <feOffset dx="10" dy="10" input="SourceAlpha"/>
      <feGaussianBlur stdDeviation="15" result="blur"/>
      <feFlood flood-opacity="0.161"/>
      <feComposite operator="in" in2="blur"/>
      <feComposite in="SourceGraphic"/>
    </filter>
    <linearGradient id="linear-gradient-2" x1="-0.03" xlink:href="#linear-gradient"/>
    <filter id="長方形_224" x="20.938" y="48.429" width="321" height="171" filterUnits="userSpaceOnUse">
      <feOffset input="SourceAlpha"/>
      <feGaussianBlur stdDeviation="5" result="blur-2"/>
      <feFlood flood-color="#013778" flood-opacity="0.322"/>
      <feComposite operator="in" in2="blur-2"/>
      <feComposite in="SourceGraphic"/>
    </filter>
  </defs>
  <g id="言語数" transform="translate(-684.062 -5904.571)">
    <g id="グループ_253" data-name="グループ 253" transform="translate(190.709 3567.269)">
      <g transform="matrix(1, 0, 0, 1, 493.35, 2337.3)" filter="url(#パス_301)">
        <path id="パス_301-2" data-name="パス 301" d="M0,0H876.318V265.564H0Z" transform="translate(35 35)" fill="url(#linear-gradient)"/>
      </g>
      <path id="パス_302" data-name="パス 302" d="M0,0H868.318V257.564H0Z" transform="translate(532.353 2376.302)" fill="#edf9ff"/>
    </g>
    <g id="グループ_250" data-name="グループ 250" transform="translate(506.808 4325.508)" opacity="0.978">
      <path id="パス_659" data-name="パス 659" d="M949.623,1779.772h14.254a12.793,12.793,0,0,1-1.174,21.963H950.8a12.789,12.789,0,0,1-1.175-21.963Zm7.129,25.5a14.9,14.9,0,1,0-14.9-14.891,14.9,14.9,0,0,0,14.9,14.891Zm47.973-41.084h9.194v8.832a12.006,12.006,0,0,1-1.653-.485v-4.954l-3.821,2.682a12,12,0,0,1-1.183-1.194l4.6-3.228h-4.325l-1.7,1.189a12,12,0,0,1-1.114-2.843Zm1.046-9.269,1.769,1.24h4.324l-4.7-3.293a11.834,11.834,0,0,1,1.17-1.2l3.929,2.752v-5.121a12.01,12.01,0,0,1,1.653-.486v9h-9.239a12.011,12.011,0,0,1,1.091-2.893Zm13.108,9.269h9.581a12.091,12.091,0,0,1-1.231,3.036l-1.969-1.382h-4.321l4.833,3.393a12.168,12.168,0,0,1-1.2,1.182l-4.039-2.835v5.1a11.843,11.843,0,0,1-1.653.408v-8.9Zm0-15.441a12.194,12.194,0,0,1,1.653.408v5.264l4.146-2.907a11.9,11.9,0,0,1,1.189,1.188l-4.932,3.458h4.324l2.043-1.434a12.019,12.019,0,0,1,1.2,3.087h-9.626v-9.065Zm-2.262,27.053a14.9,14.9,0,1,0-14.892-14.9,14.9,14.9,0,0,0,14.892,14.9Zm-25.369,18.381v-2.556a20.227,20.227,0,0,1,3.306-1.559v4.115l7.321-.019.009,3.325h8.342a13.082,13.082,0,0,1,.843,3.07h-9.194v-3.07l-7.321.022v6.354h15.833a13.576,13.576,0,0,1-.713,3.07H986.389a13.626,13.626,0,0,1-.711-3.07h5.569v-6.376l-5.11.015a13.372,13.372,0,0,1,2.114-3.558l2.906.236Zm10.627-3.07h2.39a13.145,13.145,0,0,1,3.811,3.07h-6.2v-3.07Zm3.128,22.2H991.231a13.155,13.155,0,0,1-3.437-3.07h20.645a13.161,13.161,0,0,1-3.437,3.07Zm-21.779-10.994a14.894,14.894,0,1,0,14.9-14.9,14.9,14.9,0,0,0-14.9,14.9Zm55.318-20.755a9.641,9.641,0,0,1,8,4.257,7.56,7.56,0,1,0,0,10.781,9.648,9.648,0,1,1-8-15.038Zm10,8.961.084-1.6,1.224,1.044,1.548-.417-.613,1.484.874,1.35-1.6-.125-1.015,1.247-.374-1.563-1.5-.575,1.372-.841Zm-23.953-.147a14.894,14.894,0,1,0,14.894-14.9,14.9,14.9,0,0,0-14.894,14.9ZM982.1,1758.857c-.481.272-.907.548-1.247.787-.034-.038-.06-.075-.1-.11.242-.328.523-.737.8-1.2a14.948,14.948,0,0,0,.914-1.82,5.146,5.146,0,0,1,1.5,1.455,15.585,15.585,0,0,0-1.868.884Zm2.19-.242c-.058.2-.083.38,0,.324-.079.05.055.147.234.23a4.818,4.818,0,0,1,.2.7c-.11.179-.189.343-.114.318-.071.022.042.141.191.263.005.029.005.062.008.1a15.857,15.857,0,0,0-2.076-.144s0,0,0,0h-.007a15.439,15.439,0,0,0-1.542.081c-.005-.041-.008-.081-.014-.118a14.334,14.334,0,0,0,1.363-.672,15.21,15.21,0,0,0,1.728-1.133c.01.018.02.035.028.052Zm.528,2.494c-.151.141-.274.283-.206.293-.062-.01.018.125.132.274a5.072,5.072,0,0,1-.192.712c-.189.106-.344.224-.258.268-.078-.044-.043.1.025.28-.016.033-.03.066-.048.1a14.782,14.782,0,0,0-1.726-1.135,15.205,15.205,0,0,0-1.445-.712.63.63,0,0,0,.027-.091c.444.047,1,.087,1.617.091l0-.219.028.216.005,0a15.538,15.538,0,0,0,2.042-.141c0,.021,0,.044,0,.066Zm-.872,2.456c-.212.054-.393.139-.3.211-.085-.068-.1.085-.085.276a5.093,5.093,0,0,1-1.093.934,15.163,15.163,0,0,0-.91-1.822,14.767,14.767,0,0,0-.926-1.374.387.387,0,0,0,.062-.05,15.061,15.061,0,0,0,3.273,1.793c-.008.01-.013.021-.021.031Zm-3.768,2.128c-.022-.046-.043-.092-.068-.142.087-.05.133-.083.068-.068.075-.017.047-.054-.03-.1a1.091,1.091,0,0,0-.084-.67c.077-.064.112-.1.057-.054.069-.052.013-.1-.093-.126.016-.247.025-.507.028-.783,0,0,0-.01,0-.01l-.217-.027.22,0a14.493,14.493,0,0,0-.1-1.672l.076-.021a14.507,14.507,0,0,0,.773,1.506,15.2,15.2,0,0,0,1.153,1.669,5.254,5.254,0,0,1-1.776.5Zm-.032-7.835c0-.017,0-.035,0-.05H980.1a.266.266,0,0,0-.014-.022l.059-.007v-.012c0-.374-.017-.725-.042-1.042.145-.044.237-.1.147-.149.055.031.023,0-.045-.05a1.1,1.1,0,0,0,0-.667c.021-.016.04-.025.055-.037a5.22,5.22,0,0,1,1.791.5,14.853,14.853,0,0,0-1.158,1.669c-.269.45-.491.886-.663,1.254a1.253,1.253,0,0,0-.152-.048c.035-.347.061-.762.068-1.206.047-.021.071-.05.03-.1.045.048.022.019-.028-.04Zm-.942,5.959c0,.305.015.586.032.855-.126.039-.2.089-.119.135-.055-.031-.02,0,.047.046a.979.979,0,0,0,0,.635c-.128.073-.2.135-.1.141-.062,0-.025.025.05.058-.009.031-.018.056-.027.083a5.243,5.243,0,0,1-1.786-.5,14.588,14.588,0,0,0,1.156-1.671,15.012,15.012,0,0,0,.769-1.5l.073.021a14.014,14.014,0,0,0-.1,1.664v0a.12.12,0,0,0,0,.031Zm-3.494.272c0-.214-.035-.4-.13-.313.088-.081-.068-.145-.267-.176-.018-.023-.027-.043-.043-.066a16.33,16.33,0,0,0,1.866-.888,14.725,14.725,0,0,0,1.407-.905.4.4,0,0,0,.059.05,15.276,15.276,0,0,0-.926,1.374,16.021,16.021,0,0,0-.909,1.822,5.191,5.191,0,0,1-1.058-.9Zm-.661-1.182c.059-.2.082-.38,0-.322.08-.052-.057-.149-.237-.232a5.294,5.294,0,0,1-.2-.7c.112-.181.192-.344.117-.322.072-.022-.061-.156-.229-.285l.026-.068a16.5,16.5,0,0,0,2.044.137h.012l.022-.219v.219a15.264,15.264,0,0,0,1.625-.092l.023.087c-.406.178-.915.415-1.451.716a15.527,15.527,0,0,0-1.724,1.136c-.009-.017-.018-.035-.027-.054Zm-.626-2.421c.155-.145.274-.286.207-.3.065.01-.015-.125-.132-.274a4.772,4.772,0,0,1,.194-.71c.19-.108.341-.224.259-.268.077.042.042-.105-.025-.282.015-.033.027-.062.042-.092a15.678,15.678,0,0,0,1.734,1.131,14.965,14.965,0,0,0,1.362.675.86.86,0,0,0-.013.116c-.43-.043-.961-.081-1.546-.081h-.021a.064.064,0,0,0-.029,0,15.675,15.675,0,0,0-2.035.146c0-.021,0-.045,0-.064Zm.863-2.547c.215-.052.4-.137.3-.21.088.067.1-.087.085-.28a5.2,5.2,0,0,1,1.091-.932,15.411,15.411,0,0,0,.914,1.82c.274.459.553.868.8,1.2-.032.033-.062.073-.093.108-.341-.237-.767-.515-1.25-.787a16.507,16.507,0,0,0-1.865-.884l.018-.033Zm3.748-2.2a.277.277,0,0,0,.065.058,1.164,1.164,0,0,0,.089.7c-.079.071-.117.1-.059.058-.075.059,0,.1.114.139-.005.089-.013.183-.015.276a1.251,1.251,0,0,0-.028.741v.01c0,.515.033.988.073,1.387a.874.874,0,0,0-.149.046c-.174-.367-.4-.8-.662-1.251a15.178,15.178,0,0,0-1.158-1.671,5.251,5.251,0,0,1,1.731-.5Zm.582-.924a5.942,5.942,0,1,0,6.088,5.943,6.021,6.021,0,0,0-6.088-5.943Zm-12.846,6.1a12.8,12.8,0,0,1,2.33-7.354h21.028a12.772,12.772,0,0,1,.207,14.406H968.9a12.8,12.8,0,0,1-2.123-7.052Zm12.844,14.885a14.9,14.9,0,1,0-14.9-14.9,14.9,14.9,0,0,0,14.9,14.9Zm-27.208,16.794.768,1.351H951.64l.769-1.351Zm.771-5.025-.77,1.349-.768-1.349Zm2.04,0h3.362l1.748,3.071-1.748,3.069h-3.362l-1.747-3.073,1.747-3.067Zm1.682-2.9.714,1.251H956.19l.712-1.251Zm4.492,7.93.769,1.351h-1.538l.769-1.351Zm.77-5.025-.769,1.349-.771-1.349Zm-5.262,9.281-.712-1.251h1.426l-.714,1.251Zm-5.466-6.095-2.755,4.844h5.509l2.71,4.76,2.711-4.76h5.514l-2.756-4.844,2.756-4.839h-5.512l-2.71-4.759-2.711,4.759H948.68l.74,1.3,2.016,3.54Zm101.922,32.526c-2.086-.06-4.182-.116-6.34-.116-17.531.017-32.837,2.032-41.712,5.2a10.294,10.294,0,0,0-2.31-1.687c7.312-3.651,24.329-6.351,44.022-6.333,2.157,0,4.255.054,6.34.116v2.825Zm0,4.953c-2.085-.062-4.182-.117-6.34-.117-15.911.009-30,1.682-39.1,4.351a10.261,10.261,0,0,0-1.175-2.362c8.541-2.862,23.428-4.828,40.272-4.817,2.157,0,4.255.056,6.34.116v2.829Zm0,4.443-36.357,0a177.731,177.731,0,0,1,30.017-2.333c2.157,0,4.254.054,6.34.116v2.221Zm-62.473-4.312c-8.876-3.167-24.18-5.183-41.706-5.2-2.162,0-4.259.056-6.345.116v-2.825c2.085-.062,4.184-.116,6.343-.116,13.419,0,25.571,1.222,34.3,3.18a44.545,44.545,0,0,1,9.716,3.16,10.272,10.272,0,0,0-2.306,1.685Zm-2.613,4.105c-9.1-2.669-23.185-4.347-39.095-4.353-2.159,0-4.256.057-6.343.117V1825.4c2.086-.06,4.184-.116,6.345-.116,16.839-.01,31.726,1.953,40.269,4.815a10.247,10.247,0,0,0-1.177,2.366Zm-45.438.207v-2.219c2.087-.06,4.184-.115,6.343-.115a177.433,177.433,0,0,1,30.014,2.333Zm112.649,0v-13.225h-.6l.04-.945h0c-2.595-.241-5.258-.29-7.971-.29-13.551,0-25.815,1.227-34.765,3.23a44.38,44.38,0,0,0-10.729,3.583c-.421.226-.812.461-1.185.7a10.107,10.107,0,0,0-2.156-.256,10.217,10.217,0,0,0-2.155.254c-.374-.239-.764-.473-1.185-.7-7.786-4.1-25.145-6.794-45.494-6.817-2.717,0-5.38.054-7.976.15l.042,1.089h-.4v13.225H940v6.376h54.317v-3.184a3.9,3.9,0,1,1,7.793,0v3.184h54.081v-6.376Z" transform="translate(0)" fill="#a8e1f7"/>
    </g>
    <g transform="matrix(1, 0, 0, 1, 684.06, 5904.57)" filter="url(#長方形_224)">
      <rect id="長方形_224-2" data-name="長方形 224" width="291" height="141" transform="translate(35.94 63.43)" fill="url(#linear-gradient-2)"/>
    </g>
    <path id="パス_1211" data-name="パス 1211" d="M15.6-13.825H13.45a21.706,21.706,0,0,1-2.85-.15v2.725a21.55,21.55,0,0,1,2.825-.15H15.6v3.275H13.075a13.369,13.369,0,0,1-1.825-.1c.05.675.075,1.125.075,2V-.6A16.923,16.923,0,0,1,11.2,1.95H14V.825h6.125V1.95H22.95a24.915,24.915,0,0,1-.125-2.625V-6.05a16.887,16.887,0,0,1,.1-2.175,12.555,12.555,0,0,1-1.875.1H18.3V-11.4h2.725a21.937,21.937,0,0,1,2.8.15v-2.725a21.028,21.028,0,0,1-2.825.15H18.3V-17.45c1.2-.25,2.5-.575,3.975-1,.875-.25.875-.25,1.2-.325l-1.55-2.4c-1.975,1.1-7.125,2.1-11.625,2.25a9.505,9.505,0,0,1,.925,2.45c2.625-.275,2.875-.3,4.375-.5ZM14-5.725h6.125v4.15H14ZM2.025-17.875a16.18,16.18,0,0,1,2.075-.1H7.75a15.932,15.932,0,0,1,2.075.1v-2.45a15.45,15.45,0,0,1-2.075.1H4.1a15.45,15.45,0,0,1-2.075-.1Zm-.8,3.5a15.109,15.109,0,0,1,2.025-.1H8.475a16.05,16.05,0,0,1,1.9.075v-2.475a13.531,13.531,0,0,1-2.025.1H3.25A11.315,11.315,0,0,1,1.225-16.9Zm.9,3.475a14.354,14.354,0,0,1,1.65-.075h4.45a10.4,10.4,0,0,1,1.6.075v-2.375a12.838,12.838,0,0,1-1.6.075H3.775a14.354,14.354,0,0,1-1.65-.075Zm0,3.5A13.875,13.875,0,0,1,3.75-7.475H8.175a10.425,10.425,0,0,1,1.65.075V-9.775a9.291,9.291,0,0,1-1.6.075H3.775a14.354,14.354,0,0,1-1.65-.075ZM4.675.85H7.45V1.7H9.925a14.144,14.144,0,0,1-.1-1.95v-4.2A15.81,15.81,0,0,1,9.9-6.25a8.875,8.875,0,0,1-1.675.075h-4.2a14.544,14.544,0,0,1-1.9-.1,16.3,16.3,0,0,1,.1,1.975V-.325A16.666,16.666,0,0,1,2.1,2.025H4.675Zm-.05-4.825H7.45v2.6H4.625Zm46.8.7a20.33,20.33,0,0,1-7.225.95c-4.075,0-5.15-.525-5.35-2.625-.05-.5-.125-3.225-.125-4.525V-10c.025-1.325.025-1.325.025-1.45v-.675c3.475-.2,3.475-.2,7.275-.35A21.545,21.545,0,0,1,45.8-9.35c-.15.975-.425,1.3-1.075,1.3A7.753,7.753,0,0,1,41.45-9.275a13.308,13.308,0,0,1,.175,2.05c0,.35,0,.5-.025,1a8.194,8.194,0,0,0,3.575.85,3.047,3.047,0,0,0,3.05-1.875,15.983,15.983,0,0,0,.65-5.3c1.175,0,2.6-.025,3.475-.025a8.765,8.765,0,0,1,1.425.075l-.05-2.975a48.208,48.208,0,0,1-4.85.225v-3.125A11.394,11.394,0,0,1,49-20.1H45.875c.15.975.15.975.15,4.95-3.725.175-3.725.175-7.225.35a29.124,29.124,0,0,1,.225-4.875h-3.35a24.667,24.667,0,0,1,.175,4.25c0,.15,0,.375-.025.775-2.475.15-3.85.225-4.075.225-.125,0-.375,0-.725-.025l.2,2.925a34.144,34.144,0,0,1,4.625-.45c-.025,1.95-.025,2.05-.025,2.425,0,4.3.1,5.7.45,6.825.75,2.4,2.775,3.3,7.45,3.3C45.375.575,48.675.4,50.5.2c.85-.1.85-.1,1.125-.125Zm18.425-7.1a9.812,9.812,0,0,0,1.025-.65c.5-.325,2.3-1.675,2.75-2.05.85-.725,2.675-2.35,3.925-3.5a5.359,5.359,0,0,1,1.3-1.025L77.3-19.8a3.684,3.684,0,0,1-1.55.325c-2.425.175-5.475.3-7.6.3a22.61,22.61,0,0,1-2.95-.15l.125,3a8.434,8.434,0,0,1,1.2-.125c4.525-.2,6.125-.3,7.075-.425l.025.025-.45.45A83.476,83.476,0,0,1,65.7-9.9a22.483,22.483,0,0,1-3.525,2.35l1.7,2.7a15.4,15.4,0,0,1,10.3-4.2c3.025,0,4.95,1.275,4.95,3.225,0,1.775-.9,2.85-2.975,3.625A6.723,6.723,0,0,0,75-4.45,5.381,5.381,0,0,0,70.675-6.5c-2.5,0-4.3,1.5-4.3,3.575a3.568,3.568,0,0,0,1.5,2.875,8.458,8.458,0,0,0,4.85,1.15,12.369,12.369,0,0,0,6.05-1.425,6.109,6.109,0,0,0,3.4-5.525c0-3.425-2.75-5.625-7.025-5.625a12.2,12.2,0,0,0-5.25,1.15Zm3.6,8.9a6.767,6.767,0,0,1-1.3.1c-1.85,0-2.975-.575-2.975-1.575,0-.7.575-1.15,1.475-1.15C72.05-4.1,73-3.2,73.45-1.475ZM110.9-20.4a21.1,21.1,0,0,1-2.75.15H96.825a21.643,21.643,0,0,1-2.75-.15v2.5a21.886,21.886,0,0,1,2.75-.125H108.15a22.13,22.13,0,0,1,2.75.125Zm2.825,3.55A19.656,19.656,0,0,1,111-16.7H93.95a20.058,20.058,0,0,1-2.75-.15v2.65a21.829,21.829,0,0,1,2.775-.125h17c1.075,0,1.9.05,2.75.125Zm-3.05,3.725a21.18,21.18,0,0,1-2.525.1H96.85a21.936,21.936,0,0,1-2.55-.1V-10.7a17.333,17.333,0,0,1,2.55-.125h11.3a17.373,17.373,0,0,1,2.525.125Zm0,3.475a16.353,16.353,0,0,1-2.525.125H96.85A16.72,16.72,0,0,1,94.3-9.65V-7.2a17.127,17.127,0,0,1,2.55-.125h11.3a17.165,17.165,0,0,1,2.525.125ZM96.675.975h11.5V2.05h2.85A15.067,15.067,0,0,1,110.9-.275V-3.8a15.463,15.463,0,0,1,.1-2.175,12.777,12.777,0,0,1-1.975.1H95.85a14.307,14.307,0,0,1-1.975-.1A14.171,14.171,0,0,1,94-3.8V-.3c0,.725-.05,1.55-.125,2.325h2.8Zm0-4.525H108.2v2.125H96.675Zm35.8-7.375A16.023,16.023,0,0,1,130-11.05V-8.4a16.832,16.832,0,0,1,2.475-.125h9.25a17.958,17.958,0,0,1,2.45.125v-2.675a11.021,11.021,0,0,1-2.275.15v-3.15a13.249,13.249,0,0,1,.1-1.95,13.853,13.853,0,0,1-1.975.1H137.05c.1-.35.25-1,.5-1.95h3.6a19.091,19.091,0,0,1,2.65.125V-20.4a24.6,24.6,0,0,1-2.775.125H133.4c-1.125,0-1.95-.05-2.8-.125v2.65a18.916,18.916,0,0,1,2.625-.125h1.625c-.2.95-.2.95-.45,1.95h-1.25a15.427,15.427,0,0,1-2-.1v2.55a15.356,15.356,0,0,1,1.95-.1h.625c-.325,1.1-.45,1.45-.9,2.65Zm3.05,0a27.413,27.413,0,0,0,.875-2.65h2.925v2.65ZM121.95-18.05c.625-.05,1.175-.075,2.075-.075H127.4a16.575,16.575,0,0,1,2.075.075v-2.425a11.587,11.587,0,0,1-2.075.125h-3.375a11.587,11.587,0,0,1-2.075-.125Zm-.825,3.625a14.942,14.942,0,0,1,2-.1h4.85a12.736,12.736,0,0,1,2,.1V-17a15.1,15.1,0,0,1-2.125.1h-4.725a11.012,11.012,0,0,1-2-.125ZM122-10.95a14.056,14.056,0,0,1,1.65-.075h4.2a10.077,10.077,0,0,1,1.6.075v-2.325a12.3,12.3,0,0,1-1.6.075h-4.2a13.765,13.765,0,0,1-1.65-.075Zm0,3.475a13.875,13.875,0,0,1,1.625-.075H127.8a10.425,10.425,0,0,1,1.65.075v-2.3a12.3,12.3,0,0,1-1.6.075h-4.2A13.766,13.766,0,0,1,122-9.775Zm-.1,7.05A18.571,18.571,0,0,1,121.75,2h2.575V.825h2.9v.85h2.45a14.144,14.144,0,0,1-.1-1.95V-4.45a14.932,14.932,0,0,1,.075-1.8,8.874,8.874,0,0,1-1.675.075H123.7a15.458,15.458,0,0,1-1.925-.1A11.932,11.932,0,0,1,121.9-4.3Zm2.45-3.625h2.875V-1.4H124.35Zm6.975,3.575a24.346,24.346,0,0,1-.1,2.525H134V.925h6.05v1.1h2.85a20.923,20.923,0,0,1-.125-2.475V-5.175a14.705,14.705,0,0,1,.1-2,18.052,18.052,0,0,1-2.025.075h-7.475c-1,0-1.5-.025-2.125-.075.05.55.075,1.025.075,1.775ZM134-4.775h6.05v3.25H134Zm30.45-11.25a5.464,5.464,0,0,1,2.525.75,6.194,6.194,0,0,1,3.075,5.55,7,7,0,0,1-3.475,6.25A13.286,13.286,0,0,1,161.6-2.1,7.975,7.975,0,0,1,163.125.825a16.344,16.344,0,0,0,3.925-1.05,9.631,9.631,0,0,0,6.075-9.325c0-5.625-3.9-9.275-9.9-9.275a11.222,11.222,0,0,0-8.6,3.5,10.739,10.739,0,0,0-2.75,7.275c0,4.025,2.05,6.925,4.9,6.925,2.05,0,3.65-1.475,5.075-4.7A36.167,36.167,0,0,0,164.45-16.025ZM161.4-16a32.948,32.948,0,0,1-2.075,8.45c-.9,2.15-1.75,3.2-2.575,3.2-1.1,0-1.975-1.625-1.975-3.675a8.37,8.37,0,0,1,3.4-6.75A6.364,6.364,0,0,1,161.4-16Zm42.825-.825a13.539,13.539,0,0,1-2.35.125h-4.35c.275-.975.5-1.825.65-2.475.2-.85.25-1.075.35-1.375l-2.75-.55a18.12,18.12,0,0,1-.6,3.4,18.353,18.353,0,0,1-3.375,7.2,8.773,8.773,0,0,1,1.8,1.8c.525-.7.7-.95,1.15-1.65a17.064,17.064,0,0,0,2.1,5.875A15.519,15.519,0,0,1,193.3-1.35a15.275,15.275,0,0,1-1.975,1.075,7.73,7.73,0,0,1,1.35,2.5A19.393,19.393,0,0,0,198.35-2.25a17.119,17.119,0,0,0,4.875,4.3,11.464,11.464,0,0,1,1.45-2.65,13.29,13.29,0,0,1-4.75-3.9,20.433,20.433,0,0,0,2.55-9.8,12.773,12.773,0,0,1,1.75.1Zm-4.3,2.525a18.1,18.1,0,0,1-1.55,7.35,19.663,19.663,0,0,1-2-6.575c.125-.325.125-.325.325-.775Zm-7.85,12.625A12.937,12.937,0,0,0,190.05-2.8a9.284,9.284,0,0,0,1.5-3.2,9.877,9.877,0,0,1,2.025.125V-8.4a8.84,8.84,0,0,1-1.85.125h-3.95c.2-.475.3-.65.525-1.275l-2.6-.5a18.092,18.092,0,0,1-.65,1.775h-1.875A10.39,10.39,0,0,1,181.2-8.4v2.525A10.714,10.714,0,0,1,183.175-6h.725a20.9,20.9,0,0,1-1.625,2.475c1.775.65,2.45.925,3.7,1.475a13.671,13.671,0,0,1-4.95,1.85,10.919,10.919,0,0,1,1.3,2.3A13.113,13.113,0,0,0,188.3-.875,13.321,13.321,0,0,1,190.625.65ZM188.95-6a6.448,6.448,0,0,1-1.125,2.225c-.75-.325-1.075-.45-2.125-.825.45-.675.525-.8.875-1.4Zm-.1-10.35v-3a9.823,9.823,0,0,1,.1-1.65h-2.725a7.99,7.99,0,0,1,.125,1.7v2.95h-2.975a11.9,11.9,0,0,1-2.1-.125v2.4a11.758,11.758,0,0,1,2.075-.125h1.35a9.992,9.992,0,0,1-4,3.125A8.5,8.5,0,0,1,182.325-9a14.2,14.2,0,0,0,4.075-3.925c-.05.45-.075.85-.075,1.075v.95a4.6,4.6,0,0,1-.075.825h2.675a3.749,3.749,0,0,1-.1-.925v-.9c0-.2-.025-.5-.075-1.025a9.059,9.059,0,0,0,2.225,2.375,8.04,8.04,0,0,1,1.45-2.05,6.766,6.766,0,0,1-2.2-1.6H191.9a12.036,12.036,0,0,1,1.6.075v-2.3a11.529,11.529,0,0,1-1.6.075Zm-6.95-3.6a12.965,12.965,0,0,1,1.675,3.325l2.2-.825a12.469,12.469,0,0,0-1.75-3.3Zm9.2-.85a12.359,12.359,0,0,1-1.775,3.35l2.125.95a21.528,21.528,0,0,0,1.9-3.375Z" transform="translate(763 6030.136)" fill="#fff"/>
    <path id="パス_1212" data-name="パス 1212" d="M5.2-6.143,1.328-10.019l.946-.938L6.151-7.081l3.868-3.876.946.938L7.089-6.143l3.876,3.876-.946.938L6.151-5.2,2.274-1.328l-.938-.938ZM2.167-5.1a1,1,0,0,1-.73-.307,1.007,1.007,0,0,1-.307-.739,1.021,1.021,0,0,1,.307-.743A1,1,0,0,1,2.175-7.2a1.017,1.017,0,0,1,.747.307,1.017,1.017,0,0,1,.307.747,1,1,0,0,1-.307.743A1.034,1.034,0,0,1,2.167-5.1Zm7.936,0a1,1,0,0,1-.73-.307,1.007,1.007,0,0,1-.307-.739,1.021,1.021,0,0,1,.307-.743,1.01,1.01,0,0,1,.747-.311,1.007,1.007,0,0,1,.739.307,1.017,1.017,0,0,1,.307.747,1,1,0,0,1-.307.743A1.034,1.034,0,0,1,10.1-5.1ZM6.134-9.064a.991.991,0,0,1-.73-.311A1.011,1.011,0,0,1,5.1-10.11a1.017,1.017,0,0,1,.307-.747,1.017,1.017,0,0,1,.747-.307,1.007,1.007,0,0,1,.739.307,1.007,1.007,0,0,1,.307.739,1.017,1.017,0,0,1-.307.747A1.027,1.027,0,0,1,6.134-9.064ZM6.1-1.121a.991.991,0,0,1-.73-.311,1.021,1.021,0,0,1-.307-.743,1.007,1.007,0,0,1,.307-.739,1.007,1.007,0,0,1,.739-.307,1.017,1.017,0,0,1,.747.307,1.007,1.007,0,0,1,.307.739,1.017,1.017,0,0,1-.307.747A1.027,1.027,0,0,1,6.1-1.121Zm12.185.288a17.832,17.832,0,0,1-.1,2.057h2.023V.2h7.905v1.02h2.057a17.222,17.222,0,0,1-.1-2.057V-11.815a15.36,15.36,0,0,1,.085-1.734,13.679,13.679,0,0,1-1.836.085H20.088a15.007,15.007,0,0,1-1.887-.085c.051.561.085,1.156.085,1.819Zm1.921-10.829h7.905v3.944H20.207Zm0,5.729h7.905v4.352H20.207Zm23.375-6.052H42.375a12.48,12.48,0,0,0-1.36-2.142l-1.8.51a8.333,8.333,0,0,1,1.139,1.632H38.924a14.537,14.537,0,0,1-1.666-.068,14.07,14.07,0,0,1,.068,1.53V-9.4a9.847,9.847,0,0,1-.068,1.224h1.87v-2.21H50.11v2.244h1.87A6.841,6.841,0,0,1,51.9-9.35v-1.1a13.252,13.252,0,0,1,.068-1.6,14.558,14.558,0,0,1-1.819.068H48.733c.272-.357.306-.408.8-1.139a3.2,3.2,0,0,1,.272-.425l-1.836-.527a9.945,9.945,0,0,1-1.241,2.091H45.418v-1.037a8.457,8.457,0,0,1,.085-1.224H43.5a8.456,8.456,0,0,1,.085,1.224Zm-.034,6.426v1H39.859A13.731,13.731,0,0,1,38.3-4.624a11.409,11.409,0,0,1,.068,1.394V-.969A16.727,16.727,0,0,1,38.278.782h2.006a11.007,11.007,0,0,1-.085-1.7V-2.924h3.349V-.34a13.908,13.908,0,0,1-.085,1.8h2.023A13.284,13.284,0,0,1,45.4-.34V-2.924h3.655v1.683c0,.289-.119.357-.612.357A12.456,12.456,0,0,1,46.812-1,4.378,4.378,0,0,1,47.22.68c.833.051.918.051,1.139.051,2.091,0,2.533-.272,2.533-1.513V-3.094a11.365,11.365,0,0,1,.068-1.53,12.754,12.754,0,0,1-1.666.068H45.4v-1h2.363c.646,0,1.173.017,1.7.051a13.174,13.174,0,0,1-.051-1.428V-8.143c0-.629.017-.986.051-1.377-.442.034-.918.051-1.615.051H41.44c-.612,0-1.173-.017-1.632-.051.034.357.051.8.051,1.36v1.224a13.84,13.84,0,0,1-.051,1.428c.459-.034.918-.051,1.615-.051Zm4.08-2.533v1.139H41.644V-8.092Zm13.056.68a13.6,13.6,0,0,1,1.462-.068h5.678a12.914,12.914,0,0,1,1.53.068V-8.738a18.127,18.127,0,0,0,2.907,1.547A7.57,7.57,0,0,1,73.2-9.1a17.969,17.969,0,0,1-4.369-2.3,10.324,10.324,0,0,1-2.873-2.822H63.931a11.194,11.194,0,0,1-2.686,2.856,15.864,15.864,0,0,1-4.267,2.363,7.9,7.9,0,0,1,.986,1.734,16,16,0,0,0,2.72-1.462Zm1.479-1.836c-.306,0-.408,0-.7-.017A14.513,14.513,0,0,0,65-12.563a13.848,13.848,0,0,0,3.553,3.3c-.323.017-.476.017-.748.017Zm.17,4.913a17.6,17.6,0,0,1-1.819,3.4c-.867.051-1.377.068-1.5.068-.238,0-.527-.017-.986-.051L58.3,1.156A20.215,20.215,0,0,1,60.5.918c.68-.051,4.046-.357,5.729-.51.629-.068,1.649-.187,3.06-.374.289.408.459.646,1.02,1.479L71.938.442A34.79,34.79,0,0,0,68.011-4.1l-1.683.748c.952.986,1.241,1.292,1.785,1.887-2.38.255-2.38.255-5.389.425a18.48,18.48,0,0,0,1.768-3.3H70.34a15.817,15.817,0,0,1,1.989.1V-6.2a16.006,16.006,0,0,1-1.989.1H59.749a16.7,16.7,0,0,1-2.006-.1v1.972a15.926,15.926,0,0,1,2.006-.1ZM87.493-9.4H86.031a14.76,14.76,0,0,1-1.938-.1V-7.65a14.654,14.654,0,0,1,1.921-.1h1.479v2.227H85.776a9.091,9.091,0,0,1-1.241-.068c.034.459.051.765.051,1.36V-.408A11.507,11.507,0,0,1,84.5,1.326h1.9V.561H90.57v.765h1.921a16.941,16.941,0,0,1-.085-1.785V-4.114a11.484,11.484,0,0,1,.068-1.479,8.537,8.537,0,0,1-1.275.068h-1.87V-7.752h1.853a14.917,14.917,0,0,1,1.9.1V-9.5a14.3,14.3,0,0,1-1.921.1H89.329v-2.465c.816-.17,1.7-.391,2.7-.68.6-.17.6-.17.816-.221L91.794-14.4c-1.343.748-4.845,1.428-7.9,1.53a6.464,6.464,0,0,1,.629,1.666c1.785-.187,1.955-.2,2.975-.34ZM86.405-3.893H90.57v2.822H86.405Zm-8.143-8.262a11,11,0,0,1,1.411-.068h2.482a10.834,10.834,0,0,1,1.411.068v-1.666a10.506,10.506,0,0,1-1.411.068H79.673a10.506,10.506,0,0,1-1.411-.068Zm-.544,2.38A10.274,10.274,0,0,1,79.1-9.843h3.553a10.914,10.914,0,0,1,1.292.051v-1.683a9.2,9.2,0,0,1-1.377.068H79.1a7.694,7.694,0,0,1-1.377-.085Zm.612,2.363a9.761,9.761,0,0,1,1.122-.051h3.026a7.074,7.074,0,0,1,1.088.051V-9.027a8.73,8.73,0,0,1-1.088.051H79.452a9.761,9.761,0,0,1-1.122-.051Zm0,2.38a9.435,9.435,0,0,1,1.105-.051h3.009a7.089,7.089,0,0,1,1.122.051V-6.647a6.318,6.318,0,0,1-1.088.051H79.452a9.761,9.761,0,0,1-1.122-.051ZM80.064.578h1.887v.578h1.683A9.617,9.617,0,0,1,83.566-.17V-3.026a10.75,10.75,0,0,1,.051-1.224,6.035,6.035,0,0,1-1.139.051H79.622a9.89,9.89,0,0,1-1.292-.068A11.081,11.081,0,0,1,78.4-2.924v2.7a11.333,11.333,0,0,1-.085,1.6h1.751ZM80.03-2.7h1.921V-.935H80.03Zm20.655-10.676a8.269,8.269,0,0,1,.085,1.751l-.068,9.18A6,6,0,0,1,100.549-.7L101.637.612a4.871,4.871,0,0,1,1.02-.289,15.5,15.5,0,0,0,6.188-2.329,12.674,12.674,0,0,0,3.791-3.961A7.986,7.986,0,0,1,111.021-7.7a10.046,10.046,0,0,1-3.468,3.893,12.227,12.227,0,0,1-4.641,1.87L103-11.645a13.156,13.156,0,0,1,.1-1.717ZM119.776-3.3c.238-.289.306-.374.578-.7.918-1.088,2.346-2.856,3.043-3.791s.765-.986,1.037-.986c.289,0,.289,0,1.377,1.19A86.627,86.627,0,0,0,133-.408l1.071-2.329a10.218,10.218,0,0,1-1.615-1.275,58.414,58.414,0,0,1-5.508-5.423c-1.292-1.462-1.683-1.734-2.533-1.734a2.162,2.162,0,0,0-1.156.323A5.754,5.754,0,0,0,121.986-9.5c-2.278,2.856-3.162,3.859-3.655,4.114Zm8.908-8.024a11.474,11.474,0,0,1,1.785,2.533l1.19-.629a11.017,11.017,0,0,0-1.785-2.5Zm5,.8a9.411,9.411,0,0,0-1.768-2.4l-1.139.595a12.525,12.525,0,0,1,1.734,2.465Zm8.364-2.771a8.543,8.543,0,0,1,.068,1.547c0,4.76-.391,6.953-1.615,8.908a6.984,6.984,0,0,1-1.751,1.955A6.05,6.05,0,0,1,140.465.765a10.826,10.826,0,0,0,2.346-3.145c.884-1.751,1.258-3.672,1.377-6.987a35.532,35.532,0,0,1,.17-3.808Zm4.505-.119a7.358,7.358,0,0,1,.068,1.122v.51l-.085,9.588a7.619,7.619,0,0,1-.153,1.8L147.469.765A7.4,7.4,0,0,1,148.2.459a11.228,11.228,0,0,0,3.621-2.04,10.55,10.55,0,0,0,2.7-3.961,7.126,7.126,0,0,1-1.6-1.6,8.307,8.307,0,0,1-1.666,3.111,6.835,6.835,0,0,1-2.6,1.938l.085-9.673a9.211,9.211,0,0,1,.119-1.615Zm24.7-.493a6.943,6.943,0,0,1,.068,1.122,15.091,15.091,0,0,1-1.836,8.007c-1.241,2.006-3.077,3.383-6.069,4.539A7.794,7.794,0,0,1,164.5,1.445,13.542,13.542,0,0,0,170.2-2.618a13.251,13.251,0,0,0,3.655,3.927,7.479,7.479,0,0,1,1.19-1.938,9.814,9.814,0,0,1-3.706-3.655,12.167,12.167,0,0,0,1.071-2.482,22.82,22.82,0,0,0,.816-4.743c.153-2.176.153-2.176.17-2.363ZM160.967-2.924a11.113,11.113,0,0,1-1.7.544l.544,2.074c.425-.2.544-.255,1.19-.544a45.5,45.5,0,0,0,6.681-3.383l-.408-1.785a35.529,35.529,0,0,1-4.369,2.312l-.085-8.109v-.374a15.015,15.015,0,0,1,.085-1.666h-2.159a15.554,15.554,0,0,1,.136,2.023Zm3.332-8.908A19.642,19.642,0,0,1,167.546-7.5L169.3-8.7a25.44,25.44,0,0,0-3.366-4.165Zm23.647,4.454h3.995a17.75,17.75,0,0,1,1.972.1V-9.3a17.315,17.315,0,0,1-1.972.1h-3.995V-12.1a13.719,13.719,0,0,1,.119-1.955h-2.227a14.554,14.554,0,0,1,.119,1.955V-1.122h-3.876a22.432,22.432,0,0,1-2.346-.1V.816A21.25,21.25,0,0,1,182.081.7h10.795a18.55,18.55,0,0,1,2.261.119v-2.04a21.833,21.833,0,0,1-2.295.1h-4.9Z" transform="translate(763 6070)" fill="#fff"/>
    <path id="パス_1217" data-name="パス 1217" d="M11.652,1.068A9.223,9.223,0,0,1,10.128-1.32a8.118,8.118,0,0,1-.636-3.288,7.874,7.874,0,0,1,.624-3.18,9.351,9.351,0,0,1,1.524-2.388H9.96A9.687,9.687,0,0,0,8.64-7.812a8.492,8.492,0,0,0-.612,3.2A8.831,8.831,0,0,0,8.664-1.3,9.611,9.611,0,0,0,9.972,1.068ZM13.836-.588A12.587,12.587,0,0,1,13.764.864h1.428V.144h5.58v.72h1.452a12.157,12.157,0,0,1-.072-1.452V-8.34a10.843,10.843,0,0,1,.06-1.224,9.656,9.656,0,0,1-1.3.06H15.108a10.593,10.593,0,0,1-1.332-.06c.036.4.06.816.06,1.284Zm1.356-7.644h5.58v2.784h-5.58Zm0,4.044h5.58v3.072h-5.58ZM28.5-6.8A11.285,11.285,0,0,1,24.324-2.2a4.136,4.136,0,0,1,.816,1.26,11.471,11.471,0,0,0,1.944-1.68V-1.26a8.585,8.585,0,0,1,1.2-.072h.948v.816A11.08,11.08,0,0,1,29.148.972H30.66a10.844,10.844,0,0,1-.084-1.488v-.816h1.068a8.707,8.707,0,0,1,1.2.072V-2.628A13.377,13.377,0,0,0,34.86-.96a4.9,4.9,0,0,1,.816-1.308A10.268,10.268,0,0,1,33.06-4.284a11.9,11.9,0,0,1-1.8-2.52h2.568a14.173,14.173,0,0,1,1.452.072V-8.2a9.853,9.853,0,0,1-1.452.084H30.576v-.864a5.991,5.991,0,0,1,.084-1.1h-1.5a7.459,7.459,0,0,1,.072,1.116v.852H26.148A10.4,10.4,0,0,1,24.72-8.2v1.464A13.7,13.7,0,0,1,26.148-6.8Zm2.076,4.176v-1.9a9.7,9.7,0,0,0-.108-1.332A12.989,12.989,0,0,0,32.8-2.676a7.509,7.509,0,0,1-1.056.048Zm-1.344,0h-1.02a7.6,7.6,0,0,1-1.068-.048,11.9,11.9,0,0,0,2.184-3.18,11.751,11.751,0,0,0-.1,1.344ZM41.988-5.244A7.691,7.691,0,0,1,40.8-5.3v1.272a8.08,8.08,0,0,1,1.188-.06h4.44a8.62,8.62,0,0,1,1.176.06V-5.316a5.29,5.29,0,0,1-1.092.072V-6.756a6.36,6.36,0,0,1,.048-.936,6.649,6.649,0,0,1-.948.048H44.184c.048-.168.12-.48.24-.936h1.728a9.164,9.164,0,0,1,1.272.06V-9.792a11.809,11.809,0,0,1-1.332.06h-3.66c-.54,0-.936-.024-1.344-.06V-8.52a9.079,9.079,0,0,1,1.26-.06h.78c-.1.456-.1.456-.216.936h-.6a7.405,7.405,0,0,1-.96-.048v1.224a7.371,7.371,0,0,1,.936-.048h.3c-.156.528-.216.7-.432,1.272Zm1.464,0a13.16,13.16,0,0,0,.42-1.272h1.4v1.272Zm-6.516-3.42c.3-.024.564-.036,1-.036h1.62a7.956,7.956,0,0,1,1,.036V-9.828a5.562,5.562,0,0,1-1,.06h-1.62a5.562,5.562,0,0,1-1-.06Zm-.4,1.74a7.172,7.172,0,0,1,.96-.048h2.328a6.113,6.113,0,0,1,.96.048V-8.16a7.25,7.25,0,0,1-1.02.048H37.5a5.286,5.286,0,0,1-.96-.06Zm.42,1.668a6.747,6.747,0,0,1,.792-.036h2.016a4.837,4.837,0,0,1,.768.036V-6.372a5.9,5.9,0,0,1-.768.036H37.752a6.607,6.607,0,0,1-.792-.036Zm0,1.668a6.66,6.66,0,0,1,.78-.036h2a5,5,0,0,1,.792.036v-1.1a5.9,5.9,0,0,1-.768.036H37.752a6.608,6.608,0,0,1-.792-.036ZM36.912-.2A8.914,8.914,0,0,1,36.84.96h1.236V.4h1.392V.8h1.176A6.789,6.789,0,0,1,40.6-.132v-2A7.166,7.166,0,0,1,40.632-3a4.26,4.26,0,0,1-.8.036H37.776a7.42,7.42,0,0,1-.924-.048,5.727,5.727,0,0,1,.06.948Zm1.176-1.74h1.38V-.672h-1.38ZM41.436-.228A11.686,11.686,0,0,1,41.388.984H42.72V.444h2.9V.972h1.368a10.043,10.043,0,0,1-.06-1.188V-2.484a7.059,7.059,0,0,1,.048-.96,8.665,8.665,0,0,1-.972.036H42.42c-.48,0-.72-.012-1.02-.036.024.264.036.492.036.852ZM42.72-2.292h2.9v1.56h-2.9Zm5.7.492a12.916,12.916,0,0,1,2.6,2.736L52.14-.108a14.026,14.026,0,0,0-2.7-2.64Zm21.612-.792a12.66,12.66,0,0,1,1.44.072V-3.852a6.7,6.7,0,0,1-1.26.072h-.144V-5.352a6.1,6.1,0,0,1,.048-1.08c-.324.024-.54.036-1.164.036h-2.4a4.792,4.792,0,0,1,.048-1H65.208a5.481,5.481,0,0,1,.06,1H63.024c-.636,0-.852-.012-1.164-.036a7.887,7.887,0,0,1,.048,1.092v1.56h-.1a6.7,6.7,0,0,1-1.248-.072V-2.52a12.071,12.071,0,0,1,1.416-.072h2.8c-.66,1.38-1.92,2.028-4.308,2.232A4.546,4.546,0,0,1,61.092.972,8.9,8.9,0,0,0,63.864.108a4.468,4.468,0,0,0,1.968-1.944A6,6,0,0,0,67.62-.2a9.454,9.454,0,0,0,3.3,1.224,4.4,4.4,0,0,1,.612-1.356c-2.34-.312-3.924-1.08-4.7-2.256ZM63.168-3.78V-5.268h2.076a12.24,12.24,0,0,1-.132,1.488Zm3.228,0a10.752,10.752,0,0,0,.12-1.488h2.292V-3.78ZM63.36-9.072H61.992A10.826,10.826,0,0,1,60.6-9.144v1.26a10.369,10.369,0,0,1,1.392-.06H63.36v.42a3.74,3.74,0,0,1-.048.648h1.344a3.44,3.44,0,0,1-.036-.66v-.408h2.568v.432a4.8,4.8,0,0,1-.036.636h1.332a3.7,3.7,0,0,1-.036-.648v-.42h1.488a11.562,11.562,0,0,1,1.428.06v-1.26a11.724,11.724,0,0,1-1.428.072H68.448v-.2a4.378,4.378,0,0,1,.048-.708H67.128a4.7,4.7,0,0,1,.06.708v.2H64.62v-.2a4.477,4.477,0,0,1,.048-.708H63.3a4.569,4.569,0,0,1,.06.708ZM77.988-5.244A7.691,7.691,0,0,1,76.8-5.3v1.272a8.079,8.079,0,0,1,1.188-.06h4.44a8.62,8.62,0,0,1,1.176.06V-5.316a5.29,5.29,0,0,1-1.092.072V-6.756a6.36,6.36,0,0,1,.048-.936,6.649,6.649,0,0,1-.948.048H80.184c.048-.168.12-.48.24-.936h1.728a9.164,9.164,0,0,1,1.272.06V-9.792a11.809,11.809,0,0,1-1.332.06h-3.66c-.54,0-.936-.024-1.344-.06V-8.52a9.08,9.08,0,0,1,1.26-.06h.78c-.1.456-.1.456-.216.936h-.6a7.405,7.405,0,0,1-.96-.048v1.224a7.371,7.371,0,0,1,.936-.048h.3c-.156.528-.216.7-.432,1.272Zm1.464,0a13.159,13.159,0,0,0,.42-1.272h1.4v1.272Zm-6.516-3.42c.3-.024.564-.036,1-.036h1.62a7.956,7.956,0,0,1,1,.036V-9.828a5.562,5.562,0,0,1-1,.06h-1.62a5.562,5.562,0,0,1-1-.06Zm-.4,1.74a7.172,7.172,0,0,1,.96-.048h2.328a6.113,6.113,0,0,1,.96.048V-8.16a7.25,7.25,0,0,1-1.02.048H73.5a5.286,5.286,0,0,1-.96-.06Zm.42,1.668a6.747,6.747,0,0,1,.792-.036h2.016a4.837,4.837,0,0,1,.768.036V-6.372a5.9,5.9,0,0,1-.768.036H73.752a6.607,6.607,0,0,1-.792-.036Zm0,1.668a6.66,6.66,0,0,1,.78-.036h2a5,5,0,0,1,.792.036v-1.1a5.9,5.9,0,0,1-.768.036H73.752a6.608,6.608,0,0,1-.792-.036ZM72.912-.2A8.913,8.913,0,0,1,72.84.96h1.236V.4h1.392V.8h1.176A6.79,6.79,0,0,1,76.6-.132v-2A7.165,7.165,0,0,1,76.632-3a4.26,4.26,0,0,1-.8.036H73.776a7.42,7.42,0,0,1-.924-.048,5.727,5.727,0,0,1,.06.948Zm1.176-1.74h1.38V-.672h-1.38ZM77.436-.228A11.687,11.687,0,0,1,77.388.984H78.72V.444h2.9V.972h1.368a10.042,10.042,0,0,1-.06-1.188V-2.484a7.058,7.058,0,0,1,.048-.96,8.665,8.665,0,0,1-.972.036H78.42c-.48,0-.72-.012-1.02-.036.024.264.036.492.036.852ZM78.72-2.292h2.9v1.56h-2.9Zm5.7.492a12.916,12.916,0,0,1,2.6,2.736L88.14-.108a14.026,14.026,0,0,0-2.7-2.64Zm16.824-6.264H98.088a9.246,9.246,0,0,1-1.08-.048,9.4,9.4,0,0,1,.048,1.044V-3.4A8.994,8.994,0,0,1,97-2.2h1.416v-.72h2.832V-.48a10.061,10.061,0,0,1-.084,1.488H102.7a9.44,9.44,0,0,1-.084-1.488V-2.916h2.976v.72H107a8.259,8.259,0,0,1-.06-1.2v-3.66a8.809,8.809,0,0,1,.048-1.056,8.582,8.582,0,0,1-1.092.048h-3.288v-.78a8.8,8.8,0,0,1,.072-1.26h-1.512a7.779,7.779,0,0,1,.072,1.308Zm0,1.272v2.6H98.412v-2.6Zm1.368,2.6v-2.6h2.976v2.6Zm10.656-2.424v1.248h-1.032a5.6,5.6,0,0,1-1.032-.06v1.188a5.846,5.846,0,0,1,1.032-.06h1.032v1.524h-1.44a5.964,5.964,0,0,1-1.14-.072V-1.6a7.1,7.1,0,0,1,1.14-.06h4.344a7.7,7.7,0,0,1,1.128.06V-2.844a6.155,6.155,0,0,1-1.176.072l.648-.36a5.876,5.876,0,0,0-.756-1.164,4.869,4.869,0,0,1,.768.06V-5.424a5.522,5.522,0,0,1-1.032.06h-1.236V-6.612h1.524a6.953,6.953,0,0,1,1.116.06V-7.764a6.685,6.685,0,0,1-1.116.06h-4.08a6.539,6.539,0,0,1-1.092-.06v1.212a6.716,6.716,0,0,1,1.092-.06ZM114.516-4.3h1.176l-.636.324a5.27,5.27,0,0,1,.756,1.2h-1.3ZM108.864-.588a11.362,11.362,0,0,1-.072,1.56h1.368V.288h7.668V.972H119.2a9.682,9.682,0,0,1-.072-1.548v-7.7a12.366,12.366,0,0,1,.072-1.44,12.327,12.327,0,0,1-1.416.06h-7.572a11.233,11.233,0,0,1-1.416-.06,14.348,14.348,0,0,1,.072,1.452Zm1.3-7.908h7.668v7.62H110.16Zm15.828,3.252A7.691,7.691,0,0,1,124.8-5.3v1.272a8.079,8.079,0,0,1,1.188-.06h4.44a8.62,8.62,0,0,1,1.176.06V-5.316a5.29,5.29,0,0,1-1.092.072V-6.756a6.36,6.36,0,0,1,.048-.936,6.649,6.649,0,0,1-.948.048h-1.428c.048-.168.12-.48.24-.936h1.728a9.163,9.163,0,0,1,1.272.06V-9.792a11.809,11.809,0,0,1-1.332.06h-3.66c-.54,0-.936-.024-1.344-.06V-8.52a9.08,9.08,0,0,1,1.26-.06h.78c-.1.456-.1.456-.216.936h-.6a7.405,7.405,0,0,1-.96-.048v1.224a7.371,7.371,0,0,1,.936-.048h.3c-.156.528-.216.7-.432,1.272Zm1.464,0a13.159,13.159,0,0,0,.42-1.272h1.4v1.272Zm-6.516-3.42c.3-.024.564-.036,1-.036h1.62a7.956,7.956,0,0,1,1,.036V-9.828a5.562,5.562,0,0,1-1,.06h-1.62a5.562,5.562,0,0,1-1-.06Zm-.4,1.74a7.172,7.172,0,0,1,.96-.048h2.328a6.113,6.113,0,0,1,.96.048V-8.16a7.25,7.25,0,0,1-1.02.048H121.5a5.286,5.286,0,0,1-.96-.06Zm.42,1.668a6.747,6.747,0,0,1,.792-.036h2.016a4.837,4.837,0,0,1,.768.036V-6.372a5.9,5.9,0,0,1-.768.036h-2.016a6.607,6.607,0,0,1-.792-.036Zm0,1.668a6.66,6.66,0,0,1,.78-.036h2a5,5,0,0,1,.792.036v-1.1a5.9,5.9,0,0,1-.768.036h-2.016a6.608,6.608,0,0,1-.792-.036ZM120.912-.2A8.913,8.913,0,0,1,120.84.96h1.236V.4h1.392V.8h1.176a6.79,6.79,0,0,1-.048-.936v-2A7.165,7.165,0,0,1,124.632-3a4.26,4.26,0,0,1-.8.036h-2.052a7.42,7.42,0,0,1-.924-.048,5.727,5.727,0,0,1,.06.948Zm1.176-1.74h1.38V-.672h-1.38Zm3.348,1.716a11.687,11.687,0,0,1-.048,1.212h1.332V.444h2.9V.972h1.368a10.04,10.04,0,0,1-.06-1.188V-2.484a7.059,7.059,0,0,1,.048-.96,8.665,8.665,0,0,1-.972.036H126.42c-.48,0-.72-.012-1.02-.036.024.264.036.492.036.852Zm1.284-2.064h2.9v1.56h-2.9Zm5.7.492a12.916,12.916,0,0,1,2.6,2.736L136.14-.108a14.026,14.026,0,0,0-2.7-2.64ZM149.268-.288a9.318,9.318,0,0,1,1.248-.06h1.848v.2a6.393,6.393,0,0,1-.072,1.164h1.356a6.017,6.017,0,0,1-.072-1.164v-.2h.672a10.131,10.131,0,0,1,1.284.06V-1.464a8.57,8.57,0,0,1-1.26.072h-.7V-2.1h.408a9.546,9.546,0,0,1,1.152.048V-3.12a7.364,7.364,0,0,1-1.152.06h-.408v-.588h.336c.54,0,.66,0,1.044.024a4.65,4.65,0,0,1-.048-.78v-.864a4.942,4.942,0,0,1,.048-.816,9.956,9.956,0,0,1-1.044.036h-3.048a10.046,10.046,0,0,1-1.02-.036,4.4,4.4,0,0,1,.036.792V-4.4a4.4,4.4,0,0,1-.036.792,7.2,7.2,0,0,1,1.02-.036h1.5v.588h-1.4A8.163,8.163,0,0,1,149.8-3.1c.024.3.036.516.036,1.092v.612a2.4,2.4,0,0,1-.432-.024v-.5a7.382,7.382,0,0,1-1.14.06h-.552v-.816h.348c.7,0,.768,0,1.128.024-.024-.3-.036-.564-.036-1.2v-2.04a10.2,10.2,0,0,1,.036-1.2c-.348.024-.456.024-1.152.024h-.324v-.72h.6a6.755,6.755,0,0,1,1.068.06V-8.976a6.065,6.065,0,0,1-1.116.072h-.552v-.132a5.01,5.01,0,0,1,.072-1.02h-1.32a6.2,6.2,0,0,1,.072,1.008V-8.9h-.708a7.814,7.814,0,0,1-1.164-.072v1.248a7.9,7.9,0,0,1,1.176-.06h.7v.72h-.384c-.6,0-.864-.012-1.14-.036.036.408.048.744.048,1.3V-3.9c0,.54-.012.864-.048,1.26.348-.024.6-.036,1.14-.036h.384v.816h-.72a8.185,8.185,0,0,1-1.212-.072v1.26a8.168,8.168,0,0,1,1.188-.072h.744v.48a7.638,7.638,0,0,1-.072,1.284h1.32a7.307,7.307,0,0,1-.072-1.284v-.48h.564a8.135,8.135,0,0,1,1,.048Zm1.716-1.1V-2.1h1.38v.708Zm.084-3.828h2.64v.708h-2.64Zm-4.908-.888h1.9v.732h-1.9Zm0,1.692h1.9v.756h-1.9Zm4.26-3.1a5.335,5.335,0,0,1-.984-.06v1.08a9.294,9.294,0,0,1,1.152-.048h3.732a8.383,8.383,0,0,1,1.188.06v-1.1a3.978,3.978,0,0,1-.948.072V-8.16a10.108,10.108,0,0,1,.048-1.14,10.969,10.969,0,0,1-1.212.048h-.972c.144-.54.216-.816.216-.816l-1.284-.084a4.935,4.935,0,0,1-.168.9h-.336a6.083,6.083,0,0,1-1.056-.072v1.056c.312-.024.5-.036.876-.036h.264c-.084.264-.1.3-.288.792Zm1.452,0c.1-.24.144-.372.276-.792H153.4v.792Zm9.4.9v1.248h-1.032a5.6,5.6,0,0,1-1.032-.06v1.188a5.846,5.846,0,0,1,1.032-.06h1.032v1.524h-1.44a5.964,5.964,0,0,1-1.14-.072V-1.6a7.1,7.1,0,0,1,1.14-.06h4.344a7.7,7.7,0,0,1,1.128.06V-2.844a6.155,6.155,0,0,1-1.176.072l.648-.36a5.876,5.876,0,0,0-.756-1.164,4.869,4.869,0,0,1,.768.06V-5.424a5.522,5.522,0,0,1-1.032.06h-1.236V-6.612h1.524a6.954,6.954,0,0,1,1.116.06V-7.764a6.685,6.685,0,0,1-1.116.06h-4.08a6.539,6.539,0,0,1-1.092-.06v1.212a6.716,6.716,0,0,1,1.092-.06ZM162.516-4.3h1.176l-.636.324a5.27,5.27,0,0,1,.756,1.2h-1.3ZM156.864-.588a11.364,11.364,0,0,1-.072,1.56h1.368V.288h7.668V.972H167.2a9.682,9.682,0,0,1-.072-1.548v-7.7a12.364,12.364,0,0,1,.072-1.44,12.327,12.327,0,0,1-1.416.06h-7.572a11.232,11.232,0,0,1-1.416-.06,14.35,14.35,0,0,1,.072,1.452Zm1.3-7.908h7.668v7.62H158.16Zm15.828,3.252A7.691,7.691,0,0,1,172.8-5.3v1.272a8.08,8.08,0,0,1,1.188-.06h4.44a8.62,8.62,0,0,1,1.176.06V-5.316a5.29,5.29,0,0,1-1.092.072V-6.756a6.36,6.36,0,0,1,.048-.936,6.649,6.649,0,0,1-.948.048h-1.428c.048-.168.12-.48.24-.936h1.728a9.163,9.163,0,0,1,1.272.06V-9.792a11.809,11.809,0,0,1-1.332.06h-3.66c-.54,0-.936-.024-1.344-.06V-8.52a9.08,9.08,0,0,1,1.26-.06h.78c-.1.456-.1.456-.216.936h-.6a7.4,7.4,0,0,1-.96-.048v1.224a7.371,7.371,0,0,1,.936-.048h.3c-.156.528-.216.7-.432,1.272Zm1.464,0a13.157,13.157,0,0,0,.42-1.272h1.4v1.272Zm-6.516-3.42c.3-.024.564-.036,1-.036h1.62a7.956,7.956,0,0,1,1,.036V-9.828a5.562,5.562,0,0,1-1,.06h-1.62a5.562,5.562,0,0,1-1-.06Zm-.4,1.74a7.172,7.172,0,0,1,.96-.048h2.328a6.113,6.113,0,0,1,.96.048V-8.16a7.25,7.25,0,0,1-1.02.048H169.5a5.286,5.286,0,0,1-.96-.06Zm.42,1.668a6.747,6.747,0,0,1,.792-.036h2.016a4.837,4.837,0,0,1,.768.036V-6.372a5.9,5.9,0,0,1-.768.036h-2.016a6.607,6.607,0,0,1-.792-.036Zm0,1.668a6.66,6.66,0,0,1,.78-.036h2a5,5,0,0,1,.792.036v-1.1a5.9,5.9,0,0,1-.768.036h-2.016a6.607,6.607,0,0,1-.792-.036ZM168.912-.2A8.913,8.913,0,0,1,168.84.96h1.236V.4h1.392V.8h1.176a6.79,6.79,0,0,1-.048-.936v-2A7.165,7.165,0,0,1,172.632-3a4.26,4.26,0,0,1-.8.036h-2.052a7.42,7.42,0,0,1-.924-.048,5.728,5.728,0,0,1,.06.948Zm1.176-1.74h1.38V-.672h-1.38Zm3.348,1.716a11.687,11.687,0,0,1-.048,1.212h1.332V.444h2.9V.972h1.368a10.04,10.04,0,0,1-.06-1.188V-2.484a7.059,7.059,0,0,1,.048-.96,8.665,8.665,0,0,1-.972.036H174.42c-.48,0-.72-.012-1.02-.036.024.264.036.492.036.852Zm1.284-2.064h2.9v1.56h-2.9Zm5.7.492a12.916,12.916,0,0,1,2.6,2.736L184.14-.108a14.026,14.026,0,0,0-2.7-2.64ZM196.62.54a12.313,12.313,0,0,1-.048-1.332V-3.96a6.856,6.856,0,0,0-.048-.816,3.877,3.877,0,0,0,.408.2A29.142,29.142,0,0,1,201.18-2.28l.84-1.416a34.9,34.9,0,0,0-5.448-2.532V-8.46a9.946,9.946,0,0,1,.048-1.26h-1.644a7.866,7.866,0,0,1,.072,1.224V-.8A8.751,8.751,0,0,1,194.976.54Zm2.46-9.216a8.1,8.1,0,0,1,1.26,1.788l.84-.444A7.776,7.776,0,0,0,199.92-9.1Zm3.528.564A6.94,6.94,0,0,0,201.36-9.8l-.8.42a8.841,8.841,0,0,1,1.224,1.74Zm10.56-1.632A9.6,9.6,0,0,1,210.936-7.5a17.525,17.525,0,0,1-6.3,3.12,4.514,4.514,0,0,1,.8,1.368,19.443,19.443,0,0,0,4.284-1.944V-.732a6.748,6.748,0,0,1-.072,1.3h1.68a9.077,9.077,0,0,1-.06-1.332V-5.892A21.221,21.221,0,0,0,214.1-8.364a4.941,4.941,0,0,1,.444-.42ZM217.02-8.22a14.518,14.518,0,0,1,1.368,3.576l1.476-.456a15.3,15.3,0,0,0-1.452-3.528Zm3.156-.6a15.14,15.14,0,0,1,1.344,3.48l1.464-.468a15.375,15.375,0,0,0-1.44-3.4Zm5.124-.12a9.458,9.458,0,0,1-.6,2.82,7.89,7.89,0,0,1-2.1,3.3,9.352,9.352,0,0,1-3.372,2.088A4.6,4.6,0,0,1,220.284.612a10.741,10.741,0,0,0,6.36-8.016,5.354,5.354,0,0,1,.3-1.164Zm8.688,3.7A7.691,7.691,0,0,1,232.8-5.3v1.272a8.08,8.08,0,0,1,1.188-.06h4.44a8.62,8.62,0,0,1,1.176.06V-5.316a5.29,5.29,0,0,1-1.092.072V-6.756a6.36,6.36,0,0,1,.048-.936,6.649,6.649,0,0,1-.948.048h-1.428c.048-.168.12-.48.24-.936h1.728a9.163,9.163,0,0,1,1.272.06V-9.792a11.809,11.809,0,0,1-1.332.06h-3.66c-.54,0-.936-.024-1.344-.06V-8.52a9.08,9.08,0,0,1,1.26-.06h.78c-.1.456-.1.456-.216.936h-.6a7.4,7.4,0,0,1-.96-.048v1.224a7.371,7.371,0,0,1,.936-.048h.3c-.156.528-.216.7-.432,1.272Zm1.464,0a13.157,13.157,0,0,0,.42-1.272h1.4v1.272Zm-6.516-3.42c.3-.024.564-.036,1-.036h1.62a7.956,7.956,0,0,1,1,.036V-9.828a5.562,5.562,0,0,1-1,.06h-1.62a5.562,5.562,0,0,1-1-.06Zm-.4,1.74a7.172,7.172,0,0,1,.96-.048h2.328a6.113,6.113,0,0,1,.96.048V-8.16a7.25,7.25,0,0,1-1.02.048H229.5a5.286,5.286,0,0,1-.96-.06Zm.42,1.668a6.747,6.747,0,0,1,.792-.036h2.016a4.837,4.837,0,0,1,.768.036V-6.372a5.9,5.9,0,0,1-.768.036h-2.016a6.607,6.607,0,0,1-.792-.036Zm0,1.668a6.66,6.66,0,0,1,.78-.036h2a5,5,0,0,1,.792.036v-1.1a5.9,5.9,0,0,1-.768.036h-2.016a6.607,6.607,0,0,1-.792-.036ZM228.912-.2A8.913,8.913,0,0,1,228.84.96h1.236V.4h1.392V.8h1.176a6.79,6.79,0,0,1-.048-.936v-2A7.165,7.165,0,0,1,232.632-3a4.26,4.26,0,0,1-.8.036h-2.052a7.42,7.42,0,0,1-.924-.048,5.728,5.728,0,0,1,.06.948Zm1.176-1.74h1.38V-.672h-1.38Zm3.348,1.716a11.687,11.687,0,0,1-.048,1.212h1.332V.444h2.9V.972h1.368a10.04,10.04,0,0,1-.06-1.188V-2.484a7.059,7.059,0,0,1,.048-.96,8.665,8.665,0,0,1-.972.036H234.42c-.48,0-.72-.012-1.02-.036.024.264.036.492.036.852Zm1.284-2.064h2.9v1.56h-2.9Zm5.7.492a12.916,12.916,0,0,1,2.6,2.736L244.14-.108a14.026,14.026,0,0,0-2.7-2.64ZM263.2-.852c-1.452-1.4-1.452-1.4-1.752-1.668a18.6,18.6,0,0,0-2.22-1.74A15.893,15.893,0,0,0,261.1-7.572a2.308,2.308,0,0,1,.384-.648l-.792-.816a2.6,2.6,0,0,1-1.068.132l-4.224.06h-.288a5.251,5.251,0,0,1-1.056-.072L254.1-7.38a9.457,9.457,0,0,1,1.308-.1c3.78-.06,3.78-.06,3.972-.072l-.132.312a11.567,11.567,0,0,1-4.032,4.884,9.907,9.907,0,0,1-2.4,1.32A4.814,4.814,0,0,1,253.788.3a14.26,14.26,0,0,0,4.572-3.468A23.068,23.068,0,0,1,262.044.4Zm1.68-1.512c.168-.216.216-.276.408-.5.648-.768,1.656-2.016,2.148-2.676s.54-.7.732-.7.2,0,.972.84a63.27,63.27,0,0,0,5.076,5.076l.756-1.644a8.6,8.6,0,0,1-1.14-.912,39.814,39.814,0,0,1-3.888-3.828c-.912-1.032-1.188-1.224-1.788-1.224a1.526,1.526,0,0,0-.816.228,4.062,4.062,0,0,0-.9.948,15.713,15.713,0,0,1-2.58,2.916Zm7.86-6.552a1.388,1.388,0,0,0-1.38,1.38,1.391,1.391,0,0,0,1.38,1.392,1.393,1.393,0,0,0,1.392-1.392A1.391,1.391,0,0,0,272.736-8.916Zm0,.6a.781.781,0,0,1,.792.78.791.791,0,0,1-.792.792.789.789,0,0,1-.78-.792A.778.778,0,0,1,272.736-8.316Zm11.832-1.428A9.6,9.6,0,0,1,282.336-7.5a17.525,17.525,0,0,1-6.3,3.12,4.514,4.514,0,0,1,.8,1.368,19.442,19.442,0,0,0,4.284-1.944V-.732a6.75,6.75,0,0,1-.072,1.3h1.68a9.077,9.077,0,0,1-.06-1.332V-5.892A21.221,21.221,0,0,0,285.5-8.364a4.941,4.941,0,0,1,.444-.42Zm4.3,2.04a12.6,12.6,0,0,1,3.06,2.436l1.032-1.308a17,17,0,0,0-3.1-2.316Zm.42,7.92a4.248,4.248,0,0,1,.792-.2,12.962,12.962,0,0,0,4.572-1.8,10.532,10.532,0,0,0,3.8-4.7,5.174,5.174,0,0,1-1.272-1.176,10.019,10.019,0,0,1-1.224,2.4,8.017,8.017,0,0,1-3.564,2.94,11.434,11.434,0,0,1-3.552.888Zm16.1-5.46A7.691,7.691,0,0,1,304.2-5.3v1.272a8.08,8.08,0,0,1,1.188-.06h4.44a8.62,8.62,0,0,1,1.176.06V-5.316a5.29,5.29,0,0,1-1.092.072V-6.756a6.358,6.358,0,0,1,.048-.936,6.649,6.649,0,0,1-.948.048h-1.428c.048-.168.12-.48.24-.936h1.728a9.164,9.164,0,0,1,1.272.06V-9.792a11.809,11.809,0,0,1-1.332.06h-3.66c-.54,0-.936-.024-1.344-.06V-8.52a9.079,9.079,0,0,1,1.26-.06h.78c-.1.456-.1.456-.216.936h-.6a7.405,7.405,0,0,1-.96-.048v1.224a7.371,7.371,0,0,1,.936-.048h.3c-.156.528-.216.7-.432,1.272Zm1.464,0a13.157,13.157,0,0,0,.42-1.272h1.4v1.272Zm-6.516-3.42c.3-.024.564-.036,1-.036h1.62a7.956,7.956,0,0,1,1,.036V-9.828a5.562,5.562,0,0,1-1,.06h-1.62a5.562,5.562,0,0,1-1-.06Zm-.4,1.74a7.172,7.172,0,0,1,.96-.048h2.328a6.113,6.113,0,0,1,.96.048V-8.16a7.25,7.25,0,0,1-1.02.048H300.9a5.286,5.286,0,0,1-.96-.06Zm.42,1.668a6.748,6.748,0,0,1,.792-.036h2.016a4.837,4.837,0,0,1,.768.036V-6.372a5.9,5.9,0,0,1-.768.036h-2.016a6.608,6.608,0,0,1-.792-.036Zm0,1.668a6.66,6.66,0,0,1,.78-.036h2a5,5,0,0,1,.792.036v-1.1a5.9,5.9,0,0,1-.768.036h-2.016a6.608,6.608,0,0,1-.792-.036ZM300.312-.2A8.913,8.913,0,0,1,300.24.96h1.236V.4h1.392V.8h1.176A6.787,6.787,0,0,1,304-.132v-2A7.17,7.17,0,0,1,304.032-3a4.26,4.26,0,0,1-.8.036h-2.052a7.421,7.421,0,0,1-.924-.048,5.727,5.727,0,0,1,.06.948Zm1.176-1.74h1.38V-.672h-1.38Zm3.348,1.716a11.682,11.682,0,0,1-.048,1.212h1.332V.444h2.9V.972h1.368a10.04,10.04,0,0,1-.06-1.188V-2.484a7.057,7.057,0,0,1,.048-.96,8.665,8.665,0,0,1-.972.036H305.82c-.48,0-.72-.012-1.02-.036.024.264.036.492.036.852Zm1.284-2.064h2.9v1.56h-2.9Zm5.7.492a12.916,12.916,0,0,1,2.6,2.736L315.54-.108a14.026,14.026,0,0,0-2.7-2.64Zm20.748-7.944A9.6,9.6,0,0,1,330.336-7.5a17.525,17.525,0,0,1-6.3,3.12,4.514,4.514,0,0,1,.8,1.368,19.442,19.442,0,0,0,4.284-1.944V-.732a6.75,6.75,0,0,1-.072,1.3h1.68a9.077,9.077,0,0,1-.06-1.332V-5.892A21.221,21.221,0,0,0,333.5-8.364a4.941,4.941,0,0,1,.444-.42Zm4.3,2.04a12.6,12.6,0,0,1,3.06,2.436l1.032-1.308a17,17,0,0,0-3.1-2.316Zm.42,7.92a4.248,4.248,0,0,1,.792-.2,12.962,12.962,0,0,0,4.572-1.8,10.532,10.532,0,0,0,3.8-4.7,5.174,5.174,0,0,1-1.272-1.176,10.019,10.019,0,0,1-1.224,2.4,8.017,8.017,0,0,1-3.564,2.94,11.434,11.434,0,0,1-3.552.888ZM352.02.54a12.316,12.316,0,0,1-.048-1.332V-3.96a6.853,6.853,0,0,0-.048-.816,3.879,3.879,0,0,0,.408.2A29.143,29.143,0,0,1,356.58-2.28l.84-1.416a34.9,34.9,0,0,0-5.448-2.532V-8.46a9.948,9.948,0,0,1,.048-1.26h-1.644a7.868,7.868,0,0,1,.072,1.224V-.8A8.756,8.756,0,0,1,350.376.54Zm2.46-9.216a8.1,8.1,0,0,1,1.26,1.788l.84-.444A7.777,7.777,0,0,0,355.32-9.1Zm3.528.564A6.94,6.94,0,0,0,356.76-9.8l-.8.42a8.841,8.841,0,0,1,1.224,1.74Zm8.076,8.88a5.379,5.379,0,0,1-.06-1.068V-2.94c0-.108-.012-.444-.024-.588.12.06.144.06.3.132a21.406,21.406,0,0,1,3.66,1.92l.792-1.26a19.582,19.582,0,0,0-4.188-1.884,15.478,15.478,0,0,0,2.448-2.244,2.815,2.815,0,0,1,.528-.516l-.7-.816a2.532,2.532,0,0,1-.816.108H366v-1a3.877,3.877,0,0,1,.06-.84h-1.608a4.953,4.953,0,0,1,.06.864v.984h-2a6.164,6.164,0,0,1-1.284-.108v1.452a8.852,8.852,0,0,1,1.272-.06c4.32-.024,4.32-.024,4.392-.036h.252a12.869,12.869,0,0,1-3.72,2.544,14.939,14.939,0,0,1-3.336,1.116,4.96,4.96,0,0,1,.708,1.308A19,19,0,0,0,364.176-3.2a2.06,2.06,0,0,0,.36-.228V-.3a7.235,7.235,0,0,1-.072,1.068Zm7.608-9.084a14.089,14.089,0,0,1,3.2,1.656l.768-1.32a19.242,19.242,0,0,0-3.192-1.548ZM372.744-5.4A14.036,14.036,0,0,1,376-3.636l.744-1.356a16.964,16.964,0,0,0-3.192-1.632Zm.684,5.784a7.752,7.752,0,0,1,.84-.192,10.907,10.907,0,0,0,6.516-3.408,10.475,10.475,0,0,0,1.8-3.036,6.2,6.2,0,0,1-1.248-1.068,8.879,8.879,0,0,1-1.392,2.652,7.335,7.335,0,0,1-3.468,2.64,10.983,10.983,0,0,1-3.468.78Zm20.4-9.564a3.3,3.3,0,0,1-1.164.108H386.4a9.567,9.567,0,0,1-1.656-.1v1.5a11.535,11.535,0,0,1,1.632-.072h6.3a4.976,4.976,0,0,1-1.14,1.524,5.564,5.564,0,0,1-1.752,1.1,4.055,4.055,0,0,1,1.08,1.092,7.505,7.505,0,0,0,1.44-1,7.616,7.616,0,0,0,1.848-2.412,3.335,3.335,0,0,1,.48-.84Zm-5.7,2.424a3.038,3.038,0,0,1,.06.72c0,2.268-.384,3.3-1.608,4.272a5.533,5.533,0,0,1-2.1,1.02,4.236,4.236,0,0,1,.948,1.368,6.934,6.934,0,0,0,3.1-2.16,6.5,6.5,0,0,0,1.188-4.248,5.512,5.512,0,0,1,.048-.972Zm13.26,1.512A7.691,7.691,0,0,1,400.2-5.3v1.272a8.08,8.08,0,0,1,1.188-.06h4.44a8.62,8.62,0,0,1,1.176.06V-5.316a5.29,5.29,0,0,1-1.092.072V-6.756a6.358,6.358,0,0,1,.048-.936,6.649,6.649,0,0,1-.948.048h-1.428c.048-.168.12-.48.24-.936h1.728a9.164,9.164,0,0,1,1.272.06V-9.792a11.809,11.809,0,0,1-1.332.06h-3.66c-.54,0-.936-.024-1.344-.06V-8.52a9.079,9.079,0,0,1,1.26-.06h.78c-.1.456-.1.456-.216.936h-.6a7.405,7.405,0,0,1-.96-.048v1.224a7.371,7.371,0,0,1,.936-.048h.3c-.156.528-.216.7-.432,1.272Zm1.464,0a13.157,13.157,0,0,0,.42-1.272h1.4v1.272Zm-6.516-3.42c.3-.024.564-.036,1-.036h1.62a7.956,7.956,0,0,1,1,.036V-9.828a5.562,5.562,0,0,1-1,.06h-1.62a5.562,5.562,0,0,1-1-.06Zm-.4,1.74a7.172,7.172,0,0,1,.96-.048h2.328a6.113,6.113,0,0,1,.96.048V-8.16a7.25,7.25,0,0,1-1.02.048H396.9a5.286,5.286,0,0,1-.96-.06Zm.42,1.668a6.748,6.748,0,0,1,.792-.036h2.016a4.837,4.837,0,0,1,.768.036V-6.372a5.9,5.9,0,0,1-.768.036h-2.016a6.608,6.608,0,0,1-.792-.036Zm0,1.668a6.66,6.66,0,0,1,.78-.036h2a5,5,0,0,1,.792.036v-1.1a5.9,5.9,0,0,1-.768.036h-2.016a6.608,6.608,0,0,1-.792-.036ZM396.312-.2A8.913,8.913,0,0,1,396.24.96h1.236V.4h1.392V.8h1.176A6.787,6.787,0,0,1,400-.132v-2A7.17,7.17,0,0,1,400.032-3a4.26,4.26,0,0,1-.8.036h-2.052a7.421,7.421,0,0,1-.924-.048,5.727,5.727,0,0,1,.06.948Zm1.176-1.74h1.38V-.672h-1.38Zm3.348,1.716a11.682,11.682,0,0,1-.048,1.212h1.332V.444h2.9V.972h1.368a10.04,10.04,0,0,1-.06-1.188V-2.484a7.057,7.057,0,0,1,.048-.96,8.665,8.665,0,0,1-.972.036H401.82c-.48,0-.72-.012-1.02-.036.024.264.036.492.036.852Zm1.284-2.064h2.9v1.56h-2.9Zm7.32,3.36A10.024,10.024,0,0,0,410.748-1.3a9.012,9.012,0,0,0,.624-3.312,8.492,8.492,0,0,0-.612-3.2,9.578,9.578,0,0,0-1.308-2.364H407.76A9.8,9.8,0,0,1,409.3-7.788a7.79,7.79,0,0,1,.612,3.18,8.078,8.078,0,0,1-.636,3.288,9.222,9.222,0,0,1-1.524,2.388Z" transform="translate(1152 6187.136)" fill="#0052aa"/>
    <g id="グループ_289" data-name="グループ 289" transform="translate(-951.235 4610.39)">
      <g id="グループ_283" data-name="グループ 283" transform="translate(1979.235 1359.249)">
        <rect id="長方形_243" data-name="長方形 243" width="1.051" height="194.497" transform="translate(0 0)" fill="#001c91"/>
      </g>
      <g id="グループ_288" data-name="グループ 288" transform="translate(1980.157 1380.643)">
        <g id="グループ_284" data-name="グループ 284" transform="translate(0 126.967)">
          <rect id="長方形_244" data-name="長方形 244" width="13.632" height="35.009" fill="#81cff8"/>
        </g>
        <g id="グループ_285" data-name="グループ 285" transform="translate(0 80.967)">
          <rect id="長方形_245" data-name="長方形 245" width="163.579" height="35.009" fill="#43beff"/>
        </g>
        <g id="グループ_286" data-name="グループ 286" transform="translate(0 35.966)">
          <rect id="長方形_246" data-name="長方形 246" width="293.078" height="35.009" fill="#0052aa"/>
        </g>
        <g id="グループ_287" data-name="グループ 287" transform="translate(0 -10.033)">
          <rect id="長方形_247" data-name="長方形 247" width="211.289" height="35.009" fill="#0095d8"/>
        </g>
      </g>
    </g>
    <path id="パス_1216" data-name="パス 1216" d="M3.816,0V-1.908H.162V-3.636l2.646-9.18H4.752L2-3.636H3.816V-7.29H5.652v3.654h.882v1.728H5.652V0ZM13.95-14.778v.342a27.7,27.7,0,0,1-.468,3.636c-.99.144-3.168.36-3.834.36l.216,2.124a32.27,32.27,0,0,1,3.222-.576A30.536,30.536,0,0,1,11.34-3.8,19.665,19.665,0,0,1,9.468-.414L11.556.738c.09-.18.09-.2.144-.306l.27-.54a38.6,38.6,0,0,0,2.16-5.058,38.077,38.077,0,0,0,1.1-3.906c.414-.036.684-.054,1.044-.054,1.422,0,1.836.486,1.836,2.142a15.994,15.994,0,0,1-.468,4.1c-.27.882-.558,1.224-1.08,1.224a7.447,7.447,0,0,1-2.628-.7,6.761,6.761,0,0,1,.18,1.53c0,.18-.018.432-.036.792a8.733,8.733,0,0,0,2.772.522,2.28,2.28,0,0,0,2-.81c.864-.99,1.386-3.456,1.386-6.552,0-1.638-.234-2.5-.846-3.186a3.487,3.487,0,0,0-2.664-.954c-.342,0-.594.018-1.116.054.054-.234.054-.27.126-.666.252-1.35.252-1.35.306-1.728.054-.288.072-.378.108-.612a4.187,4.187,0,0,1,.144-.558Zm6.444,3.456a11.65,11.65,0,0,1,2.07,3.078A16.18,16.18,0,0,1,23.9-4.158L25.956-5.2a17.472,17.472,0,0,0-3.708-7.02Zm15.8,1.4v1.872H34.65a8.4,8.4,0,0,1-1.548-.09v1.782a8.769,8.769,0,0,1,1.548-.09H36.2v2.286h-2.16a8.946,8.946,0,0,1-1.71-.108v1.872a10.655,10.655,0,0,1,1.71-.09h6.516a11.542,11.542,0,0,1,1.692.09V-4.266a9.233,9.233,0,0,1-1.764.108l.972-.54A8.814,8.814,0,0,0,40.32-6.444a7.3,7.3,0,0,1,1.152.09V-8.136a8.283,8.283,0,0,1-1.548.09H38.07V-9.918h2.286a10.43,10.43,0,0,1,1.674.09v-1.818a10.027,10.027,0,0,1-1.674.09h-6.12a9.808,9.808,0,0,1-1.638-.09v1.818a10.074,10.074,0,0,1,1.638-.09ZM38.07-6.444h1.764l-.954.486a7.905,7.905,0,0,1,1.134,1.8H38.07ZM29.592-.882a17.043,17.043,0,0,1-.108,2.34h2.052V.432h11.5V1.458H45.09a14.523,14.523,0,0,1-.108-2.322V-12.42a18.547,18.547,0,0,1,.108-2.16,18.491,18.491,0,0,1-2.124.09H31.608a16.849,16.849,0,0,1-2.124-.09,21.52,21.52,0,0,1,.108,2.178Zm1.944-11.862h11.5v11.43h-11.5ZM57.078-7.866a11.536,11.536,0,0,1-1.782-.09v1.908a12.119,12.119,0,0,1,1.782-.09h6.66a12.93,12.93,0,0,1,1.764.09V-7.974a7.935,7.935,0,0,1-1.638.108v-2.268a9.539,9.539,0,0,1,.072-1.4,9.974,9.974,0,0,1-1.422.072H60.372c.072-.252.18-.72.36-1.4h2.592a13.746,13.746,0,0,1,1.908.09v-1.908a17.714,17.714,0,0,1-2,.09h-5.49c-.81,0-1.4-.036-2.016-.09v1.908a13.619,13.619,0,0,1,1.89-.09h1.17c-.144.684-.144.684-.324,1.4h-.9a11.108,11.108,0,0,1-1.44-.072V-9.7a11.056,11.056,0,0,1,1.4-.072h.45c-.234.792-.324,1.044-.648,1.908Zm2.2,0a19.74,19.74,0,0,0,.63-1.908H62.01v1.908ZM49.5-13c.45-.036.846-.054,1.494-.054h2.43A11.934,11.934,0,0,1,54.918-13v-1.746a8.343,8.343,0,0,1-1.494.09h-2.43a8.343,8.343,0,0,1-1.494-.09Zm-.594,2.61a10.758,10.758,0,0,1,1.44-.072h3.492a9.17,9.17,0,0,1,1.44.072V-12.24a10.875,10.875,0,0,1-1.53.072h-3.4a7.929,7.929,0,0,1-1.44-.09Zm.63,2.5a10.121,10.121,0,0,1,1.188-.054h3.024a7.256,7.256,0,0,1,1.152.054V-9.558a8.854,8.854,0,0,1-1.152.054H50.724a9.911,9.911,0,0,1-1.188-.054Zm0,2.5a9.99,9.99,0,0,1,1.17-.054h3.006a7.506,7.506,0,0,1,1.188.054V-7.038a8.854,8.854,0,0,1-1.152.054H50.724a9.911,9.911,0,0,1-1.188-.054ZM49.464-.306a13.37,13.37,0,0,1-.108,1.746H51.21V.594H53.3v.612h1.764A10.183,10.183,0,0,1,54.99-.2V-3.2a10.749,10.749,0,0,1,.054-1.3,6.39,6.39,0,0,1-1.206.054H50.76a11.13,11.13,0,0,1-1.386-.072,8.591,8.591,0,0,1,.09,1.422Zm1.764-2.61H53.3v1.908h-2.07ZM56.25-.342a17.528,17.528,0,0,1-.072,1.818h2V.666h4.356v.792h2.052a15.064,15.064,0,0,1-.09-1.782v-3.4a10.588,10.588,0,0,1,.072-1.44,13,13,0,0,1-1.458.054H57.726c-.72,0-1.08-.018-1.53-.054.036.4.054.738.054,1.278Zm1.926-3.1h4.356V-1.1H58.176ZM81.414-14.724a7.351,7.351,0,0,1,.072,1.188,15.979,15.979,0,0,1-1.944,8.478c-1.314,2.124-3.258,3.582-6.426,4.806A8.252,8.252,0,0,1,74.268,1.53a14.339,14.339,0,0,0,6.03-4.3,14.03,14.03,0,0,0,3.87,4.158,7.918,7.918,0,0,1,1.26-2.052A10.391,10.391,0,0,1,81.5-4.536a12.883,12.883,0,0,0,1.134-2.628,24.163,24.163,0,0,0,.864-5.022c.162-2.3.162-2.3.18-2.5ZM70.524-3.1a11.767,11.767,0,0,1-1.8.576l.576,2.2c.45-.216.576-.27,1.26-.576a48.174,48.174,0,0,0,7.074-3.582L77.2-6.372a37.618,37.618,0,0,1-4.626,2.448l-.09-8.586v-.4a15.9,15.9,0,0,1,.09-1.764H70.29a16.468,16.468,0,0,1,.144,2.142Zm3.528-9.432a20.8,20.8,0,0,1,3.438,4.59l1.854-1.278a26.937,26.937,0,0,0-3.564-4.41ZM97.29-7.812h4.23a18.794,18.794,0,0,1,2.088.108V-9.846a18.334,18.334,0,0,1-2.088.108H97.29v-3.078a14.524,14.524,0,0,1,.126-2.07H95.058a15.408,15.408,0,0,1,.126,2.07V-1.188h-4.1A23.752,23.752,0,0,1,88.6-1.3V.864A22.5,22.5,0,0,1,91.08.738h11.43A19.641,19.641,0,0,1,104.9.864V-1.3a23.117,23.117,0,0,1-2.43.108H97.29Zm17.892-4.194v2.628h2.628v-2.628Zm0,7.7v2.628h2.628V-4.3ZM128.52,0V-3.456l6.624-12.492a4.561,4.561,0,0,0,.576-1.638q.072-.7.072-1.746,0-.468-.018-.99a2.4,2.4,0,0,0-.2-.918,1.7,1.7,0,0,0-.54-.666,1.719,1.719,0,0,0-1.044-.27,1.815,1.815,0,0,0-1.314.468,1.813,1.813,0,0,0-.486,1.368v2.088H128.52v-2.016a5.425,5.425,0,0,1,.432-2.16,5.574,5.574,0,0,1,1.188-1.764,5.391,5.391,0,0,1,1.728-1.206,5.238,5.238,0,0,1,2.16-.45,5.383,5.383,0,0,1,2.466.522A4.919,4.919,0,0,1,138.2-23.9a6.2,6.2,0,0,1,.954,2.052,9.5,9.5,0,0,1,.306,2.448q0,.936-.036,1.566a9.475,9.475,0,0,1-.144,1.206,5.315,5.315,0,0,1-.36,1.152q-.252.576-.684,1.4l-5.4,10.4h6.624V0Zm18.648.054.918.72,11.34-14.508-.936-.72Zm10.368.54a3.313,3.313,0,0,0,2.43-.918,4.249,4.249,0,0,0,1.044-3.114,4.231,4.231,0,0,0-1.044-3.1,3.357,3.357,0,0,0-2.43-.918,3.431,3.431,0,0,0-2.448.918,4.26,4.26,0,0,0-1.044,3.1,4.249,4.249,0,0,0,1.044,3.114A3.327,3.327,0,0,0,157.536.594Zm0-6.516a1.3,1.3,0,0,1,1.152.558,3.178,3.178,0,0,1,.486,1.8c0,1.746-.558,2.646-1.638,2.646-1.062,0-1.638-.9-1.638-2.556a3.13,3.13,0,0,1,.486-1.872A1.253,1.253,0,0,1,157.536-5.922Zm-8.478-.306a3.313,3.313,0,0,0,2.43-.918,4.249,4.249,0,0,0,1.044-3.114,4.231,4.231,0,0,0-1.044-3.1,3.357,3.357,0,0,0-2.43-.918c-2.2,0-3.492,1.494-3.492,4.014a4.277,4.277,0,0,0,1.044,3.114A3.327,3.327,0,0,0,149.058-6.228Zm0-6.516a1.385,1.385,0,0,1,1.314.81,3.952,3.952,0,0,1,.324,1.674c0,1.62-.594,2.52-1.638,2.52-1.062,0-1.638-.9-1.638-2.556C147.42-11.862,148.014-12.744,149.058-12.744Z" transform="translate(1059 6148)" fill="#0052aa"/>
    <path id="パス_1213" data-name="パス 1213" d="M3.41,0V-13.288l-2.244,1.65v-2.376l2.244-1.65H5.654V0ZM17.05-18.062v.418a33.855,33.855,0,0,1-.572,4.444c-1.21.176-3.872.44-4.686.44l.264,2.6a39.442,39.442,0,0,1,3.938-.7A37.321,37.321,0,0,1,13.86-4.642,24.035,24.035,0,0,1,11.572-.506L14.124.9c.11-.22.11-.242.176-.374l.33-.66a47.184,47.184,0,0,0,2.64-6.182,46.539,46.539,0,0,0,1.342-4.774c.506-.044.836-.066,1.276-.066,1.738,0,2.244.594,2.244,2.618A19.548,19.548,0,0,1,21.56-3.52c-.33,1.078-.682,1.5-1.32,1.5a9.1,9.1,0,0,1-3.212-.858,8.263,8.263,0,0,1,.22,1.87c0,.22-.022.528-.044.968a10.674,10.674,0,0,0,3.388.638A2.786,2.786,0,0,0,23.034-.4C24.09-1.606,24.728-4.62,24.728-8.4c0-2-.286-3.058-1.034-3.894a4.262,4.262,0,0,0-3.256-1.166c-.418,0-.726.022-1.364.066.066-.286.066-.33.154-.814.308-1.65.308-1.65.374-2.112.066-.352.088-.462.132-.748a5.118,5.118,0,0,1,.176-.682Zm7.876,4.224a14.239,14.239,0,0,1,2.53,3.762,19.775,19.775,0,0,1,1.76,4.994l2.508-1.276a21.355,21.355,0,0,0-4.532-8.58Zm19.316,1.716v2.288H42.35a10.27,10.27,0,0,1-1.892-.11v2.178a10.717,10.717,0,0,1,1.892-.11h1.892v2.794H41.6a10.934,10.934,0,0,1-2.09-.132v2.288a13.022,13.022,0,0,1,2.09-.11h7.964a14.107,14.107,0,0,1,2.068.11V-5.214a11.285,11.285,0,0,1-2.156.132l1.188-.66A10.772,10.772,0,0,0,49.28-7.876a8.927,8.927,0,0,1,1.408.11V-9.944a10.124,10.124,0,0,1-1.892.11H46.53v-2.288h2.794a12.748,12.748,0,0,1,2.046.11v-2.222a12.256,12.256,0,0,1-2.046.11h-7.48a11.988,11.988,0,0,1-2-.11v2.222a12.313,12.313,0,0,1,2-.11ZM46.53-7.876h2.156l-1.166.594a9.662,9.662,0,0,1,1.386,2.2H46.53Zm-10.362,6.8a20.83,20.83,0,0,1-.132,2.86h2.508V.528H52.6V1.782H55.11a17.75,17.75,0,0,1-.132-2.838V-15.18a22.669,22.669,0,0,1,.132-2.64,22.6,22.6,0,0,1-2.6.11H38.632a20.594,20.594,0,0,1-2.6-.11,26.3,26.3,0,0,1,.132,2.662Zm2.376-14.5H52.6v13.97H38.544ZM69.762-9.614a14.1,14.1,0,0,1-2.178-.11v2.332a14.812,14.812,0,0,1,2.178-.11H77.9a15.8,15.8,0,0,1,2.156.11V-9.746a9.7,9.7,0,0,1-2,.132v-2.772a11.66,11.66,0,0,1,.088-1.716,12.19,12.19,0,0,1-1.738.088H73.788c.088-.308.22-.88.44-1.716H77.4a16.8,16.8,0,0,1,2.332.11v-2.332a21.65,21.65,0,0,1-2.442.11h-6.71c-.99,0-1.716-.044-2.464-.11v2.332a16.646,16.646,0,0,1,2.31-.11h1.43c-.176.836-.176.836-.4,1.716h-1.1A13.576,13.576,0,0,1,68.6-14.1v2.244a13.513,13.513,0,0,1,1.716-.088h.55c-.286.968-.4,1.276-.792,2.332Zm2.684,0a24.126,24.126,0,0,0,.77-2.332H75.79v2.332ZM60.5-15.884c.55-.044,1.034-.066,1.826-.066H65.3a14.586,14.586,0,0,1,1.826.066v-2.134a10.2,10.2,0,0,1-1.826.11h-2.97a10.2,10.2,0,0,1-1.826-.11Zm-.726,3.19a13.149,13.149,0,0,1,1.76-.088H65.8a11.208,11.208,0,0,1,1.76.088V-14.96a13.292,13.292,0,0,1-1.87.088H61.534a9.691,9.691,0,0,1-1.76-.11Zm.77,3.058A12.37,12.37,0,0,1,62-9.7h3.7a8.868,8.868,0,0,1,1.408.066v-2.046a10.822,10.822,0,0,1-1.408.066H62a12.114,12.114,0,0,1-1.452-.066Zm0,3.058a12.21,12.21,0,0,1,1.43-.066h3.674a9.174,9.174,0,0,1,1.452.066V-8.6a10.822,10.822,0,0,1-1.408.066H62A12.114,12.114,0,0,1,60.544-8.6Zm-.088,6.2a16.343,16.343,0,0,1-.132,2.134H62.59V.726h2.552v.748H67.3A12.446,12.446,0,0,1,67.21-.242V-3.916A13.137,13.137,0,0,1,67.276-5.5a7.81,7.81,0,0,1-1.474.066H62.04a13.6,13.6,0,0,1-1.694-.088,10.5,10.5,0,0,1,.11,1.738Zm2.156-3.19h2.53v2.332h-2.53ZM68.75-.418A21.425,21.425,0,0,1,68.662,1.8H71.1V.814h5.324v.968h2.508A18.411,18.411,0,0,1,78.826-.4V-4.554a12.94,12.94,0,0,1,.088-1.76,15.885,15.885,0,0,1-1.782.066H70.554c-.88,0-1.32-.022-1.87-.066.044.484.066.9.066,1.562ZM71.1-4.2h5.324v2.86H71.1ZM92.378-14.674v3.212H95.59v-3.212Zm0,9.416v3.212H95.59V-5.258Zm21.471-12.458a5.543,5.543,0,0,0,2.73-.473q.753-.473.753-2.193v-3.956a2.138,2.138,0,0,0-.581-1.548,2.079,2.079,0,0,0-1.569-.6,1.852,1.852,0,0,0-1.656.731,2.539,2.539,0,0,0-.494,1.419v2.494h-4.386v-2.537a6.373,6.373,0,0,1,.516-2.537,6.169,6.169,0,0,1,1.419-2.064,7.051,7.051,0,0,1,2.107-1.376,6.48,6.48,0,0,1,2.58-.516,5.73,5.73,0,0,1,2.989.71,6.882,6.882,0,0,1,1.785,1.441,9.4,9.4,0,0,1,.752,1.032,5.022,5.022,0,0,1,.537,1.247,17.146,17.146,0,0,1,.387,4.214q0,1.591-.065,2.58a5.4,5.4,0,0,1-.323,1.634,3.268,3.268,0,0,1-.838,1.161,9.944,9.944,0,0,1-1.484,1.032,8.33,8.33,0,0,1,1.57,1.2,3.541,3.541,0,0,1,.8,1.29,6.664,6.664,0,0,1,.3,1.827q.043,1.054.043,2.688,0,1.5-.065,2.494a12.833,12.833,0,0,1-.193,1.634,5.1,5.1,0,0,1-.344,1.161,7.078,7.078,0,0,1-.559.989,6.948,6.948,0,0,1-2.086,2,6.2,6.2,0,0,1-3.332.8,7.73,7.73,0,0,1-2.193-.344A5.979,5.979,0,0,1,110.839-1.2a6.07,6.07,0,0,1-1.569-2.021,6.777,6.777,0,0,1-.624-3.053V-8.772h4.386v2.279a2.492,2.492,0,0,0,.58,1.7,1.975,1.975,0,0,0,1.57.666,1.975,1.975,0,0,0,1.569-.666,2.621,2.621,0,0,0,.581-1.785v-4.386a3.018,3.018,0,0,0-.688-2.365,1.913,1.913,0,0,0-1.053-.43,14.156,14.156,0,0,0-1.742-.086ZM134.145,0V-25.972l-4.386,3.225v-4.644l4.386-3.225h4.386V0ZM151.3.066l1.122.88,13.86-17.732-1.144-.88Zm12.672.66A4.049,4.049,0,0,0,166.938-.4,5.193,5.193,0,0,0,168.214-4.2a5.172,5.172,0,0,0-1.276-3.784,4.1,4.1,0,0,0-2.97-1.122,4.194,4.194,0,0,0-2.992,1.122A5.207,5.207,0,0,0,159.7-4.2,5.193,5.193,0,0,0,160.976-.4,4.067,4.067,0,0,0,163.968.726Zm0-7.964a1.585,1.585,0,0,1,1.408.682,3.884,3.884,0,0,1,.594,2.2c0,2.134-.682,3.234-2,3.234-1.3,0-2-1.1-2-3.124a3.826,3.826,0,0,1,.594-2.288A1.532,1.532,0,0,1,163.968-7.238Zm-10.362-.374a4.049,4.049,0,0,0,2.97-1.122,5.193,5.193,0,0,0,1.276-3.806,5.172,5.172,0,0,0-1.276-3.784,4.1,4.1,0,0,0-2.97-1.122c-2.684,0-4.268,1.826-4.268,4.906a5.228,5.228,0,0,0,1.276,3.806A4.067,4.067,0,0,0,153.606-7.612Zm0-7.964a1.693,1.693,0,0,1,1.606.99,4.83,4.83,0,0,1,.4,2.046c0,1.98-.726,3.08-2,3.08-1.3,0-2-1.1-2-3.124C151.6-14.5,152.33-15.576,153.606-15.576Z" transform="translate(1258 6011)" fill="#0052aa"/>
    <path id="パス_1215" data-name="パス 1215" d="M3.255-8.652a2.707,2.707,0,0,0,1.333-.231q.367-.231.367-1.071v-1.932a1.044,1.044,0,0,0-.283-.756,1.015,1.015,0,0,0-.766-.294.9.9,0,0,0-.809.357,1.24,1.24,0,0,0-.241.693v1.218H.714v-1.239a3.113,3.113,0,0,1,.252-1.239,3.013,3.013,0,0,1,.693-1.008,3.444,3.444,0,0,1,1.029-.672,3.165,3.165,0,0,1,1.26-.252,2.8,2.8,0,0,1,1.459.347,3.361,3.361,0,0,1,.872.7,4.588,4.588,0,0,1,.368.5,2.453,2.453,0,0,1,.262.609A8.374,8.374,0,0,1,7.1-10.857q0,.777-.032,1.26a2.636,2.636,0,0,1-.157.8,1.6,1.6,0,0,1-.409.567,4.857,4.857,0,0,1-.725.5,4.068,4.068,0,0,1,.766.588,1.729,1.729,0,0,1,.389.63,3.254,3.254,0,0,1,.147.892Q7.1-5.1,7.1-4.3q0,.735-.032,1.218a6.267,6.267,0,0,1-.095.8,2.489,2.489,0,0,1-.168.567,3.456,3.456,0,0,1-.273.483,3.393,3.393,0,0,1-1.018.976A3.028,3.028,0,0,1,3.885.126,3.775,3.775,0,0,1,2.814-.042,2.92,2.92,0,0,1,1.785-.588a2.965,2.965,0,0,1-.766-.987,3.31,3.31,0,0,1-.3-1.491V-4.284H2.856v1.113a1.217,1.217,0,0,0,.283.829.965.965,0,0,0,.767.326.965.965,0,0,0,.766-.326,1.28,1.28,0,0,0,.283-.871V-5.355A1.474,1.474,0,0,0,4.62-6.51a.934.934,0,0,0-.514-.21,6.913,6.913,0,0,0-.851-.042Zm13.02-8.589v.4a32.317,32.317,0,0,1-.546,4.242c-1.155.168-3.7.42-4.473.42L11.508-9.7a37.649,37.649,0,0,1,3.759-.672A35.625,35.625,0,0,1,13.23-4.431,22.943,22.943,0,0,1,11.046-.483L13.482.861c.105-.21.105-.231.168-.357l.315-.63a45.039,45.039,0,0,0,2.52-5.9,44.423,44.423,0,0,0,1.281-4.557c.483-.042.8-.063,1.218-.063,1.659,0,2.142.567,2.142,2.5A18.659,18.659,0,0,1,20.58-3.36c-.315,1.029-.651,1.428-1.26,1.428a8.688,8.688,0,0,1-3.066-.819,7.888,7.888,0,0,1,.21,1.785c0,.21-.021.5-.042.924a10.188,10.188,0,0,0,3.234.609,2.659,2.659,0,0,0,2.331-.945C22.995-1.533,23.6-4.41,23.6-8.022c0-1.911-.273-2.919-.987-3.717a4.068,4.068,0,0,0-3.108-1.113c-.4,0-.693.021-1.3.063.063-.273.063-.315.147-.777.294-1.575.294-1.575.357-2.016.063-.336.084-.441.126-.714a4.885,4.885,0,0,1,.168-.651Zm7.518,4.032a13.591,13.591,0,0,1,2.415,3.591,18.876,18.876,0,0,1,1.68,4.767l2.394-1.218a20.384,20.384,0,0,0-4.326-8.19Zm18.438,1.638v2.184H40.425a9.8,9.8,0,0,1-1.806-.1v2.079a10.23,10.23,0,0,1,1.806-.105h1.806v2.667h-2.52a10.437,10.437,0,0,1-2-.126v2.184a12.431,12.431,0,0,1,2-.105h7.6a13.466,13.466,0,0,1,1.974.105V-4.977a10.772,10.772,0,0,1-2.058.126l1.134-.63A10.283,10.283,0,0,0,47.04-7.518a8.521,8.521,0,0,1,1.344.105V-9.492a9.664,9.664,0,0,1-1.806.1H44.415v-2.184h2.667a12.169,12.169,0,0,1,1.953.105v-2.121a11.7,11.7,0,0,1-1.953.1h-7.14a11.443,11.443,0,0,1-1.911-.1v2.121a11.754,11.754,0,0,1,1.911-.105Zm2.184,4.053h2.058l-1.113.567a9.223,9.223,0,0,1,1.323,2.1H44.415ZM34.524-1.029A19.883,19.883,0,0,1,34.4,1.7h2.394V.5H50.211V1.7h2.394a16.943,16.943,0,0,1-.126-2.709V-14.49a21.639,21.639,0,0,1,.126-2.52,21.573,21.573,0,0,1-2.478.1H36.876a19.657,19.657,0,0,1-2.478-.1,25.107,25.107,0,0,1,.126,2.541Zm2.268-13.839H50.211V-1.533H36.792Zm29.8,5.691a13.459,13.459,0,0,1-2.079-.1v2.226a14.139,14.139,0,0,1,2.079-.105h7.77a15.085,15.085,0,0,1,2.058.105V-9.3a9.258,9.258,0,0,1-1.911.126v-2.646a11.13,11.13,0,0,1,.084-1.638,11.636,11.636,0,0,1-1.659.084h-2.5c.084-.294.21-.84.42-1.638h3.024a16.037,16.037,0,0,1,2.226.1v-2.226a20.666,20.666,0,0,1-2.331.1H67.368c-.945,0-1.638-.042-2.352-.1v2.226a15.889,15.889,0,0,1,2.205-.1h1.365c-.168.8-.168.8-.378,1.638h-1.05a12.959,12.959,0,0,1-1.68-.084v2.142a12.9,12.9,0,0,1,1.638-.084h.525c-.273.924-.378,1.218-.756,2.226Zm2.562,0a23.029,23.029,0,0,0,.735-2.226h2.457v2.226Zm-11.4-5.985c.525-.042.987-.063,1.743-.063h2.835a13.923,13.923,0,0,1,1.743.063V-17.2a9.733,9.733,0,0,1-1.743.1H59.493a9.733,9.733,0,0,1-1.743-.1Zm-.693,3.045a12.551,12.551,0,0,1,1.68-.084h4.074a10.7,10.7,0,0,1,1.68.084V-14.28a12.688,12.688,0,0,1-1.785.084H58.737a9.25,9.25,0,0,1-1.68-.1ZM57.792-9.2a11.807,11.807,0,0,1,1.386-.063h3.528A8.465,8.465,0,0,1,64.05-9.2v-1.953a10.33,10.33,0,0,1-1.344.063H59.178a11.563,11.563,0,0,1-1.386-.063Zm0,2.919a11.655,11.655,0,0,1,1.365-.063h3.507a8.757,8.757,0,0,1,1.386.063V-8.211a10.33,10.33,0,0,1-1.344.063H59.178a11.563,11.563,0,0,1-1.386-.063ZM57.708-.357a15.6,15.6,0,0,1-.126,2.037h2.163V.693h2.436v.714h2.058a11.882,11.882,0,0,1-.084-1.638V-3.738a12.54,12.54,0,0,1,.063-1.512,7.455,7.455,0,0,1-1.407.063H59.22A12.985,12.985,0,0,1,57.6-5.271a10.022,10.022,0,0,1,.1,1.659ZM59.766-3.4h2.415v2.226H59.766Zm5.859,3a20.451,20.451,0,0,1-.084,2.121h2.331V.777h5.082V1.7h2.394a17.576,17.576,0,0,1-.105-2.079V-4.347a12.353,12.353,0,0,1,.084-1.68,15.163,15.163,0,0,1-1.7.063H67.347c-.84,0-1.26-.021-1.785-.063.042.462.063.861.063,1.491Zm2.247-3.612h5.082v2.73H67.872Zm20.307-10v3.066h3.066v-3.066Zm0,8.988v3.066h3.066V-5.019ZM103.706,0V-3.936l7.544-14.227a5.194,5.194,0,0,0,.656-1.865q.082-.8.082-1.989,0-.533-.021-1.127a2.736,2.736,0,0,0-.226-1.045,1.941,1.941,0,0,0-.615-.759,1.958,1.958,0,0,0-1.189-.308,2.067,2.067,0,0,0-1.5.533,2.065,2.065,0,0,0-.553,1.558v2.378h-4.182v-2.3a6.178,6.178,0,0,1,.492-2.46,6.348,6.348,0,0,1,1.353-2.009,6.14,6.14,0,0,1,1.968-1.374,5.965,5.965,0,0,1,2.46-.512,6.131,6.131,0,0,1,2.809.595,5.6,5.6,0,0,1,1.948,1.619,7.06,7.06,0,0,1,1.086,2.337,10.821,10.821,0,0,1,.349,2.788q0,1.066-.041,1.783a10.792,10.792,0,0,1-.164,1.373,6.053,6.053,0,0,1-.41,1.312q-.287.656-.779,1.6l-6.15,11.849h7.544V0Zm26.65,0V-4.346h-8.323V-8.282l6.027-20.91h4.428l-6.273,20.91h4.141V-16.6h4.182v8.323h2.009v3.936h-2.009V0Zm14.02.063,1.071.84,13.23-16.926-1.092-.84Zm12.1.63a3.865,3.865,0,0,0,2.835-1.071,4.957,4.957,0,0,0,1.218-3.633,4.937,4.937,0,0,0-1.218-3.612,3.917,3.917,0,0,0-2.835-1.071,4,4,0,0,0-2.856,1.071A4.97,4.97,0,0,0,152.4-4.011a4.957,4.957,0,0,0,1.218,3.633A3.882,3.882,0,0,0,156.472.693Zm0-7.6a1.513,1.513,0,0,1,1.344.651,3.708,3.708,0,0,1,.567,2.1c0,2.037-.651,3.087-1.911,3.087-1.239,0-1.911-1.05-1.911-2.982a3.652,3.652,0,0,1,.567-2.184A1.462,1.462,0,0,1,156.472-6.909Zm-9.891-.357a3.865,3.865,0,0,0,2.835-1.071,4.957,4.957,0,0,0,1.218-3.633,4.937,4.937,0,0,0-1.218-3.612,3.917,3.917,0,0,0-2.835-1.071c-2.562,0-4.074,1.743-4.074,4.683a4.99,4.99,0,0,0,1.218,3.633A3.882,3.882,0,0,0,146.581-7.266Zm0-7.6a1.616,1.616,0,0,1,1.533.945,4.611,4.611,0,0,1,.378,1.953c0,1.89-.693,2.94-1.911,2.94-1.239,0-1.911-1.05-1.911-2.982C144.67-13.839,145.363-14.868,146.581-14.868Z" transform="translate(1208 6104)" fill="#0052aa"/>
    <path id="パス_1214" data-name="パス 1214" d="M.85,0V-2.4l4.6-8.675a3.167,3.167,0,0,0,.4-1.137q.05-.488.05-1.213,0-.325-.013-.687a1.668,1.668,0,0,0-.137-.637,1.184,1.184,0,0,0-.375-.463A1.194,1.194,0,0,0,4.65-15.4a1.26,1.26,0,0,0-.913.325,1.259,1.259,0,0,0-.337.95v1.45H.85v-1.4a3.767,3.767,0,0,1,.3-1.5A3.87,3.87,0,0,1,1.975-16.8a3.744,3.744,0,0,1,1.2-.838,3.637,3.637,0,0,1,1.5-.312,3.738,3.738,0,0,1,1.712.363,3.416,3.416,0,0,1,1.188.988,4.305,4.305,0,0,1,.662,1.425,6.6,6.6,0,0,1,.212,1.7q0,.65-.025,1.087a6.58,6.58,0,0,1-.1.837,3.691,3.691,0,0,1-.25.8q-.175.4-.475.975L3.85-2.55h4.6V0ZM19.375-20.525v.475a38.472,38.472,0,0,1-.65,5.05c-1.375.2-4.4.5-5.325.5l.3,2.95a44.82,44.82,0,0,1,4.475-.8A42.411,42.411,0,0,1,15.75-5.275a27.313,27.313,0,0,1-2.6,4.7l2.9,1.6c.125-.25.125-.275.2-.425l.375-.75a53.618,53.618,0,0,0,3-7.025A52.885,52.885,0,0,0,21.15-12.6c.575-.05.95-.075,1.45-.075,1.975,0,2.55.675,2.55,2.975A22.213,22.213,0,0,1,24.5-4c-.375,1.225-.775,1.7-1.5,1.7a10.342,10.342,0,0,1-3.65-.975A9.39,9.39,0,0,1,19.6-1.15c0,.25-.025.6-.05,1.1A12.129,12.129,0,0,0,23.4.675,3.166,3.166,0,0,0,26.175-.45c1.2-1.375,1.925-4.8,1.925-9.1,0-2.275-.325-3.475-1.175-4.425a4.843,4.843,0,0,0-3.7-1.325c-.475,0-.825.025-1.55.075.075-.325.075-.375.175-.925.35-1.875.35-1.875.425-2.4.075-.4.1-.525.15-.85a5.816,5.816,0,0,1,.2-.775Zm8.95,4.8A16.18,16.18,0,0,1,31.2-11.45a22.472,22.472,0,0,1,2,5.675l2.85-1.45a24.267,24.267,0,0,0-5.15-9.75Zm21.95,1.95v2.6h-2.15a11.67,11.67,0,0,1-2.15-.125v2.475a12.179,12.179,0,0,1,2.15-.125h2.15v3.175h-3a12.425,12.425,0,0,1-2.375-.15v2.6a14.8,14.8,0,0,1,2.375-.125h9.05a16.03,16.03,0,0,1,2.35.125v-2.6a12.823,12.823,0,0,1-2.45.15l1.35-.75A12.241,12.241,0,0,0,56-8.95a10.144,10.144,0,0,1,1.6.125V-11.3a11.5,11.5,0,0,1-2.15.125H52.875v-2.6H56.05a14.486,14.486,0,0,1,2.325.125v-2.525a13.927,13.927,0,0,1-2.325.125h-8.5a13.623,13.623,0,0,1-2.275-.125v2.525a13.992,13.992,0,0,1,2.275-.125Zm2.6,4.825h2.45L54-8.275a10.98,10.98,0,0,1,1.575,2.5h-2.7ZM41.1-1.225a23.671,23.671,0,0,1-.15,3.25H43.8V.6H59.775V2.025h2.85a20.17,20.17,0,0,1-.15-3.225V-17.25a25.761,25.761,0,0,1,.15-3,25.682,25.682,0,0,1-2.95.125H43.9a23.4,23.4,0,0,1-2.95-.125,29.89,29.89,0,0,1,.15,3.025ZM43.8-17.7H59.775V-1.825H43.8Zm35.475,6.775A16.023,16.023,0,0,1,76.8-11.05V-8.4a16.832,16.832,0,0,1,2.475-.125h9.25a17.958,17.958,0,0,1,2.45.125v-2.675a11.021,11.021,0,0,1-2.275.15v-3.15a13.249,13.249,0,0,1,.1-1.95,13.853,13.853,0,0,1-1.975.1H83.85c.1-.35.25-1,.5-1.95h3.6a19.091,19.091,0,0,1,2.65.125V-20.4a24.6,24.6,0,0,1-2.775.125H80.2c-1.125,0-1.95-.05-2.8-.125v2.65a18.916,18.916,0,0,1,2.625-.125H81.65c-.2.95-.2.95-.45,1.95H79.95a15.427,15.427,0,0,1-2-.1v2.55a15.355,15.355,0,0,1,1.95-.1h.625c-.325,1.1-.45,1.45-.9,2.65Zm3.05,0a27.418,27.418,0,0,0,.875-2.65h2.925v2.65ZM68.75-18.05c.625-.05,1.175-.075,2.075-.075H74.2a16.575,16.575,0,0,1,2.075.075v-2.425a11.587,11.587,0,0,1-2.075.125H70.825a11.587,11.587,0,0,1-2.075-.125Zm-.825,3.625a14.942,14.942,0,0,1,2-.1h4.85a12.736,12.736,0,0,1,2,.1V-17a15.1,15.1,0,0,1-2.125.1H69.925a11.012,11.012,0,0,1-2-.125ZM68.8-10.95a14.056,14.056,0,0,1,1.65-.075h4.2a10.077,10.077,0,0,1,1.6.075v-2.325a12.3,12.3,0,0,1-1.6.075h-4.2a13.765,13.765,0,0,1-1.65-.075Zm0,3.475a13.875,13.875,0,0,1,1.625-.075H74.6a10.425,10.425,0,0,1,1.65.075v-2.3a12.3,12.3,0,0,1-1.6.075h-4.2a13.766,13.766,0,0,1-1.65-.075Zm-.1,7.05A18.571,18.571,0,0,1,68.55,2h2.575V.825h2.9v.85h2.45a14.143,14.143,0,0,1-.1-1.95V-4.45a14.928,14.928,0,0,1,.075-1.8,8.875,8.875,0,0,1-1.675.075H70.5a15.458,15.458,0,0,1-1.925-.1A11.932,11.932,0,0,1,68.7-4.3ZM71.15-4.05h2.875V-1.4H71.15ZM78.125-.475a24.344,24.344,0,0,1-.1,2.525H80.8V.925h6.05v1.1H89.7A20.921,20.921,0,0,1,89.575-.45V-5.175a14.706,14.706,0,0,1,.1-2A18.052,18.052,0,0,1,87.65-7.1H80.175c-1,0-1.5-.025-2.125-.075.05.55.075,1.025.075,1.775Zm2.675-4.3h6.05v3.25H80.8Zm24.175-11.9v3.65h3.65v-3.65Zm0,10.7v3.65h3.65v-3.65ZM137.064,0V-7.632H122.448v-6.912l10.584-36.72h7.776l-11.016,36.72h7.272V-29.16h7.344v14.616h3.528v6.912h-3.528V0Zm29.88-29.664a9.281,9.281,0,0,0,4.572-.792q1.26-.792,1.26-3.672v-6.624a3.58,3.58,0,0,0-.972-2.592,3.481,3.481,0,0,0-2.628-1.008,3.1,3.1,0,0,0-2.772,1.224,4.252,4.252,0,0,0-.828,2.376v4.176h-7.344v-4.248a10.672,10.672,0,0,1,.864-4.248,10.329,10.329,0,0,1,2.376-3.456,11.807,11.807,0,0,1,3.528-2.3,10.85,10.85,0,0,1,4.32-.864,9.594,9.594,0,0,1,5,1.188,11.522,11.522,0,0,1,2.988,2.412,15.732,15.732,0,0,1,1.26,1.728,8.41,8.41,0,0,1,.9,2.088,28.71,28.71,0,0,1,.648,7.056q0,2.664-.108,4.32a9.037,9.037,0,0,1-.54,2.736,5.472,5.472,0,0,1-1.4,1.944,16.651,16.651,0,0,1-2.484,1.728,13.948,13.948,0,0,1,2.628,2.016,5.928,5.928,0,0,1,1.332,2.16,11.157,11.157,0,0,1,.5,3.06q.072,1.764.072,4.5,0,2.52-.108,4.176a21.49,21.49,0,0,1-.324,2.736,8.534,8.534,0,0,1-.576,1.944,11.851,11.851,0,0,1-.936,1.656A11.633,11.633,0,0,1,174.684-.9,10.381,10.381,0,0,1,169.1.432a12.944,12.944,0,0,1-3.672-.576A10.011,10.011,0,0,1,161.9-2.016,10.164,10.164,0,0,1,159.276-5.4a11.348,11.348,0,0,1-1.044-5.112v-4.176h7.344v3.816a4.173,4.173,0,0,0,.972,2.844,3.307,3.307,0,0,0,2.628,1.116A3.307,3.307,0,0,0,171.8-8.028a4.389,4.389,0,0,0,.972-2.988V-18.36q0-3.024-1.152-3.96a3.2,3.2,0,0,0-1.764-.72,23.7,23.7,0,0,0-2.916-.144ZM193.768.075l1.275,1,15.75-20.15-1.3-1Zm14.4.75A4.6,4.6,0,0,0,211.543-.45a5.9,5.9,0,0,0,1.45-4.325,5.877,5.877,0,0,0-1.45-4.3,4.663,4.663,0,0,0-3.375-1.275,4.766,4.766,0,0,0-3.4,1.275,5.917,5.917,0,0,0-1.45,4.3,5.9,5.9,0,0,0,1.45,4.325A4.621,4.621,0,0,0,208.168.825Zm0-9.05a1.8,1.8,0,0,1,1.6.775,4.414,4.414,0,0,1,.675,2.5c0,2.425-.775,3.675-2.275,3.675-1.475,0-2.275-1.25-2.275-3.55a4.347,4.347,0,0,1,.675-2.6A1.74,1.74,0,0,1,208.168-8.225ZM196.393-8.65a4.6,4.6,0,0,0,3.375-1.275,5.9,5.9,0,0,0,1.45-4.325,5.877,5.877,0,0,0-1.45-4.3,4.663,4.663,0,0,0-3.375-1.275c-3.05,0-4.85,2.075-4.85,5.575a5.941,5.941,0,0,0,1.45,4.325A4.621,4.621,0,0,0,196.393-8.65Zm0-9.05a1.924,1.924,0,0,1,1.825,1.125,5.488,5.488,0,0,1,.45,2.325c0,2.25-.825,3.5-2.275,3.5-1.475,0-2.275-1.25-2.275-3.55C194.118-16.475,194.943-17.7,196.393-17.7Z" transform="translate(1339 6058)" fill="#0052aa"/>
  </g>
</svg>
