<svg xmlns="http://www.w3.org/2000/svg" xmlns:xlink="http://www.w3.org/1999/xlink" width="425.774" height="210.343" viewBox="0 0 425.774 210.343">
  <defs>
    <linearGradient id="linear-gradient" y1="0.5" x2="1" y2="0.5" gradientUnits="objectBoundingBox">
      <stop offset="0" stop-color="#03a8e5"/>
      <stop offset="1" stop-color="#012869"/>
    </linearGradient>
    <filter id="パス_301" x="0" y="2.323" width="425.774" height="208.021" filterUnits="userSpaceOnUse">
      <feOffset dx="10" dy="10" input="SourceAlpha"/>
      <feGaussianBlur stdDeviation="15" result="blur"/>
      <feFlood flood-opacity="0.161"/>
      <feComposite operator="in" in2="blur"/>
      <feComposite in="SourceGraphic"/>
    </filter>
    <linearGradient id="linear-gradient-2" x1="-0.03" xlink:href="#linear-gradient"/>
    <filter id="長方形_209" x="222" y="10.209" width="164" height="75" filterUnits="userSpaceOnUse">
      <feOffset input="SourceAlpha"/>
      <feGaussianBlur stdDeviation="5" result="blur-2"/>
      <feFlood flood-color="#013778" flood-opacity="0.322"/>
      <feComposite operator="in" in2="blur-2"/>
      <feComposite in="SourceGraphic"/>
    </filter>
  </defs>
  <g id="平均勤続年数" transform="translate(-954.63 -2498)">
    <g id="グループ_223" data-name="グループ 223" transform="translate(989.63 2535.323)">
      <g transform="matrix(1, 0, 0, 1, -35, -37.32)" filter="url(#パス_301)">
        <path id="パス_301-2" data-name="パス 301" d="M0,0H335.774V118.021H0Z" transform="translate(35 37.32)" fill="url(#linear-gradient)"/>
      </g>
      <path id="パス_302" data-name="パス 302" d="M0,0H327.774V110.021H0Z" transform="translate(4 4)" fill="#edf9ff"/>
    </g>
    <text id="_11.5年" data-name="11.5年" transform="translate(1135.63 2633.209)" fill="#0052aa" font-size="70" font-family="DINCondensed-Bold, DIN Condensed" font-weight="700" letter-spacing="0.1em"><tspan x="0" y="0">11.5</tspan><tspan y="0" font-size="23" font-family="HiraginoSans-W6, Hiragino Sans" font-weight="400">年</tspan></text>
    <path id="人" d="M3853.094,5959.924c.071,1.424,1,13.027,1.07,15.59a48.727,48.727,0,0,1-1.213-7.047,49.878,49.878,0,0,1,.143-8.543m8.747,29a.961.961,0,0,0-.574-.982,1.544,1.544,0,0,0,.479-.73,2.14,2.14,0,0,0,.045-1.478,16.345,16.345,0,0,1-.556-1.925l.221-.187v-1.332s.432-.2.415-.3c.327-5.569-.559-11.611-.622-17.106-.042-3.752-.37-7.374-.745-11.06-.187-1.829-.452-3.688-.533-5.425a22.767,22.767,0,0,0-.853-5.105c.031.114-.513-1.754-.53-1.843a17.65,17.65,0,0,0-.75-2.413c-.213-.6-.233-1.733-.635-2.207-.89-1.049-3.1-1.255-4.264-1.835-1.335-.663-2.581-1.391-3.947-2.024-1.029-.476-2.633-2.092-3.719-2.139-.386-.74-.6-1.169-.938-1.759-.508,0-.628-3.688-.543-4.411.209-.052.289-.164.6-.5a4.4,4.4,0,0,0,.394-1.754c.147-1.284.274-2.872-.479-2.793a6.864,6.864,0,0,0-.089-3.895c-.126-.588.029-1.554-.255-2.08a14.752,14.752,0,0,0-.882-1.2c-.1-.036-.65-.51-.75-.534-.227-.366-.547-.31-.823-.528a7.074,7.074,0,0,0-1.792-.53,4.214,4.214,0,0,0-2.132-.107c-1-.223-4.329,1.223-5.258,3.808-.416,1.157-.405,5.7.5,6.228-.555.234-.207,1.112-.207,1.7a4.652,4.652,0,0,0-.9,1.773c-1.4-.145-2.694-.21-2.872,1.029a1.515,1.515,0,0,0-.982,1.5c-2.3.782-1.4,3.613-2.123,5.356a16.138,16.138,0,0,0,4.236,2.136c-.16.6-.338,1.548-.811,1.762-1.173-.151-3.968-2.052-4.789-2.7-1.124.854-5.134,7.841-5.64,8.909a29.443,29.443,0,0,0-1.863,4.1c-.515,1.706-1.351,3.205-1.469,5.023a3.821,3.821,0,0,0,1.306,3.058c1.025,1.034,1.846.95,3.2.689a11.716,11.716,0,0,0,3.251-1.224c.413-.214.835-.559,1.282-.742a11.672,11.672,0,0,0,1.54-.888,37.162,37.162,0,0,1,.406,6.766c-.089,1.769.456,3.475.189,5.188-.532,3.417-.111,7.069-.611,10.555-.259,1.8-.33,3.676-.515,5.531-.166,1.671.089,3.755-.437,5.294a11.969,11.969,0,0,0,3.146,1.037c.3,1.712.27,5.29.354,7.074.086,1.827.325,3.59.325,5.451,0,3.87-.353,7.632-.533,11.377-.188,3.9.475,7.943.1,11.779a56.094,56.094,0,0,0-.425,5.642c0,1.951-.429,3.636-.426,5.533,0,3.313-.243,6.59-.093,9.875a1.443,1.443,0,0,1,.6.086,26.908,26.908,0,0,1-3.182,1.888c-1.059.617-2.117,1.35-2.7,1.672s-1.323,1-1.323,1.7a4.635,4.635,0,0,0,.019.581c-.431.375-.229,1.454.958,1.622a20.735,20.735,0,0,0,4.7,0,12.186,12.186,0,0,0,5.086-2.287,18.059,18.059,0,0,0,4.057-.881,1.788,1.788,0,0,0,1.058-1.29,8.085,8.085,0,0,0,.027-1.635l.342-.365a22.934,22.934,0,0,0,.265-2.457,46.95,46.95,0,0,0,.64-5.532c0-1.934.2-3.786.32-5.667.237-3.752.814-7.523,1.173-11.246s.537-4.754,1.036-8.812c.227-1.844.669-5.872.669-7.788,0-1.148.374-4.884.4-5.978.268.348,1.378,3.779,1.515,4.178.249.724,1.022,2.629,1.375,3.573,0,0,.612,11.5.7,12.1s.386.728.858.771,1.5,0,1.5,0c.179,1.638,1.328,9.922,1.328,11.526,0,3.9.086,7.7-.109,11.567a8.59,8.59,0,0,0,.268,2.686,10.44,10.44,0,0,1,.707,2.127,5.622,5.622,0,0,0,1.357.213c0,.587-.557,2.15-.678,2.993-.065.457-.118,1.338-.136,2.169a2.526,2.526,0,0,0-.022,1.42c.208.966,1.455,1.977,4.26,1.977s4.281-1.113,4.614-1.836a4.4,4.4,0,0,0,.059-2.5c-.151-.722-.663-2.046-.814-2.677s-.836-1.5-.862-2.111c1.5-.273,1.165-4.671,1.165-5.821,0-7.3-.751-16.728-.751-23.493,0,0,13.219-3.682,14.034-3.768s1.03-.385.986-.985-.514-10.318-.6-11.3-.085-2.184-.171-3.168-.644-4.411-.858-5.267a1.668,1.668,0,0,0-1.374-1.284,14.3,14.3,0,0,0-2.7-.086c-.514.042-5.623.642-5.623.642l-5.181.483v-1.162a1.026,1.026,0,0,0,1.094-.329.95.95,0,0,0,1.574-.467.808.808,0,0,0,.907-.356c.3.109.66.329.66.658v1.28l1.156-.109Zm-26.388-59.507a14.12,14.12,0,0,1,.133,2.616c-.347.054-1.123,1.389-1.5,1.789a7.157,7.157,0,0,1-1.632,1.041c-.615.347-2.06.881-2.649,1.147a10.475,10.475,0,0,1,.321-1.842,3.577,3.577,0,0,0,1.5-1.869,11.818,11.818,0,0,1,.536-1.548c.214-.454.731-1.45,1.025-2.278a15.8,15.8,0,0,0,.1,1.664.578.578,0,0,0,.668.525.513.513,0,0,0,.536-.579c0-.321.214-2.67.214-2.67a7.358,7.358,0,0,1,.749,2m-3.228-2.046a2.866,2.866,0,0,0-.624.89c-.161.285-.376.729-.589,1.032s-.553.552-.625.338a2.678,2.678,0,0,1,0-1,2.972,2.972,0,0,0,.766-1.139c.322-.071.678-.054,1.071-.125" transform="translate(-2778.659 -3412.646)" fill="#9eddf6"/>
    <g transform="matrix(1, 0, 0, 1, 954.63, 2498)" filter="url(#長方形_209)">
      <rect id="長方形_209-2" data-name="長方形 209" width="134" height="45" transform="translate(237 25.21)" fill="url(#linear-gradient-2)"/>
    </g>
    <text id="平均勤続年数-2" data-name="平均勤続年数" transform="translate(1206.256 2550.74)" fill="#fff" font-size="15" font-family="HiraginoSans-W6, Hiragino Sans" letter-spacing="0.2em"><tspan x="0" y="0">平均勤続年数</tspan></text>
  </g>
</svg>
