<svg xmlns="http://www.w3.org/2000/svg" xmlns:xlink="http://www.w3.org/1999/xlink" width="424.536" height="268.103" viewBox="0 0 424.536 268.103">
  <defs>
    <linearGradient id="linear-gradient" y1="0.5" x2="1" y2="0.5" gradientUnits="objectBoundingBox">
      <stop offset="0" stop-color="#03a8e5"/>
      <stop offset="1" stop-color="#012869"/>
    </linearGradient>
    <filter id="パス_301" x="0" y="0" width="424.536" height="268.103" filterUnits="userSpaceOnUse">
      <feOffset dx="10" dy="10" input="SourceAlpha"/>
      <feGaussianBlur stdDeviation="15" result="blur"/>
      <feFlood flood-opacity="0.161"/>
      <feComposite operator="in" in2="blur"/>
      <feComposite in="SourceGraphic"/>
    </filter>
    <linearGradient id="linear-gradient-2" x1="-0.03" xlink:href="#linear-gradient"/>
    <filter id="長方形_217" x="19.668" y="10.139" width="124" height="69" filterUnits="userSpaceOnUse">
      <feOffset input="SourceAlpha"/>
      <feGaussianBlur stdDeviation="5" result="blur-2"/>
      <feFlood flood-color="#013778" flood-opacity="0.322"/>
      <feComposite operator="in" in2="blur-2"/>
      <feComposite in="SourceGraphic"/>
    </filter>
  </defs>
  <g id="男女比" transform="translate(-289.606 -4298.689)">
    <g id="グループ_243" data-name="グループ 243" transform="translate(324.606 4333.689)">
      <g transform="matrix(1, 0, 0, 1, -35, -35)" filter="url(#パス_301)">
        <path id="パス_301-2" data-name="パス 301" d="M0,0H334.536V178.1H0Z" transform="translate(35 35)" fill="url(#linear-gradient)"/>
      </g>
      <path id="パス_302" data-name="パス 302" d="M0,0H326.441V170.1H0Z" transform="translate(4 4)" fill="#edf9ff"/>
    </g>
    <text id="男性55名_女性34名" data-name="男性55名、女性34名" transform="translate(368.197 4476.958)" fill="#0052aa" font-size="11" font-family="HiraginoSans-W6, Hiragino Sans" letter-spacing="0.1em"><tspan x="0" y="0">男性</tspan><tspan y="0" font-family="DINCondensed-Bold, DIN Condensed" font-weight="700">55</tspan><tspan y="0">名、女性</tspan><tspan y="0" font-family="DINCondensed-Bold, DIN Condensed" font-weight="700">34</tspan><tspan y="0">名</tspan></text>
    <text id="_6:4" data-name="6:4" transform="translate(360.273 4453.829)" fill="#0052aa" font-size="101" font-family="DINCondensed-Bold, DIN Condensed" font-weight="700" letter-spacing="0.1em"><tspan x="0" y="0">6:4</tspan></text>
    <g id="グループ_239" data-name="グループ 239" transform="translate(498.307 4379.872)">
      <g id="グループ_228" data-name="グループ 228" transform="translate(110.079 0)">
        <g id="グループ_227" data-name="グループ 227">
          <path id="パス_642" data-name="パス 642" d="M446.054,222.6l2.461-.012a5.19,5.19,0,0,1,5.2,5.18v11.485a1.521,1.521,0,0,1-1.524,1.518,1.5,1.5,0,0,1-1.523-1.349v-9.9a.237.237,0,0,0-.474,0V256.5a2.842,2.842,0,0,1-5.683,0V241.163a.372.372,0,0,0-.372-.377.378.378,0,0,0-.379.377V256.5a2.842,2.842,0,0,1-5.683,0V229.522a.237.237,0,0,0-.474,0v9.9a1.5,1.5,0,0,1-1.523,1.349,1.52,1.52,0,0,1-1.523-1.518V227.771a5.19,5.19,0,0,1,5.2-5.18l2.528.014V221.9a3.964,3.964,0,0,1-1.969-3.425v-1.113a3.986,3.986,0,0,1,7.972,0v1.113a3.966,3.966,0,0,1-2.238,3.568Z" transform="translate(-434.557 -213.391)" fill="#ace2f7"/>
        </g>
      </g>
      <g id="グループ_230" data-name="グループ 230" transform="translate(88.063 0)">
        <g id="グループ_229" data-name="グループ 229">
          <path id="パス_643" data-name="パス 643" d="M418.72,222.6l2.46-.012a5.191,5.191,0,0,1,5.2,5.18v11.485a1.521,1.521,0,0,1-1.524,1.518,1.5,1.5,0,0,1-1.523-1.349v-9.9a.237.237,0,0,0-.474,0V256.5a2.842,2.842,0,0,1-5.683,0V241.163a.373.373,0,0,0-.373-.377.377.377,0,0,0-.378.377V256.5a2.842,2.842,0,0,1-5.683,0V229.522a.237.237,0,0,0-.474,0v9.9a1.5,1.5,0,0,1-1.523,1.349,1.521,1.521,0,0,1-1.524-1.518V227.771a5.19,5.19,0,0,1,5.2-5.18l2.527.014V221.9a3.964,3.964,0,0,1-1.969-3.425v-1.113a3.986,3.986,0,0,1,7.973,0v1.113a3.967,3.967,0,0,1-2.237,3.568Z" transform="translate(-407.222 -213.391)" fill="#ace2f7"/>
        </g>
      </g>
      <g id="グループ_232" data-name="グループ 232" transform="translate(66.048 0)">
        <g id="グループ_231" data-name="グループ 231">
          <path id="パス_644" data-name="パス 644" d="M391.385,222.6l2.461-.012a5.19,5.19,0,0,1,5.2,5.18v11.485a1.521,1.521,0,0,1-1.524,1.518A1.5,1.5,0,0,1,396,239.424v-9.9a.237.237,0,0,0-.474,0V256.5a2.842,2.842,0,0,1-5.683,0V241.163a.372.372,0,0,0-.372-.377.378.378,0,0,0-.379.377V256.5a2.842,2.842,0,0,1-5.683,0V229.522a.237.237,0,0,0-.474,0v9.9a1.5,1.5,0,0,1-1.523,1.349,1.52,1.52,0,0,1-1.523-1.518V227.771a5.19,5.19,0,0,1,5.2-5.18l2.527.014V221.9a3.965,3.965,0,0,1-1.968-3.425v-1.113a3.986,3.986,0,0,1,7.972,0v1.113a3.967,3.967,0,0,1-2.237,3.568Z" transform="translate(-379.888 -213.391)" fill="#ace2f7"/>
        </g>
      </g>
      <g id="グループ_234" data-name="グループ 234" transform="translate(44.032 0)">
        <g id="グループ_233" data-name="グループ 233">
          <path id="パス_645" data-name="パス 645" d="M364.051,222.6l2.46-.012a5.191,5.191,0,0,1,5.2,5.18v11.485a1.521,1.521,0,0,1-1.524,1.518,1.5,1.5,0,0,1-1.523-1.349v-9.9a.237.237,0,0,0-.474,0V256.5a2.842,2.842,0,0,1-5.683,0V241.163a.373.373,0,0,0-.373-.377.378.378,0,0,0-.379.377V256.5a2.841,2.841,0,0,1-5.682,0V229.522a.237.237,0,0,0-.474,0v9.9a1.5,1.5,0,0,1-1.523,1.349,1.521,1.521,0,0,1-1.524-1.518V227.771a5.19,5.19,0,0,1,5.2-5.18l2.527.014V221.9a3.964,3.964,0,0,1-1.969-3.425v-1.113a3.986,3.986,0,0,1,7.972,0v1.113a3.966,3.966,0,0,1-2.237,3.568Z" transform="translate(-352.553 -213.391)" fill="#ace2f7"/>
        </g>
      </g>
      <g id="グループ_236" data-name="グループ 236" transform="translate(22.016 0)">
        <g id="グループ_235" data-name="グループ 235">
          <path id="パス_646" data-name="パス 646" d="M336.716,222.6l2.461-.012a5.19,5.19,0,0,1,5.2,5.18v11.485a1.521,1.521,0,0,1-1.524,1.518,1.5,1.5,0,0,1-1.523-1.349v-9.9a.237.237,0,0,0-.474,0V256.5a2.842,2.842,0,0,1-5.683,0V241.163a.372.372,0,0,0-.372-.377.378.378,0,0,0-.379.377V256.5a2.842,2.842,0,0,1-5.683,0V229.522a.237.237,0,0,0-.474,0v9.9a1.5,1.5,0,0,1-1.523,1.349,1.52,1.52,0,0,1-1.523-1.518V227.771a5.19,5.19,0,0,1,5.2-5.18l2.527.014V221.9a3.965,3.965,0,0,1-1.968-3.425v-1.113a3.986,3.986,0,0,1,7.972,0v1.113a3.967,3.967,0,0,1-2.237,3.568Z" transform="translate(-325.219 -213.391)" fill="#ace2f7"/>
        </g>
      </g>
      <g id="グループ_238" data-name="グループ 238" transform="translate(0 0)">
        <g id="グループ_237" data-name="グループ 237">
          <path id="パス_647" data-name="パス 647" d="M309.382,222.6l2.46-.012a5.191,5.191,0,0,1,5.2,5.18v11.485a1.521,1.521,0,0,1-1.524,1.518A1.5,1.5,0,0,1,314,239.424v-9.9a.237.237,0,0,0-.474,0V256.5a2.842,2.842,0,0,1-5.684,0V241.163a.372.372,0,0,0-.372-.377.378.378,0,0,0-.379.377V256.5a2.841,2.841,0,0,1-5.682,0V229.522a.237.237,0,0,0-.474,0v9.9a1.5,1.5,0,0,1-1.523,1.349,1.521,1.521,0,0,1-1.524-1.518V227.771a5.19,5.19,0,0,1,5.2-5.18l2.527.014V221.9a3.964,3.964,0,0,1-1.969-3.425v-1.113a3.986,3.986,0,0,1,7.972,0v1.113a3.967,3.967,0,0,1-2.237,3.568Z" transform="translate(-297.884 -213.391)" fill="#ace2f7"/>
        </g>
      </g>
      <path id="パス_648" data-name="パス 648" d="M467.095,247.016v10.219a2.113,2.113,0,0,0,4.227,0V247.016h.751v10.219a2.113,2.113,0,0,0,4.226,0V247.016h2.434a.343.343,0,0,0,.32-.347c0-.014,0,.013,0,0l-2.388-17.142a.237.237,0,0,1,.47-.065l1.365,9.809a1.5,1.5,0,0,0,1.695,1.129,1.519,1.519,0,0,0,1.3-1.712l-1.581-11.363a5.242,5.242,0,0,0-5.18-4.728l-1.095.012,0-.558a3.957,3.957,0,0,0,2.232-3.559v-1.112a3.977,3.977,0,0,0-7.954,0v1.112a3.957,3.957,0,0,0,1.964,3.417v.7l-1.208-.014a5.242,5.242,0,0,0-5.18,4.728l-1.583,11.363a1.52,1.52,0,0,0,1.3,1.712,1.5,1.5,0,0,0,1.7-1.129l1.365-9.809a.237.237,0,0,1,.47.065l-2.39,17.142c0,.013,0-.014,0,0a.343.343,0,0,0,.32.347Z" transform="translate(-461.08 -157.242)" fill="#ace2f7"/>
      <path id="パス_649" data-name="パス 649" d="M495,247.016v10.219a2.113,2.113,0,0,0,4.227,0V247.016h.751v10.219a2.113,2.113,0,0,0,4.226,0V247.016h2.434a.343.343,0,0,0,.32-.347c0-.014,0,.013,0,0l-2.388-17.142a.237.237,0,0,1,.47-.065l1.365,9.809a1.5,1.5,0,0,0,1.7,1.129,1.519,1.519,0,0,0,1.3-1.712l-1.582-11.363a5.242,5.242,0,0,0-5.18-4.728l-1.094.012,0-.558a3.957,3.957,0,0,0,2.232-3.559v-1.112a3.976,3.976,0,0,0-7.953,0v1.112a3.957,3.957,0,0,0,1.964,3.417v.7l-1.208-.014a5.242,5.242,0,0,0-5.18,4.728l-1.582,11.363a1.519,1.519,0,0,0,1.3,1.712,1.5,1.5,0,0,0,1.7-1.129l1.365-9.809a.237.237,0,0,1,.47.065l-2.389,17.142c0,.013,0-.014,0,0a.343.343,0,0,0,.319.347Z" transform="translate(-466.509 -157.242)" fill="#ace2f7"/>
      <path id="パス_650" data-name="パス 650" d="M522.9,247.016v10.219a2.113,2.113,0,0,0,4.226,0V247.016h.751v10.219a2.113,2.113,0,0,0,4.226,0V247.016h2.435a.343.343,0,0,0,.319-.347c0-.014,0,.013,0,0l-2.388-17.142a.237.237,0,0,1,.469-.065l1.365,9.809A1.5,1.5,0,0,0,536,240.4a1.519,1.519,0,0,0,1.3-1.712l-1.582-11.363a5.242,5.242,0,0,0-5.18-4.728l-1.094.012,0-.558a3.957,3.957,0,0,0,2.231-3.559v-1.112a3.976,3.976,0,0,0-7.953,0v1.112a3.958,3.958,0,0,0,1.964,3.417v.7l-1.207-.014a5.242,5.242,0,0,0-5.181,4.728l-1.582,11.363a1.519,1.519,0,0,0,1.3,1.712,1.5,1.5,0,0,0,1.7-1.129l1.365-9.809a.237.237,0,0,1,.47.065l-2.389,17.142c0,.013,0-.014,0,0a.343.343,0,0,0,.32.347Z" transform="translate(-471.939 -157.242)" fill="#ace2f7"/>
      <path id="パス_651" data-name="パス 651" d="M550.8,247.016v10.219a2.113,2.113,0,0,0,4.226,0V247.016h.751v10.219a2.113,2.113,0,0,0,4.226,0V247.016h2.434a.343.343,0,0,0,.32-.347c0-.014,0,.013,0,0l-2.388-17.142a.237.237,0,0,1,.469-.065l1.365,9.809a1.5,1.5,0,0,0,1.7,1.129,1.519,1.519,0,0,0,1.3-1.712l-1.582-11.363a5.242,5.242,0,0,0-5.18-4.728l-1.094.012,0-.558a3.958,3.958,0,0,0,2.232-3.559v-1.112a3.977,3.977,0,0,0-7.954,0v1.112a3.957,3.957,0,0,0,1.964,3.417v.7l-1.208-.014a5.243,5.243,0,0,0-5.18,4.728l-1.582,11.363a1.519,1.519,0,0,0,1.3,1.712,1.5,1.5,0,0,0,1.7-1.129l1.365-9.809a.237.237,0,0,1,.47.065l-2.389,17.142c0,.013,0-.014,0,0a.343.343,0,0,0,.32.347Z" transform="translate(-477.368 -157.242)" fill="#ace2f7"/>
    </g>
    <g transform="matrix(1, 0, 0, 1, 289.61, 4298.69)" filter="url(#長方形_217)">
      <rect id="長方形_217-2" data-name="長方形 217" width="94" height="39" transform="translate(34.67 25.14)" fill="url(#linear-gradient-2)"/>
    </g>
    <text id="男女比-2" data-name="男女比" transform="translate(346.273 4348.409)" fill="#fff" font-size="15" font-family="HiraginoSans-W6, Hiragino Sans" letter-spacing="0.2em"><tspan x="0" y="0">男女比</tspan></text>
  </g>
</svg>
