<svg xmlns="http://www.w3.org/2000/svg" xmlns:xlink="http://www.w3.org/1999/xlink" width="428.23" height="576.429" viewBox="0 0 428.23 576.429">
  <defs>
    <linearGradient id="linear-gradient" y1="0.5" x2="1" y2="0.5" gradientUnits="objectBoundingBox">
      <stop offset="0" stop-color="#03a8e5"/>
      <stop offset="1" stop-color="#012869"/>
    </linearGradient>
    <filter id="パス_301" x="0" y="0" width="428.23" height="576.429" filterUnits="userSpaceOnUse">
      <feOffset dx="10" dy="10" input="SourceAlpha"/>
      <feGaussianBlur stdDeviation="15" result="blur"/>
      <feFlood flood-opacity="0.161"/>
      <feComposite operator="in" in2="blur"/>
      <feComposite in="SourceGraphic"/>
    </filter>
    <linearGradient id="linear-gradient-2" x1="-0.03" xlink:href="#linear-gradient"/>
    <filter id="長方形_225" x="21.347" y="45.429" width="269" height="102" filterUnits="userSpaceOnUse">
      <feOffset input="SourceAlpha"/>
      <feGaussianBlur stdDeviation="5" result="blur-2"/>
      <feFlood flood-color="#013778" flood-opacity="0.322"/>
      <feComposite operator="in" in2="blur-2"/>
      <feComposite in="SourceGraphic"/>
    </filter>
  </defs>
  <g id="お酒" transform="translate(-288.653 -5904.572)">
    <g id="グループ_258" data-name="グループ 258" transform="translate(323.653 5939.571)">
      <g transform="matrix(1, 0, 0, 1, -35, -35)" filter="url(#パス_301)">
        <path id="パス_301-2" data-name="パス 301" d="M0,0H338.23V486.429H0Z" transform="translate(35 35)" fill="url(#linear-gradient)"/>
      </g>
      <path id="パス_302" data-name="パス 302" d="M0,0H330.23V478.429H0Z" transform="translate(4 4)" fill="#edf9ff"/>
    </g>
    <g id="グループ_261" data-name="グループ 261" transform="translate(478.709 6230.226)">
      <path id="パス_667" data-name="パス 667" d="M370.594,2664.381l-23.084,8.4a2.9,2.9,0,0,0,.993,5.619,2.848,2.848,0,0,0,.992-.178l23.082-8.4a2.9,2.9,0,0,0-1.982-5.441Zm4.522,5.322-28.63,10.424a3.551,3.551,0,0,1-1.109.193,3.245,3.245,0,0,1-3.051-2.138c0-.006-.017-.057-.056-.266-.382-1.793-.925-7.545-2.327-13.58-1.445-6.08-3.634-12.729-8.26-17.083l-.206-.167a39.637,39.637,0,0,1-3.28-2.873c-.068-.062-.13-.115-.184-.164a2.238,2.238,0,0,0-.161-.17c-5.537-5.481-10.7-13.583-14.618-24.363q-.738-2.023-1.346-3.979a20.237,20.237,0,0,0,5.653-1.123l3.079-1.117,2.042,5.6-3.54,1.29c.486,1.864,1.089,3.8,1.812,5.78,2.922,8.031,6.793,14.162,11.071,18.393-.006.005-.008.014-.017.022.094.076.187.158.28.235a29.251,29.251,0,0,0,2.559,2.234c5.922,5.475,6.482,19.705,7.155,21.554a4.444,4.444,0,0,0,5.7,2.661l20.712-7.539a4.45,4.45,0,0,0,2.653-5.7c-.673-1.85-9.394-13.1-8.382-21.091a29.646,29.646,0,0,0,.532-3.388c.022-.116.039-.232.062-.345-.011,0-.02-.006-.028-.006.557-5.989-.418-13.175-3.339-21.207q-1.086-2.981-2.328-5.594l-15.607,5.682-2.042-5.605,15.129-5.5a20.915,20.915,0,0,0,5.09-2.743q.772,1.871,1.5,3.869a70.3,70.3,0,0,1,4.652,23.763c0,1.493-.062,2.927-.192,4.293-.006.071-.008.138-.011.209a.161.161,0,0,0-.006.031l-.026.212a37.838,37.838,0,0,1-.678,4.355l-.045.223a16,16,0,0,0-.141,2.259c.037,6.377,2.983,12.847,5.871,18.2,1.451,2.669,2.921,5.036,4.064,6.868.574.916,1.063,1.7,1.417,2.294.178.3.32.543.413.715s.1.212.1.212a3.242,3.242,0,0,1-1.934,4.163Zm-72.3-64.1a5,5,0,0,1-.322-1.784c-.037-2.4,1.736-5.489,5.051-7.576a2.893,2.893,0,0,0,.882-4.027,14.437,14.437,0,0,1-2.384-7.9,14.373,14.373,0,0,1,23.644-11,2.9,2.9,0,0,0,3.914-.183,8.529,8.529,0,0,1,3.094-2.019,8.431,8.431,0,0,1,10.853,5.067,7.79,7.79,0,0,1,.427,1.731,2.9,2.9,0,0,0,3.272,2.469,11.218,11.218,0,0,1,1.6-.1c4.075.025,6.982,1.864,7.816,4.267a5.466,5.466,0,0,1,.308,1.79c.079,3.042-2.859,7.18-7.915,8.99l-17.85,6.5a2.893,2.893,0,0,0-1.731,3.711l6.046,16.608a4.412,4.412,0,0,1,.271,1.521,4.49,4.49,0,0,1-2.946,4.211,4.667,4.667,0,0,1-1.53.266,4.445,4.445,0,0,1-4.194-2.936l-6.049-16.614a2.893,2.893,0,0,0-3.713-1.73l-5.792,2.106a14.654,14.654,0,0,1-4.926.888c-4.095-.017-7-1.852-7.822-4.253Zm-6.944,16.139v0a42.449,42.449,0,0,1-2.579,13.63l-1.024-.368,1.018.368c-4.779,13.042-14.654,22.013-24.227,22.073a14.136,14.136,0,0,1-4.79-.829c-5.865-2.158-9.482-7.935-10.7-15.118-.144-.86-.263-1.737-.347-2.627-.082-.956-.147-1.917-.147-2.907a39.948,39.948,0,0,1,.747-7.48,43.884,43.884,0,0,1,1.869-6.8c4.779-13.048,14.66-22.018,24.233-22.081a13.79,13.79,0,0,1,4.79.84c5.842,2.149,9.448,7.879,10.678,15.022q.228,1.315.362,2.678c.082.967.147,1.94.147,2.941,0,.215-.025.441-.031.656Zm84.157,37.515c-3.427-5.359-9.174-15.225-9.064-22.01a10.511,10.511,0,0,1,.076-1.368,44.6,44.6,0,0,0,.741-4.7c.025-.17.051-.311.074-.433a2.854,2.854,0,0,0,.037-.741c.119-1.414.172-2.859.172-4.344a75.982,75.982,0,0,0-5-25.742c-.817-2.246-1.7-4.364-2.613-6.4a13.4,13.4,0,0,0,2.3-7.18,10.929,10.929,0,0,0-.648-3.756c-1.976-5.308-7.375-8.026-13.008-8.088-.031-.1-.065-.192-.1-.291a14.277,14.277,0,0,0-13.4-9.4,14.075,14.075,0,0,0-4.9.876,13.643,13.643,0,0,0-3.275,1.734,20.263,20.263,0,0,0-11-3.278,19.853,19.853,0,0,0-6.889,1.23,20.072,20.072,0,0,0-6.066,3.555l7.1-23.11a5.574,5.574,0,0,0,.184-2.1,5.746,5.746,0,0,0,.987-11.085l-11.351-4.13a5.774,5.774,0,0,0-6.394,9.158,5.6,5.6,0,0,0-1.182,1.7l-14.637,34.622a9.5,9.5,0,0,0-.69,3.261c-7.166.99-14.442,7.542-17.892,17.024l-20.635,56.694-5.336,14.666a8.232,8.232,0,0,0,4.906,10.523l25.695,9.349a8.232,8.232,0,0,0,10.523-4.906l5.339-14.666,18.956-52.073a15.075,15.075,0,0,0,2.641,1.069c.608,2.149,1.29,4.338,2.107,6.584,4.083,11.209,9.49,19.928,15.624,26.124a3.019,3.019,0,0,0,.557.6c.085.059.2.166.365.3a40.949,40.949,0,0,0,3.481,3.042c3.227,2.944,5.5,9.267,6.739,15.194.642,2.978,1.069,5.846,1.4,8.145a34.493,34.493,0,0,0,.925,5.252,9.033,9.033,0,0,0,8.495,5.95,9.3,9.3,0,0,0,3.049-.526l28.667-10.435a9.056,9.056,0,0,0,5.407-11.577,31.11,31.11,0,0,0-2.466-4.313Zm-25.6-96.347,24.79-29.718-.927-.682-4.491-3.315-21.113,32.426,1.742,1.29Zm5.345,4.536,31.144-13.735-1.049-7.627-1.422.891-29.685,18.554,1.012,1.917Zm-1.422-44.644-1.654.277-5.939.97-3.979,33.8,2.129.407,9.442-35.453Zm-77.539,102.95a1.435,1.435,0,0,0-1.864.563l2.876,1.049a1.388,1.388,0,0,0-1.012-1.612Zm-8.67,1.666a1.432,1.432,0,0,0-1.864.563l2.873,1.044a1.385,1.385,0,0,0-1.009-1.606Zm8.088,11.12c-3.88,5.664-8.993,8.623-12.177,7.463-1.651-.6-3.153-2.636-3.987-5.633l-8.41.953c1.159,6.558,4.44,11.515,9.273,13.249a11.741,11.741,0,0,0,4.047.7c7.505.056,16.193-6.946,21.045-17.844l-3.509.4-6.281.713Zm.54-27.339c1.8.656,3.224,2.729,4,5.631l4.927-.557,3.456-.39c-1.154-6.566-4.429-11.526-9.267-13.265a11.646,11.646,0,0,0-4.047-.7h-.091c-7.488,0-16.133,6.993-20.966,17.861l9.8-1.111c4.069-5.956,9.329-8.507,12.185-7.466Zm-17.041,17.087-1.943-.707-.639,1.753,1.971.719a1.027,1.027,0,0,0,.772.011.914.914,0,0,0,.512-.557.793.793,0,0,0-.235-.888,1.125,1.125,0,0,0-.438-.331Zm-1.185,3.58-2.048-.743-.758,2.081,2.059.75a1.113,1.113,0,1,0,.747-2.087Zm28.469-4.711a3.806,3.806,0,0,0-1.063-.628,1.732,1.732,0,0,0-1.553.116,1.79,1.79,0,0,0-.7.877l-.634,1.745a13.226,13.226,0,0,0-.52,1.708l-2.313-.843a13.768,13.768,0,0,0,.7-1.654l1.253-3.441a11.836,11.836,0,0,0,.529-1.725l2.223.809-.322.882a2.7,2.7,0,0,1,2.6-.2,4.855,4.855,0,0,1,1.06.534l-1.27,1.821Zm-7.553,2.293a2.348,2.348,0,0,0-.074.226l-5.031-1.829a1.5,1.5,0,0,0,1.015,1.939,1.754,1.754,0,0,0,1.281,0,1.194,1.194,0,0,0,.543-.452l1.745,1.261a3.551,3.551,0,0,1-1.156.885,3.911,3.911,0,0,1-2.986-.011,3.745,3.745,0,0,1-2.248-1.895,4.08,4.08,0,0,1-.023-3.1,3.63,3.63,0,0,1,4.892-2.381,3.417,3.417,0,0,1,2.407,3.832,9.647,9.647,0,0,1-.365,1.53Zm-8.673,1.666c-.014.042-.043.116-.071.229l-5.031-1.833a1.5,1.5,0,0,0,1.012,1.94,1.724,1.724,0,0,0,1.281-.006,1.128,1.128,0,0,0,.543-.449l1.748,1.258a3.579,3.579,0,0,1-1.159.891,3.876,3.876,0,0,1-2.984-.017,3.74,3.74,0,0,1-2.248-1.889,4.057,4.057,0,0,1-.028-3.1,3.641,3.641,0,0,1,4.9-2.385,3.422,3.422,0,0,1,2.4,3.837,9.157,9.157,0,0,1-.365,1.528Zm-8.02-1.137a2.2,2.2,0,0,1-1.236,1.363,2.6,2.6,0,0,1-1.078.158,2.537,2.537,0,0,1,.967.964,2.6,2.6,0,0,1-1.968,3.687,4.032,4.032,0,0,1-.871.017,4.762,4.762,0,0,1-1.095-.24l-3.043-1.108c-.854-.309-1.179-.413-1.668-.566a11.038,11.038,0,0,0,.687-1.615l2.225-6.114a12.547,12.547,0,0,0,.5-1.643c.555.238.718.3,1.632.631l2.927,1.066a.069.069,0,0,1,.026.014c1.793.662,2.534,1.911,2,3.385Zm26.6-12.064-5.781.658-2.423.274v0l-17.954,2.045v0l-9.28,1.058-.007.006c-.054.168-.13.32-.187.486a39.727,39.727,0,0,0-2.472,13.532,31.9,31.9,0,0,0,.164,3.2l.036,0,5.314-.6,2.907-.331,17.951-2.039,9.257-1.052c.065-.173.138-.337.2-.512h0a42.756,42.756,0,0,0,1.326-4.531c0-.005,0-.008,0-.014.242-1,.453-2,.614-2.992.036-.212.056-.421.087-.636.116-.789.234-1.581.3-2.353.09-1.023.138-2.031.138-3.014,0-1.095-.059-2.155-.16-3.187l-.034,0Z" transform="translate(-237.13 -2522.801)" fill="#a8e1f7"/>
    </g>
    <g transform="matrix(1, 0, 0, 1, 288.65, 5904.57)" filter="url(#長方形_225)">
      <rect id="長方形_225-2" data-name="長方形 225" width="239" height="72" transform="translate(36.35 60.43)" fill="url(#linear-gradient-2)"/>
    </g>
    <text id="_1番好きな_よく飲む_お酒の種類は" data-name="1番好きな（よく飲む）
お酒の種類は" transform="translate(356 5994)" fill="#fff" font-size="14" font-family="DINCondensed-Bold, DIN Condensed" font-weight="700" letter-spacing="0.2em"><tspan x="0" y="0">1</tspan><tspan y="0" font-family="HiraginoSans-W6, Hiragino Sans" font-weight="400">番好きな（よく飲む）</tspan><tspan y="0"></tspan><tspan font-family="HiraginoSans-W6, Hiragino Sans" font-weight="400"><tspan x="0" y="23">お酒の種類は</tspan></tspan></text>
    <text id="何でも飲む_18_お酒は飲まない_17_ハイボール_10_カクテル_8_ワイン_7_焼酎_6_日本酒_3_缶酎ハイ_1_" data-name="何でも飲む：18％
お酒は飲まない：17％
ハイボール：10％
カクテル：8％
ワイン：7％
焼酎：6％
日本酒：3％
缶酎ハイ：1％
" transform="translate(356 6182)" fill="#0052aa" font-size="14" font-family="HiraginoSans-W6, Hiragino Sans" letter-spacing="0.1em"><tspan x="0" y="0">何でも飲む：</tspan><tspan y="0" font-size="22" font-family="DINCondensed-Bold, DIN Condensed" font-weight="700">18</tspan><tspan y="0">％</tspan><tspan y="0" font-family="DINCondensed-Bold, DIN Condensed" font-weight="700"></tspan><tspan x="0" y="30">お酒は飲まない：</tspan><tspan y="30" font-size="22" font-family="DINCondensed-Bold, DIN Condensed" font-weight="700">17</tspan><tspan y="30">％</tspan><tspan y="30" font-family="DINCondensed-Bold, DIN Condensed" font-weight="700"></tspan><tspan x="0" y="60">ハイボール：</tspan><tspan y="60" font-family="DINCondensed-Bold, DIN Condensed" font-weight="700">10</tspan><tspan y="60">％</tspan><tspan y="60" font-family="DINCondensed-Bold, DIN Condensed" font-weight="700"></tspan><tspan x="0" y="90">カクテル：</tspan><tspan y="90" font-family="DINCondensed-Bold, DIN Condensed" font-weight="700">8</tspan><tspan y="90">％</tspan><tspan y="90" font-family="DINCondensed-Bold, DIN Condensed" font-weight="700"></tspan><tspan x="0" y="120">ワイン：</tspan><tspan y="120" font-family="DINCondensed-Bold, DIN Condensed" font-weight="700">7</tspan><tspan y="120">％</tspan><tspan y="120" font-family="DINCondensed-Bold, DIN Condensed" font-weight="700"></tspan><tspan x="0" y="150">焼酎：</tspan><tspan y="150" font-family="DINCondensed-Bold, DIN Condensed" font-weight="700">6</tspan><tspan y="150">％</tspan><tspan y="150" font-family="DINCondensed-Bold, DIN Condensed" font-weight="700"></tspan><tspan x="0" y="180">日本酒：</tspan><tspan y="180" font-family="DINCondensed-Bold, DIN Condensed" font-weight="700">3</tspan><tspan y="180">％</tspan><tspan y="180" font-family="DINCondensed-Bold, DIN Condensed" font-weight="700"></tspan><tspan x="0" y="210">缶酎ハイ：</tspan><tspan y="210" font-family="DINCondensed-Bold, DIN Condensed" font-weight="700">1</tspan><tspan y="210">％</tspan><tspan y="210" font-family="DINCondensed-Bold, DIN Condensed" font-weight="700"></tspan><tspan font-family="DINCondensed-Bold, DIN Condensed" font-weight="700"><tspan x="0" y="240"></tspan></tspan></text>
    <text id="ビール_発泡酒含む_30_" data-name="ビール（発泡酒含む）：
30％　" transform="translate(355.681 6076.956)" fill="#0052aa" font-size="22" font-family="HiraginoSans-W6, Hiragino Sans" letter-spacing="0.1em"><tspan x="0" y="0">ビール（発泡酒含む）：</tspan><tspan y="0" font-family="DINCondensed-Bold, DIN Condensed" font-weight="700"></tspan><tspan font-size="67" font-family="DINCondensed-Bold, DIN Condensed" font-weight="700"><tspan x="0" y="70">30</tspan><tspan y="70" font-size="22" font-family="HiraginoSans-W6, Hiragino Sans" font-weight="400">％　</tspan></tspan></text>
  </g>
</svg>
