<svg xmlns="http://www.w3.org/2000/svg" xmlns:xlink="http://www.w3.org/1999/xlink" width="425.548" height="214.453" viewBox="0 0 425.548 214.453">
  <defs>
    <linearGradient id="linear-gradient" y1="0.5" x2="1" y2="0.5" gradientUnits="objectBoundingBox">
      <stop offset="0" stop-color="#03a8e5"/>
      <stop offset="1" stop-color="#012869"/>
    </linearGradient>
    <filter id="パス_301" x="0" y="0" width="425.548" height="214.453" filterUnits="userSpaceOnUse">
      <feOffset dx="10" dy="10" input="SourceAlpha"/>
      <feGaussianBlur stdDeviation="15" result="blur"/>
      <feFlood flood-opacity="0.161"/>
      <feComposite operator="in" in2="blur"/>
      <feComposite in="SourceGraphic"/>
    </filter>
    <clipPath id="clip-path">
      <rect id="長方形_201" data-name="長方形 201" width="78" height="96" transform="translate(0.407 0)" fill="#9eddf6"/>
    </clipPath>
    <linearGradient id="linear-gradient-2" x1="-0.03" xlink:href="#linear-gradient"/>
    <filter id="長方形_208" x="19.774" y="7.625" width="167" height="77" filterUnits="userSpaceOnUse">
      <feOffset input="SourceAlpha"/>
      <feGaussianBlur stdDeviation="5" result="blur-2"/>
      <feFlood flood-color="#013778" flood-opacity="0.322"/>
      <feComposite operator="in" in2="blur-2"/>
      <feComposite in="SourceGraphic"/>
    </filter>
  </defs>
  <g id="平均残業時間" transform="translate(-292.868 -2521.336)">
    <g id="グループ_222" data-name="グループ 222" transform="translate(327.868 2556.336)">
      <g transform="matrix(1, 0, 0, 1, -35, -35)" filter="url(#パス_301)">
        <path id="パス_301-2" data-name="パス 301" d="M0,0H335.548V124.453H0Z" transform="translate(35 35)" fill="url(#linear-gradient)"/>
      </g>
      <path id="パス_302" data-name="パス 302" d="M0,0H327.548V116.453H0Z" transform="translate(4 4)" fill="#edf9ff"/>
    </g>
    <g id="残業人" transform="translate(564.235 2569.961)" clip-path="url(#clip-path)">
      <path id="パス_831" data-name="パス 831" d="M2645.116,6838.8h-4.8a6.356,6.356,0,0,0,1.2-2.457v-15.78a7.866,7.866,0,0,0-2.1-4.09l1.362-15.793-2.083-.209L2635.971,6832l2.083.209,1.186-13.746a12.411,12.411,0,0,1,1.075,2.1v15.78a2.543,2.543,0,0,1-1.094,1.162h-6.708v1.295h-5.4v-1.445l-4.15.192c-.062-.395-.888-.991-1.307-1.255a24.057,24.057,0,0,0-3.471-1.977c-.937-.3-4.773-.525-5.787-.758-.383-.087-.833-.212-1.244-.334l.046-.217s-7.651-2.4-9.162-2.832-4.772-1.178-5.058-1.236-.526-.1-.526-.1l-.407-.077c-.183-.035-.667-.164-.667-.164s-4.542-3.806-6.339-5.119c-.5-1.026-1.048-1.98-1.284-2.384l.219.129-.249-.4c-.011-.017-.781-1.242-1.716-2.417a5.29,5.29,0,0,1,.988-1.64c.308-.055,2.005.109,2.314.109s.566-.164.874-.6a4.1,4.1,0,0,0,.36-1.579,1.107,1.107,0,0,0,.514-.327.739.739,0,0,0,.154-.653l.257-.055c.256-.054.206-.381.256-.653s.206-.871.206-.871,1.029.109,1.132-.326a7.177,7.177,0,0,0-.36-2.179,2.074,2.074,0,0,1-.052-1.251,4.284,4.284,0,0,0,.36-1.525c0-.544-.308-2.56-.308-2.56s.925,0,1.131-.545a3.415,3.415,0,0,0-1.131-2.831,14.239,14.239,0,0,0-5.349-2.832,9.491,9.491,0,0,0-4.936.98,5.752,5.752,0,0,0-3.085,4.792c-.463,5.391,1.286,7.841,1.286,8.495a5.16,5.16,0,0,1-.364,1.311c-.152-.1-.248-.164-.253-.169l-.087-.057-1.483,2.165.065.039a18.478,18.478,0,0,0-3.363,3.552c-1.387,2.024-2.65,7.016-2.8,10.486-.074,1.747.026,7.064.143,11.915-.345-3.111-.686-6.049-.877-7.305-.489-3.211-2.152-7.977-3.229-8.184s-2.641.621-2.641,1.761.881,25.692,1.077,29.216,3.424,6.319,5.576,6.319h8.511v12.95h-.6v4.873s-10.708,3.283-11.855,3.706a1.829,1.829,0,0,0-.965,1.476,2.241,2.241,0,0,0-1.09,2.462,2.063,2.063,0,0,0,1.551,1.639,2.031,2.031,0,0,0,2.32-2.135,2.245,2.245,0,0,0-.765-1.71v.427l12.039-1.842.322,3.365a2.25,2.25,0,0,0-.659,2.163,2,2,0,0,0,3.955-.518,2.219,2.219,0,0,0-.766-1.69l.289-3.287,11.829,1.809v-.119a2.227,2.227,0,0,0-.748,2.206,2.043,2.043,0,0,0,4.048-.5,2.178,2.178,0,0,0-1.191-1.967,1.828,1.828,0,0,0-1.009-1.476c-1.2-.424-12.4-3.706-12.4-3.706h-.1v-5.18h-.6v-12.95h12.451s1.353-.63,1.353-1.783v-1.209l.676.16c.677.157,1.016-.053,1.354.1l.676.314s-.047,3.41-.145,6.138.387,16.526.387,16.526.153.023.4.057a6.156,6.156,0,0,0-.307,1.36,12.1,12.1,0,0,0,.241,2.414l.048,1.155,2.659.157s.195-1,.214-1.069a20.15,20.15,0,0,0,2.59,1.436c.5.083,3.693.253,5.607.235v.552h3V6879.6h24.007v10.359h3.6V6879.6h.6v-38.85h1.2Zm-65.019-25.977a48.834,48.834,0,0,1,4.67,3.531,21.593,21.593,0,0,1,2.656,3.409l-.459-.275c-.833-.631-2.155-1.612-3.249-2.33a32.827,32.827,0,0,0-4.212-2.144l-.626-.375Zm38.213,24.552-.455.022a1.575,1.575,0,0,0-.008-.256s.2.106.462.234m-5.6,42.217v6.851s-3.471-2.163-3.852-2.533c-.014-.014-.028-.031-.041-.045.582-.095.974-.167.974-.167s-.321-15.771-.2-19.062.685-8.314-.389-10.065-7.161-4.5-10.2-5.82c-2.153-.937-5.424-2.256-7.153-2.948a10.5,10.5,0,0,0-1.436-1.447c-.54-.317-.737.105-.737-.424s-1.03-1.535-1.03-1.535a32.23,32.23,0,0,0,.344-3.5c0-1.217-.246-1.695-.2-2.118s.638-2.013.883-3.23c.01-.044.02-.1.029-.159,1.316.807,2.466,1.5,2.817,1.7a12.483,12.483,0,0,0,3.016.8c.948.251,13.439,3.255,13.439,3.255s.688-1.249,1.254-2.347c.024-.045.047-.1.072-.152l1.657.133a7.553,7.553,0,0,0,1.291.83l-1.732.076v1.11h-1.2v1.942h1.8v38.85Z" transform="translate(-2566.152 -6796.913)" fill="#9eddf6"/>
    </g>
    <text id="_9.3時間_月_2019年度_" data-name="9.3時間／月（2019年度）" transform="translate(358.642 2653.961)" fill="#0052aa" font-size="49" font-family="DINCondensed-Bold, DIN Condensed" font-weight="700" letter-spacing="0.1em"><tspan x="0" y="0">9.3</tspan><tspan y="0" font-size="17" font-family="HiraginoSans-W6, Hiragino Sans" font-weight="400">時間／月（</tspan><tspan y="0" font-size="17">2019</tspan><tspan y="0" font-size="17" font-family="HiraginoSans-W6, Hiragino Sans" font-weight="400">年度）</tspan></text>
    <g transform="matrix(1, 0, 0, 1, 292.87, 2521.34)" filter="url(#長方形_208)">
      <rect id="長方形_208-2" data-name="長方形 208" width="137" height="47" transform="translate(34.77 22.63)" fill="url(#linear-gradient-2)"/>
    </g>
    <text id="平均残業時間-2" data-name="平均残業時間" transform="translate(343.837 2572.94)" fill="#fff" font-size="15" font-family="HiraginoSans-W6, Hiragino Sans" letter-spacing="0.2em"><tspan x="0" y="0">平均残業時間</tspan></text>
  </g>
</svg>
