<svg xmlns="http://www.w3.org/2000/svg" xmlns:xlink="http://www.w3.org/1999/xlink" width="597.562" height="425.511" viewBox="0 0 597.562 425.511">
  <defs>
    <linearGradient id="linear-gradient" y1="0.5" x2="1" y2="0.5" gradientUnits="objectBoundingBox">
      <stop offset="0" stop-color="#03a8e5"/>
      <stop offset="1" stop-color="#012869"/>
    </linearGradient>
    <filter id="パス_301" x="0" y="0" width="597.562" height="425.511" filterUnits="userSpaceOnUse">
      <feOffset dx="10" dy="10" input="SourceAlpha"/>
      <feGaussianBlur stdDeviation="15" result="blur"/>
      <feFlood flood-opacity="0.161"/>
      <feComposite operator="in" in2="blur"/>
      <feComposite in="SourceGraphic"/>
    </filter>
    <linearGradient id="linear-gradient-2" x1="-0.03" xlink:href="#linear-gradient"/>
    <filter id="長方形_216" x="21.347" y="39.934" width="236" height="102" filterUnits="userSpaceOnUse">
      <feOffset input="SourceAlpha"/>
      <feGaussianBlur stdDeviation="5" result="blur-2"/>
      <feFlood flood-color="#013778" flood-opacity="0.322"/>
      <feComposite operator="in" in2="blur-2"/>
      <feComposite in="SourceGraphic"/>
    </filter>
  </defs>
  <g id="従業員数" transform="translate(-288.653 -3938.066)">
    <g id="グループ_241" data-name="グループ 241" transform="translate(-204.7 1600)">
      <g transform="matrix(1, 0, 0, 1, 493.35, 2338.07)" filter="url(#パス_301)">
        <path id="パス_301-2" data-name="パス 301" d="M0,0H507.562V335.511H0Z" transform="translate(35 35)" fill="url(#linear-gradient)"/>
      </g>
      <path id="パス_302" data-name="パス 302" d="M0,0H499.562V327.511H0Z" transform="translate(532.353 2377.066)" fill="#edf9ff"/>
    </g>
    <path id="パス_1164" data-name="パス 1164" d="M23.214-13.038v3.445H8.374a43.9,43.9,0,0,1-5.83-.265v5.883a49.417,49.417,0,0,1,6.307-.318H23.214V-.848A28.383,28.383,0,0,1,22.9,4.505h6.519a24.416,24.416,0,0,1-.371-5.353V-4.293H43.937a49.767,49.767,0,0,1,6.36.318V-9.858a41.608,41.608,0,0,1-5.777.265H29.044v-3.445h11.13c2.173,0,3.763.053,5.618.159a48.138,48.138,0,0,1-.212-5.459V-29.362a48.928,48.928,0,0,1,.212-5.618,47.755,47.755,0,0,1-5.618.212,83.066,83.066,0,0,0,5.035-7.473l-6.2-1.961a39.385,39.385,0,0,1-5.194,9.434H13.727l4.028-1.7a40.646,40.646,0,0,0-5.247-7.473L7.261-41.711a29.29,29.29,0,0,1,4.717,6.943A37.258,37.258,0,0,1,7.1-34.98a51.351,51.351,0,0,1,.212,5.618v11.183a51.173,51.173,0,0,1-.212,5.3c1.8-.106,3.233-.159,5.618-.159Zm5.83-13.356V-30H39.909v3.6Zm-5.83,0H12.985V-30H23.214Zm5.83,8.533v-4.081H39.909v4.081Zm-5.83,0H12.985v-4.081H23.214Zm7.314-19.133a39.721,39.721,0,0,0-4.293-7.844L20.776-43.3a33.143,33.143,0,0,1,4.134,8.215ZM71.444-8.957a20.38,20.38,0,0,1,3.127,4.346,37.915,37.915,0,0,0,5.565-5.777v4.982A26.26,26.26,0,0,1,83.9-5.618h3.71v4.24A42.289,42.289,0,0,1,87.238,4.4h6.307a40.71,40.71,0,0,1-.371-5.777v-4.24h3.975a26.42,26.42,0,0,1,3.869.212v-5.035a52.075,52.075,0,0,0,5.936,6.148,26.308,26.308,0,0,1,3.657-5.459A42.1,42.1,0,0,1,101.6-18.6a46.208,46.208,0,0,1-6.2-10.653h7.791a52.82,52.82,0,0,1,5.936.318v-5.989a50.46,50.46,0,0,1-6.1.318H93.227v-4.77a37.727,37.727,0,0,1,.318-5.035H87.238a30.173,30.173,0,0,1,.371,4.982v4.823H79.871c-2.067,0-4.134-.106-5.777-.265v5.936a49.207,49.207,0,0,1,5.618-.318h5.671A45.337,45.337,0,0,1,71.444-10.07V-30.846a115.029,115.029,0,0,0,4.982-12.4l-5.883-1.59a44.378,44.378,0,0,1-11.13,21.677,31.183,31.183,0,0,1,2.332,6.413,29.515,29.515,0,0,0,4.134-5.671c-.106,2.332-.106,3.18-.106,5.989V-1.8a51.726,51.726,0,0,1-.318,6.2h6.254a47.772,47.772,0,0,1-.265-6.148Zm21.73-1.855v-6.625c0-2.12,0-3.392-.106-6.36a57.59,57.59,0,0,0,7.526,12.826,34.932,34.932,0,0,1-3.551.159Zm-5.565,0h-3.5a31.74,31.74,0,0,1-3.5-.159,46.9,46.9,0,0,0,7.1-12.667c-.106,2.491-.106,3.6-.106,6.36Zm51.622-24.539v7.738h7.738v-7.738Zm0,22.684v7.738h7.738v-7.738ZM199.916-60a5.032,5.032,0,0,0-1.59-3.763,5.171,5.171,0,0,0-3.71-1.537,5.171,5.171,0,0,0-3.71,1.537A5.032,5.032,0,0,0,189.316-60v11.024a5.032,5.032,0,0,0,1.59,3.763,5.171,5.171,0,0,0,3.71,1.537,5.171,5.171,0,0,0,3.71-1.537,5.032,5.032,0,0,0,1.59-3.763ZM178.5-55.756q0-3.074.212-5.247a17.293,17.293,0,0,1,.742-3.763,17.87,17.87,0,0,1,1.219-2.862,20.052,20.052,0,0,1,1.749-2.65,14.609,14.609,0,0,1,5.3-4.293,15.623,15.623,0,0,1,6.89-1.537,15.623,15.623,0,0,1,6.89,1.537,14.609,14.609,0,0,1,5.3,4.293,25.234,25.234,0,0,1,1.8,2.65,15.215,15.215,0,0,1,1.272,2.862A15.562,15.562,0,0,1,210.569-61q.159,2.173.159,5.247,0,3.392-.106,5.724a17.516,17.516,0,0,1-.636,4.134,9.646,9.646,0,0,1-1.643,3.233,20.223,20.223,0,0,1-3.021,3.021,16.093,16.093,0,0,1,3.021,2.968,10,10,0,0,1,1.643,3.5,22.952,22.952,0,0,1,.636,4.929q.106,2.915.106,7.155,0,3.5-.159,5.777a35.109,35.109,0,0,1-.477,3.975,10.925,10.925,0,0,1-.9,2.862,22.832,22.832,0,0,1-1.431,2.438,15.3,15.3,0,0,1-5.088,4.717A15.465,15.465,0,0,1,194.616.636a15.465,15.465,0,0,1-8.056-1.961,15.3,15.3,0,0,1-5.088-4.717,22.832,22.832,0,0,1-1.431-2.438,10.924,10.924,0,0,1-.9-2.862,35.109,35.109,0,0,1-.477-3.975q-.159-2.279-.159-5.777,0-4.24.106-7.155a22.952,22.952,0,0,1,.636-4.929,10,10,0,0,1,1.643-3.5,16.094,16.094,0,0,1,3.021-2.968,20.225,20.225,0,0,1-3.021-3.021,9.646,9.646,0,0,1-1.643-3.233,17.516,17.516,0,0,1-.636-4.134Q178.5-52.364,178.5-55.756Zm21.412,25.44a5.032,5.032,0,0,0-1.59-3.763,5.171,5.171,0,0,0-3.71-1.537,5.171,5.171,0,0,0-3.71,1.537,5.032,5.032,0,0,0-1.59,3.763v14.84a5.032,5.032,0,0,0,1.59,3.763,5.171,5.171,0,0,0,3.71,1.537,5.171,5.171,0,0,0,3.71-1.537,5.032,5.032,0,0,0,1.59-3.763ZM232.458,0l12.3-31.694-.212-.212a4.237,4.237,0,0,1-1.643.689,13,13,0,0,1-2.915.265,10.59,10.59,0,0,1-5.3-1.378,10.757,10.757,0,0,1-3.816-3.5,9.261,9.261,0,0,1-1.166-2.279,14.653,14.653,0,0,1-.636-3.127,38.782,38.782,0,0,1-.424-4.823q-.106-2.915-.106-7.367,0-3.71.106-6.1a29.681,29.681,0,0,1,.424-4.081,11.214,11.214,0,0,1,.689-2.756,19.587,19.587,0,0,1,1.219-2.438,14.621,14.621,0,0,1,5.671-5.406,16.637,16.637,0,0,1,8-1.908,15.976,15.976,0,0,1,7.95,1.961,15.4,15.4,0,0,1,5.618,5.353,27.2,27.2,0,0,1,1.272,2.438,12.7,12.7,0,0,1,.848,2.756q.212,1.7.318,4.081t.106,6.1q0,3.5-.106,5.777t-.318,3.869q-.318,1.7-.689,3.021t-.9,2.809L244.542,0Zm6.89-45.9a5.112,5.112,0,0,0,1.59,3.922,5.266,5.266,0,0,0,3.71,1.484,5.266,5.266,0,0,0,3.71-1.484,5.112,5.112,0,0,0,1.59-3.922V-59.89a5.112,5.112,0,0,0-1.59-3.922,5.266,5.266,0,0,0-3.71-1.484,5.266,5.266,0,0,0-3.71,1.484,5.112,5.112,0,0,0-1.59,3.922Zm50.191,17.967a38.807,38.807,0,0,1,6.466,5.565c-2.862,1.908-4.611,3.021-6.307,3.975a77.124,77.124,0,0,1-12.72,5.406,14.6,14.6,0,0,1,3.392,5.3,87.949,87.949,0,0,0,10.07-4.77v11.5a39.866,39.866,0,0,1-.318,5.247h6.148V1.431h20.246V4.293h6.042a35.571,35.571,0,0,1-.318-5.247V-14.575a32.035,32.035,0,0,1,.265-4.876,32.625,32.625,0,0,1-4.452.212H300.881a70.617,70.617,0,0,0,15.953-15.317c1.219-1.59,1.272-1.643,1.908-2.438l-3.127-3.339a29.117,29.117,0,0,1-4.664.265H300.086c.9-1.219,1.378-1.855,2.756-3.869l-6.254-1.537c-3.127,6.519-10.123,12.879-18.815,17.119a13.239,13.239,0,0,1,3.6,4.452,54.959,54.959,0,0,0,14.31-11.024h13.939a55.067,55.067,0,0,1-9.063,9.169,46.108,46.108,0,0,0-6.625-5.3Zm6.678,13.886h20.352V-3.6H296.217Z" transform="translate(393.149 4140.828)" fill="#0052aa"/>
    <path id="パス_1165" data-name="パス 1165" d="M30.1-35.881v2.544H22.525a34.474,34.474,0,0,1-4.346-.212,28.243,28.243,0,0,1,.212,3.763V-18.55a28.342,28.342,0,0,1-.212,3.869c1.325-.106,2.809-.159,4.4-.159H30.1V-12.3H21.677a37.627,37.627,0,0,1-5.247-.212V-7.42a48.179,48.179,0,0,1,5.247-.212H30.1a26.408,26.408,0,0,1-.371,4.452h5.936a28.822,28.822,0,0,1-.318-4.452h9.7a33.076,33.076,0,0,1,5.3.265v-5.141a41.69,41.69,0,0,1-5.3.212h-9.7V-14.84h8.215c1.749,0,2.915.053,4.4.159a26.886,26.886,0,0,1-.212-3.869V-29.468a30.141,30.141,0,0,1,.212-4.081,36.488,36.488,0,0,1-4.4.212H35.351v-2.544h9.434a32.616,32.616,0,0,1,5.353.265v-5.247A59.183,59.183,0,0,1,44.1-40.6H35.351a27.436,27.436,0,0,1,.318-3.975H29.733a28.091,28.091,0,0,1,.318,3.975h-8a43.635,43.635,0,0,1-5.989-.265v5.247a20.271,20.271,0,0,1,4.346-.265Zm0,6.784v2.968H23.585V-29.1Zm5.247,0H42.4v2.968H35.351ZM30.1-22.207v3.074H23.585v-3.074Zm5.247,0H42.4v3.074H35.351ZM2.491-40.174a53.461,53.461,0,0,1,9.01,9.911l4.452-4.293A66.3,66.3,0,0,0,6.731-44.1ZM2.385-18.656a19.665,19.665,0,0,1,3.551-.265H8.851v11.5A31.675,31.675,0,0,1,1.325-2.279l2.6,6.042c.477-.424.954-.742,1.537-1.219a51.423,51.423,0,0,0,6.2-5.088,11.553,11.553,0,0,0,4.664,3.816C19.663,2.915,22.631,3.286,31.8,3.286c6.307,0,13.992-.106,18.444-.318a25.211,25.211,0,0,1,1.59-6.254c-5.724.8-12.031,1.06-22.684,1.06-6.625,0-9.7-.583-12.3-2.279a7.444,7.444,0,0,1-2.438-2.756V-18.6a53.4,53.4,0,0,1,.212-5.777,24.1,24.1,0,0,1-4.028.265H6.625a23.7,23.7,0,0,1-4.24-.265ZM61-16.642l7.844-.53V-1.219A33.049,33.049,0,0,1,68.529,4.4h5.883a32.012,32.012,0,0,1-.318-5.565V-17.6c2.067-.159,2.067-.159,3.71-.318.212.742.318,1.166.583,2.279l4.187-1.7a54.982,54.982,0,0,0-3.816-10.706l-3.922,1.59a28.012,28.012,0,0,1,1.537,3.869c-2.226.212-3.233.265-5.83.424,2.332-3.021,4.4-6.042,7.632-11.077.848-1.378,1.166-1.8,1.855-2.756l-4.823-2.7c-1.113,2.65-1.431,3.233-4.876,8.8-.954-1.166-1.166-1.431-2.067-2.438a67.6,67.6,0,0,0,4.982-8.692,10.237,10.237,0,0,1,1.113-1.961L69.112-45.05a33.445,33.445,0,0,1-4.187,9.116l-1.59-1.7-2.915,4.4a61.971,61.971,0,0,1,7,7.791c-.954,1.325-1.166,1.643-2.491,3.392H63.918c-1.378,0-2.067-.053-3.5-.159ZM91.8-32.383v6.095H88.3a56.18,56.18,0,0,1-5.724-.265v5.671c1.643-.159,3.71-.265,5.618-.265h14.1a44.4,44.4,0,0,1,5.671.318v-5.724a55.4,55.4,0,0,1-5.724.265H97.361v-6.095H103.4a46.192,46.192,0,0,1,5.883.318v-5.724a42.845,42.845,0,0,1-5.883.318H97.361v-2.7a23.414,23.414,0,0,1,.318-4.134h-6.2A23.43,23.43,0,0,1,91.8-40.28v2.809H86.92a41.991,41.991,0,0,1-5.83-.318v5.724a41.671,41.671,0,0,1,5.777-.318Zm-29.2,17.808c-.265,7-.848,10.335-2.279,14.151L65.084,1.8c1.378-4.4,1.908-8.215,2.279-15.529Zm12.932.689A74.678,74.678,0,0,1,76.9-1.166l4.5-.848A96.49,96.49,0,0,0,79.659-14.84Zm13.2,15.529h12.3v2.6h5.83c-.159-1.537-.265-3.551-.265-5.618V-12.084a39.438,39.438,0,0,1,.212-5.088,34.146,34.146,0,0,1-4.664.212H87.715A38.738,38.738,0,0,1,83-17.172a40.507,40.507,0,0,1,.212,5.088V-.9a36.226,36.226,0,0,1-.265,5.194h5.777Zm0-13.568h12.3v8.48h-12.3Zm50.509-23.426v7.738h7.738v-7.738Zm0,22.684v7.738h7.738v-7.738Zm52.1-31.005q4.876,0,6.731-1.166t1.855-5.406V-60a5.27,5.27,0,0,0-1.431-3.816,5.124,5.124,0,0,0-3.869-1.484,4.564,4.564,0,0,0-4.081,1.8,6.259,6.259,0,0,0-1.219,3.5v6.148H178.5V-60.1a15.711,15.711,0,0,1,1.272-6.254,15.206,15.206,0,0,1,3.5-5.088,17.383,17.383,0,0,1,5.194-3.392,15.973,15.973,0,0,1,6.36-1.272,14.125,14.125,0,0,1,7.367,1.749,16.964,16.964,0,0,1,4.4,3.551,23.16,23.16,0,0,1,1.855,2.544,12.38,12.38,0,0,1,1.325,3.074,42.267,42.267,0,0,1,.954,10.388q0,3.922-.159,6.36a13.3,13.3,0,0,1-.8,4.028,8.056,8.056,0,0,1-2.067,2.862,24.515,24.515,0,0,1-3.657,2.544,20.534,20.534,0,0,1,3.869,2.968,8.728,8.728,0,0,1,1.961,3.18,16.426,16.426,0,0,1,.742,4.5q.106,2.6.106,6.625,0,3.71-.159,6.148a31.635,31.635,0,0,1-.477,4.028,12.565,12.565,0,0,1-.848,2.862,17.448,17.448,0,0,1-1.378,2.438,17.127,17.127,0,0,1-5.141,4.929A15.283,15.283,0,0,1,194.51.636,19.056,19.056,0,0,1,189.1-.212a14.739,14.739,0,0,1-5.194-2.756,14.963,14.963,0,0,1-3.869-4.982,16.707,16.707,0,0,1-1.537-7.526v-6.148h10.812v5.618a6.144,6.144,0,0,0,1.431,4.187,4.869,4.869,0,0,0,3.869,1.643,4.869,4.869,0,0,0,3.869-1.643,6.462,6.462,0,0,0,1.431-4.4V-27.03q0-4.452-1.7-5.83a4.716,4.716,0,0,0-2.6-1.06,34.9,34.9,0,0,0-4.293-.212Zm50.032,0q4.876,0,6.731-1.166t1.855-5.406V-60a5.27,5.27,0,0,0-1.431-3.816,5.124,5.124,0,0,0-3.869-1.484,4.564,4.564,0,0,0-4.081,1.8,6.259,6.259,0,0,0-1.219,3.5v6.148H228.536V-60.1a15.711,15.711,0,0,1,1.272-6.254,15.206,15.206,0,0,1,3.5-5.088,17.383,17.383,0,0,1,5.194-3.392,15.973,15.973,0,0,1,6.36-1.272,14.125,14.125,0,0,1,7.367,1.749,16.964,16.964,0,0,1,4.4,3.551,23.161,23.161,0,0,1,1.855,2.544,12.38,12.38,0,0,1,1.325,3.074A42.266,42.266,0,0,1,260.76-54.8q0,3.922-.159,6.36a13.3,13.3,0,0,1-.8,4.028,8.056,8.056,0,0,1-2.067,2.862,24.514,24.514,0,0,1-3.657,2.544,20.534,20.534,0,0,1,3.869,2.968,8.728,8.728,0,0,1,1.961,3.18,16.426,16.426,0,0,1,.742,4.5q.106,2.6.106,6.625,0,3.71-.159,6.148a31.631,31.631,0,0,1-.477,4.028,12.565,12.565,0,0,1-.848,2.862A17.446,17.446,0,0,1,257.9-6.254a17.127,17.127,0,0,1-5.141,4.929A15.283,15.283,0,0,1,244.542.636a19.056,19.056,0,0,1-5.406-.848,14.739,14.739,0,0,1-5.194-2.756,14.963,14.963,0,0,1-3.869-4.982,16.707,16.707,0,0,1-1.537-7.526v-6.148h10.812v5.618a6.144,6.144,0,0,0,1.431,4.187,4.869,4.869,0,0,0,3.869,1.643,4.869,4.869,0,0,0,3.869-1.643,6.462,6.462,0,0,0,1.431-4.4V-27.03q0-4.452-1.7-5.83a4.716,4.716,0,0,0-2.6-1.06,34.9,34.9,0,0,0-4.293-.212ZM278.568-59.89a16.484,16.484,0,0,1,1.325-6.784,15.874,15.874,0,0,1,3.551-5.088,15.277,15.277,0,0,1,5.141-3.233,16.942,16.942,0,0,1,6.1-1.113,16.942,16.942,0,0,1,6.1,1.113,15.277,15.277,0,0,1,5.141,3.233,15.874,15.874,0,0,1,3.551,5.088,16.484,16.484,0,0,1,1.325,6.784v44.308A16.484,16.484,0,0,1,309.467-8.8a15.873,15.873,0,0,1-3.551,5.088,15.277,15.277,0,0,1-5.141,3.233,16.942,16.942,0,0,1-6.1,1.113,16.942,16.942,0,0,1-6.1-1.113,15.277,15.277,0,0,1-5.141-3.233A15.873,15.873,0,0,1,279.893-8.8a16.484,16.484,0,0,1-1.325-6.784ZM289.38-15.582a5.346,5.346,0,0,0,1.484,3.869,5.071,5.071,0,0,0,3.816,1.537,5.071,5.071,0,0,0,3.816-1.537,5.346,5.346,0,0,0,1.484-3.869V-59.89a5.346,5.346,0,0,0-1.484-3.869A5.071,5.071,0,0,0,294.68-65.3a5.071,5.071,0,0,0-3.816,1.537,5.346,5.346,0,0,0-1.484,3.869Zm50.191-12.349a38.805,38.805,0,0,1,6.466,5.565c-2.862,1.908-4.611,3.021-6.307,3.975a77.124,77.124,0,0,1-12.72,5.406,14.6,14.6,0,0,1,3.392,5.3,87.949,87.949,0,0,0,10.07-4.77v11.5a39.866,39.866,0,0,1-.318,5.247H346.3V1.431h20.246V4.293h6.042a35.571,35.571,0,0,1-.318-5.247V-14.575a32.039,32.039,0,0,1,.265-4.876,32.624,32.624,0,0,1-4.452.212H350.913a70.617,70.617,0,0,0,15.953-15.317c1.219-1.59,1.272-1.643,1.908-2.438l-3.127-3.339a29.117,29.117,0,0,1-4.664.265H350.118c.9-1.219,1.378-1.855,2.756-3.869l-6.254-1.537C343.493-38.955,336.5-32.6,327.8-28.355a13.239,13.239,0,0,1,3.6,4.452,54.959,54.959,0,0,0,14.31-11.024h13.939a55.067,55.067,0,0,1-9.063,9.169,46.108,46.108,0,0,0-6.625-5.3Zm6.678,13.886H366.6V-3.6H346.249Z" transform="translate(393.38 4254.029)" fill="#0052aa"/>
    <g transform="matrix(1, 0, 0, 1, 288.65, 3938.07)" filter="url(#長方形_216)">
      <rect id="長方形_216-2" data-name="長方形 216" width="206" height="72" transform="translate(36.35 54.93)" fill="url(#linear-gradient-2)"/>
    </g>
    <path id="パス_1163" data-name="パス 1163" d="M11.15-15.6a17.04,17.04,0,0,1-2.475-.125v2.7a20.166,20.166,0,0,1,2.675-.125h3.1V-2.825A7.243,7.243,0,0,1,11.75-6a32.392,32.392,0,0,0,.45-3.325c.075-.725.125-1,.2-1.425l-2.8-.375a4.056,4.056,0,0,1,.025.575,22.247,22.247,0,0,1-.65,4.925A15.42,15.42,0,0,1,6.525-.1a8.954,8.954,0,0,1,2.125,2,19.248,19.248,0,0,0,2.325-4.875,8.7,8.7,0,0,0,2.5,2.55c1.9,1.25,4.6,1.875,8.075,1.875.15,0,.85,0,2.05-.025a14.908,14.908,0,0,1,.725-2.9c-1.625.1-2.375.125-3.25.125a16.212,16.212,0,0,1-3.925-.4V-6.825h3.1a19.132,19.132,0,0,1,2.525.125V-9.375A17.68,17.68,0,0,1,20.3-9.25H17.15v-3.9H21a21.918,21.918,0,0,1,2.65.125v-2.7a17.373,17.373,0,0,1-2.525.125h-1.95a30.374,30.374,0,0,0,2.45-4.5l-2.75-.85a20.569,20.569,0,0,1-2.55,5.35h-3.3l1.95-.925a20.738,20.738,0,0,0-2.8-4.45L9.85-19.825a15.078,15.078,0,0,1,2.5,4.225ZM6.125-21.175a14.393,14.393,0,0,1-5.3,4.8A10.77,10.77,0,0,1,2.25-14.05,25.29,25.29,0,0,0,7.9-19.025a4.508,4.508,0,0,1,.45-.5ZM3.575-.825a23.665,23.665,0,0,1-.15,2.9h2.9a28.911,28.911,0,0,1-.1-2.925v-9.9A20.4,20.4,0,0,0,7.6-12.65a11.991,11.991,0,0,1,.825-1.2L6.15-15.425A16.508,16.508,0,0,1,.6-8.975a11.5,11.5,0,0,1,1.125,2.75A12.3,12.3,0,0,0,3.625-8.1c-.05,1.65-.05,1.8-.05,2.875ZM41-11v1.2H36.05a17.752,17.752,0,0,1-2.55-.125v2.25A17.966,17.966,0,0,1,36.05-7.8H41v1.25H34.375a23.206,23.206,0,0,1-3-.15v2.5A27.481,27.481,0,0,1,34.4-4.35h4.65A17.972,17.972,0,0,1,30.875-.8,10.233,10.233,0,0,1,32.4,1.6,24.187,24.187,0,0,0,37.5-.5a13.9,13.9,0,0,0,3.6-2.75,16.833,16.833,0,0,0-.075,1.7v1.2a18.659,18.659,0,0,1-.15,2.55h2.95A14.224,14.224,0,0,1,43.65-.325V-1.55a17.112,17.112,0,0,0-.075-1.775c2.25,2.275,5.075,3.8,9.275,4.95a9.9,9.9,0,0,1,1.425-2.55,21.457,21.457,0,0,1-5.2-1.425,12.978,12.978,0,0,1-3.4-2H50.7a27.007,27.007,0,0,1,3,.15V-6.7a22.081,22.081,0,0,1-3.025.15H43.7V-7.8h5.225a18.352,18.352,0,0,1,2.575.125v-2.25a18.136,18.136,0,0,1-2.575.125H43.7V-11h6.525a18.352,18.352,0,0,1,2.575.125V-13.25a22.99,22.99,0,0,1-2.575.1h-2.9c.35-.625.45-.85.925-1.85h2.5c1.225,0,2.2.05,2.975.125v-2.5a20.272,20.272,0,0,1-2.825.15h-.7c.55-.775.95-1.4,1.55-2.4l-2.575-.95a13.34,13.34,0,0,1-1.8,3.35H45.8V-19a13.126,13.126,0,0,1,.125-1.95H43.2a17.806,17.806,0,0,1,.075,1.85v1.875H41.5V-19.1a16.837,16.837,0,0,1,.075-1.85H38.85A13.9,13.9,0,0,1,38.975-19v1.775H37.55A17.675,17.675,0,0,0,35.625-20.5l-2.5.95a10.567,10.567,0,0,1,1.7,2.325h-.8a21.185,21.185,0,0,1-2.85-.15v2.5c.8-.075,1.75-.125,2.975-.125h2.7c.275.475.55,1.05.925,1.85H34.75a22.707,22.707,0,0,1-2.575-.1v2.375A18.57,18.57,0,0,1,34.75-11Zm-.575-2.15a15.957,15.957,0,0,0-.75-1.85h5.7a14.58,14.58,0,0,1-.825,1.85Zm27.3,10.9c-1.8,1.025-3.525,1.525-7.1,2.075A8.064,8.064,0,0,1,62.15,2.3a29.69,29.69,0,0,0,3.825-1,21.754,21.754,0,0,0,4.55-2.225L68.95-2.25h6.8L74.4-1.025a18.808,18.808,0,0,0,8.35,3.35A8.38,8.38,0,0,1,84.3-.125,19.829,19.829,0,0,1,77.1-2.25h2c1.25,0,2.025.025,2.8.1a4.386,4.386,0,0,1-.075-1c0-.1-.025-.65-.025-1.625V-11.1a22.473,22.473,0,0,1,.1-2.675c-.875.075-1.575.1-2.8.1H65.8c-1.175,0-2.025-.025-2.775-.1a24.739,24.739,0,0,1,.1,2.675v6.325c0,1.25-.05,2-.1,2.625.8-.075,1.525-.1,2.775-.1ZM65.8-11.6H79.1v1.15H65.8Zm0,3.025H79.1v1.15H65.8Zm0,3.025H79.1v1.225H65.8ZM80.875-18.5a15.2,15.2,0,0,1,.1-1.925,21.727,21.727,0,0,1-2.825.125H66.8a22.152,22.152,0,0,1-2.85-.125,12.449,12.449,0,0,1,.125,1.925v1.925c0,.675-.05,1.25-.1,1.875.75-.05,1.625-.075,2.75-.075H78.25c1.1,0,1.95.025,2.7.075-.05-.575-.075-1.125-.075-1.875Zm-2.775.325V-16.8H66.825v-1.375Zm36.125,1.35a13.539,13.539,0,0,1-2.35.125h-4.35c.275-.975.5-1.825.65-2.475.2-.85.25-1.075.35-1.375l-2.75-.55a18.121,18.121,0,0,1-.6,3.4,18.353,18.353,0,0,1-3.375,7.2,8.773,8.773,0,0,1,1.8,1.8c.525-.7.7-.95,1.15-1.65a17.064,17.064,0,0,0,2.1,5.875A15.519,15.519,0,0,1,103.3-1.35a15.275,15.275,0,0,1-1.975,1.075,7.73,7.73,0,0,1,1.35,2.5A19.393,19.393,0,0,0,108.35-2.25a17.119,17.119,0,0,0,4.875,4.3,11.464,11.464,0,0,1,1.45-2.65,13.29,13.29,0,0,1-4.75-3.9,20.433,20.433,0,0,0,2.55-9.8,12.773,12.773,0,0,1,1.75.1Zm-4.3,2.525a18.1,18.1,0,0,1-1.55,7.35,19.663,19.663,0,0,1-2-6.575c.125-.325.125-.325.325-.775Zm-7.85,12.625A12.937,12.937,0,0,0,100.05-2.8a9.284,9.284,0,0,0,1.5-3.2,9.877,9.877,0,0,1,2.025.125V-8.4a8.84,8.84,0,0,1-1.85.125h-3.95c.2-.475.3-.65.525-1.275l-2.6-.5a18.09,18.09,0,0,1-.65,1.775H93.175A10.39,10.39,0,0,1,91.2-8.4v2.525A10.714,10.714,0,0,1,93.175-6H93.9a20.906,20.906,0,0,1-1.625,2.475c1.775.65,2.45.925,3.7,1.475A13.671,13.671,0,0,1,91.025-.2a10.919,10.919,0,0,1,1.3,2.3A13.113,13.113,0,0,0,98.3-.875,13.321,13.321,0,0,1,100.625.65ZM98.95-6a6.448,6.448,0,0,1-1.125,2.225c-.75-.325-1.075-.45-2.125-.825.45-.675.525-.8.875-1.4Zm-.1-10.35v-3a9.823,9.823,0,0,1,.1-1.65H96.225a7.99,7.99,0,0,1,.125,1.7v2.95H93.375a11.9,11.9,0,0,1-2.1-.125v2.4A11.758,11.758,0,0,1,93.35-14.2H94.7a9.992,9.992,0,0,1-4,3.125A8.5,8.5,0,0,1,92.325-9,14.2,14.2,0,0,0,96.4-12.925c-.05.45-.075.85-.075,1.075v.95a4.6,4.6,0,0,1-.075.825h2.675a3.749,3.749,0,0,1-.1-.925v-.9c0-.2-.025-.5-.075-1.025a9.059,9.059,0,0,0,2.225,2.375,8.04,8.04,0,0,1,1.45-2.05,6.766,6.766,0,0,1-2.2-1.6H101.9a12.036,12.036,0,0,1,1.6.075v-2.3a11.529,11.529,0,0,1-1.6.075Zm-6.95-3.6a12.966,12.966,0,0,1,1.675,3.325l2.2-.825a12.469,12.469,0,0,0-1.75-3.3Zm9.2-.85a12.359,12.359,0,0,1-1.775,3.35l2.125.95a21.527,21.527,0,0,0,1.9-3.375Z" transform="translate(372.38 4038.136)" fill="#fff"/>
  </g>
</svg>
