<svg xmlns="http://www.w3.org/2000/svg" xmlns:xlink="http://www.w3.org/1999/xlink" width="692.19" height="333.867" viewBox="0 0 692.19 333.867">
  <defs>
    <linearGradient id="linear-gradient" y1="0.5" x2="1" y2="0.5" gradientUnits="objectBoundingBox">
      <stop offset="0" stop-color="#03a8e5"/>
      <stop offset="1" stop-color="#012869"/>
    </linearGradient>
    <filter id="パス_301" x="0" y="32" width="692.19" height="301.867" filterUnits="userSpaceOnUse">
      <feOffset dx="10" dy="10" input="SourceAlpha"/>
      <feGaussianBlur stdDeviation="15" result="blur"/>
      <feFlood flood-opacity="0.161"/>
      <feComposite operator="in" in2="blur"/>
      <feComposite in="SourceGraphic"/>
    </filter>
    <linearGradient id="linear-gradient-2" x1="-0.03" xlink:href="#linear-gradient"/>
    <filter id="長方形_209" x="382.168" y="31" width="269" height="110" filterUnits="userSpaceOnUse">
      <feOffset input="SourceAlpha"/>
      <feGaussianBlur stdDeviation="5" result="blur-2"/>
      <feFlood flood-color="#013778" flood-opacity="0.322"/>
      <feComposite operator="in" in2="blur-2"/>
      <feComposite in="SourceGraphic"/>
    </filter>
  </defs>
  <g id="平均勤続年数" transform="translate(-954.832 -2498)">
    <g id="グループ_223" data-name="グループ 223" transform="translate(460.062 191)">
      <g transform="matrix(1, 0, 0, 1, 494.77, 2307)" filter="url(#パス_301)">
        <path id="パス_301-2" data-name="パス 301" d="M0,0H602.19V211.867H0Z" transform="translate(35 67)" fill="url(#linear-gradient)"/>
      </g>
      <path id="パス_302" data-name="パス 302" d="M0,0H594.19V203.867H0Z" transform="translate(533.568 2378)" fill="#edf9ff"/>
    </g>
    <path id="パス_1151" data-name="パス 1151" d="M19.53,0V-76.1L6.678-66.654V-80.262l12.852-9.45H32.382V0ZM79,0V-76.1L66.15-66.654V-80.262L79-89.712H91.854V0Zm45.234,0V-12.852h12.852V0Zm73.332-89.712v12.1H172.116v24.192a14.4,14.4,0,0,1,4.536-2.961,15.418,15.418,0,0,1,6.174-1.2,14.655,14.655,0,0,1,10.647,3.969q4.095,3.969,4.1,11.907v23.184a19.594,19.594,0,0,1-1.575,8.064,18.869,18.869,0,0,1-4.221,6.048,18.16,18.16,0,0,1-6.111,3.843A20.139,20.139,0,0,1,178.416.756a20.139,20.139,0,0,1-7.245-1.323A18.16,18.16,0,0,1,165.06-4.41a18.869,18.869,0,0,1-4.221-6.048,19.594,19.594,0,0,1-1.575-8.064V-22.3h12.852v3.276a6.9,6.9,0,0,0,1.827,5.1,6.394,6.394,0,0,0,4.725,1.827,5.684,5.684,0,0,0,4.473-1.764,7.122,7.122,0,0,0,1.575-4.914V-39.816a6.547,6.547,0,0,0-1.7-4.536,5.587,5.587,0,0,0-4.347-1.89,6.152,6.152,0,0,0-2.772.567,7.194,7.194,0,0,0-1.89,1.323,5.232,5.232,0,0,0-1.134,1.638q-.63,1.134-.756,1.386h-11.34V-89.712Zm25.746,79.3h-2.142a35.2,35.2,0,0,1-4.578-.252V-5.88a36.119,36.119,0,0,1,4.578-.252h14.112V-.966a30.61,30.61,0,0,1-.252,4.578h5.124A25.292,25.292,0,0,1,239.9-.882v-5.25h9.744a35.655,35.655,0,0,1,4.578.252v-4.788a34.308,34.308,0,0,1-4.578.252H239.9v-6.8h6.888a39.526,39.526,0,0,1,4.2.168V-21.5a30.831,30.831,0,0,1-4.326.21H239.9v-5.46h8.568a30.911,30.911,0,0,1,4.284.21v-4.578a29.824,29.824,0,0,1-4.284.21H228.816c.756-1.638,1.176-2.52,1.218-2.646.294-.63.378-.756.63-1.26l-5-1.008a12.132,12.132,0,0,1-1.008,3.066c-1.722,4.116-3.906,6.888-8.19,10.542a18.385,18.385,0,0,1,3.108,3.738,38.728,38.728,0,0,0,6.93-8.274h8.778v5.46h-9.156c-1.134,0-2.058-.042-2.94-.126a23.056,23.056,0,0,1,.126,2.436Zm4.41,0v-6.8h7.56v6.8Z" transform="translate(1251 2741)" fill="#0052aa"/>
    <path id="人" d="M3882.913,5999.108c.128,2.556,1.791,23.386,1.917,27.986-1.277-4.346-1.789-9.841-2.172-12.651a89.711,89.711,0,0,1,.255-15.335m15.667,52.067a1.728,1.728,0,0,0-1.028-1.763,2.768,2.768,0,0,0,.858-1.311,3.854,3.854,0,0,0,.08-2.653,29.384,29.384,0,0,1-1-3.456l.4-.335v-2.391s.774-.352.744-.544c.585-10-1-20.844-1.114-30.708-.075-6.736-.663-13.237-1.334-19.854-.336-3.283-.81-6.62-.956-9.739a40.966,40.966,0,0,0-1.528-9.166c.054.206-.918-3.148-.948-3.308a31.815,31.815,0,0,0-1.343-4.331c-.382-1.083-.417-3.111-1.137-3.962-1.594-1.883-5.552-2.253-7.637-3.294-2.392-1.191-4.624-2.5-7.07-3.634-1.843-.854-4.715-3.756-6.661-3.84-.691-1.329-1.077-2.1-1.679-3.158-.91,0-1.125-6.621-.974-7.919.375-.093.519-.295,1.07-.9a7.915,7.915,0,0,0,.706-3.149c.263-2.306.492-5.155-.858-5.014.763-2.461.43-4.248-.16-6.991-.226-1.055.052-2.79-.457-3.733a26.336,26.336,0,0,0-1.579-2.149c-.172-.063-1.164-.917-1.342-.959-.407-.657-.98-.557-1.475-.947a12.645,12.645,0,0,0-3.21-.953,7.544,7.544,0,0,0-3.819-.191c-1.8-.4-7.752,2.195-9.417,6.836-.745,2.078-.727,10.23.9,11.181-.995.42-.37,2-.37,3.052a8.343,8.343,0,0,0-1.613,3.183c-2.51-.26-4.825-.377-5.145,1.848a2.72,2.72,0,0,0-1.758,2.7c-4.116,1.4-2.515,6.485-3.8,9.614a28.9,28.9,0,0,0,7.587,3.834c-.287,1.086-.606,2.779-1.453,3.163-2.1-.271-7.106-3.683-8.577-4.84-2.013,1.533-9.194,14.075-10.1,15.993a52.942,52.942,0,0,0-3.337,7.362c-.923,3.062-2.419,5.754-2.631,9.018a6.868,6.868,0,0,0,2.339,5.49c1.835,1.856,3.306,1.706,5.726,1.237a20.944,20.944,0,0,0,5.823-2.2c.74-.384,1.5-1,2.3-1.333a20.873,20.873,0,0,0,2.759-1.595,66.87,66.87,0,0,1,.727,12.146c-.159,3.175.816,6.237.339,9.314-.953,6.134-.2,12.689-1.094,18.947-.463,3.234-.591,6.6-.923,9.929-.3,3,.159,6.741-.781,9.5a21.407,21.407,0,0,0,5.633,1.861c.546,3.073.483,9.5.634,12.7.155,3.279.583,6.445.583,9.786,0,6.946-.631,13.7-.955,20.423-.337,6.994.851,14.26.188,21.146a101,101,0,0,0-.76,10.127c0,3.5-.768,6.527-.763,9.933.007,5.949-.434,11.83-.167,17.728a2.579,2.579,0,0,1,1.079.155c-1.055.957-3.8,2.284-5.7,3.389s-3.792,2.424-4.844,3-2.37,1.791-2.37,3.054a8.325,8.325,0,0,0,.034,1.043c-.771.672-.409,2.61,1.715,2.911a37.033,37.033,0,0,0,8.415,0,21.791,21.791,0,0,0,9.109-4.106,32.29,32.29,0,0,0,7.267-1.581,3.206,3.206,0,0,0,1.895-2.316,14.543,14.543,0,0,0,.049-2.934l.612-.656a41.158,41.158,0,0,0,.474-4.411c.377-3.389,1.146-6.364,1.146-9.93,0-3.471.359-6.8.574-10.173.425-6.735,1.458-13.5,2.1-20.188s.961-8.535,1.856-15.818c.407-3.31,1.2-10.54,1.2-13.98,0-2.062.669-8.767.718-10.731.48.624,2.468,6.785,2.713,7.5.446,1.3,1.831,4.719,2.462,6.414,0,0,1.1,20.651,1.249,21.728s.691,1.306,1.537,1.384,2.692,0,2.692,0c.32,2.941,2.378,17.812,2.378,20.692,0,7,.153,13.815-.2,20.765a15.472,15.472,0,0,0,.48,4.822c.312,1.19,1.289,2.725,1.265,3.818a10.023,10.023,0,0,0,2.431.382c0,1.054-1,3.86-1.214,5.373-.117.819-.211,2.4-.244,3.894a4.552,4.552,0,0,0-.041,2.55c.373,1.734,2.606,3.548,7.63,3.548s7.667-2,8.264-3.3a7.918,7.918,0,0,0,.106-4.481c-.27-1.3-1.187-3.672-1.458-4.806s-1.5-2.686-1.543-3.789c2.678-.49,2.086-8.386,2.086-10.45,0-13.106-1.345-30.03-1.345-42.174,0,0,23.674-6.609,25.135-6.764s1.844-.691,1.767-1.768-.921-18.524-1.076-20.292-.154-3.92-.308-5.688-1.153-7.917-1.537-9.455a2.991,2.991,0,0,0-2.46-2.3,25.58,25.58,0,0,0-4.842-.155c-.921.076-10.07,1.152-10.07,1.152l-9.279.867v-2.086a1.837,1.837,0,0,0,1.96-.59,1.7,1.7,0,0,0,2.82-.839,1.444,1.444,0,0,0,1.624-.64c.544.2,1.183.591,1.183,1.182v2.3l2.069-.2Zm-47.262-106.825a25.41,25.41,0,0,1,.239,4.7c-.622.1-2.012,2.492-2.683,3.211a12.849,12.849,0,0,1-2.923,1.869c-1.1.624-3.69,1.582-4.745,2.06a18.926,18.926,0,0,1,.576-3.306,6.423,6.423,0,0,0,2.683-3.355,21.156,21.156,0,0,1,.959-2.779c.383-.815,1.309-2.6,1.836-4.089a28.475,28.475,0,0,0,.176,2.987,1.036,1.036,0,0,0,1.2.943.921.921,0,0,0,.959-1.039c0-.575.383-4.792.383-4.792a13.2,13.2,0,0,1,1.341,3.595m-5.782-3.673a5.142,5.142,0,0,0-1.118,1.6c-.289.512-.673,1.31-1.055,1.854s-.991.99-1.119.606a4.805,4.805,0,0,1,0-1.789,5.347,5.347,0,0,0,1.373-2.044c.576-.127,1.214-.1,1.918-.223" transform="translate(-2741.396 -3412.646)" fill="#9eddf6"/>
    <g transform="matrix(1, 0, 0, 1, 954.83, 2498)" filter="url(#長方形_209)">
      <rect id="長方形_209-2" data-name="長方形 209" width="239" height="80" transform="translate(397.17 46)" fill="url(#linear-gradient-2)"/>
    </g>
    <path id="パス_1150" data-name="パス 1150" d="M11.05-17.675v8.5H4.3A19.106,19.106,0,0,1,1.225-9.35v2.925A24.127,24.127,0,0,1,4.375-6.6H11.05v5.575A27.582,27.582,0,0,1,10.875,2.2H14.05a29.126,29.126,0,0,1-.175-3.225V-6.6H20.75a21.707,21.707,0,0,1,3.15.175V-9.35a18.732,18.732,0,0,1-2.975.175h-7.05v-8.5H19.8a26.081,26.081,0,0,1,3.05.15v-2.85a25.709,25.709,0,0,1-3.125.15H5.475a26.286,26.286,0,0,1-3.125-.15v2.85a26.85,26.85,0,0,1,3.075-.15Zm-7.525,1.85A22.173,22.173,0,0,1,6.475-9.8L9.05-11.1a26.533,26.533,0,0,0-3.1-5.875ZM19.05-16.95A18.553,18.553,0,0,1,15.7-10.9l2.475,1.25a27.107,27.107,0,0,0,3.45-6.125Zm15.025,2.475H33.35a12.322,12.322,0,0,1-2.15-.15v2.75A12.707,12.707,0,0,1,33.35-12h.725v7.475a14.717,14.717,0,0,1-3.1.85L31.6-.85c.675-.275.7-.3,2.025-.775a55.2,55.2,0,0,0,5.75-2.45l-.05-2.675c-1.2.6-1.6.8-2.575,1.2V-12a17.153,17.153,0,0,1,1.85.075v-.15a12.717,12.717,0,0,1,1.2,1.425,18.562,18.562,0,0,0,3.425-4.225H50.65Q50.612-4.3,49.75-1.75c-.25.725-.525.9-1.425.9a26.115,26.115,0,0,1-3.4-.325,9.352,9.352,0,0,1,.7,2.825c1.875.125,2.075.125,2.675.125a4.472,4.472,0,0,0,2.875-.625c.725-.575,1.2-1.775,1.55-3.975a90.624,90.624,0,0,0,.65-12.575,12.068,12.068,0,0,1,.1-2.2c-.5.05-1.4.1-2.325.1H44.525c.2-.5.55-1.425.8-2.1a4.226,4.226,0,0,1,.3-.8l-2.95-.65c-.025.125-.05.2-.05.225a4.7,4.7,0,0,0-.075.475c-.1.45-.375,1.325-.525,1.775a12.523,12.523,0,0,1-3.425,5.25v-1.25a8.251,8.251,0,0,1-1.65.1h-.2V-18.05a15.1,15.1,0,0,1,.15-2.625H33.925a15.764,15.764,0,0,1,.15,2.65ZM48.8-8.425a35.109,35.109,0,0,1-7.375,3.55A9.316,9.316,0,0,1,40-4.5l.975,2.8a12.8,12.8,0,0,1,1.25-.575,49.2,49.2,0,0,0,7.175-3.6Zm-7.4-.85a12.322,12.322,0,0,1,2.15-.15H46.8a11.931,11.931,0,0,1,1.875.1V-12.05a12.386,12.386,0,0,1-1.9.125H43.55a10.555,10.555,0,0,1-2.15-.15ZM81-13.35a78.3,78.3,0,0,1-.6,10.475C80.125-1.075,79.925-.8,78.925-.8a11.428,11.428,0,0,1-2.25-.275A8.336,8.336,0,0,1,77.3,1.65c1.725.075,1.725.075,2,.075,2.075,0,2.875-.55,3.325-2.25a57.392,57.392,0,0,0,.875-9.65c.125-5.125.125-5.125.2-5.725a20.354,20.354,0,0,1-2.425.1H79.25c.025-4.2.025-4.2.175-5.05H76.5a10,10,0,0,1,.15,1.925c0,1.575,0,1.825-.025,3.125h-.55a11.225,11.225,0,0,1-2.1-.125v2.675a12.433,12.433,0,0,1,2.075-.1h.525c-.3,5.625-1.325,9.275-3.375,12.025l-.025-.925c-1.6.225-1.6.225-4.3.525v-1.25H70.75a18.2,18.2,0,0,1,2.25.1v-2.35a16.476,16.476,0,0,1-2.25.1H68.875V-6.25h2.3a18.772,18.772,0,0,1,2.325.1V-8.5a17.767,17.767,0,0,1-2.325.1h-2.3V-9.5h2.7a18.083,18.083,0,0,1,1.9.05c-.025-.2-.025-.75-.05-1.625v-2.25A10.466,10.466,0,0,1,73.5-15.05a18.657,18.657,0,0,1-1.95.05H63.825a18.105,18.105,0,0,1-1.925-.05,8.788,8.788,0,0,1,.075,1.5v2.575A13.818,13.818,0,0,1,61.9-9.45c.825-.05,1.025-.05,1.925-.05h2.65v1.1H63.95a12.76,12.76,0,0,1-2.25-.125v2.4a13.693,13.693,0,0,1,2.225-.125h2.55v1.125h-2.1A12.15,12.15,0,0,1,62.2-5.25v2.4a13.445,13.445,0,0,1,2.15-.125h2.125v1.5c-2.4.225-3.7.325-4.55.325a6.128,6.128,0,0,1-.625-.025l.45,2.7c.475-.075.65-.1,1.275-.175C66.8.95,69.6.55,72.225.05A6.482,6.482,0,0,1,74,2.125a18.059,18.059,0,0,0,3.975-7.15,34.608,34.608,0,0,0,1.2-8.325ZM66.475-13v1.525h-2.2V-13Zm2.4,0h2.35v1.525h-2.35Zm-4.85-6.125h-.8a10.629,10.629,0,0,1-2.05-.125v2.45a10.836,10.836,0,0,1,1.975-.1h.875v.175A7.977,7.977,0,0,1,63.95-15.5h2.675a6.933,6.933,0,0,1-.075-1.225V-16.9H68.8v.175a6.741,6.741,0,0,1-.075,1.225h2.65a7.2,7.2,0,0,1-.075-1.2v-.2h.75a13.447,13.447,0,0,1,2.075.1v-2.45a14.234,14.234,0,0,1-2.075.125H71.3v-.325a6.767,6.767,0,0,1,.075-1.375H68.7a6.645,6.645,0,0,1,.1,1.425v.275H66.55v-.3a6.354,6.354,0,0,1,.1-1.425h-2.7a11.011,11.011,0,0,1,.075,1.45Zm27.15,11.25a10.92,10.92,0,0,1,1.575-.15q.225-.037.975-.075.337-.037.975-.075v7.7a15.794,15.794,0,0,1-.15,2.625h2.7A14.763,14.763,0,0,1,97.1-.475v-7.9c.75-.075.95-.1,1.5-.175.075.35.125.55.2,1.075l1.625-.575a9.5,9.5,0,0,1-.1,1.625h2.425v-2.75h8.3v2.75h2.6a11.12,11.12,0,0,1-.1-1.775V-9.7a17.208,17.208,0,0,1,.075-1.775,14.767,14.767,0,0,1-2.4.125h-8.65a20.829,20.829,0,0,1-2.25-.075,10.129,10.129,0,0,1,.1,1.8v.6A23.613,23.613,0,0,0,99-13.2l-1.7.6a17.825,17.825,0,0,1,.725,1.925c-.75.075-1.175.125-2.575.2,1-1.325,2.55-3.55,3.35-4.825a17.376,17.376,0,0,1,1.2-1.9l-2.25-1.225a19.957,19.957,0,0,1-2.25,4.15c-.375-.45-.5-.6-.975-1.175a33.7,33.7,0,0,0,2.225-3.875,6.285,6.285,0,0,1,.525-.925l-2.4-.925A17.935,17.935,0,0,1,93.05-17.1l-.95-1.025L90.85-15.95a28.349,28.349,0,0,1,3.275,3.775c-.575.825-.575.825-1.3,1.8h-.9a6.226,6.226,0,0,1-1.025-.05ZM105.3-16.7v1.775h-2.125a17.333,17.333,0,0,1-2.55-.125v2.425a16.755,16.755,0,0,1,2.525-.125h7.3a20.637,20.637,0,0,1,2.525.125V-15.05a17.541,17.541,0,0,1-2.55.125h-2.55V-16.7H111a18.165,18.165,0,0,1,2.7.125v-2.5a19.96,19.96,0,0,1-2.775.15h-3.05v-.225a9.715,9.715,0,0,1,.15-1.9H105.15a10.162,10.162,0,0,1,.15,1.875v.25h-2.325a19.96,19.96,0,0,1-2.775-.15v2.5a18.552,18.552,0,0,1,2.725-.125ZM91.8-7.05A21.7,21.7,0,0,1,90.825-.2L92.975.875a31.839,31.839,0,0,0,1-7.6Zm5.875.35a30.649,30.649,0,0,1,.675,5.6l2.025-.6a46.5,46.5,0,0,0-.8-5.475ZM107.1-8a8.626,8.626,0,0,1,.125,1.775v5.75c0,1.65.65,2.075,3.075,2.075,2.05,0,2.85-.325,3.3-1.3a11.752,11.752,0,0,0,.625-3.75,7.2,7.2,0,0,1-2.375-.875c-.05,2-.175,2.95-.425,3.25a1.4,1.4,0,0,1-.95.25c-.6,0-.75-.1-.75-.525V-6.225A8.868,8.868,0,0,1,109.875-8Zm-3.725,0a8.6,8.6,0,0,1,.075,1.15,6.573,6.573,0,0,1-1.25,4.375c-.825.95-1.6,1.425-3.65,2.15a5.6,5.6,0,0,1,1.7,2.3C102.525.85,103.35.25,104.275-.95a9.052,9.052,0,0,0,1.7-5.25c.075-1.325.075-1.325.125-1.8Zm21.9,1.8H124a20.952,20.952,0,0,1-2.725-.15V-3.5A21.5,21.5,0,0,1,124-3.65h8.4V-.575a18.22,18.22,0,0,1-.15,2.725h3.05a15.054,15.054,0,0,1-.15-2.675V-3.65h5.8a21.224,21.224,0,0,1,2.725.15V-6.35a20.421,20.421,0,0,1-2.725.15h-5.8v-4.05h4.1a23.527,23.527,0,0,1,2.5.1V-12.8a18.352,18.352,0,0,1-2.575.125H135.15v-3.25h5.1a18.4,18.4,0,0,1,2.55.125v-2.725a17.752,17.752,0,0,1-2.55.125h-11.7c.45-.975.7-1.5.725-1.575.175-.375.225-.45.375-.75l-2.975-.6a7.221,7.221,0,0,1-.6,1.825,15.519,15.519,0,0,1-4.875,6.275A10.943,10.943,0,0,1,123.05-11a23.053,23.053,0,0,0,4.125-4.925H132.4v3.25h-5.45c-.675,0-1.225-.025-1.75-.075a13.725,13.725,0,0,1,.075,1.45Zm2.625,0v-4.05h4.5V-6.2Zm46.325-10.625a13.539,13.539,0,0,1-2.35.125h-4.35c.275-.975.5-1.825.65-2.475.2-.85.25-1.075.35-1.375l-2.75-.55a18.12,18.12,0,0,1-.6,3.4,18.353,18.353,0,0,1-3.375,7.2,8.773,8.773,0,0,1,1.8,1.8c.525-.7.7-.95,1.15-1.65a17.064,17.064,0,0,0,2.1,5.875A15.519,15.519,0,0,1,163.3-1.35a15.275,15.275,0,0,1-1.975,1.075,7.73,7.73,0,0,1,1.35,2.5A19.393,19.393,0,0,0,168.35-2.25a17.119,17.119,0,0,0,4.875,4.3,11.464,11.464,0,0,1,1.45-2.65,13.29,13.29,0,0,1-4.75-3.9,20.433,20.433,0,0,0,2.55-9.8,12.773,12.773,0,0,1,1.75.1Zm-4.3,2.525a18.1,18.1,0,0,1-1.55,7.35,19.663,19.663,0,0,1-2-6.575c.125-.325.125-.325.325-.775Zm-7.85,12.625A12.937,12.937,0,0,0,160.05-2.8a9.284,9.284,0,0,0,1.5-3.2,9.877,9.877,0,0,1,2.025.125V-8.4a8.84,8.84,0,0,1-1.85.125h-3.95c.2-.475.3-.65.525-1.275l-2.6-.5a18.092,18.092,0,0,1-.65,1.775h-1.875A10.39,10.39,0,0,1,151.2-8.4v2.525A10.714,10.714,0,0,1,153.175-6h.725a20.9,20.9,0,0,1-1.625,2.475c1.775.65,2.45.925,3.7,1.475a13.671,13.671,0,0,1-4.95,1.85,10.919,10.919,0,0,1,1.3,2.3A13.113,13.113,0,0,0,158.3-.875,13.321,13.321,0,0,1,160.625.65ZM158.95-6a6.448,6.448,0,0,1-1.125,2.225c-.75-.325-1.075-.45-2.125-.825.45-.675.525-.8.875-1.4Zm-.1-10.35v-3a9.823,9.823,0,0,1,.1-1.65h-2.725a7.99,7.99,0,0,1,.125,1.7v2.95h-2.975a11.9,11.9,0,0,1-2.1-.125v2.4a11.758,11.758,0,0,1,2.075-.125h1.35a9.992,9.992,0,0,1-4,3.125A8.5,8.5,0,0,1,152.325-9a14.2,14.2,0,0,0,4.075-3.925c-.05.45-.075.85-.075,1.075v.95a4.6,4.6,0,0,1-.075.825h2.675a3.749,3.749,0,0,1-.1-.925v-.9c0-.2-.025-.5-.075-1.025a9.059,9.059,0,0,0,2.225,2.375,8.04,8.04,0,0,1,1.45-2.05,6.766,6.766,0,0,1-2.2-1.6H161.9a12.036,12.036,0,0,1,1.6.075v-2.3a11.529,11.529,0,0,1-1.6.075Zm-6.95-3.6a12.965,12.965,0,0,1,1.675,3.325l2.2-.825a12.469,12.469,0,0,0-1.75-3.3Zm9.2-.85a12.359,12.359,0,0,1-1.775,3.35l2.125.95a21.528,21.528,0,0,0,1.9-3.375Z" transform="translate(1379.38 2593.136)" fill="#fff"/>
  </g>
</svg>
