<svg xmlns="http://www.w3.org/2000/svg" xmlns:xlink="http://www.w3.org/1999/xlink" width="1353.953" height="221.654" viewBox="0 0 1353.953 221.654">
  <defs>
    <linearGradient id="linear-gradient" y1="0.5" x2="1" y2="0.5" gradientUnits="objectBoundingBox">
      <stop offset="0" stop-color="#03a8e5"/>
      <stop offset="1" stop-color="#012869"/>
    </linearGradient>
    <filter id="パス_301" x="0" y="0" width="1353.953" height="221.654" filterUnits="userSpaceOnUse">
      <feOffset dx="10" dy="10" input="SourceAlpha"/>
      <feGaussianBlur stdDeviation="15" result="blur"/>
      <feFlood flood-opacity="0.161"/>
      <feComposite operator="in" in2="blur"/>
      <feComposite in="SourceGraphic"/>
    </filter>
    <linearGradient id="linear-gradient-2" x1="-0.03" xlink:href="#linear-gradient"/>
    <filter id="長方形_204" x="19.93" y="55" width="261" height="91" filterUnits="userSpaceOnUse">
      <feOffset input="SourceAlpha"/>
      <feGaussianBlur stdDeviation="5" result="blur-2"/>
      <feFlood flood-color="#013778" flood-opacity="0.322"/>
      <feComposite operator="in" in2="blur-2"/>
      <feComposite in="SourceGraphic"/>
    </filter>
  </defs>
  <g id="取扱商品数" transform="translate(-293.07 -1227)">
    <g id="グループ_219" data-name="グループ 219" transform="translate(-201.7 -1112)">
      <g transform="matrix(1, 0, 0, 1, 494.77, 2339)" filter="url(#パス_301)">
        <path id="パス_301-2" data-name="パス 301" d="M0,0H1263.953V131.654H0Z" transform="translate(35 35)" fill="url(#linear-gradient)"/>
      </g>
      <path id="パス_302" data-name="パス 302" d="M0,0H1255.953V123.654H0Z" transform="translate(533.568 2378)" fill="#edf9ff"/>
    </g>
    <path id="パス_1120" data-name="パス 1120" d="M2.124-11.3a21.449,21.449,0,0,1,2.34-.216c.72-.072,1.836-.144,3.384-.252V-.756A26.474,26.474,0,0,1,7.632,3.1h3.96a26.474,26.474,0,0,1-.216-3.852V-12.1c.648-.036,1.476-.144,2.556-.252.144.576.216.864.4,1.692l3.024-1.26a54.076,54.076,0,0,0-2.844-7.02l-2.7,1.08a19.683,19.683,0,0,1,1.044,2.448c-1.836.216-1.98.216-4.1.324a94.032,94.032,0,0,0,6.084-8.1A14.918,14.918,0,0,1,16.02-24.84l-3.312-1.908a41.066,41.066,0,0,1-3.888,6.3c-.5-.648-.9-1.08-1.512-1.8a48.42,48.42,0,0,0,3.348-5.508c.4-.72.54-.972.756-1.3l-3.42-1.4A26.335,26.335,0,0,1,5-24.624c-.36-.432-.576-.648-1.08-1.26L1.872-22.9A33.409,33.409,0,0,1,6.8-17.568c-.72.936-.864,1.116-2.088,2.628-.828.036-1.188.036-1.44.036a9.464,9.464,0,0,1-1.548-.108ZM29.988-21.24c0,7.488-.432,13.86-1.152,17.352-.432,2.232-.828,2.664-2.448,2.664a27.986,27.986,0,0,1-4.716-.468A14.726,14.726,0,0,1,22.68,2.34c1.3.108,2.412.144,3.348.144,2.34,0,3.78-.288,4.608-.936,1.188-.936,1.836-2.916,2.412-7.056.4-2.952.792-9.216.828-13.32a45.878,45.878,0,0,1,.18-6.264,19.728,19.728,0,0,1-2.952.144H23.256c.432-1.116.576-1.548,1.044-3.024a12.343,12.343,0,0,1,.468-1.476l-4.032-.72a23.188,23.188,0,0,1-1.3,4.536,23.3,23.3,0,0,1-4.248,7.164,10.5,10.5,0,0,1,2.88,2.916,25.1,25.1,0,0,0,3.6-5.688ZM3.24-10.08A33.815,33.815,0,0,1,1.548-.4l3.2,1.476A40.014,40.014,0,0,0,6.516-9.576Zm9.5.5A84.424,84.424,0,0,1,14.112-.324l3.276-.792A88.944,88.944,0,0,0,15.66-10.3Zm14.04,1.548a41.243,41.243,0,0,0-4.428-9.036l-3.132,1.728a39.594,39.594,0,0,1,4.1,9.144ZM56.495,0V-65.836L45.377-57.661V-69.433l11.118-8.175H67.613V0ZM94.754-61.585a16.951,16.951,0,0,1,1.362-6.976,16.323,16.323,0,0,1,3.652-5.232,15.71,15.71,0,0,1,5.286-3.325,17.422,17.422,0,0,1,6.268-1.145,17.422,17.422,0,0,1,6.267,1.145,15.71,15.71,0,0,1,5.286,3.325,16.323,16.323,0,0,1,3.652,5.232,16.951,16.951,0,0,1,1.363,6.976v45.562a16.951,16.951,0,0,1-1.363,6.976,16.323,16.323,0,0,1-3.652,5.232A15.71,15.71,0,0,1,117.589-.49,17.422,17.422,0,0,1,111.322.654,17.422,17.422,0,0,1,105.054-.49a15.71,15.71,0,0,1-5.286-3.325,16.323,16.323,0,0,1-3.652-5.232,16.951,16.951,0,0,1-1.362-6.976Zm11.118,45.562a5.5,5.5,0,0,0,1.526,3.979,5.215,5.215,0,0,0,3.924,1.581,5.215,5.215,0,0,0,3.924-1.581,5.5,5.5,0,0,0,1.526-3.979V-61.585a5.5,5.5,0,0,0-1.526-3.979,5.215,5.215,0,0,0-3.924-1.58,5.215,5.215,0,0,0-3.924,1.58,5.5,5.5,0,0,0-1.526,3.979Zm41.2,24.089V-11.118h11.118V0Zm30.3-69.651a16.95,16.95,0,0,1,1.363-6.976,16.323,16.323,0,0,1,3.652-5.232,15.71,15.71,0,0,1,5.286-3.325,17.422,17.422,0,0,1,6.268-1.145,17.422,17.422,0,0,1,6.268,1.145,15.71,15.71,0,0,1,5.286,3.325,16.323,16.323,0,0,1,3.652,5.232,16.951,16.951,0,0,1,1.362,6.976v45.562a16.951,16.951,0,0,1-1.362,6.976A16.323,16.323,0,0,1,205.5-3.815,15.71,15.71,0,0,1,200.212-.49,17.422,17.422,0,0,1,193.944.654,17.422,17.422,0,0,1,187.676-.49a15.71,15.71,0,0,1-5.286-3.325,16.323,16.323,0,0,1-3.652-5.232,16.95,16.95,0,0,1-1.363-6.976Zm11.118,45.562a5.5,5.5,0,0,0,1.526,3.979,5.215,5.215,0,0,0,3.924,1.581,5.215,5.215,0,0,0,3.924-1.581,5.5,5.5,0,0,0,1.526-3.979V-61.585a5.5,5.5,0,0,0-1.526-3.979,5.215,5.215,0,0,0-3.924-1.58,5.215,5.215,0,0,0-3.924,1.58,5.5,5.5,0,0,0-1.526,3.979Zm40.33-45.562a16.95,16.95,0,0,1,1.363-6.976,16.323,16.323,0,0,1,3.652-5.232,15.71,15.71,0,0,1,5.286-3.325,17.422,17.422,0,0,1,6.268-1.145,17.422,17.422,0,0,1,6.268,1.145,15.709,15.709,0,0,1,5.286,3.325,16.323,16.323,0,0,1,3.652,5.232,16.951,16.951,0,0,1,1.362,6.976v45.562A16.951,16.951,0,0,1,260.6-9.047a16.323,16.323,0,0,1-3.652,5.232A15.709,15.709,0,0,1,251.66-.49,17.422,17.422,0,0,1,245.392.654,17.422,17.422,0,0,1,239.124-.49a15.71,15.71,0,0,1-5.286-3.325,16.323,16.323,0,0,1-3.652-5.232,16.95,16.95,0,0,1-1.363-6.976Zm11.118,45.562a5.5,5.5,0,0,0,1.526,3.979,5.215,5.215,0,0,0,3.924,1.581,5.215,5.215,0,0,0,3.924-1.581,5.5,5.5,0,0,0,1.526-3.979V-61.585a5.5,5.5,0,0,0-1.526-3.979,5.215,5.215,0,0,0-3.924-1.58,5.215,5.215,0,0,0-3.924,1.58,5.5,5.5,0,0,0-1.526,3.979Zm40.33-45.562a16.95,16.95,0,0,1,1.363-6.976,16.323,16.323,0,0,1,3.651-5.232,15.71,15.71,0,0,1,5.286-3.325,17.422,17.422,0,0,1,6.267-1.145,17.422,17.422,0,0,1,6.268,1.145,15.71,15.71,0,0,1,5.286,3.325,16.323,16.323,0,0,1,3.651,5.232,16.95,16.95,0,0,1,1.363,6.976v45.562a16.95,16.95,0,0,1-1.363,6.976,16.323,16.323,0,0,1-3.651,5.232A15.71,15.71,0,0,1,303.108-.49,17.422,17.422,0,0,1,296.84.654,17.422,17.422,0,0,1,290.573-.49a15.71,15.71,0,0,1-5.286-3.325,16.323,16.323,0,0,1-3.651-5.232,16.95,16.95,0,0,1-1.363-6.976ZM291.39-16.023a5.5,5.5,0,0,0,1.526,3.979,5.215,5.215,0,0,0,3.924,1.581,5.215,5.215,0,0,0,3.924-1.581,5.5,5.5,0,0,0,1.526-3.979V-61.585a5.5,5.5,0,0,0-1.526-3.979,5.215,5.215,0,0,0-3.924-1.58,5.215,5.215,0,0,0-3.924,1.58,5.5,5.5,0,0,0-1.526,3.979ZM335.322-19.4a29.9,29.9,0,0,1-.144,3.312,33.008,33.008,0,0,1,3.744-.144h14.256a33.008,33.008,0,0,1,3.744.144,28.558,28.558,0,0,1-.144-3.348V-26.1a25.673,25.673,0,0,1,.144-3.168,28.332,28.332,0,0,1-4.1.18H339.246a29.639,29.639,0,0,1-4.068-.18,27.472,27.472,0,0,1,.144,3.2Zm3.852-6.084H352.89v5.76H339.174ZM330.534-.936a27.066,27.066,0,0,1-.18,3.888h4V1.08h6.264v1.3H344.5a24.76,24.76,0,0,1-.144-3.24v-9.612a21.089,21.089,0,0,1,.108-3.132c-.864.072-1.656.108-2.7.108h-7.884a32.568,32.568,0,0,1-3.492-.144,33.61,33.61,0,0,1,.144,3.456Zm3.78-9.072h6.3v7.6h-6.3ZM349.686-13.5c-1.08,0-1.836-.036-2.664-.108.072.756.072,1.332.072,2.952v10.4c0,1.476-.036,2.2-.108,3.2h3.852V1.08h6.84V2.952h4.032A25.311,25.311,0,0,1,361.53-.9v-9.288a31.015,31.015,0,0,1,.144-3.456,25.2,25.2,0,0,1-3.2.144Zm1.152,3.492h6.876v7.6h-6.876Zm29.484-11.016c.756-.036,1.98-.072,3.1-.072h5.328v1.476h-4.212c-1.656,0-2.448-.036-3.348-.108a30.97,30.97,0,0,1,.108,3.1v5.616c0,1.692-.036,2.484-.108,3.42.792-.072,1.512-.108,3.06-.108h4.5v1.692H384.1a28.76,28.76,0,0,1-3.564-.144v3.312c1.044-.072,1.872-.108,3.528-.108h4.68v1.764h-5.58c-1.692,0-3.1-.072-3.924-.144V2.124a27.692,27.692,0,0,1,4-.216h14.8a29.55,29.55,0,0,1,4.068.216V-1.368a36.1,36.1,0,0,1-3.888.18h-5.976V-2.952h4.9c1.3,0,2.376.036,3.564.144V-6.192a21.416,21.416,0,0,1-3.564.18h-4.9V-7.7h4.968c1.512,0,2.16.036,3.1.108a27.175,27.175,0,0,1-.108-3.348V-16.7a22.148,22.148,0,0,1,.108-3.024c-.936.072-1.728.108-3.456.108h-4.608V-21.1h6.372a28.953,28.953,0,0,1,3.348.144v-3.384a25.043,25.043,0,0,1-3.6.216h-6.12v-1.728a66.087,66.087,0,0,0,7.812-1.008c.828-.18.828-.18,1.08-.216l-2.376-3.1c-2.376.936-9.072,1.692-14.9,1.692-.468,0-1.512,0-2.88-.036a11.9,11.9,0,0,1,1.332,3.06c3.2-.036,4.5-.072,6.444-.18v1.512h-5.4A21.414,21.414,0,0,1,380-24.3v3.312c-.612.036-1.116.072-1.944.072H377.3v-5c1.116-.36,1.4-.468,1.764-.612.936-.36,1.692-.648,1.944-.72l-1.944-3.168a8.879,8.879,0,0,1-1.332.684,31.619,31.619,0,0,1-8.82,2.088,17.183,17.183,0,0,1,1.368,3.348c1.764-.324,2.412-.432,3.456-.684v4.068h-1.8a15.5,15.5,0,0,1-2.664-.18v3.816a14.654,14.654,0,0,1,2.592-.18h1.512a30.538,30.538,0,0,1-1.476,3.78,26.834,26.834,0,0,1-3.564,5.9,13.447,13.447,0,0,1,1.836,3.744,26,26,0,0,0,3.744-7.812c-.072.972-.108,1.4-.108,2.268-.036.936-.036.936-.072,2.664v5.688a36.646,36.646,0,0,1-.216,4.248h3.96a33.978,33.978,0,0,1-.18-4.284V-8.316c0-.288-.036-.756-.036-1.332,0-.468-.036-.864-.036-1.152a19.957,19.957,0,0,0-.108-2.124A19.824,19.824,0,0,0,379.17-9a10.874,10.874,0,0,1,1.692-3.348,16.524,16.524,0,0,1-3.384-5.112h.54a14.315,14.315,0,0,1,2.3.144Zm8.424,4.284v1.764h-4.1V-16.74Zm0,4.356v1.764h-4.1v-1.764Zm3.492,1.764v-1.764h4.536v1.764Zm0-4.356V-16.74h4.536v1.764Z" transform="translate(758 1364)" fill="#0052aa"/>
    <g transform="matrix(1, 0, 0, 1, 293.07, 1227)" filter="url(#長方形_204)">
      <rect id="長方形_204-2" data-name="長方形 204" width="231" height="61" transform="translate(34.93 70)" fill="url(#linear-gradient-2)"/>
    </g>
    <path id="パス_1119" data-name="パス 1119" d="M11.7-.95a10.653,10.653,0,0,1,1.525,2.775,19.586,19.586,0,0,0,5.025-4.75A18.422,18.422,0,0,0,23.2,1.8,14.057,14.057,0,0,1,24.7-1a14.982,14.982,0,0,1-4.825-4.4A29.437,29.437,0,0,0,23.45-17.275c.075-.75.125-1.25.175-1.575a17.973,17.973,0,0,1-2.025.125H15.05c-.625,0-1.15-.025-1.6-.05v-1.55a14.959,14.959,0,0,1-2.275.125H3.55a20.312,20.312,0,0,1-2.25-.125v2.7c.55-.05.825-.075,1.675-.1v13.65a11.893,11.893,0,0,1-1.925.25l.7,2.85a14,14,0,0,1,2-.525c1.125-.225,2.825-.675,5.325-1.425V-.6a21.929,21.929,0,0,1-.15,2.7H11.85A17.172,17.172,0,0,1,11.7-.6Zm0-16.775a8.651,8.651,0,0,1,.95.025v1.6c.4-.05.575-.075,1.05-.1a31.5,31.5,0,0,0,1.15,6.325A23.527,23.527,0,0,0,16.7-5.4a15.374,15.374,0,0,1-5,4.4Zm8.975,1.5a25.547,25.547,0,0,1-2.35,8.2,23.558,23.558,0,0,1-2.075-8.2ZM5.6-17.725H9.075v2.75H5.6Zm0,4.975H9.075v2.675H5.6Zm0,4.95H9.075v2.425a34.817,34.817,0,0,1-3.475.8Zm46.8-5.95a7.514,7.514,0,0,1-1.6.1H49.25c.425-1.525.675-2.575,1.05-4.35.25-1.25.25-1.25.5-2.175a16.16,16.16,0,0,1-2.175.1H41.65a22.715,22.715,0,0,1-2.925-.15V-17.5A12.393,12.393,0,0,1,41-17.625c-.05,2.85-.05,2.85-.075,3.175A42.819,42.819,0,0,1,40.25-8.3a16.286,16.286,0,0,1-3.6,7.9V-7.3c.575-.225.575-.225,2.45-.975l-.075-2.4c-1.625.6-1.625.6-2.375.825V-13.9h1a12.788,12.788,0,0,1,1.4.075V-16.45a7.828,7.828,0,0,1-1.4.1h-1v-2.1a14.058,14.058,0,0,1,.15-2.5H33.875a14.363,14.363,0,0,1,.15,2.525v2.075h-1.15a11.54,11.54,0,0,1-1.85-.15v2.7a15.158,15.158,0,0,1,1.825-.1h1.175v4.775a18.372,18.372,0,0,1-3.2.65l.525,2.8A5.881,5.881,0,0,1,32.5-6.05c1.15-.3,1.15-.3,1.525-.425v5.2c0,.525-.15.675-.775.675a16.858,16.858,0,0,1-2.225-.175,7.323,7.323,0,0,1,.575,2.6,11.775,11.775,0,0,0,1.25.05c2.525,0,3.225-.25,3.65-1.25a11.141,11.141,0,0,1,1.725,1.45,17.489,17.489,0,0,0,3.25-5.75,27.566,27.566,0,0,0,1.45-6.8A18.282,18.282,0,0,0,45.975-4.3a17.075,17.075,0,0,1-6.05,4.175,12.527,12.527,0,0,1,1.85,2.2,19.76,19.76,0,0,0,4.3-2.75A16.524,16.524,0,0,0,47.725-2.2,23.25,23.25,0,0,0,53.05,1.975a10.975,10.975,0,0,1,1.425-2.7A17.242,17.242,0,0,1,49.45-4.2a28.04,28.04,0,0,0,3.65-7.175c.275-.725.275-.725.375-1Zm-4.95-3.875A41.97,41.97,0,0,1,45.825-11.2c.65-.025.65-.025,1.575-.025H50a16.88,16.88,0,0,1-2.375,4.95A19.841,19.841,0,0,1,44.9-11.35a21.1,21.1,0,0,1-1.275-6.275ZM67.375-1.475A12.77,12.77,0,0,1,67.275.4H69.9V-.7h6.2a7.947,7.947,0,0,1,.6,2.5q2.325.075,2.775.075c2.575,0,3.35-.65,3.35-2.775V-12.425a15.978,15.978,0,0,1,.1-2.15,16.769,16.769,0,0,1-2.35.1H77.35a12.109,12.109,0,0,0,1.1-2.225h2.725a20.436,20.436,0,0,1,2.775.125V-19.25A23.42,23.42,0,0,1,81-19.1H73.775v-.65a7.789,7.789,0,0,1,.1-1.3l.025-.25H70.85a10.242,10.242,0,0,1,.125,1.55v.65H64.1a25.45,25.45,0,0,1-2.95-.15v2.675a20.662,20.662,0,0,1,2.775-.125H66.55a8.653,8.653,0,0,1,.95,2.225H64.55c-.8,0-2.075-.05-2.475-.1a20.309,20.309,0,0,1,.1,2.15V-.975a25.621,25.621,0,0,1-.15,3.025h2.95A20.929,20.929,0,0,1,64.825-1V-8.075A8.722,8.722,0,0,1,66.05-6.35c.625-.275.85-.375,1.275-.6a8.861,8.861,0,0,1,.05,1.2ZM73.225-12.1v2.425A1.269,1.269,0,0,0,73.85-8.45a5.5,5.5,0,0,0,2.75.375c2.475,0,3.125-.2,3.575-1.125v7.925c0,.55-.175.675-.85.675q-.637,0-1.65-.075a13.905,13.905,0,0,1-.1-1.875V-5.5c0-.575.025-1.175.075-1.825a18.511,18.511,0,0,1-2.075.075h-6.2c-.575,0-.725,0-1.45-.025A6.205,6.205,0,0,0,71.25-12.1Zm-2.85-2.375A10.833,10.833,0,0,0,69.45-16.7H75.5a10.546,10.546,0,0,1-1.025,2.225ZM68.65-12.1c-.225,1.8-1.3,2.8-3.825,3.575V-12.1Zm11.525,1.15c-.5-.175-.85-.325-1.525-.625a2.3,2.3,0,0,1-.175,1.125c-.125.225-.475.3-1.35.3-1.175,0-1.35-.075-1.35-.5V-12.1h4.4ZM69.925-5.075h5.25v2.2h-5.25Zm25.15-8.4a20.764,20.764,0,0,1-.1,2.3,22.922,22.922,0,0,1,2.6-.1h9.9a22.922,22.922,0,0,1,2.6.1,19.832,19.832,0,0,1-.1-2.325v-4.625a17.829,17.829,0,0,1,.1-2.2,19.675,19.675,0,0,1-2.85.125H97.8a20.583,20.583,0,0,1-2.825-.125,19.077,19.077,0,0,1,.1,2.225ZM97.75-17.7h9.525v4H97.75Zm-6,17.05a18.8,18.8,0,0,1-.125,2.7H94.4V.75h4.35v.9h2.7a17.2,17.2,0,0,1-.1-2.25V-7.275a14.645,14.645,0,0,1,.075-2.175c-.6.05-1.15.075-1.875.075H94.075a22.617,22.617,0,0,1-2.425-.1,23.342,23.342,0,0,1,.1,2.4Zm2.625-6.3H98.75v5.275H94.375ZM105.05-9.375c-.75,0-1.275-.025-1.85-.075.05.525.05.925.05,2.05V-.175c0,1.025-.025,1.525-.075,2.225h2.675V.75h4.75v1.3h2.8a17.579,17.579,0,0,1-.125-2.675v-6.45a21.54,21.54,0,0,1,.1-2.4,17.5,17.5,0,0,1-2.225.1Zm.8,2.425h4.775v5.275H105.85Zm38.375-9.875a13.539,13.539,0,0,1-2.35.125h-4.35c.275-.975.5-1.825.65-2.475.2-.85.25-1.075.35-1.375l-2.75-.55a18.12,18.12,0,0,1-.6,3.4,18.353,18.353,0,0,1-3.375,7.2,8.773,8.773,0,0,1,1.8,1.8c.525-.7.7-.95,1.15-1.65a17.064,17.064,0,0,0,2.1,5.875A15.519,15.519,0,0,1,133.3-1.35a15.275,15.275,0,0,1-1.975,1.075,7.73,7.73,0,0,1,1.35,2.5A19.393,19.393,0,0,0,138.35-2.25a17.119,17.119,0,0,0,4.875,4.3,11.464,11.464,0,0,1,1.45-2.65,13.29,13.29,0,0,1-4.75-3.9,20.433,20.433,0,0,0,2.55-9.8,12.773,12.773,0,0,1,1.75.1Zm-4.3,2.525a18.1,18.1,0,0,1-1.55,7.35,19.663,19.663,0,0,1-2-6.575c.125-.325.125-.325.325-.775Zm-7.85,12.625A12.937,12.937,0,0,0,130.05-2.8a9.284,9.284,0,0,0,1.5-3.2,9.877,9.877,0,0,1,2.025.125V-8.4a8.84,8.84,0,0,1-1.85.125h-3.95c.2-.475.3-.65.525-1.275l-2.6-.5a18.09,18.09,0,0,1-.65,1.775h-1.875A10.39,10.39,0,0,1,121.2-8.4v2.525A10.714,10.714,0,0,1,123.175-6h.725a20.906,20.906,0,0,1-1.625,2.475c1.775.65,2.45.925,3.7,1.475a13.671,13.671,0,0,1-4.95,1.85,10.919,10.919,0,0,1,1.3,2.3A13.113,13.113,0,0,0,128.3-.875,13.321,13.321,0,0,1,130.625.65ZM128.95-6a6.448,6.448,0,0,1-1.125,2.225c-.75-.325-1.075-.45-2.125-.825.45-.675.525-.8.875-1.4Zm-.1-10.35v-3a9.823,9.823,0,0,1,.1-1.65h-2.725a7.99,7.99,0,0,1,.125,1.7v2.95h-2.975a11.9,11.9,0,0,1-2.1-.125v2.4a11.758,11.758,0,0,1,2.075-.125h1.35a9.992,9.992,0,0,1-4,3.125A8.5,8.5,0,0,1,122.325-9a14.2,14.2,0,0,0,4.075-3.925c-.05.45-.075.85-.075,1.075v.95a4.6,4.6,0,0,1-.075.825h2.675a3.749,3.749,0,0,1-.1-.925v-.9c0-.2-.025-.5-.075-1.025a9.059,9.059,0,0,0,2.225,2.375,8.04,8.04,0,0,1,1.45-2.05,6.766,6.766,0,0,1-2.2-1.6H131.9a12.036,12.036,0,0,1,1.6.075v-2.3a11.529,11.529,0,0,1-1.6.075Zm-6.95-3.6a12.966,12.966,0,0,1,1.675,3.325l2.2-.825a12.469,12.469,0,0,0-1.75-3.3Zm9.2-.85a12.359,12.359,0,0,1-1.775,3.35l2.125.95a21.528,21.528,0,0,0,1.9-3.375Z" transform="translate(372.978 1337)" fill="#fff"/>
  </g>
</svg>
