<svg xmlns="http://www.w3.org/2000/svg" xmlns:xlink="http://www.w3.org/1999/xlink" width="427.145" height="319.546" viewBox="0 0 427.145 319.546">
  <defs>
    <linearGradient id="linear-gradient" y1="0.5" x2="1" y2="0.5" gradientUnits="objectBoundingBox">
      <stop offset="0" stop-color="#03a8e5"/>
      <stop offset="1" stop-color="#012869"/>
    </linearGradient>
    <filter id="パス_301" x="0" y="0" width="427.145" height="319.546" filterUnits="userSpaceOnUse">
      <feOffset dx="10" dy="10" input="SourceAlpha"/>
      <feGaussianBlur stdDeviation="15" result="blur"/>
      <feFlood flood-opacity="0.161"/>
      <feComposite operator="in" in2="blur"/>
      <feComposite in="SourceGraphic"/>
    </filter>
    <linearGradient id="linear-gradient-2" x1="-0.03" xlink:href="#linear-gradient"/>
    <filter id="長方形_220" x="21.347" y="38.934" width="234" height="80" filterUnits="userSpaceOnUse">
      <feOffset input="SourceAlpha"/>
      <feGaussianBlur stdDeviation="5" result="blur-2"/>
      <feFlood flood-color="#013778" flood-opacity="0.322"/>
      <feComposite operator="in" in2="blur-2"/>
      <feComposite in="SourceGraphic"/>
    </filter>
  </defs>
  <g id="文系_理系" data-name="文系・理系" transform="translate(-1072.653 -4677.066)">
    <g id="グループ_245" data-name="グループ 245" transform="translate(1107.653 4712.066)">
      <g transform="matrix(1, 0, 0, 1, -35, -35)" filter="url(#パス_301)">
        <path id="パス_301-2" data-name="パス 301" d="M0,0H337.145V229.546H0Z" transform="translate(35 35)" fill="url(#linear-gradient)"/>
      </g>
      <path id="パス_302" data-name="パス 302" d="M0,0H329.145V221.546H0Z" transform="translate(4 4)" fill="#edf9ff"/>
    </g>
    <g id="グループ_275" data-name="グループ 275" transform="translate(1243.379 4790.824)" opacity="0.313">
      <path id="パス_833" data-name="パス 833" d="M2977.831,4497.788H2863.037a14.454,14.454,0,0,1-1.448-2.157h39.354a.543.543,0,0,0,.54-.544.536.536,0,0,0-.54-.534h-39.9l-.537-1.8h36.613a.573.573,0,0,0,.59-.533.538.538,0,0,0-.539-.546H2860.2c-.1-.476-.189-.952-.255-1.438h35.323a.573.573,0,0,0,.59-.532.539.539,0,0,0-.542-.547h-35.488c-.031-.476-.052-.955-.059-1.437h35.547a.54.54,0,1,0,0-1.079h-35.48c.028-.479.031-.964.087-1.438h37.243a.539.539,0,1,0,0-1.079H2860.1l.232-1.8h40.611a.539.539,0,1,0,0-1.078h-40.305c.215-.9.447-1.732.7-2.517h116.712a40.455,40.455,0,0,0-1.644,10.85,22.539,22.539,0,0,0,1.423,8.207Zm3.86-19.056-39.846-74.788H2839.07a7.3,7.3,0,0,0-2.651.179c-1.89.782-1.431,3.528-1.6,5.177a31.414,31.414,0,0,0-.214,4.589c.137,2.9,1.214,5.643,1.946,8.427.039.15,16.4,62.095,16.4,62.095-.078,1.154-.133,2.294-.141,3.233a21.94,21.94,0,0,0,6.228,15.944l1.031,1.031h123.16v-6.832h-3.6a20.253,20.253,0,0,1-1.546-8.207,38.99,38.99,0,0,1,1.72-10.85Z" transform="translate(-2816.602 -4403.912)" fill="#03a8e5"/>
      <path id="パス_834" data-name="パス 834" d="M3208.546,4465.536c-.014-3.715,1.4-7.922,2.956-11.223l-2.4-1.113.614-1.2h-41.184l21.5,38.445,16.988-33.179a26.174,26.174,0,0,0-1.562,8.27,14.715,14.715,0,0,0,.738,4.649l-12.444,25.917,1.981,3.016,15.028-31.3-2.121-1.014c-.038-.418-.094-.832-.094-1.264Z" transform="translate(-3030.478 -4434.709)" fill="#03a8e5"/>
      <path id="パス_835" data-name="パス 835" d="M2909.055,4665.931h-114.8a13.907,13.907,0,0,1-1.444-2.158h39.35a.539.539,0,1,0,0-1.078h-39.9l-.534-1.8H2828.4a.544.544,0,0,0,.539-.543.537.537,0,0,0-.539-.536h-36.967q-.157-.714-.255-1.438H2826.5a.573.573,0,0,0,.59-.531.538.538,0,0,0-.542-.547h-35.488c-.031-.476-.052-.956-.06-1.438h35.5a.577.577,0,0,0,.594-.536.536.536,0,0,0-.542-.543h-35.48c.024-.48.031-.961.086-1.438h37.243a.539.539,0,0,0,.541-.534.545.545,0,0,0-.541-.544h-37.07l.231-1.8h40.563a.574.574,0,0,0,.591-.532.539.539,0,0,0-.543-.547h-40.305c.215-.893.446-1.731.7-2.517h116.708a40.547,40.547,0,0,0-1.64,10.848,22.492,22.492,0,0,0,1.423,8.208Zm5.471.891v-.891h-3.6a20.268,20.268,0,0,1-1.549-8.208,39.022,39.022,0,0,1,1.724-10.848h4.933l3.5-6.832h-91.156a3.082,3.082,0,0,1-2.182-.9l-1.024-1.023a24.89,24.89,0,0,1-7.107-17.961c0-.024,0-.087,0-.181,0-.85.045-1.8.1-2.753l-2.191-6.908-30.741,36.4s-.649,5.808-.667,9.134a21.882,21.882,0,0,0,6.2,15.888l1.031,1.027h122.72v-2.391l1.384.668,14.881-31h-3.407l-12.858,26.779Z" transform="translate(-2784.573 -4536.099)" fill="#03a8e5"/>
    </g>
    <g id="グループ_274" data-name="グループ 274" transform="translate(1141.073 4837.138)" opacity="0.313">
      <path id="パス_832" data-name="パス 832" d="M2886.2,4420.191l-6.471,3.986-.54-.54-8.629,5.778s-3.2-.385-5.1.771a8.99,8.99,0,0,0-2.138,1.5l-1.27-.4-6.817,11.382-1.446-.029-1.1,2.542-.579-.057-.951,2.571a10.024,10.024,0,0,0,1.415,1.965,5.173,5.173,0,0,0,1.1.925l-.213.828-5.623,5.314a4.486,4.486,0,0,0,1.154,2.146,5.243,5.243,0,0,0,2.256,1.243l5.445-5.446,1.574-.678.838.029-2.426,7.105a4.558,4.558,0,0,0,1.962,1.936,5.963,5.963,0,0,0,3.35-.117l1.8-6.007v5.51a5.033,5.033,0,0,0,2.3.78,3.744,3.744,0,0,0,2.069-.78v-5.865s1.34.031,3.059-.115,2.153-.579,2.153-.579l1.253-2.483-.612-.348,1.1-2.436-.776-.731,1.862-5.7s11.184,5.586,15.535,15.6-2.1,16.408-2.1,16.408l-9.593-7.05h7.376v-2.581h-43.681v2.581h15.487v7.942h11.317v-7.942h4.17v5.563s-2.74.921-2.74,3.606a3.517,3.517,0,0,0,2.74,3.3v11.355h1.787v-11.355a4.348,4.348,0,0,0,2.3-1.728,4.471,4.471,0,0,0,.632-1.65l9.582,8.172v14.5h-15.487v-5.361h-17.075v5.56h-10.8c-5.777-.1-10.4,8.108-10.4,8.14h82.387c0-.032-4.159-8.237-9.591-8.14h-5.083c0-.1,4.044-30.024-2.773-42.735s-23.457-21.492-23.457-21.492l7.973-5.487-.405-.723,6.211-4.188s.547.712,1.107.423-.057-1.08-.73-1.925-3.313-4.8-3.8-5.489-.875-.675-1.044-.506c-.355.355.16,1.2.16,1.2Z" transform="translate(-2835.238 -4418.894)" fill="#03a8e5"/>
    </g>
    <text id="文系_48名" data-name="文系
48名" transform="translate(1322 4839)" fill="#0052aa" font-size="29" font-family="HiraginoSans-W6, Hiragino Sans" letter-spacing="0.1em"><tspan x="-31.9" y="0">文系</tspan><tspan y="0" font-family="DINCondensed-Bold, DIN Condensed" font-weight="700"></tspan><tspan font-size="58" font-family="DINCondensed-Bold, DIN Condensed" font-weight="700"><tspan x="-41.876" y="61">48</tspan><tspan y="61" font-size="29" font-family="HiraginoSans-W6, Hiragino Sans" font-weight="400">名</tspan></tspan></text>
    <text id="理系_15名" data-name="理系
15名" transform="translate(1188 4851)" fill="#0052aa" font-size="24" font-family="HiraginoSans-W6, Hiragino Sans" letter-spacing="0.1em"><tspan x="-26.4" y="0">理系</tspan><tspan y="0" font-family="DINCondensed-Bold, DIN Condensed" font-weight="700"></tspan><tspan font-size="47" font-family="DINCondensed-Bold, DIN Condensed" font-weight="700"><tspan x="-34.184" y="47">15</tspan><tspan y="47" font-size="24" font-family="HiraginoSans-W6, Hiragino Sans" font-weight="400">名</tspan></tspan></text>
    <g transform="matrix(1, 0, 0, 1, 1072.65, 4677.07)" filter="url(#長方形_220)">
      <rect id="長方形_220-2" data-name="長方形 220" width="204" height="50" transform="translate(36.35 53.93)" fill="url(#linear-gradient-2)"/>
    </g>
    <text id="総合職の文系理系" transform="translate(1129.336 4761.751)" fill="#fff" font-size="17" font-family="HiraginoSans-W6, Hiragino Sans" letter-spacing="0.2em"><tspan x="0" y="0">総合職の文系理系</tspan></text>
  </g>
</svg>
