<svg xmlns="http://www.w3.org/2000/svg" xmlns:xlink="http://www.w3.org/1999/xlink" width="425" height="274.072" viewBox="0 0 425 274.072">
  <defs>
    <linearGradient id="linear-gradient" y1="0.5" x2="1" y2="0.5" gradientUnits="objectBoundingBox">
      <stop offset="0" stop-color="#03a8e5"/>
      <stop offset="1" stop-color="#012869"/>
    </linearGradient>
    <filter id="パス_301" x="0" y="0" width="425" height="274.072" filterUnits="userSpaceOnUse">
      <feOffset dx="10" dy="10" input="SourceAlpha"/>
      <feGaussianBlur stdDeviation="15" result="blur"/>
      <feFlood flood-opacity="0.161"/>
      <feComposite operator="in" in2="blur"/>
      <feComposite in="SourceGraphic"/>
    </filter>
    <linearGradient id="linear-gradient-2" x1="-0.03" xlink:href="#linear-gradient"/>
    <filter id="長方形_218" x="60" y="9.961" width="325" height="70" filterUnits="userSpaceOnUse">
      <feOffset input="SourceAlpha"/>
      <feGaussianBlur stdDeviation="5" result="blur-2"/>
      <feFlood flood-color="#013778" flood-opacity="0.322"/>
      <feComposite operator="in" in2="blur-2"/>
      <feComposite in="SourceGraphic"/>
    </filter>
  </defs>
  <g id="新卒_中途" data-name="新卒・中途" transform="translate(-952 -4299.014)">
    <g id="グループ_244" data-name="グループ 244" transform="translate(987 4334.014)">
      <g transform="matrix(1, 0, 0, 1, -35, -35)" filter="url(#パス_301)">
        <path id="パス_301-2" data-name="パス 301" d="M0,0H335V184.072H0Z" transform="translate(35 35)" fill="url(#linear-gradient)"/>
      </g>
      <path id="パス_302" data-name="パス 302" d="M0,0H327V176.072H0Z" transform="translate(4 4)" fill="#edf9ff"/>
    </g>
    <text id="新卒入社後にいったん退職し_復職した社員もいます" data-name="新卒入社後にいったん退職し、復職した社員もいます" transform="translate(1033.997 4504.576)" fill="#0052aa" font-size="9" font-family="HiraginoSans-W6, Hiragino Sans" letter-spacing="0.1em"><tspan x="0" y="0">新卒入社後にいったん退職し、復職した社員もいます</tspan></text>
    <text id="新卒_29名" data-name="新卒
29名" transform="translate(1056 4414.975)" fill="#0052aa" font-size="19" font-family="HiraginoSans-W6, Hiragino Sans" letter-spacing="0.1em"><tspan x="-20.9" y="0">新卒</tspan><tspan y="0" font-family="DINCondensed-Bold, DIN Condensed" font-weight="700"></tspan><tspan font-size="49" font-family="DINCondensed-Bold, DIN Condensed" font-weight="700"><tspan x="-34.628" y="59">29</tspan><tspan y="59" font-size="23" font-family="HiraginoSans-W6, Hiragino Sans" font-weight="400">名</tspan></tspan></text>
    <text id="中途_60名" data-name="中途
60名" transform="translate(1258 4406.975)" fill="#0052aa" font-size="19" font-family="HiraginoSans-W6, Hiragino Sans" letter-spacing="0.1em"><tspan x="-20.9" y="0">中途</tspan><tspan y="0" font-family="DINCondensed-Bold, DIN Condensed" font-weight="700"></tspan><tspan font-size="62" font-family="DINCondensed-Bold, DIN Condensed" font-weight="700"><tspan x="-43.264" y="71">60</tspan><tspan y="71" font-size="28" font-family="HiraginoSans-W6, Hiragino Sans" font-weight="400">名</tspan></tspan></text>
    <g id="グループ_270" data-name="グループ 270" transform="translate(1117.819 4370.563)" style="mix-blend-mode: multiply;isolation: isolate">
      <path id="パス_830" data-name="パス 830" d="M801.232,5531.551c.51,1.417.8,1.632.99,1.632h.189a9.384,9.384,0,0,0,.3,1.793,17.038,17.038,0,0,1,.213,2.944s2.3,1.98,2.969,2.648,1.071.858,1.445.858a13.557,13.557,0,0,0,2.41-1.929s-.108-1.312-.108-1.847a11.881,11.881,0,0,1,.187-1.552,3.139,3.139,0,0,0,.817-1.864l.118-1.2s.4-.141.685-.965a4.255,4.255,0,0,0,.159-2.328l-.18-.182s.642-3.549-.884-5.6-4.475-2.105-5.94-1.685a2.05,2.05,0,0,0-1.625,1.465,3.507,3.507,0,0,0-1.886,2.93c-.24,2.249.3,2.789.3,2.789a2.012,2.012,0,0,0-.154,2.094Zm48.571,31.4c-.539.539-2.442,2.228-3.3,3.09a31.637,31.637,0,0,1-2.837,2.287h-.628s.376-1.347.592-2.584.216-3.932,1.292-5.494,1.3-5.016,1.3-5.016.716.9,1.255,1.436.611,1.8,1.474,2.658a11.89,11.89,0,0,1,1.721,3.086s-.324,0-.862.537Zm1.759-12.645c-.791-1.222-2.632-2.454-2.632-3.555s-.565-.566-.781-1.537a11.937,11.937,0,0,0-1.685-3.7c-.52-.522-6.962-2.476-7.788-2.727s-2.838-1.007-2.838-1.007a39.15,39.15,0,0,1,.611,5.528,28.506,28.506,0,0,1-1.232,9.284,34.448,34.448,0,0,0-.767-5.766c-.477-1.174-1.172-1.867-.956-2.68a23.9,23.9,0,0,1,.933-2.441s-.312-.669-2.2-.407-2.165.933-2.165.933a7.765,7.765,0,0,1,1.22,1.723,3.048,3.048,0,0,1-.324,2.441,12.663,12.663,0,0,0-.717,3.447,36.365,36.365,0,0,1-2.189-6.284c-.467-2.477-.683-5.611-.683-5.611a13.1,13.1,0,0,1-2.477,2.633c-1.04.648-5.813,2.692-6.856,3.731l-.045.059a43.421,43.421,0,0,0-4.945-1.869,6.969,6.969,0,0,0-1.848-.4l-1.216-2.061s-.662,2.831-1.043,4.735-.541,2.529-.541,2.529-.422-1.986-.6-2.469a1.029,1.029,0,0,1,.058-.963c.092-.091.745-.743.745-.743s-.664-1.384-1.544-1.384-1.788,1.243-1.788,1.243a2.643,2.643,0,0,1,.844,1.023,10.01,10.01,0,0,1,.1,1.887s-2.527-4.356-3.33-5.456a3.451,3.451,0,0,1-.8-1.768l-1.647,1.867a16.186,16.186,0,0,0-3.49.9c-1.364.6-2.95.741-3.732,1.523s-.782,3.771-.782,4.818-.341,2.967,0,4.212.3,5.736.623,7.663.7,4.875,1.283,5.456.48.805.48.805-1.378,7.662-1.7,10.124l-.321,2.459a2.86,2.86,0,0,0,1.23.59h.482s.214,2.887.214,4.279-1.017,2.248-1.017,3.317a23.29,23.29,0,0,1,0,4.334c-.268,1.551-.268,9.522-.589,10.808s-1.953,10.912-1.549,14.6-1.045,13.322-1.045,15.569-.2,2.289-.2,2.289a6.6,6.6,0,0,1-1.3,2.608,6.323,6.323,0,0,0-1.633,3.448,1.589,1.589,0,0,0,.535,1.018,4.8,4.8,0,0,0,3.157.134c1.175-.4,2.594-1.417,2.594-1.925a2.436,2.436,0,0,1,.346-1.551,5.669,5.669,0,0,0,.616-.777l.99.293s1.819-.909,1.819-1.229a5.242,5.242,0,0,1,.159-.937s.081-1.03.081-1.244a.505.505,0,0,0-.118-.335l.118-.12a12.207,12.207,0,0,0,0-4.881,5.181,5.181,0,0,1,.256-3.773c.2-.642.081-4.132.4-5.739s.52-4.449.923-5.576.882-6.377,1.2-8.145S804.646,5591,804.646,5591s.4,9.469,0,10.994-.8,1.2-.8,4.172-.561,9.417-.561,10.965a16.912,16.912,0,0,1-.856,4.979c-.427,1.068-.882,3.879-.427,4.334s.132,1.951.132,1.951l.188,2.273,1.551.988,1.417-.051a3.719,3.719,0,0,1,1.124,1.444,4.034,4.034,0,0,0,2.354,1.845,5.287,5.287,0,0,0,3.478-.321,2.247,2.247,0,0,0-.4-2.781l-2.594-2.6.187-.185s.455-3.645,0-5.112-.074-1.461.046-2.266,1.131-4.341,1.611-6.64,2.7-9.629,3.183-14.845,1.364-13.4,1.364-16.21v-4.1l1.061-.4a62.781,62.781,0,0,0-.8-9.153,48.59,48.59,0,0,1-.909-5.672s.2.025.53.062l.041.068a23.906,23.906,0,0,1,2.218,2.837,6.32,6.32,0,0,0,3.374,2.775l.755,11.024.539.537s1.112,19.319,1.327,21.509,1.167,5.19,1.615,5.638.54,4.02.827,5.744,1.8,5.961,1.8,7.325.179,5.41.179,5.41l.422.047c-.042,0-.217.012-.588.382a13.924,13.924,0,0,0-2.945,2.612c-1.052,1.461-.836,2.25-.836,2.25s.118.12.311.31a6.135,6.135,0,0,0,3.4.455,4.53,4.53,0,0,0,3.615-2.01c.336-.719.837-1.244.837-1.091h1.389c0-.153.264-.153.909-.394a6.235,6.235,0,0,0,1.388-.838s.144-2.18.144-2.44a10.659,10.659,0,0,0-.455-1.51s-.312-1.939-.479-3.424-1.258-3.419-1.258-4.656a81.405,81.405,0,0,0-1.023-9.266c-.484-2.422-.27-1.775.269-3.23s0-5.062,0-6.519.431-4.576.431-4.576a29.56,29.56,0,0,1,1.131,4.576c0,1.024.342,17.485.522,19.818s1.222,6.174,1.4,8.008,0,5.732,0,5.732a.775.775,0,0,0,.278.479c.275.277.614.643.614.643a1.328,1.328,0,0,0-.364.843,6.791,6.791,0,0,0,.2,2.153c.2.2,1.411,1.054,1.411,1.054s.886,0,.982.431a12.7,12.7,0,0,1-.144,1.721c0,.647,2.919,2.156,4.286,2.156s2.441-.79,2.537-1.437a4.665,4.665,0,0,0-.956-3.495,15.557,15.557,0,0,1-1.883-3.193h.219s-.053-1.507-.053-3.229a27.466,27.466,0,0,0-.916-5.653c-.323-1.237.324-3.824.916-6.139s-.592-7.613-.592-9.624.144-8.185-.395-8.722-.467-.465-.467-1.544a36.642,36.642,0,0,1,.789-6.676c.575-2.516.664-10.856.664-10.856s.645-.429.645-2.474-.214-5.427-.214-5.427a2.315,2.315,0,0,1,.7-.161c.647-.108,1.079-.213,1.079-.213a4.492,4.492,0,0,0,.968.607,2.628,2.628,0,0,0,1.453.295s2.315-3.339,3.876-5.6,4.845-6.622,4.845-8.183-4.9-8.011-5.688-9.231Zm-23.836-16.168s.214.146.214.956v2.208s-.024.188.311.522a25.573,25.573,0,0,0,3.939,2.864c.395,0,1.413-1.412,2.094-2.1a2.679,2.679,0,0,0,.767-1.459h.166a1.747,1.747,0,0,0,.958-.24,1.791,1.791,0,0,0,.527-1.291,15.45,15.45,0,0,1,.573-3.042,2.351,2.351,0,0,0-.263-2.226c-.417-.419,0-.886,0-1.675a17.1,17.1,0,0,0-1.2-3.47,2.279,2.279,0,0,0,.91-1.318c.214-.885-.191-1.483-1.03-1.483a19.286,19.286,0,0,1-3.112-.527c-1.078-.216-3.124-.657-6.213,1.89s-1.579,5.317-.826,7.037a15.254,15.254,0,0,0,2.18,3.352Z" transform="translate(-787.383 -5521.692)" fill="#ace2f7"/>
    </g>
    <g transform="matrix(1, 0, 0, 1, 952, 4299.01)" filter="url(#長方形_218)">
      <rect id="長方形_218-2" data-name="長方形 218" width="295" height="40" transform="translate(75 24.96)" fill="url(#linear-gradient-2)"/>
    </g>
    <text id="新卒採用入社_中途採用入社の割合" data-name="新卒採用入社、中途採用入社の割合" transform="translate(1042.088 4347.825)" fill="#fff" font-size="14" font-family="HiraginoSans-W6, Hiragino Sans" letter-spacing="0.2em"><tspan x="0" y="0">新卒採用入社、中途採用入社の割合</tspan></text>
  </g>
</svg>
