<svg xmlns="http://www.w3.org/2000/svg" xmlns:xlink="http://www.w3.org/1999/xlink" width="712.847" height="422.07" viewBox="0 0 712.847 422.07">
  <defs>
    <linearGradient id="linear-gradient" y1="0.5" x2="1" y2="0.5" gradientUnits="objectBoundingBox">
      <stop offset="0" stop-color="#03a8e5"/>
      <stop offset="1" stop-color="#012869"/>
    </linearGradient>
    <filter id="パス_301" x="0" y="0" width="712.847" height="422.07" filterUnits="userSpaceOnUse">
      <feOffset dx="10" dy="10" input="SourceAlpha"/>
      <feGaussianBlur stdDeviation="15" result="blur"/>
      <feFlood flood-opacity="0.161"/>
      <feComposite operator="in" in2="blur"/>
      <feComposite in="SourceGraphic"/>
    </filter>
    <linearGradient id="linear-gradient-2" x1="-0.03" xlink:href="#linear-gradient"/>
    <filter id="長方形_217" x="21.347" y="1.934" width="203" height="102" filterUnits="userSpaceOnUse">
      <feOffset input="SourceAlpha"/>
      <feGaussianBlur stdDeviation="5" result="blur-2"/>
      <feFlood flood-color="#013778" flood-opacity="0.322"/>
      <feComposite operator="in" in2="blur-2"/>
      <feComposite in="SourceGraphic"/>
    </filter>
  </defs>
  <g id="男女比" transform="translate(-288.653 -4307.066)">
    <g id="グループ_243" data-name="グループ 243" transform="translate(-204.7 1969)">
      <g transform="matrix(1, 0, 0, 1, 493.35, 2338.07)" filter="url(#パス_301)">
        <path id="パス_301-2" data-name="パス 301" d="M0,0H622.847V332.07H0Z" transform="translate(35 35)" fill="url(#linear-gradient)"/>
      </g>
      <path id="パス_302" data-name="パス 302" d="M0,0H614.847V324.07H0Z" transform="translate(532.353 2377.066)" fill="#edf9ff"/>
    </g>
    <path id="パス_1403" data-name="パス 1403" d="M7.74-6.84a7.824,7.824,0,0,1-.162,1.53H3.528A21.047,21.047,0,0,1,1.386-5.4v1.908A13.741,13.741,0,0,1,3.51-3.6H6.93A5.679,5.679,0,0,1,4.68-1.566,13.127,13.127,0,0,1,.738-.27,6.683,6.683,0,0,1,1.89,1.512,13.134,13.134,0,0,0,6.336-.342,8.008,8.008,0,0,0,9.054-3.6h4.968c-.306,2.9-.36,2.97-1.566,2.97A20.456,20.456,0,0,1,9.63-.864,6.951,6.951,0,0,1,10.116,1.1c1.26.072,1.476.09,2.088.09,2.25,0,2.934-.342,3.312-1.674a19.788,19.788,0,0,0,.522-3.4c.09-.936.108-1.134.162-1.494-.7.054-1.242.072-1.944.072H9.576c.09-.558.126-.864.18-1.53h4.1c.648,0,1.206.018,1.764.072a16.792,16.792,0,0,1-.072-1.782v-4.158a16.915,16.915,0,0,1,.072-1.872,13.028,13.028,0,0,1-1.872.09H4.3a13.028,13.028,0,0,1-1.872-.09,16.117,16.117,0,0,1,.09,1.872V-8.55a11.683,11.683,0,0,1-.108,1.8,19.27,19.27,0,0,1,2.016-.09Zm.252-6.066v1.53H4.428v-1.53Zm1.854,1.53v-1.53h3.8v1.53ZM7.992-9.9v1.512H4.428V-9.9ZM9.846-8.388V-9.9h3.8v1.512Zm19.116-3.06c.09-.468.216-1.206.27-1.548a4.551,4.551,0,0,1,.126-.648L27.432-14a15.189,15.189,0,0,1-.774,4.158,14.752,14.752,0,0,0-.828-2.286l-1.206.576a10.288,10.288,0,0,1,.828,2.682l1.044-.5a7.461,7.461,0,0,1-.954,1.8,11.38,11.38,0,0,1,1.62,1.008c-.126-.018-.162-.018-.288-.036v1.944a14.919,14.919,0,0,1,2-.108h1.62V-.954H27.63a16.279,16.279,0,0,1-2.124-.108V.972A14.642,14.642,0,0,1,27.63.846h7.236a14.545,14.545,0,0,1,2.106.126V-1.062a16.162,16.162,0,0,1-2.106.108H32.418V-4.77H34.2a13.454,13.454,0,0,1,1.962.108V-6.606a13.533,13.533,0,0,1-1.944.09h-1.8v-3.15h2.124a16.526,16.526,0,0,1,1.962.108v-2a12.743,12.743,0,0,1-1.98.108H32.418v-1.8a11.952,11.952,0,0,1,.126-1.908H30.366a12.1,12.1,0,0,1,.126,1.908v1.8Zm1.53,1.782v3.15H28.6c-.576,0-.972-.018-1.368-.054a13.41,13.41,0,0,0,1.3-3.1Zm-8.8,3.24a22.528,22.528,0,0,0,.666-5.04l-1.458-.18a16.155,16.155,0,0,1-.648,4.68ZM24.7,1.494A17.471,17.471,0,0,1,24.588-.63V-13.3A14.585,14.585,0,0,1,24.7-15.21h-2.16a11.952,11.952,0,0,1,.126,1.908V-.774a17.187,17.187,0,0,1-.126,2.268Zm20.988-14.31v1.728H42.048v3.456a2.057,2.057,0,0,1,.648-.423,2.2,2.2,0,0,1,.882-.171,2.094,2.094,0,0,1,1.521.567,2.267,2.267,0,0,1,.585,1.7v3.312a2.8,2.8,0,0,1-.225,1.152,2.7,2.7,0,0,1-.6.864,2.594,2.594,0,0,1-.873.549,2.877,2.877,0,0,1-1.035.189,2.877,2.877,0,0,1-1.035-.189A2.594,2.594,0,0,1,41.04-.63a2.7,2.7,0,0,1-.6-.864,2.8,2.8,0,0,1-.225-1.152v-.54h1.836v.468a.985.985,0,0,0,.261.729.913.913,0,0,0,.675.261.812.812,0,0,0,.639-.252,1.017,1.017,0,0,0,.225-.7V-5.688a.935.935,0,0,0-.243-.648.8.8,0,0,0-.621-.27.879.879,0,0,0-.4.081,1.028,1.028,0,0,0-.27.189.747.747,0,0,0-.162.234q-.09.162-.108.2h-1.62v-6.912Zm8.5,0v1.728H50.544v3.456a2.057,2.057,0,0,1,.648-.423,2.2,2.2,0,0,1,.882-.171,2.094,2.094,0,0,1,1.521.567,2.267,2.267,0,0,1,.585,1.7v3.312a2.8,2.8,0,0,1-.225,1.152,2.7,2.7,0,0,1-.6.864,2.594,2.594,0,0,1-.873.549,2.877,2.877,0,0,1-1.035.189,2.877,2.877,0,0,1-1.035-.189,2.594,2.594,0,0,1-.873-.549,2.7,2.7,0,0,1-.6-.864,2.8,2.8,0,0,1-.225-1.152v-.54h1.836v.468a.985.985,0,0,0,.261.729.913.913,0,0,0,.675.261.812.812,0,0,0,.639-.252,1.017,1.017,0,0,0,.225-.7V-5.688a.935.935,0,0,0-.243-.648.8.8,0,0,0-.621-.27.879.879,0,0,0-.4.081,1.028,1.028,0,0,0-.27.189.747.747,0,0,0-.162.234q-.09.162-.108.2h-1.62v-6.912Zm7.362,3.33a13.179,13.179,0,0,1,2.2,1.89c-.972.648-1.566,1.026-2.142,1.35a26.193,26.193,0,0,1-4.32,1.836,4.96,4.96,0,0,1,1.152,1.8,29.869,29.869,0,0,0,3.42-1.62V-.324a13.539,13.539,0,0,1-.108,1.782h2.088V.486H70.7v.972h2.052a12.081,12.081,0,0,1-.108-1.782V-4.95a10.88,10.88,0,0,1,.09-1.656,11.08,11.08,0,0,1-1.512.072H65.394a23.983,23.983,0,0,0,5.418-5.2c.414-.54.432-.558.648-.828L70.4-13.7a9.889,9.889,0,0,1-1.584.09h-3.69c.306-.414.468-.63.936-1.314l-2.124-.522a13.76,13.76,0,0,1-6.39,5.814A4.5,4.5,0,0,1,58.77-8.118a18.665,18.665,0,0,0,4.86-3.744h4.734a18.7,18.7,0,0,1-3.078,3.114,15.659,15.659,0,0,0-2.25-1.8ZM63.81-4.77h6.912v3.546H63.81ZM77.022-2.7a19.373,19.373,0,0,1,3.906,4.1L82.6-.162a21.039,21.039,0,0,0-4.05-3.96Zm36,2.448a42.074,42.074,0,0,0-5.238-3.312,13.47,13.47,0,0,0,2.574-5.9h.99a16.723,16.723,0,0,1,2.07.108v-2.088a16.471,16.471,0,0,1-2.124.108h-6.732c.288-.774.468-1.3.756-2.178a11.513,11.513,0,0,1,.45-1.26l-2.34-.324a20.309,20.309,0,0,1-1.134,3.762h-3.06a17.471,17.471,0,0,1-2.124-.108V-9.36a16.666,16.666,0,0,1,2.124-.108h2.25a22.265,22.265,0,0,1-3.114,4.95,17.736,17.736,0,0,1,2.016.864c.306-.432.342-.486.63-.882a32.305,32.305,0,0,1,3.438,1.494A13.915,13.915,0,0,1,101.52-1.53a15.279,15.279,0,0,1-4.428.936,7.243,7.243,0,0,1,.954,1.944A18.971,18.971,0,0,0,102.474.27a12.574,12.574,0,0,0,3.888-2.3,34.876,34.876,0,0,1,5.22,3.51Zm-4.77-9.216A10.6,10.6,0,0,1,105.966-4.5a34.915,34.915,0,0,0-3.906-1.674,29.219,29.219,0,0,0,1.728-3.294Zm16.9-1.98c.09-.468.216-1.206.27-1.548a4.551,4.551,0,0,1,.126-.648L123.624-14a15.189,15.189,0,0,1-.774,4.158,14.752,14.752,0,0,0-.828-2.286l-1.206.576a10.288,10.288,0,0,1,.828,2.682l1.044-.5a7.461,7.461,0,0,1-.954,1.8,11.38,11.38,0,0,1,1.62,1.008c-.126-.018-.162-.018-.288-.036v1.944a14.919,14.919,0,0,1,2-.108h1.62V-.954h-2.862a16.279,16.279,0,0,1-2.124-.108V.972a14.642,14.642,0,0,1,2.124-.126h7.236a14.545,14.545,0,0,1,2.106.126V-1.062a16.162,16.162,0,0,1-2.106.108H128.61V-4.77h1.782a13.454,13.454,0,0,1,1.962.108V-6.606a13.534,13.534,0,0,1-1.944.09h-1.8v-3.15h2.124a16.526,16.526,0,0,1,1.962.108v-2a12.743,12.743,0,0,1-1.98.108H128.61v-1.8a11.952,11.952,0,0,1,.126-1.908h-2.178a12.1,12.1,0,0,1,.126,1.908v1.8Zm1.53,1.782v3.15h-1.89c-.576,0-.972-.018-1.368-.054a13.41,13.41,0,0,0,1.3-3.1Zm-8.8,3.24a22.528,22.528,0,0,0,.666-5.04l-1.458-.18a16.155,16.155,0,0,1-.648,4.68Zm3.006,7.92A17.469,17.469,0,0,1,120.78-.63V-13.3a14.584,14.584,0,0,1,.108-1.908h-2.16a11.952,11.952,0,0,1,.126,1.908V-.774a17.188,17.188,0,0,1-.126,2.268Zm17.694-8.91a2.32,2.32,0,0,0,1.143-.2q.315-.2.315-.918v-1.656a.9.9,0,0,0-.243-.648.87.87,0,0,0-.657-.252.775.775,0,0,0-.693.306,1.063,1.063,0,0,0-.207.594v1.044H136.4v-1.062a2.668,2.668,0,0,1,.216-1.062,2.582,2.582,0,0,1,.594-.864,2.952,2.952,0,0,1,.882-.576,2.712,2.712,0,0,1,1.08-.216,2.4,2.4,0,0,1,1.251.3,2.881,2.881,0,0,1,.747.6,3.935,3.935,0,0,1,.315.432,2.1,2.1,0,0,1,.225.522,7.177,7.177,0,0,1,.162,1.764q0,.666-.027,1.08a2.259,2.259,0,0,1-.135.684,1.368,1.368,0,0,1-.351.486,4.164,4.164,0,0,1-.621.432,3.486,3.486,0,0,1,.657.5,1.482,1.482,0,0,1,.333.54,2.789,2.789,0,0,1,.126.765q.018.441.018,1.125,0,.63-.027,1.044a5.374,5.374,0,0,1-.081.684,2.134,2.134,0,0,1-.144.486,2.962,2.962,0,0,1-.234.414,2.908,2.908,0,0,1-.873.837,2.6,2.6,0,0,1-1.4.333,3.236,3.236,0,0,1-.918-.144,2.5,2.5,0,0,1-.882-.468,2.541,2.541,0,0,1-.657-.846,2.837,2.837,0,0,1-.261-1.278V-3.672h1.836v.954a1.043,1.043,0,0,0,.243.711.827.827,0,0,0,.657.279.827.827,0,0,0,.657-.279,1.1,1.1,0,0,0,.243-.747V-4.59a1.263,1.263,0,0,0-.288-.99.8.8,0,0,0-.441-.18,5.926,5.926,0,0,0-.729-.036ZM148.1,0V-1.908H144.45V-3.636l2.646-9.18h1.944l-2.754,9.18H148.1V-7.29h1.836v3.654h.882v1.728h-.882V0Zm9.63-9.486a13.179,13.179,0,0,1,2.2,1.89c-.972.648-1.566,1.026-2.142,1.35a26.193,26.193,0,0,1-4.32,1.836,4.96,4.96,0,0,1,1.152,1.8,29.869,29.869,0,0,0,3.42-1.62V-.324a13.539,13.539,0,0,1-.108,1.782h2.088V.486H166.9v.972h2.052a12.08,12.08,0,0,1-.108-1.782V-4.95a10.881,10.881,0,0,1,.09-1.656,11.08,11.08,0,0,1-1.512.072h-5.832a23.983,23.983,0,0,0,5.418-5.2c.414-.54.432-.558.648-.828L166.59-13.7a9.889,9.889,0,0,1-1.584.09h-3.69c.306-.414.468-.63.936-1.314l-2.124-.522a13.76,13.76,0,0,1-6.39,5.814,4.5,4.5,0,0,1,1.224,1.512,18.665,18.665,0,0,0,4.86-3.744h4.734a18.7,18.7,0,0,1-3.078,3.114,15.66,15.66,0,0,0-2.25-1.8ZM160-4.77h6.912v3.546H160Z" transform="translate(406.38 4612.136)" fill="#0052aa"/>
    <path id="パス_1174" data-name="パス 1174" d="M56.588-133.856,34.78-77.644l.376.376A7.515,7.515,0,0,1,38.07-78.49a23.061,23.061,0,0,1,5.17-.47,18.782,18.782,0,0,1,9.4,2.444,19.079,19.079,0,0,1,6.768,6.2,21.241,21.241,0,0,1,2.068,4.136,31.672,31.672,0,0,1,1.316,5.452q.376,3.384.564,8.554T63.544-39.1q0,6.58-.188,10.81t-.564,7.05a26.42,26.42,0,0,1-1.41,5.076,34.736,34.736,0,0,1-2.162,4.324A25.932,25.932,0,0,1,49.162-2.256,29.507,29.507,0,0,1,34.968,1.128a28.335,28.335,0,0,1-14.1-3.478A27.32,27.32,0,0,1,10.9-11.844a24.8,24.8,0,0,1-2.35-4.324,20.1,20.1,0,0,1-1.222-5.076,47.641,47.641,0,0,1-.752-7.05q-.188-4.23-.188-10.81,0-6.2.188-10.246t.564-7.05a29.965,29.965,0,0,1,1.128-5.17q.752-2.35,1.692-4.982l25.192-67.3Zm-12.22,81.4a9.067,9.067,0,0,0-2.82-6.956,9.34,9.34,0,0,0-6.58-2.632,9.34,9.34,0,0,0-6.58,2.632,9.067,9.067,0,0,0-2.82,6.956v24.816a9.067,9.067,0,0,0,2.82,6.956,9.34,9.34,0,0,0,6.58,2.632,9.34,9.34,0,0,0,6.58-2.632,9.067,9.067,0,0,0,2.82-6.956ZM96.632,0V-19.176h19.176V0Zm0-42.676V-61.852h19.176v19.176ZM182.36,0V-19.928H144.2V-37.976l27.636-95.88h20.3l-28.764,95.88H182.36V-76.14h19.176v38.164h9.212v18.048h-9.212V0Z" transform="translate(393 4565)" fill="#0052aa"/>
    <g id="グループ_239" data-name="グループ 239" transform="translate(350.116 4214.781)">
      <g id="グループ_228" data-name="グループ 228" transform="translate(502.306 213.391)">
        <g id="グループ_227" data-name="グループ 227">
          <path id="パス_642" data-name="パス 642" d="M455.908,230.566l4.569-.022a9.657,9.657,0,0,1,9.658,9.658v21.414a2.83,2.83,0,0,1-2.83,2.83,2.784,2.784,0,0,1-2.828-2.516V243.467a.441.441,0,1,0-.881,0v50.309a5.277,5.277,0,0,1-10.554,0V265.171a.692.692,0,0,0-.691-.7.7.7,0,0,0-.7.7v28.605a5.277,5.277,0,0,1-10.554,0V243.467a.44.44,0,1,0-.881,0v18.463a2.784,2.784,0,0,1-2.828,2.516,2.828,2.828,0,0,1-2.828-2.83V240.2a9.657,9.657,0,0,1,9.656-9.658l4.7.027v-1.315a7.4,7.4,0,0,1-3.657-6.385v-2.076a7.4,7.4,0,1,1,14.8,0v2.076a7.4,7.4,0,0,1-4.155,6.653Z" transform="translate(-434.557 -213.391)" fill="#ace2f7"/>
        </g>
      </g>
      <g id="グループ_230" data-name="グループ 230" transform="translate(461.421 213.391)">
        <g id="グループ_229" data-name="グループ 229">
          <path id="パス_643" data-name="パス 643" d="M428.575,230.566l4.568-.022A9.658,9.658,0,0,1,442.8,240.2v21.414a2.83,2.83,0,0,1-2.83,2.83,2.784,2.784,0,0,1-2.828-2.516V243.467a.44.44,0,1,0-.881,0v50.309a5.277,5.277,0,0,1-10.554,0V265.171a.693.693,0,0,0-.693-.7.7.7,0,0,0-.7.7v28.605a5.277,5.277,0,0,1-10.554,0V243.467a.44.44,0,1,0-.881,0v18.463a2.785,2.785,0,0,1-2.828,2.516,2.83,2.83,0,0,1-2.83-2.83V240.2a9.657,9.657,0,0,1,9.658-9.658l4.694.027v-1.315a7.4,7.4,0,0,1-3.657-6.385v-2.076a7.4,7.4,0,1,1,14.806,0v2.076a7.4,7.4,0,0,1-4.155,6.653Z" transform="translate(-407.222 -213.391)" fill="#ace2f7"/>
        </g>
      </g>
      <g id="グループ_232" data-name="グループ 232" transform="translate(420.537 213.391)">
        <g id="グループ_231" data-name="グループ 231">
          <path id="パス_644" data-name="パス 644" d="M401.239,230.566l4.569-.022a9.657,9.657,0,0,1,9.658,9.658v21.414a2.83,2.83,0,0,1-2.83,2.83,2.784,2.784,0,0,1-2.828-2.516V243.467a.44.44,0,1,0-.881,0v50.309a5.277,5.277,0,0,1-10.554,0V265.171a.692.692,0,0,0-.691-.7.7.7,0,0,0-.7.7v28.605a5.277,5.277,0,1,1-10.554,0V243.467a.44.44,0,1,0-.881,0v18.463a2.784,2.784,0,0,1-2.828,2.516,2.828,2.828,0,0,1-2.828-2.83V240.2a9.657,9.657,0,0,1,9.656-9.658l4.694.027v-1.315a7.4,7.4,0,0,1-3.655-6.385v-2.076a7.4,7.4,0,1,1,14.8,0v2.076a7.4,7.4,0,0,1-4.155,6.653Z" transform="translate(-379.888 -213.391)" fill="#ace2f7"/>
        </g>
      </g>
      <g id="グループ_234" data-name="グループ 234" transform="translate(379.652 213.391)">
        <g id="グループ_233" data-name="グループ 233">
          <path id="パス_645" data-name="パス 645" d="M373.906,230.566l4.568-.022a9.658,9.658,0,0,1,9.659,9.658v21.414a2.83,2.83,0,0,1-2.83,2.83,2.784,2.784,0,0,1-2.828-2.516V243.467a.44.44,0,1,0-.881,0v50.309a5.277,5.277,0,0,1-10.554,0V265.171a.693.693,0,0,0-.692-.7.7.7,0,0,0-.7.7v28.605a5.276,5.276,0,1,1-10.552,0V243.467a.44.44,0,1,0-.881,0v18.463a2.785,2.785,0,0,1-2.828,2.516,2.83,2.83,0,0,1-2.83-2.83V240.2a9.657,9.657,0,0,1,9.658-9.658l4.693.027v-1.315a7.4,7.4,0,0,1-3.657-6.385v-2.076a7.4,7.4,0,1,1,14.8,0v2.076a7.4,7.4,0,0,1-4.154,6.653Z" transform="translate(-352.553 -213.391)" fill="#ace2f7"/>
        </g>
      </g>
      <g id="グループ_236" data-name="グループ 236" transform="translate(338.769 213.391)">
        <g id="グループ_235" data-name="グループ 235">
          <path id="パス_646" data-name="パス 646" d="M346.57,230.566l4.569-.022A9.657,9.657,0,0,1,360.8,240.2v21.414a2.83,2.83,0,0,1-2.83,2.83,2.784,2.784,0,0,1-2.828-2.516V243.467a.44.44,0,1,0-.881,0v50.309a5.277,5.277,0,0,1-10.554,0V265.171a.692.692,0,0,0-.691-.7.7.7,0,0,0-.7.7v28.605a5.277,5.277,0,1,1-10.554,0V243.467a.44.44,0,1,0-.881,0v18.463a2.784,2.784,0,0,1-2.828,2.516,2.828,2.828,0,0,1-2.828-2.83V240.2a9.657,9.657,0,0,1,9.656-9.658l4.693.027v-1.315a7.4,7.4,0,0,1-3.655-6.385v-2.076a7.4,7.4,0,1,1,14.8,0v2.076a7.4,7.4,0,0,1-4.155,6.653Z" transform="translate(-325.219 -213.391)" fill="#ace2f7"/>
        </g>
      </g>
      <g id="グループ_238" data-name="グループ 238" transform="translate(297.884 213.391)">
        <g id="グループ_237" data-name="グループ 237">
          <path id="パス_647" data-name="パス 647" d="M319.237,230.566l4.568-.022a9.658,9.658,0,0,1,9.659,9.658v21.414a2.83,2.83,0,0,1-2.83,2.83,2.784,2.784,0,0,1-2.828-2.516V243.467a.44.44,0,1,0-.881,0v50.309a5.278,5.278,0,0,1-10.555,0V265.171a.692.692,0,0,0-.691-.7.7.7,0,0,0-.7.7v28.605a5.276,5.276,0,1,1-10.552,0V243.467a.441.441,0,1,0-.881,0v18.463a2.785,2.785,0,0,1-2.828,2.516,2.83,2.83,0,0,1-2.83-2.83V240.2a9.657,9.657,0,0,1,9.658-9.658l4.693.027v-1.315a7.4,7.4,0,0,1-3.657-6.385v-2.076a7.4,7.4,0,1,1,14.8,0v2.076a7.4,7.4,0,0,1-4.154,6.653Z" transform="translate(-297.884 -213.391)" fill="#ace2f7"/>
        </g>
      </g>
      <path id="パス_648" data-name="パス 648" d="M471.555,276.061v19.054a3.925,3.925,0,1,0,7.849,0V276.061H480.8v19.054a3.924,3.924,0,1,0,7.848,0V276.061h4.52a.639.639,0,0,0,.594-.646c0-.025,0,.024,0,0l-4.435-31.962a.44.44,0,1,1,.872-.121l2.535,18.288a2.785,2.785,0,0,0,3.147,2.1,2.83,2.83,0,0,0,2.414-3.192l-2.936-21.187a9.75,9.75,0,0,0-9.62-8.816l-2.033.022-.007-1.04a7.38,7.38,0,0,0,4.145-6.636V220.8a7.385,7.385,0,1,0-14.77,0v2.073a7.384,7.384,0,0,0,3.648,6.37v1.31l-2.243-.027a9.749,9.749,0,0,0-9.619,8.816l-2.939,21.187a2.832,2.832,0,0,0,2.414,3.192,2.787,2.787,0,0,0,3.15-2.1l2.535-18.288a.437.437,0,0,1,.5-.375.442.442,0,0,1,.377.5l-4.438,31.962c0,.024,0-.025,0,0a.639.639,0,0,0,.594.646Z" transform="translate(-162.501 104.712)" fill="#ace2f7"/>
      <path id="パス_649" data-name="パス 649" d="M499.457,276.061v19.054a3.925,3.925,0,1,0,7.849,0V276.061H508.7v19.054a3.924,3.924,0,1,0,7.848,0V276.061h4.52a.638.638,0,0,0,.594-.646c0-.025,0,.024,0,0l-4.435-31.962a.44.44,0,0,1,.872-.121l2.535,18.288a2.786,2.786,0,0,0,3.148,2.1,2.831,2.831,0,0,0,2.414-3.192l-2.938-21.187a9.749,9.749,0,0,0-9.62-8.816l-2.031.022-.009-1.04a7.38,7.38,0,0,0,4.145-6.636V220.8a7.384,7.384,0,1,0-14.768,0v2.073a7.383,7.383,0,0,0,3.647,6.37v1.31l-2.244-.027a9.75,9.75,0,0,0-9.619,8.816l-2.938,21.187a2.83,2.83,0,0,0,2.414,3.192,2.786,2.786,0,0,0,3.148-2.1l2.535-18.288a.441.441,0,0,1,.874.121l-4.436,31.962c0,.024,0-.025,0,0a.638.638,0,0,0,.592.646Z" transform="translate(-148.669 104.712)" fill="#ace2f7"/>
      <path id="パス_650" data-name="パス 650" d="M527.362,276.061v19.054a3.924,3.924,0,1,0,7.848,0V276.061H536.6v19.054a3.924,3.924,0,1,0,7.848,0V276.061h4.521a.638.638,0,0,0,.592-.646c0-.025,0,.024,0,0l-4.435-31.962a.44.44,0,1,1,.872-.121l2.535,18.288a2.786,2.786,0,0,0,3.148,2.1,2.83,2.83,0,0,0,2.414-3.192l-2.938-21.187a9.749,9.749,0,0,0-9.62-8.816l-2.031.022-.007-1.04a7.381,7.381,0,0,0,4.143-6.636V220.8a7.384,7.384,0,1,0-14.768,0v2.073a7.386,7.386,0,0,0,3.647,6.37v1.31l-2.242-.027a9.75,9.75,0,0,0-9.62,8.816l-2.938,21.187a2.83,2.83,0,0,0,2.414,3.192,2.785,2.785,0,0,0,3.148-2.1l2.535-18.288a.441.441,0,0,1,.873.121l-4.436,31.962c0,.024,0-.025,0,0a.638.638,0,0,0,.594.646Z" transform="translate(-134.837 104.712)" fill="#ace2f7"/>
      <path id="パス_651" data-name="パス 651" d="M555.265,276.061v19.054a3.924,3.924,0,1,0,7.848,0V276.061h1.4v19.054a3.924,3.924,0,1,0,7.848,0V276.061h4.52a.639.639,0,0,0,.594-.646c0-.025,0,.024,0,0l-4.435-31.962a.439.439,0,1,1,.871-.121l2.535,18.288a2.786,2.786,0,0,0,3.148,2.1A2.83,2.83,0,0,0,582,260.533l-2.938-21.187a9.749,9.749,0,0,0-9.62-8.816l-2.031.022-.007-1.04a7.382,7.382,0,0,0,4.145-6.636V220.8a7.385,7.385,0,1,0-14.77,0v2.073a7.384,7.384,0,0,0,3.648,6.37v1.31l-2.244-.027a9.751,9.751,0,0,0-9.62,8.816l-2.937,21.187a2.831,2.831,0,0,0,2.414,3.192,2.785,2.785,0,0,0,3.149-2.1l2.535-18.288a.441.441,0,0,1,.874.121l-4.436,31.962c0,.024,0-.025,0,0a.639.639,0,0,0,.594.646Z" transform="translate(-121.006 104.712)" fill="#ace2f7"/>
    </g>
    <g transform="matrix(1, 0, 0, 1, 288.65, 4307.07)" filter="url(#長方形_217)">
      <rect id="長方形_217-2" data-name="長方形 217" width="173" height="72" transform="translate(36.35 16.93)" fill="url(#linear-gradient-2)"/>
    </g>
    <path id="パス_1173" data-name="パス 1173" d="M10.75-9.5a10.866,10.866,0,0,1-.225,2.125H4.9A29.232,29.232,0,0,1,1.925-7.5v2.65A19.085,19.085,0,0,1,4.875-5h4.75A7.888,7.888,0,0,1,6.5-2.175a18.232,18.232,0,0,1-5.475,1.8A9.282,9.282,0,0,1,2.625,2.1,18.242,18.242,0,0,0,8.8-.475,11.122,11.122,0,0,0,12.575-5h6.9C19.05-.975,18.975-.875,17.3-.875A28.412,28.412,0,0,1,13.375-1.2a9.654,9.654,0,0,1,.675,2.725c1.75.1,2.05.125,2.9.125,3.125,0,4.075-.475,4.6-2.325A27.484,27.484,0,0,0,22.275-5.4c.125-1.3.15-1.575.225-2.075-.975.075-1.725.1-2.7.1H13.3c.125-.775.175-1.2.25-2.125h5.7c.9,0,1.675.025,2.45.1a23.322,23.322,0,0,1-.1-2.475V-17.65a23.493,23.493,0,0,1,.1-2.6,18.094,18.094,0,0,1-2.6.125H5.975a18.1,18.1,0,0,1-2.6-.125,22.385,22.385,0,0,1,.125,2.6v5.775a16.227,16.227,0,0,1-.15,2.5A26.764,26.764,0,0,1,6.15-9.5Zm.35-8.425V-15.8H6.15v-2.125ZM13.675-15.8v-2.125H18.95V-15.8ZM11.1-13.75v2.1H6.15v-2.1Zm2.575,2.1v-2.1H18.95v2.1Zm39.7,11.3A58.436,58.436,0,0,0,46.1-4.95a18.708,18.708,0,0,0,3.575-8.2H51.05a23.227,23.227,0,0,1,2.875.15v-2.9a22.877,22.877,0,0,1-2.95.15h-9.35c.4-1.075.65-1.8,1.05-3.025a15.992,15.992,0,0,1,.625-1.75l-3.25-.45a28.207,28.207,0,0,1-1.575,5.225h-4.25a24.265,24.265,0,0,1-2.95-.15V-13a23.147,23.147,0,0,1,2.95-.15H37.35a30.924,30.924,0,0,1-4.325,6.875,24.633,24.633,0,0,1,2.8,1.2c.425-.6.475-.675.875-1.225a44.869,44.869,0,0,1,4.775,2.075,19.327,19.327,0,0,1-4.075,2.1,21.221,21.221,0,0,1-6.15,1.3,10.059,10.059,0,0,1,1.325,2.7,26.348,26.348,0,0,0,6.15-1.5,17.464,17.464,0,0,0,5.4-3.2,48.439,48.439,0,0,1,7.25,4.875ZM46.75-13.15a14.725,14.725,0,0,1-3.175,6.9A48.492,48.492,0,0,0,38.15-8.575a40.583,40.583,0,0,0,2.4-4.575Zm19.8,2.25H70a11.952,11.952,0,0,1,2.4.15V-13.7a11.952,11.952,0,0,1-2.4.15H66.55v-4.175a16.664,16.664,0,0,1,.15-2.8H63.575a20.617,20.617,0,0,1,.15,2.8V-1.65a15.872,15.872,0,0,1-2.75.475l.6,3.1A10.471,10.471,0,0,1,62.95,1.45c.2-.05.2-.05.525-.15C65.3.8,65.3.8,66.125.55c3.025-.95,4.3-1.4,6.25-2.15L72.35-4.25c-2.225.775-3.45,1.175-5.8,1.85ZM76.1-9.3a43.652,43.652,0,0,0,6.925-4.5c.525-.425.525-.425.9-.7l-1.95-2.3A19.737,19.737,0,0,1,76.1-12.225v-5.45a17.175,17.175,0,0,1,.15-2.825H73.175a19.309,19.309,0,0,1,.15,2.825V-.95c0,1.125.25,1.725.925,2.075.65.35,1.475.45,3.825.45,2.975,0,4.05-.225,4.75-1,.725-.8,1-2.225,1.175-5.95a10.617,10.617,0,0,1-2.65-1.1c-.025,3.1-.175,4.55-.525,5.025-.25.35-.85.45-2.6.45-1.8,0-2.125-.1-2.125-.65Z" transform="translate(369.38 4369.136)" fill="#fff"/>
  </g>
</svg>
