<svg xmlns="http://www.w3.org/2000/svg" xmlns:xlink="http://www.w3.org/1999/xlink" width="427.703" height="360.102" viewBox="0 0 427.703 360.102">
  <defs>
    <linearGradient id="linear-gradient" y1="0.5" x2="1" y2="0.5" gradientUnits="objectBoundingBox">
      <stop offset="0" stop-color="#03a8e5"/>
      <stop offset="1" stop-color="#012869"/>
    </linearGradient>
    <filter id="パス_301" x="0" y="0" width="427.703" height="360.102" filterUnits="userSpaceOnUse">
      <feOffset dx="10" dy="10" input="SourceAlpha"/>
      <feGaussianBlur stdDeviation="15" result="blur"/>
      <feFlood flood-opacity="0.161"/>
      <feComposite operator="in" in2="blur"/>
      <feComposite in="SourceGraphic"/>
    </filter>
    <linearGradient id="linear-gradient-2" x1="-0.03" xlink:href="#linear-gradient"/>
    <filter id="長方形_219" x="20.906" y="33.018" width="126" height="63" filterUnits="userSpaceOnUse">
      <feOffset input="SourceAlpha"/>
      <feGaussianBlur stdDeviation="5" result="blur-2"/>
      <feFlood flood-color="#013778" flood-opacity="0.322"/>
      <feComposite operator="in" in2="blur-2"/>
      <feComposite in="SourceGraphic"/>
    </filter>
  </defs>
  <g id="出身地" transform="translate(-288.653 -4676.066)">
    <g id="グループ_247" data-name="グループ 247" transform="translate(323.653 4711.066)">
      <g transform="matrix(1, 0, 0, 1, -35, -35)" filter="url(#パス_301)">
        <path id="パス_301-2" data-name="パス 301" d="M0,0H337.7V270.1H0Z" transform="translate(35 35)" fill="url(#linear-gradient)"/>
      </g>
      <path id="パス_302" data-name="パス 302" d="M0,0H329.7V262.1H0Z" transform="translate(4 4)" fill="#edf9ff"/>
    </g>
    <g id="グループ_264" data-name="グループ 264" transform="translate(331.886 4719.161)" opacity="0.29">
      <path id="パス_673" data-name="パス 673" d="M523.764,4131.382h-3.777l-3.214-2.57s.044-1.463.058-2.812H513v10.24l3.588,3.811v-3.735h2.168l5.008-3.524Z" transform="translate(-459.58 -3938.974)" fill="#03a8e5" stroke="rgba(0,0,0,0)" stroke-width="1"/>
      <path id="パス_674" data-name="パス 674" d="M519.094,4166.63l-5.616,6.929h4.942l1.987,6.538,9.85-12.746L526.792,4161h-7.7Z" transform="translate(-459.844 -3958.276)" fill="#03a8e5" stroke="rgba(0,0,0,0)" stroke-width="1"/>
      <path id="パス_675" data-name="パス 675" d="M538.423,4126.082V4118H530.61l-3.127,3.588h-5.73c-.016,1.349-.064,2.812-.064,2.812l3.51,2.57h3.357v1.43l-4.934,3.572v5.314h7.739l.144-5.839Z" transform="translate(-464.372 -3934.562)" fill="#03a8e5" stroke="rgba(0,0,0,0)" stroke-width="1"/>
      <path id="パス_676" data-name="パス 676" d="M514.8,4195.648,512.784,4189h-5.016L503,4194.883v15.2h3.588v-6.728h1.794v12.558h2.935l6.967-8.815Z" transform="translate(-454.065 -3973.719)" fill="#03a8e5" stroke="rgba(0,0,0,0)" stroke-width="1"/>
      <path id="パス_677" data-name="パス 677" d="M556.631,4137.126h-6.222V4135.6l-6.844,5.377-.143,5.854,3.444,6.438H558.93l.092-14.292Z" transform="translate(-476.358 -3944.27)" fill="#03a8e5" stroke="rgba(0,0,0,0)" stroke-width="1"/>
      <path id="パス_678" data-name="パス 678" d="M529.444,4187.89l3.462,11.387,18.765-23.74,0-.536H539.405Z" transform="translate(-468.649 -3965.998)" fill="#03a8e5" stroke="rgba(0,0,0,0)" stroke-width="1"/>
      <path id="パス_679" data-name="パス 679" d="M396.038,4226.046l-.145,3.649,2.335,1.022,14.307-14.016v-2.919l-3.212-.876Z" transform="translate(-394.996 -3986.903)" fill="#03a8e5" stroke="rgba(0,0,0,0)" stroke-width="1"/>
      <path id="パス_680" data-name="パス 680" d="M794.683,4124.539v-9.32l-4.655,5.818-11.055,13.818,15.855-.073,1.982-5.169.054-.141h2.3v9.867H802.2l2.8-2.412v-12.389Z" transform="translate(-606.263 -3933.028)" fill="#03a8e5" stroke="rgba(0,0,0,0)" stroke-width="1"/>
      <path id="パス_681" data-name="パス 681" d="M982.834,3756.99l.037-5.8,4.9-3.106v-7.1l-4.933,3.061v-.055h-7.857L952.941,3709h-18.1v22.6l-5.831,6.684v10.635H911.521v8.136L903,3764.9v21.7h11.661v-5.831h5.831v-6.727h-5.831v-7.625h7.625v7.04l7.508-7.04h1.666L945.79,3785l14.329-18.59h22.828l7.512-5.059v-4.36Z" transform="translate(-674.664 -3709)" fill="#03a8e5" stroke="rgba(0,0,0,0)" stroke-width="1"/>
      <path id="パス_682" data-name="パス 682" d="M983.334,3757.49l.037-5.8,4.9-3.106v-7.1l-4.933,3.061v-.055h-7.857L953.441,3709.5H934.9v22.6l-5.831,6.685v10.635H912.022v8.136L903.5,3765.4v21.7h11.661v-5.831h5.831v-6.728h-5.831v-7.625h7.176v7.04l7.508-7.04h1.666l14.331,18.59,14.329-18.59H983l7.512-5.059v-4.36Z" transform="translate(-674.939 -3709.275)" fill="#03a8e5" stroke="#fff" stroke-linecap="round" stroke-linejoin="round" stroke-width="1"/>
      <path id="パス_683" data-name="パス 683" d="M727.991,4076.055l9.016-2.337v6.979h4.934V4065h-8.073v4.485H724v5.693Z" transform="translate(-575.946 -3905.333)" fill="#03a8e5" stroke="rgba(0,0,0,0)" stroke-width="1"/>
      <path id="パス_684" data-name="パス 684" d="M728.6,4075.68l8.906-2.337v6.855h4.934v-15.7h-8.522v4.485H724.5v5.818l3.942.877" transform="translate(-576.221 -3905.057)" fill="#03a8e5" stroke="#fff" stroke-linecap="round" stroke-linejoin="round" stroke-width="1"/>
      <path id="パス_685" data-name="パス 685" d="M836,4072.541v10.26h15.7V4068H839.8Z" transform="translate(-637.713 -3906.988)" fill="#03a8e5" stroke="rgba(0,0,0,0)" stroke-width="1"/>
      <path id="パス_686" data-name="パス 686" d="M835.5,4073.041v10.26h15.7v-14.8H839.3Z" transform="translate(-637.438 -3907.263)" fill="#03a8e5" stroke="#fff" stroke-linecap="round" stroke-linejoin="round" stroke-width="1"/>
      <path id="パス_687" data-name="パス 687" d="M802.764,4059v7.176h0v2.592L792,4080.7v8.8h5.656l8.834-11.661h5.245v-10.1l3.588-4.472V4059Z" transform="translate(-613.448 -3902.024)" fill="#03a8e5" stroke="rgba(0,0,0,0)" stroke-width="1"/>
      <path id="パス_688" data-name="パス 688" d="M803.264,4059.5v6.728h0v2.592L792.5,4080.75v8.8h5.207l8.834-11.661h5.245v-10.1l3.588-4.472V4059.5Z" transform="translate(-613.723 -3902.299)" fill="#03a8e5" stroke="#fff" stroke-linecap="round" stroke-linejoin="round" stroke-width="1"/>
      <path id="パス_689" data-name="パス 689" d="M832.779,4025.313H816v6.728h12.558v4.036h11.661v-8.459l6.728-6.148v-11.354Z" transform="translate(-626.683 -3875.065)" fill="#03a8e5" stroke="rgba(0,0,0,0)" stroke-width="1"/>
      <path id="パス_690" data-name="パス 690" d="M833.279,4025.813H816.5v6.727h12.558v4.037h11.661v-8.459l6.728-6.148v-11.354Z" transform="translate(-626.959 -3875.341)" fill="#03a8e5" stroke="#fff" stroke-linecap="round" stroke-linejoin="round" stroke-width="1"/>
      <path id="パス_691" data-name="パス 691" d="M593.792,4082.735v.167l4.817-4.652h4.671l5.109-4.934h7.736l2.335-2.961V4063H599.768l-10.212,9.418h.648v10.316Z" transform="translate(-501.8 -3904.23)" fill="#03a8e5" stroke="rgba(0,0,0,0)" stroke-width="1"/>
      <path id="パス_692" data-name="パス 692" d="M594.292,4083.235v-.282l4.817-4.651h4.671l5.109-4.934h7.736l2.335-2.96V4063.5H600.268l-10.212,9.418h.648v10.316Z" transform="translate(-502.076 -3904.506)" fill="#03a8e5" stroke="#fff" stroke-linecap="round" stroke-linejoin="round" stroke-width="1"/>
      <path id="パス_693" data-name="パス 693" d="M714.279,4087.121v11.556l.146-.142h4.788v-22.975l-4.037-.879V4064H708v16.986Z" transform="translate(-567.122 -3904.782)" fill="#03a8e5" stroke="rgba(0,0,0,0)" stroke-width="1"/>
      <path id="パス_694" data-name="パス 694" d="M713.779,4086.621v11.556l.146-.142h5.236v-22.975l-4.036-.879V4063.5H707.5v16.986Z" transform="translate(-566.846 -3904.506)" fill="#03a8e5" stroke="#fff" stroke-linecap="round" stroke-linejoin="round" stroke-width="1"/>
      <path id="パス_695" data-name="パス 695" d="M651.243,4064v6.884L649,4073.951v3.5h18.837V4064Z" transform="translate(-534.584 -3904.782)" fill="#03a8e5" stroke="rgba(0,0,0,0)" stroke-width="1"/>
      <path id="パス_696" data-name="パス 696" d="M651.743,4063.5v6.885l-2.243,3.066v3.5h18.837V4063.5Z" transform="translate(-534.859 -3904.506)" fill="#03a8e5" stroke="#fff" stroke-linecap="round" stroke-linejoin="round" stroke-width="1"/>
      <path id="パス_697" data-name="パス 697" d="M930.7,3905.425V3883H917.249v6.279h8.522v2.691h-12.11v-5.83h-6.279v5.83H902v13.455h28.7Z" transform="translate(-674.112 -3804.96)" fill="#03a8e5" stroke="rgba(0,0,0,0)" stroke-width="1"/>
      <path id="パス_698" data-name="パス 698" d="M931.2,3905.374V3882.5H917.749v6.279h8.522v3.139H913.713v-5.831h-6.279v5.831H902.5v13.455h28.7Z" transform="translate(-674.388 -3804.684)" fill="#03a8e5" stroke="#fff" stroke-linecap="round" stroke-linejoin="round" stroke-width="1"/>
      <rect id="長方形_192" data-name="長方形 192" width="14.801" height="26.013" transform="translate(227.888 100.465)" fill="#03a8e5" stroke="rgba(0,0,0,0)" stroke-width="1"/>
      <rect id="長方形_193" data-name="長方形 193" width="14.801" height="26.013" transform="translate(228.112 100.689)" fill="#03a8e5" stroke="#fff" stroke-linecap="round" stroke-linejoin="round" stroke-width="1"/>
      <path id="パス_699" data-name="パス 699" d="M741.97,4083.867,733,4086.2v22.92l7.646-9.051h1.324v-16.206Z" transform="translate(-580.909 -3915.738)" fill="#03a8e5" stroke="rgba(0,0,0,0)" stroke-width="1"/>
      <path id="パス_700" data-name="パス 700" d="M742.47,4084.367l-8.97,2.337v22.92l7.646-9.051h1.324v-16.206Z" transform="translate(-581.185 -3916.013)" fill="#03a8e5" stroke="#fff" stroke-linecap="round" stroke-linejoin="round" stroke-width="1"/>
      <path id="パス_701" data-name="パス 701" d="M578.043,4094.316h-3.588V4084H563.032L561,4087.724v9.7l2.031,4.063h6.385l4.063,4.934h4.564l2.574-3.633-2.574-2.876Z" transform="translate(-486.052 -3915.811)" fill="#03a8e5" stroke="rgba(0,0,0,0)" stroke-width="1"/>
      <path id="パス_702" data-name="パス 702" d="M578.543,4094.816h-3.588V4084.5H563.532l-2.032,3.724v9.255l2.031,4.064h6.385l4.063,4.933h4.564l2.478-3.5-2.478-2.769Z" transform="translate(-486.328 -3916.087)" fill="#03a8e5" stroke="#fff" stroke-linecap="round" stroke-linejoin="round" stroke-width="1"/>
      <path id="パス_703" data-name="パス 703" d="M898.611,4010.734,907.467,3991H892.423L885,3999.2v11.538Z" transform="translate(-664.737 -3864.522)" fill="#03a8e5" stroke="rgba(0,0,0,0)" stroke-width="1"/>
      <path id="パス_704" data-name="パス 704" d="M899.111,4011.234l8.855-19.734H892.923l-7.423,8.2v11.538Z" transform="translate(-665.012 -3864.798)" fill="#03a8e5" stroke="#fff" stroke-linecap="round" stroke-linejoin="round" stroke-width="1"/>
      <rect id="長方形_194" data-name="長方形 194" width="14.801" height="14.801" transform="translate(213.984 161.013)" fill="#03a8e5" stroke="rgba(0,0,0,0)" stroke-width="1"/>
      <rect id="長方形_195" data-name="長方形 195" width="14.801" height="14.801" transform="translate(213.76 161.237)" fill="#03a8e5" stroke="#fff" stroke-linecap="round" stroke-linejoin="round" stroke-width="1"/>
      <path id="パス_705" data-name="パス 705" d="M710.14,4144.391v4.785l-3.14,2.482v3.5l1.968,1.97,1.677-.511,8.017-7.884V4141h-5.1Z" transform="translate(-566.57 -3947.246)" fill="#03a8e5" stroke="rgba(0,0,0,0)" stroke-width="1"/>
      <path id="パス_706" data-name="パス 706" d="M710.639,4143.89v4.786l-3.14,2.481v3.5l1.968,1.97,1.677-.511,8.017-7.884V4140.5h-5.1Z" transform="translate(-566.846 -3946.971)" fill="#03a8e5" stroke="#fff" stroke-linecap="round" stroke-linejoin="round" stroke-width="1"/>
      <rect id="長方形_196" data-name="長方形 196" width="15.698" height="8.522" transform="translate(198.287 175.813)" fill="#03a8e5" stroke="rgba(0,0,0,0)" stroke-width="1"/>
      <rect id="長方形_197" data-name="長方形 197" width="15.698" height="8.522" transform="translate(198.062 175.589)" fill="#03a8e5" stroke="#fff" stroke-linecap="round" stroke-linejoin="round" stroke-width="1"/>
      <path id="パス_707" data-name="パス 707" d="M771.176,4019v5.774l-5.367,14.408H764v9.418h3.99l3.187-3.132v-4.08l7.625-11.313.036-5.246h8.037V4019Z" transform="translate(-598.006 -3879.964)" fill="#03a8e5" stroke="rgba(0,0,0,0)" stroke-width="1"/>
      <path id="パス_708" data-name="パス 708" d="M770.676,4019.5v5.774l-5.367,14.408H763.5v9.419h3.99l3.187-3.132v-4.08l7.625-11.313.036-5.246h8.037V4019.5Z" transform="translate(-597.73 -3880.24)" fill="#03a8e5" stroke="#fff" stroke-linecap="round" stroke-linejoin="round" stroke-width="1"/>
      <path id="パス_709" data-name="パス 709" d="M765.11,4075v1.347l-3.149,3.138h-4.027v6.727H753v9.419h7l3.213,2.691h7.275V4089.5l10.764-11.875V4075Z" transform="translate(-591.939 -3910.848)" fill="#03a8e5" stroke="rgba(0,0,0,0)" stroke-width="1"/>
      <path id="パス_710" data-name="パス 710" d="M765.61,4075.5v1.347l-3.149,3.138h-4.027v6.279H753.5v9.419h6.78l3.213,3.14h7.5v-9.046l10.764-11.875v-2.4Z" transform="translate(-592.215 -3911.124)" fill="#03a8e5" stroke="#fff" stroke-linecap="round" stroke-linejoin="round" stroke-width="1"/>
      <path id="パス_711" data-name="パス 711" d="M787.438,4044,780,4055.287v2.616h16.146V4044Z" transform="translate(-606.83 -3893.751)" fill="#03a8e5" stroke="rgba(0,0,0,0)" stroke-width="1"/>
      <path id="パス_712" data-name="パス 712" d="M787.937,4044.5l-7.437,11.287v2.616h16.146v-13.9Z" transform="translate(-607.105 -3894.027)" fill="#03a8e5" stroke="#fff" stroke-linecap="round" stroke-linejoin="round" stroke-width="1"/>
      <path id="パス_713" data-name="パス 713" d="M885.8,4082.8H871v8.073h9.3l3.646,8.206L899.957,4068H885.8Z" transform="translate(-657.016 -3906.988)" fill="#03a8e5" stroke="rgba(0,0,0,0)" stroke-width="1"/>
      <path id="パス_714" data-name="パス 714" d="M885.3,4083.3H870.5v8.073h9.3l3.646,8.206,16.007-31.079H885.3Z" transform="translate(-656.74 -3907.263)" fill="#03a8e5" stroke="#fff" stroke-linecap="round" stroke-linejoin="round" stroke-width="1"/>
      <path id="パス_715" data-name="パス 715" d="M836,4119v6.728h12.881l2.817-3.662V4119Z" transform="translate(-637.713 -3935.114)" fill="#03a8e5" stroke="rgba(0,0,0,0)" stroke-width="1"/>
      <path id="パス_716" data-name="パス 716" d="M835.5,4119.5v6.728h12.881l2.817-3.662V4119.5Z" transform="translate(-637.438 -3935.389)" fill="#03a8e5" stroke="#fff" stroke-linecap="round" stroke-linejoin="round" stroke-width="1"/>
      <path id="パス_717" data-name="パス 717" d="M874.7,4119h-9.765v9.9L860,4136.516v3.564h11.645l6.881-12.818Z" transform="translate(-650.949 -3935.114)" fill="#03a8e5" stroke="rgba(0,0,0,0)" stroke-width="1"/>
      <path id="パス_718" data-name="パス 718" d="M874.2,4119.5h-9.765v9.9l-4.933,7.612v3.564h11.645l6.881-12.818Z" transform="translate(-650.674 -3935.389)" fill="#03a8e5" stroke="#fff" stroke-linecap="round" stroke-linejoin="round" stroke-width="1"/>
      <path id="パス_719" data-name="パス 719" d="M836,4140.728h10.316v-3.7l2.665-3.032H836Z" transform="translate(-637.713 -3943.386)" fill="#03a8e5" stroke="rgba(0,0,0,0)" stroke-width="1"/>
      <path id="パス_720" data-name="パス 720" d="M835.5,4141.228h10.316v-3.7l2.665-3.032H835.5Z" transform="translate(-637.438 -3943.662)" fill="#03a8e5" stroke="#fff" stroke-linecap="round" stroke-linejoin="round" stroke-width="1"/>
      <path id="パス_721" data-name="パス 721" d="M817.716,4101,813,4106.767v9.034h10.316V4101Z" transform="translate(-625.029 -3925.187)" fill="#03a8e5" stroke="rgba(0,0,0,0)" stroke-width="1"/>
      <path id="パス_722" data-name="パス 722" d="M817.216,4101.5l-4.716,5.767v9.034h10.316v-14.8Z" transform="translate(-624.753 -3925.462)" fill="#03a8e5" stroke="#fff" stroke-linecap="round" stroke-linejoin="round" stroke-width="1"/>
      <path id="パス_723" data-name="パス 723" d="M949.127,3933H935v26.013h18.837V3933Z" transform="translate(-692.311 -3832.535)" fill="#03a8e5" stroke="rgba(0,0,0,0)" stroke-width="1"/>
      <path id="パス_724" data-name="パス 724" d="M949.627,3933.5H935.5v26.013h18.837V3933.5Z" transform="translate(-692.587 -3832.811)" fill="#03a8e5" stroke="#fff" stroke-linecap="round" stroke-linejoin="round" stroke-width="1"/>
      <path id="パス_725" data-name="パス 725" d="M891.195,4035h-13.57L871,4041.23v8.571h29.1l.7-1.36,7.274-13.44Z" transform="translate(-657.016 -3888.788)" fill="#03a8e5" stroke="rgba(0,0,0,0)" stroke-width="1"/>
      <path id="パス_726" data-name="パス 726" d="M890.695,4035.5h-13.57l-6.624,6.229v8.571h29.1l.7-1.36,7.274-13.44Z" transform="translate(-656.74 -3889.064)" fill="#03a8e5" stroke="#fff" stroke-linecap="round" stroke-linejoin="round" stroke-width="1"/>
      <path id="パス_727" data-name="パス 727" d="M915.492,4010.734h16.931L943.1,3991H924.348Z" transform="translate(-681.553 -3864.522)" fill="#03a8e5" stroke="rgba(0,0,0,0)" stroke-width="1"/>
      <path id="パス_728" data-name="パス 728" d="M915.492,4011.234h16.931L943.1,3991.5H924.348Z" transform="translate(-681.553 -3864.798)" fill="#03a8e5" stroke="#fff" stroke-linecap="round" stroke-linejoin="round" stroke-width="1"/>
      <path id="パス_729" data-name="パス 729" d="M773.388,4123.14h-6.755l-3.453-3.14H758v12.11h2.691v-3.14h2.242v4.934H758.9v3.14h8.05l11.124-13.9Z" transform="translate(-594.697 -3935.665)" fill="#03a8e5" stroke="rgba(0,0,0,0)" stroke-width="1"/>
      <path id="パス_730" data-name="パス 730" d="M772.42,4123.64h-6.288l-3.453-3.14H757.5v12.11h2.691v-3.14h2.243v4.934H758.4v2.691h7.79l10.765-13.455Z" transform="translate(-594.421 -3935.941)" fill="#03a8e5" stroke="#fff" stroke-linecap="round" stroke-linejoin="round" stroke-width="1"/>
      <path id="パス_731" data-name="パス 731" d="M621.425,4086H613.1l-4.934,4.934h-4.51L599,4095.585v5.607l2.492,2.749h19.933V4086Z" transform="translate(-507.009 -3916.914)" fill="#03a8e5" stroke="rgba(0,0,0,0)" stroke-width="1"/>
      <path id="パス_732" data-name="パス 732" d="M621.925,4085.5H613.6l-4.934,4.934h-4.51l-4.652,4.652v5.607l2.492,2.749h19.933V4085.5Z" transform="translate(-507.284 -3916.638)" fill="#03a8e5" stroke="#fff" stroke-linecap="round" stroke-linejoin="round" stroke-width="1"/>
      <path id="パス_733" data-name="パス 733" d="M668.286,4096.852V4093H649v14.8h13.007v-6.715Z" transform="translate(-534.584 -3920.775)" fill="#03a8e5" stroke="rgba(0,0,0,0)" stroke-width="1"/>
      <path id="パス_734" data-name="パス 734" d="M668.337,4097.352V4093.5H649.5v14.8h12.558v-6.715Z" transform="translate(-534.859 -3921.05)" fill="#03a8e5" stroke="#fff" stroke-linecap="round" stroke-linejoin="round" stroke-width="1"/>
      <path id="パス_735" data-name="パス 735" d="M704.72,4122.1v0l3.14-3.249V4107.32l-6.279-6.121v14.15l-5.22,7.737h7.4Z" transform="translate(-560.703 -3925.296)" fill="#03a8e5" stroke="rgba(0,0,0,0)" stroke-width="1"/>
      <path id="パス_736" data-name="パス 736" d="M704.22,4122.6v0l3.14-3.249V4107.82l-6.279-6.121v14.15l-5.22,7.737h7.4Z" transform="translate(-560.427 -3925.572)" fill="#03a8e5" stroke="#fff" stroke-linecap="round" stroke-linejoin="round" stroke-width="1"/>
      <path id="パス_737" data-name="パス 737" d="M684.279,4064v17.109L678,4085.247v6.561h5.382l3.289,3.139h4.784V4064Z" transform="translate(-550.577 -3904.782)" fill="#03a8e5" stroke="rgba(0,0,0,0)" stroke-width="1"/>
      <path id="パス_738" data-name="パス 738" d="M683.779,4063.5v17.109l-6.279,4.137v6.561h5.382l3.289,3.139h4.784V4063.5Z" transform="translate(-550.301 -3904.506)" fill="#03a8e5" stroke="#fff" stroke-linecap="round" stroke-linejoin="round" stroke-width="1"/>
      <path id="パス_739" data-name="パス 739" d="M699.011,4160.393l-1.938-1.971v-3.247l3.14-2.425v-4.939l-1.006.982H692.2l-3.2,4.778v8.543l5.606,5.067h3.184l2.871-2.96v-4.34Z" transform="translate(-556.643 -3951.003)" fill="#03a8e5" stroke="rgba(0,0,0,0)" stroke-width="1"/>
      <path id="パス_740" data-name="パス 740" d="M699.511,4160.893l-1.938-1.971v-3.472l3.14-2.425v-4.714l-1.006.982H692.7l-3.2,4.778v8.543l5.606,5.067h3.184l2.871-2.96v-4.34Z" transform="translate(-556.919 -3951.278)" fill="#03a8e5" stroke="#fff" stroke-linecap="round" stroke-linejoin="round" stroke-width="1"/>
      <path id="パス_741" data-name="パス 741" d="M732.109,4120h-1.4l-7.632,9.052v7.737L715,4144.673v5.288l7.794-8.433H732.94v-6.279h-3.588V4130.6l4.933-4.211V4120Z" transform="translate(-570.982 -3935.665)" fill="#03a8e5" stroke="rgba(0,0,0,0)" stroke-width="1"/>
      <path id="パス_742" data-name="パス 742" d="M732.161,4120.5H731.2l-7.632,9.052v7.737l-8.073,7.884v4.237l7.794-7.83H733.44v-5.831H729.4V4131.1l4.934-4.211v-6.39Z" transform="translate(-571.258 -3935.941)" fill="#03a8e5" stroke="#fff" stroke-linecap="round" stroke-linejoin="round" stroke-width="1"/>
      <path id="パス_743" data-name="パス 743" d="M853.831,4001.864,848,4003.572v9.388l5.831-4.552Z" transform="translate(-644.331 -3870.513)" fill="#03a8e5" stroke="rgba(0,0,0,0)" stroke-width="1"/>
      <path id="パス_744" data-name="パス 744" d="M854.331,4001.864l-5.831,1.708v9.388l5.831-4.552Z" transform="translate(-644.607 -3870.513)" fill="#03a8e5" stroke="#fff" stroke-linecap="round" stroke-linejoin="round" stroke-width="1"/>
      <path id="パス_745" data-name="パス 745" d="M605.024,4151,597,4163.446v5.045h6.874l4.219-6.728h10.118l2.129,4.11,3.718-3.155L616.866,4151Z" transform="translate(-505.906 -3952.761)" fill="#03a8e5" stroke="rgba(0,0,0,0)" stroke-width="1"/>
      <path id="パス_746" data-name="パス 746" d="M604.524,4151.5l-8.024,12.447v5.044h6.874l4.219-6.728h10.118l2.129,4.11,3.718-3.155-7.192-11.72Z" transform="translate(-505.63 -3953.037)" fill="#03a8e5" stroke="#fff" stroke-linecap="round" stroke-linejoin="round" stroke-width="1"/>
      <path id="パス_747" data-name="パス 747" d="M614.528,4143.279v-4.934h-6.279V4137h-9.419L593,4145.089v8.954h1.794v1.683l7.971-12.446Z" transform="translate(-503.7 -3945.04)" fill="#03a8e5" stroke="rgba(0,0,0,0)" stroke-width="1"/>
      <path id="パス_748" data-name="パス 748" d="M614.58,4143.228v-4.934H608.3V4136.5h-9.142l-5.659,8.089v8.954h1.346v1.612l7.971-11.928Z" transform="translate(-503.976 -3944.765)" fill="#03a8e5" stroke="#fff" stroke-linecap="round" stroke-linejoin="round" stroke-width="1"/>
      <path id="パス_749" data-name="パス 749" d="M655.436,4134H643.691v2.691H641v4.934h17.043v-.532Z" transform="translate(-530.172 -3943.386)" fill="#03a8e5" stroke="rgba(0,0,0,0)" stroke-width="1"/>
      <path id="パス_750" data-name="パス 750" d="M654.936,4134.5H643.191v2.691H640.5v4.934h17.043v-.532Z" transform="translate(-529.896 -3943.662)" fill="#03a8e5" stroke="#fff" stroke-linecap="round" stroke-linejoin="round" stroke-width="1"/>
      <path id="パス_751" data-name="パス 751" d="M647.307,4162.859l4.991-4.234h3.13l2.08-2.972V4151H640.029Z" transform="translate(-529.636 -3952.761)" fill="#03a8e5" stroke="rgba(0,0,0,0)" stroke-width="1"/>
      <path id="パス_752" data-name="パス 752" d="M647.807,4163.359l4.991-4.234h3.13l2.08-2.972V4151.5H640.529Z" transform="translate(-529.912 -3953.037)" fill="#03a8e5" stroke="#fff" stroke-linecap="round" stroke-linejoin="round" stroke-width="1"/>
      <path id="パス_753" data-name="パス 753" d="M688.322,4141.485l1.52-4.485h-2.787l-.608,1.794H683v2.691h5.322Z" transform="translate(-553.334 -3945.04)" fill="#03a8e5" stroke="rgba(0,0,0,0)" stroke-width="1"/>
      <path id="パス_754" data-name="パス 754" d="M688.822,4140.985l1.52-4.485h-2.787l-.608,1.794H683.5v2.691h5.322Z" transform="translate(-553.61 -3944.765)" fill="#03a8e5" stroke="#fff" stroke-linecap="round" stroke-linejoin="round" stroke-width="1"/>
      <path id="パス_755" data-name="パス 755" d="M502.041,4124h-5.489l-2.61,4.82.1,1.908h1.606l1.908-2.812v4.568l-1.346,1.168v9.186h1.407l1.85-3.14h2.356l-2.474,2.672v4.056h3.857l2.422-2.622v-5.483l-3.588-3.883Z" transform="translate(-449.07 -3937.871)" fill="#03a8e5" stroke="rgba(0,0,0,0)" stroke-width="1"/>
      <path id="パス_756" data-name="パス 756" d="M502.093,4123.5h-5.04l-2.61,4.82.1,1.908h1.606l1.908-2.812v4.792l-1.346,1.168v9.41h1.183l1.85-3.139h2.58l-2.474,2.671v4.056h3.408l2.422-2.674v-5.593l-3.588-3.961Z" transform="translate(-449.345 -3937.595)" fill="#03a8e5" stroke="#fff" stroke-linecap="round" stroke-linejoin="round" stroke-width="1"/>
      <path id="パス_757" data-name="パス 757" d="M522.316,4129.382h-3.329l-3.214-2.57s.044-1.463.058-2.812H512v10.24l3.588,3.811v-3.735h2.033l4.695-3.523Z" transform="translate(-459.029 -3937.871)" fill="#03a8e5" stroke="rgba(0,0,0,0)" stroke-width="1"/>
      <path id="パス_758" data-name="パス 758" d="M522.264,4129.882h-3.777l-3.214-2.57s.044-1.463.058-2.812H511.5v10.24l3.588,3.811v-3.735h2.169l5.008-3.524Z" transform="translate(-458.753 -3938.147)" fill="#03a8e5" stroke="#fff" stroke-linecap="round" stroke-linejoin="round" stroke-width="1"/>
      <path id="パス_759" data-name="パス 759" d="M518.094,4164.63l-5.616,6.929h4.942l1.987,6.538,9.85-12.746L525.792,4159h-7.7Z" transform="translate(-459.292 -3957.173)" fill="#03a8e5" stroke="rgba(0,0,0,0)" stroke-width="1"/>
      <path id="パス_760" data-name="パス 760" d="M517.594,4165.13l-5.616,6.929h4.942l1.987,6.538,9.85-12.746-3.464-6.351h-7.7Z" transform="translate(-459.016 -3957.449)" fill="#03a8e5" stroke="#fff" stroke-linecap="round" stroke-linejoin="round" stroke-width="1"/>
      <path id="パス_761" data-name="パス 761" d="M536.872,4124.634V4117h-6.837l-2.736,3.14h-7.546c-.016,1.349-.064,2.812-.064,2.812l3.51,2.57h3.357v1.43l-4.933,3.572v5.313H529.6l.149-5.839Z" transform="translate(-463.269 -3934.01)" fill="#03a8e5" stroke="rgba(0,0,0,0)" stroke-width="1"/>
      <path id="パス_762" data-name="パス 762" d="M536.923,4124.582V4116.5h-6.837l-2.736,3.14h-7.1c-.016,1.46-.064,3.046-.064,3.046l3.51,2.784h3.357v1.549l-4.933,3.871v4.9h7.738l.144-5.839Z" transform="translate(-463.545 -3933.735)" fill="#03a8e5" stroke="#fff" stroke-linecap="round" stroke-linejoin="round" stroke-width="1"/>
      <path id="パス_763" data-name="パス 763" d="M512.8,4193.648,510.784,4187h-5.016L501,4192.883v15.2h3.588V4201.8h1.794v12.11h2.935l6.967-8.816Z" transform="translate(-452.962 -3972.616)" fill="#03a8e5" stroke="rgba(0,0,0,0)" stroke-width="1"/>
      <path id="パス_764" data-name="パス 764" d="M513.3,4194.148l-2.021-6.648h-5.117l-4.667,5.757v14.874h3.588v-6.279h1.794v12.559h2.935l6.967-8.816Z" transform="translate(-453.238 -3972.891)" fill="#03a8e5" stroke="#fff" stroke-linecap="round" stroke-linejoin="round" stroke-width="1"/>
      <path id="パス_765" data-name="パス 765" d="M555.631,4135.126h-6.222V4133.6l-6.844,5.377-.143,5.854,3.444,6.438H557.93l.092-14.292Z" transform="translate(-475.806 -3943.167)" fill="#03a8e5" stroke="rgba(0,0,0,0)" stroke-width="1"/>
      <path id="パス_766" data-name="パス 766" d="M556.131,4135.626h-6.222V4134.1l-6.844,5.377-.143,5.854,3.444,6.438H558.43l.092-14.292Z" transform="translate(-476.082 -3943.443)" fill="#03a8e5" stroke="#fff" stroke-linecap="round" stroke-linejoin="round" stroke-width="1"/>
      <path id="パス_767" data-name="パス 767" d="M527.444,4185.89l3.462,11.386,18.765-23.74,0-.536H537.405Z" transform="translate(-467.546 -3964.894)" fill="#03a8e5" stroke="rgba(0,0,0,0)" stroke-width="1"/>
      <path id="パス_768" data-name="パス 768" d="M527.944,4186.39l3.462,11.386,18.765-23.74,0-.536H537.905Z" transform="translate(-467.822 -3965.17)" fill="#03a8e5" stroke="#fff" stroke-linecap="round" stroke-linejoin="round" stroke-width="1"/>
      <path id="パス_769" data-name="パス 769" d="M394.038,4224.628l-.145,3.65,2.335,1.021,14.307-14.016v-2.919l-3.212-.876Z" transform="translate(-393.893 -3986.121)" fill="#03a8e5" stroke="rgba(0,0,0,0)" stroke-width="1"/>
      <path id="パス_770" data-name="パス 770" d="M394.538,4224.628l-.145,3.65,2.335,1.021,14.307-14.016v-2.919l-3.212-.876Z" transform="translate(-394.169 -3986.121)" fill="#03a8e5" stroke="#fff" stroke-linecap="round" stroke-linejoin="round" stroke-width="1"/>
      <path id="パス_771" data-name="パス 771" d="M793.683,4123.091v-8.872l-4.655,5.818-11.055,13.818,15.855-.073,1.982-5.169.054-.141h1.855v9.867h3.48l2.8-2.485v-12.764Z" transform="translate(-605.712 -3932.477)" fill="#03a8e5" stroke="rgba(0,0,0,0)" stroke-width="1"/>
      <path id="パス_772" data-name="パス 772" d="M793.183,4123.039v-9.32l-4.655,5.818-11.055,13.818,15.855-.073,1.982-5.169.054-.141h2.3v9.867H800.7l2.8-2.412v-12.389Z" transform="translate(-605.436 -3932.201)" fill="#03a8e5" stroke="#fff" stroke-linecap="round" stroke-linejoin="round" stroke-width="1"/>
      <path id="パス_773" data-name="パス 773" d="M982.834,3756.99l.037-5.8,4.9-3.106v-7.1l-4.933,3.061v-.055h-7.857L952.941,3709h-18.1v22.6l-5.831,6.684v10.635H911.521v8.136L903,3764.9v21.7h11.661v-5.831h5.831v-6.727h-5.831v-7.625h7.625v7.04l7.508-7.04h1.666L945.79,3785l14.329-18.59h22.828l7.512-5.059v-4.36Z" transform="translate(-674.664 -3709)" fill="#03a8e5" stroke="#fff" stroke-miterlimit="10" stroke-width="2"/>
      <path id="パス_774" data-name="パス 774" d="M728.653,4075.956l8.905-2.337v7.08h4.934V4065h-8.073v4.485H725v5.593l3.942.877" transform="translate(-576.497 -3905.333)" fill="#03a8e5" stroke="#fff" stroke-miterlimit="10" stroke-width="2"/>
      <path id="パス_775" data-name="パス 775" d="M836,4072.541v10.26h15.7V4068H839.8Z" transform="translate(-637.713 -3906.988)" fill="#03a8e5" stroke="#fff" stroke-miterlimit="10" stroke-width="2"/>
      <path id="パス_776" data-name="パス 776" d="M802.764,4059v7.176h0v2.592L792,4080.7v8.8h5.656l8.834-11.661h5.245v-10.1l3.588-4.472V4059Z" transform="translate(-613.448 -3902.024)" fill="#03a8e5" stroke="#fff" stroke-miterlimit="10" stroke-width="2"/>
      <path id="パス_777" data-name="パス 777" d="M832.779,4025.313H816v6.728h12.558v4.036h11.661v-8.459l6.728-6.148v-11.354Z" transform="translate(-626.683 -3875.065)" fill="#03a8e5" stroke="#fff" stroke-miterlimit="10" stroke-width="2"/>
      <path id="パス_778" data-name="パス 778" d="M593.792,4082.735v.167l4.817-4.652h4.671l5.109-4.934h7.736l2.335-2.961V4063H599.768l-10.212,9.418h.648v10.316Z" transform="translate(-501.8 -3904.23)" fill="#03a8e5" stroke="#fff" stroke-miterlimit="10" stroke-width="2"/>
      <path id="パス_779" data-name="パス 779" d="M714.279,4087.121v11.556l.146-.142h4.788v-22.975l-4.037-.879V4064H708v16.986Z" transform="translate(-567.122 -3904.782)" fill="#03a8e5" stroke="#fff" stroke-miterlimit="10" stroke-width="2"/>
      <path id="パス_780" data-name="パス 780" d="M651.243,4064v6.884L649,4073.951v3.5h18.837V4064Z" transform="translate(-534.584 -3904.782)" fill="#03a8e5" stroke="#fff" stroke-miterlimit="10" stroke-width="2"/>
      <path id="パス_781" data-name="パス 781" d="M930.7,3905.425V3883H917.249v6.279h8.522v2.691h-12.11v-5.83h-6.279v5.83H902v13.455h28.7Z" transform="translate(-674.112 -3804.96)" fill="#03a8e5" stroke="#fff" stroke-miterlimit="10" stroke-width="2"/>
      <rect id="長方形_198" data-name="長方形 198" width="14.801" height="26.013" transform="translate(227.888 100.465)" fill="#03a8e5" stroke="#fff" stroke-miterlimit="10" stroke-width="2"/>
      <path id="パス_782" data-name="パス 782" d="M741.97,4083.867,733,4086.2v22.92l7.646-9.051h1.324v-16.206Z" transform="translate(-580.909 -3915.738)" fill="#03a8e5" stroke="#fff" stroke-miterlimit="10" stroke-width="2"/>
      <path id="パス_783" data-name="パス 783" d="M578.043,4094.316h-3.588V4084H563.032L561,4087.724v9.7l2.031,4.063h6.385l4.063,4.934h4.564l2.574-3.633-2.574-2.876Z" transform="translate(-486.052 -3915.811)" fill="#03a8e5" stroke="#fff" stroke-miterlimit="10" stroke-width="2"/>
      <path id="パス_784" data-name="パス 784" d="M898.611,4010.734,907.467,3991H892.423L885,3999.2v11.538Z" transform="translate(-664.737 -3864.522)" fill="#03a8e5" stroke="#fff" stroke-miterlimit="10" stroke-width="2"/>
      <rect id="長方形_199" data-name="長方形 199" width="14.801" height="14.801" transform="translate(213.984 161.013)" fill="#03a8e5" stroke="#fff" stroke-miterlimit="10" stroke-width="2"/>
      <path id="パス_785" data-name="パス 785" d="M710.14,4144.391v4.785l-3.14,2.482v3.5l1.968,1.97,1.677-.511,8.017-7.884V4141h-5.1Z" transform="translate(-566.57 -3947.246)" fill="#03a8e5" stroke="#fff" stroke-miterlimit="10" stroke-width="2"/>
      <rect id="長方形_200" data-name="長方形 200" width="15.698" height="8.522" transform="translate(198.287 175.813)" fill="#03a8e5" stroke="#fff" stroke-miterlimit="10" stroke-width="2"/>
      <path id="パス_786" data-name="パス 786" d="M771.176,4019v5.774l-5.367,14.408H764v9.418h3.99l3.187-3.132v-4.08l7.625-11.313.036-5.246h8.037V4019Z" transform="translate(-598.006 -3879.964)" fill="#03a8e5" stroke="#fff" stroke-miterlimit="10" stroke-width="2"/>
      <path id="パス_787" data-name="パス 787" d="M765.11,4075v1.347l-3.149,3.138h-4.027v6.727H753v9.419h7l3.213,2.691h7.275V4089.5l10.764-11.875V4075Z" transform="translate(-591.939 -3910.848)" fill="#03a8e5" stroke="#fff" stroke-miterlimit="10" stroke-width="2"/>
      <path id="パス_788" data-name="パス 788" d="M787.438,4044,780,4055.287v2.616h16.146V4044Z" transform="translate(-606.83 -3893.751)" fill="#03a8e5" stroke="#fff" stroke-miterlimit="10" stroke-width="2"/>
      <path id="パス_789" data-name="パス 789" d="M885.8,4082.8H871v8.073h9.3l3.646,8.206L899.957,4068H885.8Z" transform="translate(-657.016 -3906.988)" fill="#03a8e5" stroke="#fff" stroke-miterlimit="10" stroke-width="2"/>
      <path id="パス_790" data-name="パス 790" d="M836,4119v6.728h12.881l2.817-3.662V4119Z" transform="translate(-637.713 -3935.114)" fill="#03a8e5" stroke="#fff" stroke-miterlimit="10" stroke-width="2"/>
      <path id="パス_791" data-name="パス 791" d="M874.7,4119h-9.765v9.9L860,4136.516v3.564h11.645l6.881-12.818Z" transform="translate(-650.949 -3935.114)" fill="#03a8e5" stroke="#fff" stroke-miterlimit="10" stroke-width="2"/>
      <path id="パス_792" data-name="パス 792" d="M836,4140.728h10.316v-3.7l2.665-3.032H836Z" transform="translate(-637.713 -3943.386)" fill="#03a8e5" stroke="#fff" stroke-miterlimit="10" stroke-width="2"/>
      <path id="パス_793" data-name="パス 793" d="M817.716,4101,813,4106.767v9.034h10.316V4101Z" transform="translate(-625.029 -3925.187)" fill="#03a8e5" stroke="#fff" stroke-miterlimit="10" stroke-width="2"/>
      <path id="パス_794" data-name="パス 794" d="M949.127,3933H935v26.013h18.837V3933Z" transform="translate(-692.311 -3832.535)" fill="#03a8e5" stroke="#fff" stroke-miterlimit="10" stroke-width="2"/>
      <path id="パス_795" data-name="パス 795" d="M891.195,4035h-13.57L871,4041.23v8.571h29.1l.7-1.36,7.274-13.44Z" transform="translate(-657.016 -3888.788)" fill="#03a8e5" stroke="#fff" stroke-miterlimit="10" stroke-width="2"/>
      <path id="パス_796" data-name="パス 796" d="M915.492,4010.734h16.931L943.1,3991H924.348Z" transform="translate(-681.553 -3864.522)" fill="#03a8e5" stroke="#fff" stroke-miterlimit="10" stroke-width="2"/>
      <path id="パス_797" data-name="パス 797" d="M773.388,4123.14h-6.755l-3.453-3.14H758v12.11h2.691v-3.14h2.242v4.934H758.9v3.14h8.05l11.124-13.9Z" transform="translate(-594.697 -3935.665)" fill="#03a8e5" stroke="#fff" stroke-miterlimit="10" stroke-width="2"/>
      <path id="パス_798" data-name="パス 798" d="M621.425,4086H613.1l-4.934,4.934h-4.51L599,4095.585v5.607l2.492,2.749h19.933V4086Z" transform="translate(-507.009 -3916.914)" fill="#03a8e5" stroke="#fff" stroke-miterlimit="10" stroke-width="2"/>
      <path id="パス_799" data-name="パス 799" d="M668.286,4096.852V4093H649v14.8h13.007v-6.715Z" transform="translate(-534.584 -3920.775)" fill="#03a8e5" stroke="#fff" stroke-miterlimit="10" stroke-width="2"/>
      <path id="パス_800" data-name="パス 800" d="M704.72,4122.1v0l3.14-3.249V4107.32l-6.279-6.121v14.15l-5.22,7.737h7.4Z" transform="translate(-560.703 -3925.296)" fill="#03a8e5" stroke="#fff" stroke-miterlimit="10" stroke-width="2"/>
      <path id="パス_801" data-name="パス 801" d="M684.279,4064v17.109L678,4085.247v6.561h5.382l3.289,3.139h4.784V4064Z" transform="translate(-550.577 -3904.782)" fill="#03a8e5" stroke="#fff" stroke-miterlimit="10" stroke-width="2"/>
      <path id="パス_802" data-name="パス 802" d="M699.011,4160.393l-1.938-1.971v-3.247l3.14-2.425v-4.939l-1.006.982H692.2l-3.2,4.778v8.543l5.606,5.067h3.184l2.871-2.96v-4.34Z" transform="translate(-556.643 -3951.003)" fill="#03a8e5" stroke="#fff" stroke-miterlimit="10" stroke-width="2"/>
      <path id="パス_803" data-name="パス 803" d="M732.109,4120h-1.4l-7.632,9.052v7.737L715,4144.673v5.288l7.794-8.433H732.94v-6.279h-3.588V4130.6l4.933-4.211V4120Z" transform="translate(-570.982 -3935.665)" fill="#03a8e5" stroke="#fff" stroke-miterlimit="10" stroke-width="2"/>
      <path id="パス_804" data-name="パス 804" d="M853.831,4001.864,848,4003.572v9.388l5.831-4.552Z" transform="translate(-644.331 -3870.513)" fill="#03a8e5" stroke="#fff" stroke-miterlimit="10" stroke-width="2"/>
      <path id="パス_805" data-name="パス 805" d="M605.024,4151,597,4163.446v5.045h6.874l4.219-6.728h10.118l2.129,4.11,3.718-3.155L616.866,4151Z" transform="translate(-505.906 -3952.761)" fill="#03a8e5" stroke="#fff" stroke-miterlimit="10" stroke-width="2"/>
      <path id="パス_806" data-name="パス 806" d="M614.528,4143.279v-4.934h-6.279V4137h-9.419L593,4145.089v8.954h1.794v1.683l7.971-12.446Z" transform="translate(-503.7 -3945.04)" fill="#03a8e5" stroke="#fff" stroke-miterlimit="10" stroke-width="2"/>
      <path id="パス_807" data-name="パス 807" d="M655.436,4134H643.691v2.691H641v4.934h17.043v-.532Z" transform="translate(-530.172 -3943.386)" fill="#03a8e5" stroke="#fff" stroke-miterlimit="10" stroke-width="2"/>
      <path id="パス_808" data-name="パス 808" d="M647.307,4162.859l4.991-4.234h3.13l2.08-2.972V4151H640.029Z" transform="translate(-529.636 -3952.761)" fill="#03a8e5" stroke="#fff" stroke-miterlimit="10" stroke-width="2"/>
      <path id="パス_809" data-name="パス 809" d="M688.322,4141.485l1.52-4.485h-2.787l-.608,1.794H683v2.691h5.322Z" transform="translate(-553.334 -3945.04)" fill="#03a8e5" stroke="#fff" stroke-miterlimit="10" stroke-width="2"/>
      <path id="パス_810" data-name="パス 810" d="M502.041,4124h-5.489l-2.61,4.82.1,1.908h1.606l1.908-2.812v4.568l-1.346,1.168v9.186h1.407l1.85-3.14h2.356l-2.474,2.672v4.056h3.857l2.422-2.622v-5.483l-3.588-3.883Z" transform="translate(-449.07 -3937.871)" fill="#03a8e5" stroke="#fff" stroke-miterlimit="10" stroke-width="2"/>
      <path id="パス_811" data-name="パス 811" d="M522.316,4129.382h-3.329l-3.214-2.57s.044-1.463.058-2.812H512v10.24l3.588,3.811v-3.735h2.033l4.695-3.523Z" transform="translate(-459.029 -3937.871)" fill="#03a8e5" stroke="#fff" stroke-miterlimit="10" stroke-width="2"/>
      <path id="パス_812" data-name="パス 812" d="M518.094,4164.63l-5.616,6.929h4.942l1.987,6.538,9.85-12.746L525.792,4159h-7.7Z" transform="translate(-459.292 -3957.173)" fill="#03a8e5" stroke="#fff" stroke-miterlimit="10" stroke-width="2"/>
      <path id="パス_813" data-name="パス 813" d="M536.872,4124.634V4117h-6.837l-2.736,3.14h-7.546c-.016,1.349-.064,2.812-.064,2.812l3.51,2.57h3.357v1.43l-4.933,3.572v5.313H529.6l.149-5.839Z" transform="translate(-463.269 -3934.01)" fill="#03a8e5" stroke="#fff" stroke-miterlimit="10" stroke-width="2"/>
      <path id="パス_814" data-name="パス 814" d="M512.8,4193.648,510.784,4187h-5.016L501,4192.883v15.2h3.588V4201.8h1.794v12.11h2.935l6.967-8.816Z" transform="translate(-452.962 -3972.616)" fill="#03a8e5" stroke="#fff" stroke-miterlimit="10" stroke-width="2"/>
      <path id="パス_815" data-name="パス 815" d="M555.631,4135.126h-6.222V4133.6l-6.844,5.377-.143,5.854,3.444,6.438H557.93l.092-14.292Z" transform="translate(-475.806 -3943.167)" fill="#03a8e5" stroke="#fff" stroke-miterlimit="10" stroke-width="2"/>
      <path id="パス_816" data-name="パス 816" d="M527.444,4185.89l3.462,11.386,18.765-23.74,0-.536H537.405Z" transform="translate(-467.546 -3964.894)" fill="#03a8e5" stroke="#fff" stroke-miterlimit="10" stroke-width="2"/>
      <path id="パス_817" data-name="パス 817" d="M394.038,4224.628l-.145,3.65,2.335,1.021,14.307-14.016v-2.919l-3.212-.876Z" transform="translate(-393.893 -3986.121)" fill="#03a8e5" stroke="#fff" stroke-miterlimit="10" stroke-width="2"/>
      <path id="パス_818" data-name="パス 818" d="M793.683,4123.091v-8.872l-4.655,5.818-11.055,13.818,15.855-.073,1.982-5.169.054-.141h1.855v9.867h3.48l2.8-2.485v-12.764Z" transform="translate(-605.712 -3932.477)" fill="#03a8e5" stroke="#fff" stroke-miterlimit="10" stroke-width="2"/>
    </g>
    <text id="近畿_47_" data-name="近畿：47％　" transform="translate(343.559 4828.084)" fill="#0052aa" font-size="26" font-family="HiraginoSans-W6, Hiragino Sans" letter-spacing="0.1em"><tspan x="0" y="0">近畿：</tspan><tspan y="0" font-size="52" font-family="DINCondensed-Bold, DIN Condensed" font-weight="700">47</tspan><tspan y="0">％　</tspan></text>
    <text id="関東_28_" data-name="関東：28％" transform="translate(517.559 4826.084)" fill="#0052aa" font-size="21" font-family="HiraginoSans-W6, Hiragino Sans" letter-spacing="0.1em"><tspan x="0" y="0">関東：</tspan><tspan y="0" font-size="42" font-family="DINCondensed-Bold, DIN Condensed" font-weight="700">28</tspan><tspan y="0">％</tspan></text>
    <text id="中部_10_" data-name="中部：10％　" transform="translate(343.559 4884.084)" fill="#0052aa" font-size="15" font-family="HiraginoSans-W6, Hiragino Sans" letter-spacing="0.1em"><tspan x="0" y="0">中部：</tspan><tspan y="0" font-size="30" font-family="DINCondensed-Bold, DIN Condensed" font-weight="700">10</tspan><tspan y="0">％　</tspan></text>
    <text id="四国_2_" data-name="四国：2％" transform="translate(566.559 4941.084)" fill="#0052aa" font-size="15" font-family="HiraginoSans-W6, Hiragino Sans" letter-spacing="0.1em"><tspan x="0" y="0">四国：</tspan><tspan y="0" font-size="30" font-family="DINCondensed-Bold, DIN Condensed" font-weight="700">2</tspan><tspan y="0">％</tspan></text>
    <text id="中国_2_" data-name="中国：2％" transform="translate(460.559 4941.084)" fill="#0052aa" font-size="15" font-family="HiraginoSans-W6, Hiragino Sans" letter-spacing="0.1em"><tspan x="0" y="0">中国：</tspan><tspan y="0" font-size="30" font-family="DINCondensed-Bold, DIN Condensed" font-weight="700">2</tspan><tspan y="0">％</tspan></text>
    <text id="北海道_2_" data-name="北海道：2％" transform="translate(343.559 4941.084)" fill="#0052aa" font-size="15" font-family="HiraginoSans-W6, Hiragino Sans" letter-spacing="0.1em"><tspan x="0" y="0">北海道：</tspan><tspan y="0" font-size="30" font-family="DINCondensed-Bold, DIN Condensed" font-weight="700">2</tspan><tspan y="0">％</tspan></text>
    <text id="九州_3_" data-name="九州：3％" transform="translate(566.559 4884.084)" fill="#0052aa" font-size="15" font-family="HiraginoSans-W6, Hiragino Sans" letter-spacing="0.1em"><tspan x="0" y="0">九州：</tspan><tspan y="0" font-size="30" font-family="DINCondensed-Bold, DIN Condensed" font-weight="700">3</tspan><tspan y="0">％</tspan></text>
    <text id="東北_6_" data-name="東北：6％" transform="translate(460.559 4883.084)" fill="#0052aa" font-size="15" font-family="HiraginoSans-W6, Hiragino Sans" letter-spacing="0.1em"><tspan x="0" y="0">東北：</tspan><tspan y="0" font-size="30" font-family="DINCondensed-Bold, DIN Condensed" font-weight="700">6</tspan><tspan y="0">％</tspan></text>
    <g transform="matrix(1, 0, 0, 1, 288.65, 4676.07)" filter="url(#長方形_219)">
      <rect id="長方形_219-2" data-name="長方形 219" width="96" height="33" transform="translate(35.91 48.02)" fill="url(#linear-gradient-2)"/>
    </g>
    <text id="出身地-2" data-name="出身地" transform="translate(344.172 4746.674)" fill="#fff" font-size="17" font-family="HiraginoSans-W6, Hiragino Sans" letter-spacing="0.2em"><tspan x="0" y="0">出身地</tspan></text>
  </g>
</svg>
