<svg xmlns="http://www.w3.org/2000/svg" xmlns:xlink="http://www.w3.org/1999/xlink" width="427.285" height="335.569" viewBox="0 0 427.285 335.569">
  <defs>
    <linearGradient id="linear-gradient" y1="0.5" x2="1" y2="0.5" gradientUnits="objectBoundingBox">
      <stop offset="0" stop-color="#03a8e5"/>
      <stop offset="1" stop-color="#012869"/>
    </linearGradient>
    <filter id="パス_301" x="0" y="0" width="427.285" height="335.569" filterUnits="userSpaceOnUse">
      <feOffset dx="10" dy="10" input="SourceAlpha"/>
      <feGaussianBlur stdDeviation="15" result="blur"/>
      <feFlood flood-opacity="0.161"/>
      <feComposite operator="in" in2="blur"/>
      <feComposite in="SourceGraphic"/>
    </filter>
    <linearGradient id="linear-gradient-2" x1="-0.03" xlink:href="#linear-gradient"/>
    <filter id="長方形_215" x="20.906" y="39.463" width="281" height="70" filterUnits="userSpaceOnUse">
      <feOffset input="SourceAlpha"/>
      <feGaussianBlur stdDeviation="5" result="blur-2"/>
      <feFlood flood-color="#013778" flood-opacity="0.322"/>
      <feComposite operator="in" in2="blur-2"/>
      <feComposite in="SourceGraphic"/>
    </filter>
    <clipPath id="clip-path">
      <rect id="長方形_228" data-name="長方形 228" width="71" height="231" transform="translate(0.047 -0.399)" fill="#72cef1"/>
    </clipPath>
  </defs>
  <g id="年代別内訳" transform="translate(-845.653 -3754.066)">
    <g id="グループ_242" data-name="グループ 242" transform="translate(880.653 3789.066)">
      <g transform="matrix(1, 0, 0, 1, -35, -35)" filter="url(#パス_301)">
        <path id="パス_301-2" data-name="パス 301" d="M0,0H337.285V245.569H0Z" transform="translate(35 35)" fill="url(#linear-gradient)"/>
      </g>
      <path id="パス_302" data-name="パス 302" d="M0,0H329.285V237.569H0Z" transform="translate(4 4)" fill="#edf9ff"/>
    </g>
    <g transform="matrix(1, 0, 0, 1, 845.65, 3754.07)" filter="url(#長方形_215)">
      <rect id="長方形_215-2" data-name="長方形 215" width="251" height="40" transform="translate(35.91 54.46)" fill="url(#linear-gradient-2)"/>
    </g>
    <text id="従業員_単体_の年代別内訳" data-name="従業員（単体）の年代別内訳" transform="translate(901.362 3832.725)" fill="#fff" font-size="14" font-family="HiraginoSans-W6, Hiragino Sans" letter-spacing="0.2em"><tspan x="0" y="0">従業員（単体）の年代別内訳</tspan></text>
    <text id="_20代_23名" data-name="20代：23名" transform="translate(904.559 3914.529)" fill="#0052aa" font-size="22" font-family="DINCondensed-Bold, DIN Condensed" font-weight="700" letter-spacing="0.1em"><tspan x="0" y="0">20</tspan><tspan y="0" font-family="HiraginoSans-W6, Hiragino Sans" font-weight="400">代：</tspan><tspan y="0" font-size="44">23</tspan><tspan y="0" font-family="HiraginoSans-W6, Hiragino Sans" font-weight="400">名</tspan></text>
    <text id="_40代_35名" data-name="40代：35名" transform="translate(904.559 3962.529)" fill="#0052aa" font-size="22" font-family="DINCondensed-Bold, DIN Condensed" font-weight="700" letter-spacing="0.1em"><tspan x="0" y="0">40</tspan><tspan y="0" font-family="HiraginoSans-W6, Hiragino Sans" font-weight="400">代：</tspan><tspan y="0" font-size="44">35</tspan><tspan y="0" font-family="HiraginoSans-W6, Hiragino Sans" font-weight="400">名</tspan></text>
    <text id="_60代以上_4名" data-name="60代以上：4名" transform="translate(904.498 4005.958)" fill="#0052aa" font-size="16" font-family="DINCondensed-Bold, DIN Condensed" font-weight="700" letter-spacing="0.1em"><tspan x="0" y="0">60</tspan><tspan y="0" font-family="HiraginoSans-W6, Hiragino Sans" font-weight="400">代以上：</tspan><tspan y="0" font-size="32">4</tspan><tspan y="0" font-family="HiraginoSans-W6, Hiragino Sans" font-weight="400">名</tspan></text>
    <g id="グループ_281" data-name="グループ 281" transform="translate(1128.512 3799.928)" opacity="0.52" style="isolation: isolate">
      <g id="グループ_280" data-name="グループ 280" transform="translate(0 0)">
        <g id="グループ_279" data-name="グループ 279" transform="translate(0 0)" clip-path="url(#clip-path)">
          <path id="パス_837" data-name="パス 837" d="M2480.49,6700.682c-.789-8.6-5.53-30.753-6.056-31.579a1.754,1.754,0,0,0-1.712-.589s-3.292-1.178-8.164-3.063-10.286-3.685-10.286-3.685h-.252c-.022-.134-.045-.264-.062-.411a46.506,46.506,0,0,1,.178-5.166,9.311,9.311,0,0,0,.791-1.041,26.733,26.733,0,0,0,2.022-4.576,1.761,1.761,0,0,0,1.49-.85c.425-.852.107-.781.107-1.419s1.2-2.058,1.063-4.114c-.059-.856-1.383-1.17-1.383-1.17s.426-2.767.426-3.4-.319-3.513-.426-4.15a13.731,13.731,0,0,0-2.128-4.682,15.99,15.99,0,0,0-5-2.874c-1.064-.213-3.937-1.063-6.172-.851s-5.6,3.015-5.6,3.015a9.6,9.6,0,0,0-2.908,1.135c-.745.639-1.774,5.428-1.561,7.236a18.883,18.883,0,0,0,.922,3.725,2,2,0,0,0-1.49,1.028c-.531.958.532,2.589.958,3.44s-.107.958.213,1.915a1.943,1.943,0,0,0,1.383,1.171,34.734,34.734,0,0,0,2.128,5.249,8.614,8.614,0,0,0,1.448,1.8,40.161,40.161,0,0,1,.138,4.586c-.017.146-.04.276-.061.411h-.47s-6.323,2.035-9.219,3.332-11.324,5.419-11.324,5.419a2.537,2.537,0,0,0-1.58.119c-.659.354-.659,3.3-.79,4.831s-2.37,20.5-3.555,28.869-2.766,30.989-2.766,30.989l2.9.589s-2.238,4.831-1.843,6.952,1.843,4.714,3.424,4.714a1.48,1.48,0,0,0,.789-.246v2.61H2413.5a1.688,1.688,0,0,0-1.683,1.683v38.179a1.689,1.689,0,0,0,1.684,1.684h8.5a1.689,1.689,0,0,0,1.684-1.684v-38.542a1.73,1.73,0,0,0-.042-.365c.439.155,2.436.85,4.892,1.5.159,3.923.331,7.578.476,9.265.39,4.549,1.951,14.432,1.951,18.584s1.562,52.982,1.562,52.982l4.295.2-.391,3.559s-1.951,3.558-2.147,5.93-1.366,11.862-.976,12.851,3.514,2.768,6.831.791,6.636-10.28,6.636-11.665-.195-5.535-.195-7.315v-4.151l1.614-.284a28.98,28.98,0,0,0,2.094,3.052,30.036,30.036,0,0,0,7.611,6.524s2.732-.2,2.927-1.385a24.285,24.285,0,0,0-.781-6.721,31.953,31.953,0,0,0-3.513-8.107c-.781-.988-.977-4.941-.977-4.941l2.928.4s3.513-19.967,4.879-24.317,6.636-21.351,6.636-23.131c0-1.11-.076-13.085-.134-21.926,2.441-.3,4.3-.544,4.3-.544l-.37-3.857a2.224,2.224,0,0,0,1.02-.744c.52-.707,3.383-4.6,3.773-6.015a56.564,56.564,0,0,0,.781-5.9h2.176s-.263-26.63-1.053-35.232m-33.751-35.14,6.859-3.335.435-.212s-.068.494-.187,1.317c-.032.214-.066.452-.1.708-.443,3.008-1.324,8.737-2.178,12.8a42.06,42.06,0,0,1-1.311,4.729l-1.952-7.922,2.341-4.752-3.908-2.291.006-.122-.106.063-.107-.062.006.122-3.908,2.291,2.342,4.752-1.415,5.741a54.646,54.646,0,0,1-2.062-5.174,81.989,81.989,0,0,1-1.694-10.187h0c-.027-.224-.052-.434-.075-.626-.1-.854-.155-1.389-.155-1.389Zm-23.129,66.981c-.364,4.128-.5,16.863-.524,18.824a1.69,1.69,0,0,0-1.546-1.02h-3.789v-4.905a1.136,1.136,0,0,0,1.383-.41c.922-1.061.922-2.945.922-4.123a12.88,12.88,0,0,0-.922-3.418l2.5-.117s0-5.892.264-9.073,2.107-27.454,2.107-27.454l.658,21.8s-.658,5.42-1.054,9.9m27.913,43.667c0,1.519-1.27,8.278-2.546,14.083.1-4.793.242-9.73.242-13.424,0-7.506-1.382-33.314-1.382-33.314s2.963,23.7,3.95,26.862-.264,3.423-.264,5.793m22.406-30.129-.942-9.7a28.1,28.1,0,0,0,1.184,4.831,2.63,2.63,0,0,0,1.58,1.178s-1.08,1.984-1.822,3.69" transform="translate(-2410.12 -6626.978)" fill="#72cef1"/>
        </g>
      </g>
    </g>
    <text id="_30代_15名" data-name="30代：15名" transform="translate(1055.927 3908.65)" fill="#0052aa" font-size="16" font-family="DINCondensed-Bold, DIN Condensed" font-weight="700" letter-spacing="0.1em"><tspan x="0" y="0">30</tspan><tspan y="0" font-family="HiraginoSans-W6, Hiragino Sans" font-weight="400">代：</tspan><tspan y="0" font-size="32">15</tspan><tspan y="0" font-family="HiraginoSans-W6, Hiragino Sans" font-weight="400">名</tspan></text>
    <text id="_50代_12名" data-name="50代：12名" transform="translate(1056.102 3958.378)" fill="#0052aa" font-size="16" font-family="DINCondensed-Bold, DIN Condensed" font-weight="700" letter-spacing="0.1em"><tspan x="0" y="0">50</tspan><tspan y="0" font-family="HiraginoSans-W6, Hiragino Sans" font-weight="400">代：</tspan><tspan y="0" font-size="32">12</tspan><tspan y="0" font-family="HiraginoSans-W6, Hiragino Sans" font-weight="400">名</tspan></text>
    <text id="従業員数89名_単体_" data-name="従業員数89名（単体）" transform="translate(904.204 3865.509)" fill="#0052aa" font-size="11" font-family="HiraginoSans-W6, Hiragino Sans" letter-spacing="0.2em"><tspan x="0" y="0">従業員数</tspan><tspan y="0" font-family="DINCondensed-Bold, DIN Condensed" font-weight="700">89</tspan><tspan y="0">名（単体）</tspan></text>
  </g>
</svg>
