<svg xmlns="http://www.w3.org/2000/svg" xmlns:xlink="http://www.w3.org/1999/xlink" width="425.727" height="371.458" viewBox="0 0 425.727 371.458">
  <defs>
    <linearGradient id="linear-gradient" y1="0.5" x2="1" y2="0.5" gradientUnits="objectBoundingBox">
      <stop offset="0" stop-color="#03a8e5"/>
      <stop offset="1" stop-color="#012869"/>
    </linearGradient>
    <filter id="パス_301" x="0" y="0" width="425.727" height="371.458" filterUnits="userSpaceOnUse">
      <feOffset dx="10" dy="10" input="SourceAlpha"/>
      <feGaussianBlur stdDeviation="15" result="blur"/>
      <feFlood flood-opacity="0.161"/>
      <feComposite operator="in" in2="blur"/>
      <feComposite in="SourceGraphic"/>
    </filter>
    <linearGradient id="linear-gradient-2" x1="-0.03" xlink:href="#linear-gradient"/>
    <filter id="長方形_212" x="20.953" y="41.458" width="244" height="144" filterUnits="userSpaceOnUse">
      <feOffset input="SourceAlpha"/>
      <feGaussianBlur stdDeviation="5" result="blur-2"/>
      <feFlood flood-color="#013778" flood-opacity="0.322"/>
      <feComposite operator="in" in2="blur-2"/>
      <feComposite in="SourceGraphic"/>
    </filter>
  </defs>
  <g id="復職率" transform="translate(-1121 -2769)">
    <g id="グループ_225" data-name="グループ 225" transform="translate(1156 2804)">
      <g transform="matrix(1, 0, 0, 1, -35, -35)" filter="url(#パス_301)">
        <path id="パス_301-2" data-name="パス 301" d="M0,0H335.727V281.458H0Z" transform="translate(35 35)" fill="url(#linear-gradient)"/>
      </g>
      <path id="パス_302" data-name="パス 302" d="M0,0H327.727V273.458H0Z" transform="translate(4 4)" fill="#edf9ff"/>
    </g>
    <g id="家族" transform="translate(1353.953 2918.709)" opacity="0.996">
      <path id="パス_825" data-name="パス 825" d="M1348.009,4128.862c-2.831-2.251-9.715-3.384-13.312-2.519-4.022.968-6.551,6.247-6.119,10.066a20.24,20.24,0,0,1,.462,3.9c-.129,1.549-.991,2.958-1.165,4.5a6.315,6.315,0,0,0,2.039,5.116,10.652,10.652,0,0,0,5.044,2.516,12.216,12.216,0,0,0,8.827-1.056,8.74,8.74,0,0,0,2.208-1.875,2.078,2.078,0,0,1-.1.389,17.309,17.309,0,0,1-2.694,3.757,4.083,4.083,0,0,1-1.336,1.033,4.615,4.615,0,0,1-2.5.068q-6.421-1.028-12.771-2.458a.858.858,0,0,1-.825-.9l-.347-2.183a1.7,1.7,0,0,0-.554-1.21.882.882,0,0,0-1.251.98,5.455,5.455,0,0,0-2.485-1.594,3.2,3.2,0,0,0-3.538,2.543,4.384,4.384,0,0,0,1.8,4.22,5.38,5.38,0,0,0,3.461,1.052,2.262,2.262,0,0,1,.944.056,1.936,1.936,0,0,1,.687.57c4.5,5.071,11.049,8.609,17.824,8.348a9.887,9.887,0,0,0,2.857-.47,10.184,10.184,0,0,0,4.15-3.064,19.33,19.33,0,0,0,2.52-3.7,13.348,13.348,0,0,1-1.107,2.354,11.824,11.824,0,0,1-4.364,4.68,12.156,12.156,0,0,1-5.626,1.168,30.446,30.446,0,0,1-5.873-.491q1.082,3.151,2.456,6.191a2.437,2.437,0,0,0,.963,1.264,2.228,2.228,0,0,0,1.764-.087c3.661-1.353,6.22-4.613,8.581-7.721a1.672,1.672,0,0,0,1.872.872,3.108,3.108,0,0,0,1.785-1.271c1.764-2.353,1.435-5.614,2.2-8.453a2.512,2.512,0,0,1,.684-1.3,1.02,1.02,0,0,1,1.35-.043c.284.3.355.836.754.93a25.765,25.765,0,0,0,.122-3.2,1.994,1.994,0,0,0-.159-.876,1.876,1.876,0,0,0-.637-.64,9.9,9.9,0,0,0-2.875-1.369,4.314,4.314,0,0,0-.436-1.391,6.339,6.339,0,0,0-5.34-2.722,6.531,6.531,0,0,0-.018-1.009,2.3,2.3,0,0,0,1.21-4.424,11.925,11.925,0,0,0,1.249-5.533,6.844,6.844,0,0,0-2.384-5.02" transform="translate(-1284.045 -4069.908)" fill="#9eddf6"/>
      <path id="パス_826" data-name="パス 826" d="M1203.655,4035.993a13.766,13.766,0,0,0,1.272,1.031,26.177,26.177,0,0,0,9.885,3.784,4.277,4.277,0,0,1-2.465-2.309,1.708,1.708,0,0,1-.027-1.572c.43-.667,1.4-.633,2.183-.521a11.287,11.287,0,0,1-2.843-3.121,2.911,2.911,0,0,1-.472-2.72,2.235,2.235,0,0,1,2.346-1.01,6.551,6.551,0,0,1,2.463,1.13c-.748-.969-1.836-1.645-2.531-2.653s-.805-2.633.243-3.265a3.105,3.105,0,0,1,2.762.257l2.528,1.092a7.444,7.444,0,0,1-2.285-3.06,2.893,2.893,0,0,1,.445-2.51c.162-.03.324-.06.486-.083,2.5-.354,4.865,1.157,6.827,2.748s3.943,3.4,6.432,3.835a7.458,7.458,0,0,1,.036-5.221c-.138.356-3.816-.117-4.255-.17a19.575,19.575,0,0,1-3.555-.808c-2.436-.758-4.6-1.262-6.538-3.071a22.737,22.737,0,0,1-4.254-6.254l-.184-.349a32.421,32.421,0,0,1-1.344-5.291c-.131-.851-.21-1.712-.263-2.575.144.543.323,1.077.5,1.611a15.764,15.764,0,0,0,1.577,4.406,11.332,11.332,0,0,0,1.269,1.764c.89,1.536,1.861,3.028,2.885,4.461a12.107,12.107,0,0,0,2.26,2.569,9.026,9.026,0,0,0,2.957,1.464,37.574,37.574,0,0,0,8.015,1.084,9.383,9.383,0,0,1,3.05.627c2.716,1.2,3.786,4.394,5.321,6.938a16.383,16.383,0,0,0,2.381,3.056c.158.16.326.319.5.468a.067.067,0,0,1,0,.014,9.292,9.292,0,0,1-3.821-3.467,58.2,58.2,0,0,0-3.512-5.5,2.014,2.014,0,0,0-.9-.7,1.522,1.522,0,0,0-1.732,1.218,4.42,4.42,0,0,0,.277,2.323l.72,2.34c-2.707.182-5.156-1.492-7.3-3.153s-4.434-3.468-7.143-3.622c-.182,2.141,1.419,4.025,3.161,5.283s3.759,2.206,5.128,3.861c-4.4-1.165-7.34-3.289-11.712-4.551-1.648,1.42.926,3.089,2.559,4.451a17.09,17.09,0,0,0,5.615,2.951,18.747,18.747,0,0,1-9.983-2.264,2.762,2.762,0,0,0,.355,2.5,7.182,7.182,0,0,0,4.2,2.956,21.082,21.082,0,0,0,5.2.622l-7.645.567a1.48,1.48,0,0,0-.993.326.969.969,0,0,0-.015,1.182,2.213,2.213,0,0,0,1.031.725c3.15,1.289,6.721.06,10.12.228,2.912.145,5.807,1.327,8.67.778a3.986,3.986,0,0,1,1.14-.136,3.356,3.356,0,0,1,1.189.455,24.19,24.19,0,0,0,4.6,1.821q-.742,1.382-1.558,2.723c8.335,3.216,17.5,3.3,26.435,3.3,4.976,0,10.115-.047,14.678-2.032a26.913,26.913,0,0,0,6.073-3.855c10.962-8.847,17.8-22.092,20.807-35.854a48.9,48.9,0,0,0,1.212-8.875c-.028.005-.057.007-.086.011.252-1.219.486-2.441.658-3.675.786-5.6,1.221-12.919-1.08-18.087-1.507-3.383-2.5-6.19-5.049-8.88-3.266-3.451-8.89-5.393-13.9-6.34-2.9-.548-9.757-.767-13.988-1.156a10.124,10.124,0,0,1-1.957-5.618,11.364,11.364,0,0,0,5.263-12.354c3.474-.7,5.58-4.377,6.095-7.883.215-1.465.175-3.125-.837-4.205a2.467,2.467,0,0,0-2.46-.576l1.981-2.941c-2.242-2.794-.193-7.258-1.96-10.374-1.067-1.88-3.268-2.789-5.37-3.291a8.773,8.773,0,0,0-5.233.083,9.669,9.669,0,0,0-6.246-4.376c-4.03-.792-8.274.9-11.265,3.717-1.633,1.536-2.947,3.376-4.484,5.008a11.172,11.172,0,0,1-5.583,3.56,4.308,4.308,0,0,0,3.55.75,6.189,6.189,0,0,1-4.46,4.6,5.573,5.573,0,0,1,3.909,2.478c.954,1.256,1.658,2.7,2.688,3.888a3.211,3.211,0,0,0-2.716,3.261,4.29,4.29,0,0,0,3.853,3.636,25.065,25.065,0,0,0,3.8,12.571,5.2,5.2,0,0,1,.849,1.774,4.722,4.722,0,0,1-.108,1.68,13.429,13.429,0,0,1-1.23,4.1,4.981,4.981,0,0,1-2.333,2.2,15.24,15.24,0,0,0-6.711-.415c3.721,1.071,7.47,2.65,10,5.585,1.872,2.175,2.151,8.239.9,11.111.99,1.279.676,3.292-.249,4.62,2.453.36,3.813,3.159,6.127,4.051,1.513.583,3.331.3,4.68,1.2,1.193.8,1.671,2.281,2.242,3.6,2.029,4.683,6.022,8.21,8.693,12.559a29.5,29.5,0,0,1,4.081,15.137c-.109.361-.214.723-.323,1.083-1.373,4.54-3.016,9.453-6.994,12.035a16.771,16.771,0,0,1-8.242,2.2,46.841,46.841,0,0,1-10.325-.591c2.528.03,5.048-.047,7.456-.047a26.4,26.4,0,0,0,5.976-.546,13.431,13.431,0,0,0,9.427-8.955,23.378,23.378,0,0,0,.554-8.424,32.034,32.034,0,0,0-1-6.59,22.174,22.174,0,0,0-6.447-10.1,11.288,11.288,0,0,1-3.483,6.635c-1.445,1.335-3.286,2.344-4.2,4.085a20.356,20.356,0,0,0-1.025,3.118,23.052,23.052,0,0,1-2.446,4.946c-2.265,3.4-3.792,6.668-6.756,9.5a14.558,14.558,0,0,1-4.027,2.432,56.055,56.055,0,0,0,10.483-13.32,22.212,22.212,0,0,0,1.026-2.008c.356-.816.633-1.666.965-2.492a20,20,0,0,1,4.68-6.937,20.69,20.69,0,0,0,1.738-1.737,6.846,6.846,0,0,0,1.509-3.7c.267-3.008-1.452-5.794-3.1-8.324a8.182,8.182,0,0,0-2.555-2.824.821.821,0,0,0-.609-.144c-.44.123-.435.74-.355,1.189a14.754,14.754,0,0,1-.527,7.2,5.733,5.733,0,0,0-1.663-3.521c-1.909.191-1.108,3.321-.94,5.165a5.849,5.849,0,0,1,0,2.29,4.451,4.451,0,0,1-1.27,1.728l-1.973,1.927a3.852,3.852,0,0,1-1.76,1.17,1.329,1.329,0,0,1-1.635-.961,33.864,33.864,0,0,1-8.832,7.352,3.047,3.047,0,0,1-2.326.564c-.906-.28-1.352-1.276-1.668-2.17-.935-2.649-2.225-4.8-2.794-7.55a28.13,28.13,0,0,1-10.357-7.658c-.056-.18-.083-.365-.149-.543a7.285,7.285,0,0,1-5.234-2.5,5.1,5.1,0,0,1-.61-5.586,3.948,3.948,0,0,1,5.147-1.553,2.867,2.867,0,0,0,1.369.615c.389,0,.746-.234,1.134-.258,1.652-.1,1.92,3.139,3.572,3.031a9.828,9.828,0,0,1-.855-8.845,11.284,11.284,0,0,0,.818-2.227,7.143,7.143,0,0,0-.111-2.316q-.175-1.111-.352-2.223a15.669,15.669,0,0,1,2.021-5.648,7.961,7.961,0,0,1,6.753-3.965,1.944,1.944,0,0,0,.916-.081,1.63,1.63,0,0,0,.538-.483,32.486,32.486,0,0,0,2.564-3.665,6.308,6.308,0,0,0,2.986-2.046,9.549,9.549,0,0,0,1.9-4.669,12.814,12.814,0,0,0-3.892-11.188c-3.378-6.688-10.859-11.053-18.435-11.451-4.15-.218-8.781.87-11.108,4.314-1.615,2.389-1.829,5.472-3.2,8.007a9.793,9.793,0,0,1-5.239,4.5,5.931,5.931,0,0,0-2.284,1.093,3.32,3.32,0,0,0-.807,1.543c-.788,3.005.628,6.664-1.367,9.046-1.827,2.18-5.319,1.736-7.911.562,1.159,2.606-.139,6.22,1.979,8.132,1.429,1.29,3.787,1.076,5.2,2.386s1.394,3.674,2.858,4.9c1.508,1.268,3.8.733,5.677,1.326,1.43.451,2.562,1.541,3.9,2.213a8.35,8.35,0,0,0,2.416.722,3.93,3.93,0,0,1-.234.329,12.663,12.663,0,0,1-2.114.762q-7.146,2.032-14.447,3.462c-2.88.565-5.915,1.12-8.181,2.984a11.436,11.436,0,0,0-3.723,7.98,33.94,33.94,0,0,0,.876,8.975l1.534,8.138c.979,5.193,1.982,10.459,4.32,15.2a20.836,20.836,0,0,0,9.071,9.612" transform="translate(-1187.795 -3908.516)" fill="#9eddf6"/>
    </g>
    <g transform="matrix(1, 0, 0, 1, 1121, 2769)" filter="url(#長方形_212)">
      <rect id="長方形_212-2" data-name="長方形 212" width="214" height="114" transform="translate(35.95 56.46)" fill="url(#linear-gradient-2)"/>
    </g>
    <text id="育児休業取得後_復職率" data-name="育児休業取得後
復職率" transform="translate(1197.953 2868.458)" fill="#fff" font-size="15" font-family="HiraginoSans-W6, Hiragino Sans" letter-spacing="0.2em"><tspan x="0" y="0">育児休業取得後</tspan><tspan y="0" font-size="33" font-family="DINCondensed-Bold, DIN Condensed" font-weight="700"></tspan><tspan font-size="38"><tspan x="0" y="40">復職率</tspan></tspan></text>
    <text id="_100_" data-name="100％" transform="translate(1197.953 3046.458)" fill="#0052aa" font-size="110" font-family="DINCondensed-Bold, DIN Condensed" font-weight="700" letter-spacing="0.1em"><tspan x="0" y="0">100</tspan><tspan y="0" font-size="36" font-family="HiraginoSans-W6, Hiragino Sans" font-weight="400">％</tspan></text>
  </g>
</svg>
