<svg xmlns="http://www.w3.org/2000/svg" width="201.6" height="102.528" viewBox="0 0 201.6 102.528">
  <path id="パス_1111" data-name="パス 1111" d="M6.912,0V-102.528H28.656q12.672,0,19.224,6.912t6.552,19.584V-28.08q0,14.4-6.984,21.24T27.36,0ZM21.6-88.7v74.88h6.768q6.192,0,8.784-3.1t2.592-9.72V-76.032q0-6.048-2.448-9.36T28.368-88.7ZM96.192-35.856l-7.2-37.152H88.7L81.5-35.856ZM59.9,0,82.8-102.528H95.04L117.936,0H103.248l-4.32-22.032H78.912L74.592,0Zm66.96,0V-88.7H109.872v-13.824h48.672V-88.7H141.552V0Zm59.9-35.856-7.2-37.152h-.288l-7.2,37.152ZM150.48,0l22.9-102.528h12.24L208.512,0H193.824L189.5-22.032H169.488L165.168,0Z" transform="translate(-6.912 102.528)" fill="#fff"/>
</svg>
