<svg xmlns="http://www.w3.org/2000/svg" width="472.752" height="102.528" viewBox="0 0 472.752 102.528">
  <path id="パス_1049" data-name="パス 1049" d="M-233.856,0V-102.528h14.688V0Zm28.368,0V-102.528h14.112L-169.2-40.752h.288v-61.776h14.688V0h-13.824l-22.464-61.632h-.288V0Zm74.16,0V-88.7H-148.32v-13.824h48.672V-88.7H-116.64V0Zm38.16,0V-102.528h43.776V-88.7H-78.48v30.1h25.344v13.824H-78.48v30.1h29.088V0ZM-25.2-88.7v31.968h8.352a14.779,14.779,0,0,0,6.192-1.08,8.416,8.416,0,0,0,3.6-3.1A14.075,14.075,0,0,0-5.472-65.88a47.769,47.769,0,0,0,.432-6.84,47.769,47.769,0,0,0-.432-6.84A13.688,13.688,0,0,0-7.2-84.672Q-9.936-88.7-17.568-88.7ZM-39.888,0V-102.528h23.616q25.92,0,25.92,30.1A37.929,37.929,0,0,1,6.84-57.024,21.774,21.774,0,0,1-3.024-46.8L12.816,0H-2.736l-13.68-43.776H-25.2V0ZM71.28-102.528,50.256,0H37.3L16.416-102.528H31.968L43.632-30.96h.288l11.808-71.568ZM80.5,0V-102.528H95.184V0ZM109.44,0V-102.528h43.776V-88.7H124.128v30.1h25.344v13.824H124.128v30.1h29.088V0ZM238.9-102.528,223.632,0H209.808L198.576-66.528h-.288L187.2,0H173.376L158.112-102.528h15.552l7.344,65.088h.288l11.52-65.088h11.232L216-35.856h.288l7.056-66.672Z" transform="translate(233.856 102.528)" fill="#fff"/>
</svg>
