<svg xmlns="http://www.w3.org/2000/svg" width="491.904" height="104.256" viewBox="0 0 491.904 104.256">
  <path id="パス_1393" data-name="パス 1393" d="M16.56,0V-88.7H-.432v-13.824H48.24V-88.7H31.248V0ZM54.72,0V-102.528H69.408v43.92H87.552v-43.92H102.24V0H87.552V-45.648H69.408V0Zm91.008-35.856-7.2-37.152h-.288l-7.2,37.152ZM109.44,0l22.9-102.528h12.24L167.472,0H152.784l-4.32-22.032H128.448L124.128,0ZM174.1,0V-102.528h14.112l22.176,61.776h.288v-61.776H225.36V0H211.536L189.072-61.632h-.288V0Zm64.512,0V-102.528H253.3v46.8h.288l21.456-46.8h14.688l-20.016,41.04L293.472,0H277.92l-16.7-45.5L253.3-30.672V0ZM340.416,0V-43.344l-20.16-59.184h15.552l11.808,40.752h.288l11.808-40.752h15.552L355.1-43.344V0Zm41.328-78.336A26.2,26.2,0,0,1,383.9-89.28a23.126,23.126,0,0,1,5.76-7.92,24.352,24.352,0,0,1,7.848-4.608,25.938,25.938,0,0,1,8.856-1.584,25.938,25.938,0,0,1,8.856,1.584,26.1,26.1,0,0,1,7.992,4.608,24.112,24.112,0,0,1,5.616,7.92,26.2,26.2,0,0,1,2.16,10.944v54.144a25.957,25.957,0,0,1-2.16,11.088,22.874,22.874,0,0,1-5.616,7.632A24.693,24.693,0,0,1,415.224-.72,25.938,25.938,0,0,1,406.368.864,25.938,25.938,0,0,1,397.512-.72a23.106,23.106,0,0,1-7.848-4.752A21.984,21.984,0,0,1,383.9-13.1a25.957,25.957,0,0,1-2.16-11.088Zm14.688,54.144q0,5.328,2.952,7.848a10.412,10.412,0,0,0,6.984,2.52,10.412,10.412,0,0,0,6.984-2.52q2.952-2.52,2.952-7.848V-78.336q0-5.328-2.952-7.848a10.412,10.412,0,0,0-6.984-2.52,10.412,10.412,0,0,0-6.984,2.52q-2.952,2.52-2.952,7.848Zm95.04-78.336V-23.04a23.563,23.563,0,0,1-1.8,9.288,23.658,23.658,0,0,1-5.112,7.56,24.435,24.435,0,0,1-7.632,5.184A22.927,22.927,0,0,1,467.712.864a22.421,22.421,0,0,1-9.144-1.872,24.685,24.685,0,0,1-7.56-5.184,24.685,24.685,0,0,1-5.184-7.56,22.776,22.776,0,0,1-1.872-9.288v-79.488H458.64V-24.48q0,5.472,2.592,8.064a8.792,8.792,0,0,0,6.48,2.592,8.792,8.792,0,0,0,6.48-2.592q2.592-2.592,2.592-8.064v-78.048Z" transform="translate(0.432 103.392)" fill="#fff"/>
</svg>
