<svg xmlns="http://www.w3.org/2000/svg" width="393.96" height="85.44" viewBox="0 0 393.96 85.44">
  <path id="パス_881" data-name="パス 881" d="M6.12,0V-85.44H18.36V0ZM29.76,0V-85.44H41.52L60-33.96h.24V-85.44H72.48V0H60.96L42.24-51.36H42V0Zm61.8,0V-73.92H77.4V-85.44h40.56v11.52H103.8V0Zm31.8,0V-85.44h36.48v11.52H135.6v25.08h21.12v11.52H135.6v25.08h24.24V0ZM180-73.92v26.64h6.96a12.315,12.315,0,0,0,5.16-.9,7.013,7.013,0,0,0,3-2.58,11.729,11.729,0,0,0,1.32-4.14,39.807,39.807,0,0,0,.36-5.7,39.807,39.807,0,0,0-.36-5.7A11.407,11.407,0,0,0,195-70.56q-2.28-3.36-8.64-3.36ZM167.76,0V-85.44h19.68q21.6,0,21.6,25.08a31.607,31.607,0,0,1-2.34,12.84A18.145,18.145,0,0,1,198.48-39l13.2,39H198.72l-11.4-36.48H180V0ZM260.4-85.44,242.88,0h-10.8l-17.4-85.44h12.96l9.72,59.64h.24l9.84-59.64ZM268.08,0V-85.44h12.24V0ZM292.2,0V-85.44h36.48v11.52H304.44v25.08h21.12v11.52H304.44v25.08h24.24V0ZM400.08-85.44,387.36,0H375.84l-9.36-55.44h-.24L357,0H345.48L332.76-85.44h12.96l6.12,54.24h.24l9.6-54.24h9.36L381-29.88h.24l5.88-55.56Z" transform="translate(-6.12 85.44)" fill="#0052aa"/>
</svg>
