<svg xmlns="http://www.w3.org/2000/svg" width="703.44" height="86.88" viewBox="0 0 703.44 86.88">
  <path id="パス_875" data-name="パス 875" d="M-309.72-60.84h-12.24V-63.6a13.069,13.069,0,0,0-1.98-7.26q-1.98-3.06-6.66-3.06a7.7,7.7,0,0,0-4.08.96,8.046,8.046,0,0,0-2.52,2.4,10.151,10.151,0,0,0-1.32,3.54,23.113,23.113,0,0,0-.36,4.14,40.575,40.575,0,0,0,.18,4.2,7.973,7.973,0,0,0,.9,3,6.673,6.673,0,0,0,2.1,2.28,19.292,19.292,0,0,0,3.78,1.92l9.36,3.72a23.207,23.207,0,0,1,6.6,3.66A15.822,15.822,0,0,1-312-39.24a22.717,22.717,0,0,1,1.8,6.54,64.717,64.717,0,0,1,.48,8.34,43.976,43.976,0,0,1-1.08,10.02,21.108,21.108,0,0,1-3.48,7.86,17.274,17.274,0,0,1-6.6,5.28A23.281,23.281,0,0,1-330.84.72a21.788,21.788,0,0,1-8.28-1.56,19.694,19.694,0,0,1-6.6-4.32,21.023,21.023,0,0,1-4.38-6.42,19.494,19.494,0,0,1-1.62-7.98v-4.56h12.24v3.84a10,10,0,0,0,1.98,6.06q1.98,2.7,6.66,2.7a10.74,10.74,0,0,0,4.86-.9,6.461,6.461,0,0,0,2.7-2.58,9.475,9.475,0,0,0,1.14-4.02q.18-2.34.18-5.22a51.724,51.724,0,0,0-.24-5.52,9.5,9.5,0,0,0-.96-3.48,6.747,6.747,0,0,0-2.22-2.16,28.45,28.45,0,0,0-3.66-1.8l-8.76-3.6q-7.92-3.24-10.62-8.58t-2.7-13.38a31.04,31.04,0,0,1,1.32-9.12,20.745,20.745,0,0,1,3.96-7.44,18.149,18.149,0,0,1,6.42-4.98,21.428,21.428,0,0,1,9.3-1.86,20.307,20.307,0,0,1,8.34,1.68,21.483,21.483,0,0,1,6.54,4.44,18.54,18.54,0,0,1,5.52,13.2ZM-300.6,0V-85.44h18.36a27.293,27.293,0,0,1,8.88,1.32,17.036,17.036,0,0,1,6.96,4.68,18.3,18.3,0,0,1,4.32,7.86,49.154,49.154,0,0,1,1.2,12.18,60.417,60.417,0,0,1-.66,9.72,20.322,20.322,0,0,1-2.82,7.44,17.866,17.866,0,0,1-6.72,6.54q-4.2,2.34-11.04,2.34h-6.24V0Zm12.24-73.92v29.04h5.88a12.509,12.509,0,0,0,5.76-1.08,6.8,6.8,0,0,0,3-3,10.967,10.967,0,0,0,1.14-4.44q.18-2.64.18-5.88,0-3-.12-5.7a12.332,12.332,0,0,0-1.08-4.74,6.814,6.814,0,0,0-2.88-3.12A11.433,11.433,0,0,0-282-73.92ZM-251.76,0V-85.44h36.48v11.52h-24.24v25.08h21.12v11.52h-21.12v25.08h24.24V0Zm83.28-24.36v5.28a19.025,19.025,0,0,1-1.5,7.5,20.747,20.747,0,0,1-4.14,6.3A19.959,19.959,0,0,1-180.3-.9,18.092,18.092,0,0,1-187.92.72,27.4,27.4,0,0,1-195-.24a16.75,16.75,0,0,1-6.48-3.36,18.58,18.58,0,0,1-4.74-6.18,21.879,21.879,0,0,1-1.86-9.66V-66.48a20.809,20.809,0,0,1,1.44-7.8,18.358,18.358,0,0,1,4.08-6.24,18.967,18.967,0,0,1,6.3-4.14,21.168,21.168,0,0,1,8.1-1.5q8.64,0,14.04,5.64a20.038,20.038,0,0,1,4.14,6.54,22.087,22.087,0,0,1,1.5,8.22v4.8h-12.24v-4.08a9.907,9.907,0,0,0-2.04-6.24,6.608,6.608,0,0,0-5.52-2.64q-4.56,0-6.06,2.82a15.113,15.113,0,0,0-1.5,7.14v43.68a11.313,11.313,0,0,0,1.62,6.24q1.62,2.52,5.82,2.52a8.888,8.888,0,0,0,2.58-.42,7.7,7.7,0,0,0,2.58-1.38,7.322,7.322,0,0,0,1.8-2.64,10.7,10.7,0,0,0,.72-4.2v-4.2ZM-158.16,0V-85.44h12.24V0Zm48.84-29.88-6-30.96h-.24l-6,30.96ZM-139.56,0l19.08-85.44h10.2L-91.2,0h-12.24l-3.6-18.36h-16.68L-127.32,0ZM-85.2,0V-85.44h12.24v73.2h24.24V0ZM20.4-24.36v5.28a19.025,19.025,0,0,1-1.5,7.5,20.747,20.747,0,0,1-4.14,6.3A19.959,19.959,0,0,1,8.58-.9,18.092,18.092,0,0,1,.96.72,27.4,27.4,0,0,1-6.12-.24,16.75,16.75,0,0,1-12.6-3.6a18.58,18.58,0,0,1-4.74-6.18,21.88,21.88,0,0,1-1.86-9.66V-66.48a20.809,20.809,0,0,1,1.44-7.8,18.358,18.358,0,0,1,4.08-6.24,18.967,18.967,0,0,1,6.3-4.14,21.168,21.168,0,0,1,8.1-1.5q8.64,0,14.04,5.64a20.038,20.038,0,0,1,4.14,6.54,22.087,22.087,0,0,1,1.5,8.22v4.8H8.16v-4.08a9.907,9.907,0,0,0-2.04-6.24A6.608,6.608,0,0,0,.6-73.92q-4.56,0-6.06,2.82a15.113,15.113,0,0,0-1.5,7.14v43.68a11.313,11.313,0,0,0,1.62,6.24q1.62,2.52,5.82,2.52a8.888,8.888,0,0,0,2.58-.42,7.7,7.7,0,0,0,2.58-1.38,7.322,7.322,0,0,0,1.8-2.64,10.7,10.7,0,0,0,.72-4.2v-4.2Zm9.24-40.92a21.83,21.83,0,0,1,1.8-9.12,19.272,19.272,0,0,1,4.8-6.6,20.293,20.293,0,0,1,6.54-3.84,21.615,21.615,0,0,1,7.38-1.32,21.615,21.615,0,0,1,7.38,1.32A21.753,21.753,0,0,1,64.2-81a20.094,20.094,0,0,1,4.68,6.6,21.83,21.83,0,0,1,1.8,9.12v45.12a21.631,21.631,0,0,1-1.8,9.24A19.063,19.063,0,0,1,64.2-4.56,20.578,20.578,0,0,1,57.54-.6,21.615,21.615,0,0,1,50.16.72,21.615,21.615,0,0,1,42.78-.6a19.255,19.255,0,0,1-6.54-3.96,18.32,18.32,0,0,1-4.8-6.36,21.631,21.631,0,0,1-1.8-9.24ZM41.88-20.16q0,4.44,2.46,6.54a8.676,8.676,0,0,0,5.82,2.1,8.676,8.676,0,0,0,5.82-2.1q2.46-2.1,2.46-6.54V-65.28q0-4.44-2.46-6.54a8.676,8.676,0,0,0-5.82-2.1,8.676,8.676,0,0,0-5.82,2.1q-2.46,2.1-2.46,6.54ZM81,0V-85.44H92.76l18.48,51.48h.24V-85.44h12.24V0H112.2L93.48-51.36h-.24V0Zm61.8,0V-73.92H128.64V-85.44H169.2v11.52H155.04V0Zm31.8,0V-85.44h36.48v11.52H186.84v25.08h21.12v11.52H186.84v25.08h24.24V0Zm43.92,0V-85.44h11.76l18.48,51.48H249V-85.44h12.24V0H249.72L231-51.36h-.24V0Zm61.8,0V-73.92H266.16V-85.44h40.56v11.52H292.56V0Zm71.4-60.84H339.48V-63.6a13.069,13.069,0,0,0-1.98-7.26q-1.98-3.06-6.66-3.06a7.7,7.7,0,0,0-4.08.96,8.046,8.046,0,0,0-2.52,2.4,10.151,10.151,0,0,0-1.32,3.54,23.113,23.113,0,0,0-.36,4.14,40.575,40.575,0,0,0,.18,4.2,7.973,7.973,0,0,0,.9,3,6.673,6.673,0,0,0,2.1,2.28,19.292,19.292,0,0,0,3.78,1.92l9.36,3.72a23.207,23.207,0,0,1,6.6,3.66,15.822,15.822,0,0,1,3.96,4.86,22.717,22.717,0,0,1,1.8,6.54,64.717,64.717,0,0,1,.48,8.34,43.976,43.976,0,0,1-1.08,10.02,21.108,21.108,0,0,1-3.48,7.86,17.274,17.274,0,0,1-6.6,5.28A23.281,23.281,0,0,1,330.6.72a21.788,21.788,0,0,1-8.28-1.56,19.694,19.694,0,0,1-6.6-4.32,21.023,21.023,0,0,1-4.38-6.42,19.494,19.494,0,0,1-1.62-7.98v-4.56h12.24v3.84a10,10,0,0,0,1.98,6.06q1.98,2.7,6.66,2.7a10.74,10.74,0,0,0,4.86-.9,6.461,6.461,0,0,0,2.7-2.58,9.475,9.475,0,0,0,1.14-4.02q.18-2.34.18-5.22a51.724,51.724,0,0,0-.24-5.52,9.5,9.5,0,0,0-.96-3.48,6.747,6.747,0,0,0-2.22-2.16,28.45,28.45,0,0,0-3.66-1.8l-8.76-3.6q-7.92-3.24-10.62-8.58t-2.7-13.38a31.04,31.04,0,0,1,1.32-9.12,20.745,20.745,0,0,1,3.96-7.44,18.149,18.149,0,0,1,6.42-4.98,21.428,21.428,0,0,1,9.3-1.86,20.307,20.307,0,0,1,8.34,1.68,21.483,21.483,0,0,1,6.54,4.44,18.54,18.54,0,0,1,5.52,13.2Z" transform="translate(351.72 86.16)" fill="#fff"/>
</svg>
