<svg xmlns="http://www.w3.org/2000/svg" width="168" height="85.44" viewBox="0 0 168 85.44">
  <path id="パス_892" data-name="パス 892" d="M5.76,0V-85.44H23.88q10.56,0,16.02,5.76t5.46,16.32V-23.4q0,12-5.82,17.7T22.8,0ZM18-73.92v62.4h5.64q5.16,0,7.32-2.58t2.16-8.1V-63.36q0-5.04-2.04-7.8t-7.44-2.76ZM80.16-29.88l-6-30.96h-.24l-6,30.96ZM49.92,0,69-85.44H79.2L98.28,0H86.04l-3.6-18.36H65.76L62.16,0Zm55.8,0V-73.92H91.56V-85.44h40.56v11.52H117.96V0Zm49.92-29.88-6-30.96h-.24l-6,30.96ZM125.4,0l19.08-85.44h10.2L173.76,0H161.52l-3.6-18.36H141.24L137.64,0Z" transform="translate(-5.76 85.44)" fill="#0052aa"/>
</svg>
