<svg xmlns="http://www.w3.org/2000/svg" xmlns:xlink="http://www.w3.org/1999/xlink" width="826.539" height="265.766" viewBox="0 0 826.539 265.766">
  <defs>
    <linearGradient id="linear-gradient" x1="15.592" y1="1.184" x2="0" y2="1.184" gradientUnits="objectBoundingBox">
      <stop offset="0" stop-color="#24c3ff"/>
      <stop offset="0.085" stop-color="#22bcf6"/>
      <stop offset="0.222" stop-color="#1faade"/>
      <stop offset="0.395" stop-color="#198cb7"/>
      <stop offset="0.596" stop-color="#126281"/>
      <stop offset="0.818" stop-color="#082e3d"/>
      <stop offset="1"/>
    </linearGradient>
    <linearGradient id="linear-gradient-2" x1="15.923" y1="1.257" x2="-1.618" y2="1.257" xlink:href="#linear-gradient"/>
    <linearGradient id="linear-gradient-3" x1="10.336" y1="1.196" x2="-2.896" y2="1.196" xlink:href="#linear-gradient"/>
    <linearGradient id="linear-gradient-4" x1="11.946" y1="1.186" x2="-5.538" y2="1.186" xlink:href="#linear-gradient"/>
    <linearGradient id="linear-gradient-5" x1="13.416" y1="1.272" x2="-9.084" y2="1.272" xlink:href="#linear-gradient"/>
    <linearGradient id="linear-gradient-6" x1="9.327" y1="1.257" x2="-8.214" y2="1.257" xlink:href="#linear-gradient"/>
    <linearGradient id="linear-gradient-7" x1="7.688" y1="1.257" x2="-9.404" y2="1.257" xlink:href="#linear-gradient"/>
    <linearGradient id="linear-gradient-8" x1="6.349" y1="1.186" x2="-11.134" y2="1.186" xlink:href="#linear-gradient"/>
    <linearGradient id="linear-gradient-9" x1="14.437" y1="1.371" x2="-37.843" y2="1.371" xlink:href="#linear-gradient"/>
    <linearGradient id="linear-gradient-10" x1="52.195" y1="-0.196" x2="-0.088" y2="-0.196" xlink:href="#linear-gradient"/>
    <linearGradient id="linear-gradient-11" x1="23.633" y1="-0.288" x2="-1.056" y2="-0.288" xlink:href="#linear-gradient"/>
    <linearGradient id="linear-gradient-12" x1="59.804" y1="-0.792" x2="-6.847" y2="-0.792" xlink:href="#linear-gradient"/>
    <linearGradient id="linear-gradient-13" x1="15.293" y1="-0.652" x2="-2.249" y2="-0.652" xlink:href="#linear-gradient"/>
    <linearGradient id="linear-gradient-14" x1="10.424" y1="-0.196" x2="-3.536" y2="-0.196" xlink:href="#linear-gradient"/>
    <linearGradient id="linear-gradient-15" x1="11.477" y1="-0.652" x2="-6.064" y2="-0.652" xlink:href="#linear-gradient"/>
    <linearGradient id="linear-gradient-16" x1="9.951" y1="-0.671" x2="-7.533" y2="-0.671" xlink:href="#linear-gradient"/>
    <linearGradient id="linear-gradient-17" x1="10.848" y1="-0.659" x2="-11.652" y2="-0.659" xlink:href="#linear-gradient"/>
    <linearGradient id="linear-gradient-18" x1="5.331" y1="-0.196" x2="-9.239" y2="-0.196" xlink:href="#linear-gradient"/>
    <linearGradient id="linear-gradient-19" x1="4.819" y1="-0.652" x2="-12.722" y2="-0.652" xlink:href="#linear-gradient"/>
    <linearGradient id="linear-gradient-20" x1="3.295" y1="-0.652" x2="-13.796" y2="-0.652" xlink:href="#linear-gradient"/>
    <linearGradient id="linear-gradient-21" x1="1.856" y1="-0.194" x2="-15.628" y2="-0.194" xlink:href="#linear-gradient"/>
    <linearGradient id="linear-gradient-22" x1="1" y1="-7.346" x2="-51.28" y2="-7.346" xlink:href="#linear-gradient"/>
  </defs>
  <g id="英語キャッチ" transform="translate(-118.667 -371.669)">
    <g id="グループ_77" data-name="グループ 77">
      <path id="パス_388" data-name="パス 388" d="M118.667,398.639a28.2,28.2,0,0,1,2.325-11.78,24.89,24.89,0,0,1,6.2-8.525,26.213,26.213,0,0,1,8.448-4.96,28.138,28.138,0,0,1,27.668,4.96,25.99,25.99,0,0,1,6.045,8.525,28.217,28.217,0,0,1,2.324,11.78v5.58h-15.81v-5.58q0-5.733-3.178-8.448a11.775,11.775,0,0,0-15.035,0q-3.179,2.713-3.176,8.448v58.28q0,5.736,3.176,8.448a11.775,11.775,0,0,0,15.035,0q3.177-2.711,3.178-8.448v-20.77H143.313V422.2h28.364v34.72a27.954,27.954,0,0,1-2.324,11.935,24.636,24.636,0,0,1-6.045,8.215,26.593,26.593,0,0,1-8.6,5.115,27.5,27.5,0,0,1-19.065,0,24.829,24.829,0,0,1-8.448-5.115,23.644,23.644,0,0,1-6.2-8.215,27.938,27.938,0,0,1-2.325-11.935Z"/>
      <path id="パス_389" data-name="パス 389" d="M194.927,430.724a58.225,58.225,0,0,1,.62-8.835,20.989,20.989,0,0,1,10.307-15.345,27.289,27.289,0,0,1,25.265,0,21,21,0,0,1,10.308,15.345,58.615,58.615,0,0,1,.62,8.835v25.885a58.577,58.577,0,0,1-.62,8.835,21,21,0,0,1-10.308,15.345,27.289,27.289,0,0,1-25.265,0,20.989,20.989,0,0,1-10.307-15.345,58.188,58.188,0,0,1-.62-8.835Zm15.809,28.365q0,4.5,2.093,6.743a8.246,8.246,0,0,0,11.315,0q2.093-2.246,2.092-6.743V428.244q0-4.494-2.092-6.743a8.246,8.246,0,0,0-11.315,0q-2.092,2.248-2.093,6.743Z"/>
      <path id="パス_390" data-name="パス 390" d="M299.549,482.959,324.194,372.6h13.175l24.646,110.36H346.2l-4.649-23.715H320.009l-4.65,23.715Zm39.06-38.6-7.75-39.99h-.31l-7.75,39.99Z"/>
      <path id="パス_391" data-name="パス 391" d="M380.459,482.959V372.6H396.27v38.9h.309a19.127,19.127,0,0,1,6.277-5.967,16.345,16.345,0,0,1,8.293-2.093q5.733,0,8.913,2.015a16.952,16.952,0,0,1,5.192,5.115,15.651,15.651,0,0,1,2.016,6.51,121.566,121.566,0,0,1,.464,12.555v29.915a68.926,68.926,0,0,1-.62,10.385,21.047,21.047,0,0,1-2.014,6.51q-4.033,7.44-13.8,7.44-5.893,0-8.991-2.325a38.656,38.656,0,0,1-6.044-5.735v7.13Zm31.465-54.405a12.685,12.685,0,0,0-1.627-6.51q-1.627-2.79-6.123-2.79a7.42,7.42,0,0,0-5.657,2.4,8.608,8.608,0,0,0-2.247,6.123v30.535a10.935,10.935,0,0,0,2.169,7.053,6.977,6.977,0,0,0,5.735,2.712,6.454,6.454,0,0,0,5.89-2.945,14.327,14.327,0,0,0,1.86-7.75Z"/>
      <path id="パス_392" data-name="パス 392" d="M452.378,482.959V404.374h15.81v8.37a48,48,0,0,1,9.456-6.82,24.142,24.142,0,0,1,11.469-2.48v16.74a12.829,12.829,0,0,0-4.8-.93,18.9,18.9,0,0,0-5.348.852,13.927,13.927,0,0,0-5.192,2.868,14.9,14.9,0,0,0-4.031,5.27,18.68,18.68,0,0,0-1.55,8.06v46.655Z"/>
      <path id="パス_393" data-name="パス 393" d="M505.7,430.724a58.225,58.225,0,0,1,.62-8.835,21,21,0,0,1,10.308-15.345,27.289,27.289,0,0,1,25.265,0A21,21,0,0,1,552.2,421.889a58.613,58.613,0,0,1,.62,8.835v25.885a58.575,58.575,0,0,1-.62,8.835,21,21,0,0,1-10.307,15.345,27.289,27.289,0,0,1-25.265,0,21,21,0,0,1-10.308-15.345,58.188,58.188,0,0,1-.62-8.835Zm15.81,28.365q0,4.5,2.093,6.743a8.244,8.244,0,0,0,11.314,0q2.094-2.246,2.093-6.743V428.244q0-4.494-2.093-6.743a8.244,8.244,0,0,0-11.314,0q-2.094,2.248-2.093,6.743Z"/>
      <path id="パス_394" data-name="パス 394" d="M605.982,482.959V474.9h-.309a29.241,29.241,0,0,1-6.277,6.665q-3.18,2.325-8.914,2.325a19.862,19.862,0,0,1-5.657-.852,14.627,14.627,0,0,1-5.5-3.178,15.127,15.127,0,0,1-4.261-6.277,29.206,29.206,0,0,1-1.628-10.618,56,56,0,0,1,1.085-11.7,18.654,18.654,0,0,1,4.03-8.448,16.838,16.838,0,0,1,7.6-4.882,38.791,38.791,0,0,1,12.245-1.628h1.705a8.828,8.828,0,0,1,1.7.155,9.557,9.557,0,0,0,1.859.155,19.1,19.1,0,0,1,2.325.155v-8.215a12.055,12.055,0,0,0-1.705-6.665q-1.705-2.634-6.2-2.635a8.933,8.933,0,0,0-5.657,2.015,9.565,9.565,0,0,0-3.332,5.89H573.742q.618-10.539,7.131-17.05a22.434,22.434,0,0,1,7.44-4.882,25.5,25.5,0,0,1,9.764-1.783,27.493,27.493,0,0,1,9.3,1.55,21.264,21.264,0,0,1,7.6,4.65,22.778,22.778,0,0,1,4.96,7.75,29.1,29.1,0,0,1,1.86,10.85v54.715Zm0-33.79a25.953,25.953,0,0,0-4.339-.465,15.556,15.556,0,0,0-8.758,2.4q-3.644,2.406-3.643,8.758a11.514,11.514,0,0,0,2.171,7.285,7.221,7.221,0,0,0,6.045,2.79,7.8,7.8,0,0,0,6.277-2.635q2.244-2.634,2.247-7.44Z"/>
      <path id="パス_395" data-name="パス 395" d="M676.507,482.959v-7.13q-1.551,1.707-2.944,3.177a16.257,16.257,0,0,1-3.1,2.558,14.65,14.65,0,0,1-3.875,1.705,18.8,18.8,0,0,1-5.114.62q-9.923,0-13.8-7.44a20.965,20.965,0,0,1-2.015-6.51,68.66,68.66,0,0,1-.62-10.385V429.639a121.217,121.217,0,0,1,.465-12.555,14.969,14.969,0,0,1,7.285-11.625q2.943-2.013,8.835-2.015a16.35,16.35,0,0,1,8.293,2.093A19.166,19.166,0,0,1,676.2,411.5h.31V372.6h15.81v110.36Zm-15.654-25.575a14.346,14.346,0,0,0,1.859,7.75,6.452,6.452,0,0,0,5.891,2.945,6.98,6.98,0,0,0,5.734-2.712,10.946,10.946,0,0,0,2.17-7.053V427.779a8.617,8.617,0,0,0-2.247-6.123,7.427,7.427,0,0,0-5.657-2.4q-4.5,0-6.124,2.79a12.7,12.7,0,0,0-1.626,6.51Z"/>
      <path id="パス_396" data-name="パス 396" d="M716.961,494.429v-27.28h15.81v15.81Z"/>
      <path id="パス_397" data-name="パス 397" d="M120.063,636.505V526.145h15.809v110.36Z"/>
      <path id="パス_398" data-name="パス 398" d="M161.911,557.92V534.05h15.811v23.87h9.764v12.4h-9.764v43.555a13.59,13.59,0,0,0,.542,4.34,4.3,4.3,0,0,0,1.782,2.325,6.675,6.675,0,0,0,3.023.93q1.78.156,4.417.155v14.88h-6.509a21.324,21.324,0,0,1-9.068-1.705,16.3,16.3,0,0,1-5.812-4.34,16.977,16.977,0,0,1-3.178-5.968,22.1,22.1,0,0,1-1.008-6.432V570.32h-7.9v-12.4Z"/>
      <path id="パス_399" data-name="パス 399" d="M203.575,553.425v-27.28h12.4v27.28Z"/>
      <path id="パス_400" data-name="パス 400" d="M256.087,579.93a7.87,7.87,0,0,0-2.557-6.045,8.332,8.332,0,0,0-5.5-2.015,7.071,7.071,0,0,0-5.735,2.4,8.322,8.322,0,0,0-2.015,5.5,9.158,9.158,0,0,0,1.085,4.263q1.083,2.094,5.58,3.8l9.3,3.72q8.836,3.411,12.168,9.3a25.7,25.7,0,0,1,3.332,12.866,23.692,23.692,0,0,1-1.782,9.222,24.483,24.483,0,0,1-4.883,7.518,22.268,22.268,0,0,1-7.439,5.115,23.772,23.772,0,0,1-9.455,1.86,22.787,22.787,0,0,1-16.12-6.045,22.154,22.154,0,0,1-5.271-7.363,26.283,26.283,0,0,1-2.17-10.307H239.5a15.067,15.067,0,0,0,2.248,6.045q1.78,2.79,6.277,2.79a9.339,9.339,0,0,0,6.122-2.247,7.7,7.7,0,0,0,2.713-6.278,9.18,9.18,0,0,0-1.705-5.58q-1.705-2.327-6.2-4.03l-7.6-2.79a25.853,25.853,0,0,1-11.7-8.293A21.215,21.215,0,0,1,225.4,579.93a22.819,22.819,0,0,1,1.861-9.223,22.441,22.441,0,0,1,5.114-7.362,20.886,20.886,0,0,1,7.285-4.728,24.582,24.582,0,0,1,8.99-1.627,23.043,23.043,0,0,1,8.913,1.705,20.415,20.415,0,0,1,7.052,4.8,23,23,0,0,1,4.651,7.362,24.239,24.239,0,0,1,1.7,9.068Z"/>
      <path id="パス_401" data-name="パス 401" d="M349.7,636.505V589.85l-21.7-63.7h16.74l12.71,43.865h.31l12.71-43.865h16.74l-21.7,63.7v46.655Z"/>
      <path id="パス_402" data-name="パス 402" d="M404.417,584.27a58.225,58.225,0,0,1,.62-8.835,20.987,20.987,0,0,1,10.308-15.345,27.286,27.286,0,0,1,25.264,0,21,21,0,0,1,10.308,15.345,58.614,58.614,0,0,1,.62,8.835v25.885a58.575,58.575,0,0,1-.62,8.835,21,21,0,0,1-10.308,15.345,27.287,27.287,0,0,1-25.264,0,20.987,20.987,0,0,1-10.308-15.345,58.187,58.187,0,0,1-.62-8.835Zm15.81,28.365q0,4.5,2.092,6.742a8.243,8.243,0,0,0,11.315,0q2.092-2.244,2.093-6.742V581.79q0-4.494-2.093-6.742a8.243,8.243,0,0,0-11.315,0q-2.092,2.249-2.092,6.742Z"/>
      <path id="パス_403" data-name="パス 403" d="M522.062,557.92v78.585H506.251v-7.6h-.31a22.453,22.453,0,0,1-5.967,6.122,15.383,15.383,0,0,1-8.912,2.4,18.112,18.112,0,0,1-5.891-1.007,13.619,13.619,0,0,1-5.27-3.333,16.775,16.775,0,0,1-3.719-5.968,24.988,24.988,0,0,1-1.4-8.912v-60.3H490.6v54.405a10.517,10.517,0,0,0,2.014,6.82,6.964,6.964,0,0,0,5.736,2.48q4.493,0,6.2-2.79t1.705-8.061V557.92Z"/>
      <path id="パス_404" data-name="パス 404" d="M546.705,636.505V557.92h15.811v8.37a47.964,47.964,0,0,1,9.455-6.82,24.145,24.145,0,0,1,11.469-2.48v16.739a12.843,12.843,0,0,0-4.8-.929,18.9,18.9,0,0,0-5.348.852,13.935,13.935,0,0,0-5.192,2.868,14.9,14.9,0,0,0-4.031,5.27,18.68,18.68,0,0,0-1.549,8.06v46.655Z"/>
      <path id="パス_405" data-name="パス 405" d="M642.8,636.505V526.145h25.42q27.9,0,27.9,32.395a40.824,40.824,0,0,1-3.022,16.585,23.439,23.439,0,0,1-10.618,11.005l17.05,50.375h-16.74l-14.725-47.12h-9.455v47.12Zm15.809-95.481v34.411H667.6a15.9,15.9,0,0,0,6.665-1.163,9.063,9.063,0,0,0,3.875-3.333,15.18,15.18,0,0,0,1.705-5.346,58.653,58.653,0,0,0,0-14.726,14.763,14.763,0,0,0-1.861-5.5q-2.946-4.336-11.16-4.341Z"/>
      <path id="パス_406" data-name="パス 406" d="M718.133,584.27a58.225,58.225,0,0,1,.62-8.835,20.987,20.987,0,0,1,10.308-15.345,27.286,27.286,0,0,1,25.264,0,21,21,0,0,1,10.308,15.345,58.614,58.614,0,0,1,.62,8.835v25.885a58.575,58.575,0,0,1-.62,8.835,21,21,0,0,1-10.308,15.345,27.287,27.287,0,0,1-25.264,0,20.988,20.988,0,0,1-10.308-15.345,58.187,58.187,0,0,1-.62-8.835Zm15.809,28.365q0,4.5,2.093,6.742a8.243,8.243,0,0,0,11.315,0q2.093-2.244,2.092-6.742V581.79q0-4.494-2.092-6.742a8.243,8.243,0,0,0-11.315,0q-2.092,2.249-2.093,6.742Z"/>
      <path id="パス_407" data-name="パス 407" d="M818.417,636.505v-8.06h-.31a29.222,29.222,0,0,1-6.277,6.665q-3.179,2.325-8.913,2.325a19.828,19.828,0,0,1-5.657-.853,14.61,14.61,0,0,1-5.5-3.177,15.132,15.132,0,0,1-4.262-6.278,29.2,29.2,0,0,1-1.628-10.617,56.07,56.07,0,0,1,1.085-11.7,18.669,18.669,0,0,1,4.03-8.448,16.841,16.841,0,0,1,7.6-4.882,38.791,38.791,0,0,1,12.245-1.628h1.7a8.824,8.824,0,0,1,1.705.155,9.565,9.565,0,0,0,1.86.155,19.3,19.3,0,0,1,2.325.154V582.1a12.055,12.055,0,0,0-1.705-6.665q-1.707-2.634-6.2-2.635a8.946,8.946,0,0,0-5.658,2.014,9.57,9.57,0,0,0-3.332,5.891H786.177q.618-10.539,7.131-17.05a22.457,22.457,0,0,1,7.439-4.883,25.529,25.529,0,0,1,9.765-1.782,27.5,27.5,0,0,1,9.3,1.55,21.279,21.279,0,0,1,7.594,4.649,22.767,22.767,0,0,1,4.96,7.75,29.109,29.109,0,0,1,1.861,10.851v54.715Zm0-33.79a25.963,25.963,0,0,0-4.34-.465,15.558,15.558,0,0,0-8.758,2.4q-3.642,2.406-3.642,8.758a11.508,11.508,0,0,0,2.171,7.285,7.221,7.221,0,0,0,6.045,2.79,7.8,7.8,0,0,0,6.277-2.635q2.244-2.634,2.247-7.44Z"/>
      <path id="パス_408" data-name="パス 408" d="M888.941,636.505v-7.13q-1.551,1.707-2.944,3.178a16.292,16.292,0,0,1-3.1,2.557,14.589,14.589,0,0,1-3.875,1.7,18.756,18.756,0,0,1-5.114.621q-9.921,0-13.8-7.44a20.992,20.992,0,0,1-2.014-6.51,68.668,68.668,0,0,1-.62-10.385V583.185a121.586,121.586,0,0,1,.464-12.555,14.97,14.97,0,0,1,7.286-11.625q2.941-2.013,8.835-2.015a16.356,16.356,0,0,1,8.292,2.092,19.183,19.183,0,0,1,6.278,5.968h.309v-38.9h15.811v110.36ZM873.287,610.93a14.345,14.345,0,0,0,1.859,7.75,6.454,6.454,0,0,0,5.891,2.945,6.978,6.978,0,0,0,5.734-2.713,10.938,10.938,0,0,0,2.17-7.052V581.325a8.617,8.617,0,0,0-2.247-6.123,7.426,7.426,0,0,0-5.657-2.4q-4.5,0-6.123,2.79a12.685,12.685,0,0,0-1.627,6.51Z"/>
      <path id="パス_409" data-name="パス 409" d="M929.4,636.505V620.7h15.81v15.81Z"/>
    </g>
    <g id="グループ_78" data-name="グループ 78">
      <path id="パス_410" data-name="パス 410" d="M118.667,398.639a28.2,28.2,0,0,1,2.325-11.78,24.89,24.89,0,0,1,6.2-8.525,26.213,26.213,0,0,1,8.448-4.96,28.138,28.138,0,0,1,27.668,4.96,25.99,25.99,0,0,1,6.045,8.525,28.217,28.217,0,0,1,2.324,11.78v5.58h-15.81v-5.58q0-5.733-3.178-8.448a11.775,11.775,0,0,0-15.035,0q-3.179,2.713-3.176,8.448v58.28q0,5.736,3.176,8.448a11.775,11.775,0,0,0,15.035,0q3.177-2.711,3.178-8.448v-20.77H143.313V422.2h28.364v34.72a27.954,27.954,0,0,1-2.324,11.935,24.636,24.636,0,0,1-6.045,8.215,26.593,26.593,0,0,1-8.6,5.115,27.5,27.5,0,0,1-19.065,0,24.829,24.829,0,0,1-8.448-5.115,23.644,23.644,0,0,1-6.2-8.215,27.938,27.938,0,0,1-2.325-11.935Z" fill="url(#linear-gradient)"/>
      <path id="パス_411" data-name="パス 411" d="M194.927,430.724a58.225,58.225,0,0,1,.62-8.835,20.989,20.989,0,0,1,10.307-15.345,27.289,27.289,0,0,1,25.265,0,21,21,0,0,1,10.308,15.345,58.615,58.615,0,0,1,.62,8.835v25.885a58.577,58.577,0,0,1-.62,8.835,21,21,0,0,1-10.308,15.345,27.289,27.289,0,0,1-25.265,0,20.989,20.989,0,0,1-10.307-15.345,58.188,58.188,0,0,1-.62-8.835Zm15.809,28.365q0,4.5,2.093,6.743a8.246,8.246,0,0,0,11.315,0q2.093-2.246,2.092-6.743V428.244q0-4.494-2.092-6.743a8.246,8.246,0,0,0-11.315,0q-2.092,2.248-2.093,6.743Z" fill="url(#linear-gradient-2)"/>
      <path id="パス_412" data-name="パス 412" d="M299.549,482.959,324.194,372.6h13.175l24.646,110.36H346.2l-4.649-23.715H320.009l-4.65,23.715Zm39.06-38.6-7.75-39.99h-.31l-7.75,39.99Z" fill="url(#linear-gradient-3)"/>
      <path id="パス_413" data-name="パス 413" d="M380.459,482.959V372.6H396.27v38.9h.309a19.127,19.127,0,0,1,6.277-5.967,16.345,16.345,0,0,1,8.293-2.093q5.733,0,8.913,2.015a16.952,16.952,0,0,1,5.192,5.115,15.651,15.651,0,0,1,2.016,6.51,121.566,121.566,0,0,1,.464,12.555v29.915a68.926,68.926,0,0,1-.62,10.385,21.047,21.047,0,0,1-2.014,6.51q-4.033,7.44-13.8,7.44-5.893,0-8.991-2.325a38.656,38.656,0,0,1-6.044-5.735v7.13Zm31.465-54.405a12.685,12.685,0,0,0-1.627-6.51q-1.627-2.79-6.123-2.79a7.42,7.42,0,0,0-5.657,2.4,8.608,8.608,0,0,0-2.247,6.123v30.535a10.935,10.935,0,0,0,2.169,7.053,6.977,6.977,0,0,0,5.735,2.712,6.454,6.454,0,0,0,5.89-2.945,14.327,14.327,0,0,0,1.86-7.75Z" fill="url(#linear-gradient-4)"/>
      <path id="パス_414" data-name="パス 414" d="M452.378,482.959V404.374h15.81v8.37a48,48,0,0,1,9.456-6.82,24.142,24.142,0,0,1,11.469-2.48v16.74a12.829,12.829,0,0,0-4.8-.93,18.9,18.9,0,0,0-5.348.852,13.927,13.927,0,0,0-5.192,2.868,14.9,14.9,0,0,0-4.031,5.27,18.68,18.68,0,0,0-1.55,8.06v46.655Z" fill="url(#linear-gradient-5)"/>
      <path id="パス_415" data-name="パス 415" d="M505.7,430.724a58.225,58.225,0,0,1,.62-8.835,21,21,0,0,1,10.308-15.345,27.289,27.289,0,0,1,25.265,0A21,21,0,0,1,552.2,421.889a58.613,58.613,0,0,1,.62,8.835v25.885a58.575,58.575,0,0,1-.62,8.835,21,21,0,0,1-10.307,15.345,27.289,27.289,0,0,1-25.265,0,21,21,0,0,1-10.308-15.345,58.188,58.188,0,0,1-.62-8.835Zm15.81,28.365q0,4.5,2.093,6.743a8.244,8.244,0,0,0,11.314,0q2.094-2.246,2.093-6.743V428.244q0-4.494-2.093-6.743a8.244,8.244,0,0,0-11.314,0q-2.094,2.248-2.093,6.743Z" fill="url(#linear-gradient-6)"/>
      <path id="パス_416" data-name="パス 416" d="M605.982,482.959V474.9h-.309a29.241,29.241,0,0,1-6.277,6.665q-3.18,2.325-8.914,2.325a19.862,19.862,0,0,1-5.657-.852,14.627,14.627,0,0,1-5.5-3.178,15.127,15.127,0,0,1-4.261-6.277,29.206,29.206,0,0,1-1.628-10.618,56,56,0,0,1,1.085-11.7,18.654,18.654,0,0,1,4.03-8.448,16.838,16.838,0,0,1,7.6-4.882,38.791,38.791,0,0,1,12.245-1.628h1.705a8.828,8.828,0,0,1,1.7.155,9.557,9.557,0,0,0,1.859.155,19.1,19.1,0,0,1,2.325.155v-8.215a12.055,12.055,0,0,0-1.705-6.665q-1.705-2.634-6.2-2.635a8.933,8.933,0,0,0-5.657,2.015,9.565,9.565,0,0,0-3.332,5.89H573.742q.618-10.539,7.131-17.05a22.434,22.434,0,0,1,7.44-4.882,25.5,25.5,0,0,1,9.764-1.783,27.493,27.493,0,0,1,9.3,1.55,21.264,21.264,0,0,1,7.6,4.65,22.778,22.778,0,0,1,4.96,7.75,29.1,29.1,0,0,1,1.86,10.85v54.715Zm0-33.79a25.953,25.953,0,0,0-4.339-.465,15.556,15.556,0,0,0-8.758,2.4q-3.644,2.406-3.643,8.758a11.514,11.514,0,0,0,2.171,7.285,7.221,7.221,0,0,0,6.045,2.79,7.8,7.8,0,0,0,6.277-2.635q2.244-2.634,2.247-7.44Z" fill="url(#linear-gradient-7)"/>
      <path id="パス_417" data-name="パス 417" d="M676.507,482.959v-7.13q-1.551,1.707-2.944,3.177a16.257,16.257,0,0,1-3.1,2.558,14.65,14.65,0,0,1-3.875,1.705,18.8,18.8,0,0,1-5.114.62q-9.923,0-13.8-7.44a20.965,20.965,0,0,1-2.015-6.51,68.66,68.66,0,0,1-.62-10.385V429.639a121.217,121.217,0,0,1,.465-12.555,14.969,14.969,0,0,1,7.285-11.625q2.943-2.013,8.835-2.015a16.35,16.35,0,0,1,8.293,2.093A19.166,19.166,0,0,1,676.2,411.5h.31V372.6h15.81v110.36Zm-15.654-25.575a14.346,14.346,0,0,0,1.859,7.75,6.452,6.452,0,0,0,5.891,2.945,6.98,6.98,0,0,0,5.734-2.712,10.946,10.946,0,0,0,2.17-7.053V427.779a8.617,8.617,0,0,0-2.247-6.123,7.427,7.427,0,0,0-5.657-2.4q-4.5,0-6.124,2.79a12.7,12.7,0,0,0-1.626,6.51Z" fill="url(#linear-gradient-8)"/>
      <path id="パス_418" data-name="パス 418" d="M716.961,494.429v-27.28h15.81v15.81Z" fill="url(#linear-gradient-9)"/>
      <path id="パス_419" data-name="パス 419" d="M120.063,636.505V526.145h15.809v110.36Z" fill="url(#linear-gradient-10)"/>
      <path id="パス_420" data-name="パス 420" d="M161.911,557.92V534.05h15.811v23.87h9.764v12.4h-9.764v43.555a13.59,13.59,0,0,0,.542,4.34,4.3,4.3,0,0,0,1.782,2.325,6.675,6.675,0,0,0,3.023.93q1.78.156,4.417.155v14.88h-6.509a21.324,21.324,0,0,1-9.068-1.705,16.3,16.3,0,0,1-5.812-4.34,16.977,16.977,0,0,1-3.178-5.968,22.1,22.1,0,0,1-1.008-6.432V570.32h-7.9v-12.4Z" fill="url(#linear-gradient-11)"/>
      <path id="パス_421" data-name="パス 421" d="M203.575,553.425v-27.28h12.4v27.28Z" fill="url(#linear-gradient-12)"/>
      <path id="パス_422" data-name="パス 422" d="M256.087,579.93a7.87,7.87,0,0,0-2.557-6.045,8.332,8.332,0,0,0-5.5-2.015,7.071,7.071,0,0,0-5.735,2.4,8.322,8.322,0,0,0-2.015,5.5,9.158,9.158,0,0,0,1.085,4.263q1.083,2.094,5.58,3.8l9.3,3.72q8.836,3.411,12.168,9.3a25.7,25.7,0,0,1,3.332,12.866,23.692,23.692,0,0,1-1.782,9.222,24.483,24.483,0,0,1-4.883,7.518,22.268,22.268,0,0,1-7.439,5.115,23.772,23.772,0,0,1-9.455,1.86,22.787,22.787,0,0,1-16.12-6.045,22.154,22.154,0,0,1-5.271-7.363,26.283,26.283,0,0,1-2.17-10.307H239.5a15.067,15.067,0,0,0,2.248,6.045q1.78,2.79,6.277,2.79a9.339,9.339,0,0,0,6.122-2.247,7.7,7.7,0,0,0,2.713-6.278,9.18,9.18,0,0,0-1.705-5.58q-1.705-2.327-6.2-4.03l-7.6-2.79a25.853,25.853,0,0,1-11.7-8.293A21.215,21.215,0,0,1,225.4,579.93a22.819,22.819,0,0,1,1.861-9.223,22.441,22.441,0,0,1,5.114-7.362,20.886,20.886,0,0,1,7.285-4.728,24.582,24.582,0,0,1,8.99-1.627,23.043,23.043,0,0,1,8.913,1.705,20.415,20.415,0,0,1,7.052,4.8,23,23,0,0,1,4.651,7.362,24.239,24.239,0,0,1,1.7,9.068Z" fill="url(#linear-gradient-13)"/>
      <path id="パス_423" data-name="パス 423" d="M349.7,636.505V589.85l-21.7-63.7h16.74l12.71,43.865h.31l12.71-43.865h16.74l-21.7,63.7v46.655Z" fill="url(#linear-gradient-14)"/>
      <path id="パス_424" data-name="パス 424" d="M404.417,584.27a58.225,58.225,0,0,1,.62-8.835,20.987,20.987,0,0,1,10.308-15.345,27.286,27.286,0,0,1,25.264,0,21,21,0,0,1,10.308,15.345,58.614,58.614,0,0,1,.62,8.835v25.885a58.575,58.575,0,0,1-.62,8.835,21,21,0,0,1-10.308,15.345,27.287,27.287,0,0,1-25.264,0,20.987,20.987,0,0,1-10.308-15.345,58.187,58.187,0,0,1-.62-8.835Zm15.81,28.365q0,4.5,2.092,6.742a8.243,8.243,0,0,0,11.315,0q2.092-2.244,2.093-6.742V581.79q0-4.494-2.093-6.742a8.243,8.243,0,0,0-11.315,0q-2.092,2.249-2.092,6.742Z" fill="url(#linear-gradient-15)"/>
      <path id="パス_425" data-name="パス 425" d="M522.062,557.92v78.585H506.251v-7.6h-.31a22.453,22.453,0,0,1-5.967,6.122,15.383,15.383,0,0,1-8.912,2.4,18.112,18.112,0,0,1-5.891-1.007,13.619,13.619,0,0,1-5.27-3.333,16.775,16.775,0,0,1-3.719-5.968,24.988,24.988,0,0,1-1.4-8.912v-60.3H490.6v54.405a10.517,10.517,0,0,0,2.014,6.82,6.964,6.964,0,0,0,5.736,2.48q4.493,0,6.2-2.79t1.705-8.061V557.92Z" fill="url(#linear-gradient-16)"/>
      <path id="パス_426" data-name="パス 426" d="M546.705,636.505V557.92h15.811v8.37a47.964,47.964,0,0,1,9.455-6.82,24.145,24.145,0,0,1,11.469-2.48v16.739a12.843,12.843,0,0,0-4.8-.929,18.9,18.9,0,0,0-5.348.852,13.935,13.935,0,0,0-5.192,2.868,14.9,14.9,0,0,0-4.031,5.27,18.68,18.68,0,0,0-1.549,8.06v46.655Z" fill="url(#linear-gradient-17)"/>
      <path id="パス_427" data-name="パス 427" d="M642.8,636.505V526.145h25.42q27.9,0,27.9,32.395a40.824,40.824,0,0,1-3.022,16.585,23.439,23.439,0,0,1-10.618,11.005l17.05,50.375h-16.74l-14.725-47.12h-9.455v47.12Zm15.809-95.481v34.411H667.6a15.9,15.9,0,0,0,6.665-1.163,9.063,9.063,0,0,0,3.875-3.333,15.18,15.18,0,0,0,1.705-5.346,58.653,58.653,0,0,0,0-14.726,14.763,14.763,0,0,0-1.861-5.5q-2.946-4.336-11.16-4.341Z" fill="url(#linear-gradient-18)"/>
      <path id="パス_428" data-name="パス 428" d="M718.133,584.27a58.225,58.225,0,0,1,.62-8.835,20.987,20.987,0,0,1,10.308-15.345,27.286,27.286,0,0,1,25.264,0,21,21,0,0,1,10.308,15.345,58.614,58.614,0,0,1,.62,8.835v25.885a58.575,58.575,0,0,1-.62,8.835,21,21,0,0,1-10.308,15.345,27.287,27.287,0,0,1-25.264,0,20.988,20.988,0,0,1-10.308-15.345,58.187,58.187,0,0,1-.62-8.835Zm15.809,28.365q0,4.5,2.093,6.742a8.243,8.243,0,0,0,11.315,0q2.093-2.244,2.092-6.742V581.79q0-4.494-2.092-6.742a8.243,8.243,0,0,0-11.315,0q-2.092,2.249-2.093,6.742Z" fill="url(#linear-gradient-19)"/>
      <path id="パス_429" data-name="パス 429" d="M818.417,636.505v-8.06h-.31a29.222,29.222,0,0,1-6.277,6.665q-3.179,2.325-8.913,2.325a19.828,19.828,0,0,1-5.657-.853,14.61,14.61,0,0,1-5.5-3.177,15.132,15.132,0,0,1-4.262-6.278,29.2,29.2,0,0,1-1.628-10.617,56.07,56.07,0,0,1,1.085-11.7,18.669,18.669,0,0,1,4.03-8.448,16.841,16.841,0,0,1,7.6-4.882,38.791,38.791,0,0,1,12.245-1.628h1.7a8.824,8.824,0,0,1,1.705.155,9.565,9.565,0,0,0,1.86.155,19.3,19.3,0,0,1,2.325.154V582.1a12.055,12.055,0,0,0-1.705-6.665q-1.707-2.634-6.2-2.635a8.946,8.946,0,0,0-5.658,2.014,9.57,9.57,0,0,0-3.332,5.891H786.177q.618-10.539,7.131-17.05a22.457,22.457,0,0,1,7.439-4.883,25.529,25.529,0,0,1,9.765-1.782,27.5,27.5,0,0,1,9.3,1.55,21.279,21.279,0,0,1,7.594,4.649,22.767,22.767,0,0,1,4.96,7.75,29.109,29.109,0,0,1,1.861,10.851v54.715Zm0-33.79a25.963,25.963,0,0,0-4.34-.465,15.558,15.558,0,0,0-8.758,2.4q-3.642,2.406-3.642,8.758a11.508,11.508,0,0,0,2.171,7.285,7.221,7.221,0,0,0,6.045,2.79,7.8,7.8,0,0,0,6.277-2.635q2.244-2.634,2.247-7.44Z" fill="url(#linear-gradient-20)"/>
      <path id="パス_430" data-name="パス 430" d="M888.941,636.505v-7.13q-1.551,1.707-2.944,3.178a16.292,16.292,0,0,1-3.1,2.557,14.589,14.589,0,0,1-3.875,1.7,18.756,18.756,0,0,1-5.114.621q-9.921,0-13.8-7.44a20.992,20.992,0,0,1-2.014-6.51,68.668,68.668,0,0,1-.62-10.385V583.185a121.586,121.586,0,0,1,.464-12.555,14.97,14.97,0,0,1,7.286-11.625q2.941-2.013,8.835-2.015a16.356,16.356,0,0,1,8.292,2.092,19.183,19.183,0,0,1,6.278,5.968h.309v-38.9h15.811v110.36ZM873.287,610.93a14.345,14.345,0,0,0,1.859,7.75,6.454,6.454,0,0,0,5.891,2.945,6.978,6.978,0,0,0,5.734-2.713,10.938,10.938,0,0,0,2.17-7.052V581.325a8.617,8.617,0,0,0-2.247-6.123,7.426,7.426,0,0,0-5.657-2.4q-4.5,0-6.123,2.79a12.685,12.685,0,0,0-1.627,6.51Z" fill="url(#linear-gradient-21)"/>
      <path id="パス_431" data-name="パス 431" d="M929.4,636.505V620.7h15.81v15.81Z" fill="url(#linear-gradient-22)"/>
    </g>
  </g>
</svg>
