<svg xmlns="http://www.w3.org/2000/svg" xmlns:xlink="http://www.w3.org/1999/xlink" width="505.944" height="116.676" viewBox="0 0 505.944 116.676">
  <defs>
    <filter id="パス_891" x="0" y="0" width="505.944" height="116.676" filterUnits="userSpaceOnUse">
      <feOffset input="SourceAlpha"/>
      <feGaussianBlur stdDeviation="7.5" result="blur"/>
      <feFlood flood-opacity="0.161"/>
      <feComposite operator="in" in2="blur"/>
      <feComposite in="SourceGraphic"/>
    </filter>
  </defs>
  <g transform="matrix(1, 0, 0, 1, 0, 0)" filter="url(#パス_891)">
    <path id="パス_891-2" data-name="パス 891" d="M37.422-50.193h-10.1V-52.47a10.782,10.782,0,0,0-1.633-5.99q-1.634-2.525-5.495-2.525a6.353,6.353,0,0,0-3.366.792,6.638,6.638,0,0,0-2.079,1.98,8.374,8.374,0,0,0-1.089,2.921,19.067,19.067,0,0,0-.3,3.416,33.473,33.473,0,0,0,.148,3.465,6.578,6.578,0,0,0,.742,2.475,5.5,5.5,0,0,0,1.733,1.881,15.916,15.916,0,0,0,3.118,1.584L26.829-39.4a19.146,19.146,0,0,1,5.445,3.02,13.053,13.053,0,0,1,3.267,4.009,18.742,18.742,0,0,1,1.485,5.4,53.393,53.393,0,0,1,.4,6.881,36.28,36.28,0,0,1-.891,8.267A17.414,17.414,0,0,1,33.66-5.346,14.251,14.251,0,0,1,28.215-.99,19.207,19.207,0,0,1,20,.594,17.975,17.975,0,0,1,13.167-.693,16.248,16.248,0,0,1,7.722-4.257a17.344,17.344,0,0,1-3.614-5.3,16.083,16.083,0,0,1-1.336-6.584V-19.9h10.1v3.168a8.248,8.248,0,0,0,1.634,5Q16.137-9.5,20-9.5a8.86,8.86,0,0,0,4.01-.743,5.33,5.33,0,0,0,2.227-2.128,7.817,7.817,0,0,0,.941-3.316q.148-1.931.148-4.307a42.673,42.673,0,0,0-.2-4.554,7.837,7.837,0,0,0-.792-2.871A5.566,5.566,0,0,0,24.5-29.2a23.47,23.47,0,0,0-3.02-1.485l-7.227-2.97q-6.534-2.673-8.761-7.079A24.35,24.35,0,0,1,3.267-51.777,25.608,25.608,0,0,1,4.356-59.3a17.114,17.114,0,0,1,3.267-6.138,14.973,14.973,0,0,1,5.3-4.108,17.678,17.678,0,0,1,7.673-1.535,16.753,16.753,0,0,1,6.88,1.386,17.724,17.724,0,0,1,5.4,3.663,15.3,15.3,0,0,1,4.554,10.89ZM44.946,0V-70.488H60.093A22.517,22.517,0,0,1,67.419-69.4a14.055,14.055,0,0,1,5.742,3.861,15.1,15.1,0,0,1,3.564,6.485,40.553,40.553,0,0,1,.99,10.048,49.844,49.844,0,0,1-.544,8.019,16.766,16.766,0,0,1-2.327,6.138,14.739,14.739,0,0,1-5.544,5.4,18.658,18.658,0,0,1-9.108,1.931H55.044V0Zm10.1-60.984v23.958H59.9a10.32,10.32,0,0,0,4.752-.891,5.607,5.607,0,0,0,2.475-2.475,9.047,9.047,0,0,0,.94-3.663q.148-2.178.148-4.851,0-2.475-.1-4.7a10.174,10.174,0,0,0-.891-3.91,5.622,5.622,0,0,0-2.376-2.574,9.432,9.432,0,0,0-4.554-.891ZM85.239,0V-70.488h30.1v9.5h-20v20.691h17.424v9.5H95.337V-10.1h20V0Zm68.706-20.1v4.356a15.7,15.7,0,0,1-1.238,6.187,17.116,17.116,0,0,1-3.415,5.2,16.466,16.466,0,0,1-5.1,3.613A14.926,14.926,0,0,1,137.907.594,22.607,22.607,0,0,1,132.066-.2,13.819,13.819,0,0,1,126.72-2.97a15.329,15.329,0,0,1-3.911-5.1,18.051,18.051,0,0,1-1.535-7.969V-54.846a17.168,17.168,0,0,1,1.188-6.435,15.145,15.145,0,0,1,3.366-5.148,15.648,15.648,0,0,1,5.2-3.415,17.463,17.463,0,0,1,6.683-1.238,15.313,15.313,0,0,1,11.583,4.653,16.531,16.531,0,0,1,3.415,5.4,18.222,18.222,0,0,1,1.238,6.782v3.96h-10.1v-3.366a8.174,8.174,0,0,0-1.683-5.148,5.452,5.452,0,0,0-4.554-2.178q-3.762,0-5,2.327a12.468,12.468,0,0,0-1.238,5.89v36.036a9.333,9.333,0,0,0,1.337,5.148q1.336,2.079,4.8,2.079a7.333,7.333,0,0,0,2.128-.347,6.35,6.35,0,0,0,2.128-1.139,6.041,6.041,0,0,0,1.485-2.178,8.824,8.824,0,0,0,.594-3.465V-20.1ZM162.459,0V-70.488h10.1V0Zm40.293-24.651L197.8-50.193h-.2l-4.95,25.542ZM177.8,0l15.741-70.488h8.415L217.7,0H207.6l-2.97-15.147H190.872L187.9,0Zm44.847,0V-70.488h10.1V-10.1h20V0ZM277.7,0V-70.488h9.7l12.969,37.323h.2l12.87-37.323h9.8V0h-10.1V-42.867h-.2l-10,30.294h-5.049l-9.9-30.294h-.2V0Zm54.45-53.856a18.009,18.009,0,0,1,1.485-7.524,15.9,15.9,0,0,1,3.96-5.445,16.742,16.742,0,0,1,5.4-3.168,17.832,17.832,0,0,1,6.089-1.089,17.832,17.832,0,0,1,6.089,1.089,17.946,17.946,0,0,1,5.495,3.168,16.578,16.578,0,0,1,3.861,5.445A18.01,18.01,0,0,1,366-53.856v37.224a17.846,17.846,0,0,1-1.485,7.623,15.727,15.727,0,0,1-3.861,5.247,16.976,16.976,0,0,1-5.495,3.267A17.832,17.832,0,0,1,349.074.594a17.832,17.832,0,0,1-6.089-1.089,15.885,15.885,0,0,1-5.4-3.267,15.114,15.114,0,0,1-3.96-5.247,17.845,17.845,0,0,1-1.485-7.623Zm10.1,37.224q0,3.663,2.029,5.4a7.158,7.158,0,0,0,4.8,1.733,7.158,7.158,0,0,0,4.8-1.733q2.029-1.732,2.03-5.4V-53.856q0-3.663-2.03-5.4a7.158,7.158,0,0,0-4.8-1.732,7.158,7.158,0,0,0-4.8,1.732q-2.029,1.733-2.029,5.4Zm65.142-53.856L392.931,0h-8.91L369.666-70.488h10.692l8.019,49.2h.2l8.118-49.2ZM413.721,0V-70.488h10.1V0Zm19.9,0V-70.488h30.1v9.5h-20v20.691h17.424v9.5H443.718V-10.1h20V0Z" transform="translate(19.73 93.58)" fill="#fff"/>
  </g>
</svg>
