<svg xmlns="http://www.w3.org/2000/svg" width="454.8" height="86.16" viewBox="0 0 454.8 86.16">
  <path id="パス_896" data-name="パス 896" d="M6.12,0V-85.44H18.36V0ZM38.28,0V-73.92H24.12V-85.44H64.68v11.52H50.52V0Zm31.8,0V-85.44h36.48v11.52H82.32v25.08h21.12v11.52H82.32v25.08h24.24V0Zm44.4,0V-85.44h11.76L141.96-40.2h.24l15.6-45.24h11.88V0H157.44V-51.96h-.24L145.08-15.24h-6.12l-12-36.72h-.24V0Zm89.04,0V-85.44h12.24v73.2H240V0Zm44.76,0V-85.44h12.24V0Zm23.64,0V-85.44h11.76l18.48,51.48h.24V-85.44h12.24V0H303.12L284.4-51.36h-.24V0Zm53.76,0V-85.44h36.48v11.52H337.92v25.08h21.12v11.52H337.92v25.08h24.24V0Zm84-85.44V-19.2a19.636,19.636,0,0,1-1.5,7.74,19.715,19.715,0,0,1-4.26,6.3,20.363,20.363,0,0,1-6.36,4.32A19.106,19.106,0,0,1,389.88.72a18.684,18.684,0,0,1-7.62-1.56,20.57,20.57,0,0,1-6.3-4.32,20.571,20.571,0,0,1-4.32-6.3,18.98,18.98,0,0,1-1.56-7.74V-85.44h12.24V-20.4q0,4.56,2.16,6.72a7.327,7.327,0,0,0,5.4,2.16,7.327,7.327,0,0,0,5.4-2.16q2.16-2.16,2.16-6.72V-85.44ZM421.2,0V-85.44h18.36a27.293,27.293,0,0,1,8.88,1.32,17.036,17.036,0,0,1,6.96,4.68,18.3,18.3,0,0,1,4.32,7.86,49.154,49.154,0,0,1,1.2,12.18,60.417,60.417,0,0,1-.66,9.72,20.322,20.322,0,0,1-2.82,7.44,17.866,17.866,0,0,1-6.72,6.54q-4.2,2.34-11.04,2.34h-6.24V0Zm12.24-73.92v29.04h5.88a12.509,12.509,0,0,0,5.76-1.08,6.8,6.8,0,0,0,3-3,10.967,10.967,0,0,0,1.14-4.44q.18-2.64.18-5.88,0-3-.12-5.7a12.332,12.332,0,0,0-1.08-4.74,6.814,6.814,0,0,0-2.88-3.12,11.433,11.433,0,0,0-5.52-1.08Z" transform="translate(-6.12 85.44)" fill="#fff"/>
</svg>
